<svg width="305" height="200" viewBox="0 0 305 200" fill="none" xmlns="http://www.w3.org/2000/svg">
<path d="M304.132 27.0207V172.979C304.132 187.909 292.068 200 277.172 200H26.9607C12.064 200 0 187.909 0 172.979V27.0207C0 12.0908 12.064 0 26.9607 0H277.172C292.068 0 304.132 12.0908 304.132 27.0207Z" fill="url(#paint0_linear_71_933)"/>
<path d="M272.306 190.614H31.1598C18.9292 190.614 8.99805 180.661 8.99805 168.403V31.5626C8.99805 19.3048 18.9292 9.35156 31.1598 9.35156H272.273C284.503 9.35156 294.434 19.3048 294.434 31.5626V168.37C294.434 180.661 284.537 190.614 272.306 190.614Z" fill="url(#paint1_linear_71_933)"/>
<path d="M165.963 40.3475C146.667 38.7109 141.102 56.8138 141.102 56.8138C141.102 56.8138 137.236 70.8418 146.068 78.5906H111.175L127.038 65.3976C127.272 65.1972 127.372 64.93 127.338 64.6294C126.938 61.2226 123.373 40.6481 96.8785 38.2433C96.8785 38.2433 69.0847 36.3061 64.1192 64.4958C64.0525 64.8632 64.1858 65.2306 64.4857 65.4644L80.7488 78.9914C80.7488 78.9914 62.3196 80.628 60.4866 102.138C60.4866 102.138 59.5868 119.105 76.1831 125.284C78.8159 126.253 81.5819 126.72 84.3813 126.72H105.81V115.264H85.4811C82.2151 115.264 78.9825 114.128 76.5497 111.957C74.2836 109.953 72.3173 106.847 72.4506 102.138C72.4506 102.138 72.5839 94.3889 80.7821 91.1157C81.8485 90.6815 82.9816 90.4811 84.1147 90.4811H91.0132C92.1129 90.4811 93.2127 90.1471 94.0792 89.4791C94.8456 88.8779 95.5455 87.9761 95.6788 86.6401V90.2807L188.025 90.4811V64.3622C188.025 58.7844 186.225 53.3401 182.759 48.9981C179.46 44.8231 174.228 41.0489 165.963 40.3475ZM80.1156 62.258C80.1156 62.258 84.2147 52.2379 95.7121 52.1377C107.21 52.0375 111.275 62.1578 111.275 62.1578L95.7121 75.2506L80.1156 62.258ZM175.294 75.3842H163.364C162.031 75.3842 160.731 75.0502 159.565 74.449C157.832 73.5138 156.299 72.2446 155.132 70.6414C151.366 65.431 153.099 61.1224 155.465 58.3168C157.898 55.3776 161.597 53.741 165.397 53.9414C170.162 54.2086 172.662 57.081 173.995 59.7196C174.928 61.59 175.361 63.6274 175.361 65.7316V75.3842H175.294ZM157.698 27.3215C157.698 23.28 160.964 20.0068 164.997 20.0068C169.029 20.0068 172.295 23.28 172.295 27.3215C172.295 31.3629 169.029 34.6361 164.997 34.6361C160.998 34.6361 157.698 31.3629 157.698 27.3215ZM255.743 101.303H259.876V105.578H244.112V101.303L247.178 101.47L246.812 100.401C245.779 97.3281 247.445 94.0215 250.478 93.0529L250.544 93.0195C251.944 92.5519 253.41 92.3515 254.877 92.3515H258.709L258.243 96.5265L254.044 96.4263C253.577 96.4263 253.144 96.5599 252.777 96.8271C251.511 97.6955 251.544 99.5993 252.844 100.434C253.71 101.002 254.71 101.303 255.743 101.303ZM259.876 22.9126V90.2139H245.479V22.9126H259.876ZM237.88 56.747L238.08 90.2807H194.857V78.791H223.484V55.8452V55.8118C223.284 53.2066 221.151 51.1357 218.551 51.0355H201.489V39.5793H218.785C220.751 39.5793 222.684 39.8131 224.583 40.2139C232.348 41.9173 237.847 48.7977 237.88 56.747ZM214.252 175.718C214.252 179.76 210.986 183.033 206.954 183.033C202.922 183.033 199.656 179.76 199.656 175.718C199.656 171.677 202.922 168.404 206.954 168.404C210.986 168.404 214.252 171.677 214.252 175.718ZM187.425 168.404C183.393 168.404 180.127 171.677 180.127 175.718C180.127 179.76 183.393 183.033 187.425 183.033C191.457 183.033 194.723 179.76 194.723 175.718C194.723 171.677 191.457 168.404 187.425 168.404ZM269.907 22.9126L269.773 140.214H215.652V126.687C216.152 115.565 210.82 109.82 205.788 106.881C202.355 104.877 198.423 103.908 194.457 103.908H178.994V139.345C176.694 164.229 153.766 163.895 153.766 163.895C119.707 164.195 124.506 131.864 124.506 131.864L111.609 125.15C107.21 180.595 153.733 177.021 153.733 177.021C172.962 175.484 182.493 165.798 187.225 156.981C190.324 151.236 191.824 144.79 191.824 138.243V115.698C201.722 115.631 202.055 123.547 202.055 123.547V151.637H283.204V22.9126H269.907Z" fill="#0E2316"/>
<path d="M145.268 200H61.8529L2.09952 144.889L0.666504 66.5996L145.268 200Z" fill="#0E2316"/>
<path d="M136.536 197.996L101.777 200H64.0189L59.7865 199.833H59.5199L0.266481 149.766L0.166504 149.666L0.266481 139.947L1.03298 77.2881L1.16628 77.3883L96.3451 158.551L136.536 197.996Z" fill="#0E2316"/>
<path d="M140.069 200H59.6534L59.3201 199.666L0 142.886V65.8652L96.2785 158.083L136.969 197.027L140.069 200Z" fill="url(#paint2_linear_71_933)"/>
<path d="M163.864 38.2428C144.568 36.6062 139.002 54.7091 139.002 54.7091C139.002 54.7091 135.137 68.7372 143.968 76.486H109.076L124.939 63.2929C125.172 63.0925 125.272 62.8253 125.239 62.5247C124.839 59.1179 121.273 38.5434 94.7789 36.1386C94.7789 36.1386 66.9851 34.2014 62.0196 62.3911C61.9529 62.7585 62.0862 63.1259 62.3861 63.3597L78.6492 76.8868C78.6492 76.8868 60.22 78.5234 58.387 100.033C58.387 100.033 57.4872 117 74.0835 123.179C76.7163 124.148 79.4823 124.616 82.2817 124.616H103.71V113.159H83.3815C80.1155 113.159 76.8829 112.024 74.4501 109.853C72.184 107.849 70.2177 104.742 70.351 100.033C70.351 100.033 70.4843 92.2842 78.6825 89.011C79.7489 88.5768 80.882 88.3764 82.0151 88.3764H88.9136C90.0133 88.3764 91.1131 88.0424 91.9796 87.3744C92.746 86.7732 93.4459 85.8714 93.5792 84.5354V88.176L185.925 88.3764V62.2575C185.925 56.6797 184.126 51.2355 180.66 46.8935C177.361 42.7185 172.128 38.9443 163.864 38.2428ZM78.016 60.1533C78.016 60.1533 82.1151 50.1333 93.6125 50.0331C105.11 49.9329 109.176 60.0531 109.176 60.0531L93.6125 73.146L78.016 60.1533ZM173.195 73.2796H161.264C159.931 73.2796 158.631 72.9456 157.465 72.3444C155.732 71.4092 154.199 70.1399 153.033 68.5367C149.267 63.3263 151 59.0177 153.366 56.2121C155.799 53.2729 159.498 51.6363 163.297 51.8367C168.063 52.1039 170.562 54.9763 171.895 57.6149C172.828 59.4853 173.261 61.5227 173.261 63.6269V73.2796H173.195Z" fill="white"/>
<path d="M162.93 32.5316C166.961 32.5316 170.229 29.2567 170.229 25.217C170.229 21.1772 166.961 17.9023 162.93 17.9023C158.899 17.9023 155.632 21.1772 155.632 25.217C155.632 29.2567 158.899 32.5316 162.93 32.5316Z" fill="white"/>
<path d="M250.777 98.3631C249.478 97.5281 249.444 95.6243 250.711 94.7559C251.077 94.4887 251.544 94.3551 251.977 94.3551L256.176 94.4553L256.643 90.2803H252.81C251.344 90.2803 249.877 90.5141 248.478 90.9483L248.411 90.9817C245.378 91.9503 243.712 95.2569 244.745 98.3297L245.112 99.3985L242.046 99.2315V103.507H257.809V99.2315H253.677C252.644 99.1981 251.644 98.8975 250.777 98.3631Z" fill="white"/>
<path d="M257.809 20.8086H243.413V88.1098H257.809V20.8086Z" fill="white"/>
<path d="M222.517 38.076C220.618 37.6418 218.652 37.4414 216.719 37.4414H199.389V48.8976H216.452C219.085 48.9978 221.184 51.0686 221.384 53.6739V53.7073V76.6531H192.757V88.1428H235.981L235.781 54.6091C235.748 46.6932 230.249 39.8128 222.517 38.076Z" fill="white"/>
<path d="M212.186 173.614C212.186 177.656 208.92 180.929 204.888 180.929C200.855 180.929 197.589 177.656 197.589 173.614C197.589 169.573 200.855 166.299 204.888 166.299C208.92 166.299 212.186 169.573 212.186 173.614ZM185.325 166.299C181.293 166.299 178.027 169.573 178.027 173.614C178.027 177.656 181.293 180.929 185.325 180.929C189.358 180.929 192.624 177.656 192.624 173.614C192.624 169.573 189.358 166.299 185.325 166.299ZM267.807 20.8086L267.707 138.11H213.552V124.583C214.052 113.46 208.72 107.716 203.688 104.776C200.255 102.772 196.323 101.804 192.357 101.804H176.894V137.241C174.594 162.124 151.666 161.79 151.666 161.79C117.607 162.091 122.406 129.76 122.406 129.76L109.509 123.046C105.143 178.491 151.666 174.917 151.666 174.917C170.895 173.38 180.426 163.694 185.159 154.877C188.258 149.132 189.758 142.686 189.758 136.139V113.561C199.655 113.494 199.989 121.41 199.989 121.41V149.499H281.137V20.8086H267.807Z" fill="#FEE600"/>
<defs>
<linearGradient id="paint0_linear_71_933" x1="0.00333259" y1="99.9999" x2="304.129" y2="99.9999" gradientUnits="userSpaceOnUse">
<stop offset="0.0135135" stop-color="#F6B11A"/>
<stop offset="0.5" stop-color="#FCEE1E"/>
<stop offset="1" stop-color="#F6B11A"/>
</linearGradient>
<linearGradient id="paint1_linear_71_933" x1="9.01431" y1="99.9839" x2="294.445" y2="99.9839" gradientUnits="userSpaceOnUse">
<stop stop-color="#00AB4B"/>
<stop offset="1" stop-color="#0A7C41"/>
</linearGradient>
<linearGradient id="paint2_linear_71_933" x1="-21.714" y1="99.3902" x2="138.149" y2="202.976" gradientUnits="userSpaceOnUse">
<stop offset="0.0135135" stop-color="#F6B11A"/>
<stop offset="0.5" stop-color="#FCEE1E"/>
<stop offset="1" stop-color="#F6B11A"/>
</linearGradient>
</defs>
</svg>
