<svg width="371" height="243" viewBox="0 0 371 243" fill="none" xmlns="http://www.w3.org/2000/svg">
<g clip-path="url(#clip0_317_1447)">
<path d="M100.923 175.243C99.6927 175.3 98.4624 175.339 97.219 175.339C54.2197 175.339 19.3586 140.431 19.3586 97.3634C19.3586 54.2961 53.3633 20.2498 95.6323 19.4052C95.6497 19.4052 95.667 19.3965 95.6801 19.4052C105.631 19.218 113.348 12.0691 113.826 1.42856C113.656 1.39808 113.491 1.3589 113.322 1.33278C108.083 0.457673 102.705 0.00488314 97.2234 0.00488314C43.5253 0.000529393 0 43.5902 0 97.3634C0 151.136 43.5253 194.726 97.219 194.726C98.4624 194.726 99.6927 194.678 100.923 194.63V175.243Z" fill="#0D74B8"/>
<path d="M281.628 110.524V169.374H263.539V114.051C263.539 109.998 260.239 106.693 256.192 106.693H225.152C229.564 121.282 240.594 132.977 254.796 138.227V157.197C225.374 149.577 204.976 123.272 204.976 92.6305V88.5771H259.713C271.794 88.5771 281.628 98.4253 281.628 110.524Z" fill="#010101"/>
<path d="M342.625 138.306V157.214C331.191 154.253 320.749 148.258 312.333 139.847C299.726 127.199 292.805 110.442 292.805 92.6305V88.5771H310.937L310.976 92.5913C311.037 98.2642 311.768 101.752 311.768 101.791L311.789 101.873C314.641 118.736 326.622 132.737 342.629 138.31L342.625 138.306Z" fill="#010101"/>
<path d="M369.456 104.669V182.265C369.456 192.27 361.357 200.381 351.367 200.381V88.5771H353.389C362.262 88.5771 369.456 95.7826 369.456 104.669Z" fill="#010101"/>
<path d="M126.807 88.5771C107.527 88.5771 91.8979 104.229 91.8979 123.538V174.916V175.839V224.048C91.8979 234.515 100.371 243 110.822 243V125.083C110.822 115.392 118.669 107.533 128.346 107.533H174.293C174.24 107.964 174.175 108.395 174.106 108.822C173.854 110.402 173.414 112.984 173.08 114.552V114.56C172.78 115.958 172.441 117.347 172.062 118.727C171.684 120.111 171.271 121.483 170.815 122.841C170.793 122.911 170.767 122.98 170.741 123.054C170.297 124.378 169.819 125.684 169.302 126.977C169.258 127.09 169.211 127.199 169.167 127.308C168.663 128.553 168.132 129.785 167.567 131.004C167.493 131.165 167.415 131.322 167.337 131.483C166.785 132.646 166.215 133.791 165.607 134.923C165.494 135.136 165.368 135.349 165.25 135.563C164.663 136.629 164.063 137.683 163.429 138.724C163.259 138.998 163.081 139.268 162.911 139.542C162.307 140.504 161.69 141.462 161.042 142.398C160.807 142.738 160.559 143.069 160.316 143.404C159.703 144.262 159.086 145.111 158.438 145.942C158.121 146.347 157.786 146.743 157.464 147.144C156.86 147.884 156.26 148.628 155.63 149.351C155.212 149.826 154.778 150.287 154.347 150.753C153.773 151.376 153.208 152.007 152.613 152.612C152.074 153.161 151.513 153.687 150.956 154.223C150.439 154.724 149.93 155.229 149.396 155.716C148.696 156.352 147.97 156.957 147.248 157.571C146.822 157.928 146.413 158.302 145.979 158.651C145.048 159.404 144.087 160.122 143.118 160.836C142.862 161.023 142.622 161.224 142.366 161.407C139.858 163.205 137.232 164.877 134.484 166.392L132.706 167.376V188.308L137.593 186.04C139.701 185.061 141.766 184.007 143.783 182.888C143.888 182.831 143.992 182.77 144.096 182.71C144.974 182.218 145.839 181.717 146.696 181.203C146.887 181.086 147.078 180.968 147.27 180.85C148.035 180.385 148.791 179.906 149.543 179.418C149.778 179.266 150.009 179.113 150.239 178.957C150.939 178.491 151.634 178.021 152.321 177.542C152.573 177.363 152.826 177.185 153.078 177.006C153.739 176.536 154.391 176.057 155.034 175.569C155.291 175.373 155.551 175.182 155.808 174.982C156.438 174.498 157.06 174.002 157.677 173.501C157.934 173.297 158.186 173.088 158.442 172.883C159.055 172.374 159.664 171.856 160.264 171.333C160.503 171.124 160.746 170.92 160.986 170.706C161.603 170.162 162.207 169.605 162.807 169.043C163.02 168.847 163.233 168.651 163.442 168.455C164.098 167.833 164.737 167.201 165.376 166.561C165.52 166.418 165.668 166.278 165.811 166.13C167.354 164.559 168.845 162.939 170.276 161.272C170.541 160.958 170.802 160.64 171.063 160.327C171.493 159.813 171.928 159.295 172.349 158.773C172.667 158.376 172.975 157.972 173.288 157.571C173.641 157.118 173.988 156.67 174.332 156.213C174.667 155.764 174.993 155.311 175.323 154.859C175.627 154.441 175.927 154.023 176.223 153.6C176.562 153.113 176.897 152.621 177.227 152.124C177.492 151.728 177.757 151.336 178.014 150.936C178.357 150.409 178.692 149.878 179.027 149.347C179.257 148.977 179.488 148.607 179.714 148.232C180.057 147.666 180.396 147.096 180.727 146.521C180.922 146.182 181.114 145.842 181.305 145.502C181.653 144.889 181.992 144.27 182.326 143.648C182.483 143.356 182.631 143.064 182.787 142.768C183.139 142.093 183.492 141.414 183.826 140.731C183.931 140.522 184.026 140.313 184.126 140.104C186.756 134.653 188.891 128.954 190.473 123.063C190.478 123.041 190.486 123.02 190.491 122.998C190.747 122.049 190.982 121.095 191.208 120.133C191.23 120.046 191.691 118 191.878 117.059C191.899 116.951 191.921 116.837 191.943 116.728C192.13 115.792 192.299 114.852 192.456 113.907C192.473 113.803 192.491 113.694 192.508 113.589C192.664 112.632 192.956 110.546 192.969 110.468C193.099 109.466 193.217 108.465 193.316 107.459V107.451C193.621 104.351 193.79 101.22 193.79 98.0683V88.5902H126.798L126.807 88.5771Z" fill="#010101"/>
<path d="M144.596 59.2285C144.018 59.2285 143.522 59.4375 143.109 59.8511C142.696 60.2647 142.488 60.761 142.488 61.3401C142.488 61.9191 142.696 62.4155 143.109 62.8291C143.522 63.2427 144.018 63.4517 144.596 63.4517C145.174 63.4517 145.67 63.2427 146.083 62.8291C146.496 62.4155 146.705 61.9191 146.705 61.3401C146.705 60.761 146.496 60.2647 146.083 59.8511C145.67 59.4375 145.174 59.2285 144.596 59.2285Z" fill="#231F20"/>
<path d="M149.535 59.2285C148.957 59.2285 148.461 59.4375 148.048 59.8511C147.635 60.2647 147.426 60.761 147.426 61.3401C147.426 61.9191 147.631 62.4155 148.048 62.8291C148.461 63.2427 148.957 63.4517 149.535 63.4517C150.113 63.4517 150.609 63.2427 151.022 62.8291C151.435 62.4155 151.643 61.9191 151.643 61.3401C151.643 60.761 151.435 60.2647 151.022 59.8511C150.609 59.4375 150.113 59.2285 149.535 59.2285Z" fill="#231F20"/>
<path d="M162.264 32.0693C161.686 32.0693 161.19 32.2783 160.777 32.6919C160.364 33.1055 160.155 33.6019 160.155 34.1809C160.155 34.76 160.36 35.2563 160.777 35.6699C161.19 36.0835 161.686 36.2925 162.264 36.2925C162.842 36.2925 163.338 36.0835 163.751 35.6699C164.164 35.2563 164.372 34.76 164.372 34.1809C164.372 33.6019 164.164 33.1055 163.751 32.6919C163.338 32.2783 162.842 32.0693 162.264 32.0693Z" fill="#231F20"/>
<path d="M160.477 46.7811H157.377C156.056 46.7637 154.838 46.6722 153.73 46.5068C152.621 46.3413 150.795 45.9756 148.248 45.414L147.526 48.8186C148.948 49.1321 149.865 49.3498 150.282 49.463L151.5 49.7373C152.226 49.9375 152.721 50.1857 152.978 50.4818C153.234 50.7822 153.36 51.1522 153.36 51.6007C153.36 52.2799 153.208 52.7979 152.899 53.155C152.591 53.512 152.065 53.7645 151.313 53.9125C150.56 54.0605 149.456 54.1345 148 54.1345H146.535C144.453 54.1345 142.914 53.6905 141.918 52.8067C140.927 51.9185 140.431 50.6167 140.431 48.8926C140.431 47.8826 140.614 46.6722 140.975 45.266H137.475C136.997 46.8551 136.753 48.3223 136.753 49.6633C136.753 51.5005 137.184 53.0243 138.045 54.2347C138.905 55.445 140.07 56.3375 141.544 56.9166C143.018 57.4956 144.679 57.7873 146.531 57.7873H147.996C151.104 57.7873 153.399 57.2867 154.882 56.2853C156.364 55.2839 157.103 53.7209 157.103 51.6007C157.103 51.1696 157.068 50.7909 157.003 50.4556H164.224V38.5264H160.477V46.7767V46.7811Z" fill="#231F20"/>
<path d="M170.711 37.9123C169.428 38.5915 168.489 39.4753 167.894 40.5594C167.298 41.6435 167.002 42.819 167.002 44.0772C167.002 45.1874 167.229 46.2323 167.685 47.2076C168.141 48.1872 168.807 48.9708 169.68 49.5673C170.559 50.1638 171.598 50.4598 172.806 50.4598C173.649 50.4598 174.41 50.2857 175.088 49.9374C175.767 49.5891 176.345 49.0928 176.827 48.4484V48.5224C176.827 50.0462 176.48 51.1521 175.784 51.84C175.088 52.5279 173.989 52.8718 172.484 52.8718C171.689 52.8718 170.754 52.7978 169.68 52.6498L169.654 56.2764C170.845 56.4898 171.971 56.5986 173.028 56.5986C175.475 56.5986 177.336 55.9151 178.61 54.548C179.884 53.1809 180.518 51.1826 180.518 48.5485V36.8936H175.58C173.61 36.8936 171.984 37.2331 170.706 37.9123H170.711ZM176.827 43.3023C176.827 43.9161 176.688 44.4908 176.406 45.0307C176.123 45.5706 175.754 45.9972 175.288 46.3107C174.823 46.6242 174.345 46.7809 173.849 46.7809C173.219 46.7809 172.671 46.6372 172.197 46.3455C171.728 46.0538 171.367 45.6751 171.119 45.2005C170.872 44.7303 170.745 44.234 170.745 43.7202C170.745 42.8408 171.124 42.1093 171.876 41.5216C172.628 40.9338 173.849 40.6378 175.536 40.6378H176.827V43.2979V43.3023Z" fill="#231F20"/>
<path d="M222.904 32.6919C222.491 33.1055 222.283 33.6019 222.283 34.1809C222.283 34.76 222.491 35.2563 222.904 35.6699C223.317 36.0835 223.813 36.2925 224.391 36.2925C224.969 36.2925 225.465 36.0835 225.878 35.6699C226.291 35.2563 226.5 34.76 226.5 34.1809C226.5 33.6019 226.291 33.1055 225.878 32.6919C225.465 32.2783 224.969 32.0693 224.391 32.0693C223.813 32.0693 223.317 32.2783 222.904 32.6919Z" fill="#231F20"/>
<path d="M217.344 34.1809C217.344 34.76 217.553 35.2563 217.966 35.6699C218.379 36.0835 218.874 36.2925 219.453 36.2925C220.031 36.2925 220.526 36.0835 220.939 35.6699C221.352 35.2563 221.561 34.76 221.561 34.1809C221.561 33.6019 221.352 33.1055 220.939 32.6919C220.526 32.2783 220.031 32.0693 219.453 32.0693C218.874 32.0693 218.379 32.2783 217.966 32.6919C217.553 33.1055 217.344 33.6019 217.344 34.1809Z" fill="#231F20"/>
<path d="M247.789 46.7811H244.689C242.407 46.7811 241.15 45.9931 240.92 44.4214C240.872 42.6799 240.146 41.2388 238.75 40.085C237.351 38.9356 235.42 38.1824 232.955 37.8341C234.081 37.2028 235.377 36.6586 236.838 36.1928C238.303 35.7313 239.776 35.4047 241.268 35.2219L240.72 31.543C238.007 31.974 235.703 32.5574 233.812 33.2932C231.916 34.029 230.134 35.0303 228.465 36.2886L229.208 40.9601C230.812 40.9601 232.216 41.1082 233.412 41.4086C234.612 41.709 235.538 42.1313 236.19 42.6755C236.842 43.2241 237.168 43.8597 237.168 44.5911C237.168 45.1702 237.064 45.6143 236.859 45.919C236.651 46.2238 236.303 46.4458 235.803 46.5765C235.307 46.7071 234.603 46.7767 233.695 46.7767H227.617C226.213 46.7767 225.2 46.472 224.591 45.8581C224.061 45.2965 223.796 44.5433 223.796 43.5985V38.5307H220.048V43.5985C220.048 44.6608 219.757 45.4532 219.179 45.9843C218.601 46.5155 217.857 46.7811 216.944 46.7811H189.552V38.5307H185.804V50.46C185.804 51.1566 185.687 51.6442 185.457 51.9272C185.226 52.2102 184.852 52.3495 184.339 52.3495C183.909 52.3495 183.313 52.2581 182.553 52.0752L181.831 55.3057C182.94 55.6714 183.983 55.8543 184.957 55.8543C186.431 55.8543 187.561 55.3971 188.356 54.4872C189.152 53.5773 189.548 52.232 189.548 50.46H216.94C218.096 50.46 219.127 50.2684 220.031 49.8897C220.931 49.5065 221.683 48.971 222.278 48.2744C223.204 49.7329 224.983 50.46 227.613 50.46H233.69C236.286 50.46 238.207 49.8374 239.446 48.5966C240.502 49.8374 242.25 50.46 244.68 50.46H251.527V32.2222H247.78V46.7854L247.789 46.7811Z" fill="#231F20"/>
<path d="M266.747 46.7806H263.448L259.748 34.6293H255.879L259.574 46.7806H254.166V50.4595H270.49V32.2217H266.747V46.7806Z" fill="#231F20"/>
<path d="M258.496 56.0848C258.239 55.8628 258.113 55.5667 258.113 55.201C258.113 54.8353 258.231 54.5915 258.461 54.4173C258.691 54.2432 258.991 54.1561 259.352 54.1561C259.635 54.1561 259.948 54.2214 260.295 54.3564L261.065 52.8674C260.452 52.567 259.835 52.4189 259.204 52.4189C258.391 52.4189 257.709 52.654 257.144 53.1286C256.583 53.5988 256.3 54.2083 256.3 54.9572C256.3 55.5885 256.492 56.0761 256.87 56.4244H256.3V57.9917H261.461V56.4244H259.474C259.078 56.4244 258.752 56.3112 258.496 56.0892V56.0848Z" fill="#231F20"/>
<path d="M276.868 32.2217H273.12V50.4595H276.868V32.2217Z" fill="#231F20"/>
<path d="M322.745 37.7863C321.471 38.4307 320.541 39.2753 319.954 40.3202C319.367 41.3651 319.071 42.4971 319.071 43.7248C319.071 44.8524 319.311 45.8712 319.793 46.7812H298.9L301.556 44.121V44.0731C301.556 42.7322 301.23 41.5044 300.578 40.3942C299.926 39.284 299.03 38.4089 297.9 37.7733C296.765 37.1376 295.505 36.8154 294.118 36.8154C292.731 36.8154 291.492 37.1333 290.357 37.7733C289.223 38.4133 288.332 39.284 287.68 40.3942C287.027 41.5044 286.701 42.7278 286.701 44.0731V44.121L289.553 47.0032C287.914 47.3341 286.658 48.0002 285.784 49.0016C284.906 50.0029 284.471 51.3003 284.471 52.8895C284.471 54.8443 285.123 56.3507 286.432 57.413C287.736 58.471 289.592 59.0021 291.988 59.0021H295.487V55.3493H291.988C289.475 55.3493 288.214 54.5308 288.214 52.8895C288.214 52.1276 288.492 51.5311 289.045 51.1001C289.597 50.6691 290.444 50.4557 291.588 50.4557C292.614 50.4557 293.457 49.8593 294.118 48.6663C294.796 49.8593 295.639 50.4557 296.648 50.4557H332.726V36.8154H327.64C325.653 36.8154 324.027 37.1376 322.754 37.7863H322.745ZM294.114 46.829L290.418 43.0282C290.466 42.6625 290.657 42.2924 290.988 41.9093C291.318 41.5262 291.762 41.2084 292.314 40.9515C292.866 40.6946 293.466 40.5684 294.114 40.5684C294.761 40.5684 295.357 40.6946 295.913 40.9515C296.465 41.2084 296.909 41.5262 297.239 41.9093C297.57 42.2924 297.761 42.6625 297.809 43.0282L294.114 46.829ZM328.949 46.7812H327.631C325.879 46.7812 324.627 46.4895 323.884 45.9104C323.141 45.3314 322.767 44.5956 322.767 43.6987C322.767 42.8018 323.141 42.0573 323.884 41.4609C324.627 40.8644 325.862 40.5684 327.579 40.5684H328.944V46.7812H328.949Z" fill="#231F20"/>
<path d="M324.732 31.4995C324.319 31.9131 324.11 32.4095 324.11 32.9885C324.11 33.5676 324.319 34.0639 324.732 34.4775C325.145 34.8911 325.64 35.1001 326.218 35.1001C326.797 35.1001 327.292 34.8911 327.705 34.4775C328.118 34.0639 328.327 33.5676 328.327 32.9885C328.327 32.4095 328.118 31.9131 327.705 31.4995C327.292 31.0859 326.797 30.877 326.218 30.877C325.64 30.877 325.145 31.0859 324.732 31.4995Z" fill="#231F20"/>
<path d="M364.431 46.7806H361.331C359.927 46.7806 358.914 46.4758 358.306 45.862C357.775 45.3003 357.51 44.5471 357.51 43.6024V32.2217H353.763V43.6024C353.763 44.6647 353.471 45.4571 352.893 45.9882C352.315 46.5194 351.572 46.785 350.659 46.785H348.155V45.37C348.155 42.5879 347.329 40.4677 345.672 39.0092C344.016 37.5507 341.742 36.8236 338.847 36.8236H336.986V40.5765H338.799C340.156 40.5765 341.238 40.7289 342.051 41.038C342.86 41.3428 343.455 41.8435 343.838 42.527C344.22 43.2149 344.407 44.164 344.407 45.37V46.785H335.6V50.4639H350.659C351.815 50.4639 352.845 50.2723 353.745 49.8935C354.645 49.5104 355.397 48.9749 355.993 48.2783C356.919 49.7368 358.697 50.4639 361.327 50.4639H368.174V32.226H364.427V46.7893L364.431 46.7806Z" fill="#231F20"/>
<path d="M148.591 18.878H139.592V13.6753H147.261V10.545H139.592V5.91692H148.565V2.67773H135.602V22.0867H148.591V18.878Z" fill="#231F20"/>
<path d="M154.743 1.61523H150.882V22.0909H154.743V1.61523Z" fill="#231F20"/>
<path d="M170.154 19.7577L168.263 17.6375C167.428 18.7128 166.272 19.2527 164.789 19.2527C163.829 19.2527 163.037 18.9697 162.411 18.3994C161.785 17.829 161.411 17.0758 161.285 16.1311H170.458V14.5594C170.458 12.2737 169.893 10.5104 168.763 9.26522C167.632 8.02005 166.08 7.39746 164.111 7.39746C162.798 7.39746 161.629 7.70658 160.603 8.32481C159.577 8.94304 158.786 9.8225 158.229 10.9632C157.668 12.1039 157.39 13.4013 157.39 14.8511V15.2255C157.39 17.385 158.055 19.1134 159.381 20.4108C160.707 21.7082 162.429 22.3569 164.537 22.3569C165.737 22.3569 166.828 22.1262 167.811 21.669C168.797 21.2119 169.576 20.5719 170.154 19.7577ZM162.242 11.281C162.716 10.7629 163.337 10.506 164.098 10.506C164.915 10.506 165.546 10.7411 165.989 11.207C166.433 11.6772 166.663 12.339 166.68 13.1967V13.5058H161.329C161.464 12.5436 161.764 11.7991 162.242 11.281Z" fill="#231F20"/>
<path d="M183.865 19.7882C184.387 18.9741 184.656 18.0816 184.665 17.102H181.057C181.04 17.7507 180.809 18.2688 180.366 18.6606C179.922 19.0524 179.344 19.2484 178.635 19.2484C177.714 19.2484 177.023 18.9218 176.57 18.2731C176.118 17.6244 175.892 16.5534 175.892 15.0688V14.6682C175.892 13.201 176.123 12.1387 176.579 11.4856C177.036 10.8326 177.714 10.506 178.609 10.506C179.335 10.506 179.922 10.7411 180.366 11.2113C180.809 11.6815 181.04 12.2911 181.057 13.0399H184.665C184.648 11.3332 184.096 9.96617 183.009 8.93869C181.922 7.9112 180.479 7.39746 178.675 7.39746C176.614 7.39746 174.997 8.05923 173.814 9.38277C172.632 10.7063 172.045 12.4783 172.045 14.703V14.9556C172.045 17.2674 172.641 19.0786 173.827 20.389C175.014 21.6995 176.64 22.3569 178.701 22.3569C179.801 22.3569 180.805 22.1305 181.713 21.6821C182.622 21.2337 183.339 20.6024 183.865 19.7882Z" fill="#231F20"/>
<path d="M187.617 18.2635C187.67 20.9933 189.048 22.356 191.743 22.356C192.543 22.356 193.317 22.2385 194.073 22.0077V19.0863C193.747 19.1473 193.369 19.1778 192.943 19.1778C192.365 19.1778 191.978 19.0602 191.773 18.8295C191.569 18.5987 191.469 18.2156 191.469 17.6844V10.4877H193.93V7.66211H191.469V4.11816H187.622V7.66211H185.518V10.4877H187.622V18.2591L187.617 18.2635Z" fill="#231F20"/>
<path d="M199.916 12.652C200.368 11.6637 201.324 11.1717 202.776 11.1717C203.176 11.1717 203.637 11.2065 204.159 11.2806L204.211 7.57552C203.837 7.45797 203.437 7.40137 203.011 7.40137C201.646 7.40137 200.576 8.06314 199.803 9.38668L199.694 7.66695H196.06V22.0909H199.907V12.652H199.916Z" fill="#231F20"/>
<path d="M211.762 22.3569C213.84 22.3569 215.492 21.6865 216.727 20.3499C217.962 19.0133 218.579 17.2369 218.579 15.0252L218.553 14.0369C218.409 11.995 217.727 10.3754 216.496 9.1825C215.266 7.99392 213.679 7.39746 211.736 7.39746C210.371 7.39746 209.167 7.70222 208.137 8.3161C207.102 8.92998 206.311 9.79638 205.759 10.9153C205.206 12.0342 204.933 13.3098 204.933 14.7422V14.9164C204.933 17.2108 205.55 19.022 206.789 20.3542C208.028 21.6865 209.684 22.3526 211.762 22.3526V22.3569ZM209.554 11.6075C210.067 10.8718 210.797 10.506 211.736 10.506C212.675 10.506 213.423 10.8761 213.945 11.6119C214.466 12.352 214.731 13.3926 214.731 14.7379C214.731 16.3139 214.471 17.459 213.945 18.1773C213.423 18.8957 212.693 19.2527 211.762 19.2527C210.832 19.2527 210.067 18.8914 209.554 18.1643C209.041 17.4372 208.78 16.3923 208.78 15.0209C208.78 13.4796 209.036 12.3433 209.554 11.6119V11.6075Z" fill="#231F20"/>
<path d="M224.717 11.9162C225.26 10.9932 226.069 10.5317 227.152 10.5317C227.977 10.5317 228.564 10.7146 228.921 11.0846C229.277 11.4547 229.456 12.0468 229.456 12.8653V22.0909H233.303V12.7739C233.286 10.9889 232.903 9.6479 232.16 8.74667C231.416 7.8498 230.277 7.40137 228.751 7.40137C227.021 7.40137 225.643 8.04572 224.613 9.33443L224.491 7.66695H220.87V22.0909H224.717V11.9206V11.9162Z" fill="#231F20"/>
<path d="M240.276 7.66699H236.416V22.091H240.276V7.66699Z" fill="#231F20"/>
<path d="M238.346 5.93379C238.994 5.93379 239.516 5.74658 239.911 5.37216C240.307 4.99774 240.502 4.51882 240.502 3.93107C240.502 3.34331 240.307 2.87746 239.916 2.50304C239.524 2.12862 239.003 1.94141 238.346 1.94141C237.69 1.94141 237.155 2.12862 236.768 2.50304C236.381 2.87746 236.19 3.35202 236.19 3.93107C236.19 4.51012 236.386 4.99774 236.781 5.37216C237.177 5.74658 237.698 5.93379 238.346 5.93379Z" fill="#231F20"/>
<path d="M255.462 17.102H251.853C251.836 17.7507 251.606 18.2688 251.162 18.6606C250.719 19.0524 250.14 19.2484 249.432 19.2484C248.51 19.2484 247.819 18.9218 247.367 18.2731C246.915 17.6244 246.689 16.5534 246.689 15.0688V14.6682C246.689 13.201 246.919 12.1387 247.376 11.4856C247.832 10.8326 248.51 10.506 249.406 10.506C250.132 10.506 250.719 10.7411 251.162 11.2113C251.606 11.6815 251.836 12.2911 251.853 13.0399H255.462C255.444 11.3332 254.892 9.96617 253.805 8.93869C252.718 7.9112 251.275 7.39746 249.471 7.39746C247.41 7.39746 245.793 8.05923 244.611 9.38277C243.428 10.7063 242.841 12.4783 242.841 14.703V14.9556C242.841 17.2674 243.437 19.0786 244.624 20.389C245.811 21.6995 247.436 22.3569 249.497 22.3569C250.597 22.3569 251.601 22.1305 252.51 21.6821C253.418 21.2337 254.136 20.6024 254.662 19.7882C255.183 18.9741 255.453 18.0816 255.462 17.102Z" fill="#231F20"/>
<path d="M276.098 3.47882C274.994 2.94767 273.711 2.67773 272.259 2.67773H264.699V22.0867H268.694V15.247H272.194C274.494 15.247 276.293 14.6984 277.593 13.6013C278.893 12.5041 279.545 11.0021 279.545 9.10386C279.545 7.84999 279.25 6.73543 278.654 5.75148C278.059 4.77189 277.211 4.00998 276.107 3.47882H276.098ZM274.676 11.2633C274.12 11.7597 273.316 12.0078 272.259 12.0078H268.69V5.91692H272.35C273.337 5.93434 274.107 6.23475 274.668 6.8225C275.228 7.41026 275.507 8.17652 275.507 9.12999C275.507 10.0835 275.228 10.767 274.676 11.2633Z" fill="#231F20"/>
<path d="M289.844 20.7939C289.923 21.3077 290.053 21.7387 290.231 22.087H294.118V21.8606C293.744 21.1597 293.553 20.1235 293.544 18.7564V12.5044C293.544 10.8892 293.022 9.63093 291.979 8.73841C290.935 7.8459 289.527 7.39746 287.753 7.39746C286.584 7.39746 285.527 7.59773 284.584 8.00263C283.645 8.40753 282.915 8.96481 282.402 9.67447C281.889 10.3841 281.628 11.1591 281.628 11.995H285.475C285.475 11.4552 285.658 11.0285 286.027 10.715C286.397 10.4059 286.901 10.2492 287.549 10.2492C288.284 10.2492 288.823 10.4494 289.166 10.85C289.51 11.2505 289.679 11.7817 289.679 12.4478V13.275H287.91C285.771 13.2837 284.136 13.6973 283.006 14.5158C281.876 15.3343 281.311 16.5055 281.311 18.0337C281.311 19.2788 281.776 20.3107 282.702 21.1248C283.628 21.9433 284.797 22.3526 286.21 22.3526C287.701 22.3526 288.91 21.8345 289.844 20.7939ZM285.158 17.755L285.171 17.5286C285.297 16.1964 286.319 15.5303 288.244 15.5303H289.683V18.0075C289.453 18.4342 289.097 18.7738 288.618 19.0263C288.14 19.2788 287.614 19.4051 287.049 19.4051C286.484 19.4051 286.001 19.2484 285.667 18.9392C285.332 18.6301 285.162 18.2339 285.162 17.7507L285.158 17.755Z" fill="#231F20"/>
<path d="M299.652 23.3144C299.448 23.8281 299.165 24.1982 298.808 24.4202C298.448 24.6423 297.904 24.7554 297.178 24.7554L296.591 24.7424V27.6637C297.17 27.8335 297.735 27.9163 298.295 27.9163C300.274 27.9163 301.695 26.9759 302.556 25.0907L302.873 24.3288L308.664 7.66699H304.538L301.878 16.6401L299.204 7.66699H295.065L300.108 22.1301L299.656 23.3187L299.652 23.3144Z" fill="#231F20"/>
<path d="M314.029 11.8905C314.515 10.9849 315.307 10.5322 316.398 10.5322C317.189 10.5322 317.745 10.7194 318.076 11.0938C318.406 11.4682 318.567 12.0734 318.567 12.9049V22.0914H322.415L322.401 12.1866C322.845 11.0851 323.645 10.5322 324.797 10.5322C325.605 10.5322 326.166 10.7194 326.488 11.0981C326.81 11.4769 326.966 12.0734 326.966 12.8919V22.0914H330.827V12.8788C330.827 11.0459 330.444 9.67882 329.683 8.76454C328.918 7.8546 327.757 7.39746 326.197 7.39746C324.323 7.39746 322.884 8.12889 321.871 9.5961C321.18 8.12889 319.906 7.39746 318.05 7.39746C316.311 7.39746 314.928 8.0244 313.911 9.27828L313.789 7.66739H310.181V22.0914H314.029V11.8949V11.8905Z" fill="#231F20"/>
<path d="M343.686 21.669C344.673 21.2119 345.451 20.5719 346.029 19.7577L344.138 17.6375C343.303 18.7128 342.147 19.2527 340.664 19.2527C339.704 19.2527 338.912 18.9697 338.286 18.3994C337.66 17.829 337.286 17.0758 337.16 16.1311H346.333V14.5594C346.333 12.2737 345.768 10.5104 344.638 9.26522C343.507 8.02005 341.955 7.39746 339.986 7.39746C338.673 7.39746 337.504 7.70658 336.478 8.32481C335.452 8.94304 334.661 9.8225 334.104 10.9632C333.543 12.1039 333.265 13.4013 333.265 14.8511V15.2255C333.265 17.385 333.93 19.1134 335.256 20.4108C336.582 21.7082 338.304 22.3569 340.412 22.3569C341.612 22.3569 342.703 22.1262 343.686 21.669ZM338.112 11.281C338.586 10.7629 339.208 10.506 339.969 10.506C340.786 10.506 341.416 10.7411 341.86 11.207C342.303 11.6772 342.534 12.339 342.551 13.1967V13.5058H337.199C337.334 12.5436 337.634 11.7991 338.112 11.281Z" fill="#231F20"/>
<path d="M352.285 11.9162C352.828 10.9932 353.637 10.5317 354.719 10.5317C355.545 10.5317 356.132 10.7146 356.489 11.0846C356.845 11.4547 357.023 12.0468 357.023 12.8653V22.0909H360.871V12.7739C360.853 10.9889 360.471 9.6479 359.727 8.74667C358.984 7.8498 357.845 7.40137 356.319 7.40137C354.589 7.40137 353.211 8.04572 352.181 9.33443L352.059 7.66695H348.438V22.0909H352.285V11.9206V11.9162Z" fill="#231F20"/>
<path d="M369.866 19.1827C369.287 19.1827 368.901 19.0651 368.696 18.8344C368.492 18.6036 368.392 18.2205 368.392 17.6893V10.4926H370.852V7.667H368.392V4.12305H364.545V7.667H362.44V10.4926H364.545V18.264C364.597 20.9938 365.975 22.3565 368.67 22.3565C369.47 22.3565 370.244 22.239 371 22.0082V19.0869C370.674 19.1478 370.296 19.1783 369.87 19.1783L369.866 19.1827Z" fill="#231F20"/>
</g>
<defs>
<clipPath id="clip0_317_1447">
<rect width="371" height="243" fill="white"/>
</clipPath>
</defs>
</svg>
