<svg width="50" height="50" viewBox="0 0 50 50" fill="none" xmlns="http://www.w3.org/2000/svg">
<g clip-path="url(#clip0_34_4837)">
<g clip-path="url(#clip1_34_4837)">
<path d="M32.5989 26.5812C32.755 26.3289 32.8888 26.0995 33.0226 25.8702H34.9851V26.5812H35.4089H36.5239L36.7246 20.1592H33.7585C32.8219 22.361 31.9521 24.4482 31.0601 26.5812H32.5989ZM34.829 21.6271H35.1635L35.0743 24.1729H33.7362L34.8513 21.6271H34.829Z" fill="#96989A"/>
<path d="M27.5362 20.2049C28.6736 19.8379 31.3051 19.6774 31.8404 21.5581C32.2864 23.0948 30.7476 24.7462 29.1642 24.8609C28.852 24.8838 28.5175 24.8838 28.116 24.9068C27.9376 25.4572 27.893 25.9618 27.6923 26.5581H26.042C26.5549 24.3563 27.0456 22.2462 27.5139 20.182L27.5362 20.2049ZM28.8297 21.4664L28.4283 23.4618C28.4283 23.4618 29.4541 23.5994 29.7663 23.1407C30.1009 22.682 30.0117 21.4434 29.4541 21.4434H28.8297V21.4664Z" fill="#96989A"/>
<path d="M21.8718 26.5812H23.4998C23.6559 25.8243 23.9682 23.7142 23.9682 23.7142L26.622 20.1592H24.994L23.5221 22.2005C23.5221 22.2005 23.2768 20.8702 23.143 20.1592H21.4258C21.5373 20.939 22.3624 23.5078 22.3624 23.5078C22.3624 23.5078 21.961 25.8702 21.8718 26.5583V26.5812Z" fill="#96989A"/>
<path d="M38.174 26.5812H39.8021L40.4711 23.6454L43.1027 20.1821H41.497C41.3855 20.3427 40.3373 21.7647 40.0474 22.2005C40.0028 22.2005 39.9359 22.2005 39.8913 22.1775C39.7575 21.5124 39.6459 20.8702 39.5121 20.1821H37.7949C37.8618 20.5262 38.7316 23.5078 38.7316 23.5078L38.174 26.6041V26.5812Z" fill="#96989A"/>
<path d="M42.9912 43.6452C42.7459 43.0948 42.5229 42.5214 42.2776 41.9709C41.4524 40.159 40.4043 38.5076 39.0216 37.0856C36.6353 34.6544 33.7807 33.003 30.4355 32.4984C26.8449 31.948 23.4774 32.7278 20.4221 34.792C18.9056 35.8241 17.3891 36.8792 15.6273 37.4984C13.1072 38.37 10.5648 38.8058 7.88864 38.5076C6.10452 38.3012 4.4096 37.8425 2.69238 37.0856C2.80389 36.0764 3.16071 35.159 3.38373 34.1498C4.03047 34.4021 4.58801 34.6315 5.14555 34.8379C7.24189 35.6406 9.40514 35.6865 11.5907 35.4342C14.1108 35.136 16.3186 34.0351 18.3703 32.5443C20.6897 30.847 23.2767 29.8379 26.1313 29.448C30.034 28.9434 33.6469 29.7691 37.0144 31.7645C38.5755 32.6819 39.9805 33.8516 41.1402 35.2966C41.3632 35.5948 41.6308 35.8241 41.9877 36.214C42.233 35.2966 42.456 34.5397 42.6567 33.7828C43.861 29.1957 45.043 24.5856 46.2249 19.9984C46.4034 19.3333 46.5372 18.6452 46.7602 17.9801C46.9163 17.4984 46.8494 17.0856 46.6041 16.6727C45.6451 14.9984 44.4408 13.5305 42.9243 12.3379C41.274 11.0305 39.423 10.1131 37.3935 9.67732C34.4497 9.03512 31.5505 9.24154 28.7183 10.4342C27.2687 11.0535 26.0198 11.9938 24.7263 12.8425C21.5595 14.9067 18.0804 15.7782 14.3561 15.5259C12.5497 15.4113 10.8101 14.9984 9.04832 14.1957C9.31593 13.2553 9.56125 12.3379 9.82887 11.3516C10.1188 11.4434 10.2972 11.4892 10.4756 11.5581C14.8913 13.1177 19.1286 12.8425 23.1429 10.2737C24.7709 9.21861 26.3543 8.09475 28.183 7.40668C30.8592 6.46631 33.5577 6.14521 36.3454 6.48925C39.5568 6.90209 42.4114 8.14062 44.9538 10.2048C46.8717 11.7645 48.4105 13.6681 49.5256 15.9388C49.5702 16.0305 49.6148 16.1223 49.6817 16.214C50.0831 16.7645 50.0608 17.3379 49.8824 17.9571C48.9011 21.6498 47.9199 25.3425 46.9609 29.0581C46.0242 32.6131 45.1099 36.1681 44.1955 39.7003C43.861 41.0076 43.5265 42.3149 43.1919 43.6452C43.125 43.6452 43.0804 43.6452 43.0135 43.6452H42.9912Z" fill="#96989A"/>
<path d="M42.9912 43.6452C42.7459 43.0948 42.5229 42.5214 42.2776 41.9709C41.4524 40.159 40.4043 38.5076 39.0216 37.0856C36.6353 34.6544 33.7807 33.003 30.4355 32.4984C26.8449 31.948 23.4774 32.7278 20.4221 34.792C18.9056 35.8241 17.3891 36.8792 15.6273 37.4984C13.1072 38.37 10.5648 38.8058 7.88864 38.5076C6.10452 38.3012 4.4096 37.8425 2.69238 37.0856C2.80389 36.0764 3.16071 35.159 3.38373 34.1498C4.03047 34.4021 4.58801 34.6315 5.14555 34.8379C7.24189 35.6406 9.40514 35.6865 11.5907 35.4342C14.1108 35.136 16.3186 34.0351 18.3703 32.5443C20.6897 30.847 23.2767 29.8379 26.1313 29.448C30.034 28.9434 33.6469 29.7691 37.0144 31.7645C38.5755 32.6819 39.9805 33.8516 41.1402 35.2966C41.3632 35.5948 41.6308 35.8241 41.9877 36.214C42.233 35.2966 42.456 34.5397 42.6567 33.7828C43.861 29.1957 45.043 24.5856 46.2249 19.9984C46.4034 19.3333 46.5372 18.6452 46.7602 17.9801C46.9163 17.4984 46.8494 17.0856 46.6041 16.6727C45.6451 14.9984 44.4408 13.5305 42.9243 12.3379C41.274 11.0305 39.423 10.1131 37.3935 9.67732C34.4497 9.03512 31.5505 9.24154 28.7183 10.4342C27.2687 11.0535 26.0198 11.9938 24.7263 12.8425C21.5595 14.9067 18.0804 15.7782 14.3561 15.5259C12.5497 15.4113 10.8101 14.9984 9.04832 14.1957C9.31593 13.2553 9.56125 12.3379 9.82887 11.3516C10.1188 11.4434 10.2972 11.4892 10.4756 11.5581C14.8913 13.1177 19.1286 12.8425 23.1429 10.2737C24.7709 9.21861 26.3543 8.09475 28.183 7.40668C30.8592 6.46631 33.5577 6.14521 36.3454 6.48925C39.5568 6.90209 42.4114 8.14062 44.9538 10.2048C46.8717 11.7645 48.4105 13.6681 49.5256 15.9388C49.5702 16.0305 49.6148 16.1223 49.6817 16.214C50.0831 16.7645 50.0608 17.3379 49.8824 17.9571C48.9011 21.6498 47.9199 25.3425 46.9609 29.0581C46.0242 32.6131 45.1099 36.1681 44.1955 39.7003C43.861 41.0076 43.5265 42.3149 43.1919 43.6452C43.125 43.6452 43.0804 43.6452 43.0135 43.6452H42.9912Z" fill="url(#paint0_linear_34_4837)"/>
<path d="M21.827 34.7001C22.6075 34.4249 23.3881 34.0808 24.2133 33.8744C27.3355 33.0258 30.4131 33.2781 33.3569 34.6313C34.9403 35.3652 36.3676 36.3515 37.6611 37.5212C37.9956 37.8194 38.174 38.1405 38.0402 38.5992C37.728 39.723 37.3934 40.8698 37.0812 41.9937C37.0589 42.0854 36.9697 42.1542 36.8582 42.3377C33.2008 36.9019 28.2498 34.3331 21.8716 34.8377C21.8493 34.7918 21.827 34.746 21.8047 34.6772L21.827 34.7001Z" fill="#96989A"/>
<path d="M21.827 34.7001C22.6075 34.4249 23.3881 34.0808 24.2133 33.8744C27.3355 33.0258 30.4131 33.2781 33.3569 34.6313C34.9403 35.3652 36.3676 36.3515 37.6611 37.5212C37.9956 37.8194 38.174 38.1405 38.0402 38.5992C37.728 39.723 37.3934 40.8698 37.0812 41.9937C37.0589 42.0854 36.9697 42.1542 36.8582 42.3377C33.2008 36.9019 28.2498 34.3331 21.8716 34.8377C21.8493 34.7918 21.827 34.746 21.8047 34.6772L21.827 34.7001Z" fill="url(#paint1_linear_34_4837)"/>
<path d="M11.4793 23.5762C11.2563 24.6083 11.0333 25.5257 10.8326 26.489C10.5873 26.512 10.3866 26.5808 10.1636 26.5578C7.84419 26.3744 5.65865 25.6863 3.69611 24.356C2.82635 23.7597 2.69254 22.4753 3.40619 21.6955C3.71841 21.3514 4.11984 21.2597 4.56587 21.4661C4.76659 21.5578 4.9673 21.6955 5.14571 21.8101C6.79602 22.934 8.60245 23.5074 10.5873 23.5074C10.8326 23.5074 11.0779 23.5303 11.4793 23.5533V23.5762Z" fill="#96989A"/>
<path d="M11.4793 23.5762C11.2563 24.6083 11.0333 25.5257 10.8326 26.489C10.5873 26.512 10.3866 26.5808 10.1636 26.5578C7.84419 26.3744 5.65865 25.6863 3.69611 24.356C2.82635 23.7597 2.69254 22.4753 3.40619 21.6955C3.71841 21.3514 4.11984 21.2597 4.56587 21.4661C4.76659 21.5578 4.9673 21.6955 5.14571 21.8101C6.79602 22.934 8.60245 23.5074 10.5873 23.5074C10.8326 23.5074 11.0779 23.5303 11.4793 23.5533V23.5762Z" fill="url(#paint2_linear_34_4837)"/>
<path d="M13.3304 29.2417C13.1074 30.3885 12.8175 31.3747 12.5052 32.338C11.1672 32.6591 7.82193 32.4756 6.39463 32.0169C6.35003 31.5352 6.68455 30.1132 7.06368 29.1958C9.09312 29.5169 11.1449 29.7004 13.3527 29.2417H13.3304Z" fill="#96989A"/>
<path d="M13.3304 29.2417C13.1074 30.3885 12.8175 31.3747 12.5052 32.338C11.1672 32.6591 7.82193 32.4756 6.39463 32.0169C6.35003 31.5352 6.68455 30.1132 7.06368 29.1958C9.09312 29.5169 11.1449 29.7004 13.3527 29.2417H13.3304Z" fill="url(#paint3_linear_34_4837)"/>
<path d="M9.76221 20.2279C10.0075 19.2875 10.2305 18.416 10.4759 17.4985C11.5017 17.6591 12.4384 17.8426 13.3751 17.9114C14.3117 17.9802 15.2484 17.9114 16.2966 17.9114C16.0289 18.9894 15.7836 19.9527 15.5383 20.8472C14.334 21.1683 11.078 20.8013 9.76221 20.205V20.2279Z" fill="#96989A"/>
<path d="M9.76221 20.2279C10.0075 19.2875 10.2305 18.416 10.4759 17.4985C11.5017 17.6591 12.4384 17.8426 13.3751 17.9114C14.3117 17.9802 15.2484 17.9114 16.2966 17.9114C16.0289 18.9894 15.7836 19.9527 15.5383 20.8472C14.334 21.1683 11.078 20.8013 9.76221 20.205V20.2279Z" fill="url(#paint4_linear_34_4837)"/>
<path d="M4.85573 28.5303C4.61041 29.4477 4.3874 30.3193 4.11978 31.3055C3.67375 31.1221 3.33923 30.9844 3.02701 30.801C2.24645 30.3652 1.4436 29.9065 0.685347 29.4248C-0.00599954 28.9661 -0.0952056 28.5533 0.060905 27.7734C0.373126 26.3055 1.24289 26.1221 2.26875 26.9477C3.02701 27.5441 3.94137 27.9799 4.83343 28.5303H4.85573Z" fill="#96989A"/>
<path d="M4.85573 28.5303C4.61041 29.4477 4.3874 30.3193 4.11978 31.3055C3.67375 31.1221 3.33923 30.9844 3.02701 30.801C2.24645 30.3652 1.4436 29.9065 0.685347 29.4248C-0.00599954 28.9661 -0.0952056 28.5533 0.060905 27.7734C0.373126 26.3055 1.24289 26.1221 2.26875 26.9477C3.02701 27.5441 3.94137 27.9799 4.83343 28.5303H4.85573Z" fill="url(#paint5_linear_34_4837)"/>
<path d="M8.35702 16.7415C8.1117 17.7048 7.88869 18.5764 7.64337 19.5397C7.17504 19.3562 6.75131 19.2186 6.37219 18.9892C5.59163 18.5534 4.81108 18.0489 4.05283 17.5672C3.6291 17.292 3.45069 16.9021 3.51759 16.3975C3.56219 16.1452 3.6068 15.8929 3.6737 15.6406C3.91902 14.7461 4.52116 14.4709 5.32401 14.9296C5.88155 15.2507 6.41679 15.6406 6.97433 15.9846C7.39806 16.2369 7.84409 16.4663 8.33472 16.7415H8.35702Z" fill="#96989A"/>
<path d="M8.35702 16.7415C8.1117 17.7048 7.88869 18.5764 7.64337 19.5397C7.17504 19.3562 6.75131 19.2186 6.37219 18.9892C5.59163 18.5534 4.81108 18.0489 4.05283 17.5672C3.6291 17.292 3.45069 16.9021 3.51759 16.3975C3.56219 16.1452 3.6068 15.8929 3.6737 15.6406C3.91902 14.7461 4.52116 14.4709 5.32401 14.9296C5.88155 15.2507 6.41679 15.6406 6.97433 15.9846C7.39806 16.2369 7.84409 16.4663 8.33472 16.7415H8.35702Z" fill="url(#paint6_linear_34_4837)"/>
<path d="M20.4445 26.5812L20.6899 25.1821L18.7719 25.1592L19.887 20.1592H18.2144L16.854 26.5812H18.5489H20.4445Z" fill="#96989A"/>
</g>
</g>
<defs>
<linearGradient id="paint0_linear_34_4837" x1="15.7227" y1="20.1246" x2="94.351" y2="50.3211" gradientUnits="userSpaceOnUse">
<stop stop-color="#17A3DD"/>
<stop offset="1" stop-color="#A4CE39"/>
</linearGradient>
<linearGradient id="paint1_linear_34_4837" x1="26.2884" y1="36.6901" x2="50.1172" y2="49.8044" gradientUnits="userSpaceOnUse">
<stop stop-color="#17A3DD"/>
<stop offset="1" stop-color="#A4CE39"/>
</linearGradient>
<linearGradient id="paint2_linear_34_4837" x1="5.29673" y1="23.2791" x2="18.3541" y2="29.7575" gradientUnits="userSpaceOnUse">
<stop stop-color="#17A3DD"/>
<stop offset="1" stop-color="#A4CE39"/>
</linearGradient>
<linearGradient id="paint3_linear_34_4837" x1="8.30805" y1="30.4157" x2="17.7451" y2="36.4353" gradientUnits="userSpaceOnUse">
<stop stop-color="#17A3DD"/>
<stop offset="1" stop-color="#A4CE39"/>
</linearGradient>
<linearGradient id="paint4_linear_34_4837" x1="11.5618" y1="18.779" x2="20.964" y2="24.1418" gradientUnits="userSpaceOnUse">
<stop stop-color="#17A3DD"/>
<stop offset="1" stop-color="#A4CE39"/>
</linearGradient>
<linearGradient id="paint5_linear_34_4837" x1="1.33378" y1="28.2483" x2="9.82103" y2="30.8245" gradientUnits="userSpaceOnUse">
<stop stop-color="#17A3DD"/>
<stop offset="1" stop-color="#A4CE39"/>
</linearGradient>
<linearGradient id="paint6_linear_34_4837" x1="4.8405" y1="16.494" x2="13.3114" y2="19.071" gradientUnits="userSpaceOnUse">
<stop stop-color="#17A3DD"/>
<stop offset="1" stop-color="#A4CE39"/>
</linearGradient>
<clipPath id="clip0_34_4837">
<rect width="50" height="50" fill="white"/>
</clipPath>
<clipPath id="clip1_34_4837">
<rect width="50" height="50" fill="white"/>
</clipPath>
</defs>
</svg>
