<svg width="495" height="200" viewBox="0 0 495 200" fill="none" xmlns="http://www.w3.org/2000/svg">
<g clip-path="url(#clip0_71_785)">
<path d="M492.332 116.786C487.269 143.345 471.332 166.096 448.828 180.728C439.107 187.047 430.227 192.737 418.952 196.212C408.492 199.433 397.76 200.629 386.694 199.685C383.189 199.384 379.696 198.893 376.197 198.098C357.252 193.787 339.586 183.27 327.002 168.326C321.389 161.655 315.674 154.955 311.247 147.327C295.416 120.034 293.706 86.3049 306.777 57.5366C321.946 24.1558 355.029 1.60034 391.863 0.0860369C455.18 -2.51842 504.23 54.4053 492.332 116.786Z" fill="url(#paint0_radial_71_785)"/>
<path d="M437.905 120.355V122.92C437.905 124.686 435.522 127.857 434.084 128.868C429.33 132.195 425.394 130.051 420.692 128.218C410.427 124.212 400.335 119.716 390.064 115.72L394.862 144.942C395.541 149.985 390.849 153.531 386.144 151.675L360.344 138.57L360.095 138.819C361.202 145.098 361.285 151.927 362.458 158.147C364.482 168.876 378.212 173.237 386.257 165.97L422.183 130.031C423.74 130.336 425.181 131.221 426.779 131.403C432.653 132.072 438.057 128.156 438.408 122.102C438.438 121.578 438.614 120.322 437.905 120.355Z" fill="white"/>
<path d="M458.099 78.0576L435.754 55.7871L437.908 114.228L457.93 94.2741C461.879 89.5523 461.889 82.8689 458.099 78.0576Z" fill="white"/>
<path d="M361.758 127.887C367.706 130.418 373.686 132.884 379.634 135.422C377.387 124.633 374.256 114.036 372.185 103.217C372.01 98.0149 377.112 94.2408 382.059 95.6623L415.57 106.839L403.97 47.5924C403.456 34.1228 419.476 26.4486 429.797 35.1732C430.049 35.3853 431.732 37.2972 431.944 37.0785C432.229 36.7869 430.165 34.8518 429.873 34.5999C417.809 24.149 399.848 34.8087 402.525 50.8596C402.962 53.4906 403.463 56.1447 404.009 58.8155L341.305 121.508C339.805 122.691 337.595 124.361 335.683 123.006C333.324 121.332 335.086 118.446 336.432 116.799C339.712 112.787 343.661 108.887 347.107 104.96C347.488 104.526 347.892 104.075 348.267 103.635C348.376 103.505 348.697 103.303 348.429 103.138C346.965 104.43 345.739 105.977 344.377 107.362C341.067 110.729 336.849 114.318 333.86 117.87C330.282 122.118 330.478 128.473 333.86 132.774L351.235 150.164C352.047 150.661 352.991 150.064 352.803 149.103C351.944 144.769 350.868 140.462 350.049 136.118C349.565 133.54 348.35 129.659 349.642 127.363C352.471 122.34 358.061 126.313 361.758 127.887Z" fill="white"/>
<path opacity="0.16" d="M404.009 58.8154L415.569 106.839L398.35 64.475L404.009 58.8154Z" fill="url(#paint1_linear_71_785)" style="mix-blend-mode:multiply"/>
<path opacity="0.64" d="M415.57 106.839L416.709 112.347C418.065 118.904 411.554 124.318 405.355 121.79L389.554 115.345L398.867 101.355L415.57 106.836V106.839Z" fill="url(#paint2_radial_71_785)" style="mix-blend-mode:multiply"/>
<path opacity="0.48" d="M390.064 115.72L381.84 112.224C378.298 110.716 374.544 113.881 375.429 117.628L379.63 135.422L393.132 134.422L390.06 115.72H390.064Z" fill="url(#paint3_radial_71_785)" style="mix-blend-mode:multiply"/>
<path opacity="0.48" d="M381.045 141.376L379.634 135.422L360.923 127.509V138.825L375.101 146.051C378.265 147.665 381.867 144.832 381.048 141.376H381.045Z" fill="url(#paint4_radial_71_785)" style="mix-blend-mode:multiply"/>
<path opacity="0.48" d="M360.095 138.405L354.993 135.803C352.743 134.657 350.169 136.629 350.692 139.1L352.806 149.107L361.626 152.278L360.099 138.408L360.095 138.405Z" fill="url(#paint5_radial_71_785)" style="mix-blend-mode:multiply"/>
<path d="M20.2344 94.5557H52.0552V80.6056C52.085 78.9919 51.8896 77.3782 51.4754 75.8175C51.1043 74.502 50.4682 73.276 49.6067 72.2123C48.7452 71.1255 47.6353 70.2673 46.3663 69.7073C44.9515 69.0578 43.4108 68.7298 41.8569 68.7497H36.3834V55.9825H40.578C44.259 55.9129 47.9235 56.4531 51.4257 57.5797C54.517 58.6367 57.3002 60.4326 59.5399 62.8118C61.571 65.0385 62.9824 67.7556 63.6451 70.6981C64.4635 74.1176 64.8611 77.6234 64.8346 81.1424V107.3H20.2344V94.559V94.5557Z" fill="#67696B"/>
<path d="M94.0875 33.3711H81.3247V107.32H94.0875V33.3711Z" fill="#67696B"/>
<path d="M104.117 94.5557H135.941V80.6056C135.971 78.9919 135.775 77.3782 135.361 75.8175C134.99 74.502 134.354 73.2727 133.492 72.2124C132.631 71.1255 131.521 70.2673 130.255 69.7073C128.84 69.0578 127.3 68.7298 125.746 68.7497H120.276V55.9825H124.467C128.148 55.9129 131.812 56.4531 135.318 57.5797C138.409 58.6367 141.196 60.4326 143.432 62.8118C145.463 65.0385 146.875 67.7556 147.537 70.6981C148.356 74.1177 148.757 77.6234 148.727 81.1424V94.5458H158.574V107.31H104.14L104.123 94.5657L104.117 94.5557Z" fill="#67696B"/>
<path d="M174.783 94.5557H156.818V107.32H174.783V94.5557Z" fill="#67696B"/>
<path d="M172.957 94.552H192.837V60.5449H205.6V94.552H214.9C216.298 94.5453 217.69 94.3763 219.052 94.0483C220.47 93.7169 221.805 93.094 222.971 92.2225C224.194 91.298 225.178 90.0919 225.844 88.7101C226.632 86.9639 227.007 85.0619 226.937 83.1467V60.5349H239.7V83.1467C239.531 86.5497 240.694 89.8831 242.937 92.4478C245.167 94.5255 248.146 95.6123 251.187 95.4532C254.249 95.6852 257.254 94.552 259.397 92.3551C261.319 89.9958 262.297 87.0037 262.131 83.9651V49.5869H274.804V82.3216C274.804 91.139 272.859 97.6601 268.97 101.885C265.08 106.11 259.152 108.22 251.187 108.22C249.448 108.22 247.708 108.085 245.992 107.81C244.302 107.541 242.649 107.067 241.072 106.398C239.475 105.719 237.984 104.814 236.648 103.707C235.217 102.511 233.998 101.076 233.047 99.4693C230.721 101.915 227.931 103.866 224.84 105.215C221.712 106.607 218.326 107.319 214.903 107.309H172.957V94.5453V94.552Z" fill="#67696B"/>
<path d="M28.0701 163.988C27.3213 163.988 26.5725 163.952 25.8303 163.866C25.2008 163.789 24.5779 163.657 23.9716 163.465C23.4282 163.292 22.908 163.057 22.4176 162.765C21.9372 162.471 21.4899 162.126 21.0824 161.735C20.38 161.056 19.883 160.191 19.651 159.24C19.3727 158.196 19.2336 157.122 19.2369 156.042V147.033H23.0869V155.562C23.0737 156.274 23.1598 156.983 23.3487 157.669C23.5044 158.219 23.8158 158.713 24.2433 159.091C24.7601 159.512 25.3764 159.796 26.0324 159.916C26.7945 160.065 27.5665 160.138 28.3418 160.134H30.5451V138.229H36.2075V142.079H34.3886V163.988H28.0701Z" fill="#67696B"/>
<path d="M39.7925 138.229H43.6458V156.695H47.1679V160.549H39.7925V138.229Z" fill="#67696B"/>
<path d="M46.6181 156.698H50.3058C49.9015 156.162 49.5735 155.572 49.3416 154.939C49.0964 154.25 48.9738 153.524 48.9837 152.792C48.9639 151.672 49.1925 150.558 49.6563 149.538C50.097 148.597 50.7398 147.765 51.5416 147.102C52.3997 146.406 53.3871 145.886 54.4474 145.575C55.6733 145.217 56.9489 145.041 58.2245 145.055H62.767V156.698H65.3017V160.549H46.6147V156.698H46.6181ZM55.6435 142.208C54.7522 142.891 53.5097 142.891 52.6184 142.208C52.1844 141.847 51.9491 141.3 51.9856 140.737C51.9657 140.194 52.191 139.673 52.6019 139.319C53.4964 138.606 54.7654 138.606 55.66 139.319C56.4519 140.068 56.4917 141.317 55.7429 142.109C55.7097 142.142 55.6766 142.175 55.6435 142.208ZM52.8338 152.792C52.8205 153.58 53.016 154.356 53.4004 155.045C53.7748 155.708 54.2983 156.271 54.9278 156.698H58.9137V148.902H57.2935C56.7402 148.902 56.1868 148.988 55.6567 149.15C55.1365 149.306 54.6528 149.558 54.2254 149.892C53.8079 150.23 53.4666 150.648 53.2181 151.122C52.9531 151.635 52.8239 152.209 52.8338 152.788M61.6173 142.198C60.7227 142.881 59.4836 142.881 58.5923 142.198C58.1582 141.837 57.923 141.29 57.9594 140.727C57.9396 140.184 58.1682 139.663 58.579 139.309C59.0065 138.948 59.5498 138.759 60.1065 138.775C60.6697 138.752 61.2197 138.944 61.6471 139.309C62.0514 139.667 62.2734 140.187 62.2535 140.727C62.2866 141.29 62.0547 141.837 61.6206 142.198" fill="#67696B"/>
<path d="M64.7549 156.698H68.1676V145.054H72.0176V156.701H74.9631V160.552H64.7549V156.698ZM71.5637 142.191C70.626 142.891 69.3405 142.891 68.4028 142.191C67.939 141.817 67.6871 141.24 67.7269 140.647C67.7103 140.084 67.9489 139.544 68.3763 139.176C69.3173 138.421 70.6559 138.421 71.5968 139.176C72.0242 139.544 72.2595 140.084 72.2429 140.647C72.2827 141.24 72.0276 141.817 71.567 142.191" fill="#67696B"/>
<path d="M74.4531 156.698H77.1535V138.231H82.7927V142.078H81.0068V160.548H74.4564V156.695L74.4531 156.698Z" fill="#67696B"/>
<path d="M90.2176 138.229H86.3643V160.552H90.2176V138.229Z" fill="#67696B"/>
<path d="M98.0832 166.606C97.722 166.606 97.3642 166.583 97.0064 166.536C96.7115 166.5 96.4199 166.44 96.135 166.357L95.8633 162.507C96.1814 162.59 96.5028 162.653 96.8241 162.699C97.1058 162.735 97.394 162.752 97.679 162.752C98.2853 162.818 98.8883 162.583 99.2892 162.122C99.6404 161.496 99.7995 160.777 99.7432 160.061V145.058H103.597V156.701H106.569V160.555H103.57C103.62 162.215 103.109 163.842 102.115 165.178C101.045 166.215 99.5808 166.738 98.0964 166.612" fill="#67696B"/>
<path d="M106.009 156.708H109.435V145.064H113.285V156.708H116.23V160.562H106.022L106.009 156.708ZM112.934 165.9C111.993 166.599 110.707 166.599 109.769 165.9C109.306 165.526 109.054 164.949 109.093 164.356C109.08 163.799 109.319 163.266 109.743 162.901C110.684 162.146 112.022 162.146 112.963 162.901C113.384 163.266 113.623 163.799 113.609 164.356C113.649 164.949 113.401 165.526 112.937 165.9" fill="#67696B"/>
<path d="M115.697 156.698H118.699C118.367 156.016 118.099 155.306 117.887 154.581C117.652 153.776 117.536 152.944 117.542 152.106C117.513 150.903 117.778 149.713 118.311 148.64C118.795 147.685 119.467 146.84 120.292 146.158C120.955 145.614 121.717 145.203 122.535 144.948C123.43 144.667 124.361 144.531 125.299 144.537C126.289 144.531 127.277 144.667 128.231 144.935C129.195 145.213 130.133 145.588 131.024 146.048L129.732 149.538C129.116 149.196 128.466 148.915 127.794 148.699C127.138 148.48 126.452 148.365 125.759 148.355C124.679 148.295 123.609 148.626 122.754 149.289C122.294 149.667 121.936 150.154 121.71 150.704C121.512 151.247 121.412 151.821 121.419 152.397C121.409 153.206 121.538 154.014 121.803 154.776C122.055 155.469 122.416 156.115 122.877 156.688H131.594V160.542H115.684L115.694 156.695L115.697 156.698Z" fill="#67696B"/>
<path d="M138.704 166.606C138.022 165.625 137.482 164.555 137.094 163.425C136.683 162.149 136.488 160.817 136.514 159.479C136.504 158.544 136.587 157.613 136.763 156.695H140.831L137.422 147.941C138.078 147.374 138.747 146.851 139.417 146.37C140.063 145.906 140.742 145.495 141.451 145.131C142.13 144.786 142.846 144.515 143.581 144.319C144.327 144.124 145.096 144.027 145.864 144.027C147.428 144.021 148.972 144.399 150.354 145.128C151.798 145.9 153.137 146.851 154.34 147.961L151.036 156.679H156.072V160.532H140.414V160.946C140.414 161.636 140.51 162.322 140.705 162.981C140.951 163.75 141.285 164.489 141.699 165.181L138.704 166.596V166.606ZM145.861 148.106C145.139 148.1 144.423 148.219 143.744 148.464C143.025 148.746 142.349 149.124 141.733 149.591L144.237 156.695H147.541L150.042 149.564C149.399 149.104 148.7 148.726 147.965 148.438C147.286 148.206 146.573 148.093 145.858 148.106" fill="#67696B"/>
<path d="M155.519 156.698H159.207C158.803 156.161 158.475 155.568 158.243 154.935C157.998 154.246 157.875 153.517 157.882 152.785C157.862 151.665 158.094 150.555 158.558 149.534C158.998 148.593 159.641 147.761 160.443 147.099C161.301 146.403 162.288 145.886 163.349 145.571C164.575 145.21 165.847 145.034 167.126 145.048H171.668V160.545H155.513V156.698H155.519ZM161.738 152.788C161.725 153.577 161.917 154.355 162.302 155.045C162.676 155.707 163.2 156.271 163.829 156.698H167.818V148.905H166.198C165.645 148.905 165.091 148.987 164.561 149.153C164.041 149.309 163.557 149.561 163.13 149.895C162.712 150.23 162.371 150.651 162.123 151.125C161.858 151.638 161.725 152.208 161.735 152.788M167.557 142.191C166.619 142.89 165.333 142.89 164.396 142.191C163.932 141.817 163.68 141.24 163.72 140.647C163.703 140.084 163.942 139.544 164.369 139.176C165.31 138.421 166.645 138.421 167.586 139.176C168.014 139.544 168.252 140.084 168.236 140.647C168.272 141.24 168.02 141.817 167.56 142.191" fill="#67696B"/>
<path d="M172.781 156.708H182.373V152.497C182.383 152.006 182.324 151.516 182.198 151.042C182.085 150.644 181.89 150.273 181.631 149.952C181.373 149.624 181.038 149.365 180.654 149.196C180.226 148.998 179.762 148.898 179.292 148.905H177.642V145.054H178.908C180.018 145.034 181.124 145.197 182.181 145.535C183.115 145.856 183.954 146.4 184.63 147.119C185.243 147.791 185.67 148.61 185.869 149.498C186.114 150.528 186.237 151.589 186.23 152.649V156.695H189.199V160.549H172.768L172.785 156.705L172.781 156.708Z" fill="#67696B"/>
<path d="M188.685 156.698H191.382V138.231H197.021V142.078H195.235V160.548H188.688V156.695L188.685 156.698Z" fill="#67696B"/>
<path d="M204.46 138.229H200.606V160.552H204.46V138.229Z" fill="#67696B"/>
<path d="M227.14 156.695V160.548H220.201C218.926 160.558 217.657 160.403 216.424 160.084C215.351 159.806 214.344 159.319 213.456 158.653C212.621 158.01 211.948 157.178 211.497 156.227C211.01 155.157 210.772 153.994 210.798 152.818C210.788 151.751 211.004 150.694 211.431 149.72C211.852 148.775 212.482 147.94 213.273 147.274C214.148 146.549 215.152 145.995 216.232 145.644C217.518 145.236 218.86 145.041 220.208 145.064H220.758V143.692H224.611V156.708L227.14 156.695ZM217.839 141.131C216.945 141.807 215.705 141.807 214.811 141.131C214.012 140.382 213.973 139.126 214.725 138.328C214.751 138.298 214.781 138.268 214.811 138.241C215.702 137.522 216.974 137.522 217.866 138.241C218.664 138.987 218.707 140.236 217.962 141.035C217.932 141.068 217.899 141.101 217.866 141.131M220.771 156.695V148.898H219.287C218.717 148.898 218.154 148.987 217.611 149.16C217.074 149.325 216.57 149.58 216.123 149.918C215.685 150.246 215.324 150.661 215.063 151.138C214.791 151.651 214.655 152.225 214.665 152.805C214.652 153.384 214.781 153.961 215.036 154.481C215.278 154.952 215.616 155.366 216.03 155.694C216.448 156.032 216.931 156.284 217.445 156.436C217.982 156.602 218.538 156.688 219.098 156.685L220.771 156.691V156.695ZM223.83 141.131C222.932 141.81 221.696 141.81 220.798 141.131C219.999 140.385 219.956 139.136 220.702 138.338C220.732 138.304 220.765 138.271 220.798 138.241C221.696 137.522 222.971 137.522 223.866 138.241C224.658 139.007 224.678 140.269 223.912 141.061C223.889 141.084 223.866 141.108 223.843 141.131" fill="#67696B"/>
<path d="M226.609 156.699H229.28C229.207 156.42 229.157 156.135 229.127 155.847C229.101 155.555 229.084 155.244 229.084 154.939C229.074 153.809 229.296 152.689 229.734 151.649C230.148 150.658 230.747 149.75 231.496 148.978C232.245 148.216 233.133 147.603 234.11 147.175C235.118 146.731 236.208 146.509 237.308 146.516C238.428 146.506 239.538 146.728 240.571 147.162C241.569 147.576 242.473 148.179 243.242 148.938C244.007 149.7 244.617 150.608 245.028 151.609C245.462 152.666 245.684 153.799 245.674 154.942C245.684 156.066 245.455 157.176 245.001 158.2C244.567 159.184 243.948 160.072 243.172 160.814C242.397 161.556 241.492 162.146 240.502 162.557C239.491 162.981 238.401 163.196 237.304 163.19C236.165 163.196 235.038 162.958 234.001 162.487C232.99 162.03 232.076 161.381 231.307 160.579H226.599L226.612 156.695L226.609 156.699ZM235.581 158.968C236.131 159.204 236.725 159.323 237.324 159.313C237.927 159.313 238.524 159.204 239.087 158.982C239.627 158.769 240.121 158.458 240.541 158.057C240.956 157.659 241.28 157.182 241.499 156.652C241.738 156.092 241.854 155.486 241.847 154.876C241.854 154.263 241.741 153.657 241.516 153.087C241.307 152.553 240.989 152.066 240.581 151.659C240.17 151.251 239.687 150.926 239.15 150.704C238.573 150.472 237.954 150.356 237.331 150.363C236.148 150.346 235.012 150.824 234.197 151.682C233.806 152.096 233.497 152.58 233.285 153.113C233.063 153.673 232.954 154.273 232.957 154.876C232.951 155.472 233.063 156.066 233.285 156.619C233.497 157.146 233.809 157.623 234.21 158.024C234.607 158.422 235.078 158.74 235.595 158.958" fill="#67696B"/>
<path d="M246.565 156.708H256.157V152.497C256.167 152.006 256.107 151.519 255.981 151.042C255.869 150.644 255.673 150.273 255.415 149.952C255.156 149.624 254.818 149.365 254.437 149.196C254.01 148.998 253.546 148.898 253.076 148.905H251.426V145.054H252.691C253.801 145.034 254.908 145.197 255.965 145.535C256.899 145.856 257.737 146.4 258.413 147.119C259.026 147.791 259.454 148.61 259.653 149.498C259.898 150.528 260.02 151.589 260.014 152.649V156.695H262.982V160.549H246.552L246.568 156.705L246.565 156.708Z" fill="#67696B"/>
<path d="M262.475 156.695H273.896C274.052 156.042 274.168 155.379 274.241 154.713C274.321 154.064 274.36 153.411 274.367 152.758C274.36 152.152 274.251 151.552 274.049 150.979C273.847 150.379 273.489 149.846 273.018 149.428C272.101 148.686 270.944 148.315 269.765 148.381C269.089 148.378 268.413 148.464 267.76 148.643C267.058 148.865 266.392 149.183 265.779 149.594L264.182 146.237C265.08 145.724 266.031 145.309 267.015 144.998C268.058 144.68 269.145 144.521 270.239 144.534C271.295 144.517 272.346 144.703 273.333 145.081C274.228 145.429 275.039 145.962 275.712 146.651C276.477 147.43 277.087 148.351 277.501 149.362C277.982 150.535 278.214 151.794 278.19 153.063C278.19 153.789 278.147 154.518 278.055 155.237C277.965 155.956 277.856 156.642 277.727 157.304C277.597 157.967 277.455 158.57 277.299 159.12C277.143 159.67 277.008 160.147 276.868 160.548H262.472V156.701L262.475 156.695ZM271.322 141.691C270.384 142.393 269.095 142.393 268.158 141.691C267.697 141.317 267.445 140.743 267.485 140.15C267.469 139.587 267.707 139.047 268.135 138.679C269.076 137.923 270.417 137.923 271.358 138.679C271.786 139.047 272.021 139.587 272.005 140.15C272.044 140.743 271.792 141.317 271.332 141.691" fill="#67696B"/>
<path d="M17.0668 44.7862C17.0734 49.498 13.2565 53.3252 8.54167 53.3285C3.83017 53.3351 0.00662874 49.5179 2.15733e-06 44.806C-0.00331113 40.0941 3.81029 36.267 8.5251 36.2637C11.5766 36.2637 14.3963 37.8873 15.9237 40.5282C16.6791 41.8205 17.0734 43.2917 17.0701 44.7895M15.4134 44.7862C15.4134 40.9855 12.3321 37.9039 8.53173 37.9039C4.73138 37.9039 1.65002 40.9855 1.65002 44.7862C1.65002 48.5868 4.73138 51.6684 8.53173 51.6684C10.3573 51.6684 12.1101 50.9428 13.3989 49.6505C14.711 48.3747 15.4399 46.6152 15.4134 44.7862ZM4.65849 40.2267H8.72721C9.61849 40.1472 10.5098 40.3957 11.2321 40.9259C11.7556 41.403 12.0405 42.0856 12.0107 42.7947C12.0239 43.3779 11.8152 43.9478 11.4309 44.3852C10.9206 44.8922 10.2712 45.2302 9.56216 45.3561C9.84379 45.4522 10.1055 45.5947 10.3342 45.7835C10.6158 46.0552 10.861 46.3667 11.0565 46.7047C11.0697 46.7378 11.5634 47.6159 12.5342 49.3423H9.8471C9.35674 48.2555 8.7736 47.215 8.10431 46.2309C7.89557 45.9393 7.56756 45.7537 7.21304 45.7206C7.11695 45.7206 7.01755 45.7305 6.92147 45.7537V49.339H4.65186L4.65849 40.2234V40.2267ZM6.92809 44.0936H7.90883C8.39257 44.1367 8.87962 44.024 9.2971 43.7755C9.55222 43.58 9.70132 43.2752 9.698 42.9538C9.70463 42.6323 9.56216 42.3275 9.31035 42.1287C8.91938 41.8835 8.45552 41.7708 7.99829 41.8139H6.94466L6.93141 44.0936H6.92809Z" fill="#67696B"/>
</g>
<defs>
<radialGradient id="paint0_radial_71_785" cx="0" cy="0" r="1" gradientUnits="userSpaceOnUse" gradientTransform="translate(327.114 166.241) scale(180.114 180.129)">
<stop offset="0.37" stop-color="#F08352"/>
<stop offset="0.79" stop-color="#F6BE25"/>
<stop offset="1" stop-color="#F9D714"/>
</radialGradient>
<linearGradient id="paint1_linear_71_785" x1="412.432" y1="82.0369" x2="407.939" y2="83.382" gradientUnits="userSpaceOnUse">
<stop offset="0.2"/>
<stop offset="0.38" stop-color="#363636"/>
<stop offset="0.8" stop-color="#BDBDBD"/>
<stop offset="1" stop-color="white"/>
</linearGradient>
<radialGradient id="paint2_radial_71_785" cx="0" cy="0" r="1" gradientUnits="userSpaceOnUse" gradientTransform="translate(415.205 106.786) scale(16.5764 16.5777)">
<stop offset="0.15" stop-color="#F08352"/>
<stop offset="0.69" stop-color="#F08352" stop-opacity="0.35"/>
<stop offset="1" stop-color="#F08352" stop-opacity="0"/>
</radialGradient>
<radialGradient id="paint3_radial_71_785" cx="0" cy="0" r="1" gradientUnits="userSpaceOnUse" gradientTransform="translate(378.378 114.988) scale(18.4683 18.4698)">
<stop offset="0.15" stop-color="#F08352"/>
<stop offset="0.69" stop-color="#F08352" stop-opacity="0.35"/>
<stop offset="1" stop-color="#F08352" stop-opacity="0"/>
</radialGradient>
<radialGradient id="paint4_radial_71_785" cx="0" cy="0" r="1" gradientUnits="userSpaceOnUse" gradientTransform="translate(381.31 146.674) scale(14.9297 14.9309)">
<stop offset="0.21" stop-color="#F08352"/>
<stop offset="0.72" stop-color="#F08352" stop-opacity="0.35"/>
<stop offset="1" stop-color="#F08352" stop-opacity="0"/>
</radialGradient>
<radialGradient id="paint5_radial_71_785" cx="0" cy="0" r="1" gradientUnits="userSpaceOnUse" gradientTransform="translate(350.864 136.158) scale(10.2977 10.2986)">
<stop offset="0.15" stop-color="#F08352"/>
<stop offset="0.69" stop-color="#F08352" stop-opacity="0.35"/>
<stop offset="1" stop-color="#F08352" stop-opacity="0"/>
</radialGradient>
<clipPath id="clip0_71_785">
<rect width="494.118" height="200" fill="white"/>
</clipPath>
</defs>
</svg>
