<svg width="50" height="50" viewBox="0 0 50 50" fill="none" xmlns="http://www.w3.org/2000/svg">
<path d="M42.4393 38.1489V47.4608C42.4393 48.8528 41.3096 50.0001 39.8976 50.0001H38.6924V44.714L36.0569 46.2567L34.9271 46.9153V50.0001H22.2573L28.6396 46.2567L38.6741 40.369L42.4199 38.1677L42.4393 38.1489Z" fill="#AA7E1A"/>
<path d="M11.1879 43.3785L7.44092 45.5796V41.2342L11.1879 39.0329L17.9655 35.064L21.2407 33.1453L23.048 32.0729V30.0604C23.048 29.7219 23.3121 29.4585 23.651 29.4585H34.9273L21.2407 37.4908L11.1879 43.3973V43.3785Z" fill="#AA7E1A"/>
<path d="M42.4395 2.52085V33.8038L38.6925 36.0046L21.2407 46.2378L20.1109 46.8963V49.9812H7.44092L13.8234 46.2378L38.6925 31.6592V3.74338H11.1879V34.688L7.44092 36.8887V2.53968C7.44092 1.14766 8.57068 0 9.98264 0H39.916C41.3092 0 42.4577 1.12885 42.4577 2.53968L42.4395 2.52085Z" fill="#162C49"/>
<path d="M24.9308 12.7541C26.2409 12.7541 27.3033 11.6929 27.3033 10.3839C27.3033 9.07486 26.2409 8.01367 24.9308 8.01367C23.6207 8.01367 22.5591 9.07486 22.5591 10.3839C22.5591 11.6929 23.6207 12.7541 24.9308 12.7541Z" fill="#A47C2C"/>
</svg>
