<svg width="608" height="200" viewBox="0 0 608 200" fill="none" xmlns="http://www.w3.org/2000/svg">
<path d="M604.115 150.223V186.891C604.115 192.372 599.668 196.89 594.111 196.89H589.367V176.075L578.994 182.149L574.548 184.743V196.89H524.681L549.801 182.149L589.295 158.965L604.038 150.297L604.115 150.223Z" fill="#AA7E1A"/>
<path d="M481.113 170.816L466.365 179.483V162.372L481.113 153.704L507.788 138.075L520.679 130.52L527.792 126.297V118.372C527.792 117.039 528.832 116.002 530.166 116.002H574.548L520.679 147.632L481.113 170.89V170.816Z" fill="#AA7E1A"/>
<path d="M604.114 9.92659V133.113L589.367 141.779L520.679 182.075L516.232 184.668V196.816H466.365L491.486 182.075L589.367 124.667V14.7407H481.113V136.594L466.365 145.26V10.0007C466.365 4.51925 470.812 0 476.369 0H594.182C599.666 0 604.186 4.44517 604.186 10.0007L604.114 9.92659Z" fill="#162C49"/>
<path d="M535.202 50.2225C540.358 50.2225 544.54 46.0437 544.54 40.8891C544.54 35.7344 540.358 31.5557 535.202 31.5557C530.046 31.5557 525.867 35.7344 525.867 40.8891C525.867 46.0437 530.046 50.2225 535.202 50.2225Z" fill="#A47C2C"/>
<path d="M5.92882 157.039C6.89208 157.039 7.63332 157.557 8.0779 157.927C8.59658 160.149 11.4118 161.853 15.0426 161.853C18.6733 161.853 22.4523 160.002 22.4523 157.039C22.4523 148.965 0.295567 154.594 0.295567 141.186C0.295567 135.038 7.04012 130.594 15.0426 130.594C22.4523 130.594 28.602 134.594 29.5653 140.001C29.7135 140.89 29.047 141.631 28.1579 141.631H23.6354C22.6721 141.631 22.0049 141.112 21.4863 140.667C20.9676 138.667 18.1546 137.26 15.0426 137.26C11.4859 137.26 8.0779 138.89 8.0779 141.631C8.0779 149.409 30.307 143.926 30.307 157.556C30.307 164.519 22.3024 168.667 15.115 168.667C7.48298 168.667 1.03813 164.446 0.0748689 158.817C-0.0733252 157.854 0.591376 157.187 1.55464 157.187H6.00117L5.92882 157.039Z" fill="#AA7E1A"/>
<path d="M41.1266 166.298L54.4626 131.63C54.6108 131.037 55.2792 130.594 55.946 130.594H62.3173C62.9842 130.594 63.5767 131.037 63.8731 131.63L77.2092 166.298C77.7279 167.632 77.2114 168.519 75.7295 168.519H70.9138C70.2469 168.519 69.6544 168.075 69.358 167.409L67.4296 162.001H51.0545L49.0537 167.409C48.9055 168.075 48.2389 168.519 47.4979 168.519H42.6824C41.2745 168.519 40.6821 167.632 41.1266 166.298ZM65.2805 155.778L59.1299 139.112L53.0552 155.778H65.2805Z" fill="#AA7E1A"/>
<path d="M90.917 166.963V132.223C90.917 131.26 91.5112 130.594 92.5486 130.594H97.0678C98.031 130.594 98.6994 131.26 98.6994 132.223V146.445H117.593V132.223C117.593 131.26 118.187 130.594 119.224 130.594H123.743C124.633 130.594 125.371 131.26 125.371 132.223V166.963C125.371 167.852 124.707 168.593 123.743 168.593H119.224C118.261 168.593 117.593 167.926 117.593 166.963V152.668H98.6994V166.963C98.6994 167.852 98.1051 168.593 97.0678 168.593H92.5486C91.5853 168.593 90.917 167.926 90.917 166.963Z" fill="#AA7E1A"/>
<path d="M138.932 166.298L152.272 131.63C152.42 131.037 153.085 130.594 153.752 130.594H160.126C160.793 130.594 161.386 131.037 161.682 131.63L175.018 166.298C175.537 167.632 175.017 168.519 173.535 168.519H168.719C168.052 168.519 167.46 168.075 167.163 167.409L165.239 162.001H148.864L146.863 167.409C146.715 168.075 146.048 168.519 145.307 168.519H140.488C139.08 168.519 138.488 167.632 138.932 166.298ZM163.089 155.778L156.939 139.112L150.864 155.778H163.089Z" fill="#AA7E1A"/>
<path d="M190.282 130.594H207.251C214.808 130.594 220.218 134.891 220.218 142.298C220.218 148.446 216.142 152.372 210.807 153.261L218.662 166.076C219.551 167.557 219.031 168.519 217.327 168.519H212.139C211.62 168.519 211.029 168.223 210.807 167.705L202.21 153.63H196.357V166.889C196.357 167.778 195.766 168.519 194.729 168.519H190.206C189.243 168.519 188.578 167.852 188.578 166.889V132.149C188.578 131.186 189.169 130.52 190.206 130.52L190.282 130.594ZM196.433 147.483H207.251C210.14 147.483 212.435 145.187 212.435 142.298C212.435 139.409 210.289 137.111 207.251 137.111H196.433V147.408V147.483Z" fill="#AA7E1A"/>
<path d="M232.371 166.298L245.707 131.63C245.855 131.037 246.523 130.594 247.19 130.594H253.562C254.229 130.594 254.821 131.037 255.117 131.63L268.453 166.298C268.972 167.632 268.455 168.519 266.973 168.519H262.154C261.487 168.519 260.895 168.075 260.599 167.409L258.674 162.001H242.299L240.298 167.409C240.149 168.075 239.483 168.519 238.742 168.519H233.927C232.519 168.519 231.926 167.632 232.371 166.298ZM256.525 155.778L250.374 139.112L244.3 155.778H256.525Z" fill="#AA7E1A"/>
<path d="M299.058 130.594H316.023C322.988 130.594 328.99 135.706 328.99 142.298C328.99 148.891 322.988 154.074 316.023 154.074H305.204V166.963C305.204 167.852 304.614 168.593 303.577 168.593H299.058C298.095 168.593 297.426 167.926 297.426 166.963V132.223C297.426 131.26 298.021 130.594 299.058 130.594ZM305.204 137.186V147.409H316.023C318.838 147.409 321.211 145.113 321.211 142.224C321.211 139.557 319.135 137.112 316.023 137.112H305.204V137.186Z" fill="#AA7E1A"/>
<path d="M334.844 166.298L348.184 131.63C348.332 131.037 348.996 130.594 349.663 130.594H356.039C356.705 130.594 357.297 131.037 357.594 131.63L370.93 166.298C371.449 167.632 370.932 168.519 369.45 168.519H364.631C363.964 168.519 363.372 168.075 363.076 167.409L361.151 162.001H344.775L342.774 167.409C342.626 168.075 341.96 168.519 341.219 168.519H336.4C334.992 168.519 334.399 167.632 334.844 166.298ZM359.002 155.778L352.851 139.112L346.776 155.778H359.002Z" fill="#AA7E1A"/>
<path d="M383.009 130.594C383.601 130.594 384.196 130.963 384.492 131.482L392.792 147.112L401.088 131.482C401.31 130.963 401.98 130.594 402.498 130.594H407.238C408.868 130.594 409.461 131.557 408.645 132.965L396.717 154.446V166.889C396.717 167.778 396.052 168.519 395.089 168.519H390.643C389.68 168.519 389.01 167.852 389.01 166.889V154.446L377.082 132.965C376.267 131.557 376.859 130.594 378.489 130.594H383.157H383.009Z" fill="#AA7E1A"/>
<path d="M15.4128 101.261C11.7079 101.261 8.67023 100.964 6.4473 100.445C4.1503 99.8525 2.51901 98.6673 1.55575 96.8155C0.518389 94.8155 0 91.7785 0 87.7044V65.927H11.4872V83.1125C11.4872 88.1496 14.2265 89.8533 16.5235 90.4459H16.6718H60.761L61.13 88.5199C56.0914 86.3718 51.87 84.4459 48.5356 82.7422C45.2013 81.0385 42.3829 79.5555 40.16 78.1481C38.0111 76.8148 36.3075 75.6303 35.196 74.5933C34.0846 73.556 33.1947 72.5939 32.6019 71.705C32.0091 70.8161 31.6411 69.9265 31.4188 69.1116C31.1965 68.2228 30.8975 67.2607 30.6011 66.2977C30.6752 62.3718 31.3421 59.3332 32.4536 57.3332C33.4909 55.4073 35.2726 54.2222 37.7178 53.7778C38.681 53.5556 39.8646 53.4087 41.1983 53.2606C42.6062 53.1865 44.2374 53.1123 46.0899 53.1123H72.5412V63.7785H46.904C46.2371 64.0008 44.2354 64.5198 44.0131 66.1494C43.939 67.1124 44.4594 68.1487 45.6449 69.1858C46.6082 70.0747 47.9404 71.0386 49.7188 72.0756C51.423 73.1127 53.3497 74.1496 55.4244 75.2607C57.5732 76.3718 59.7953 77.5562 62.0923 78.7414C64.3894 79.9266 66.6894 81.1118 68.9123 82.297C71.0611 83.4822 73.1346 84.5933 74.9868 85.7044C76.6911 86.7414 78.0974 87.7051 79.2089 88.594C79.2089 90.7422 79.2089 92.9636 79.2089 95.2599C79.2089 97.334 79.2111 99.2607 79.137 101.187H15.637L15.4128 101.261Z" fill="#162C49"/>
<path d="M38.6804 108.52H29.3423V117.26H38.6804V108.52Z" fill="#162C49"/>
<path d="M52.016 108.52H42.7539V117.26H52.016V108.52Z" fill="#162C49"/>
<path d="M104.847 101.261C101.068 101.261 98.0297 100.964 95.8809 100.445C93.5098 99.8528 91.8804 98.6676 90.9171 96.7417C89.8798 94.7417 89.3618 91.7047 89.3618 87.7047V39.334H100.849V83.1128C100.849 88.1498 103.588 89.8535 105.885 90.4461H106.034H116.927H117.076C119.373 89.8535 122.188 88.1498 122.188 83.1128V65.9272H133.671V87.7047C133.671 91.7787 133.155 94.8158 132.043 96.8158C131.006 98.6676 129.449 99.8528 127.152 100.445C124.855 100.964 121.817 101.187 118.038 101.187H104.995L104.847 101.261Z" fill="#162C49"/>
<path d="M115.223 108.52H105.961V117.26H115.223V108.52Z" fill="#162C49"/>
<path d="M164.718 101.261C161.013 101.261 157.975 100.964 155.752 100.445C153.455 99.8525 151.828 98.6673 150.864 96.8155C149.827 94.8155 149.305 91.7785 149.305 87.7044V65.927H160.792V83.1125C160.792 88.1496 163.531 89.8533 165.828 90.4459H165.976H207.323L207.696 88.5199C202.732 86.3718 198.432 84.4459 195.098 82.7422C191.69 81.0385 188.949 79.5555 186.726 78.1481C184.577 76.8148 182.874 75.6303 181.762 74.5933C180.651 73.556 179.761 72.5939 179.168 71.705C178.575 70.8161 178.203 69.9265 177.981 69.1116C177.759 68.2228 177.464 67.2607 177.167 66.2977C177.241 62.3718 177.908 59.3332 179.02 57.3332C180.057 55.4073 181.835 54.2222 184.28 53.7778C185.243 53.5556 186.43 53.4087 187.764 53.2606C189.172 53.1865 190.8 53.1123 192.652 53.1123H219.107V63.7785H193.47C192.803 64.0008 190.801 64.5198 190.579 66.1494C190.505 67.1124 191.021 68.1487 192.207 69.1858C193.17 70.0747 194.506 71.0386 196.284 72.0756C197.989 73.1127 199.916 74.1496 201.991 75.2607C204.139 76.3718 206.362 77.5562 208.659 78.7414C210.956 79.9266 213.253 81.1118 215.402 82.297C217.551 83.4081 219.624 84.5933 221.477 85.7044C223.107 86.6673 224.588 87.7051 225.699 88.594C225.699 90.7422 225.699 92.9636 225.699 95.2599C225.699 97.334 225.701 99.2607 225.627 101.187H164.793L164.718 101.261Z" fill="#162C49"/>
<path d="M227.775 118.666V108.075H228.959C230.367 108.075 231.478 108.075 232.515 108.001C233.553 108.001 234.22 107.852 234.664 107.703C236.072 107.407 237.186 106.594 237.779 105.335C238.298 104.223 238.594 102.667 238.594 100.593V58.3711H250.153V105.409C250.153 107.557 250.004 109.335 249.708 110.89C249.412 112.372 249.042 113.631 248.449 114.594C247.931 115.557 247.264 116.296 246.449 116.889C245.559 117.481 244.522 117.927 243.337 118.223C242.299 118.372 241.112 118.518 239.852 118.666C238.445 118.741 236.739 118.815 234.812 118.815H227.848L227.775 118.666Z" fill="#162C49"/>
<path d="M381.824 53.0383C372.487 53.0383 378.339 53.0383 368.929 53.0383C367.891 53.0383 366.929 53.0385 365.965 53.2607C365.076 53.4089 364.263 53.6301 363.448 54.0745C362.633 54.519 361.891 55.1858 361.15 56.1488C360.409 57.1118 359.668 58.3712 359.001 60.0008L357.963 62.4458L357.072 59.9267C356.554 58.5192 356.037 57.3344 355.444 56.5195C354.852 55.7047 354.333 55.1122 353.74 54.7418C353.147 54.3715 352.553 54.0744 351.96 53.9262C351.294 53.7781 350.554 53.6312 349.739 53.409C349.368 53.2609 348.403 53.1124 345.81 53.0383V90.3719H330.918L326.916 74.2223C325.953 69.778 324.545 66.4459 322.767 64.3718C321.063 62.2978 318.768 61.1125 315.73 60.594C314.767 60.3718 313.577 60.2231 312.17 60.075C310.762 60.0009 309.134 59.9267 307.281 59.9267H285.349V70.8153H305.946C307.132 70.8153 308.245 70.8896 309.282 71.0378C310.319 71.1859 311.208 71.4831 311.949 71.9275C313.134 72.5942 314.097 73.5562 314.912 74.6675C315.727 75.7786 316.246 77.1119 316.616 78.6675C316.913 79.8527 317.212 81.1867 317.582 82.6682C317.953 84.1497 316.616 78.7415 317.061 80.3712C317.431 82.0008 317.877 83.5571 318.248 85.0386C318.618 86.5941 318.989 87.926 319.286 89.0371L319.579 90.2978H276.829C274.532 89.7052 271.789 88.0015 271.789 82.9645V39.1855H260.302V87.5564C260.302 91.5564 260.823 94.6667 261.861 96.5927C262.824 98.4445 264.454 99.7038 266.825 100.296C269.048 100.815 272.011 101.112 275.79 101.112H336.993C348.997 101.112 364.188 101.112 375.969 101.112C387.751 101.112 381.231 101.112 393.235 101.112C395.087 101.112 396.715 101.112 398.123 100.964C399.457 100.89 400.644 100.667 401.607 100.445C404.2 100.001 405.976 98.8897 407.088 97.0378C408.273 95.1119 408.868 92.0008 408.868 87.7786V76.9638C408.868 63.6307 398.124 52.8899 384.787 52.8158H381.747L381.824 53.0383ZM397.308 81.5556C397.308 85.0371 396.121 87.6297 393.824 89.1852C393.083 89.6297 392.195 90.0015 391.158 90.1497C390.194 90.2978 389.084 90.3719 387.75 90.3719H357.594V71.3344C357.594 69.4084 357.962 67.7778 358.777 66.5926C359.592 65.4074 360.854 64.4455 362.558 63.927H362.706H381.154C390.12 63.927 397.381 71.1858 397.381 80.1489V81.6297L397.308 81.5556Z" fill="#162C49"/>
</svg>
