<svg width="80" height="50" viewBox="0 0 80 50" fill="none" xmlns="http://www.w3.org/2000/svg">
<path d="M0.543897 31.5327C1.27766 30.66 2.55259 30.4895 3.49094 31.1368C6.05721 32.9049 9.01215 33.2784 11.3975 31.8617C12.5945 31.1504 19.3394 23.114 23.6034 18.1804C24.4076 17.2506 25.8142 17.1549 26.7377 17.9682L27.1532 18.3329C28.0694 19.1415 28.1575 20.5373 27.3505 21.4533L17.117 33.0722C14.9021 35.5892 12.088 36.9955 8.6759 37.2973C6.05122 37.5259 3.31318 36.3738 0.984659 34.8267C-0.112195 34.0961 -0.329103 32.5715 0.518322 31.5627L0.543897 31.5327Z" fill="#013E50"/>
<path d="M54.9333 21.3296L55.3788 21.7315C56.2875 22.5537 56.3547 23.9587 55.5281 24.8626L46.3678 34.8912C45.5475 35.7895 44.1561 35.8568 43.2531 35.0409L42.8092 34.6402C41.8992 33.8168 41.832 32.4118 42.6583 31.5075L51.8186 21.4789C52.6392 20.5807 54.0306 20.5134 54.9333 21.3296Z" fill="#013E50"/>
<path d="M44.4475 21.3296L44.8927 21.7315C45.8013 22.5537 45.8686 23.9587 45.0423 24.8626L35.882 34.8912C35.0614 35.7895 33.6699 35.8568 32.7673 35.0409L32.3234 34.6402C31.4131 33.8168 31.3446 32.4118 32.1724 31.5075L41.3328 21.4789C42.153 20.5807 43.5445 20.5134 44.4475 21.3296Z" fill="#013E50"/>
<path d="M71.613 35.1293L71.1599 34.7365C70.2392 33.9339 70.1423 32.5378 70.9449 31.6158L71.1735 31.3541C71.9761 30.4322 73.3719 30.3349 74.2926 31.1375L74.7454 31.5306C75.666 32.3332 75.7633 33.729 74.9607 34.6513L74.7321 34.9127C73.9311 35.835 72.5336 35.9319 71.613 35.1293Z" fill="#057A40"/>
<mask id="mask0_194_387" style="mask-type:luminance" maskUnits="userSpaceOnUse" x="74" y="26" width="6" height="6">
<path d="M74.199 26.1318H79.3719V31.3048H74.199V26.1318Z" fill="white"/>
</mask>
<g mask="url(#mask0_194_387)">
<path d="M75.4803 30.6853L75.0275 30.2906C74.1068 29.4912 74.0096 28.0937 74.8122 27.1715L75.0411 26.91C75.8437 25.9878 77.2395 25.8905 78.1602 26.6931L78.613 27.0862C79.5336 27.8888 79.6309 29.2847 78.8283 30.2069L78.5997 30.4683C77.7984 31.3906 76.4009 31.4878 75.4803 30.6853Z" fill="#057A40"/>
</g>
<path d="M76.2187 21.4584L65.9928 33.0787C63.7807 35.5881 60.9546 37.0019 57.5529 37.2994C56.1362 37.419 54.6744 37.1364 53.265 36.6089C51.769 36.0484 51.2771 34.1774 52.3323 32.9786C52.9363 32.2925 53.8926 32.0551 54.7596 32.3465C56.6518 32.9786 58.6037 32.8592 60.267 31.8697C61.4566 31.1464 68.2048 23.1129 72.4823 18.1868C73.2805 17.2573 74.6943 17.1632 75.6043 17.9627L76.0318 18.3362C76.9436 19.1343 77.0361 20.5289 76.2187 21.4584Z" fill="#013E50"/>
<path d="M11.8304 45.717H13.0785C13.8362 45.717 14.3714 45.4256 14.3714 44.6542C14.3714 43.8725 13.8078 43.5811 13.1129 43.5811H11.8304V45.717ZM10.1924 43.0238C10.1924 42.6127 10.5274 42.2793 10.9381 42.2793H13.3235C14.9318 42.2793 16.0227 43.1836 16.0227 44.6214C16.0227 46.2654 14.7778 47.02 13.2847 47.02H11.8304V49.8465H10.1924V43.0238Z" fill="#013E50"/>
<path d="M19.9178 46.757C19.3811 45.161 19.0388 44.1402 18.8551 43.4601H18.8447C18.6578 44.2059 18.2798 45.3927 17.8492 46.757H19.9178ZM17.5056 48.0979L16.9152 49.8465H15.3069L17.7042 42.7845C17.8075 42.481 18.0897 42.2793 18.4112 42.2793H19.9311L22.6126 49.8465H20.8922L20.2705 48.0979H17.5056Z" fill="#013E50"/>
<path d="M23.8529 49.846V47.172C23.8529 47.0871 23.8409 47.0091 23.7901 46.9286L21.8038 43.388C21.5257 42.8916 21.8831 42.2788 22.4523 42.2788H23.0308C23.6168 43.4208 24.3758 44.9392 24.7525 45.7613C25.0455 45.0604 25.7255 43.7331 26.2756 42.6779C26.4025 42.4313 26.6582 42.2788 26.9345 42.2788H28.1946L25.5522 46.9046C25.5206 46.9586 25.491 46.9927 25.491 47.1468V49.846H23.8529Z" fill="#013E50"/>
<mask id="mask1_194_387" style="mask-type:luminance" maskUnits="userSpaceOnUse" x="30" y="41" width="8" height="9">
<path d="M30.3911 41.9736H37.5039V49.9999H30.3911V41.9736Z" fill="white"/>
</mask>
<g mask="url(#mask1_194_387)">
<path d="M33.8912 43.262C33.2127 43.262 32.6971 43.477 32.3129 43.9165C31.9318 44.3573 31.7405 45.0389 31.7436 45.9416C31.7436 46.8459 31.9378 47.5528 32.3236 48.0431C32.7075 48.5243 33.2396 48.7589 33.9512 48.7589C34.661 48.7589 35.193 48.5303 35.5801 48.058C35.9643 47.5901 36.1585 46.8967 36.1585 46.0013C36.1585 44.1571 35.4187 43.262 33.8912 43.262ZM33.8912 49.9994C32.9153 49.9994 32.0814 49.6407 31.4134 48.9322C30.7541 48.2253 30.4194 47.2642 30.4194 46.0733C30.4194 44.8896 30.7377 43.9105 31.3669 43.1619C32.0022 42.4054 32.872 42.0215 33.9512 42.0215C35.0285 42.0215 35.8939 42.3906 36.5172 43.1171C37.1388 43.8448 37.4558 44.8028 37.4587 45.9656C37.4587 47.1329 37.142 48.1044 36.5172 48.8546C35.8851 49.6152 35.0017 49.9994 33.8912 49.9994Z" fill="#057A40"/>
</g>
<path d="M44.4325 49.8921C44.0214 49.8921 43.6375 49.7396 43.2861 49.4378C42.9485 49.1463 42.5839 48.6096 42.2056 47.8414L40.626 44.6639C40.4495 44.3096 40.2718 44.0109 40.0953 43.7732V49.7352L39.5228 49.8921C39.3227 49.8921 39.1446 49.8084 39.0117 49.6499C38.8803 49.499 38.8143 49.2973 38.8175 49.0519V42.2741L39.4556 42.1172C40.2954 42.1172 40.9815 42.6508 41.4971 43.6984L43.065 46.8895C43.2861 47.3587 43.4761 47.7265 43.6239 47.9895V42.2861L44.2083 42.1308C44.4056 42.1308 44.5701 42.1949 44.7031 42.3249C44.8404 42.4594 44.9077 42.6268 44.9004 42.8213V49.8921H44.4325Z" fill="#057A40"/>
<path d="M49.394 49.9407C48.5614 49.9407 47.9186 49.7182 47.4807 49.2787C47.0087 48.8079 46.7693 48.0814 46.7725 47.1219V42.2751L47.2805 42.1182C47.5719 42.1182 48.0667 42.2347 48.0755 43.0253V46.8545C48.0755 47.7976 48.234 48.1891 48.3701 48.352C48.557 48.5793 48.9754 48.6958 49.6046 48.6987H50.0125C50.597 48.6987 51.0753 48.6466 51.428 48.5433L51.6281 48.9872C51.6281 49.2922 51.5044 49.5344 51.259 49.703C51.032 49.8631 50.6238 49.9407 50.0125 49.9407H49.394Z" fill="#057A40"/>
<path d="M53.2094 49.8922C52.9628 49.8922 52.7642 49.8145 52.6146 49.6576C52.4696 49.5035 52.3936 49.2838 52.3936 49.0072V42.2862L53.0361 42.1309C53.2034 42.1309 53.3575 42.1937 53.498 42.3206C53.6445 42.4507 53.7177 42.6092 53.7177 42.7914V49.8922H53.2094Z" fill="#057A40"/>
<path d="M61.2997 49.8921C60.8886 49.8921 60.5046 49.7396 60.1532 49.4378C59.8154 49.1463 59.4507 48.6096 59.0728 47.8414L57.4929 44.6639C57.3167 44.3096 57.1386 44.0109 56.9624 43.7732V49.7352L56.39 49.8921C56.1899 49.8921 56.0118 49.8084 55.8789 49.6499C55.7472 49.499 55.6815 49.2973 55.6847 49.0519V42.2741L56.3228 42.1172C57.1626 42.1172 57.8487 42.6508 58.3643 43.6984L59.9322 46.8895C60.1532 47.3587 60.343 47.7265 60.4911 47.9895V42.2861L61.0755 42.1308C61.2728 42.1308 61.437 42.1949 61.5702 42.3249C61.7076 42.4594 61.7748 42.6268 61.7676 42.8213V49.8921H61.2997Z" fill="#057A40"/>
<path d="M66.315 49.9405C64.4152 49.9405 63.4529 48.8465 63.4529 46.6884V45.3447C63.4529 44.4568 63.5558 43.7035 63.7591 43.1087C63.9745 42.4633 64.3287 42.1343 64.8067 42.1299H68.6928L68.8497 42.6963C68.8497 42.9473 68.7332 43.3704 67.9634 43.3704H64.8696C64.8443 43.9084 64.7562 44.6466 64.7562 45.4479L67.8438 45.291L68.0007 45.7722C68.0007 45.9783 67.9306 46.1501 67.7929 46.2878C67.6556 46.4223 67.4627 46.4895 67.2205 46.4895H64.599L64.7562 46.8782C64.7562 47.5807 64.8964 48.0723 65.1714 48.3369C65.4496 48.6043 65.9503 48.7404 66.6528 48.7404H67.2205C67.642 48.7404 68.0979 48.6715 68.5763 48.5355L68.7764 48.9661C68.7764 49.3096 68.6628 49.5638 68.4386 49.7207C68.228 49.8704 67.8438 49.9405 67.2369 49.9405H66.315Z" fill="#057A40"/>
<mask id="mask2_194_387" style="mask-type:luminance" maskUnits="userSpaceOnUse" x="21" y="0" width="34" height="36">
<path d="M21.7419 0H54.4771V35.6692H21.7419V0Z" fill="white"/>
</mask>
<g mask="url(#mask2_194_387)">
<path d="M52.4942 0.039629C51.8274 -0.050039 51.3882 0.0172119 50.9816 0.193391L36.6413 6.46162C36.0597 6.70853 35.2215 7.16571 34.9165 8.10596C34.537 9.39857 35.2123 10.7079 36.5245 11.2488L39.1176 12.3175L28.4869 24.5746L22.3156 31.5301C21.4922 32.4584 21.5938 33.8811 22.5398 34.6824L22.9973 35.0695C23.9148 35.8465 25.2838 35.748 26.082 34.8498L34.9926 24.8076C34.9926 24.8063 34.9941 24.8031 34.9957 24.8016L45.4859 12.9676C46.5218 11.8003 45.8597 9.95173 44.3187 9.70514L38.8202 8.8293L51.3762 3.17832L48.5321 18.1762C47.7668 16.3933 45.4187 15.9911 44.1036 17.4156L42.7899 18.8368L45.6204 18.8219L46.1752 19.8563C46.5919 20.6317 47.2256 21.1369 47.9357 21.2878C48.2407 21.3522 48.5529 21.3642 48.8908 21.2789C49.9772 21.1369 50.7261 20.345 50.974 19.179L54.3548 3.23642C54.6883 1.66723 53.9618 0.350625 52.4942 0.039629Z" fill="#013E50"/>
</g>
</svg>
