<svg width="392" height="200" viewBox="0 0 392 200" fill="none" xmlns="http://www.w3.org/2000/svg">
<g clip-path="url(#clip0_71_902)">
<path d="M66.7832 56.3477H2.69531C2.69531 56.3477 2.69531 59.3913 2.69531 63.0435V76.6963C2.69531 80.3484 2.69531 83.3921 2.69531 83.3921H65.6496C82.1713 83.3921 89.3932 90.8696 89.3932 104.087C89.3932 117.304 81.9105 124.783 65.6496 124.783H2.69531C2.69531 124.783 2.69531 127.827 2.69531 131.479V185.914V197.132H30.349V151.651H66.7832C97.1315 151.651 117.042 132.87 117.042 104.087C117.042 75.3041 97.1315 56.3477 66.7832 56.3477Z" fill="#1F1F4E"/>
<path d="M193.477 56.3477H170.694L111.216 197.132H141.651L154.088 167.304H214.346L215.48 170.088L228.175 197.132H257.475L197.825 56.3477H193.477ZM196.781 140.349H165.39L184.259 95.3044L203.043 140.349H196.781Z" fill="#1F1F4E"/>
<path d="M350.954 56.3477L298.696 131.74C297.913 132.87 297.392 134.001 297.392 135.392V197.132H325.389V142.262L384.87 56.3477H351.043H350.954Z" fill="#1F1F4E"/>
<path d="M269.305 102L244.955 66.869C244.172 65.7386 237.736 56.3477 237.736 56.3477H267.912C269.999 56.3477 272.088 57.3047 273.479 59.0438L305.391 104.87H275.042C272.781 104.87 270.609 103.739 269.305 102Z" fill="#6C56A2"/>
<path d="M34.5236 35.6531H25.9129L23.3908 27.8257H10.9587L8.52157 35.6531H0L12.6953 0.609375H22.0023L34.4344 35.6531H34.5236ZM21.6542 21.8263L17.9136 10.0014C17.6527 9.13182 17.4803 8.08738 17.3063 6.86999H17.1323C17.1323 7.91347 16.8687 8.95782 16.5209 9.91435L12.6953 21.8263H21.6542Z" fill="#1F1F4E"/>
<path d="M61.4767 35.6531H40.6973V0.609375H48.6074V29.3055H61.566V35.7402L61.4767 35.6531Z" fill="#1F1F4E"/>
<path d="M74.1763 21.1294H60.8696V15.7393H74.1763V21.1294Z" fill="#1F1F4E"/>
<path d="M79.39 34.3474V26.5222C80.7813 27.7396 82.349 28.6097 84.0012 29.2183C85.6533 29.827 87.3059 30.0866 89.045 30.0866C90.0015 30.0866 90.8693 29.9994 91.652 29.8255C92.4346 29.6516 93.0433 29.3921 93.478 29.0443C93.9998 28.6964 94.3467 28.3475 94.6076 27.9127C94.8685 27.4779 94.9554 27.0439 94.9554 26.5222C94.9554 25.8265 94.7833 25.2182 94.3485 24.6964C94.0006 24.1747 93.3902 23.6537 92.7815 23.2189C92.1728 22.7841 91.305 22.348 90.3485 21.9132C89.392 21.4784 88.4328 21.0445 87.3893 20.6097C84.6937 19.4793 82.6093 18.0882 81.305 16.436C80.0006 14.7838 79.3052 12.7822 79.3052 10.4343C79.3052 8.60827 79.652 7.04483 80.4346 5.74049C81.2172 4.43614 82.1723 3.30469 83.3897 2.52208C84.6071 1.65251 86.0853 1.04407 87.7372 0.60929C89.3893 0.174508 91.132 0 93.045 0C94.958 0 96.4372 0.0872965 97.9154 0.348166C99.3067 0.609036 100.608 0.870922 101.826 1.39266V8.69565C101.217 8.26087 100.61 7.91415 99.9146 7.65328C99.2189 7.39241 98.5233 7.13077 97.7407 6.8699C97.045 6.69599 96.2624 6.52165 95.5667 6.4347C94.8711 6.34774 94.1737 6.26062 93.478 6.26062C92.6085 6.26062 91.7407 6.34783 91.045 6.52174C90.3493 6.69565 89.6546 6.9572 89.2198 7.21807C88.785 7.47894 88.3467 7.9127 88.0859 8.34749C87.825 8.78226 87.6528 9.30548 87.6528 9.82722C87.6528 10.4359 87.825 10.957 88.0859 11.3918C88.4337 11.8266 88.872 12.2605 89.3937 12.6953C89.9154 13.1301 90.6085 13.4791 91.478 13.9139C92.2607 14.3487 93.2154 14.6956 94.2589 15.1303C95.6502 15.739 96.9563 16.3475 97.9998 17.0431C99.1302 17.7388 100.088 18.4345 100.87 19.3041C101.653 20.1737 102.262 21.1309 102.696 22.1743C103.131 23.2178 103.303 24.5216 103.303 25.9129C103.303 27.9129 102.956 29.4787 102.174 30.87C101.391 32.1743 100.434 33.3058 99.1294 34.0884C97.825 34.871 96.3485 35.4793 94.6963 35.8271C93.0441 36.175 91.2198 36.3472 89.3937 36.3472C87.5676 36.3472 85.6511 36.175 83.912 35.8271C82.1728 35.4793 80.6944 35.043 79.39 34.3474Z" fill="#1F1F4E"/>
<path d="M131.653 35.6531H110.696V0.609375H130.868V7.04408H118.61V14.8693H130.002V21.304H118.61V29.3055H131.738V35.7402L131.653 35.6531Z" fill="#1F1F4E"/>
<path d="M168.347 35.6533H159.303L153.825 26.6094C153.39 25.9138 153.044 25.3054 152.697 24.7837C152.349 24.262 151.915 23.8258 151.567 23.391C151.219 22.9562 150.783 22.6966 150.348 22.5227C149.913 22.3488 149.477 22.1746 148.956 22.1746H146.87V35.5662H138.957V0.522461H151.477C159.999 0.522461 164.173 3.7407 164.173 10.0886C164.173 11.306 163.998 12.4354 163.65 13.4789C163.303 14.5224 162.784 15.4795 162.088 16.2621C161.392 17.0447 160.608 17.8273 159.651 18.436C158.695 19.0447 157.567 19.4787 156.437 19.8266C156.958 20.0874 157.48 20.3492 157.915 20.697C158.437 21.0448 158.868 21.4787 159.303 22.0005C159.737 22.5222 160.176 23.0433 160.61 23.5651C161.045 24.0868 161.392 24.6972 161.74 25.2189L168.347 35.5662V35.6533ZM146.87 6.52195V16.2621H150.264C151.916 16.2621 153.304 15.7389 154.348 14.7824C155.391 13.8259 155.915 12.5222 155.915 11.1309C155.915 8.08742 154.085 6.52195 150.433 6.52195H146.87Z" fill="#1F1F4E"/>
<path d="M204.089 35.6531H195.478L192.956 27.8257H180.525L178.087 35.6531H169.565L182.261 0.609375H191.568L204 35.6531H204.089ZM191.219 21.8263L187.479 10.0014C187.218 9.13182 187.045 8.08738 186.872 6.86999H186.698C186.698 7.91347 186.434 8.95782 186.086 9.91435L182.261 21.8263H191.219Z" fill="#1F1F4E"/>
<path d="M224.784 21.7392C224.784 26.4349 223.739 30 221.565 32.5217C219.391 35.0435 216.26 36.2624 212.173 36.2624C210.347 36.2624 208.61 35.9137 207.044 35.305V27.9128C208.436 28.9563 209.914 29.4796 211.566 29.4796C215.131 29.4796 216.958 26.7824 216.958 21.4781V0.609375H224.784V21.7392Z" fill="#1F1F4E"/>
</g>
<defs>
<clipPath id="clip0_71_902">
<rect width="391.304" height="200" fill="white"/>
</clipPath>
</defs>
</svg>
