<svg width="483" height="200" viewBox="0 0 483 200" fill="none" xmlns="http://www.w3.org/2000/svg">
<g clip-path="url(#clip0_71_713)">
<mask id="mask0_71_713" style="mask-type:luminance" maskUnits="userSpaceOnUse" x="0" y="0" width="482" height="200">
<path d="M481.332 0H0V200H481.332V0Z" fill="white"/>
</mask>
<g mask="url(#mask0_71_713)">
<path fill-rule="evenodd" clip-rule="evenodd" d="M372.962 150.542H359.322L365.64 131.406H384.781L380.192 145.326C379.138 148.484 376.31 150.542 372.978 150.542M347.489 131.406H361.128L354.811 150.542H335.67L340.259 136.622C341.313 133.464 344.14 131.406 347.473 131.406H347.489ZM436.591 96.1508H436.719C437.707 96.1036 438.667 95.8522 439.546 95.4122C441.133 94.6111 442.423 93.2286 443.02 91.4375L459.048 44.3047H481.316L479.415 49.7564H477.074L476.1 52.773L460.904 97.4391C458.64 104.211 453.863 109.411 447.97 112.349C443.836 114.407 439.152 115.365 434.391 114.972H403.12L415.062 78.9472H411.086C410.098 78.9944 409.138 79.2458 408.258 79.6858C406.671 80.4869 405.381 81.8694 404.785 83.6605L402.554 90.5264L396.439 109.379C394.178 116.151 389.4 121.351 383.507 124.289C379.39 126.347 374.69 127.306 369.929 126.913H338.955L341.186 120.031L345.1 108.107L346.765 103.016L354.622 78.963H376.324L374.501 84.4305H372.679L368.891 95.978L364.949 108.122H372.254C373.245 108.075 374.205 107.824 375.084 107.384C376.671 106.583 377.958 105.2 378.558 103.409L382.722 90.5419H382.706L386.901 77.6905C389.165 70.9191 393.942 65.7186 399.835 62.7808C403.953 60.7227 408.65 59.7641 413.413 60.1569H444.685L438.054 78.9472H435.146C433.245 84.6816 431.359 90.4164 429.489 96.1822H436.591V96.1508Z" fill="#4EB3A7"/>
<path fill-rule="evenodd" clip-rule="evenodd" d="M219.27 150.542H205.629L211.947 131.406H231.088L226.499 145.326C225.462 148.484 222.617 150.542 219.286 150.542" fill="#17A3DD"/>
<path fill-rule="evenodd" clip-rule="evenodd" d="M193.78 131.406H207.421L201.103 150.542H181.963L186.552 136.622C187.589 133.448 190.433 131.406 193.765 131.406" fill="#17A3DD"/>
<path fill-rule="evenodd" clip-rule="evenodd" d="M252.209 106.221L261.371 78.9158H257.395C256.405 78.963 255.446 79.2144 254.566 79.6541C252.979 80.4555 251.691 81.838 251.093 83.6291L248.862 90.4947L242.749 109.348C240.486 116.119 235.708 121.32 229.815 124.257C225.698 126.316 220.999 127.274 216.238 126.881H184.934L191.125 107.84L195.808 93.4955L200.586 78.9316H221.816L219.994 84.3988H218.626L214.839 95.9463L210.895 108.091H218.563C219.553 108.044 220.512 107.792 221.392 107.353C222.979 106.551 224.268 105.169 224.865 103.378L229.029 90.5105H229.014L233.21 77.6588C235.473 70.8874 240.25 65.6872 246.143 62.7494C250.26 60.691 254.959 59.7327 259.721 60.1255H287.552L279.82 83.8491C278.563 87.651 277.274 91.4688 276.001 95.2866C273.77 101.932 267.814 106.221 260.805 106.221H252.209Z" fill="#17A3DD"/>
<path fill-rule="evenodd" clip-rule="evenodd" d="M320.585 84.2114H318.18L320.003 78.7439H322.378L323.068 78.728H342.257L334.73 101.54L334.666 101.713L334.602 101.87L330.784 112.695C328.223 117.723 324.153 121.635 319.342 124.023C315.225 126.081 310.528 127.039 305.767 126.646H274.493L284.675 95.9472H284.709L287.111 88.5316L301.192 44.1797H321.229L323.193 44.1955L321.418 49.6472H319.517L305.814 92.7736V92.8208C304.146 97.8169 302.496 102.829 300.862 107.841H308.092C309.082 107.793 310.039 107.542 310.919 107.102C312.509 106.301 313.796 104.918 314.393 103.127L320.602 84.1327L320.585 84.2114Z" fill="#17A3DD"/>
<path fill-rule="evenodd" clip-rule="evenodd" d="M296.084 150.542H282.444L288.762 131.406H307.903L303.314 145.326C302.276 148.484 299.432 150.542 296.1 150.542" fill="#17A3DD"/>
<mask id="mask1_71_713" style="mask-type:luminance" maskUnits="userSpaceOnUse" x="0" y="2" width="177" height="126">
<path d="M6.9461 52.4902C8.15613 53.2443 9.38189 53.9671 10.6234 54.6427C12.6192 55.7266 13.7821 57.8318 13.5149 59.8743L13.4678 60.2827C13.2792 61.7124 12.4777 62.7652 11.1734 63.2835C9.86906 63.8177 8.43901 63.6763 7.04037 62.9065C5.61033 62.1052 4.19598 61.2413 2.79734 60.3613C0.990137 59.1988 9.77367e-05 57.2507 0.251536 55.3338L0.29868 54.9882C0.487261 53.5271 1.33586 52.4429 2.70306 51.9402C4.07027 51.4377 5.56316 51.626 6.9461 52.506M26.7154 41.901C27.9411 42.6393 29.1669 43.3307 30.4243 43.9904C32.4357 45.0432 33.6299 47.1327 33.4099 49.1752L33.3627 49.5838C33.2057 51.0132 32.4357 52.0815 31.147 52.6474C29.8585 53.2129 28.4283 53.1029 27.0297 52.3488C25.584 51.5632 24.1696 50.7463 22.7553 49.8666C20.9323 48.7352 19.9109 46.7871 20.1152 44.8704L20.1466 44.509C20.3037 43.0321 21.1366 41.9482 22.4724 41.3982C23.8239 40.864 25.3168 41.0368 26.7154 41.8854V41.901ZM18.3865 14.8468C19.5966 15.6167 20.8066 16.3551 22.0481 17.0464C24.0282 18.1618 25.1754 20.2671 24.8768 22.3095L24.8139 22.718C24.6096 24.132 23.7925 25.1689 22.4881 25.6874C21.1838 26.2058 19.738 26.0487 18.3551 25.2474C16.925 24.4305 15.5264 23.5664 14.1435 22.6551C12.352 21.4768 11.3777 19.513 11.6606 17.6119L11.7077 17.2663C11.912 15.8052 12.7763 14.7368 14.1435 14.2498C15.5107 13.7628 17.0036 13.967 18.3865 14.8625V14.8468ZM48.8579 42.5765C43.2004 40.7227 37.763 38.0204 32.7029 34.564C30.6126 33.1343 29.5914 30.699 30.1726 28.5468L30.2356 28.3268C30.6443 26.85 31.65 25.8445 33.143 25.436C34.6356 25.0275 36.2074 25.3417 37.6373 26.3158C41.7075 29.1124 46.1075 31.2963 50.6807 32.7888C52.142 33.2599 53.2893 34.1868 54.0908 35.5224C54.8923 36.8579 55.1124 38.2246 54.7508 39.5602L54.6879 39.7802C54.0278 42.2152 51.4822 43.4249 48.842 42.561L48.8579 42.5765ZM45.5734 19.8429C45.2119 19.6858 44.8346 19.5287 44.4734 19.3715C41.849 18.2247 39.3031 16.9049 36.8358 15.4595C34.6514 14.1712 33.457 11.7989 33.8657 9.56794L33.9129 9.33227C34.1956 7.80833 35.1073 6.72427 36.5531 6.1901C37.9988 5.67163 39.5545 5.86016 41.0474 6.73999C43.0903 7.94972 45.2119 9.03377 47.3805 9.99213C47.742 10.1492 48.119 10.3064 48.4805 10.4635C51.9065 12.0974 55.5679 13.3229 59.4025 14.0613C71.4873 16.4022 79.0774 12.8672 86.935 9.2223C96.7253 4.68185 106.846 -0.0157115 124.981 3.48783C136.61 5.73449 147.374 11.0448 156.411 18.3818C163.938 24.509 170.255 32.0188 174.844 40.3457C176.903 44.1004 177.358 47.8713 176.149 51.4846L151.586 124.886C151.24 125.907 150.329 126.488 149.197 126.41C148.05 126.347 147.013 125.64 146.463 124.572C143.006 117.863 138.684 111.815 133.671 106.74C133.545 106.614 133.42 106.488 133.294 106.363C131.848 104.808 130.308 103.331 128.674 101.964C122.702 96.9677 115.489 93.3385 107.632 91.8146C107.27 91.736 106.893 91.6732 106.531 91.6104H106.516C95.201 89.7093 87.8151 93.1185 80.1933 96.6379C70.3401 101.178 60.1566 105.876 42.0532 102.388C34.3371 100.895 26.9983 98.0518 20.288 94.1554C17.7894 92.7102 15.3693 91.1077 13.0592 89.3793C11.0163 87.8554 10.1205 85.3888 10.8277 83.2835L10.9062 83.0635C11.3934 81.6182 12.462 80.6754 13.9864 80.3457C15.5107 80.0157 17.0665 80.4085 18.4651 81.4454C20.3823 82.8752 22.3781 84.2104 24.4525 85.4046C29.9684 88.6096 36.0501 90.9504 42.4774 92.1916C57.3752 95.0668 66.1284 91.0291 74.5986 87.1327C83.8862 82.8438 92.891 78.696 108.056 81.6182C117.972 83.5349 127.102 88.1382 134.693 94.4854C139.03 98.1146 142.848 102.325 146.023 106.928L166.578 45.5302C162.728 38.0518 157.228 31.2963 150.58 25.9073C143.147 19.8743 134.253 15.491 124.588 13.6214C109.674 10.7305 100.984 14.7683 92.5608 18.6803C83.2891 22.9851 74.3159 27.1485 59.0097 24.1948C54.358 23.2993 49.8636 21.791 45.589 19.78L45.5734 19.8429ZM135.368 116.559L132.335 125.97C131.989 127.038 131.094 127.73 129.962 127.793C128.831 127.855 127.809 127.258 127.275 126.253C123.912 119.843 119.669 114.218 114.75 109.662C114.625 109.552 114.499 109.427 114.373 109.317C112.959 107.903 111.45 106.583 109.832 105.389C103.954 101.005 96.851 98.146 89.0877 97.5018C88.7265 97.4704 88.365 97.439 88.0035 97.4235H87.9879C86.2592 97.329 84.6092 97.3449 83.0533 97.4704C89.2451 94.7527 95.7038 92.6474 104.881 94.1868H104.897C105.243 94.2499 105.589 94.3127 105.95 94.3754C113.462 95.8366 120.376 99.3088 126.081 104.085C127.652 105.389 129.13 106.803 130.497 108.295C130.622 108.421 130.748 108.547 130.858 108.657C132.1 109.913 133.294 111.218 134.441 112.6C135.447 113.81 135.793 115.255 135.368 116.559ZM35.8772 80.1885C30.3299 78.366 25.0339 75.6952 20.178 72.2702C18.1665 70.8563 17.2708 68.421 17.9622 66.2529L18.0408 66.0329C18.5122 64.5404 19.5809 63.5349 21.0895 63.1107C22.5981 62.6866 24.1539 62.9852 25.5211 63.9749C29.4499 66.7399 33.7087 68.9082 38.203 70.3849C39.633 70.8563 40.7331 71.7674 41.4717 73.1029C42.2102 74.4382 42.3517 75.8052 41.9275 77.1563L41.8645 77.3763C41.0788 79.8271 38.4858 81.0527 35.893 80.2043L35.8772 80.1885Z" fill="white"/>
</mask>
<g mask="url(#mask1_71_713)">
<path d="M177.343 0H0V127.856H177.343V0Z" fill="url(#paint0_linear_71_713)"/>
</g>
<path d="M174.34 180.047L175.488 176.182C176.179 173.826 175.236 172.317 173.209 172.317C171.182 172.317 169.5 173.951 168.872 176.072C168.196 178.351 169.045 180.063 171.119 180.063H174.356L174.34 180.047ZM179.023 185.389H178.254H172.832C172.879 185.311 172.926 185.232 172.973 185.153C172.486 185.311 171.339 185.389 169.469 185.389C164.252 185.389 161.549 181.603 163.12 176.292C164.723 170.904 169.548 167.274 174.843 167.274C180.139 167.274 182.56 171.108 180.988 176.402L179.904 180.032H180.281L178.992 185.373L179.023 185.389Z" fill="#606163"/>
<path d="M450.5 159.592L444.921 178.367C443.539 183.033 440.881 185.389 436.969 185.389H433.495L434.314 182.64H436.858C438.573 182.64 439.86 182.074 440.739 180.959C441.353 180.236 441.935 178.964 442.471 177.125L447.687 159.576H450.483L450.5 159.592ZM434.172 185.389H420.405L421.224 182.64H423.768C425.483 182.64 426.77 182.074 427.649 181.006C428.279 180.252 428.859 178.979 429.395 177.141L434.611 159.592H437.41L431.831 178.367C431.328 180.079 430.651 181.509 429.819 182.593H435.005L434.172 185.389ZM421.254 185.389H397.288L398.121 182.593H412.878C413.932 179.042 414.152 176.167 413.475 174.015C412.659 171.422 410.584 170.071 407.332 169.867H406.247L407.032 167.243C415.439 167.243 418.363 172.349 415.755 182.593H422.103L421.271 185.389H421.254ZM394.003 176.057C395.183 172.067 394.114 169.631 390.846 169.631C387.295 169.631 384.67 172.302 383.413 176.529C382.234 180.519 383.413 183.064 386.698 183.064C390.169 183.064 392.622 180.708 394.003 176.042V176.057ZM396.992 176.34C395.452 181.525 391.035 185.389 386.005 185.389H371.846L372.679 182.593H380.458C379.609 180.99 379.546 178.932 380.317 176.371C381.857 171.187 386.24 167.322 391.429 167.322C396.614 167.322 398.609 170.904 397.005 176.34H396.992ZM372.726 185.389H364.319L365.152 182.593H373.558L372.726 185.389ZM364.821 185.389H356.415L357.247 182.593H365.654L364.821 185.389ZM356.934 185.389H348.527L349.359 182.593H357.766L356.934 185.389ZM349.029 185.389H340.622L341.455 182.593H349.861L349.029 185.389ZM341.139 185.389H332.732L333.564 182.593H341.974L341.139 185.389ZM333.234 185.389H324.827L325.66 182.593H334.069L333.234 185.389ZM325.346 185.389H316.94L317.772 182.593H326.179L325.346 185.389ZM318.291 185.389H317.206C311.815 185.389 308.672 181.21 310.056 175.743H301.161C297.169 175.743 293.759 178.492 292.533 182.64C291.403 186.474 293.115 189.019 297.374 189.019H302.401L301.522 191.972H296.494C290.79 191.972 287.819 188.265 289.547 182.436C290.884 177.927 294.719 174.188 298.992 173.182C298.567 171.91 298.661 170.275 299.244 168.312C300.767 163.174 304.837 159.545 309.662 159.545C313.655 159.545 315.885 161.697 315.588 164.965L312.459 165.279C312.775 162.766 311.626 161.525 309.113 161.525C306.003 161.525 303.55 163.991 302.293 168.265C301.791 169.946 301.885 171.501 302.559 172.884H313.294L312.822 174.47C311.471 179.011 313.655 182.562 319.106 182.562L318.274 185.358L318.291 185.389ZM276.002 185.389H270.423L278.061 159.671H283.64L276.002 185.389ZM268.647 177.691C268.018 179.796 266.902 181.556 265.331 182.954C263.524 184.588 261.465 185.389 259.108 185.389H253.844L255.431 180.048H259.532C261.402 180.048 262.754 178.728 263.524 176.136L268.411 159.702H273.99L268.647 177.691ZM247.086 177.377C248.972 176.261 250.182 174.753 250.763 172.789C251.502 170.275 250.528 168.202 247.856 168.202C246.536 168.202 245.358 168.673 244.257 169.6C243.314 170.48 242.639 171.548 242.277 172.789C241.696 174.737 242.01 176.261 243.22 177.377C243.723 177.848 244.242 178.257 244.776 178.571C245.515 178.257 246.269 177.848 247.086 177.377ZM255.949 185.389H252.712C248.846 185.389 245.672 184.918 243.173 183.913C240.093 184.902 236.636 185.389 232.77 185.389H229.14L230.727 180.048H234.357C236.117 180.048 237.217 179.922 237.72 179.734C236.589 177.785 236.353 175.586 237.076 173.198C237.374 172.208 237.846 171.171 238.459 170.165C240.879 166.301 244.965 163.865 249.145 163.865C253.325 163.865 255.997 166.301 256.091 170.165C256.106 171.155 255.965 172.192 255.666 173.198C254.959 175.586 253.419 177.785 251.125 179.734C251.549 179.938 252.586 180.048 254.299 180.048H257.536L255.949 185.389ZM230.428 185.389H221.895L223.482 180.048H232.015L230.428 185.389ZM222.524 185.389H213.99L215.578 180.048H224.111L222.524 185.389ZM214.635 185.389H206.102L207.689 180.048H216.222L214.635 185.389ZM206.73 185.389H198.197L199.784 180.048H208.318L206.73 185.389ZM198.841 185.389H190.308L191.895 180.048H200.429L198.841 185.389ZM190.937 185.389H182.404L183.991 180.048H192.524L190.937 185.389ZM183.488 185.389H172.802C172.802 185.389 172.896 185.232 172.943 185.154C172.472 185.311 171.356 185.389 169.533 185.389H169.439C164.221 185.389 161.519 181.603 163.09 176.293C164.693 170.904 169.517 167.275 174.813 167.275C178.475 167.275 180.848 169.239 181.319 172.302H173.163C171.042 172.302 169.455 173.936 168.826 176.057C168.15 178.335 168.999 180.048 171.073 180.048H185.075L183.488 185.389ZM144.043 179.011C142.834 182.609 140.586 185.641 137.239 188.107C133.719 190.7 129.979 192.019 125.956 192.019H125.72C121.697 192.019 118.695 190.7 116.715 188.107C114.735 185.515 114.342 182.279 115.489 178.414L116.92 173.622H122.498L121.225 177.895C120.754 179.498 120.581 180.88 120.707 182.074C121.084 184.95 123.567 186.819 127.386 186.819C131.204 186.819 134.756 184.95 136.846 182.074C137.459 181.195 138.009 180.158 138.433 179.011H132.226C127.527 178.634 125.186 174.973 126.679 169.946C128.281 164.557 133.106 160.928 138.402 160.928C142.959 160.928 145.536 163.991 144.908 168.422H139.266C139.266 166.882 138.355 165.955 136.752 165.955C134.63 165.955 133.043 167.589 132.415 169.71C131.739 171.988 132.587 173.7 134.662 173.7H139.078H139.219H145.552L143.996 179.011H144.043Z" fill="#606163"/>
<path fill-rule="evenodd" clip-rule="evenodd" d="M122.497 193.967C124.163 193.967 125.514 195.318 125.514 196.983C125.514 198.649 124.163 200 122.497 200C120.831 200 119.48 198.649 119.48 196.983C119.48 195.318 120.831 193.967 122.497 193.967Z" fill="#606163"/>
<path fill-rule="evenodd" clip-rule="evenodd" d="M130.088 193.967C131.754 193.967 133.105 195.318 133.105 196.983C133.105 198.649 131.754 200 130.088 200C128.422 200 127.071 198.649 127.071 196.983C127.071 195.318 128.422 193.967 130.088 193.967Z" fill="#606163"/>
<path fill-rule="evenodd" clip-rule="evenodd" d="M254.33 156.167C255.996 156.167 257.347 157.518 257.347 159.183C257.347 160.849 255.996 162.2 254.33 162.2C252.664 162.2 251.312 160.849 251.312 159.183C251.312 157.518 252.664 156.167 254.33 156.167Z" fill="#606163"/>
<path fill-rule="evenodd" clip-rule="evenodd" d="M396.173 159.701C397.413 159.701 398.42 160.707 398.42 161.948C398.42 163.189 397.413 164.195 396.173 164.195C394.93 164.195 393.926 163.189 393.926 161.948C393.926 160.707 394.93 159.701 396.173 159.701Z" fill="#606163"/>
<path d="M179.024 183.283C177.94 186.944 176.227 189.568 173.87 191.217C171.686 192.757 168.668 193.527 164.85 193.527L166.186 189.018C169.847 189.018 172.204 187.258 173.257 183.755L174.373 180.031H179.999L179.024 183.283Z" fill="#606163"/>
<path d="M157.558 183.284C156.473 186.944 154.76 189.584 152.403 191.218C150.219 192.773 147.217 193.527 143.383 193.527L144.718 189.018C148.38 189.018 150.737 187.259 151.79 183.755L156.206 168.877H161.832L157.558 183.268V183.284Z" fill="#606163"/>
<path fill-rule="evenodd" clip-rule="evenodd" d="M76.4532 62.4975H76.4845C76.7517 62.4975 77.0189 62.4192 77.2702 62.2934C77.7103 62.0734 78.0718 61.6964 78.2288 61.1936L78.5432 60.2509H73.7658C72.3827 60.3609 71.2671 60.0939 70.4972 59.5284C69.5383 58.8056 69.1299 57.6114 69.4756 56.0561L72.3042 47.525L72.7442 46.2211L73.0744 45.247H78.5587L75.683 53.7781C75.5259 54.265 75.6203 54.6578 75.9188 54.8778C76.0758 55.0036 76.2958 55.0664 76.563 55.082H76.5944H80.2717L83.5247 45.247H90.2351L89.8264 46.2211H88.6636L83.1477 62.8434C82.519 64.7128 81.1831 66.1425 79.5489 66.9439C78.4017 67.5095 77.1129 67.7764 75.8086 67.6664H70.6384L72.3514 62.4975H76.4532ZM98.6581 55.082H98.6897C98.9566 55.082 99.2238 55.0036 99.4755 54.8778C99.9155 54.6578 100.277 54.2809 100.45 53.7781L100.513 53.6053H100.497L101.141 51.72C101.298 51.2328 101.204 50.84 100.905 50.6203C100.748 50.4945 100.528 50.4317 100.261 50.4159H100.23H95.7824L94.808 53.3539L94.2423 55.082H98.6739H98.6581ZM83.4934 66.4881H84.9863C85.2849 65.5928 85.5834 64.6814 85.8977 63.7859H85.8034L85.8506 63.6445C86.7462 60.9736 87.6262 58.3342 88.5063 55.6792H88.475L88.5221 55.5378C89.6849 52.097 90.8163 48.672 91.948 45.247H103.027C104.41 45.137 105.525 45.4042 106.296 45.9697C107.38 46.7867 107.757 48.2164 107.144 50.0703L106.531 51.8928H106.547L105.353 55.4278C104.708 57.2972 103.373 58.727 101.754 59.5284C100.607 60.0939 99.3182 60.3609 98.0139 60.2509H92.5293L90.1563 67.4622H83.2889L83.5247 66.4881H83.4934ZM117.626 60.2509H111.921L109.548 67.4622H103.247L103.483 66.4881H104.41C104.708 65.5928 105.007 64.6814 105.321 63.7859H105.227L105.274 63.6445C106.17 60.9736 107.05 58.3342 107.93 55.6792H107.898L107.946 55.5378C109.109 52.097 110.224 48.672 111.372 45.247H122.451C123.833 45.137 124.949 45.4042 125.719 45.9697C126.803 46.7867 127.181 48.2164 126.568 50.0703L125.798 52.3642L125.075 54.5322L120.816 67.4309H115.347L115.395 67.2895C115.74 66.2684 116.07 65.2628 116.416 64.2414H116.4L116.447 64.1L116.573 63.7389H116.495L116.542 63.5975C116.888 62.5761 117.217 61.5706 117.563 60.5495H117.548L117.595 60.4081L117.657 60.2195L117.626 60.2509ZM113.634 55.082H119.355L120.612 51.28C120.612 50.9972 120.502 50.7772 120.298 50.6203C120.141 50.4945 119.921 50.4317 119.653 50.4159H119.622H115.175L114.2 53.3539L113.634 55.082ZM134.331 62.4975H134.363C134.629 62.4975 134.897 62.4192 135.148 62.2934C135.588 62.0734 135.95 61.6964 136.107 61.1936L136.421 60.2509H131.644C130.261 60.3609 129.145 60.0939 128.375 59.5284C127.416 58.8056 127.008 57.6114 127.354 56.0561L130.182 47.525L130.622 46.2211L130.952 45.247H136.437L133.561 53.7781C133.404 54.265 133.498 54.6578 133.797 54.8778C133.954 55.0036 134.174 55.0664 134.441 55.082H134.472H138.15L141.403 45.247H148.113L147.704 46.2211H146.541L141.025 62.8434C140.381 64.7128 139.061 66.1425 137.427 66.9439C136.28 67.5095 134.991 67.7764 133.687 67.6664H128.516L130.229 62.4975H134.331ZM65.2953 62.4975H65.264C64.9968 62.4975 64.7768 62.4192 64.6197 62.2934C64.3212 62.0734 64.2269 61.6964 64.3839 61.1936L69.7742 45.247H63.0638L62.8283 46.2211H63.991L58.3966 62.8434C57.7837 64.7128 58.1608 66.1425 59.2453 66.9439C59.9994 67.5095 61.1153 67.7764 62.5139 67.6664H67.8412L69.5541 62.4975H65.3425H65.2953Z" fill="#96989A"/>
</g>
</g>
<defs>
<linearGradient id="paint0_linear_71_713" x1="48.8419" y1="47.2114" x2="336.355" y2="167.923" gradientUnits="userSpaceOnUse">
<stop stop-color="#17A3DD"/>
<stop offset="1" stop-color="#A4CE39"/>
</linearGradient>
<clipPath id="clip0_71_713">
<rect width="482.759" height="200" fill="white"/>
</clipPath>
</defs>
</svg>
