<svg width="182" height="200" viewBox="0 0 182 200" fill="none" xmlns="http://www.w3.org/2000/svg">
<g clip-path="url(#clip0_71_707)">
<path d="M87.2166 77.4194L160.275 0L174.786 15.3548C181.91 22.9032 181.91 34.7096 174.786 42.258L136.894 82.4516L160.471 107.419C167.596 114.968 167.596 126.774 160.471 134.323L146.543 149.097L87.2166 86.2581C84.8848 83.7419 84.8848 79.871 87.2166 77.3548V77.4194Z" fill="#165FAB"/>
<path d="M92.9144 118.452L19.855 195.871L5.34499 180.516C-1.77971 172.968 -1.77971 161.162 5.34499 153.613L43.236 113.42L19.6589 88.4518C12.5342 80.9035 12.5342 69.097 19.6589 61.5485L33.5838 46.7744L92.9144 109.613C95.2461 112.129 95.2461 116 92.9144 118.516V118.452Z" fill="#39BDEE"/>
<path d="M104.962 179.935C105.998 179.032 106.842 177.806 107.489 176.322V176.193C108.137 174.838 108.656 173.097 109.045 171.097C109.434 169.29 109.627 167.742 109.627 166.451C109.627 163.806 108.849 161.742 107.359 160.322C105.869 158.967 103.604 158.258 100.559 158.258H85.7271C83.8488 158.258 82.3598 158.645 81.2587 159.484C80.0928 160.322 79.3143 161.742 78.8609 163.742L71.8657 196.709H77.9535L81.0624 182.322H96.1545C98.0976 182.322 99.7816 182.129 101.142 181.806C102.631 181.419 103.928 180.774 105.029 179.806L104.962 179.935ZM103.602 166.645C103.602 167.097 103.602 167.548 103.472 168.064C103.343 168.645 103.278 169.226 103.084 169.935C102.76 171.226 102.503 172.322 102.179 173.29C101.92 174.129 101.528 174.774 101.075 175.355C100.686 175.806 100.168 176.193 99.5853 176.387C98.8729 176.645 97.9687 176.774 96.8028 176.774H82.2924L84.8197 164.967C84.8197 164.967 84.9493 164.387 85.0788 164.129C85.2083 164.129 85.4014 164.129 85.6604 164.129H100.171C102.179 164.129 102.824 164.58 102.954 164.709C103.343 165.097 103.539 165.742 103.539 166.709L103.602 166.645Z" fill="#1A60AB"/>
<path d="M133.074 161.419C132.88 160.839 132.62 160.323 132.296 159.871C131.907 159.29 131.452 158.839 130.87 158.516C130.222 158.129 129.509 158 128.731 158C127.177 158 125.884 158.516 124.848 159.613C124.071 160.452 123.291 161.419 122.644 162.452L100.819 196.774H107.748L114.225 186.516H132.426L134.563 196.774H140.652L133.526 162.968C133.397 162.452 133.269 161.935 133.074 161.419ZM127.957 164.903L131.259 180.839H117.853L127.827 165.032C127.827 165.032 127.892 164.968 127.957 164.903Z" fill="#1A60AB"/>
<path d="M172.582 158.387L156.389 178L148.682 158.71L148.552 158.387H142.205L152.506 183.742L149.719 196.774H155.744L158.397 184.323L179.318 159.226L180.033 158.387H172.582Z" fill="#1A60AB"/>
</g>
<defs>
<clipPath id="clip0_71_707">
<rect width="181.356" height="200" fill="white"/>
</clipPath>
</defs>
</svg>
