<svg width="242" height="200" viewBox="0 0 242 200" fill="none" xmlns="http://www.w3.org/2000/svg">
<g clip-path="url(#clip0_71_699)">
<path d="M126.059 137.63C127.599 131.112 133.318 126.519 139.992 126.445C153.412 126.445 166.83 126.371 180.25 126.297C198.364 126.297 214.133 113.63 218.313 95.9263L223.52 73.7783C194.993 73.8524 166.538 74.0004 138.012 74.0745C108.532 74.2226 83.011 94.593 76.3376 123.482C70.4708 148.963 64.5332 174.445 58.6665 199.926H81.0317C98.9984 199.926 114.618 187.482 118.651 169.926C121.144 159.186 123.638 148.371 126.131 137.63H126.059Z" fill="#39BDEE"/>
<path d="M97.4571 62.2965C95.9171 68.815 90.1971 73.4077 83.5237 73.4818C70.1041 73.4818 56.6859 73.5555 43.2659 73.6296C25.1526 73.6296 9.38637 86.2963 5.20638 104L0 126.148C28.5267 126.074 56.9776 125.926 85.5045 125.852C114.984 125.704 140.505 105.333 147.179 76.4444C153.045 50.963 158.987 25.4815 164.853 0H142.484C124.518 0 108.899 12.4444 104.865 29.9999C102.372 40.7407 99.8785 51.5558 97.3852 62.2965H97.4571Z" fill="#165FAB"/>
<path d="M147.766 74.2227C147.619 74.9634 147.397 75.7041 147.25 76.5189C140.577 105.334 115.059 125.778 85.5794 125.926C82.2794 125.926 78.9772 125.926 75.7505 125.926C75.8972 125.186 76.1194 124.445 76.266 123.63C82.9394 94.8152 108.457 74.3708 137.937 74.2227C141.237 74.2227 144.539 74.2227 147.766 74.2227Z" fill="#264594"/>
<path d="M171.818 154.74C171.818 152 171.013 149.926 169.473 148.444C167.933 147.037 165.659 146.37 162.579 146.37H147.766C145.859 146.37 144.391 146.815 143.291 147.629C142.117 148.518 141.313 149.926 140.873 152L133.833 185.407H140.139L143.219 170.889H158.251C160.157 170.889 161.845 170.74 163.239 170.37C164.779 170 166.097 169.333 167.124 168.37C168.151 167.407 169.031 166.222 169.691 164.666C170.277 163.259 170.864 161.481 171.231 159.407C171.597 157.629 171.818 156 171.818 154.74ZM146.885 153.185C146.885 153.185 147.031 152.592 147.104 152.444C147.251 152.444 147.399 152.444 147.619 152.444H162.139C164.119 152.444 164.707 152.889 164.853 153.037C165.22 153.407 165.437 154.074 165.437 154.963C165.437 155.407 165.437 155.852 165.291 156.37C165.217 156.963 165.071 157.555 164.925 158.222C164.631 159.555 164.339 160.666 163.973 161.555C163.679 162.37 163.313 163.037 162.873 163.555C162.507 164 161.992 164.37 161.405 164.592C160.745 164.889 159.791 164.963 158.691 164.963H144.318L146.813 153.185H146.885Z" fill="#1A60AB"/>
<path d="M178.27 146.37L169.984 185.407H176.147L184.433 146.37H178.27Z" fill="#1A60AB"/>
<path d="M205.992 155.037L200.857 179.037C200.857 179.037 200.784 179.407 200.71 179.555C200.71 179.555 200.565 179.555 200.492 179.555H191.032C189.932 179.555 189.344 179.333 189.124 179.111C188.83 178.741 188.687 178.222 188.687 177.555C188.687 177.037 188.758 176.444 188.905 175.778L193.306 155.037H187.072L182.818 175.037C182.671 175.63 182.599 176.148 182.599 176.518C182.599 176.889 182.599 177.333 182.599 177.852C182.599 180 183.258 181.852 184.504 183.185C185.824 184.667 187.878 185.333 190.591 185.333H200.639C202.546 185.333 204.084 184.741 205.111 183.555C205.991 182.518 206.578 181.259 206.944 179.704L212.226 154.963H206.064L205.992 155.037Z" fill="#1A60AB"/>
<path d="M220.877 161.407C220.877 161.407 221.685 160.889 223.005 160.889H238.333L239.579 154.963H223.005C220.585 154.963 218.605 155.555 216.992 156.667C215.305 157.852 214.204 159.778 213.691 162.37C213.471 163.333 213.397 164.148 213.397 164.815C213.397 167.185 214.205 169.037 215.818 170.222C217.211 171.333 218.899 172.074 220.953 172.593L225.353 173.63C226.453 173.926 227.404 174.148 228.211 174.37C228.944 174.593 229.531 174.741 229.897 174.963C230.264 175.111 230.413 175.333 230.413 175.333C230.413 175.333 230.485 175.555 230.485 175.704C230.485 175.926 230.486 176.148 230.413 176.444C230.193 177.481 229.825 178.296 229.385 178.889C229.092 179.259 228.36 179.407 227.333 179.407H210.54L209.291 185.333H227.333C228.727 185.333 229.972 185.185 231.072 184.889C232.245 184.518 233.199 184 233.933 183.333C234.666 182.667 235.251 181.778 235.691 180.815C236.057 179.926 236.353 178.889 236.647 177.704C236.72 177.259 236.791 176.815 236.791 176.37C236.791 176.074 236.791 175.778 236.791 175.481C236.791 174.37 236.573 173.333 236.059 172.444C235.619 171.63 234.959 170.889 234.079 170.296C233.273 169.778 232.317 169.333 231.291 168.963C230.264 168.593 229.164 168.296 227.917 168L223.298 166.889C222.565 166.667 221.905 166.518 221.318 166.296C220.878 166.148 220.511 166 220.291 165.852C220.071 165.704 219.927 165.555 219.853 165.407C219.853 165.407 219.778 165.185 219.778 164.815C219.778 164.741 219.78 164.37 220 163.63C220.22 162.593 220.584 161.852 221.024 161.407H220.877Z" fill="#1A60AB"/>
</g>
<defs>
<clipPath id="clip0_71_699">
<rect width="242" height="200" fill="white"/>
</clipPath>
</defs>
</svg>
