<svg width="364" height="200" viewBox="0 0 364 200" fill="none" xmlns="http://www.w3.org/2000/svg">
<path d="M360.831 133.241C360.831 129.516 359.666 126 357.473 123.379C355.281 120.69 352.403 119.241 349.32 119.241H312.386C311.907 119.241 310.468 118.896 309.235 117.585C308.139 116.413 307.933 115.034 307.865 114.206C307.865 113.999 307.865 113.793 307.865 113.586C307.865 113.241 307.865 112.827 307.865 112.413C307.865 111.861 307.727 109.931 309.166 108.414C310.126 107.379 311.291 107.033 311.976 106.964C323.556 106.964 335.204 106.964 346.784 106.964V98.4813H345.756C335.41 98.4813 325.063 98.4813 314.717 98.4813C313.483 98.4123 309.715 98.3441 306.152 100.896C304.096 102.344 302.931 104.07 302.314 105.173C299.094 113.311 301.012 121.586 306.22 125.379C307.111 126 308.001 126.482 308.892 126.758C310.056 127.241 311.221 127.518 312.318 127.518C313.483 127.656 314.512 127.518 315.197 127.518H349.32C350.485 127.518 351.649 128.069 352.471 129.172C353.362 130.207 353.842 131.723 353.842 133.241V134.138C353.842 135.379 353.636 137.724 351.992 138.965C351.101 139.655 350.005 139.792 349.32 139.792C345.825 139.93 320.06 139.93 286.691 139.792H286.213C282.307 139.792 278.196 139.792 274.016 139.792C272.988 139.585 272.028 139.034 271.205 138.275C270.109 137.241 269.492 135.793 269.492 134.276V100.344H260.859V134.276C260.859 138 262.367 141.517 265.176 144.207C267.917 146.828 271.617 148.343 275.454 148.343H285.116H287.308H326.639H349.389C352.472 148.343 355.349 146.828 357.542 144.138C359.666 141.517 360.899 138 360.899 134.276V133.379L360.831 133.241Z" fill="#3F4350"/>
<path d="M225.572 107.585C225.572 108.275 225.847 108.965 226.326 109.447C226.806 109.93 227.491 110.207 228.176 110.207H232.698C233.383 110.207 234.069 109.93 234.549 109.447C235.028 108.965 235.301 108.344 235.301 107.585V103.033C235.301 102.344 235.028 101.654 234.549 101.171C234.069 100.689 233.383 100.412 232.698 100.412H228.176C227.491 100.412 226.806 100.689 226.326 101.171C225.847 101.654 225.572 102.344 225.572 103.033V107.585Z" fill="#3F4350"/>
<path d="M241.469 110.207H245.991C246.676 110.207 247.361 109.93 247.841 109.447C248.321 108.965 248.595 108.275 248.595 107.585V103.033C248.595 102.344 248.321 101.654 247.841 101.171C247.361 100.689 246.676 100.412 245.991 100.412H241.469C240.784 100.412 240.099 100.689 239.619 101.171C239.14 101.654 238.865 102.344 238.865 103.033V107.585C238.865 108.275 239.14 108.965 239.619 109.447C240.099 109.93 240.784 110.207 241.469 110.207Z" fill="#3F4350"/>
<path d="M214.813 110.207H219.337C220.022 110.207 220.707 109.93 221.187 109.447C221.667 108.965 221.94 108.275 221.94 107.585V103.033C221.94 102.344 221.667 101.654 221.187 101.171C220.707 100.689 220.022 100.412 219.337 100.412H214.813C214.128 100.412 213.443 100.689 212.963 101.171C212.484 101.654 212.211 102.275 212.211 103.033V107.585C212.211 108.275 212.484 108.965 212.963 109.447C213.443 109.93 214.128 110.207 214.813 110.207Z" fill="#3F4350"/>
<path d="M250.581 135.448C250.581 134.137 250.581 131.033 250.581 122.895C250.581 122.275 250.581 121.654 250.581 121.033H242.153V134.207V134.826V136.757C242.153 137.24 242.086 137.654 241.88 138.137C241.743 138.619 241.469 138.966 241.126 139.31C240.989 139.448 240.852 139.586 240.715 139.655C240.509 139.793 240.305 139.93 240.099 139.999C239.756 140.137 239.276 140.275 238.865 140.275H233.794V137.999C233.794 137.585 233.794 137.171 233.794 136.757C233.794 132.206 233.794 127.585 233.794 122.964C233.794 122.344 233.794 121.723 233.794 121.033H225.435V136.688C225.435 137.171 225.366 137.585 225.161 138.068C224.955 138.55 224.75 138.896 224.408 139.241C224.134 139.586 223.79 139.792 223.31 139.999C223.036 140.137 222.694 140.206 222.42 140.206H216.87V131.793V131.171V120.895H208.373V137.379C208.373 137.379 208.305 137.724 208.236 137.862C208.099 138.345 207.826 138.689 207.483 139.034C207.209 139.379 206.866 139.585 206.386 139.792C206.044 139.93 205.564 140.068 205.153 140.068C185.762 140.068 166.302 140.137 146.911 140.206C146.157 140.068 144.718 139.793 143.622 138.758C143.622 138.758 143.485 138.619 143.485 138.55C142.799 137.792 142.32 136.827 142.115 135.724C142.115 135.241 142.115 134.895 142.115 134.688V127.999C142.115 126.481 142.663 124.966 143.691 123.862C144.033 123.448 144.512 123.171 144.924 122.895C145.677 122.55 146.362 122.345 146.842 122.276C153.831 122.276 160.821 122.276 167.81 122.276C167.81 119.379 167.879 116.483 167.947 113.655H167.535H159.245H151.432H145.815H145.746C145.541 113.655 145.335 113.724 145.129 113.793C143.759 113.862 142.457 114.137 141.223 114.689C139.784 115.31 138.415 116.206 137.318 117.378C136.222 118.481 135.331 119.861 134.714 121.379C134.44 121.999 134.302 122.619 134.302 122.688C134.165 123.24 134.029 123.792 133.961 124.206C133.961 124.688 133.961 125.173 133.961 125.655C133.824 126.414 133.755 127.171 133.755 127.93V130.62C133.755 132.206 133.755 133.861 133.755 135.586C133.755 136.551 133.755 137.447 133.892 138.413C133.892 138.826 134.028 139.378 134.234 139.93C134.234 139.93 134.44 140.621 134.645 141.241C135.262 142.759 136.154 144.137 137.25 145.171C138.415 146.344 139.715 147.241 141.154 147.861C142.525 148.413 143.896 148.688 145.404 148.757C145.541 148.757 145.746 148.826 145.883 148.826H145.952H147.665H159.176H167.467H205.221C206.797 148.826 208.304 148.482 209.675 147.861C211.045 147.241 212.348 146.344 213.512 145.171C213.855 144.757 214.267 144.344 214.541 143.861V148.688H216.938C223.311 148.688 228.655 148.688 232.698 148.688C236.467 148.688 239.003 148.688 240.03 148.688C240.442 148.688 241.812 148.69 243.388 148.207C244.347 147.862 245.237 147.447 246.06 146.826C247.019 146.137 247.704 145.378 247.978 145.033C249.006 143.792 249.486 142.55 249.76 141.861C249.76 141.861 250.718 139.723 250.65 136.619C250.65 136.619 250.65 136.55 250.65 136.481C250.65 136.344 250.65 136.137 250.65 135.448H250.581Z" fill="#3F4350"/>
<path d="M170.687 79.9301H175.209C175.894 79.9301 176.579 79.6556 177.059 79.1729C177.538 78.6901 177.813 78.0005 177.813 77.3108V72.7577C177.813 72.068 177.538 71.3784 177.059 70.8956C176.579 70.4129 175.894 70.1377 175.209 70.1377H170.687C170.002 70.1377 169.317 70.4129 168.837 70.8956C168.357 71.3784 168.084 72.068 168.084 72.7577V77.3108C168.084 78.0005 168.357 78.6901 168.837 79.1729C169.317 79.6556 170.002 79.9301 170.687 79.9301Z" fill="#3F4350"/>
<path d="M155.956 79.3778C156.435 79.7916 156.983 79.9992 157.532 79.9992H162.053C162.738 79.9992 163.424 79.724 163.903 79.2412C164.383 78.7585 164.658 78.0688 164.658 77.3792V72.8261C164.658 72.1364 164.383 71.4467 163.903 70.964C163.424 70.4812 162.738 70.2061 162.053 70.2061H157.532C156.983 70.2061 156.367 70.4123 155.887 70.8261L155.75 70.964C155.27 71.4467 154.996 72.0674 154.996 72.8261V77.3792C154.996 78.0688 155.27 78.7585 155.75 79.2412L155.887 79.3778H155.956Z" fill="#3F4350"/>
<path d="M225.297 79.3778C225.777 79.7916 226.325 79.9992 226.873 79.9992H231.396C232.082 79.9992 232.767 79.724 233.247 79.2412C233.726 78.7585 234 78.0688 234 77.3792V72.8261C234 72.1364 233.726 71.4467 233.247 70.964C232.767 70.4812 232.082 70.2061 231.396 70.2061H226.873C226.325 70.2061 225.709 70.4123 225.229 70.8261L225.091 70.964C224.612 71.4467 224.339 72.0674 224.339 72.8261V77.3792C224.339 78.0688 224.612 78.7585 225.091 79.2412L225.229 79.3778H225.297Z" fill="#3F4350"/>
<path d="M270.659 79.9296H288.473C290.049 79.9296 291.626 79.5861 293.065 79.0344C294.504 78.4827 295.804 77.5847 296.969 76.4123C298.066 75.3089 298.958 73.9985 299.574 72.4813C300.191 71.102 300.464 69.5854 300.464 67.9989V67.8609V60.2067H346.784C348.429 60.2067 349.937 59.8609 351.376 59.3092C352.815 58.6885 354.115 57.8618 355.28 56.6893C356.445 55.5169 357.337 54.2061 357.885 52.7578C358.502 51.3096 358.844 49.7239 358.844 48.1377V34.8261C358.844 33.2399 358.502 31.7232 357.885 30.206C357.337 28.7577 356.445 27.4469 355.28 26.2745C354.184 25.171 352.815 24.2752 351.376 23.5856C349.937 22.9649 348.36 22.6881 346.784 22.6881H328.97C327.394 22.6881 325.748 23.0338 324.377 23.5856C322.939 24.2062 321.569 25.102 320.473 26.2745C319.308 27.4469 318.417 28.7577 317.869 30.206C317.252 31.7232 316.91 33.2399 316.91 34.8261V48.1377C316.91 49.1722 317.047 50.068 317.253 50.8956C317.253 51.1715 317.388 51.4466 317.525 51.7914H300.464V50.4124C300.464 50.0676 300.602 49.7233 300.602 49.3096C300.602 48.8958 300.602 48.4825 300.602 48.0687V34.7571C300.602 33.1709 300.26 31.5852 299.712 30.1369C299.095 28.6197 298.203 27.3089 297.107 26.2054C295.942 25.033 294.641 24.1372 293.202 23.5165C291.832 22.8958 290.255 22.6191 288.611 22.6191H270.796C269.22 22.6191 267.643 22.9648 266.204 23.5165C264.765 24.1372 263.464 25.033 262.299 26.2054C261.135 27.3778 260.312 28.6887 259.695 30.1369C259.078 31.6542 258.736 33.1709 258.736 34.7571V48.0687C258.736 49.6549 259.078 51.2405 259.695 52.6888C260.243 54.1371 261.135 55.5169 262.299 56.6203C263.464 57.7927 264.765 58.6884 266.204 59.2402C267.643 59.8609 269.22 60.1376 270.796 60.1376H291.968V66.8961V67.7918C291.968 68.2746 291.899 68.7571 291.693 69.1709C291.556 69.5847 291.283 69.9999 290.94 70.3447C290.666 70.6896 290.256 70.8951 289.845 71.102C289.365 71.3089 288.953 71.3785 288.542 71.3785H258.942V79.8606H269.357C269.837 79.8606 270.248 79.9296 270.659 79.9296ZM326.571 32.2753C326.571 32.2753 327.255 31.7228 327.735 31.5159C328.146 31.378 328.559 31.2398 329.038 31.2398H346.853C347.332 31.2398 347.813 31.3089 348.155 31.4469C348.635 31.6538 349.046 31.9304 349.32 32.2062C349.663 32.5511 349.936 32.9642 350.073 33.3091C350.278 33.7918 350.347 34.2743 350.347 34.6881V47.9996C350.347 48.4134 350.278 48.8958 350.073 49.3786C349.867 49.7924 349.663 50.2056 349.32 50.5505C349.046 50.8953 348.634 51.1029 348.223 51.3098C347.811 51.4478 347.401 51.586 346.921 51.586H329.107C328.147 51.586 327.256 51.2401 326.639 50.5505C326.297 50.2746 326.092 49.8614 325.886 49.4476C325.681 49.0338 325.612 48.5515 325.612 48.1377V34.8261C325.612 33.9296 325.954 33.034 326.639 32.3443L326.571 32.2753ZM291.693 49.8618C291.693 49.8618 291.421 50.2746 291.146 50.5505C290.872 50.8953 290.46 51.1029 290.049 51.3098C289.638 51.4478 289.227 51.586 288.748 51.586H270.933C270.453 51.586 270.041 51.5167 269.63 51.3098C269.219 51.1029 268.808 50.8953 268.466 50.5505C268.123 50.2746 267.917 49.8614 267.711 49.4476C267.506 49.0338 267.438 48.5515 267.438 48.1377V34.8261C267.438 34.4123 267.506 33.9299 267.711 33.4471C267.848 33.0333 268.123 32.6891 268.466 32.3443C269.082 31.7236 269.974 31.3088 270.864 31.3088H288.679C289.159 31.3088 289.638 31.378 289.98 31.5849C290.46 31.7918 290.872 32.0685 291.146 32.3443C291.832 33.034 292.174 33.8606 292.174 34.8261C292.174 37.4468 292.174 39.792 292.174 42.0678C292.174 44.3437 292.105 46.8268 292.105 49.3096C292.037 49.5165 291.899 49.724 291.762 49.9309L291.693 49.8618Z" fill="#3F4350"/>
<path d="M250.581 23.2408V22.6885H242.084V48.069C242.084 48.4828 242.017 48.9652 241.812 49.448C241.606 49.8618 241.4 50.275 241.057 50.6199C240.783 50.9647 240.373 51.1723 239.962 51.3792C239.55 51.5172 239.138 51.6554 238.658 51.6554H217.212V34.483C217.144 33.0348 216.869 31.6548 216.321 30.3444C215.773 28.8961 214.882 27.5163 213.718 26.3439C212.553 25.1714 211.251 24.2756 209.812 23.655C208.373 23.0343 206.866 22.7575 205.221 22.7575H203.028H198.575C198.164 22.7575 197.753 22.7576 197.273 22.8265H196.313V22.9646C195.491 23.1025 194.67 23.3792 193.916 23.724C192.477 24.3447 191.107 25.2405 190.01 26.4129C188.845 27.5853 188.022 28.9652 187.405 30.4134C186.788 31.9307 186.447 33.5164 186.447 35.1026V39.5864V47.8619C186.447 48.3447 186.378 48.8271 186.172 49.2409C186.035 49.6547 185.762 50.0679 185.351 50.4128C185.077 50.6886 184.665 50.9653 184.185 51.2412C183.774 51.4481 183.295 51.5173 182.815 51.5173H182.678C178.909 51.5173 168.219 51.5173 158.147 51.5173H157.669C152.667 51.5173 148.417 51.5173 146.156 51.5173C145.402 51.3104 144.444 50.9643 143.621 50.2057C143.621 50.2057 143.484 50.0692 143.484 50.0003C142.936 49.3796 142.457 48.5514 142.252 47.7239V38.1368C142.457 37.1023 142.937 36.1374 143.691 35.3788C144.033 34.965 144.512 34.6899 144.923 34.414C145.677 34.0692 146.362 33.8616 146.842 33.7927C153.831 33.7927 160.821 33.7927 167.81 33.7927C167.81 30.8961 167.878 27.9996 167.947 25.172H167.535H159.245H151.432H145.815H145.746C145.541 25.172 145.334 25.2411 145.129 25.3101C143.758 25.379 142.456 25.6541 141.223 26.2058C139.784 26.8265 138.414 27.724 137.318 28.8964C136.222 29.9999 135.33 31.3781 134.714 32.8953C134.44 33.516 134.302 34.1379 134.302 34.2069C134.165 34.7586 134.029 35.3101 133.961 35.7239C133.961 36.2067 133.961 36.6892 133.961 37.1719C133.824 37.9305 133.755 38.6897 133.755 39.4483V42.1372C133.755 43.7234 133.755 45.3784 133.755 47.1025C133.755 47.4474 133.755 47.7932 133.755 48.1381C133.755 48.1381 133.755 48.2072 133.687 48.2761C133.687 49.8623 134.028 51.448 134.645 52.8963C135.193 54.3445 136.085 55.7243 137.25 56.8278C138.414 58.0002 139.715 58.8959 141.154 59.4477C142.593 60.0683 144.17 60.3451 145.746 60.3451C145.746 60.3451 145.815 60.3451 145.883 60.3451C146.979 60.3451 147.939 60.3451 148.83 60.3451H159.176H167.466C169.796 60.3451 172.057 60.3451 174.387 60.3451C176.031 60.3451 178.087 60.3451 180.896 60.3451H181.377C181.993 60.3451 182.541 60.3451 182.952 60.3451C184.528 60.3451 186.104 59.9993 187.68 59.3786C189.187 58.7579 190.558 57.8621 191.723 56.6897C192.888 55.5173 193.847 54.1374 194.395 52.6892C195.012 51.2409 195.286 49.6552 195.286 48.069V34.9645C195.286 34.9645 195.286 34.5519 195.286 34.345C195.423 33.6553 195.765 33.1036 196.245 32.6208C196.519 32.345 196.931 32.0683 197.41 31.8614C197.822 31.7235 198.233 31.5853 198.712 31.5853H205.29C205.769 31.5853 206.249 31.6545 206.591 31.8614C207.071 32.0683 207.482 32.345 207.756 32.6899C208.441 33.3795 208.785 34.2752 208.785 35.2407C208.785 36.7579 208.785 38.0689 208.785 39.3103C208.785 40.4137 208.785 41.517 208.785 42.6205C208.785 44.8274 208.785 46.9651 208.785 49.3099C208.785 49.4479 208.785 49.5862 208.785 49.7241V60.4815H238.795C240.371 60.4815 241.949 60.2064 243.388 59.5857C244.827 59.034 246.127 58.1366 247.292 56.9642C248.457 55.7918 249.349 54.4826 249.897 53.0343C250.514 51.5861 250.856 49.9988 250.856 48.4125C250.856 43.8608 250.856 39.3782 250.856 34.8265C250.856 31.4472 250.856 27.0342 250.856 23.5859L250.581 23.2408Z" fill="#3F4350"/>
<path d="M146.637 186.965L140.744 173.172H135.605V193.585H140.402V182.759L144.855 193.585H148.418L152.873 182.759V193.585H157.669V173.172H152.53L146.637 186.965Z" fill="#217FBE"/>
<path d="M185.898 174.205C184.322 173.309 182.541 172.826 180.691 172.826C178.841 172.826 177.059 173.309 175.483 174.205C173.907 175.102 172.606 176.343 171.715 177.93C170.756 179.516 170.344 181.309 170.344 183.309C170.344 185.309 170.825 187.103 171.715 188.689C172.675 190.275 173.907 191.517 175.483 192.413C177.059 193.31 178.841 193.792 180.691 193.792C182.541 193.792 184.322 193.31 185.898 192.413C187.474 191.517 188.776 190.275 189.667 188.689C190.558 187.103 191.037 185.309 191.037 183.309C191.037 181.309 190.558 179.516 189.667 177.93C188.776 176.343 187.474 175.102 185.898 174.205ZM186.104 183.309C186.104 184.55 185.899 185.654 185.419 186.55C184.94 187.447 184.323 188.137 183.501 188.62C182.679 189.103 181.719 189.379 180.622 189.379C179.526 189.379 178.567 189.103 177.744 188.62C176.922 188.137 176.306 187.447 175.826 186.55C175.346 185.654 175.141 184.55 175.141 183.309C175.141 182.068 175.346 181.034 175.826 180.068C176.306 179.172 176.922 178.481 177.744 177.999C178.567 177.516 179.526 177.31 180.622 177.31C181.719 177.31 182.679 177.585 183.501 177.999C184.323 178.481 184.94 179.172 185.419 180.068C185.899 180.965 186.104 182.068 186.104 183.309Z" fill="#217FBE"/>
<path d="M216.389 183.033C216.937 182.688 217.487 182.275 217.898 181.792C218.583 180.964 218.925 179.861 218.925 178.689C218.925 177.654 218.65 176.689 218.102 175.862C217.554 175.034 216.802 174.344 215.705 173.931C214.678 173.448 213.512 173.24 212.142 173.24H203.714V193.653H212.553C213.924 193.653 215.157 193.448 216.185 192.965C217.213 192.482 218.034 191.792 218.583 190.964C219.131 190.068 219.406 189.103 219.406 187.931C219.406 186.689 218.993 185.515 218.239 184.55C217.76 183.929 217.143 183.446 216.458 183.102L216.389 183.033ZM213.375 180.689C212.964 181.034 212.347 181.24 211.525 181.24H208.442V177.241H211.525C212.347 177.241 212.964 177.446 213.375 177.791C213.786 178.136 213.992 178.62 213.992 179.241C213.992 179.862 213.786 180.344 213.375 180.689ZM208.442 185.171H211.799C212.621 185.171 213.307 185.378 213.786 185.792C214.266 186.206 214.472 186.689 214.472 187.447C214.472 188.206 214.266 188.62 213.855 188.964C213.444 189.309 212.758 189.517 211.936 189.517H208.442V185.171Z" fill="#217FBE"/>
<path d="M236.877 173.172H232.081V193.585H236.877V173.172Z" fill="#217FBE"/>
<path d="M257.023 178.068C257.845 177.585 258.735 177.311 259.832 177.311C260.791 177.311 261.683 177.516 262.368 177.93C263.121 178.344 263.67 178.964 264.081 179.861L264.218 180.138H269.629L269.424 179.516C268.739 177.447 267.507 175.792 265.862 174.62C264.149 173.447 262.161 172.896 259.9 172.896C257.982 172.896 256.2 173.309 254.624 174.206C253.048 175.102 251.815 176.344 250.924 177.93C250.033 179.516 249.554 181.309 249.554 183.309C249.554 185.309 250.033 187.103 250.924 188.689C251.815 190.276 253.048 191.517 254.624 192.413C256.2 193.31 257.913 193.723 259.9 193.723C262.161 193.723 264.149 193.171 265.862 191.999C267.575 190.827 268.739 189.172 269.424 187.103L269.629 186.482H264.218L264.081 186.758C263.67 187.585 263.121 188.276 262.368 188.689C261.614 189.103 260.791 189.311 259.832 189.311C258.804 189.311 257.845 189.033 257.023 188.551C256.201 188.068 255.584 187.378 255.173 186.482C254.693 185.585 254.487 184.482 254.487 183.309C254.487 182.137 254.693 181.034 255.173 180.138C255.653 179.241 256.269 178.551 257.092 178.068H257.023Z" fill="#217FBE"/>
<path d="M288.336 173.103L281.005 193.585H286.076L287.377 189.86H294.435L295.737 193.585H300.807L293.475 173.103H288.267H288.336ZM293.065 185.792H288.747L290.94 179.516L293.133 185.792H293.065Z" fill="#217FBE"/>
<path d="M324.241 182.482C323.418 182.069 322.391 181.722 321.089 181.309C320.199 181.033 319.514 180.826 318.966 180.551C318.486 180.344 318.143 180.136 317.869 179.791C317.595 179.515 317.457 179.24 317.457 178.826C317.457 178.206 317.595 177.793 318.006 177.448C318.349 177.103 318.897 176.964 319.513 176.964C320.267 176.964 320.884 177.172 321.295 177.517C321.706 177.862 321.912 178.275 321.981 178.826V179.241H327.188V178.758C326.983 176.895 326.228 175.378 324.926 174.343C323.625 173.309 321.843 172.757 319.787 172.757C318.417 172.757 317.115 173.033 316.019 173.516C314.922 173.999 314.032 174.758 313.416 175.655C312.799 176.551 312.455 177.655 312.455 178.965C312.455 180.275 312.799 181.378 313.416 182.206C314.032 182.964 314.786 183.585 315.608 183.999C316.431 184.344 317.458 184.757 318.76 185.102C319.651 185.378 320.403 185.585 320.883 185.792C321.363 185.999 321.775 186.274 322.049 186.55C322.323 186.826 322.46 187.172 322.46 187.655C322.46 188.206 322.255 188.689 321.844 189.033C321.433 189.378 320.815 189.586 319.993 189.586C319.171 189.586 318.623 189.378 318.211 189.033C317.8 188.62 317.526 188.137 317.526 187.447V187.033H312.455V187.516C312.455 188.826 312.868 189.93 313.553 190.895C314.238 191.861 315.128 192.551 316.293 193.034C317.458 193.517 318.692 193.792 320.131 193.792C321.638 193.792 322.94 193.517 324.036 192.965C325.133 192.413 326.023 191.654 326.571 190.62C327.119 189.654 327.462 188.62 327.462 187.447C327.462 186.137 327.119 185.034 326.502 184.206C325.886 183.379 325.131 182.827 324.309 182.413L324.241 182.482Z" fill="#217FBE"/>
<path d="M352.678 173.172V181.171H345.277V173.172H340.48V193.585H345.277V185.31H352.678V193.585H357.474V173.172H352.678Z" fill="#217FBE"/>
<path fill-rule="evenodd" clip-rule="evenodd" d="M36.5923 103.448L58.5888 90.7577L36.5923 78.0674V103.448Z" fill="#4EAF5D"/>
<path fill-rule="evenodd" clip-rule="evenodd" d="M48.8574 78.896L55.6409 82.8263L62.4243 86.6884V78.896V71.0332L55.6409 75.0339L48.8574 78.896Z" fill="#219387"/>
<path d="M41.0469 111.793V147.171L56.2582 138.343L71.5379 129.447L56.3268 120.621L41.0469 111.793Z" fill="#4EAF5D"/>
<path d="M30.9057 70.7572V67.93L43.7181 75.3786L51.9402 70.6897L62.2869 64.6198V25.793H62.424V25.5859L70.7832 30.4132L102.303 12.1363V9.10221C102.303 4.06775 98.2605 0 93.2585 0H9.0464C4.04442 0 0.00292969 4.06775 0.00292969 9.10221V184.483C0.00292969 189.517 4.04442 193.585 9.0464 193.585H93.2585C98.2605 193.585 102.303 189.517 102.303 184.483V182.275L72.0864 164.758L45.5683 149.31C42.2108 150.896 38.8534 152.481 35.4274 153.999C35.3589 148.757 35.2901 143.516 35.1531 138.274L21.1746 130.137L6.30627 121.586L30.8371 107.309V70.7572H30.9057ZM34.6747 9.65448H67.7688C69.0708 9.65448 70.1679 10.7586 70.1679 12.069C70.1679 13.3793 69.0708 14.4817 67.7688 14.4817H34.6747C33.3728 14.4817 32.2758 13.3793 32.2758 12.069C32.2758 10.7586 33.3728 9.65448 34.6747 9.65448Z" fill="#2551A1"/>
<path fill-rule="evenodd" clip-rule="evenodd" d="M77.5 86.2744L42.9658 106.344L77.5 126.412V86.2744Z" fill="#E86724"/>
<path fill-rule="evenodd" clip-rule="evenodd" d="M68.1123 35.3096V78.5512L105.319 56.8967L68.1123 35.3096Z" fill="#009448"/>
<path d="M17.8862 121.655L35.2907 131.723V111.517L17.8862 121.655Z" fill="#6DAC44"/>
<path d="M52.5581 146.826L100.591 174.688V118.896L52.5581 146.826Z" fill="#219387"/>
<path d="M118.544 101.999L83.1182 122.551V81.4473L118.544 101.999Z" fill="#217FBE"/>
<path d="M76.6084 33.7929L100.934 47.9312V19.7236L76.6084 33.7929Z" fill="#219387"/>
<path fill-rule="evenodd" clip-rule="evenodd" d="M101.824 86.9647L83.8037 76.5509L101.824 66.1367V86.9647Z" fill="#53AB47"/>
</svg>
