<svg width="228" height="200" viewBox="0 0 228 200" fill="none" xmlns="http://www.w3.org/2000/svg">
<g clip-path="url(#clip0_71_863)">
<path d="M135.971 53.3333L130.524 117.931L161.564 100.92L164.09 70.8374C165.107 58.8834 172.457 47.8161 183.383 41.8391L196.77 34.5156L199.691 0L155.264 24.335C144.338 30.312 136.988 41.3793 135.971 53.3333Z" fill="url(#paint0_linear_71_863)"/>
<path d="M164.09 70.8707L161.563 100.953L192.603 83.9413L196.77 34.5488L183.383 41.8723C172.457 47.8493 165.107 58.9166 164.09 70.8707Z" fill="url(#paint1_linear_71_863)"/>
<path d="M227.778 17.5367L215.244 165.977C214.948 169.458 212.947 172.578 209.862 174.253L164.517 199.08C159.464 201.839 153.361 197.865 153.853 192.118L161.564 100.919L182.957 89.228C188.994 85.9111 192.965 79.8028 193.555 72.939L196.803 34.5154L227.81 17.5039L227.778 17.5367Z" fill="url(#paint2_linear_71_863)"/>
<path d="M56.3698 85.6484C56.1074 88.7683 53.2199 91.5597 50.1357 91.7568C47.0514 91.9538 44.6561 89.4579 44.9186 86.4037C45.1811 83.3496 47.9701 80.4924 51.0872 80.2954C54.2043 80.0983 56.6323 82.5285 56.3698 85.6484Z" fill="url(#paint3_linear_71_863)"/>
<path d="M64.0478 92.4791L62.5713 110.443C61.6197 121.839 52.4653 130.936 41.1453 131.691H40.6203C29.3003 132.479 21.5896 124.499 22.5412 113.103H22.4755C22.9021 107.914 25.0677 103.218 28.316 99.5399L35.4689 105.254C33.6971 107.126 32.5815 109.589 32.3518 112.413C31.8596 118.423 35.5345 122.167 41.4078 121.773H41.9328C47.8061 121.346 52.1372 117.044 52.6622 111.067L53.6793 98.8502L64.0478 92.4463V92.4791Z" fill="url(#paint4_linear_71_863)"/>
<path d="M73.5632 71.1002C70.7742 72.5781 68.9368 75.4024 68.6743 78.5223L67.854 88.4073L72.3164 86.0428L69.3961 121.609C69.2649 123.054 70.7742 123.81 72.0539 122.956L78.6162 118.588C79.174 118.227 79.5021 117.636 79.5677 116.979L83.8004 65.583L73.5632 71.0346V71.1002Z" fill="url(#paint5_linear_71_863)"/>
<path d="M104.767 76.1581C113.43 75.5669 119.336 81.7738 118.647 90.5094L116.908 111.79C116.153 121.051 105.85 127.521 88.624 128.67L89.5755 118.687C100.994 117.931 106.933 114.122 107.294 109.951V109.426L100.863 109.853C92.7254 110.312 86.7537 103.876 87.4428 95.4684L87.6725 92.5456C88.3943 83.8099 95.416 76.7492 104.144 76.1581H104.8V76.1252L104.767 76.1581ZM108.803 91.1663C109.066 87.8493 107.13 85.8461 103.947 86.0431H103.291C100.042 86.3058 97.7456 88.6047 97.4831 91.9216L97.2534 94.8444C96.9909 97.8329 99.1237 100.165 101.781 100L108.114 99.5735L108.803 91.1663Z" fill="url(#paint6_linear_71_863)"/>
<path d="M47.3469 136.027C38.7831 139.409 32.0239 144.138 31.3021 152.611L30.2849 164.959C29.8255 170.509 25.0022 175.271 19.4899 175.633H19.0305C13.0916 176.059 9.41675 172.283 9.90892 166.306C10.1386 163.416 11.2542 160.953 13.026 159.114L5.8731 153.399C2.59195 157.078 0.459198 161.741 0.032648 166.963H0.0982711C-0.820452 178.358 6.92307 186.306 18.2431 185.55H18.7024C29.6615 184.795 39.3081 175.238 40.194 164.204L41.0143 154.385C41.244 151.462 43.4095 148.637 46.3954 147.488L50.3328 145.945L49.4468 156.618C49.25 159.147 51.5796 160.756 54.0405 159.705L56.6982 158.588C58.1747 157.964 59.2247 156.552 59.3559 155.009L61.3902 130.477L47.3797 135.994L47.3469 136.027Z" fill="url(#paint7_linear_71_863)"/>
<path d="M58.7651 168.046C58.5026 171.166 55.5824 173.957 52.5309 174.154C49.4794 174.351 47.0514 171.855 47.3139 168.801C47.5764 165.747 50.431 162.89 53.4825 162.693C56.5339 162.496 59.0276 164.926 58.7651 168.046Z" fill="url(#paint8_linear_71_863)"/>
<path d="M57.6499 181.313C57.3874 184.433 54.5328 187.225 51.4157 187.422C48.2986 187.619 45.9361 185.123 46.1986 182.069C46.4611 179.015 49.2501 176.157 52.3672 175.96C55.4843 175.763 57.9124 178.194 57.6499 181.313Z" fill="url(#paint9_linear_71_863)"/>
<path d="M99.189 142.759L109.426 138.128L107.753 158.522C107.326 163.613 103.126 167.685 98.1718 168.046L74.285 169.655C69.2976 169.984 65.6884 166.404 66.0821 161.347L68.7398 129.228C68.8055 128.604 69.1664 127.98 69.7242 127.619L76.3193 123.251C77.599 122.43 79.0755 123.186 78.977 124.598L76.3193 157.012C76.1552 159.048 77.5333 159.573 78.4849 159.507L95.6453 158.358C96.564 158.292 98.0406 157.537 98.2046 155.534L99.2546 142.759H99.189Z" fill="url(#paint10_linear_71_863)"/>
<path d="M91.0193 172.184C94.1364 171.987 96.4988 174.352 96.2363 177.537C95.9738 180.723 93.1848 183.449 90.0677 183.646C86.9506 183.843 84.5226 181.347 84.7851 178.293C85.0476 175.239 87.9022 172.381 91.0193 172.184Z" fill="url(#paint11_linear_71_863)"/>
</g>
<defs>
<linearGradient id="paint0_linear_71_863" x1="353.741" y1="-151.002" x2="82.2928" y2="143.306" gradientUnits="userSpaceOnUse">
<stop stop-color="#026795"/>
<stop offset="1" stop-color="#49C4EA"/>
</linearGradient>
<linearGradient id="paint1_linear_71_863" x1="198.312" y1="94.1876" x2="171.835" y2="57.6911" gradientUnits="userSpaceOnUse">
<stop stop-color="#026795"/>
<stop offset="1" stop-color="#184A8C"/>
</linearGradient>
<linearGradient id="paint2_linear_71_863" x1="290.973" y1="214.253" x2="69.1524" y2="-23.8101" gradientUnits="userSpaceOnUse">
<stop stop-color="#1B87B2"/>
<stop offset="1" stop-color="#026795"/>
</linearGradient>
<linearGradient id="paint3_linear_71_863" x1="364.995" y1="-115.567" x2="-33.7727" y2="139.711" gradientUnits="userSpaceOnUse">
<stop stop-color="#026795"/>
<stop offset="1" stop-color="#49C4EA"/>
</linearGradient>
<linearGradient id="paint4_linear_71_863" x1="374.543" y1="-100.657" x2="-24.2245" y2="154.62" gradientUnits="userSpaceOnUse">
<stop stop-color="#026795"/>
<stop offset="1" stop-color="#49C4EA"/>
</linearGradient>
<linearGradient id="paint5_linear_71_863" x1="376.447" y1="-97.701" x2="-22.3213" y2="157.576" gradientUnits="userSpaceOnUse">
<stop stop-color="#026795"/>
<stop offset="1" stop-color="#49C4EA"/>
</linearGradient>
<linearGradient id="paint6_linear_71_863" x1="386.914" y1="-81.3461" x2="-11.8542" y2="173.931" gradientUnits="userSpaceOnUse">
<stop stop-color="#026795"/>
<stop offset="1" stop-color="#49C4EA"/>
</linearGradient>
<linearGradient id="paint7_linear_71_863" x1="58.7325" y1="141.577" x2="249.497" y2="20.9418" gradientUnits="userSpaceOnUse">
<stop stop-color="#026795"/>
<stop offset="1" stop-color="#184A8C"/>
</linearGradient>
<linearGradient id="paint8_linear_71_863" x1="69.232" y1="158.161" x2="259.997" y2="37.493" gradientUnits="userSpaceOnUse">
<stop stop-color="#026795"/>
<stop offset="1" stop-color="#184A8C"/>
</linearGradient>
<linearGradient id="paint9_linear_71_863" x1="74.9087" y1="167.126" x2="265.673" y2="46.4913" gradientUnits="userSpaceOnUse">
<stop stop-color="#026795"/>
<stop offset="1" stop-color="#184A8C"/>
</linearGradient>
<linearGradient id="paint10_linear_71_863" x1="69.0351" y1="157.865" x2="259.8" y2="37.2304" gradientUnits="userSpaceOnUse">
<stop stop-color="#026795"/>
<stop offset="1" stop-color="#184A8C"/>
</linearGradient>
<linearGradient id="paint11_linear_71_863" x1="84.2601" y1="181.905" x2="275.025" y2="61.2702" gradientUnits="userSpaceOnUse">
<stop stop-color="#026795"/>
<stop offset="1" stop-color="#184A8C"/>
</linearGradient>
<clipPath id="clip0_71_863">
<rect width="227.778" height="200" fill="white"/>
</clipPath>
</defs>
</svg>
