<svg width="51" height="50" viewBox="0 0 51 50" fill="none" xmlns="http://www.w3.org/2000/svg">
<path d="M50.2721 14.148L39.4307 24.9979C39.4307 16.9679 43.7917 9.9545 50.2721 6.2002V14.148Z" fill="#6E58A5"/>
<path d="M50.2721 43.7994C43.7917 40.0489 39.4307 33.0337 39.4307 24.998L50.2721 35.8498V43.7994Z" fill="#6E58A5"/>
<path d="M0.315918 35.8518L11.1573 25.002C11.1573 33.032 6.7963 40.0453 0.315918 43.7996V35.8518Z" fill="#6E58A5"/>
<path d="M0.315918 6.2002C6.7963 9.95076 11.1573 16.966 11.1573 25.0016L0.315918 14.1499V6.2002Z" fill="#6E58A5"/>
<path d="M36.137 50.0002L25.2969 39.1484C33.3196 39.1484 40.327 43.5138 44.0774 50.0002H36.137Z" fill="#6E58A5"/>
<path d="M6.51172 50.0002C10.2596 43.5138 17.2682 39.1484 25.2972 39.1484L14.4545 50.0002H6.51172Z" fill="#6E58A5"/>
<path d="M14.4505 0L25.2907 10.8518C17.268 10.8518 10.2606 6.4864 6.51025 0H14.4505Z" fill="#6E58A5"/>
<path d="M44.0753 0C40.3286 6.4864 33.32 10.8518 25.291 10.8518L36.1324 0H44.0753Z" fill="#6E58A5"/>
<path d="M33.541 25.0015C33.541 22.4562 33.8844 19.9951 34.5289 17.6536C34.7924 16.68 35.1121 15.7325 35.4792 14.8037C34.5551 15.1718 33.6047 15.4913 32.6356 15.7586C30.2964 16.4015 27.8374 16.7453 25.2947 16.7453C22.752 16.7453 20.293 16.4015 17.9539 15.7567C16.981 15.4932 16.0344 15.1737 15.1064 14.8056C15.4736 15.7325 15.7933 16.6818 16.0606 17.6555C16.7025 19.9932 17.0459 22.4581 17.0459 25.0015C17.0459 27.5447 16.7025 30.0096 16.0581 32.3493C15.7946 33.323 15.4761 34.2703 15.1077 35.1991C16.0343 34.831 16.9822 34.5115 17.9551 34.2442C20.2905 33.6013 22.7533 33.2575 25.2947 33.2575C27.8362 33.2575 30.2989 33.6013 32.6356 34.2461C33.6084 34.5096 34.5551 34.8291 35.483 35.1972C35.1158 34.2722 34.7961 33.3211 34.5289 32.3512C33.8869 30.0096 33.5435 27.5485 33.5435 25.0033L33.541 25.0015ZM25.2922 30.8955C23.0155 30.8955 20.7975 31.1477 18.6682 31.6317C19.1515 29.4976 19.4038 27.2776 19.4038 24.9977C19.4038 22.7178 19.1515 20.4977 18.6682 18.3673C20.8013 18.8513 23.0193 19.1037 25.296 19.1037C27.5739 19.1037 29.7919 18.8513 31.9212 18.3673C31.4404 20.5015 31.1856 22.7216 31.1856 25.0015C31.1856 27.2813 31.4367 29.5013 31.9212 31.6317C29.7882 31.1515 27.5701 30.8955 25.2922 30.8955Z" fill="#6E58A5"/>
</svg>
