<svg width="437" height="322" viewBox="434 0 437 322" fill="none" xmlns="http://www.w3.org/2000/svg">
<path fill-rule="evenodd" clip-rule="evenodd" d="M716.735 5.62797C739.18 15.6635 749.351 42.2441 739.35 64.6885L624.889 321.069H526.939L657.674 28.2418C667.71 5.79749 694.291 -4.37366 716.735 5.62797Z" fill="#5C5C5E"/>
<path fill-rule="evenodd" clip-rule="evenodd" d="M656.352 0L634.653 0.0678077C595.867 0.169519 553.656 13.3242 536.704 51.6356C512.869 105.441 488.39 159.314 464.386 213.12C434.279 280.588 491.95 315.747 514.87 319.442C562.369 213.052 609.191 106.492 656.352 0Z" fill="#5C5C5E"/>
<path fill-rule="evenodd" clip-rule="evenodd" d="M677.305 228.987C660.658 265.433 642.282 310.763 637.637 321.171H659.335C707.852 321.171 731.687 307.339 749.385 282.08C758.302 272.485 778.373 227.258 794.003 190.54C810.65 154.093 829.026 108.73 833.671 98.3213H811.972C763.455 98.3213 739.621 112.154 721.923 137.412C713.006 147.007 692.935 192.235 677.305 228.953Z" fill="#F9AE41"/>
<path fill-rule="evenodd" clip-rule="evenodd" d="M764.507 246.752C783.188 240.31 795.834 229.359 806.345 214.34C820.652 198.982 863.541 92.0828 871 75.3682H849.301C817.974 75.3682 796.953 81.1318 781.222 92.015C794.037 87.6075 809.701 85.302 829.433 85.302H851.132C843.673 102.017 800.784 208.915 786.477 224.274C780.204 233.225 773.152 240.751 764.507 246.752Z" fill="#F9AE41"/>
</svg>
