<svg width="50" height="50" viewBox="0 0 50 50" fill="none" xmlns="http://www.w3.org/2000/svg">
<g clip-path="url(#clip0_112_56)">
<path d="M48.4566 25C48.4566 12.0936 38.0347 1.62132 25.1475 1.53972L24.9958 1.53923C12.0388 1.53923 1.53508 12.043 1.53508 25L1.53557 25.1517C1.61685 37.9884 12.0074 48.379 24.8441 48.4603L24.9958 48.4608C37.9023 48.4608 48.3745 38.0389 48.4561 25.1517L48.4566 25ZM49.9958 25C49.9958 38.8071 38.803 50 24.9958 50C11.1887 50 -0.00414633 38.8071 -0.00415039 25C-0.00415039 11.1929 11.1887 0 24.9958 0C38.803 4.06409e-06 49.9958 11.1929 49.9958 25Z" fill="#F9AE41"/>
<path fill-rule="evenodd" clip-rule="evenodd" d="M29.8758 11.0476C31.9014 11.9515 32.8193 14.3456 31.9167 16.3672L21.5871 39.4593H12.7476L24.5458 13.0844C25.4515 11.0629 27.8503 10.1468 29.8758 11.0476Z" fill="#5C5C5E"/>
<path fill-rule="evenodd" clip-rule="evenodd" d="M24.4036 10.5408L22.4492 10.5469C18.9557 10.556 15.1538 11.7409 13.6269 15.1916C11.4801 20.0378 9.27533 24.8901 7.11328 29.7364C4.40156 35.8132 9.59597 38.9799 11.6603 39.3128C15.9386 29.7303 20.1558 20.1325 24.4036 10.5408Z" fill="#5C5C5E"/>
<path fill-rule="evenodd" clip-rule="evenodd" d="M26.0785 31.1564C24.5791 34.4392 22.924 38.522 22.5056 39.4595H24.46C28.8299 39.4595 30.9767 38.2135 32.5707 35.9385C33.3739 35.0743 35.1817 31.0007 36.5895 27.6935C38.0889 24.4108 39.744 20.3249 40.1623 19.3875H38.2079C33.838 19.3875 31.6913 20.6334 30.0972 22.9084C29.2941 23.7726 27.4863 27.8462 26.0785 31.1534" fill="#F9AE41"/>
<path fill-rule="evenodd" clip-rule="evenodd" d="M34.145 32.7656C35.8276 32.1854 36.9667 31.199 37.9133 29.8462C39.202 28.4629 43.065 18.8346 43.7368 17.3291H41.7824C38.9608 17.3291 37.0674 17.8482 35.6505 18.8285C36.8048 18.4315 38.2157 18.2238 39.9929 18.2238H41.9473C41.2755 19.7293 37.4125 29.3576 36.1238 30.741C35.5589 31.5472 34.9237 32.2251 34.145 32.7656Z" fill="#F9AE41"/>
</g>
<defs>
<clipPath id="clip0_112_56">
<rect width="50" height="50" fill="white"/>
</clipPath>
</defs>
</svg>
