<svg width="50" height="51" viewBox="0 0 50 51" fill="none" xmlns="http://www.w3.org/2000/svg">
<mask id="mask0_647_5666" style="mask-type:luminance" maskUnits="userSpaceOnUse" x="-199" y="0" width="249" height="51">
<path d="M49.8868 0.328613H-198.867V50.1625H49.8868V0.328613Z" fill="white"/>
</mask>
<g mask="url(#mask0_647_5666)">
<path d="M27.1615 26.7236H23.2881V27.5316H27.1615V26.7236Z" fill="#231F20"/>
<path d="M27.1615 26.7236H23.2881V27.5316H27.1615V26.7236Z" fill="#231F20"/>
<path d="M25.2292 0.645565C27.8421 0.645565 30.3621 1.0537 32.7315 1.81166L32.8496 1.795H38.4445C38.4863 7.48388 43.1238 12.115 48.82 12.1316V17.7539L48.8033 17.8204C49.5757 20.211 49.9959 22.7597 49.9959 25.4084C49.9959 28.0571 49.5757 30.6392 48.795 33.0213L48.82 33.0963V38.6853C43.1071 38.7019 38.4612 43.3496 38.4445 49.0552H32.8496L32.7148 49.0051C30.3454 49.7548 27.8338 50.1629 25.2292 50.1629C22.6246 50.1629 20.1297 49.7548 17.7686 49.0135L17.6599 49.0552H12.2825C12.2657 43.3413 7.60318 38.6853 1.88184 38.6853C1.81495 38.6853 1.7564 38.6853 1.68846 38.6853V33.113C0.882627 30.6892 0.454102 28.0905 0.454102 25.4001C0.454102 22.7098 0.890989 20.1193 1.68846 17.6872V12.115C1.747 12.115 1.81495 12.115 1.88184 12.115C7.59482 12.115 12.249 7.47554 12.2825 1.77835H17.7686C20.1214 1.03704 22.6329 0.628906 25.2292 0.628906" fill="#007F3E"/>
<path d="M25.2288 6.89209C35.4278 6.89209 43.7453 15.2047 43.7453 25.3997C43.7453 35.5946 35.4278 43.9072 25.2288 43.9072C15.0289 43.9072 6.7207 35.5946 6.7207 25.3997C6.7207 15.2047 15.0372 6.89209 25.2288 6.89209Z" fill="white"/>
<path d="M25.3286 8.42432C34.6799 8.42432 42.3077 16.0456 42.3077 25.3993C42.3077 34.753 34.6799 42.3743 25.3286 42.3743C15.9784 42.3743 8.34961 34.753 8.34961 25.3993C8.34961 16.0456 15.9784 8.42432 25.3286 8.42432Z" fill="#FFC80F" stroke="#231F20" stroke-width="0.150698" stroke-miterlimit="2.61"/>
<path d="M18.9025 38.0348C20.742 37.3102 22.9181 36.9104 25.2196 36.8938V34.5532H17.5322C17.5918 35.8442 18.0872 37.0354 18.9025 38.0348Z" fill="white"/>
<path d="M17.3228 34.3037C17.3228 32.8794 17.8851 31.5551 18.8268 30.4806C18.3555 30.2974 17.9102 30.0974 17.4911 29.8726H17.4733C15.6338 31.0304 14.4914 32.5963 14.4663 34.3287H17.3144C17.3144 34.3287 17.3144 34.3204 17.3144 34.312L17.3228 34.3037Z" fill="white"/>
<path d="M17.6338 38.8844C19.2726 39.8257 21.3055 40.4587 23.4137 40.7003C21.6076 40.3338 20.045 39.4592 18.9528 38.2681C18.4908 38.4513 18.0456 38.6513 17.6338 38.8761V38.8844Z" fill="white"/>
<path d="M19.0703 38.2264C20.1542 39.4509 21.7167 40.3504 23.5312 40.7169C24.1018 40.7752 24.6735 40.8168 25.2453 40.8251L25.2285 37.1353C22.9845 37.1437 20.868 37.5351 19.0703 38.2264Z" fill="white"/>
<path d="M17.3399 34.5532H14.4834C14.5587 36.1774 15.6258 37.6601 17.3315 38.7844H17.3399C17.7935 38.5179 18.2806 38.293 18.7843 38.0848C17.92 37.077 17.3984 35.8609 17.3315 34.5532H17.3399Z" fill="white"/>
<path d="M17.5151 34.3039C17.5151 34.3039 17.5151 34.3122 17.5151 34.3206H25.2025V31.6219C22.9261 31.6136 20.7667 31.2221 18.9439 30.5225C18.0451 31.5969 17.5151 32.8963 17.5151 34.3039Z" fill="white"/>
<path d="M33.3353 34.3039C33.3353 34.3039 33.3353 34.3122 33.3353 34.3206H36.1834C36.1583 32.5797 35.0076 30.9972 33.1419 29.8311L33.0834 29.8644C32.6799 30.081 32.2514 30.2725 31.8062 30.4557C32.7646 31.5386 33.3353 32.8712 33.3353 34.3039Z" fill="white"/>
<path d="M25.1947 31.3881L25.178 27.8564C24.3722 27.8564 23.6154 27.9314 22.9099 28.0397C21.3892 28.4645 20.0618 29.2641 19.1128 30.322C20.8938 30.9966 22.9852 31.3714 25.1947 31.3881Z" fill="white"/>
<path d="M22.7921 28.0567C20.5313 28.4149 18.8016 29.1978 17.793 29.7559C18.1713 29.9474 18.5831 30.1141 19.0022 30.2723C19.9607 29.2561 21.2797 28.4732 22.7921 28.0483V28.0567Z" fill="white"/>
<path d="M27.1348 40.7169C29.2774 40.492 31.3187 39.859 33.0244 38.8761C32.6126 38.6513 32.1673 38.4513 31.7054 38.2681C30.5881 39.4758 28.9837 40.3587 27.1348 40.7169Z" fill="white"/>
<path d="M25.4556 37.1274L25.4723 40.8173C25.9928 40.8173 26.5133 40.7757 27.0265 40.7257C28.8827 40.3759 30.4871 39.468 31.5877 38.2186C29.7983 37.5189 27.6902 37.1359 25.4556 37.1274Z" fill="white"/>
<path d="M31.8643 38.0848C32.3774 38.293 32.8645 38.5179 33.3181 38.7761H33.3348C35.0406 37.6601 36.1077 36.1774 36.183 34.5532H33.3181C33.2596 35.8609 32.7297 37.077 31.8643 38.0848Z" fill="white"/>
<path d="M33.1248 34.5532H25.4458V36.8938C27.7483 36.9104 29.915 37.3102 31.7472 38.0348C32.5614 37.0354 33.0579 35.8442 33.1164 34.5532H33.1248Z" fill="white"/>
<path d="M27.8154 28.0564C27.0765 27.9398 26.2696 27.8648 25.4209 27.8564L25.4376 31.3881C27.6555 31.3714 29.748 30.9883 31.529 30.3053C30.5967 29.2725 29.3027 28.4895 27.8238 28.0647L27.8154 28.0564Z" fill="white"/>
<path d="M32.7809 29.7561C31.8058 29.2147 30.168 28.4734 28.0337 28.0986C29.4625 28.5234 30.7052 29.2814 31.6302 30.2476C32.0242 30.0893 32.4193 29.9394 32.7809 29.7561Z" fill="white"/>
<path d="M33.1332 34.3034C33.1332 32.8875 32.596 31.5798 31.6878 30.5054C29.865 31.2133 27.7056 31.6131 25.4292 31.6297V34.3285H33.1332C33.1332 34.3285 33.1332 34.3202 33.1332 34.3117V34.3034Z" fill="white"/>
<path d="M27.4545 27.8065H23.1943V26.4238H27.4545V27.8065Z" fill="#231F20"/>
<path d="M24.0948 14.0054H20.1377V15.1048H24.0948V14.0054Z" fill="white"/>
<path d="M24.0948 14.0054H20.1377V15.1131H24.0948V14.0054Z" stroke="#231F20" stroke-width="0.175814" stroke-miterlimit="2.61"/>
<path d="M24.0948 14.0054H20.1377V15.1048H24.0948V14.0054Z" stroke="#231F20" stroke-width="0.0251163" stroke-miterlimit="2.61"/>
<path d="M24.0948 15.1299H21.1631V16.2293H24.0948V15.1299Z" fill="white"/>
<path d="M24.0948 15.1299H21.1631V16.2376H24.0948V15.1299Z" stroke="#231F20" stroke-width="0.175814" stroke-miterlimit="2.61"/>
<path d="M24.0948 15.1299H21.1631V16.2293H24.0948V15.1299Z" stroke="#231F20" stroke-width="0.0251163" stroke-miterlimit="2.61"/>
<path d="M24.0946 16.2627H22.2373V17.3622H24.0946V16.2627Z" fill="white"/>
<path d="M24.0946 16.2627H22.2373V17.3705H24.0946V16.2627Z" stroke="#231F20" stroke-width="0.175814" stroke-miterlimit="2.61"/>
<path d="M24.0946 16.2627H22.2373V17.3622H24.0946V16.2627Z" stroke="#231F20" stroke-width="0.0376744" stroke-miterlimit="2.61"/>
<path d="M26.9845 22.6673H23.666V13.8383C23.9263 8.12445 26.9845 8.39098 26.9845 13.8633V22.6673Z" fill="white"/>
<path d="M26.9845 22.6673H23.666V13.8383C23.9263 8.12445 26.9845 8.39098 26.9845 13.8633V22.6673Z" stroke="#231F20" stroke-width="0.175814" stroke-miterlimit="2.61"/>
<path d="M23.0272 23.042H27.6302C27.7901 23.042 27.925 23.2002 27.925 23.3918C27.925 23.5834 27.7901 23.7416 27.6302 23.7416H23.0272C22.859 23.7416 22.7241 23.5834 22.7241 23.3918C22.7241 23.2002 22.859 23.042 23.0272 23.042Z" fill="#231F20"/>
<path d="M23.0272 25.4248H27.6302C27.7901 25.4248 27.925 25.583 27.925 25.7746C27.925 25.9662 27.7901 26.1245 27.6302 26.1245H23.0272C22.859 26.1245 22.7241 25.9662 22.7241 25.7746C22.7241 25.583 22.859 25.4248 23.0272 25.4248Z" fill="#231F20"/>
<path d="M22.7247 24.0254H27.9255C28.1105 24.0254 28.2704 24.2753 28.2704 24.5917C28.2704 24.9083 28.1189 25.1582 27.9255 25.1582H22.7247C22.5407 25.1582 22.3892 24.9 22.3892 24.5917C22.3892 24.2836 22.5407 24.0254 22.7247 24.0254Z" fill="#231F20"/>
<path d="M25.3292 27.5981C19.2138 27.5981 14.2397 30.6383 14.2397 34.3698C14.2397 38.1014 19.2138 41.1415 25.3292 41.1415C31.4456 41.1415 36.4196 38.1014 36.4196 34.3698C36.4196 30.6383 31.4456 27.5981 25.3292 27.5981ZM31.8072 30.4551C32.2525 30.2801 32.681 30.0803 33.0834 29.8637L33.143 29.8304C35.0076 30.9965 36.1667 32.579 36.1845 34.3199H33.3363C33.3363 34.3199 33.3363 34.3115 33.3363 34.3032C33.3363 32.8706 32.7646 31.5379 31.8072 30.4551ZM31.7058 38.2763C32.1678 38.4595 32.6131 38.6594 33.0249 38.8843C31.3202 39.8671 29.2779 40.5001 27.1363 40.725C28.9842 40.3669 30.5885 39.484 31.7058 38.2763ZM27.0349 40.7334C26.5228 40.7834 26.0012 40.8167 25.4807 40.825L25.464 37.1351C27.6902 37.1518 29.8078 37.5349 31.5971 38.2263C30.4966 39.4756 28.8912 40.3835 27.0349 40.7334ZM25.464 36.9019V34.5614H33.1262C33.0667 35.8524 32.5712 37.0435 31.756 38.043C29.9248 37.3183 27.7488 36.9186 25.464 36.9019ZM25.4556 34.3282V31.6295C27.7153 31.6129 29.8747 31.2214 31.6975 30.5051C32.6047 31.5796 33.143 32.8873 33.143 34.3032C33.143 34.3032 33.143 34.3115 33.143 34.3199H25.4556V34.3282ZM31.6473 30.2635C30.7234 29.2974 29.4796 28.5394 28.0519 28.1145C30.1851 28.4894 31.8239 29.2307 32.798 29.7721C32.4375 29.9554 32.0424 30.1136 31.6473 30.2635ZM27.8251 28.0729C29.3113 28.4978 30.5969 29.289 31.5292 30.3135C29.7482 30.9965 27.6568 31.388 25.4389 31.3963L25.4222 27.8648C26.2792 27.8648 27.0767 27.948 27.8167 28.0646L27.8251 28.0729ZM33.328 38.7927C32.8743 38.5345 32.3863 38.3096 31.8741 38.1014C32.7395 37.0935 33.2684 35.8774 33.328 34.5697H36.1928C36.1165 36.2023 35.0494 37.6765 33.3447 38.801H33.328V38.7927ZM18.919 38.043C18.1048 37.0435 17.6084 35.8524 17.5499 34.5614H25.2288V36.9019C22.9441 36.9102 20.7596 37.31 18.9274 38.043H18.919ZM18.9608 38.2846C20.0531 39.4673 21.6156 40.3502 23.4227 40.7167C21.3136 40.4752 19.2807 39.8421 17.6418 38.901C18.0536 38.6761 18.4989 38.4762 18.9608 38.2929V38.2846ZM17.5331 34.3282C17.5331 34.3282 17.5331 34.3199 17.5331 34.3115C17.5331 32.9039 18.062 31.6046 18.9608 30.53C20.7847 31.2297 22.944 31.6212 25.2121 31.6295V34.3282H17.5331ZM19.1291 30.3302C20.0792 29.2724 21.3972 28.4644 22.9263 28.0479C23.6328 27.9397 24.3885 27.8731 25.1954 27.8648L25.2121 31.3963C23.0026 31.388 20.9101 31.0048 19.1291 30.3302ZM19.0121 30.2801C18.6003 30.1219 18.1801 29.9554 17.8017 29.7637C18.8187 29.1974 20.5412 28.4228 22.8009 28.0646C21.2885 28.481 19.9695 29.264 19.0121 30.2886V30.2801ZM18.8354 30.4801C17.8948 31.5628 17.3314 32.8789 17.3314 34.3032C17.3314 34.3032 17.3314 34.3115 17.3314 34.3199H14.4833C14.5084 32.5958 15.6424 31.0215 17.4913 29.8554H17.508C17.9282 30.0886 18.3735 30.2886 18.8438 30.4718L18.8354 30.4801ZM14.4833 34.5614H17.3398C17.3983 35.8691 17.9282 37.0852 18.7936 38.0931C18.2804 38.3012 17.7934 38.5261 17.3481 38.7843H17.3398C15.634 37.6682 14.5679 36.1857 14.4916 34.5614H14.4833ZM23.5314 40.7167C21.717 40.3502 20.1545 39.4507 19.0706 38.2263C20.8683 37.5266 22.9859 37.1435 25.2288 37.1351L25.2455 40.825C24.6738 40.825 24.1032 40.7834 23.5314 40.7167Z" fill="#231F20"/>
<path d="M27.2199 26.6572H23.4312V27.4484H27.2199V26.6572Z" fill="white"/>
</g>
</svg>
