<svg width="50" height="51" viewBox="0 0 50 51" fill="none" xmlns="http://www.w3.org/2000/svg">
<path d="M26.4538 27.3374H22.6831V28.124H26.4538V27.3374Z" fill="black"/>
<path d="M26.4538 27.3374H22.6831V28.124H26.4538V27.3374Z" fill="black"/>
<path d="M25.0483 1.95068C27.422 1.99709 29.7133 2.38973 31.8755 3.08154L31.9897 3.06592H37.437C37.478 8.60458 41.9918 13.1132 47.5366 13.1294V18.604L47.52 18.6685C48.2719 20.996 48.6811 23.4774 48.6812 26.0562C48.6812 28.635 48.2722 31.149 47.5122 33.4683L47.5366 33.5415V38.9829C41.9753 38.9991 37.4533 43.5245 37.437 49.0796H31.9897L31.8589 49.0308C29.5523 49.7607 27.1072 50.1587 24.5718 50.1587C22.0364 50.1587 19.6074 49.7613 17.3091 49.0396L17.2036 49.0796H11.9692C11.9529 43.5164 7.41369 38.9829 1.84424 38.9829H1.65576V33.5581C0.871328 31.1983 0.454605 28.6678 0.45459 26.0483C0.45459 23.429 0.879453 20.9066 1.65576 18.5386V13.1138H1.84424C7.40555 13.1138 11.9366 8.59628 11.9692 3.04932H17.3091C19.5993 2.32757 22.0445 1.9302 24.5718 1.93018L25.0483 1.95068ZM24.6694 9.4458C15.5261 9.44605 8.06598 16.8998 8.06592 26.0483C8.06616 35.1967 15.5262 42.6506 24.6694 42.6509C33.8138 42.6508 41.2727 35.1968 41.2729 26.0483C41.2729 16.8997 33.814 9.44591 24.6694 9.4458ZM24.6694 9.59619C33.7308 9.5963 41.1225 16.983 41.1226 26.0483C41.1223 35.1136 33.7306 42.5004 24.6694 42.5005C15.6094 42.5002 8.21655 35.1135 8.21631 26.0483C8.21637 16.9831 15.6092 9.59644 24.6694 9.59619ZM22.5933 27.0454V28.313C17.6309 28.9064 13.8755 31.5831 13.8755 34.7827C13.8756 38.4158 18.7175 41.3755 24.6704 41.3755C30.6243 41.3754 35.4662 38.4158 35.4663 34.7827C35.4663 31.5814 31.7068 28.9035 26.7397 28.312V27.0454H22.5933ZM24.5894 41.0679C24.0329 41.0679 23.4769 41.0273 22.9204 40.9624C21.1542 40.6056 19.6327 39.7297 18.5776 38.5376C20.3276 37.8564 22.3894 37.4833 24.5728 37.4751L24.5894 41.0679ZM24.8013 37.4751C26.9683 37.4914 29.0302 37.8645 30.772 38.5376C29.7006 39.7539 28.1374 40.6374 26.3306 40.978C25.8322 41.0266 25.3244 41.0598 24.8179 41.0679L24.8013 37.4751ZM30.8774 38.5864C31.327 38.7648 31.7608 38.9593 32.1616 39.1782C30.5023 40.1351 28.5138 40.7513 26.4292 40.9702C28.2278 40.6216 29.7898 39.7621 30.8774 38.5864ZM18.4712 38.5942C19.5344 39.7457 21.0559 40.6056 22.8149 40.9624C20.7618 40.7273 18.7823 40.1101 17.187 39.1938C17.5878 38.9749 18.0216 38.7804 18.4712 38.6021V38.5942ZM35.2456 34.9771C35.1713 36.5665 34.1325 38.0024 32.4731 39.0972H32.4565V39.0894C32.0151 38.838 31.5399 38.6183 31.0415 38.4155C31.8839 37.4342 32.3985 36.2502 32.4565 34.9771H35.2456ZM16.8931 34.9692C16.9501 36.2424 17.4658 37.4265 18.3081 38.4077C17.8087 38.6103 17.3342 38.8292 16.9009 39.0806H16.8931C15.2327 37.994 14.1949 36.5506 14.1206 34.9692H16.8931ZM24.5728 34.9692V37.2476C22.3488 37.2556 20.2224 37.6454 18.439 38.3589H18.4302C17.6377 37.3858 17.1542 36.2261 17.0972 34.9692H24.5728ZM32.2603 34.9692C32.2022 36.2261 31.7198 37.3858 30.9263 38.3589C29.1439 37.6534 27.0252 37.2639 24.8013 37.2476V34.9692H32.2603ZM18.4712 31.0444C20.2465 31.7255 22.3486 32.1066 24.5562 32.1147V34.7417H17.0815V34.7261C17.0815 33.3557 17.5963 32.0906 18.4712 31.0444ZM17.0571 30.3872C17.466 30.6141 17.8992 30.8094 18.3569 30.9878L18.3491 30.9956C17.4336 32.0497 16.8854 33.3307 16.8853 34.7173V34.7339H14.1128C14.1373 33.0553 15.2408 31.5225 17.0405 30.3872H17.0571ZM30.8696 31.02C31.7526 32.066 32.2767 33.339 32.2769 34.7173V34.7339H24.7935V32.1147C26.993 32.0986 29.0953 31.7173 30.8696 31.02ZM32.2769 30.3628C34.0918 31.4981 35.2204 33.039 35.2378 34.7339H32.4653V34.7173C32.4652 33.3227 31.9079 32.0254 30.9761 30.9712C31.4094 30.8009 31.8276 30.6059 32.2192 30.395L32.2769 30.3628ZM24.5562 31.8872C22.4055 31.8791 20.3688 31.5059 18.6353 30.8491C19.5601 29.8194 20.8432 29.0329 22.3315 28.6274C23.0192 28.5221 23.7552 28.4568 24.5405 28.4487L24.5562 31.8872ZM24.7612 28.4487C25.5954 28.4488 26.3721 28.5305 27.0923 28.644L27.1001 28.6519C28.5468 29.0655 29.7981 29.8361 30.7056 30.8335C28.972 31.4984 26.9356 31.8791 24.7769 31.8872L24.7612 28.4487ZM22.2095 28.644C20.7373 29.0495 19.453 29.8116 18.521 30.8091V30.8003C18.1204 30.6464 17.7113 30.4848 17.3433 30.2983C18.3333 29.7469 20.01 28.9927 22.2095 28.644ZM27.3208 28.6919C29.3972 29.0569 30.9927 29.779 31.9409 30.3062C31.59 30.4845 31.2053 30.6387 30.8208 30.7847C29.9214 29.844 28.7105 29.1055 27.3208 28.6919ZM22.4302 26.0728C22.2664 26.0728 22.1343 26.2271 22.1343 26.4136C22.1345 26.5999 22.2665 26.7534 22.4302 26.7534H26.9106C27.066 26.7532 27.1975 26.5998 27.1978 26.4136C27.1978 26.2272 27.0662 26.073 26.9106 26.0728H22.4302ZM22.1353 24.7095C21.9562 24.7095 21.8081 24.9612 21.8081 25.2612C21.8082 25.5612 21.9562 25.813 22.1353 25.813H27.1978C27.3858 25.8128 27.5336 25.5692 27.5337 25.2612C27.5337 24.9532 27.3778 24.7097 27.1978 24.7095H22.1353ZM22.4302 23.7534C22.2664 23.7534 22.1343 23.9077 22.1343 24.0942C22.1344 24.2808 22.2664 24.4351 22.4302 24.4351H26.9106C27.0661 24.4348 27.1977 24.2806 27.1978 24.0942C27.1978 23.9079 27.0662 23.7536 26.9106 23.7534H22.4302ZM24.7651 10.6323C24.3207 10.6122 23.9016 10.9806 23.5835 11.6626C23.3024 12.2654 23.0876 13.1365 22.9956 14.2808L22.9634 14.7876V14.8667H19.5278V16.1206H20.5269V17.2144H21.5728V18.3179H22.9634V23.4761H26.3696V14.8159C26.3696 13.4773 26.1829 12.4493 25.894 11.7485C25.6081 11.055 25.2073 10.6527 24.7651 10.6323ZM24.7573 10.8081C25.0909 10.8235 25.4509 11.1366 25.731 11.8159C26.0081 12.4884 26.1938 13.4912 26.1938 14.8159V23.3003H23.1392V18.3179H23.5562V15.9604H23.5552V14.8667H23.1392V14.7964C23.2022 13.4121 23.4346 12.3974 23.7427 11.7368C24.0538 11.0697 24.426 10.7931 24.7573 10.8081ZM22.9634 17.2397V18.1421H21.7485V17.2397H22.9634ZM23.3804 17.2397V18.1421H23.1392V17.2397H23.3804ZM22.9634 16.1362V17.0386H20.7026V16.1362H22.9634ZM23.3804 16.1362V17.0386H23.1392V16.1362H23.3804ZM22.9634 15.0425V15.9448H19.7036V15.0425H22.9634ZM23.3794 15.0425V15.9448H23.1392V15.0425H23.3794Z" fill="black"/>
</svg>
