<svg width="50" height="50" viewBox="0 0 50 50" fill="none" xmlns="http://www.w3.org/2000/svg">
<path d="M2.16166 32.841C1.38665 30.737 1.22278 27.7203 1.22366 25.494C1.21434 18.8143 3.74978 12.5568 8.44582 7.8335C12.9311 3.32231 19.5898 0.684448 25.9028 0.622666C30.8191 0.574556 36.2642 3.44461 39.6394 6.9717C40.6047 7.68523 41.6255 8.18399 42.5696 8.96286C46.959 12.5837 49.3669 18.3993 49.1088 24.1001C49.4782 30.7635 47.8142 36.2744 43.4129 41.4568C39.3879 46.1961 32.2314 49.0586 26.1549 49.5623C23.4363 49.7878 19.5836 48.9766 17.1788 47.6968C16.0237 47.0821 14.5852 46.0916 13.4752 45.3264C12.8876 45.109 12.2067 44.9798 11.597 44.7869C7.83121 43.5951 4.7113 40.3819 3.27821 36.7162C2.8141 35.529 2.48993 34.0833 2.16166 32.841ZM10.6424 19.729C14.8584 15.9778 19.2451 12.1784 24.0882 9.25012C24.9009 8.75875 25.8046 8.36086 26.6236 7.86819C24.0033 6.14069 22.2449 5.03478 19.1037 4.3506L19.0691 4.39096C18.4152 5.14666 17.5841 5.81025 16.8981 6.67135C13.6826 10.708 12.0619 14.8615 10.6424 19.729ZM8.43646 21.5351C8.98479 16.5958 12.1561 8.84464 15.5256 5.2469C15.2156 5.39579 14.9435 5.54844 14.6472 5.71991C6.32521 10.5358 2.87645 18.4509 3.16048 27.9861L3.2214 28.0249C3.52295 27.8762 4.83926 25.3913 5.30449 24.9767C5.80032 24.3689 6.35591 23.82 6.88202 23.2447C7.19449 22.903 8.31817 21.9306 8.43646 21.5351ZM31.8662 45.8793C34.8963 44.1798 36.9561 39.6275 38.4219 36.6929C38.0477 36.7742 33.938 39.0885 33.2187 39.439C30.8856 40.5934 28.5198 41.6794 26.1242 42.6957C25.6326 42.9063 24.0278 43.3963 23.8591 43.4847C25.9671 44.7213 29.4538 45.9542 31.8662 45.8793ZM12.1065 42.7243C11.9616 42.5774 11.688 42.2203 11.5868 42.0438C9.12262 37.7488 8.10976 32.5894 8.19234 27.661C8.2057 26.8658 8.22148 25.5231 8.38294 24.7982C7.96513 25.0561 7.58083 25.5509 7.25609 25.9217C6.03205 27.3196 5.15298 28.5849 4.71279 30.4508C4.12692 32.9421 4.7702 35.6645 6.09905 37.8052C7.15463 39.5057 8.42091 40.8577 10.1442 41.8801C10.7295 42.2274 11.4029 42.7042 12.1065 42.7243ZM35.8463 44.8387C36.7268 44.2821 38.0229 43.4977 38.8332 42.882C41.9033 40.5487 44.416 37.1713 45.8234 33.5676C46.2684 32.4281 46.5854 31.1398 46.9172 29.9554C46.476 30.2961 45.9744 30.9385 45.577 31.3731C44.4997 32.5512 43.2637 33.4785 41.9585 34.3812C41.714 34.5516 41.2714 34.8442 41.0854 35.0618C40.7193 35.8037 40.4321 37.0177 40.0871 37.7895C39.051 40.107 37.5806 43.0003 35.8463 44.8387ZM19.298 42.6512C16.466 40.7412 12.8085 35.1055 11.3418 32.0203C10.8562 30.9989 10.5399 29.9601 10.1034 29.0534C10.1196 32.4233 11.2451 36.9583 12.737 39.9605C13.2222 40.9368 14.1652 42.4292 14.5233 43.2744C15.8189 43.2968 18.1106 43.16 19.298 42.6512ZM21.9816 3.11862C22.4687 3.39717 23.0927 3.53211 23.5792 3.7756C24.9602 4.46677 27.8031 5.96329 28.9121 7.00396C30.8344 6.2222 33.0684 5.92159 35.1297 5.90178C30.8112 2.98516 27.0536 2.12496 21.9816 3.11862ZM40.6106 16.3496C39.9129 12.7967 39.6679 12.0168 38.1811 8.81702C36.8096 7.73224 32.7522 7.97835 31.1079 8.47551C33.9073 10.2548 36.7523 12.9029 39.2868 15.0862C39.613 15.3671 40.3215 16.1843 40.6106 16.3496ZM42.6734 17.7181C42.9118 18.2678 43.5627 18.9043 43.9769 19.359C44.7372 20.1936 46.6552 22.4857 47.0069 23.5586C47.3391 20.0988 45.604 15.4922 43.4402 12.86C43.0387 12.3716 41.7407 10.8079 41.1916 10.7427C41.9282 12.6798 42.2903 14.467 42.5504 16.515C42.5782 16.7338 42.6926 17.5442 42.6734 17.7181ZM41.7241 31.8475C42.8449 31.6073 45.7844 27.9971 46.2272 26.8756C45.9602 26.3395 45.7289 25.6108 45.4616 25.0431C44.8018 23.6421 44.0014 22.4678 43.0244 21.2804L42.8739 21.2899C43.0803 23.1474 42.5445 30.2532 41.7241 31.8475ZM10.5079 22.7209C10.5411 23.3862 10.6111 24.5464 10.7906 25.2121C12.2834 30.7464 15.6249 36.564 19.7781 40.4811C20.3628 41.0326 21.1585 41.5437 21.6506 42.0305C21.662 42.0323 21.6734 42.0342 21.6848 42.036C27.0846 40.341 32.3077 37.6416 37.2363 34.8929C38.3598 34.2664 38.8466 33.9811 39.4754 33.4543C39.7314 32.0081 40.1531 30.5881 40.4065 29.102C40.963 25.8382 40.9068 22.8542 40.9395 19.5692C40.8121 18.9272 39.0403 17.5178 38.467 17.007C36.1914 14.9906 33.8631 13.0353 31.4846 11.1434C30.6501 10.4903 29.711 9.83127 28.8483 9.20851C28.2521 9.38341 27.0814 9.99994 26.5038 10.3203C20.8245 13.4706 15.271 18.293 10.5079 22.7209ZM21.1915 44.3618C19.9207 44.7936 17.8993 45.0168 16.5447 45.2404C20.623 47.3283 23.6592 47.8791 28.2023 47.2258C27.9918 47.0798 27.5982 46.982 27.3458 46.9312C25.108 46.4802 23.1824 45.4933 21.1915 44.3618Z" fill="#83C8FB"/>
<path d="M19.1045 4.35056C19.1786 3.61274 21.3937 3.03686 21.9824 3.11858C22.4695 3.39713 23.0935 3.53207 23.58 3.77556C24.9611 4.46673 27.8039 5.96325 28.9129 7.00392C28.0733 7.38871 27.4819 7.56247 26.6244 7.86815C24.0041 6.14064 22.2458 5.03474 19.1045 4.35056Z" fill="#FA62FB"/>
<path d="M23.8591 43.4839C25.967 44.7204 29.4538 45.9533 31.8662 45.8785C31.7717 46.2312 31.8108 46.243 31.4721 46.4752C30.9012 46.8666 28.8143 47.3834 28.2022 47.225C27.9918 47.079 27.5982 46.9812 27.3458 46.9303C25.108 46.4793 23.1823 45.4925 21.1914 44.361C21.5331 44.1353 23.1886 43.7564 23.8591 43.4839Z" fill="#FA62FB"/>
<path d="M2.16166 32.841C1.38665 30.737 1.22278 27.7203 1.22366 25.494C1.21434 18.8143 3.74978 12.5568 8.44582 7.8335C12.9311 3.32231 19.5898 0.684448 25.9028 0.622666C30.8191 0.574556 36.2642 3.44461 39.6394 6.9717C39.5692 6.99255 39.4531 7.04169 39.3925 7.01841C37.9271 6.45583 36.6595 6.19668 35.1297 5.90178C30.8112 2.98516 27.0536 2.12496 21.9816 3.11862C21.3929 3.0369 19.1778 3.61279 19.1037 4.3506L19.0691 4.39096C18.4152 5.14666 17.5841 5.81025 16.8981 6.67135C13.6826 10.708 12.0619 14.8615 10.6424 19.729C10.1619 20.2752 9.18686 21.0585 8.60245 21.5547C8.53829 21.5535 8.48198 21.5644 8.43646 21.5351C8.98479 16.5958 12.1561 8.84464 15.5256 5.2469C15.2156 5.39579 14.9435 5.54844 14.6472 5.71991C6.32521 10.5358 2.87645 18.4509 3.16048 27.9861C3.0758 28.617 2.68066 29.5762 2.53203 30.2566C2.39222 30.8967 2.40332 32.3481 2.16166 32.841Z" fill="#FC76FC"/>
<path d="M49.1091 24.1006C49.4786 30.764 47.8146 36.2749 43.4133 41.4573C39.3883 46.1966 32.2318 49.0592 26.1552 49.5629C23.4366 49.7883 19.584 48.9771 17.1791 47.6973C16.0241 47.0826 14.5856 46.0921 13.4756 45.3269C13.9708 45.1906 15.9575 45.2379 16.5451 45.2409C20.6233 47.3288 23.6595 47.8797 28.2026 47.2263C28.8148 47.3848 30.9016 46.868 31.4725 46.4765C31.8112 46.2444 31.7721 46.2326 31.8666 45.8798C34.8967 44.1803 36.9565 39.628 38.4222 36.6934C38.6671 36.369 40.6893 35.0836 41.0857 35.0623C40.7197 35.8042 40.4325 37.0183 40.0874 37.7901C39.0513 40.1075 37.581 43.0009 35.8466 44.8392C36.7272 44.2826 38.0233 43.4983 38.8335 42.8825C41.9036 40.5492 44.4163 37.1718 45.8238 33.5681C46.2687 32.4286 46.5858 31.1403 46.9175 29.9559C47.6313 28.7827 48.1949 27.5232 48.5948 26.2074C48.7872 25.5871 48.8019 24.5371 49.1091 24.1006Z" fill="#FC76FC"/>
<path d="M8.38178 24.798C9.02393 23.9921 9.63763 23.2784 10.5067 22.7207C10.5399 23.386 10.61 24.5462 10.7895 25.2119C12.2822 30.7462 15.6237 36.5639 19.777 40.481C20.3617 41.0324 21.1573 41.5435 21.6494 42.0303C21.0489 42.4122 20.0034 42.6236 19.2968 42.651C16.4648 40.7411 12.8074 35.1053 11.3407 32.0202C10.8551 30.9987 10.5388 29.9599 10.1022 29.0532C10.1185 32.4231 11.2439 36.9581 12.7359 39.9604C13.221 40.9367 14.164 42.4291 14.5221 43.2742C13.7795 43.3488 12.772 43.0656 12.1053 42.7241C11.9605 42.5772 11.6868 42.2201 11.5856 42.0437C9.12146 37.7487 8.10859 32.5892 8.19117 27.6608C8.20453 26.8657 8.22031 25.5229 8.38178 24.798Z" fill="#FA62FB"/>
<path d="M38.1807 8.81738C39.025 8.85223 40.8781 10.0201 41.1911 10.743C41.9278 12.6802 42.2898 14.4674 42.5499 16.5154C42.5777 16.7342 42.6922 17.5445 42.6729 17.7185C42.6475 18.2228 42.6449 20.9711 42.8734 21.2902C43.0798 23.1477 42.5441 30.2535 41.7237 31.8479C41.2632 32.3267 40.076 33.2211 39.4749 33.4547C39.7309 32.0085 40.1527 30.5885 40.4061 29.1024C40.9625 25.8386 40.9064 22.8545 40.9391 19.5695C41.113 18.6534 41.0994 17.1558 40.6101 16.35C39.9125 12.7971 39.6674 12.0172 38.1807 8.81738Z" fill="#FC76FC"/>
<path d="M31.1073 8.47559C33.9067 10.2549 36.7516 12.903 39.2862 15.0863C39.6124 15.3672 40.3209 16.1844 40.6099 16.3497C41.0992 17.1556 41.1128 18.6531 40.9389 19.5692C40.8115 18.9273 39.0397 17.5179 38.4664 17.0071C36.1908 14.9906 33.8625 13.0354 31.4839 11.1435C30.6495 10.4904 29.7104 9.83135 28.8477 9.20858C29.2548 8.93524 30.5904 8.58316 31.1073 8.47559Z" fill="#FA62FB"/>
<path d="M42.6746 17.7183C42.913 18.2679 43.564 18.9044 43.9782 19.3591C44.7384 20.1937 46.6564 22.4858 47.0081 23.5587C47.0142 24.8091 46.883 25.7589 46.2284 26.8757C45.9614 26.3396 45.7301 25.6109 45.4628 25.0432C44.803 23.6422 44.0026 22.4679 43.0256 21.2805L42.8751 21.29C42.6466 20.9708 42.6492 18.2226 42.6746 17.7183Z" fill="#FA62FB"/>
</svg>
