<svg width="50" height="50" viewBox="0 0 50 50" fill="none" xmlns="http://www.w3.org/2000/svg">
<path d="M39.0791 12.2994C39.0297 12.3438 37.9447 12.2051 37.7639 12.1995C31.4839 11.9776 25.0451 12.3826 19.1159 14.5745C14.7868 16.1782 10.2111 18.9471 9.94803 24.1355C9.53156 32.3425 16.0964 40.0667 21.9325 44.9665C22.5243 45.4659 23.3244 46.1817 23.9436 46.5979C24.0368 46.6589 24.1135 46.7477 24.2341 46.7311V31.832C24.2341 31.7876 24.108 31.549 24.0642 31.5046C23.8779 31.327 23.3847 31.1272 23.1217 30.8997C21.8339 29.8066 21.6037 27.759 22.4805 26.3329C22.8203 25.7835 23.2258 25.5005 23.7464 25.1509C23.9765 25.0011 24.1902 25.0289 24.2341 24.6904L24.1847 17.0327C22.2723 17.3934 20.3927 17.8873 18.5405 18.4755C18.3651 18.531 17.4719 18.8916 17.4116 18.8916C17.3842 18.8916 17.302 18.8029 17.3897 18.7696C19.6255 16.9717 22.0805 15.4401 24.7656 14.4302C31.1552 12.0441 40.7175 11.8832 43.8904 19.2579C48.6743 30.3781 36.9255 41.9367 28.9139 47.8242C28.059 48.4513 26.9904 49.2725 26.0863 49.7831C25.6424 50.0328 25.4725 50.0827 24.9958 49.8496C23.856 49.2947 22.2668 48.074 21.2147 47.2971C14.1073 42.0644 4.5339 32.5644 6.18883 22.7427C7.46016 15.2182 14.7155 12.6212 21.3407 11.8055C23.8888 11.4892 26.5082 11.5225 29.0728 11.4948C31.8018 11.467 34.5362 11.517 37.2652 11.4948L37.3365 11.3949L25.2972 4.81377L25.0615 4.82486L11.2029 12.1496C11.1536 11.0564 11.181 9.95216 11.181 8.85901C11.181 8.49832 11.0385 8.36514 11.4112 8.08769L24.8423 0.13039C25.1437 -0.0194336 25.2259 -0.0527264 25.5383 0.0970973C26.1575 0.402294 26.9631 1.00714 27.5932 1.38447C31.3031 3.62073 35.0185 5.85698 38.7174 8.10989L39.0681 8.40954V12.3049L39.0791 12.2994ZM26.7767 46.8754C27.6809 46.2428 28.5413 45.5325 29.3797 44.8111C34.5088 40.4218 41.4519 33.1138 41.7642 25.9444C41.9944 20.6507 39.5558 16.611 34.0431 16.267C32.1361 16.1449 29.9496 16.2281 28.0371 16.4168C27.4672 16.4723 26.8863 16.55 26.3274 16.6665L26.7713 16.7164L26.7822 24.7736C26.837 25.0122 27.6206 25.4173 27.8617 25.6393C29.3413 26.9766 29.3139 29.5125 27.8398 30.8442C27.5878 31.0717 27.0562 31.3159 26.8973 31.4935C26.8644 31.5323 26.7767 31.6877 26.7767 31.721V46.8698V46.8754Z" fill="#002244"/>
</svg>
