<svg width="50" height="50" viewBox="0 0 50 50" fill="none" xmlns="http://www.w3.org/2000/svg">
<path d="M5.98111 43.0147C5.04942 43.0147 4.36929 42.7946 4.16431 42.4432C3.95934 42.0918 4.01525 41.539 4.53234 40.6161C5.75285 38.4518 20.2779 13.2058 25.5979 3.97218L23.7019 0.692871C19.4347 8.1088 3.00901 36.6341 1.68601 38.9952C0.628539 40.8691 0.507428 42.6774 1.33198 44.1016C1.79782 44.9261 3.05561 46.3081 5.99044 46.3081H49.9011L48.0097 43.0288L5.98111 43.0147Z" fill="#051C2C"/>
<path d="M20.833 26.9378H24.6203C25.4495 25.4668 26.6701 23.2977 28.2027 20.604L26.3393 17.3247C24.3781 20.7586 22.3936 24.2487 20.833 26.9378Z" fill="#051C2C"/>
<path d="M17.6085 32.6523L12.5448 41.5533H47.064L45.6897 39.0985C45.5453 38.8502 42.2331 32.91 41.362 31.4764C40.6632 30.3193 39.3682 28.1596 36.2377 28.1596H17.7949C19.635 24.9693 23.972 17.4222 26.6739 12.7281C27.059 13.4027 27.4487 14.0773 27.8432 14.7519L29.7065 18.0312C30.6382 16.4244 31.3417 15.1548 31.5932 14.7238C30.969 13.6417 30.3401 12.5595 29.7298 11.4773C29.3432 10.8027 28.9519 10.1234 28.5652 9.45819L28.5978 9.41603L26.7065 6.13672C26.6969 6.15135 26.6891 6.16707 26.6832 6.18357C26.2174 7.00808 25.5605 8.13241 24.7872 9.46288L6.31641 41.5439H10.0711C11.11 39.7403 13.3693 35.8285 15.8942 31.4436H30.764H36.2284C37.3418 31.4436 37.7703 31.8606 38.5576 33.177C39.0467 33.9828 40.3977 36.3767 41.4552 38.2505H18.1955L21.3819 32.6289L17.6085 32.6523Z" fill="#051C2C"/>
<path d="M5.73857 42.4809C4.80687 42.4809 4.12674 42.2607 3.92177 41.9094C3.7168 41.558 3.77269 41.0052 4.28978 40.0823C5.51029 37.918 20.04 12.6673 25.3553 3.42433L23.464 0.14502C19.1875 7.575 2.77113 36.1003 1.44346 38.4614C0.390652 40.3353 0.269532 42.1436 1.09408 43.5725C1.55993 44.3923 2.81305 45.779 5.75254 45.779H49.6772L47.7812 42.4997L5.73857 42.4809Z" fill="url(#paint0_linear_653_2941)"/>
<path d="M20.6094 26.4026H24.3967C25.2259 24.9316 26.4464 22.7626 27.9791 20.0689L26.1157 16.7896C24.1358 20.2235 22.1513 23.7136 20.6094 26.4026Z" fill="url(#paint1_linear_653_2941)"/>
<path d="M17.3653 32.1186L12.3016 41.0196H46.8161L45.4465 38.5601C45.3068 38.3071 41.9853 32.3763 41.1235 30.9381C40.4247 29.7809 39.1297 27.626 35.9992 27.626H17.5703C19.4337 24.431 23.7567 16.8886 26.4587 12.1898L27.6233 14.2183C28.2522 15.3051 28.8764 16.3967 29.4867 17.4976C30.3951 15.8907 31.1218 14.6211 31.35 14.2183L29.4867 10.9671L28.322 8.94794C28.3315 8.93492 28.3394 8.92076 28.3453 8.90578L26.4587 5.62646C26.4522 5.64363 26.4427 5.65949 26.4307 5.67331C25.9649 6.49782 25.3127 7.62216 24.5394 8.95262L6.07324 41.0102H9.82796C10.8668 39.2066 13.1262 35.2949 15.651 30.91H30.5208H35.9899C37.1032 30.91 37.5272 31.3269 38.3191 32.6433C38.785 33.4538 40.1825 35.843 41.2167 37.7169H17.9523L21.1434 32.0952L17.3653 32.1186Z" fill="url(#paint2_linear_653_2941)"/>
<defs>
<linearGradient id="paint0_linear_653_2941" x1="19.5323" y1="50.9181" x2="39.3709" y2="18.7163" gradientUnits="userSpaceOnUse">
<stop stop-color="#00567D"/>
<stop offset="0.56" stop-color="#81AFC2"/>
<stop offset="1" stop-color="#00567D"/>
</linearGradient>
<linearGradient id="paint1_linear_653_2941" x1="10.7055" y1="45.4788" x2="30.5395" y2="13.277" gradientUnits="userSpaceOnUse">
<stop stop-color="#00567D"/>
<stop offset="0.56" stop-color="#81AFC2"/>
<stop offset="1" stop-color="#00567D"/>
</linearGradient>
<linearGradient id="paint2_linear_653_2941" x1="19.7365" y1="51.0402" x2="39.5705" y2="18.8431" gradientUnits="userSpaceOnUse">
<stop stop-color="#00567D"/>
<stop offset="0.56" stop-color="#81AFC2"/>
<stop offset="1" stop-color="#00567D"/>
</linearGradient>
</defs>
</svg>
