<svg width="57" height="50" viewBox="0 0 93 82" fill="none" xmlns="http://www.w3.org/2000/svg">
<path d="M54.5306 3.73438C54.5306 5.80208 52.8431 7.47396 50.7754 7.47396C48.7181 7.47396 47.041 5.80208 47.041 3.73438C47.041 1.66667 48.7181 0 50.7754 0C52.8431 0 54.5306 1.66667 54.5306 3.73438Z" fill="#067937"/>
<path d="M35.4115 29.7292C35.1302 29.2708 34.8281 28.8125 34.5 28.3906C34.7344 28.7917 34.9948 29.1823 35.2813 29.5625C35.3177 29.6198 35.3698 29.6667 35.4115 29.7292Z" fill="#067937"/>
<path d="M23.7493 21.6768C23.7493 21.6924 23.7441 21.6924 23.7441 21.708C23.7441 21.9736 23.7546 22.2341 23.765 22.4945H23.7702C23.7546 22.2236 23.7493 21.9476 23.7493 21.6768Z" fill="#067937"/>
<path d="M30.833 21.6247C30.833 21.6403 30.8382 21.6559 30.8382 21.6715C30.8382 20.1663 31.0622 18.7132 31.4788 17.333C31.4893 17.307 31.4997 17.2913 31.5153 17.2653C31.4997 17.2653 31.4893 17.2653 31.4788 17.2549C31.057 18.6351 30.833 20.0986 30.833 21.6247Z" fill="#067937"/>
<path d="M36.9736 42.0049C36.984 42.0153 36.9893 42.0153 36.9945 42.0205C37.4215 40.6351 37.6455 39.1611 37.6455 37.6455C37.6455 37.6195 37.6403 37.6143 37.6403 37.5986C37.6403 39.1143 37.4111 40.5726 36.9945 41.9476C36.9945 41.9632 36.984 41.9841 36.9736 42.0049Z" fill="#067937"/>
<path d="M32.0566 27.5938C32.3014 28.1667 32.5618 28.724 32.8639 29.2604C32.5618 28.7188 32.3014 28.1667 32.0566 27.5938Z" fill="#067937"/>
<path d="M31.2705 25.3486C31.432 25.958 31.6351 26.5674 31.8643 27.1559C31.6299 26.5622 31.432 25.9528 31.2705 25.3486Z" fill="#067937"/>
<path d="M23.7493 21.6768C23.7493 21.6924 23.7441 21.7028 23.7441 21.708C23.7441 21.9476 23.7546 22.1872 23.765 22.4268V22.4945H23.7702C23.7546 22.2236 23.7493 21.9528 23.7493 21.6768Z" fill="#067937"/>
<path d="M33.8646 30.7603C33.8542 30.7498 33.849 30.7186 33.8281 30.6925C33.5625 30.2394 33.2969 29.8644 33.0365 29.5259L32.9688 29.4269L32.9375 29.3853C33.1979 29.8228 33.4792 30.2446 33.7813 30.6613C33.8021 30.6978 33.849 30.7238 33.8646 30.7603Z" fill="#067937"/>
<path d="M31.4788 17.255C31.057 18.6353 30.833 20.0988 30.833 21.6248C30.833 21.6405 30.833 21.6561 30.8382 21.6717C30.8382 20.3228 31.0309 18.9582 31.4163 17.6092L31.5309 17.1821C31.5205 17.2186 31.5153 17.2342 31.5153 17.2603C31.4997 17.2603 31.4893 17.2603 31.4788 17.255Z" fill="#067937"/>
<path d="M36.9941 42.0207C36.9889 42.0155 36.9837 42.0155 36.9733 42.005C36.791 42.604 36.5618 43.1821 36.3014 43.7342C33.9473 49.005 28.6608 52.6769 22.5254 52.6769C14.1868 52.6769 7.40039 45.8957 7.40039 37.5571C7.40039 30.6196 12.1139 24.7498 18.5098 22.9946C19.5931 22.6873 20.7441 22.5311 21.9056 22.4894C21.9056 22.2342 21.8952 21.9738 21.8952 21.7082C21.8952 19.5623 22.1869 17.4373 22.7546 15.3696C22.6764 15.3696 22.6035 15.354 22.5254 15.354C21.2962 15.354 20.0775 15.4686 18.8952 15.6561C8.37956 17.4009 0.322266 26.5623 0.322266 37.5571C0.322266 49.8019 10.2858 59.7655 22.5254 59.7655C28.3639 59.7655 33.6764 57.4998 37.6452 53.8019V60.4425H44.7233V36.5936H44.7077C44.4316 30.3592 41.5723 24.7707 37.1816 20.9113C35.9681 19.8384 34.6348 18.9009 33.2025 18.1144C32.8691 19.2759 32.6869 20.4842 32.6869 21.7082C32.6869 22.7707 32.8118 23.8332 33.0723 24.8644C33.3796 26.1144 33.8587 27.2915 34.4941 28.3905C34.8275 28.8123 35.1296 29.2707 35.4108 29.729C36.2077 31.0311 36.8379 32.4373 37.2025 33.9582C37.4941 35.1144 37.6452 36.3228 37.6452 37.5571C37.6452 37.578 37.64 37.5832 37.64 37.5988C37.64 37.6144 37.6452 37.6196 37.6452 37.6457C37.6452 39.1613 37.4212 40.6353 36.9941 42.0207Z" fill="#067937"/>
<path d="M36.9736 42.0049C36.984 42.0153 36.9893 42.0153 36.9945 42.0205C37.4215 40.6351 37.6455 39.1611 37.6455 37.6455C37.6455 37.6195 37.6403 37.6143 37.6403 37.5986C37.6403 39.1143 37.4111 40.5726 36.9945 41.9476C36.9945 41.9632 36.984 41.9841 36.9736 42.0049Z" fill="#067937"/>
<path d="M30.833 21.708C30.833 22.3174 30.8747 22.9215 30.9424 23.5361C30.8747 22.9372 30.833 22.3278 30.833 21.708Z" fill="#067937"/>
<path d="M23.7656 22.4946C23.7656 22.5259 23.7656 22.5467 23.7708 22.578V22.6144L23.7656 22.4946Z" fill="#067937"/>
<path d="M23.75 21.6769C23.75 20.7342 23.8177 19.7915 23.9427 18.854C23.8229 19.7655 23.75 20.7186 23.75 21.6769Z" fill="#067937"/>
<path d="M23.9531 18.7448C24.0885 17.7813 24.276 16.8125 24.5365 15.8646L24.6615 15.4219C24.6458 15.4688 24.6354 15.5 24.6198 15.5469C24.3229 16.5781 24.0938 17.651 23.9531 18.7448Z" fill="#067937"/>
<path d="M31.2705 25.3488C31.2705 25.3332 31.2653 25.3228 31.2653 25.3175C31.1924 25.0103 31.1559 24.703 31.0986 24.4009C31.1559 24.6925 31.1924 25.0103 31.2653 25.3123C31.2653 25.3228 31.2705 25.3332 31.2705 25.3488Z" fill="#067937"/>
<path d="M31.5312 17.1821C31.724 16.5884 31.9427 16.0103 32.2031 15.4478L32.0573 15.354L31.5312 17.1821Z" fill="#067937"/>
<path d="M32.9368 29.3853C32.9108 29.3384 32.89 29.3019 32.8691 29.2603C32.8796 29.2811 32.89 29.3019 32.9056 29.328L32.9368 29.3853Z" fill="#067937"/>
<path d="M54.1191 34.3229C54.1868 34.2813 54.2441 34.25 54.3066 34.2083V34.2031C54.3066 34.2083 54.3066 34.2083 54.2962 34.2083C54.2389 34.25 54.1764 34.2917 54.1191 34.3229Z" fill="#067937"/>
<path d="M68.1243 22.4844C65.3952 22.6406 62.8431 23.5365 60.6816 24.974V24.9844C60.6816 24.9792 60.6816 24.974 60.6921 24.974C62.8431 23.5417 65.3952 22.6406 68.1243 22.4844Z" fill="#067937"/>
<path d="M50.5618 43.3228C50.1608 43.4217 49.765 43.4894 49.3535 43.5467C49.6816 43.4946 50.015 43.4582 50.3379 43.3905C50.416 43.38 50.4889 43.3488 50.5618 43.3228Z" fill="#067937"/>
<path d="M50.5625 43.3226C51.0833 43.2288 51.599 43.083 52.1146 42.9424C51.599 43.083 51.0833 43.2184 50.5625 43.3226Z" fill="#067937"/>
<path d="M48.5879 36.5C48.0358 36.599 47.4681 36.6771 46.9004 36.7083C47.4681 36.6719 48.0358 36.599 48.5879 36.5Z" fill="#067937"/>
<path d="M49.5677 36.2967C49.901 36.2186 50.224 36.1144 50.5521 36.0103C50.099 36.1561 49.6406 36.2759 49.1719 36.38C49.3073 36.3436 49.4375 36.328 49.5677 36.2967Z" fill="#067937"/>
<path d="M68.1348 22.484H68.1243C68.015 22.4893 67.9108 22.5049 67.8066 22.5153L68.3796 22.4736C68.2962 22.4736 68.2129 22.4736 68.1348 22.484Z" fill="#067937"/>
<path d="M67.6976 22.5259C65.1195 22.7655 62.7236 23.6144 60.6768 24.9738V24.9842C60.6663 24.9894 60.6663 24.9946 60.6611 24.9946C60.6768 24.9946 60.682 24.979 60.6924 24.9738C62.7601 23.5936 65.1768 22.755 67.6976 22.5259Z" fill="#067937"/>
<path d="M57.9688 27.3748C58.3594 26.9478 58.75 26.5728 59.1302 26.2134C58.7135 26.578 58.3385 26.9686 57.9688 27.3748Z" fill="#067937"/>
<path d="M23.9531 18.7448C23.9479 18.776 23.9479 18.8125 23.9375 18.8542C23.8177 19.7917 23.75 20.7344 23.75 21.6771C23.75 21.9531 23.7552 22.224 23.7708 22.4948H23.7656L23.7708 22.6146C23.9635 27.4063 25.6875 31.8229 28.4531 35.3542C30.3073 37.7292 32.6562 39.6875 35.3073 41.1406L35.3698 40.9375C35.6406 39.8802 35.7812 38.7813 35.7917 37.6875V37.5C35.7812 36.4531 35.6562 35.4063 35.401 34.3958C35.1042 33.1719 34.5833 31.9479 33.8646 30.7604C33.849 30.724 33.8021 30.6979 33.7812 30.6615C33.4792 30.2448 33.1979 29.8229 32.9375 29.3854L32.9062 29.3281C32.8906 29.3021 32.8802 29.2813 32.8646 29.2604C32.5625 28.724 32.3021 28.1667 32.0573 27.5938C31.9844 27.4583 31.9271 27.3073 31.8646 27.1562C31.6354 26.5677 31.4323 25.9583 31.2708 25.349C31.2708 25.3333 31.2656 25.3229 31.2656 25.3125C31.1927 25.0104 31.1562 24.6927 31.099 24.401C31.0469 24.1094 30.9792 23.8281 30.9427 23.5365C30.875 22.9219 30.8333 22.3177 30.8333 21.7135C30.8333 21.6927 30.8385 21.6771 30.8385 21.6719C30.8333 21.6563 30.8333 21.6406 30.8333 21.625C30.8333 20.099 31.0573 18.6354 31.4792 17.2552C31.4896 17.2656 31.5 17.2656 31.5156 17.2656C31.5156 17.2344 31.5208 17.2188 31.5312 17.1823L32.0573 15.3542L32.2031 15.4479C33.0365 13.6198 34.2188 11.9948 35.6719 10.6354L32.0677 4.39062C28.5833 7.19792 25.9635 11.026 24.6615 15.4219L24.5365 15.8646C24.276 16.8125 24.0885 17.7813 23.9531 18.7448Z" fill="#067937"/>
<path d="M59.5205 14.9688C59.5882 15.1094 59.6299 15.2708 59.6924 15.4115C61.9163 14.4635 64.2549 13.8802 66.6455 13.651C66.5934 13.5208 66.5622 13.3958 66.5153 13.2812C65.0413 9.66667 62.6403 6.52083 59.6143 4.14062L56.0205 10.3698C57.458 11.6563 58.6559 13.2188 59.5205 14.9688Z" fill="#067937"/>
<path d="M61.7288 26.5153C60.8018 27.1299 60.0101 27.8747 59.2653 28.6872C58.708 29.7601 58.0049 30.7341 57.208 31.6299C56.3486 32.5934 55.3903 33.4788 54.307 34.2028V34.208C54.2445 34.2549 54.1872 34.2809 54.1195 34.3226C53.7184 34.583 53.3018 34.8226 52.8747 35.0413C52.708 35.1247 52.5309 35.2184 52.3486 35.3018C51.9007 35.5153 51.4476 35.7132 50.9684 35.8695C50.833 35.932 50.6924 35.9684 50.5518 36.0101C50.2236 36.1143 49.9007 36.2184 49.5674 36.2965C49.4372 36.3278 49.307 36.3434 49.1715 36.3799C48.984 36.4215 48.7861 36.4632 48.5882 36.4997C48.0361 36.5986 47.4684 36.6768 46.9007 36.708C46.8799 36.708 46.8695 36.7236 46.8538 36.7236H46.8382C46.7601 36.7236 46.6663 36.7236 46.583 36.7288V43.8122C46.6663 43.807 46.7601 43.8122 46.8382 43.807C46.8799 43.807 46.9111 43.8018 46.9528 43.8018C47.5622 43.7809 48.1768 43.7184 48.7653 43.6403C48.9632 43.6143 49.1611 43.583 49.3486 43.5466C49.7653 43.4893 50.1611 43.4215 50.5622 43.3226C51.083 43.2288 51.5986 43.083 52.1143 42.9424C52.2653 42.8903 52.4424 42.8538 52.5986 42.7966C53.2861 42.5778 53.958 42.3434 54.6038 42.0674C55.1872 41.8174 55.7445 41.5205 56.3018 41.2341C61.4997 38.4736 65.4945 33.7236 67.2132 27.984C67.5622 26.8226 67.7757 25.5986 67.9268 24.3643C65.7132 24.5622 63.5674 25.2861 61.7288 26.5153Z" fill="#067937"/>
<path d="M50.5521 36.0103C50.099 36.1561 49.6406 36.2759 49.1719 36.38C49.3021 36.3436 49.4375 36.328 49.5677 36.2967C49.901 36.2186 50.2292 36.1144 50.5521 36.0103Z" fill="#067937"/>
<path d="M50.3379 43.3905C50.416 43.38 50.4889 43.3488 50.5618 43.3228C50.1608 43.4217 49.765 43.4894 49.3535 43.5467C49.6816 43.4946 50.015 43.4582 50.3379 43.3905Z" fill="#067937"/>
<path d="M57.8958 27.4583L57.7448 27.6146L57.7344 27.6354C57.8073 27.5469 57.8906 27.4635 57.9688 27.375C57.9479 27.3958 57.9219 27.4219 57.8958 27.4583Z" fill="#067937"/>
<path d="M59.1299 26.2134C59.6195 25.7863 60.1195 25.3644 60.6611 24.9946C60.1507 25.3488 59.6455 25.755 59.1299 26.2134Z" fill="#067937"/>
<path d="M69.0566 15.3535C68.4473 15.3535 67.8535 15.39 67.2754 15.4316C64.8483 15.6296 62.5254 16.2181 60.3848 17.1243C53.8431 19.9108 48.9108 25.7441 47.3587 32.8171C47.2233 33.4629 47.1139 34.1191 47.0306 34.7858L47.0983 34.765L47.2077 34.8223C47.5358 34.7962 47.8848 34.7337 48.265 34.6712C48.4421 34.64 48.6087 34.6035 48.765 34.5618C48.8483 34.5462 48.9368 34.5358 49.0202 34.5202L49.1296 34.4941C49.416 34.4316 49.7025 34.3327 50.0566 34.2233C50.1504 34.1868 50.2493 34.166 50.3535 34.1243C50.7389 33.9889 51.1348 33.8223 51.5775 33.6191C51.7233 33.5462 51.8743 33.4629 52.0254 33.39C52.4212 33.1921 52.7806 32.9889 53.0931 32.7806C53.14 32.7493 53.2077 32.7129 53.2441 32.6921L53.2858 32.6608C54.1035 32.1191 54.8796 31.416 55.666 30.5514C56.2337 29.4837 56.9473 28.5306 57.7337 27.6348L57.7441 27.6139L57.8952 27.4577C57.9212 27.4212 57.9473 27.3952 57.9681 27.3743C58.3379 26.9681 58.7129 26.5775 59.1296 26.2129C59.6452 25.7546 60.1452 25.3483 60.6608 24.9941C60.666 24.9941 60.666 24.9889 60.6816 24.9837V24.9733C62.7233 23.6139 65.1191 22.765 67.6973 22.5306C67.7181 22.5306 67.7441 22.5254 67.7702 22.515H67.8066C67.9108 22.5046 68.015 22.4889 68.1243 22.4837H68.1296C68.2129 22.4733 68.2962 22.4733 68.3743 22.4733L70.0462 22.3275L70.0254 22.4941C77.9108 23.0046 84.1712 29.5514 84.1712 37.5566C84.1712 45.8952 77.39 52.6764 69.0566 52.6764C63.8483 52.6764 59.265 50.0462 56.5462 46.041C56.0618 45.3327 55.6556 44.5723 55.3014 43.791C54.6348 44.0723 53.9368 44.3275 53.1556 44.5723C53.0358 44.6087 52.9056 44.6504 52.7806 44.6764L52.6243 44.7181C52.0723 44.8743 51.5202 45.0254 50.9525 45.1452C50.515 45.2337 50.0723 45.3171 49.6452 45.3796L49.4629 45.4108C49.3118 45.4316 49.1608 45.4577 48.9993 45.4837C48.3535 45.5775 47.6868 45.6139 47.0775 45.6504H46.9733L46.9108 45.666H46.8535V60.4421H53.9368V53.8014C57.9056 57.4993 63.2129 59.765 69.0566 59.765C81.2858 59.765 91.2546 49.8014 91.2546 37.5566C91.2546 25.3223 81.2858 15.3535 69.0566 15.3535Z" fill="#067937"/>
<path d="M70.0195 22.4948L70.0456 22.3281L68.3789 22.474C68.5977 22.4688 68.8164 22.4479 69.056 22.4479C69.3841 22.4479 69.7018 22.4844 70.0195 22.4948Z" fill="#067937"/>
<path d="M67.7702 22.5156C67.7441 22.526 67.7181 22.5313 67.6973 22.5313C67.7285 22.5313 67.7702 22.5156 67.8066 22.5156H67.7702Z" fill="#067937"/>
<path d="M44.2549 3.73438C44.2549 5.80208 42.5778 7.47396 40.5205 7.47396C38.4528 7.47396 36.7705 5.80208 36.7705 3.73438C36.7705 1.66667 38.4528 0 40.5205 0C42.5778 0 44.2549 1.66667 44.2549 3.73438Z" fill="#067937"/>
<path d="M3.55208 81.8955H0V63.9528H3.95312L24.4583 78.0049V63.8955H27.875V81.8955H24.2917L3.55208 67.7809V81.8955Z" fill="#0F3D4E"/>
<path d="M59.3483 63.9531V67.0208H39.6764C38.2441 67.0208 37.1764 67.4635 36.4837 68.3385C35.6764 69.3802 35.2702 71.1042 35.2702 73.5312C35.2702 75.7448 35.6816 77.224 36.5098 77.9635C37.1035 78.4948 38.166 78.776 39.6764 78.776H59.3483V81.875H39.5306C33.9473 81.875 31.1504 79.0052 31.1504 73.2552C31.1504 70.3021 31.7493 68.0573 32.9473 66.5469C34.3275 64.8281 36.5566 63.9531 39.6296 63.9531H59.3483Z" fill="#0F3D4E"/>
<path d="M86.8851 81.875H63.6143V63.9531H86.2653C88.2184 63.9531 89.6611 64.1979 90.583 64.6719C91.9893 65.4219 92.6924 66.8229 92.6924 68.8906C92.6924 70.5833 91.8382 71.9375 90.1143 72.9323C91.8851 73.7813 92.7653 75.0885 92.7653 76.8698C92.7653 78.7813 92.1976 80.1354 91.0674 80.9323C90.1507 81.5677 88.7497 81.875 86.8851 81.875ZM86.307 67.1667H67.2913V71.3073H86.307C87.9268 71.3073 88.7393 70.6354 88.7393 69.2708C88.7393 67.875 87.9268 67.1667 86.307 67.1667ZM67.2913 74.474V78.7135H86.3591C87.9788 78.7135 88.7861 78.0156 88.7861 76.6198C88.7861 75.1927 87.9788 74.474 86.3591 74.474H67.2913Z" fill="#0F3D4E"/>
</svg>
