<svg width="50" height="50" viewBox="0 0 50 50" fill="none" xmlns="http://www.w3.org/2000/svg">
<path d="M44.7082 34.895L45.8303 37.7033C45.8303 37.7033 27.9315 28.3984 4.17586 40.6712C4.03446 40.5527 4.43586 40.3521 5.36182 39.5953C6.39268 38.7473 7.46004 37.9632 8.57302 37.2292C15.6659 32.5699 24.6427 30.4272 33.0904 31.2432C35.6584 31.4894 38.2173 31.9408 40.6622 32.7887C41.8345 33.1945 43.0478 33.778 44.7082 34.895Z" fill="#E87200"/>
<path d="M21.8145 37.1523H23.2194L25.0485 39.8422V37.1523H26.467V42.0122H25.0485L23.2285 39.3452V42.0122H21.8145V37.1523Z" fill="#0055B8"/>
<path d="M31.0285 41.2138H29.3225L29.0854 42.0161H27.5527L29.3818 37.1562H31.0194L32.8485 42.0161H31.2748L31.0331 41.2138H31.0285ZM30.7183 40.1606L30.1801 38.4145L29.651 40.1606H30.7183Z" fill="#54565A"/>
<path d="M34.0891 37.1515H36.9035C37.3733 37.1515 37.7336 37.2655 37.9845 37.498C38.2354 37.7305 38.3631 38.0177 38.3631 38.3597C38.3631 38.6469 38.2719 38.8931 38.094 39.0982C37.9754 39.235 37.8021 39.3444 37.5694 39.4219C37.9207 39.5085 38.1761 39.6499 38.3403 39.855C38.5045 40.0602 38.5866 40.3155 38.5866 40.6255C38.5866 40.8762 38.5273 41.1042 38.4087 41.3048C38.2901 41.5054 38.1305 41.6649 37.9298 41.7835C37.8021 41.8564 37.615 41.9111 37.3596 41.943C37.0221 41.9886 36.7986 42.0069 36.6845 42.0069H34.0891V37.147V37.1515ZM35.6035 39.0618H36.2558C36.4884 39.0618 36.6526 39.0207 36.7438 38.9387C36.8351 38.8566 36.8807 38.7426 36.8807 38.5876C36.8807 38.4463 36.8351 38.3369 36.7438 38.2548C36.6526 38.1773 36.493 38.1363 36.2649 38.1363H35.6035V39.0572V39.0618ZM35.6035 40.9674H36.3698C36.6298 40.9674 36.8122 40.9218 36.9172 40.8306C37.0221 40.7395 37.0768 40.6164 37.0768 40.4614C37.0768 40.32 37.0221 40.2015 36.9172 40.1149C36.8122 40.0283 36.6298 39.9827 36.3652 39.9827H35.6035V40.9674Z" fill="#E87200"/>
<path d="M3.36839 22.2851C0.280346 12.7157 8.11678 10.263 8.11678 10.263C16.7423 7.65067 26.7956 14.0606 26.7956 14.0606L40.4067 24.8199C46.4003 31.0566 48.0652 36.0578 48.0926 39.6731C48.1108 35.9985 46.4505 30.8788 40.2972 24.4779L26.49 13.5683C26.49 13.5683 16.2953 7.07168 7.54661 9.7159C7.54661 9.7159 -0.399295 12.2006 2.7298 21.9112C2.7298 21.9112 7.0631 35.7888 22.2342 44.3734C22.2342 44.3734 30.691 49.288 38.0895 49.2424C30.8278 49.2242 22.5946 44.4418 22.5946 44.4418C7.63783 35.9803 3.36383 22.2942 3.36383 22.2942L3.36839 22.2851Z" fill="#54565A" fill-opacity="0.5"/>
<path d="M48.0879 39.6633C48.0651 36.0526 46.3956 31.0513 40.402 24.8101L26.7909 14.0508C26.7909 14.0508 16.7422 7.64544 8.11205 10.2532C8.11205 10.2532 0.275627 12.7059 3.36367 22.2753C3.36367 22.2753 7.63767 35.9614 22.5944 44.4229C22.5944 44.4229 30.8277 49.2053 38.0894 49.2235C40.9585 49.2053 43.6725 48.4439 45.6704 46.3605C45.6704 46.3605 48.0651 44.0354 48.0879 39.6587V39.6633ZM31.1059 47.2449C26.6996 46.2009 22.5488 44.0718 18.8632 41.4778C15.3601 39.0114 12.1625 35.6058 10.5889 31.5711C9.24783 28.1245 8.22153 24.149 9.55345 20.5428C10.8306 17.0826 13.9597 14.8623 17.6043 14.5888C19.5976 14.4383 21.9376 14.6891 23.8533 15.2818C24.4144 15.455 24.9846 15.6374 25.5228 15.8835L40.6939 25.7492C44.7854 28.8767 46.2314 35.6924 46.2314 35.697C46.9931 39.2986 46.6647 42.7589 44.2335 45.6356C41.1683 49.26 35.1153 48.1932 31.1013 47.2449H31.1059Z" fill="url(#paint0_linear_629_2775)"/>
<path d="M32.187 0C32.187 0 26.2481 20.055 12.2036 32.9707C12.2036 32.9707 22.64 27.9968 26.0884 28.2384C26.0884 28.2384 31.3066 22.3026 32.187 19.4122L34.9968 27.354C34.9968 27.354 40.9357 28.0743 41.9802 28.6396L32.187 0Z" fill="#0055B8"/>
<path d="M32.0867 1.80615C32.0867 1.80615 25.0439 22.8642 11.5605 33.628C11.5605 33.628 24.0176 27.9429 27.092 28.1572C27.092 28.1572 31.3021 23.4477 32.0867 20.8764L34.6137 28.6997C34.6137 28.6997 39.8228 28.9322 40.7533 29.4337L32.0821 1.80615H32.0867Z" fill="url(#paint1_linear_629_2775)"/>
<defs>
<linearGradient id="paint0_linear_629_2775" x1="6.48365" y1="10.7547" x2="43.8766" y2="48.167" gradientUnits="userSpaceOnUse">
<stop stop-color="#54565A"/>
<stop offset="1" stop-color="#54565A" stop-opacity="0.5"/>
</linearGradient>
<linearGradient id="paint1_linear_629_2775" x1="26.1569" y1="1.80615" x2="26.1569" y2="33.628" gradientUnits="userSpaceOnUse">
<stop stop-color="white" stop-opacity="0.5"/>
<stop offset="0.21" stop-color="#BED4ED" stop-opacity="0.37"/>
<stop offset="0.57" stop-color="#578FD0" stop-opacity="0.17"/>
<stop offset="0.85" stop-color="#1865BE" stop-opacity="0.05"/>
<stop offset="1" stop-color="#0055B8" stop-opacity="0"/>
</linearGradient>
</defs>
</svg>
