<svg width="50" height="50" viewBox="0 0 50 50" fill="none" xmlns="http://www.w3.org/2000/svg">
<path d="M0.5 0.764648C0.5 0.764648 1.72151 5.73148 2.31469 14.9448C14.5946 13.1272 20.4576 7.20847 23.4613 2.88319C8.65801 2.75663 0.5 0.764648 0.5 0.764648Z" fill="#114075"/>
<path d="M26.3774 2.88672C25.8862 2.89682 25.3782 2.89682 24.8674 2.89682C24.3904 2.89682 23.929 2.89682 23.4729 2.88672C20.4705 7.21065 14.6049 13.1294 2.32227 14.9504C2.51752 17.8889 2.6398 21.2555 2.6398 25.0355C2.6398 28.6654 2.5236 31.9223 2.34794 34.78C6.02106 34.3079 9.64485 33.5117 13.1766 32.4009C19.7233 26.4768 25.0431 17.2379 26.3774 2.88672Z" fill="#0093B4"/>
<path d="M49.2169 0.764648C47.0522 1.2384 44.8649 1.60329 42.6634 1.85792C38.1125 17.4511 26.7298 31.5458 2.3477 34.7717C2.13894 38.1061 1.84707 40.8978 1.5498 43.1113C20.8277 41.2795 35.6763 35.7708 47.1238 28.538C47.0988 27.409 47.0772 26.2491 47.0772 25.0374C47.0772 9.40039 49.2169 0.764648 49.2169 0.764648Z" fill="#006DAC"/>
<path d="M26.3699 2.87915H26.3732C25.0301 17.2444 19.7104 26.4733 13.1738 32.4007C30.2276 26.9553 38.8471 14.9347 42.6643 1.85791C37.2573 2.51329 31.8166 2.85428 26.3699 2.87915Z" fill="#81CCD6"/>
<path d="M2.34687 34.7755C2.2408 36.4417 2.11041 37.9759 1.9834 39.3674C6.0897 37.7067 9.87636 35.3501 13.1756 32.4019C9.64339 33.51 6.01967 34.3043 2.34687 34.7755Z" fill="#114075"/>
<path d="M1.55395 43.1101C1.56285 43.0941 1.56923 43.0768 1.57287 43.0589C1.02225 47.1573 0.5 49.3102 0.5 49.3102C0.5 49.3102 9.17012 47.1802 24.8544 47.1802C40.557 47.1802 49.219 49.3102 49.219 49.3102C49.219 49.3102 47.405 41.9535 47.1246 28.5381C35.677 35.7682 20.8285 41.2817 1.55463 43.1101" fill="#3DA3BE"/>
<path d="M20.6602 35.2139H23.0694L25.8293 41.6429V35.2139H27.6318V44.0327H25.2185L22.4397 37.5896V44.0327H20.6608L20.6602 35.2139Z" fill="white"/>
<path d="M29.3805 35.2139H31.4844V40.8546C31.4429 41.3485 31.5404 41.8441 31.7661 42.2858C31.8775 42.4261 32.0225 42.5362 32.1878 42.606C32.3531 42.6759 32.5333 42.7033 32.712 42.6857C32.8939 42.7046 33.0777 42.6779 33.2466 42.6081C33.4156 42.5383 33.5644 42.4275 33.6794 42.2858C33.9025 41.8433 33.9988 41.3481 33.9578 40.8546V35.2139H35.9556V40.627C36.0379 41.5888 35.75 42.5457 35.1502 43.3036C34.4458 43.8652 33.5708 44.1716 32.6686 44.1726C31.7665 44.1735 30.8908 43.8691 30.1852 43.309C29.5887 42.5474 29.3016 41.5899 29.3812 40.627L29.3805 35.2139Z" fill="white"/>
<path d="M37.7275 35.214H40.5354C41.3303 35.1554 42.1238 35.3458 42.8048 35.7586C43.056 35.9593 43.2543 36.218 43.3823 36.5124C43.5104 36.8067 43.5645 37.1278 43.5398 37.4477C43.5622 37.9267 43.4112 38.3978 43.1142 38.7752C42.7951 39.1365 42.3582 39.3737 41.8805 39.445C42.4164 39.5081 42.9126 39.7577 43.2817 40.1499C43.6097 40.5718 43.7728 41.0981 43.7405 41.6309C43.7666 41.9763 43.7069 42.3228 43.5668 42.6397C43.4267 42.9567 43.2105 43.2345 42.9372 43.4485C42.1859 43.8938 41.3152 44.0979 40.4435 44.0329H37.7275V35.214ZM39.7301 36.6863V38.8365H40.203C40.5591 38.8642 40.9146 38.7763 41.2164 38.586C41.3281 38.485 41.4146 38.3594 41.4689 38.2191C41.5233 38.0788 41.5439 37.9278 41.5292 37.7782C41.5444 37.6239 41.5234 37.4682 41.4677 37.3234C41.412 37.1786 41.3232 37.0487 41.2083 36.9441C40.9011 36.7434 40.5352 36.6514 40.1692 36.6829L39.7301 36.6863ZM39.7301 40.1936V42.5451H40.2435C40.6362 42.5771 41.0288 42.4827 41.3637 42.2758C41.4868 42.1655 41.5824 42.0282 41.6429 41.8746C41.7035 41.721 41.7272 41.5555 41.7123 41.3912C41.7282 41.2223 41.7051 41.0521 41.6446 40.8935C41.5842 40.7349 41.4881 40.5922 41.3637 40.4764C41.0319 40.2614 40.6378 40.1627 40.2435 40.1956L39.7301 40.1936Z" fill="white"/>
</svg>
