<svg width="50" height="54" viewBox="0 0 50 54" fill="none" xmlns="http://www.w3.org/2000/svg">
<path fill-rule="evenodd" clip-rule="evenodd" d="M25 0C38.8063 0 50 11.1938 50 25C50 38.8063 38.8063 50 25 50C11.1938 50 0 38.8063 0 25C0 11.1938 11.1938 0 25 0Z" fill="#304365"/>
<path d="M25.2129 44.6813C25.1942 44.6001 25.1754 44.5063 25.1504 44.4001C25.1254 44.2938 25.1004 44.1813 25.0817 44.0751C25.0567 43.9626 25.0379 43.8563 25.0192 43.7563C25.0004 43.6563 24.9817 43.5688 24.9754 43.5063C24.8692 42.9313 24.7567 42.3626 24.6379 41.8001C24.5129 41.2313 24.3942 40.6626 24.2754 40.0938C24.1567 39.5251 24.0504 38.9563 23.9504 38.3876C23.8504 37.8126 23.7692 37.2438 23.7129 36.6688C23.6879 36.4876 23.6629 36.3188 23.6442 36.1688C23.6192 36.0188 23.6254 35.8438 23.6504 35.6438C23.6754 35.4438 23.7629 35.2376 23.9067 35.0313C24.0504 34.8251 24.2254 34.6189 24.4379 34.4189C24.6504 34.2189 24.8879 34.0188 25.1442 33.8251C25.4004 33.6313 25.6629 33.4563 25.9192 33.2876C26.1817 33.1251 26.4254 32.9751 26.6629 32.8438C26.8942 32.7126 27.0942 32.6063 27.2629 32.5313C27.2879 32.5188 27.3129 32.5001 27.3379 32.4751C27.3629 32.4501 27.3817 32.4314 27.3942 32.4064C27.4067 32.3814 27.4067 32.3626 27.3942 32.3438C27.3817 32.3251 27.3442 32.3188 27.2817 32.3251C27.1692 32.3376 27.0129 32.3688 26.8192 32.4188C26.6254 32.4626 26.4192 32.5188 26.2067 32.5751C25.9942 32.6313 25.7942 32.6938 25.6129 32.7563C25.4254 32.8188 25.2879 32.8751 25.2004 32.9188C24.8442 33.1063 24.5317 33.3563 24.2754 33.6751C24.0192 33.9938 23.8129 34.3439 23.6567 34.7314C23.5004 35.1189 23.3879 35.5188 23.3254 35.9376C23.2629 36.3563 23.2504 36.7563 23.2879 37.1376C23.3442 37.7126 23.4254 38.2876 23.5254 38.8563C23.6317 39.4313 23.7379 40.0001 23.8567 40.5688C23.9754 41.1376 24.0942 41.7063 24.2192 42.2751C24.3442 42.8438 24.4567 43.4126 24.5567 43.9876C24.5567 44.0188 24.5504 44.0251 24.5254 44.0063C24.5067 43.9876 24.4754 43.9563 24.4379 43.9188C24.4004 43.8813 24.3629 43.8376 24.3192 43.7938C24.2754 43.7501 24.2379 43.7126 24.2004 43.6876C24.1504 43.6438 24.1067 43.6376 24.0754 43.6751C24.0379 43.7126 24.0379 43.7688 24.0754 43.8501C24.0942 43.9126 24.1442 44.0251 24.2192 44.1876C24.2942 44.3501 24.3879 44.5376 24.4942 44.7376C24.6004 44.9376 24.7004 45.1376 24.8129 45.3376C24.9192 45.5376 25.0129 45.7063 25.0879 45.8376C25.1129 45.8751 25.1379 45.8938 25.1692 45.8813C25.2004 45.8688 25.2192 45.8501 25.2317 45.8188C25.2317 45.8001 25.2504 45.7438 25.2692 45.6626C25.2879 45.5813 25.3129 45.4876 25.3317 45.3938C25.3504 45.3001 25.3692 45.2063 25.3879 45.1313C25.4004 45.0501 25.4129 45.0063 25.4067 44.9938C25.3942 44.9626 25.3629 44.9126 25.3192 44.8563C25.2754 44.8001 25.2504 44.7438 25.2317 44.6876L25.2129 44.6813Z" fill="white"/>
<path d="M31.4436 43.7695C31.4311 43.7382 31.3936 43.6945 31.3061 43.6445C31.2249 43.5945 31.1749 43.5507 31.1499 43.5132C31.0811 43.407 31.0124 43.307 30.9436 43.207C30.8749 43.107 30.8061 43.0007 30.7374 42.9007C30.5124 42.5632 30.2436 42.232 29.9186 41.907C29.5998 41.582 29.2499 41.257 28.8811 40.932C28.5124 40.607 28.1311 40.2757 27.7374 39.9507C27.3436 39.6195 26.9561 39.2882 26.5874 38.9445C26.2124 38.6007 25.8624 38.257 25.5311 37.9007C25.1999 37.5445 24.9124 37.1757 24.6686 36.8007C24.3624 36.3257 24.1686 35.7882 24.0936 35.1945C24.0811 35.132 24.0561 35.1195 24.0186 35.1507C23.9811 35.182 23.9499 35.2507 23.9311 35.3695C23.8936 35.7382 23.8999 36.0945 23.9561 36.432C24.0124 36.7757 24.1374 37.1007 24.3311 37.4132C24.5749 37.7945 24.8686 38.157 25.1936 38.5195C25.5249 38.8757 25.8749 39.2257 26.2436 39.5632C26.6186 39.9007 26.9999 40.2382 27.3936 40.5695C27.7874 40.9007 28.1686 41.2257 28.5311 41.5507C28.8936 41.8757 29.2374 42.2007 29.5624 42.5257C29.8811 42.8507 30.1561 43.1882 30.3811 43.5257C30.3874 43.5257 30.3874 43.5382 30.3811 43.5445C30.3686 43.5507 30.3624 43.5507 30.3436 43.5445C30.2624 43.5132 30.1874 43.4882 30.1186 43.4695C30.0499 43.4507 29.9874 43.4382 29.9249 43.4257C29.8686 43.4132 29.8311 43.4257 29.8124 43.457C29.7874 43.4882 29.7874 43.5195 29.8061 43.557C29.8311 43.5945 29.9061 43.6632 30.0436 43.757C30.1811 43.8507 30.3249 43.9507 30.4936 44.057C30.6624 44.1632 30.8249 44.2695 30.9936 44.3757C31.1624 44.482 31.2936 44.5632 31.3936 44.6257C31.4248 44.6445 31.4499 44.6257 31.4499 44.582C31.4624 44.5445 31.4686 44.4945 31.4686 44.4195C31.4686 44.3445 31.4686 44.2695 31.4686 44.182C31.4686 44.1007 31.4686 44.0195 31.4624 43.9507C31.4624 43.8757 31.4499 43.8195 31.4436 43.7757V43.7695Z" fill="white"/>
<path d="M22.269 33.0442C22.269 33.0442 22.2128 33.0317 22.194 33.063C22.094 33.188 22.0002 33.338 21.9127 33.513C21.8252 33.688 21.744 33.8755 21.669 34.0755C21.6002 34.2692 21.5377 34.4692 21.4815 34.663C21.4252 34.8567 21.3815 35.0317 21.3565 35.188C21.2315 35.8755 21.1252 36.5692 21.0377 37.263C20.9565 37.9567 20.8815 38.6567 20.819 39.3567C20.7565 40.0567 20.7002 40.7567 20.6377 41.4567C20.5752 42.1567 20.5065 42.8567 20.4252 43.5567C20.419 43.588 20.4065 43.5942 20.3877 43.5692C20.3752 43.5442 20.3565 43.5067 20.3315 43.463C20.3065 43.413 20.2815 43.363 20.2565 43.3005C20.2315 43.238 20.2002 43.1942 20.1752 43.163C20.1377 43.113 20.1002 43.1005 20.0627 43.1192C20.0252 43.1442 20.0002 43.2005 20.0002 43.288C20.0002 43.3505 20.0127 43.4692 20.0377 43.6505C20.0627 43.8317 20.1002 44.0317 20.1377 44.2505C20.1815 44.4692 20.2252 44.6942 20.269 44.913C20.3127 45.138 20.3502 45.3255 20.3877 45.4692C20.394 45.5192 20.419 45.5442 20.4502 45.5442C20.4815 45.5442 20.5065 45.5317 20.5252 45.5005C20.5377 45.4817 20.5627 45.438 20.6127 45.363C20.6565 45.288 20.7065 45.213 20.7565 45.1255C20.8065 45.038 20.8502 44.963 20.8877 44.888C20.9252 44.8192 20.944 44.7755 20.9377 44.7567C20.9377 44.7255 20.9252 44.6692 20.9002 44.6005C20.8752 44.5317 20.8627 44.4692 20.8627 44.413C20.8627 44.3317 20.8752 44.2317 20.8815 44.1255C20.8877 44.013 20.9002 43.9067 20.9065 43.7942C20.9127 43.6817 20.9252 43.5692 20.9377 43.4692C20.9502 43.363 20.9627 43.2755 20.969 43.2067C21.0502 42.513 21.119 41.8192 21.1815 41.113C21.244 40.413 21.3065 39.713 21.369 39.013C21.4315 38.313 21.5065 37.6192 21.594 36.9192C21.6815 36.2192 21.7815 35.5255 21.9127 34.838C21.9627 34.5505 22.0252 34.263 22.0815 33.9817C22.144 33.7005 22.2127 33.4192 22.2877 33.138C22.3065 33.088 22.3002 33.0505 22.269 33.0317V33.0442Z" fill="white"/>
<path d="M23.5439 34.1309C23.6252 33.9434 23.6877 33.7496 23.7377 33.5559C23.7877 33.3621 23.8064 33.1684 23.8064 32.9809C23.8064 32.7934 23.7689 32.6184 23.6939 32.4621C23.6189 32.3059 23.5064 32.1746 23.3502 32.0684C23.1939 31.9621 22.9877 31.8871 22.7252 31.8496C22.4752 31.8184 22.1752 31.8184 21.8314 31.8496C21.4877 31.8871 21.1314 31.9496 20.7752 32.0371C20.4189 32.1309 20.0752 32.2371 19.7439 32.3621C19.4189 32.4871 19.1502 32.6246 18.9377 32.7684C18.7377 32.9059 18.5877 33.0684 18.5002 33.2496C18.4127 33.4371 18.3377 33.6371 18.2752 33.8559C18.2314 34.0121 18.2064 34.2121 18.1877 34.4559C18.1689 34.6996 18.1877 34.9434 18.2314 35.1934C18.2752 35.4371 18.3627 35.6621 18.4814 35.8621C18.6002 36.0684 18.7752 36.1996 19.0002 36.2746C19.1627 36.3246 19.3314 36.3059 19.5002 36.2121C19.6689 36.1184 19.8252 35.9934 19.9564 35.8309C20.0877 35.6684 20.1877 35.4934 20.2502 35.2996C20.3127 35.1059 20.3127 34.9371 20.2502 34.7871C20.2127 34.6871 20.1439 34.6059 20.0439 34.5496C19.9439 34.4871 19.8314 34.4371 19.7127 34.3934C19.5877 34.3496 19.4627 34.3059 19.3252 34.2621C19.1877 34.2184 19.0689 34.1684 18.9627 34.1059C18.8564 34.0434 18.7752 33.9684 18.7127 33.8809C18.6502 33.7934 18.6252 33.6809 18.6439 33.5434C18.7877 33.4496 18.9502 33.3559 19.1439 33.2684C19.3377 33.1809 19.5502 33.0934 19.7752 33.0184C20.0002 32.9434 20.2377 32.8746 20.4814 32.8121C20.7252 32.7496 20.9627 32.6996 21.1939 32.6621C21.4252 32.6246 21.6502 32.6059 21.8627 32.5934C22.0752 32.5809 22.2627 32.5934 22.4314 32.6121C22.7189 32.6496 22.9314 32.7434 23.0752 32.8809C23.2189 33.0246 23.3127 33.1871 23.3439 33.3809C23.3752 33.5746 23.3627 33.7809 23.3064 33.9996C23.2502 34.2246 23.1564 34.4309 23.0377 34.6309C22.9377 34.7871 22.8377 34.9371 22.7377 35.0746C22.6377 35.2121 22.5439 35.3309 22.4627 35.4309C22.3877 35.5121 22.3627 35.5809 22.3877 35.6246C22.4127 35.6684 22.4564 35.6559 22.5252 35.5934C22.8064 35.3121 23.0502 34.9934 23.2627 34.6434C23.3627 34.4871 23.4502 34.3121 23.5314 34.1246L23.5439 34.1309ZM19.3127 35.1184C19.4439 35.1434 19.5689 35.1996 19.6877 35.2746C19.7377 35.2996 19.7564 35.3309 19.7564 35.3684C19.7564 35.4059 19.7377 35.4309 19.7002 35.4559C19.6627 35.4809 19.6189 35.4996 19.5564 35.5121C19.4939 35.5246 19.4314 35.5246 19.3627 35.5121C19.2564 35.4871 19.1627 35.4184 19.0752 35.3121C18.9877 35.2059 18.9377 35.0996 18.9252 34.9934C19.0502 35.0496 19.1752 35.0934 19.3127 35.1184Z" fill="white"/>
<path d="M19.2248 32.2567C19.3935 32.1192 19.5498 31.9754 19.6873 31.8254C19.831 31.6692 19.9435 31.5067 20.0373 31.3317C20.131 31.1567 20.181 30.9817 20.1935 30.8004C20.206 30.6192 20.1685 30.4379 20.081 30.2629C19.9935 30.0817 19.8373 29.9129 19.6185 29.7442C19.406 29.5879 19.131 29.4379 18.7998 29.2879C18.4623 29.1442 18.106 29.0192 17.731 28.9192C17.356 28.8192 16.981 28.7379 16.6185 28.6879C16.256 28.6379 15.9435 28.6254 15.681 28.6567C15.5373 28.6692 15.3998 28.7067 15.2623 28.7567C15.1248 28.8067 14.9935 28.8692 14.8748 28.9504C14.7498 29.0317 14.6435 29.1254 14.5373 29.2317C14.4373 29.3379 14.3498 29.4567 14.2873 29.5817C14.231 29.6879 14.181 29.8192 14.1373 29.9817C14.0935 30.1442 14.056 30.3004 14.0185 30.4629C13.9873 30.6254 13.956 30.7629 13.9248 30.8942C13.8935 31.0192 13.8623 31.1067 13.831 31.1504C13.8185 31.1629 13.806 31.1567 13.7935 31.1379C13.781 31.1192 13.7685 31.0942 13.7498 31.0629C13.731 31.0317 13.7185 31.0004 13.706 30.9692C13.6935 30.9379 13.681 30.9129 13.6685 30.9004C13.631 30.8629 13.5998 30.8504 13.5685 30.8629C13.5373 30.8754 13.5185 30.9004 13.5123 30.9379C13.506 31.0629 13.4998 31.2379 13.4873 31.4567C13.4748 31.6754 13.481 31.9254 13.4998 32.2067C13.5123 32.2942 13.556 32.3192 13.6248 32.2817C13.6623 32.2629 13.7123 32.2379 13.7685 32.1942C13.831 32.1504 13.8935 32.1067 13.956 32.0629C14.031 32.0129 14.106 31.9629 14.1873 31.9004C14.1998 31.8629 14.1998 31.8129 14.1873 31.7567C14.1685 31.7004 14.1685 31.6567 14.1873 31.6317C14.3435 31.3754 14.456 31.1192 14.531 30.8629C14.606 30.6067 14.6748 30.3692 14.7185 30.1504C14.7685 29.9317 14.8123 29.7442 14.8498 29.5754C14.8873 29.4129 14.9498 29.2942 15.031 29.2254C15.206 29.2129 15.406 29.2129 15.631 29.2254C15.856 29.2442 16.0873 29.2754 16.3373 29.3192C16.5873 29.3629 16.8373 29.4192 17.0873 29.4879C17.3435 29.5567 17.5873 29.6317 17.8185 29.7192C18.0498 29.8067 18.2685 29.9004 18.4623 30.0004C18.6623 30.1004 18.831 30.2004 18.9748 30.3067C19.2185 30.4879 19.3685 30.6817 19.431 30.8817C19.4935 31.0817 19.4873 31.2817 19.431 31.4754C19.3685 31.6692 19.256 31.8567 19.0873 32.0317C18.9185 32.2067 18.731 32.3504 18.5185 32.4754C18.5123 32.4754 18.4998 32.4817 18.4935 32.4879C18.5248 32.4504 18.556 32.4192 18.5873 32.3817C18.706 32.2254 18.7623 32.0817 18.756 31.9379C18.7498 31.7942 18.6935 31.6629 18.5935 31.5504C18.4935 31.4379 18.356 31.3442 18.1748 31.2692C17.9998 31.2004 17.7998 31.1629 17.5873 31.1567C17.3685 31.1567 17.1435 31.1942 16.906 31.2692C16.6685 31.3504 16.4435 31.4754 16.2185 31.6567C16.106 31.7442 16.0185 31.8504 15.956 31.9692C15.8935 32.0879 15.8435 32.2129 15.806 32.3442C15.7685 32.4754 15.7435 32.6129 15.7373 32.7504C15.731 32.8879 15.7248 33.0254 15.7248 33.1629C15.3935 33.2067 15.0748 33.2442 14.7685 33.2567C14.4685 33.2754 14.2373 33.2879 14.081 33.3004C14.031 33.3004 13.956 33.3317 13.8498 33.3817C13.7435 33.4317 13.6435 33.4879 13.5498 33.5442C13.4623 33.6004 13.3873 33.6567 13.3373 33.7004C13.2873 33.7442 13.2873 33.7692 13.3435 33.7629C13.7123 33.7317 14.106 33.7067 14.5185 33.6817C14.931 33.6567 15.3373 33.6317 15.731 33.6004C15.7498 33.8567 15.7685 34.1067 15.7685 34.3442C15.7685 34.5817 15.7685 34.8004 15.7435 34.9942C15.6748 34.9317 15.631 34.8879 15.6123 34.8629C15.5935 34.8379 15.5623 34.8067 15.5123 34.7754C15.431 34.7192 15.3873 34.7192 15.3685 34.7629C15.3498 34.8067 15.3498 34.8629 15.3685 34.9254C15.381 34.9629 15.406 35.0442 15.4373 35.1629C15.4748 35.2817 15.5123 35.4067 15.5498 35.5379C15.5935 35.6692 15.631 35.7942 15.6748 35.8942C15.7123 36.0004 15.7435 36.0567 15.7685 36.0692C15.7998 36.0879 15.8498 36.0754 15.8998 36.0379C15.956 36.0004 16.0123 35.9504 16.0685 35.8942C16.1248 35.8379 16.181 35.7817 16.2248 35.7192C16.2685 35.6567 16.2998 35.6067 16.3185 35.5754C16.3435 35.5567 16.3498 35.5192 16.3373 35.4629C16.3248 35.4067 16.306 35.3192 16.2748 35.1942C16.3123 34.9629 16.3373 34.7129 16.3498 34.4379C16.3623 34.1629 16.3498 33.8567 16.3248 33.5192C16.7748 33.4754 17.1873 33.3567 17.5748 33.1754C17.7123 33.1067 17.8435 33.0254 17.9685 32.9379C18.2185 32.8379 18.4623 32.7254 18.706 32.5879C18.8748 32.4942 19.0435 32.3817 19.2123 32.2442L19.2248 32.2567ZM16.7185 33.0754C16.556 33.1067 16.4248 33.1192 16.3248 33.1192C16.3123 32.9129 16.3123 32.6879 16.3248 32.4442C16.3435 32.1942 16.3873 31.9817 16.4623 31.7942C16.6185 31.7504 16.7935 31.7379 16.9935 31.7692C17.1935 31.8004 17.3748 31.8504 17.5435 31.9317C17.706 32.0067 17.831 32.1004 17.9248 32.2067C18.0123 32.3129 18.0248 32.4254 17.956 32.5442C17.906 32.6379 17.8123 32.7192 17.6748 32.7879C17.5373 32.8567 17.381 32.9192 17.2123 32.9629C17.0435 33.0067 16.881 33.0442 16.7185 33.0754Z" fill="white"/>
<path d="M13.8878 12.525C13.8878 12.525 13.9253 12.55 13.9503 12.5375C14.0753 12.4625 14.2065 12.3937 14.344 12.3312C14.4815 12.2687 14.6253 12.2125 14.7628 12.1625C14.7878 12.15 14.8003 12.1437 14.8065 12.1437C14.8128 12.1437 14.8065 12.125 14.8003 12.0875C14.7753 12.0312 14.7378 11.9562 14.6878 11.8625C14.644 11.7687 14.6003 11.6813 14.5565 11.6C14.6753 11.5313 14.8065 11.4687 14.9378 11.4125C15.069 11.3562 15.2003 11.3063 15.3315 11.2625C15.3565 11.25 15.369 11.2438 15.3753 11.2438C15.3815 11.2438 15.3753 11.2187 15.369 11.1875C15.3253 11.1125 15.2753 11.0063 15.2065 10.8625C15.1378 10.7188 15.0878 10.6188 15.0503 10.55C15.0378 10.5438 15.0253 10.5312 15.019 10.525C15.0065 10.5125 15.0003 10.5125 14.9878 10.525C14.944 10.5375 14.8878 10.5625 14.8128 10.5938C14.7378 10.625 14.6628 10.6563 14.5753 10.6938C14.494 10.7313 14.4128 10.7687 14.3315 10.8062C14.2503 10.85 14.1815 10.8813 14.1253 10.9125C14.1003 10.9313 14.094 10.9437 14.1065 10.9625C14.1503 11.0375 14.194 11.1125 14.2378 11.1938C14.2815 11.275 14.3315 11.3625 14.3753 11.4563C14.3253 11.475 14.2628 11.4938 14.1878 11.525C14.1128 11.5563 14.0378 11.5875 13.9628 11.6187C13.8878 11.65 13.8128 11.6875 13.744 11.725C13.669 11.7625 13.6128 11.7938 13.5628 11.8188C13.544 11.8313 13.5315 11.8437 13.5378 11.8625C13.594 11.9625 13.6565 12.075 13.719 12.1875C13.7815 12.3063 13.844 12.4188 13.894 12.5313L13.8878 12.525Z" fill="white"/>
<path d="M19.6501 5.16243C19.7064 5.21243 19.7439 5.26244 19.7689 5.31244C19.8001 5.38744 19.8376 5.47493 19.8814 5.57493C19.9251 5.67493 19.9689 5.78119 20.0126 5.88119C20.0564 5.98744 20.1001 6.08743 20.1376 6.18743C20.1751 6.28743 20.2064 6.36868 20.2314 6.43118C20.4439 6.97493 20.6564 7.51243 20.8814 8.04368C21.1064 8.58118 21.3314 9.11244 21.5501 9.64994C21.7751 10.1874 21.9876 10.7249 22.1876 11.2624C22.3939 11.7999 22.5814 12.3499 22.7501 12.8999C22.8376 13.1812 22.9189 13.4624 22.9939 13.7437C23.0689 14.0249 23.1376 14.3062 23.1939 14.5874C23.2064 14.6374 23.2314 14.6687 23.2689 14.6687C23.3064 14.6687 23.3251 14.6562 23.3314 14.6187C23.3626 14.4624 23.3751 14.2874 23.3751 14.0937C23.3751 13.8999 23.3564 13.6937 23.3314 13.4874C23.3001 13.2812 23.2689 13.0749 23.2251 12.8749C23.1814 12.6749 23.1376 12.4999 23.0939 12.3499C22.9251 11.7999 22.7376 11.2499 22.5314 10.7062C22.3251 10.1624 22.1126 9.62493 21.8876 9.08743C21.6626 8.55618 21.4376 8.01869 21.2126 7.48119C20.9876 6.94369 20.7689 6.40619 20.5626 5.86869C20.5564 5.83744 20.5626 5.82494 20.5876 5.84369C20.6126 5.85619 20.6439 5.88119 20.6876 5.91244C20.7314 5.94369 20.7751 5.98119 20.8314 6.01869C20.8814 6.05619 20.9314 6.08744 20.9689 6.10619C21.0251 6.13119 21.0626 6.13119 21.0876 6.08744C21.1126 6.04994 21.1064 5.98743 21.0626 5.90618C21.0314 5.84993 20.9689 5.74994 20.8564 5.59994C20.7501 5.44994 20.6251 5.29369 20.4876 5.11869C20.3501 4.94369 20.2064 4.76868 20.0626 4.59368C19.9189 4.41868 19.8001 4.26869 19.7001 4.15619C19.6689 4.11869 19.6376 4.09993 19.6126 4.11868C19.5876 4.13118 19.5689 4.15618 19.5626 4.19368C19.5626 4.21243 19.5626 4.26869 19.5501 4.35619C19.5439 4.44369 19.5376 4.53743 19.5314 4.63743C19.5314 4.73743 19.5251 4.82493 19.5251 4.90618C19.5251 4.98743 19.5251 5.03119 19.5376 5.04369C19.5501 5.07494 19.5876 5.11243 19.6439 5.16243H19.6501Z" fill="white"/>
<path d="M45.8815 22.7185C45.8815 22.7185 45.8502 22.6685 45.819 22.656C45.8002 22.656 45.744 22.6372 45.6627 22.6185C45.5815 22.5997 45.494 22.5747 45.394 22.5497C45.3003 22.5247 45.2127 22.506 45.1315 22.4935C45.0502 22.481 45.0065 22.4747 44.994 22.481C44.9627 22.4872 44.9127 22.5185 44.8565 22.5622C44.8002 22.606 44.744 22.6372 44.6878 22.656C44.6065 22.6747 44.5127 22.6997 44.4065 22.7247C44.3002 22.7497 44.194 22.7747 44.0815 22.7997C43.969 22.8247 43.8627 22.8435 43.7627 22.8685C43.6565 22.8872 43.5753 22.906 43.5065 22.9185C42.8253 23.0435 42.144 23.1872 41.4627 23.3372C40.7815 23.4872 40.1003 23.631 39.4253 23.781C38.744 23.9247 38.6065 23.9685 37.919 24.0935C37.2315 24.2185 36.544 24.3247 35.8503 24.406C35.5628 24.4372 35.2753 24.4685 34.994 24.4935C34.7065 24.5185 34.419 24.5372 34.1315 24.5435C34.0753 24.5435 34.044 24.556 34.0378 24.5935C34.0315 24.6247 34.0378 24.6497 34.0753 24.6622C34.219 24.7185 34.394 24.7685 34.5877 24.7997C34.7815 24.831 34.9815 24.856 35.1878 24.8685C35.394 24.881 35.6003 24.881 35.8003 24.8747C36.0003 24.8747 36.1815 24.8622 36.3378 24.8435C37.0253 24.7622 37.7128 24.656 38.4003 24.531C39.0815 24.406 39.219 24.3622 39.9065 24.2122C40.5878 24.0622 41.269 23.9122 41.9502 23.7622C42.6315 23.6122 43.3127 23.4747 44.0002 23.3435C44.0315 23.3435 44.044 23.3497 44.0253 23.3685C44.0065 23.3935 43.9752 23.4185 43.9377 23.456C43.9002 23.4935 43.8565 23.531 43.8065 23.581C43.7627 23.6247 43.7253 23.6622 43.7003 23.6997C43.6628 23.7497 43.6628 23.7935 43.694 23.8247C43.7253 23.856 43.7878 23.8622 43.869 23.831C43.9315 23.8122 44.0378 23.7622 44.2065 23.6872C44.369 23.606 44.5502 23.5185 44.744 23.4122C44.9377 23.306 45.1378 23.1997 45.3378 23.0935C45.5378 22.9872 45.7003 22.8935 45.8315 22.8122C45.8753 22.7872 45.894 22.7622 45.8878 22.731L45.8815 22.7185Z" fill="white"/>
<path d="M24.8814 6.36898C25.4751 6.29398 26.9877 6.29397 26.9689 6.51272C26.9564 6.65647 24.8626 7.65023 24.7689 7.72523C24.7001 7.78148 24.7252 7.91273 24.8689 7.88148C25.3752 7.75023 26.4626 7.46898 26.7876 7.23773C27.1564 7.01273 27.9876 5.92522 28.0001 5.63147C28.0126 5.23147 26.6439 5.21898 26.3501 5.20648C25.3501 5.19398 25.3501 5.17523 24.8376 5.98773C24.6126 6.33148 24.5689 6.40022 24.8814 6.37522V6.36898Z" fill="white"/>
<path d="M42.1505 32.4686C42.013 33.0561 41.4942 34.4874 41.3005 34.3999C41.1692 34.3374 40.963 32.0124 40.9317 31.8936C40.9005 31.8061 40.7755 31.7874 40.7505 31.9374C40.6942 32.4624 40.588 33.5874 40.688 33.9749C40.7755 34.3999 41.4942 35.5624 41.7692 35.6811C42.138 35.8311 42.6192 34.5374 42.738 34.2624C43.0942 33.3186 43.1067 33.3249 42.5255 32.5624C42.288 32.2311 42.2317 32.1686 42.1505 32.4686Z" fill="white"/>
<path d="M32.3314 38.5803C31.9439 39.0428 30.8377 40.0803 30.7064 39.9115C30.6189 39.799 31.4752 37.6303 31.5002 37.5116C31.5127 37.4241 31.4064 37.349 31.3189 37.4615C31.0314 37.9053 30.4314 38.8616 30.3439 39.2491C30.2314 39.6678 30.3439 41.0303 30.5439 41.2616C30.8002 41.5616 31.8127 40.6303 32.0439 40.4428C32.7877 39.7616 32.8002 39.7741 32.6252 38.8303C32.5564 38.4241 32.5439 38.3428 32.3377 38.574L32.3314 38.5803Z" fill="white"/>
<path d="M37.8938 14.7748C37.8126 14.7748 37.7626 14.8748 37.8751 14.9373C38.2938 15.1435 39.2063 15.5748 39.5563 15.606C39.9376 15.6623 41.1188 15.3998 41.3001 15.1998C41.5376 14.9373 40.6063 14.1373 40.4063 13.956C39.725 13.3685 39.7376 13.356 38.9251 13.6248C38.5751 13.731 38.5063 13.756 38.7375 13.9123C39.1875 14.206 40.225 15.0748 40.0938 15.2123C40.0063 15.2998 38.0063 14.781 37.8938 14.7748Z" fill="white"/>
<path d="M20.9688 18.1126C21.1438 18.4063 21.5875 18.1563 21.7875 18.0126C22.0875 17.8063 22.4813 17.2688 22.5688 16.9313C22.5938 16.8376 22.6063 16.7563 22.5375 16.8313C22.2813 17.1126 21.2313 18.2001 21.0375 17.8188C20.85 17.4626 21.2625 16.3063 20.8563 16.1626C20.6688 16.1063 20.5 16.2751 20.3688 16.3813C20.1188 16.5938 20.1125 16.5876 20.1688 16.8938C20.175 17.0188 20.1875 17.0501 20.2563 16.9751C20.3125 16.9188 20.675 16.5563 20.85 16.5688C20.9313 16.7938 20.6188 17.5126 20.975 18.1126H20.9688Z" fill="white"/>
<path d="M27.8874 33.8132C27.8812 33.9007 27.9437 33.8757 27.9624 33.8257C28.1999 32.7882 28.4437 33.2257 28.8624 33.0882C29.5749 32.8507 29.8562 31.5445 30.4062 30.7632C30.4312 30.732 30.6624 30.4695 30.5374 30.5195C29.6812 30.8945 29.7374 32.3632 28.8312 32.6632C28.4312 32.7945 28.2374 32.482 27.9437 33.132C27.8062 33.132 27.5937 33.1195 27.4874 33.2257C27.3312 33.382 27.3687 33.757 27.4249 33.9382C27.4374 33.9695 27.5187 34.2257 27.5624 34.1507C27.5999 34.082 27.6187 33.9695 27.6312 33.907C27.6312 33.882 27.5062 33.7007 27.5374 33.6195C27.5562 33.5757 27.8062 33.5507 27.8937 33.5695C27.8812 33.6445 27.8749 33.807 27.8812 33.8195L27.8874 33.8132Z" fill="white"/>
<path d="M32.8249 20.1874C32.9749 20.5562 33.0249 20.9374 33.2436 21.2062C33.4874 21.5124 33.9999 21.6999 34.3311 21.4999C35.0061 21.0749 33.7623 20.5812 33.3561 20.4937C33.3498 20.3874 33.2936 20.2562 33.2374 20.1187C32.9499 19.4187 31.6311 19.2437 30.8186 18.7499C30.7873 18.7312 30.5061 18.5187 30.5686 18.6374C31.0061 19.4687 32.4561 19.2999 32.8186 20.1812L32.8249 20.1874ZM34.0811 21.4374C33.8311 21.4374 33.4249 20.8624 33.4186 20.6374C33.6061 20.6937 34.4561 21.0937 34.0811 21.4374Z" fill="white"/>
<path d="M31.6873 6.25641C31.7498 6.28766 31.8748 6.23766 31.9373 6.26891C32.1873 6.40016 31.9686 7.55641 31.7811 8.09391C31.7561 8.13766 31.7186 8.32517 31.8936 8.25642C32.3686 8.07517 33.2811 6.29392 33.7436 6.54392C33.9311 6.64392 33.9186 7.00016 33.9811 7.03766C34.0873 7.09391 34.3998 6.73767 34.4498 6.64392C34.5498 6.45642 34.3873 6.08766 34.2186 5.99391C33.5498 5.63141 32.4311 7.48142 32.3311 7.40642C32.3186 7.40017 32.8811 5.63141 32.1373 5.22516C32.0123 5.15641 31.4748 5.45016 31.4248 5.54391C31.3561 5.66891 31.5623 6.18141 31.6873 6.25016V6.25641Z" fill="white"/>
<path d="M41.2127 26.6814C41.1627 26.6751 40.9814 26.7001 41.1002 26.8438C41.4377 27.2313 43.4064 27.4813 43.3314 28.0063C43.3002 28.2188 42.9689 28.3314 42.9564 28.4001C42.9377 28.5251 43.3752 28.6938 43.4814 28.7063C43.6877 28.7376 43.9752 28.4564 44.0064 28.2626C44.1127 27.5064 42.0064 27.0813 42.0439 26.9626C42.0439 26.9438 43.8877 26.8688 44.0064 26.0251C44.0252 25.8813 43.5689 25.4814 43.4627 25.4626C43.3252 25.4439 42.9189 25.8126 42.8939 25.9563C42.8814 26.0251 42.9752 26.1313 42.9627 26.2001C42.9252 26.4813 41.7752 26.6751 41.2064 26.6814H41.2127Z" fill="white"/>
<path d="M7.56896 15.4741C7.68771 15.5428 8.20647 15.3491 8.27522 15.2241C8.30647 15.1616 8.26272 15.0303 8.29397 14.9678C8.43147 14.7241 9.56896 14.9678 10.1002 15.1678C10.144 15.1928 10.3252 15.2366 10.2627 15.0553C10.094 14.5678 8.34397 13.6116 8.60647 13.1491C8.71272 12.9616 9.06271 12.9803 9.10021 12.9178C9.16271 12.8116 8.81272 12.4928 8.72522 12.4366C8.54397 12.3303 8.16896 12.4866 8.07521 12.6553C7.70021 13.3178 9.50646 14.4928 9.43146 14.5928C9.42521 14.6053 7.68147 13.9991 7.26897 14.7366C7.20022 14.8616 7.47521 15.4053 7.56896 15.4616V15.4741Z" fill="white"/>
<path d="M6.53143 31.0375C6.66268 30.9937 6.87519 30.4875 6.83769 30.35C6.81269 30.2812 6.68768 30.2312 6.66893 30.1625C6.58768 29.8937 7.54394 29.225 8.05019 28.9688C8.10019 28.9563 8.25644 28.85 8.08144 28.775C7.61269 28.5687 5.72519 29.1937 5.56894 28.6875C5.50644 28.4812 5.76269 28.2375 5.74394 28.1688C5.70644 28.05 5.23768 28.0875 5.13768 28.1188C4.93768 28.1813 4.79394 28.5625 4.85019 28.7438C5.07519 29.475 7.15644 28.95 7.18144 29.075C7.18144 29.0938 5.55643 29.95 5.80018 30.7687C5.84393 30.9062 6.42518 31.075 6.53143 31.0437V31.0375Z" fill="white"/>
<path d="M37.7691 39.9933C37.7316 40.0308 37.7379 40.1433 37.6941 40.1808C37.4754 40.3933 36.4316 39.6808 36.2941 39.5746C36.4191 39.2808 36.0941 38.7808 36.0254 38.8308C35.9754 38.8558 36.0504 39.0746 35.9191 39.2058C35.8816 39.2433 35.7504 39.2683 35.7066 39.2433C36.0191 38.6871 36.0504 38.2308 35.5066 37.6558C35.0504 37.1683 34.8254 37.1371 34.2816 36.7496C33.9754 36.5246 33.6754 36.3121 33.3941 36.0558C33.3254 35.9871 33.2941 36.0558 33.3254 36.1058C33.5754 36.4683 34.1004 36.8621 34.5754 37.1996C34.9504 37.4746 35.1879 37.5183 35.4941 37.8433C35.9941 38.3683 35.2254 39.1121 34.9129 39.3933C34.8941 39.4121 35.0691 39.8246 35.1316 39.8058C35.5254 39.7371 36.0316 39.8683 36.2441 39.6808C36.2629 40.0871 37.3566 41.1996 37.0566 41.4871C36.9379 41.6058 36.6816 41.5183 36.6441 41.5558C36.5754 41.6246 36.7629 41.9433 36.8129 41.9933C36.9254 42.1183 37.2504 42.0933 37.3629 41.9871C37.7816 41.5808 36.6941 40.2746 36.7629 40.2058C36.7754 40.1933 37.9566 41.0621 38.4379 40.5996C38.5191 40.5246 38.4191 40.0558 38.3504 39.9871C38.2816 39.9183 37.8504 39.9246 37.7754 40.0058L37.7691 39.9933Z" fill="white"/>
<path d="M12.1561 34.9193C12.2061 34.938 12.2811 34.938 12.3811 34.9193C12.4811 34.9005 12.6561 34.863 12.8936 34.8068C12.9311 34.8068 12.9311 34.7943 12.9123 34.7693V34.7443C11.8936 34.263 12.7186 34.6505 11.7311 34.1318C10.7436 33.613 9.76232 33.063 8.79357 32.488C8.73732 32.4568 8.68731 32.4505 8.64981 32.4568C8.61231 32.4693 8.51231 32.4818 8.35606 32.5068C8.09356 32.5755 7.99357 32.6255 8.04982 32.6505C9.01857 33.2255 9.99356 33.7755 10.9748 34.3005C11.9561 34.8255 11.1311 34.438 12.1498 34.9193H12.1561Z" fill="white"/>
<path d="M31.2192 10.2938C32.8317 10.5875 34.4317 10.925 36.0067 11.3C37.5817 11.675 39.1567 12.0938 40.738 12.55C40.7817 12.5625 40.8255 12.5688 40.8567 12.575C40.888 12.575 40.9317 12.575 40.9692 12.5563C41.013 12.5438 41.063 12.5188 41.1317 12.4813C41.2005 12.45 41.288 12.4 41.4005 12.3438C41.588 12.25 41.7317 12.1751 41.8192 12.1126C41.913 12.0501 41.9192 12.0125 41.838 11.9938C40.263 11.5375 38.688 11.1188 37.1067 10.7375C35.5317 10.3563 33.9317 10.0188 32.3192 9.72505C32.2442 9.7188 32.1317 9.7438 31.9755 9.81255C31.8255 9.8813 31.5692 10.0063 31.2192 10.1938C31.1817 10.2063 31.1755 10.2251 31.188 10.2563L31.213 10.3L31.2192 10.2938Z" fill="white"/>
<path d="M12.1249 16.8695C12.1249 16.8695 12.1562 16.907 12.1812 16.8882L12.2187 16.8632C12.3437 15.382 12.5124 13.9195 12.7187 12.4632C12.9249 11.0132 13.1624 9.55697 13.4374 8.09447C13.4437 8.05697 13.4499 8.01947 13.4499 7.98822C13.4499 7.95697 13.4374 7.92571 13.4187 7.88821C13.3999 7.85071 13.3749 7.80697 13.3374 7.74447C13.2999 7.68822 13.2562 7.60697 13.1937 7.51322C13.0937 7.35072 13.0187 7.23197 12.9562 7.15072C12.8937 7.07572 12.8562 7.06947 12.8499 7.13822C12.5749 8.59447 12.3312 10.0507 12.1249 11.507C11.9187 12.9632 11.7499 14.4257 11.6187 15.907C11.6187 15.9757 11.6562 16.0757 11.7249 16.207C11.7999 16.3382 11.9312 16.557 12.1249 16.857V16.8695Z" fill="white"/>
<path d="M19.8065 40.7252C18.344 40.5627 16.894 40.3627 15.4565 40.1252C14.019 39.8877 12.5815 39.6127 11.144 39.3064C11.1065 39.3002 11.069 39.2939 11.0378 39.2939C11.0065 39.2939 10.9753 39.3002 10.9378 39.319C10.9003 39.3377 10.8565 39.3627 10.794 39.3939C10.7378 39.4314 10.6565 39.4752 10.5628 39.5314C10.4003 39.6252 10.2815 39.7064 10.2003 39.7627C10.1253 39.8252 10.119 39.8627 10.1878 39.8689C11.6253 40.1752 13.0628 40.4564 14.5003 40.6939C15.9378 40.9377 17.3878 41.1377 18.8503 41.3002C18.919 41.3002 19.019 41.2689 19.1503 41.2002C19.2815 41.1314 19.5003 41.0002 19.8065 40.8127C19.8378 40.8002 19.844 40.7815 19.8253 40.7565L19.8003 40.7189L19.8065 40.7252Z" fill="white"/>
<path d="M44.2064 30.5991C44.1626 30.5741 44.1064 30.5366 44.0251 30.4866C43.9501 30.4366 43.8689 30.3866 43.7876 30.3366L43.5626 30.2116C43.4939 30.1741 43.4564 30.1553 43.4501 30.1553C43.2126 30.1741 42.9689 30.1866 42.7126 30.1928C42.4564 30.1928 42.2127 30.1928 41.9814 30.1678C40.8751 30.0241 39.8001 29.7991 38.7564 29.5366C37.7126 29.2678 36.6564 28.9678 35.5939 28.6303C35.2314 28.5178 34.9001 28.4303 34.5939 28.3678C34.2876 28.3053 34.0001 28.2803 33.7376 28.2866C33.4751 28.2928 33.2251 28.3428 32.9939 28.4241C32.7626 28.5116 32.5251 28.6428 32.2876 28.8178L31.8501 29.1428C31.7001 29.2553 31.5501 29.3741 31.4001 29.5053C31.4001 29.5178 31.3876 29.5303 31.3751 29.5491C31.3626 29.5678 31.3751 29.5866 31.3876 29.6053C31.4689 29.6866 31.5501 29.7553 31.6189 29.8178L31.8939 30.0553C31.9439 30.1053 32.0001 30.1178 32.0564 30.0866C32.1251 30.0366 32.2064 29.9866 32.2939 29.9366C32.3814 29.8866 32.4751 29.8428 32.5751 29.7991C32.6751 29.7553 32.7814 29.7241 32.8876 29.6928C32.9939 29.6678 33.1001 29.6553 33.2126 29.6553C33.3626 29.6553 33.5001 29.6803 33.6251 29.7116C33.7501 29.7491 33.8814 29.8053 34.0251 29.8866C34.1001 29.9303 34.1876 30.0116 34.2814 30.1428C34.3751 30.2741 34.4564 30.4116 34.5126 30.5616C34.5751 30.7116 34.6126 30.8616 34.6189 30.9991C34.6251 31.1366 34.5876 31.2428 34.5064 31.2991C34.4189 31.3616 34.2814 31.3866 34.1126 31.3678C33.9439 31.3491 33.7626 31.3428 33.5751 31.3303C33.3876 31.3241 33.2064 31.3303 33.0251 31.3678C32.8439 31.3991 32.7064 31.5053 32.5939 31.6803C32.5064 31.8178 32.4626 31.9616 32.4501 32.1178C32.4376 32.2741 32.4501 32.4366 32.4876 32.5991C32.5251 32.7616 32.5814 32.9303 32.6564 33.0928C32.7314 33.2553 32.8251 33.4116 32.9314 33.5491C32.7939 33.4366 32.6439 33.3366 32.4751 33.2366C32.3126 33.1428 32.1439 33.0678 31.9751 33.0116C31.8064 32.9553 31.6501 32.9428 31.4939 32.9553C31.3376 32.9741 31.2001 33.0491 31.0751 33.1741C30.9314 33.3053 30.8314 33.4553 30.7626 33.6241C30.6939 33.7991 30.6439 33.9678 30.6064 34.1428C30.5689 34.3178 30.5314 34.4928 30.5001 34.6553C30.4689 34.8178 30.4189 34.9678 30.3501 35.0866C30.2064 34.7991 30.0501 34.5991 29.8939 34.4741C29.7314 34.3491 29.5751 34.2866 29.4189 34.2678C29.2626 34.2553 29.1126 34.2928 28.9626 34.3803C28.8189 34.4678 28.6876 34.5866 28.5689 34.7303C28.4501 34.8741 28.3439 35.0553 28.2564 35.2616C28.1689 35.4678 28.1126 35.6866 28.0876 35.9116C27.9001 35.5678 27.6939 35.3678 27.4751 35.2991C27.2564 35.2303 27.0564 35.2553 26.8689 35.3803C26.6814 35.4991 26.5314 35.6991 26.4064 35.9803C26.2814 36.2616 26.2439 36.5866 26.3001 36.9678C26.3064 37.0303 26.3314 37.1116 26.3751 37.2241C26.4189 37.3366 26.4689 37.4491 26.5189 37.5553C26.5689 37.6678 26.6251 37.7553 26.6751 37.8303C26.7251 37.9053 26.7626 37.9366 26.7939 37.9303C26.8064 37.9241 26.8189 37.8803 26.8314 37.7991C26.8439 37.7241 26.8564 37.6366 26.8626 37.5366C26.8689 37.4366 26.8751 37.3428 26.8751 37.2553C26.8751 37.1678 26.8751 37.1053 26.8751 37.0803C26.8751 37.0616 26.8564 37.0366 26.8189 36.9991L26.7189 36.8928C26.6814 36.8553 26.6501 36.8116 26.6126 36.7616C26.5814 36.7178 26.5564 36.6741 26.5439 36.6303C26.6001 36.5491 26.7064 36.4678 26.8501 36.3991C26.9939 36.3303 27.1126 36.2741 27.2189 36.2491C27.3689 36.2116 27.4814 36.2116 27.5751 36.2616C27.6626 36.3053 27.7314 36.3741 27.7751 36.4678C27.8189 36.5616 27.8439 36.6741 27.8439 36.7991C27.8439 36.9241 27.8314 37.0491 27.8001 37.1678C27.7876 37.2116 27.8064 37.2428 27.8501 37.2553C27.8939 37.2678 27.9314 37.2553 27.9564 37.2116C28.0251 37.1241 28.0939 36.9928 28.1501 36.8241C28.2064 36.6553 28.2876 36.4741 28.3751 36.2866C28.4689 36.0991 28.5876 35.9178 28.7376 35.7366C28.8814 35.5553 29.0814 35.4178 29.3439 35.2991C29.4939 35.2366 29.6189 35.2053 29.7376 35.2178C29.8564 35.2241 29.9564 35.2616 30.0501 35.3303C30.1376 35.3991 30.2126 35.4928 30.2689 35.6178C30.3251 35.7428 30.3564 35.8803 30.3564 36.0428C30.3564 36.0741 30.3689 36.1053 30.3876 36.1366C30.4126 36.1678 30.4376 36.1678 30.4689 36.1491C30.5314 36.1178 30.5939 36.0116 30.6564 35.8366L30.8689 35.2303C30.9501 35.0053 31.0501 34.7741 31.1689 34.5428C31.2876 34.3116 31.4501 34.1241 31.6564 33.9678C31.8189 33.8491 31.9876 33.7991 32.1626 33.8178C32.3376 33.8428 32.5126 33.8991 32.6939 33.9866C32.8751 34.0803 33.0439 34.1928 33.2064 34.3303C33.3751 34.4678 33.5189 34.5866 33.6501 34.6928C33.9751 34.9553 34.3251 35.2053 34.7064 35.4428C35.0814 35.6803 35.4501 35.8491 35.8189 35.9553C35.8564 35.9678 35.8876 35.9553 35.9126 35.9241C35.9376 35.8866 35.9439 35.8616 35.9314 35.8366C35.9064 35.7991 35.8626 35.7303 35.8189 35.6303C35.7689 35.5366 35.7189 35.4366 35.6626 35.3366L35.5064 35.0678C35.4626 34.9866 35.4251 34.9428 35.4064 34.9366C35.2751 34.8866 35.1001 34.8116 34.8689 34.6928C34.6439 34.5803 34.4189 34.4491 34.1939 34.3053C33.9689 34.1616 33.7626 34.0116 33.5751 33.8616C33.3876 33.7053 33.2626 33.5678 33.2064 33.4491C33.1564 33.3553 33.1189 33.2616 33.1064 33.1553C33.0876 33.0491 33.0876 32.9491 33.1064 32.8491C33.1189 32.7491 33.1439 32.6491 33.1876 32.5616C33.2251 32.4678 33.2751 32.3928 33.3376 32.3241C33.4251 32.2116 33.5251 32.1428 33.6439 32.1178C33.7626 32.0928 33.8814 32.0803 34.0064 32.0803C34.1314 32.0803 34.2626 32.0991 34.3939 32.1241C34.5314 32.1491 34.6501 32.1678 34.7689 32.1741C34.8814 32.1803 34.9876 32.1741 35.0751 32.1428C35.1626 32.1116 35.2251 32.0491 35.2689 31.9553C35.3439 31.7741 35.3751 31.5741 35.3501 31.3616C35.3251 31.1491 35.2626 30.9428 35.1626 30.7428C35.0626 30.5428 34.9314 30.3491 34.7689 30.1678C34.6126 29.9866 34.4376 29.8241 34.2564 29.6803C34.0689 29.5366 33.8876 29.4178 33.6939 29.3178C33.5626 29.2491 33.4314 29.1928 33.3126 29.1553C33.6376 28.9616 33.9689 28.8553 34.3376 28.8428C34.7689 28.8303 35.2501 28.9053 35.7814 29.0866C36.8314 29.4428 37.8689 29.7803 38.9064 30.0928C39.9439 30.4053 41.0126 30.6553 42.1126 30.8303C42.3876 30.8616 42.6689 30.8866 42.9689 30.8991C43.2626 30.9116 43.5251 30.9053 43.7439 30.8803C43.9689 30.8553 44.1251 30.8178 44.2251 30.7678C44.3251 30.7178 44.3126 30.6491 44.2001 30.5678L44.2064 30.5991Z" fill="white"/>
<path d="M36.2688 33.1003C36.2688 33.1003 36.225 33.1191 36.2188 33.1253C36.2125 33.1253 36.2125 33.1503 36.2188 33.1816C36.25 33.2628 36.2938 33.3816 36.3376 33.5441C36.3813 33.7003 36.4188 33.8191 36.4438 33.8941C36.4563 33.9003 36.4626 33.9128 36.4751 33.9253C36.4813 33.9378 36.4938 33.9378 36.5063 33.9253C36.5501 33.9128 36.6188 33.8878 36.7001 33.8566C36.7813 33.8253 36.8751 33.7878 36.9626 33.7441C37.0563 33.7003 37.15 33.6566 37.2438 33.6066L37.4813 33.4753C37.4813 33.4753 37.5188 33.4378 37.5063 33.4191L37.4 33.1566C37.3625 33.0691 37.3251 32.9691 37.2876 32.8691C37.3438 32.8441 37.4125 32.8191 37.4875 32.7753C37.5688 32.7378 37.65 32.6941 37.7313 32.6503C37.8125 32.6066 37.8938 32.5566 37.9751 32.5003L38.1688 32.3628C38.1688 32.3628 38.2 32.3316 38.2 32.3066L38.0188 31.9566C37.9501 31.8316 37.8938 31.7066 37.8376 31.5941C37.8251 31.5753 37.8001 31.5753 37.7751 31.5878C37.6438 31.6878 37.5063 31.7816 37.3625 31.8691C37.2188 31.9566 37.0688 32.0316 36.9188 32.0941C36.8938 32.1066 36.8813 32.1128 36.8751 32.1191C36.8688 32.1191 36.8751 32.1441 36.8813 32.1753L36.9813 32.4191L37.1001 32.7066C36.9626 32.7878 36.8251 32.8628 36.6813 32.9316C36.5376 33.0003 36.3938 33.0566 36.2501 33.1003H36.2688Z" fill="white"/>
<path d="M37.7376 32.9566C37.7376 32.9566 37.7314 32.9816 37.7439 33.0128C37.7751 33.1003 37.8189 33.2253 37.8689 33.3878C37.9189 33.5503 37.9626 33.6691 38.0064 33.7378C38.0064 33.7691 38.0251 33.7816 38.0564 33.7753C38.1064 33.7566 38.1689 33.7253 38.2564 33.6816C38.3439 33.6378 38.4314 33.5941 38.5314 33.5378C38.6314 33.4878 38.7251 33.4316 38.8189 33.3628C38.9126 33.3003 38.9877 33.2441 39.0502 33.1941C39.0752 33.1753 39.0876 33.1566 39.0814 33.1378L38.9127 32.7628C38.8564 32.6253 38.8001 32.5003 38.7501 32.3753C38.7376 32.3566 38.7126 32.3566 38.6814 32.3691C38.5439 32.4878 38.3939 32.5878 38.2439 32.6816C38.0939 32.7753 37.9376 32.8503 37.7876 32.9253C37.7626 32.9378 37.7439 32.9503 37.7376 32.9566Z" fill="white"/>
<path d="M38.9188 35.3505C38.9188 35.3505 38.8875 35.3255 38.85 35.338C38.6875 35.4442 38.5188 35.538 38.3438 35.6255C38.1688 35.713 37.9938 35.7817 37.8188 35.8442C37.7938 35.8567 37.775 35.863 37.7625 35.8692C37.7563 35.8692 37.7501 35.8942 37.7501 35.938L37.7938 36.213L37.8438 36.538C37.6813 36.6192 37.5125 36.6942 37.3438 36.7567C37.175 36.8192 37.0063 36.8692 36.8375 36.913C36.8063 36.9255 36.7876 36.9317 36.7813 36.938C36.7751 36.938 36.7688 36.963 36.7688 37.0005C36.7813 37.0942 36.7938 37.2255 36.8001 37.4067C36.8001 37.5817 36.8125 37.713 36.825 37.7942C36.8375 37.8067 36.8438 37.813 36.8501 37.8317C36.8563 37.8442 36.8688 37.8442 36.8876 37.838C36.9438 37.8255 37.0188 37.8067 37.1126 37.7755C37.2126 37.7442 37.3188 37.713 37.4313 37.6755C37.5438 37.638 37.6563 37.5942 37.7688 37.5505L38.0563 37.4255C38.0938 37.4067 38.1063 37.388 38.1001 37.363L38.0563 37.0692C38.0375 36.9692 38.0251 36.8567 38.0126 36.7442C38.0751 36.7255 38.1563 36.6942 38.25 36.6567C38.3438 36.6192 38.4438 36.5817 38.5438 36.538C38.6438 36.4942 38.7438 36.4442 38.8375 36.3942L39.0813 36.2567C39.0813 36.2567 39.1251 36.2255 39.1251 36.2005L39.025 35.7942C38.9875 35.6505 38.9563 35.5067 38.9313 35.3692L38.9188 35.3505Z" fill="white"/>
<path d="M14.3623 36.8748C14.3623 36.8748 14.3435 36.8311 14.3435 36.8248C14.3435 36.8186 14.3185 36.8123 14.281 36.8186L14.0123 36.8623L13.6935 36.9123C13.6185 36.7498 13.5623 36.5873 13.506 36.4248C13.456 36.2561 13.4123 36.0936 13.381 35.9311C13.3748 35.9061 13.3685 35.8873 13.3623 35.8748C13.3623 35.8685 13.3373 35.8623 13.2998 35.8623C13.2123 35.8748 13.081 35.8873 12.906 35.8998C12.7373 35.9061 12.606 35.9186 12.531 35.9311C12.5185 35.9373 12.5123 35.9498 12.4935 35.9498C12.481 35.9498 12.4748 35.9686 12.4873 35.9873C12.4998 36.0373 12.5123 36.1123 12.5373 36.2123C12.5623 36.3061 12.5873 36.4123 12.6248 36.5185C12.656 36.6248 12.6935 36.7373 12.7373 36.8435L12.8435 37.1248C12.8623 37.1623 12.881 37.1748 12.8998 37.1686L13.1873 37.1186C13.2873 37.0998 13.3935 37.0873 13.506 37.0686C13.5248 37.1311 13.5498 37.206 13.581 37.2998C13.6123 37.3935 13.6498 37.4873 13.6873 37.5873C13.7248 37.6811 13.7685 37.7811 13.8123 37.8748L13.931 38.1123C13.931 38.1123 13.9623 38.1561 13.9873 38.1561L14.381 38.0498C14.5185 38.0123 14.656 37.981 14.7935 37.956C14.8123 37.9435 14.8185 37.9248 14.8123 37.8936C14.7185 37.7373 14.6373 37.5686 14.5623 37.3936C14.4873 37.2186 14.4248 37.0498 14.3748 36.881L14.3623 36.8748Z" fill="white"/>
<path d="M11.1873 30.0501C12.1623 29.5813 13.1623 29.1313 14.1811 28.6938C14.3186 28.6376 14.4748 28.5688 14.6561 28.4876C14.8373 28.4063 15.0186 28.3188 15.2061 28.2188C15.3936 28.1188 15.5748 28.0188 15.7436 27.9063C15.9123 27.8001 16.0561 27.6813 16.1811 27.5626C16.2998 27.4438 16.3873 27.3188 16.4373 27.1938C16.4873 27.0688 16.4811 26.9376 16.4186 26.8001C16.3186 26.5751 16.1998 26.3563 16.0748 26.1563L15.6873 25.5376C15.5561 25.3251 15.4311 25.1063 15.3123 24.8751C15.1936 24.6438 15.0873 24.3938 15.0061 24.1188C14.9373 23.8876 14.8936 23.6376 14.8686 23.3688C14.8811 23.3688 14.8936 23.3813 14.9061 23.3813C15.1123 23.4563 15.3623 23.5188 15.6498 23.5876C15.9373 23.6501 16.2186 23.6813 16.4998 23.6876C16.7811 23.6876 17.0248 23.6626 17.2373 23.6001C17.4498 23.5376 17.5873 23.4251 17.6561 23.2501C17.6998 23.1501 17.7061 23.0251 17.6811 22.8813C17.6561 22.7376 17.6186 22.5813 17.5561 22.4063C17.4998 22.2313 17.4248 22.0438 17.3373 21.8438L17.0748 21.2251C16.9811 21.0126 16.8936 20.8063 16.7998 20.6001C16.7061 20.3938 16.6186 20.2001 16.5311 20.0251C16.4123 19.7938 16.2561 19.5876 16.0561 19.4063C15.8561 19.2251 15.6561 19.0438 15.4436 18.8688L15.8936 19.0563C16.0623 19.1251 16.2311 19.2001 16.4061 19.2688C16.5811 19.3376 16.7623 19.4001 16.9373 19.4563C17.1123 19.5126 17.2811 19.5438 17.4311 19.5563C17.5811 19.5688 17.7186 19.5563 17.8311 19.5126C17.9498 19.4688 18.0373 19.3876 18.1061 19.2626C18.2248 19.0376 18.3186 18.8188 18.4061 18.5938L18.6561 17.9063C18.7373 17.6751 18.8373 17.4438 18.9373 17.2063C19.0436 16.9688 19.1748 16.7313 19.3373 16.5001C19.4998 16.2688 19.7061 16.0438 19.9436 15.8376C20.1873 15.6313 20.4811 15.4438 20.8373 15.2876C20.8686 15.2751 20.8811 15.2126 20.8686 15.1001C20.8623 14.9876 20.8623 14.8751 20.8686 14.7626C20.8686 14.6501 20.8561 14.5438 20.8436 14.4501C20.8311 14.3563 20.7936 14.3188 20.7373 14.3438C20.3561 14.5001 19.9748 14.6501 19.5998 14.7876C19.2248 14.9313 18.8498 15.0813 18.4686 15.2438C18.0936 15.4063 17.7186 15.5813 17.3436 15.7688C16.9686 15.9626 16.5998 16.1813 16.2373 16.4376C16.2686 16.2876 16.2748 16.1251 16.2561 15.9501C16.2373 15.7751 16.2123 15.6001 16.1748 15.4251C16.1373 15.2501 16.0998 15.0813 16.0561 14.9188C16.0123 14.7563 15.9748 14.6126 15.9436 14.4813C15.9123 14.3501 15.8936 14.2438 15.8811 14.1626C15.8748 14.0813 15.8811 14.0313 15.9248 14.0188C15.9498 14.0188 15.9998 14.0376 16.0686 14.0813L16.3248 14.2563C16.4311 14.3251 16.5436 14.3938 16.6686 14.4563C16.7936 14.5188 16.9248 14.5626 17.0686 14.5938C17.2123 14.6188 17.3561 14.6188 17.4998 14.5813C17.6498 14.5501 17.7936 14.4626 17.9373 14.3313C18.0686 14.2126 18.1998 14.0813 18.3186 13.9251C18.4373 13.7688 18.5623 13.6126 18.6811 13.4501L19.0311 12.9563C19.1436 12.7938 19.2623 12.6376 19.3811 12.4938C19.6748 12.7313 19.9623 12.8938 20.2436 12.9876C20.5123 13.0751 20.7998 13.0751 21.1248 12.9876C21.1186 13.0376 21.1061 13.0938 21.0998 13.1501C21.0811 13.3063 21.0686 13.4438 21.0686 13.5688C21.0686 13.9501 21.1498 14.2876 21.2998 14.5688C21.4498 14.8501 21.6436 15.0876 21.8873 15.2688C22.1311 15.4501 22.4186 15.5876 22.7373 15.6813C23.0623 15.7751 23.3998 15.8126 23.7498 15.8063C24.1623 15.8001 24.6248 15.7438 25.1373 15.6438C25.4248 15.5876 25.7061 15.5188 25.9936 15.4438C25.9248 15.6063 25.8623 15.7626 25.8186 15.9251C25.7561 16.1376 25.7248 16.3438 25.7186 16.5438C25.7123 16.7501 25.7436 16.9376 25.8123 17.1126C25.8811 17.2876 25.9998 17.4376 26.1686 17.5626C26.3311 17.6876 26.5561 17.7751 26.8373 17.8313C27.0186 17.8688 27.2186 17.8876 27.4498 17.8813C27.6811 17.8813 27.9248 17.8626 28.1811 17.8313C28.4373 17.8001 28.6998 17.7626 28.9686 17.7063C29.2373 17.6501 29.4936 17.5876 29.7436 17.5126C29.9936 17.4438 30.2248 17.3626 30.4436 17.2751C30.6561 17.1876 30.8436 17.0938 30.9998 17.0001C31.1623 16.9001 31.3186 16.7563 31.4623 16.5626C31.6061 16.3688 31.7061 16.1813 31.7686 15.9938C31.8186 15.8501 31.8436 15.7188 31.8311 15.6063C31.8248 15.4938 31.8061 15.3876 31.7811 15.2876C31.7561 15.1876 31.7311 15.0813 31.7061 14.9751C31.681 14.8688 31.6811 14.7438 31.6936 14.6001V14.5813L32.0873 14.6501L32.6436 14.7501C32.5498 14.8563 32.4811 14.9626 32.4311 15.0563C32.3811 15.1501 32.3498 15.2438 32.3373 15.3313C32.3248 15.4188 32.3248 15.5126 32.3373 15.6126C32.3498 15.7126 32.3748 15.8251 32.4123 15.9438L32.2373 16.0438C32.1686 16.0813 32.1061 16.1188 32.0498 16.1563C31.9936 16.1938 31.9436 16.2376 31.9123 16.2751C31.8748 16.3126 31.8623 16.3438 31.8686 16.3751C31.8748 16.4126 31.906 16.4251 31.9498 16.4251C31.9935 16.4251 32.0498 16.4126 32.1123 16.3876C32.1748 16.3626 32.2498 16.3313 32.3248 16.3001L32.5436 16.2001C32.7623 16.5438 33.0123 16.8876 33.3061 17.2376C33.5998 17.5876 33.9061 17.9376 34.2311 18.3001C34.5498 18.6563 34.8748 19.0126 35.1998 19.3626C35.5311 19.7126 35.8373 20.0438 36.1436 20.3501C36.2623 20.4688 36.3936 20.6001 36.5311 20.7501C36.6748 20.9001 36.7936 21.0313 36.8873 21.1501C36.6123 21.4063 36.4061 21.6563 36.2748 21.9126C36.1561 22.1438 36.1123 22.4063 36.1373 22.7001C35.9123 22.6376 35.6811 22.5876 35.4436 22.5563C35.2373 22.5251 35.0186 22.5063 34.7811 22.5063C34.5498 22.5063 34.3186 22.5251 34.0936 22.5626C33.8686 22.6001 33.6623 22.6626 33.4686 22.7438C33.2748 22.8313 33.1123 22.9438 32.9811 23.0938C32.8498 23.2376 32.7623 23.4188 32.7248 23.6313C32.6811 23.8438 32.6998 24.1001 32.7811 24.3876C32.8561 24.6688 32.9936 24.9813 33.1811 25.3313C33.3686 25.6813 33.5936 26.0251 33.8498 26.3688C34.1061 26.7126 34.3748 27.0251 34.6498 27.3126C34.9248 27.6001 35.1873 27.8188 35.4373 27.9688C35.5686 28.0501 35.706 28.1188 35.856 28.1688C36.0061 28.2188 36.1623 28.2501 36.3186 28.2626C36.4748 28.2751 36.6311 28.2688 36.7873 28.2501C36.9436 28.2251 37.0936 28.1813 37.2373 28.1188C37.3561 28.0688 37.4811 27.9876 37.6311 27.8813C37.7748 27.7751 37.9123 27.6626 38.0498 27.5501C38.1811 27.4376 38.3061 27.3313 38.4123 27.2438C38.5186 27.1563 38.6061 27.1001 38.6623 27.0876C38.6811 27.0876 38.6936 27.0938 38.6873 27.1188C38.6873 27.1438 38.6811 27.1751 38.6748 27.2126C38.6686 27.2501 38.6623 27.2876 38.6498 27.3251C38.6373 27.3626 38.6373 27.3876 38.6373 27.4063C38.6373 27.4626 38.6623 27.4938 38.6998 27.5063C38.7373 27.5188 38.7686 27.5063 38.7998 27.4813C38.8936 27.3751 39.0123 27.2313 39.1686 27.0501C39.3248 26.8688 39.4873 26.6563 39.6561 26.4063C39.6998 26.3188 39.6811 26.2688 39.5998 26.2563C39.5561 26.2501 39.4935 26.2376 39.4123 26.2376C39.3311 26.2376 39.2498 26.2251 39.1686 26.2251C39.0748 26.2126 38.9686 26.2063 38.8623 26.2063C38.8248 26.2313 38.7936 26.2751 38.7686 26.3313C38.7436 26.3938 38.7186 26.4251 38.6811 26.4376C38.3811 26.5501 38.1123 26.6938 37.8748 26.8626C37.6373 27.0313 37.431 27.1876 37.2435 27.3438C37.0623 27.4938 36.8936 27.6313 36.7498 27.7438C36.6061 27.8563 36.4748 27.9188 36.3623 27.9251C36.1998 27.8188 36.0311 27.6813 35.8498 27.5188C35.6686 27.3563 35.4936 27.1688 35.3123 26.9626C35.1311 26.7563 34.9561 26.5376 34.7811 26.3126C34.6061 26.0876 34.4498 25.8563 34.3061 25.6251C34.1623 25.3938 34.0436 25.1688 33.9373 24.9501C33.8311 24.7313 33.7561 24.5313 33.6998 24.3438C33.6123 24.0251 33.6123 23.7563 33.6936 23.5438C33.7748 23.3313 33.9061 23.1626 34.0936 23.0376C34.2811 22.9126 34.4936 22.8313 34.7561 22.7938C35.0123 22.7563 35.2748 22.7563 35.5311 22.7938C35.7373 22.8251 35.9373 22.8626 36.1248 22.9126C36.1373 22.9126 36.156 22.9188 36.1685 22.9251C36.1998 23.0376 36.2498 23.1251 36.3248 23.1938C36.4248 23.2876 36.5436 23.3563 36.6811 23.4001C36.8186 23.4438 36.9623 23.4688 37.1186 23.4688C37.2748 23.4688 37.4185 23.4688 37.556 23.4501C37.8748 23.4188 38.0998 23.3251 38.2498 23.1626C38.3936 23.0001 38.4748 22.8001 38.4873 22.5688C38.4998 22.3376 38.4561 22.0813 38.3498 21.8251C38.2436 21.5688 38.106 21.3313 37.9373 21.1251C37.9185 21.1063 37.8998 21.0876 37.8811 21.0626C37.9061 21.0251 37.9186 21.0001 37.9248 20.9938C37.9311 20.9813 37.9436 20.9688 37.9686 20.9438C38.1748 20.7376 38.4561 20.5313 38.8186 20.3188C39.1811 20.1063 39.5685 19.9001 39.9748 19.6938C40.3873 19.4938 40.7936 19.3063 41.1936 19.1313C41.5936 18.9563 41.9373 18.8063 42.2185 18.6751C42.2935 18.6438 42.3498 18.6126 42.3998 18.5938C42.4498 18.5751 42.4935 18.5563 42.5373 18.5313C42.5811 18.5126 42.6311 18.4876 42.6811 18.4688C42.7311 18.4501 42.7998 18.4188 42.8811 18.3938C42.9061 18.3876 42.9123 18.3938 42.906 18.4251C42.8998 18.4501 42.8811 18.4876 42.8498 18.5313C42.8248 18.5751 42.7873 18.6188 42.7561 18.6751C42.7186 18.7251 42.6936 18.7751 42.6811 18.8126C42.6623 18.8688 42.6685 18.9126 42.7123 18.9376C42.7498 18.9626 42.8061 18.9501 42.8748 18.9063C42.9248 18.8751 43.0248 18.7938 43.156 18.6751C43.2935 18.5563 43.4435 18.4126 43.606 18.2563C43.7685 18.1001 43.931 17.9438 44.0935 17.7813C44.256 17.6251 44.3873 17.4876 44.4936 17.3751C44.5248 17.3438 44.5311 17.3126 44.5186 17.2876C44.4998 17.2626 44.4748 17.2438 44.4373 17.2438C44.4186 17.2438 44.3623 17.2438 44.2748 17.2438C44.1873 17.2438 44.0998 17.2438 43.9998 17.2438C43.906 17.2438 43.8186 17.2501 43.7311 17.2563C43.6498 17.2626 43.6061 17.2751 43.5936 17.2876C43.5623 17.3063 43.5311 17.3438 43.4873 17.4063C43.4436 17.4688 43.3998 17.5126 43.3498 17.5376C43.0623 17.6751 42.7748 17.8126 42.4935 17.9438C42.206 18.0751 41.9311 18.2063 41.6623 18.3313C41.3811 18.4626 41.0373 18.6188 40.6373 18.7938C40.2373 18.9689 39.8311 19.1563 39.4186 19.3626C39.0061 19.5626 38.6248 19.7751 38.2623 19.9876C37.9186 20.1876 37.6498 20.3876 37.4498 20.5813L37.1873 20.2813C37.0998 20.1813 37.0186 20.0938 36.9436 20.0251C36.8061 19.8688 36.6623 19.7063 36.5123 19.5501L36.1186 19.1251C36.3686 19.1876 36.6186 19.2251 36.8873 19.2438C37.1498 19.2626 37.3998 19.2313 37.6373 19.1313C37.8248 19.0563 37.981 18.9126 38.0936 18.7001C38.1998 18.4876 38.2748 18.2376 38.3061 17.9626C38.3373 17.6876 38.3248 17.4063 38.2748 17.1251C38.2186 16.8438 38.1311 16.6001 38.0123 16.4063C37.8498 16.1501 37.6373 15.9313 37.3811 15.7626C37.1248 15.5938 36.8436 15.4626 36.5373 15.3751C36.2311 15.2876 35.9186 15.2376 35.5998 15.2188C35.2811 15.2063 34.9748 15.2188 34.6811 15.2501C34.3873 15.2813 34.1123 15.3313 33.8686 15.4001C33.6186 15.4688 33.4123 15.5251 33.2373 15.5751C33.1061 15.3063 33.0498 15.0563 33.0873 14.8251C33.1248 14.5938 33.2936 14.4063 33.6123 14.2813C33.6436 14.2626 33.656 14.2376 33.6498 14.2063C33.6436 14.1751 33.6123 14.1501 33.5748 14.1438L32.7811 13.9876L31.9811 13.8126H31.9623C31.8998 13.8251 31.8373 13.8501 31.7811 13.8813L31.6561 13.9251L31.4623 14.2251C31.406 14.3126 31.3561 14.4063 31.3123 14.5001C31.2061 14.7188 31.1561 14.9001 31.1623 15.0438C31.1686 15.1876 31.1936 15.3188 31.2311 15.4376C31.2686 15.5563 31.2998 15.6688 31.3373 15.7813C31.3686 15.8938 31.3685 16.0251 31.3248 16.1751C31.1686 16.2688 30.9811 16.3626 30.7686 16.4501C30.556 16.5376 30.3186 16.6188 30.0686 16.6876C29.8186 16.7563 29.556 16.8251 29.2936 16.8813C29.0248 16.9376 28.7686 16.9813 28.5123 17.0063C28.2561 17.0313 28.0123 17.0501 27.7811 17.0501C27.5498 17.0501 27.3436 17.0376 27.1623 17.0063C26.8498 16.9501 26.6123 16.8376 26.4623 16.6751C26.3123 16.5126 26.2186 16.3251 26.1936 16.1126C26.1623 15.9001 26.1936 15.6751 26.2686 15.4376C26.2811 15.4126 26.2873 15.3813 26.2998 15.3563C26.4186 15.3188 26.5436 15.2813 26.6623 15.2438C27.1811 15.0751 27.6748 14.8876 28.1561 14.6688C28.6311 14.4501 29.0436 14.2188 29.3748 13.9751C29.5998 13.8126 29.7561 13.6063 29.8561 13.3626C29.9498 13.1188 29.9998 12.8563 29.9998 12.5876C29.9998 12.3188 29.9498 12.0438 29.8623 11.7688C29.7748 11.4938 29.6561 11.2501 29.5061 11.0313C29.3561 10.8126 29.1811 10.6376 28.9748 10.5126C28.7748 10.3814 28.5561 10.3251 28.3248 10.3376C28.1373 10.3438 27.9686 10.4313 27.8248 10.5938C27.6811 10.7563 27.5686 10.9438 27.4936 11.1626C27.4123 11.3813 27.3811 11.6063 27.3873 11.8313C27.3936 12.0563 27.4561 12.2376 27.5748 12.3751C27.6498 12.4626 27.7498 12.5188 27.8748 12.5438C27.9998 12.5688 28.1373 12.5813 28.2811 12.5813C28.4248 12.5813 28.5748 12.5813 28.7311 12.5688C28.8873 12.5626 29.0311 12.5688 29.1686 12.5938C29.2998 12.6188 29.4186 12.6626 29.5123 12.7313C29.6123 12.8001 29.6748 12.9126 29.7123 13.0563C29.3686 13.2876 28.9623 13.5188 28.4811 13.7313C28.0061 13.9501 27.5061 14.1376 26.9873 14.3063C26.4686 14.4751 25.9498 14.6126 25.4436 14.7188C24.9311 14.8251 24.4748 14.8813 24.0623 14.8876C23.8061 14.8876 23.5248 14.8688 23.2123 14.8126C22.8998 14.7563 22.6123 14.6626 22.3498 14.5313C22.0873 14.4001 21.8623 14.2188 21.6748 13.9938C21.4936 13.7688 21.3998 13.4938 21.3936 13.1626C21.3936 13.0688 21.3936 12.9626 21.4061 12.8563C21.4561 12.8188 21.5061 12.7813 21.5373 12.7313C21.6248 12.6126 21.6811 12.4876 21.7061 12.3438C21.7311 12.2001 21.7373 12.0501 21.7248 11.8938C21.7123 11.7376 21.6873 11.5938 21.6561 11.4626C21.5811 11.1501 21.4498 10.9376 21.2498 10.8188C21.0498 10.7001 20.8248 10.6563 20.5811 10.6813C20.3311 10.7063 20.0811 10.7938 19.8311 10.9438C19.5811 11.0876 19.3748 11.2626 19.1998 11.4563C19.1936 11.4626 19.1873 11.4751 19.1811 11.4813C19.1686 11.4813 19.1623 11.4751 19.1561 11.4688C19.1436 11.4688 19.1248 11.4501 19.0998 11.4376C18.9061 11.3001 18.6936 11.1001 18.4686 10.8313C18.2436 10.5626 18.0186 10.2813 17.7998 9.9751C17.5811 9.66885 17.3686 9.3626 17.1686 9.05635C16.9686 8.7501 16.7936 8.49385 16.6498 8.28135C16.6061 8.2126 16.5686 8.15635 16.5373 8.11885C16.5061 8.0751 16.4811 8.03134 16.4561 7.99384C16.4248 7.95009 16.3998 7.90635 16.3686 7.8626C16.3373 7.81885 16.2998 7.75634 16.2623 7.68134C16.2436 7.65009 16.2498 7.63759 16.2811 7.64384C16.3123 7.64384 16.3498 7.66259 16.3936 7.68134C16.4373 7.70009 16.4936 7.72509 16.5498 7.75009C16.6061 7.77509 16.6561 7.79384 16.6998 7.80009C16.7623 7.81259 16.7998 7.80009 16.8186 7.75009C16.8373 7.70634 16.8186 7.6501 16.7561 7.58135C16.7123 7.5376 16.6248 7.45635 16.4811 7.34385C16.3373 7.23135 16.1811 7.1126 15.9998 6.9751C15.8186 6.84385 15.6373 6.70635 15.4498 6.5751C15.2686 6.44385 15.1123 6.33135 14.9873 6.2501C14.9436 6.21885 14.9123 6.21259 14.8936 6.23759C14.8686 6.25634 14.8623 6.2876 14.8686 6.33135C14.8686 6.3501 14.8811 6.40635 14.8998 6.4876C14.9186 6.56885 14.9373 6.66259 14.9561 6.75634C14.9748 6.85009 14.9936 6.93759 15.0123 7.01884C15.0373 7.09384 15.0498 7.1376 15.0623 7.1501C15.0873 7.1751 15.1311 7.20635 15.1998 7.2376C15.2686 7.26885 15.3186 7.30634 15.3498 7.35009C15.5373 7.61259 15.7248 7.88135 15.9061 8.1376C16.0873 8.4001 16.2623 8.6501 16.4311 8.9001C16.5748 9.1126 16.7498 9.36884 16.9498 9.67509C17.1498 9.97509 17.3623 10.2813 17.5873 10.5876C17.8061 10.8938 18.0311 11.1813 18.2561 11.4438C18.4373 11.6563 18.6123 11.8313 18.7748 11.9626C18.7623 11.9751 18.7498 11.9876 18.7373 12.0001L18.4123 12.4188C18.2998 12.5626 18.1873 12.7001 18.0748 12.8376C17.9623 12.9751 17.8436 13.1001 17.7248 13.2188C17.6061 13.3376 17.4811 13.4376 17.3561 13.5251C17.1936 13.6438 17.0436 13.7126 16.9061 13.7251C16.7686 13.7376 16.6436 13.7251 16.5186 13.6751C16.3936 13.6313 16.2811 13.5688 16.1748 13.4876C16.0686 13.4063 15.9686 13.3313 15.8811 13.2501C15.7936 13.1751 15.7123 13.1188 15.6373 13.0751C15.5623 13.0313 15.4936 13.0313 15.4373 13.0751C15.3498 13.1313 15.2936 13.2563 15.2873 13.4438C15.2811 13.6313 15.2873 13.8438 15.3186 14.0626C15.3498 14.2876 15.3936 14.5063 15.4436 14.7188C15.4998 14.9313 15.5373 15.0938 15.5498 15.2063C15.5936 15.5688 15.5811 15.9313 15.5186 16.2876C15.4561 16.6438 15.3623 16.9751 15.2373 17.2938C15.2561 17.3376 15.2686 17.3813 15.2873 17.4251L15.3561 17.5751C15.3811 17.6313 15.4186 17.7001 15.4561 17.7688C15.4998 17.8438 15.5561 17.9376 15.6311 18.0438C15.6498 18.0751 15.6748 18.0938 15.7061 18.1063C15.7373 18.1188 15.7623 18.1063 15.7873 18.0751C15.9123 17.9251 16.0748 17.7563 16.2873 17.5688C16.4998 17.3813 16.7248 17.2063 16.9686 17.0501C17.2123 16.8876 17.4561 16.7563 17.6998 16.6438C17.9436 16.5313 18.1561 16.4563 18.3373 16.4188C18.1623 16.7751 17.9936 17.1563 17.8436 17.5501C17.6936 17.9501 17.5186 18.3063 17.2998 18.6376C17.1873 18.7876 17.0311 18.8626 16.8311 18.8626C16.6248 18.8626 16.4061 18.8251 16.1748 18.7501C15.9373 18.6751 15.7061 18.5876 15.4748 18.4751L14.8811 18.2001C14.6061 18.0813 14.3311 17.9688 14.0623 17.8626C13.7936 17.7563 13.5186 17.6626 13.2373 17.5751C12.9561 17.4876 12.6623 17.4126 12.3498 17.3501C12.0436 17.2876 11.7123 17.2376 11.3623 17.2063C11.2873 17.2063 11.1936 17.2063 11.0811 17.2063C10.9686 17.2063 10.8623 17.2251 10.7623 17.2376C10.6686 17.2563 10.5936 17.2813 10.5436 17.3188C10.4936 17.3501 10.4998 17.3876 10.5561 17.4251L10.7686 17.6063C10.8498 17.6751 10.9373 17.7501 11.0186 17.8126C11.1061 17.8813 11.1811 17.9376 11.2561 17.9876C11.3311 18.0376 11.3811 18.0626 11.4123 18.0563C11.6498 18.0626 11.9498 18.0876 12.3061 18.1376C12.6623 18.1876 13.0248 18.2563 13.3936 18.3376C13.7561 18.4251 14.0998 18.5251 14.4248 18.6376C14.7436 18.7501 14.9936 18.8563 15.1686 18.9563C15.2311 18.9938 15.3061 19.0501 15.3811 19.1313C15.4561 19.2126 15.5248 19.3001 15.5748 19.4063C15.6873 19.6438 15.8061 19.9438 15.9498 20.2938C16.0873 20.6438 16.2186 20.9876 16.3436 21.3313C16.4686 21.6751 16.5686 21.9813 16.6436 22.2688C16.7186 22.5563 16.7311 22.7813 16.6561 22.9688C16.5936 23.1251 16.4998 23.2376 16.3686 23.2938C16.2373 23.3563 16.0811 23.3876 15.9123 23.3876C15.7373 23.3876 15.5561 23.3688 15.3623 23.3126C15.1686 23.2626 14.9873 23.2063 14.8186 23.1438C14.8186 23.1438 14.8186 23.1438 14.8123 23.1438C14.8061 22.8376 14.8373 22.5001 14.9311 22.1438C14.9373 22.1126 14.8998 22.0626 14.8061 22.0001C14.7123 21.9376 14.6248 21.8688 14.5436 21.8001C14.4498 21.7313 14.3623 21.6751 14.2811 21.6251C14.1998 21.5751 14.1498 21.5813 14.1311 21.6501C14.0186 22.0563 13.9061 22.4438 13.7873 22.8313C13.6686 23.2188 13.5561 23.6126 13.4498 24.0126C13.3436 24.4126 13.2561 24.8251 13.1748 25.2376C13.0936 25.6563 13.0436 26.0876 13.0186 26.5313C12.9186 26.4126 12.7936 26.3126 12.6498 26.2188C12.5061 26.1251 12.3498 26.0376 12.1873 25.9626C12.0248 25.8813 11.8748 25.8126 11.7186 25.7501C11.5686 25.6876 11.4248 25.6251 11.3061 25.5688C11.1873 25.5126 11.0873 25.4626 11.0186 25.4188C10.9498 25.3751 10.9186 25.3376 10.9311 25.3001C10.9436 25.2751 10.9873 25.2501 11.0686 25.2251L11.3623 25.1251C11.4811 25.0876 11.5998 25.0376 11.7248 24.9751C11.8498 24.9126 11.9686 24.8376 12.0748 24.7376C12.1811 24.6376 12.2686 24.5188 12.3311 24.3813C12.3936 24.2438 12.4186 24.0751 12.4061 23.8813C12.4061 23.6376 12.3561 23.4313 12.2561 23.2751C12.1561 23.1126 12.0311 22.9751 11.8748 22.8688C11.7186 22.7563 11.5436 22.6626 11.3561 22.6001C11.1623 22.5313 10.9811 22.4751 10.7936 22.4188C11.0061 22.4188 11.2186 22.4063 11.4373 22.3751C11.6561 22.3438 11.8498 22.2938 12.0311 22.2126C12.2123 22.1376 12.3623 22.0251 12.4873 21.8876C12.6123 21.7501 12.6936 21.5626 12.7248 21.3251C12.7811 21.1126 12.7873 20.9251 12.7373 20.7438C12.6873 20.5626 12.6061 20.3938 12.4873 20.2376C12.3686 20.0813 12.2248 19.9376 12.0498 19.8063C11.8748 19.6751 11.6936 19.5563 11.4998 19.4501C11.3061 19.3438 11.1123 19.2501 10.9248 19.1751C10.7373 19.1001 10.5623 19.0376 10.4061 18.9813C9.78106 18.7751 9.14981 18.6251 8.49981 18.5376C7.84981 18.4501 7.20606 18.3563 6.55606 18.2501C6.52481 18.2376 6.5248 18.2188 6.5498 18.1938C6.5748 18.1688 6.61856 18.1376 6.67481 18.1063C6.73106 18.0688 6.79355 18.0313 6.8623 17.9876C6.93105 17.9438 6.98731 17.9063 7.03106 17.8688C7.09981 17.8188 7.13105 17.7626 7.11855 17.7001C7.10605 17.6376 7.05606 17.6063 6.96856 17.6063C6.90606 17.6063 6.7748 17.6188 6.58105 17.6563C6.3873 17.6938 6.16855 17.7501 5.9248 17.8188C5.68105 17.8876 5.4373 17.9626 5.19355 18.0501C4.9498 18.1376 4.74356 18.2126 4.58106 18.2813C4.53106 18.3001 4.50606 18.3376 4.49356 18.3876C4.48731 18.4376 4.49355 18.4813 4.51855 18.5126L4.6373 18.6376C4.6998 18.7063 4.77481 18.7751 4.84356 18.8438C4.91856 18.9126 4.98731 18.9751 5.06231 19.0313C5.13106 19.0876 5.16856 19.1126 5.18731 19.1188C5.22481 19.1063 5.28106 19.0813 5.35606 19.0376C5.43106 18.9938 5.4998 18.9751 5.55605 18.9688L5.84981 18.9813L6.18731 19.0001C6.29981 19.0063 6.4123 19.0188 6.5123 19.0251C6.6123 19.0376 6.69981 19.0438 6.76856 19.0563C7.42481 19.1438 8.08106 19.2188 8.73106 19.2876C9.38106 19.3563 10.0186 19.4938 10.6436 19.6813C10.8436 19.7376 11.0436 19.7938 11.2436 19.8563C11.4373 19.9188 11.6311 19.9938 11.8248 20.0751C11.8623 20.1251 11.8873 20.1938 11.8936 20.2751C11.8998 20.3563 11.8998 20.4438 11.8936 20.5376C11.8811 20.6313 11.8686 20.7251 11.8498 20.8126C11.8311 20.9001 11.8123 20.9813 11.7936 21.0563C11.7248 21.3313 11.5873 21.5188 11.3748 21.6438C11.1623 21.7626 10.9186 21.8438 10.6498 21.8876C10.3811 21.9251 10.1123 21.9376 9.83731 21.9251C9.56231 21.9063 9.33105 21.8938 9.1498 21.8751C8.68105 21.8313 8.2123 21.7938 7.74355 21.7438C7.2748 21.6938 6.80606 21.6813 6.33106 21.7126C5.91856 21.7313 5.53731 21.7688 5.18106 21.8313C4.82481 21.8938 4.50606 21.9626 4.22481 22.0438C4.12481 22.0626 4.08105 22.1126 4.08105 22.1813C4.08105 22.2501 4.14356 22.3063 4.26231 22.3376C4.35606 22.3688 4.45605 22.4126 4.56855 22.4563C4.68105 22.5001 4.78731 22.5438 4.89356 22.5813C4.99981 22.6188 5.08731 22.6501 5.16231 22.6751C5.23731 22.7001 5.28106 22.7126 5.29356 22.7126C5.51856 22.6938 5.74355 22.6626 5.9748 22.6376C6.20605 22.6063 6.4373 22.5813 6.66855 22.5563C7.14355 22.5188 7.61231 22.5188 8.08731 22.5501C8.55606 22.5813 9.03106 22.6001 9.49356 22.6126C9.76856 22.6251 10.0561 22.6501 10.3561 22.6938C10.6561 22.7376 10.9311 22.7938 11.1936 22.8563C11.2436 22.9001 11.2811 22.9626 11.3123 23.0438C11.3436 23.1251 11.3686 23.2063 11.3873 23.3063C11.4061 23.4001 11.4186 23.4938 11.4248 23.5876C11.4311 23.6813 11.4311 23.7626 11.4248 23.8376C11.4186 24.0438 11.3811 24.2001 11.3061 24.3188C11.2311 24.4376 11.1436 24.5313 11.0311 24.6001C10.9248 24.6688 10.8061 24.7251 10.6748 24.7563C10.5498 24.7938 10.4248 24.8188 10.3123 24.8438C10.1998 24.8688 10.0998 24.8938 10.0248 24.9313C9.94981 24.9626 9.90605 25.0188 9.8998 25.0938C9.8873 25.2001 9.95606 25.3188 10.0998 25.4376C10.2436 25.5626 10.4123 25.6813 10.6061 25.7938C10.7998 25.9063 10.9998 26.0063 11.1998 26.1001C11.3998 26.1876 11.5498 26.2563 11.6436 26.3126C11.9561 26.5001 12.2311 26.7313 12.4686 27.0001C12.7061 27.2688 12.9123 27.5501 13.0873 27.8438C13.1311 27.8563 13.1811 27.8751 13.2248 27.8813L13.3811 27.9188C13.4436 27.9313 13.5123 27.9438 13.5936 27.9563C13.6811 27.9688 13.7811 27.9751 13.9123 27.9876C13.9498 27.9876 13.9811 27.9876 14.0061 27.9688C14.0311 27.9563 14.0436 27.9251 14.0311 27.8876C13.9873 27.6938 13.9561 27.4563 13.9373 27.1751C13.9186 26.8938 13.9248 26.6063 13.9436 26.3126C13.9686 26.0188 14.0123 25.7438 14.0686 25.4813C14.1311 25.2188 14.1998 25.0001 14.2811 24.8313C14.4498 25.1938 14.6436 25.5626 14.8623 25.9251C15.0811 26.2876 15.2498 26.6501 15.3811 27.0251C15.4311 27.2126 15.4061 27.3751 15.2936 27.5126C15.1811 27.6563 15.0373 27.7813 14.8498 27.9001C14.6623 28.0126 14.4623 28.1188 14.2373 28.2001C14.0186 28.2876 13.8248 28.3626 13.6561 28.4313C12.6248 28.8438 11.6123 29.2626 10.6186 29.6876C9.62481 30.1188 8.64356 30.6126 7.68731 31.1938C7.45606 31.3438 7.22481 31.5126 6.98731 31.6938C6.75606 31.8751 6.55606 32.0501 6.39981 32.2126C6.24356 32.3751 6.14356 32.5063 6.09981 32.6126C6.05606 32.7126 6.11231 32.7563 6.24981 32.7438C6.29981 32.7376 6.36856 32.7251 6.45606 32.7188C6.54356 32.7063 6.63731 32.6938 6.73106 32.6751L6.98105 32.6251C7.05605 32.6063 7.09356 32.6001 7.09981 32.6001C7.26856 32.4313 7.4498 32.2626 7.64355 32.0938C7.83105 31.9251 8.03106 31.7688 8.21856 31.6376C9.15606 31.0313 10.1248 30.5063 11.0998 30.0376L11.1873 30.0501ZM37.0936 22.3001C37.1498 22.0813 37.2435 21.9001 37.3811 21.7501C37.4248 21.7938 37.4686 21.8813 37.4998 22.0063C37.5373 22.1313 37.5498 22.2626 37.5436 22.3938C37.5373 22.5251 37.4998 22.6438 37.4373 22.7438C37.3748 22.8438 37.2748 22.9001 37.1373 22.9126C37.056 22.7126 37.0373 22.5126 37.0936 22.2938V22.3001ZM34.4248 15.7313C34.7686 15.6938 35.1123 15.7001 35.4498 15.7563C35.7873 15.8063 36.106 15.9126 36.3936 16.0751C36.681 16.2313 36.9185 16.4563 37.0873 16.7251C37.2561 17.0001 37.3436 17.3251 37.3436 17.6938C37.3436 18.0626 37.2248 18.4751 36.9748 18.9063C36.6561 18.8001 36.3373 18.6251 36.0061 18.3813C35.6748 18.1438 35.3623 17.8813 35.0498 17.6063C34.7373 17.3251 34.4436 17.0438 34.1623 16.7501C33.8811 16.4563 33.6498 16.1938 33.4686 15.9438C33.7623 15.8438 34.0811 15.7751 34.4248 15.7376V15.7313ZM28.5123 11.6813C28.3373 11.7063 28.1748 11.6938 28.0248 11.6563C27.9623 11.6376 27.9311 11.6126 27.9186 11.5751C27.9061 11.5376 27.9186 11.5001 27.9436 11.4626C27.9686 11.4188 28.0123 11.3813 28.0686 11.3501C28.1248 11.3188 28.1936 11.2938 28.2748 11.2876C28.3186 11.2813 28.3748 11.2876 28.4311 11.3001C28.4936 11.3188 28.5498 11.3376 28.6186 11.3688C28.6811 11.4001 28.7436 11.4376 28.7936 11.4876C28.8498 11.5376 28.8936 11.5938 28.9186 11.6626C28.8186 11.6563 28.681 11.6626 28.5123 11.6813ZM20.1936 11.7751C20.3186 11.7251 20.4561 11.6876 20.5936 11.6751C20.7311 11.6626 20.8623 11.6751 20.9748 11.7251C21.0873 11.7688 21.1561 11.8626 21.1873 11.9938C20.9936 12.1063 20.7811 12.1563 20.5498 12.1376C20.3186 12.1188 20.1123 12.0563 19.9436 11.9376C19.9873 11.8813 20.0686 11.8313 20.1998 11.7751H20.1936Z" fill="white"/>
<path d="M16.9191 25.1064C16.9816 25.0189 17.0566 24.9377 17.1378 24.8502C17.2191 24.7689 17.3128 24.6939 17.4066 24.6252C17.4191 24.6127 17.4316 24.6064 17.4316 24.6002C17.4316 24.6002 17.4253 24.5877 17.3941 24.5752L17.2566 24.5252C17.2003 24.5002 17.1441 24.4752 17.0878 24.4502L16.9191 24.3752C16.8628 24.3502 16.8191 24.3314 16.7878 24.3252C16.7816 24.3252 16.7691 24.3252 16.7566 24.3252C16.7441 24.3252 16.7316 24.3252 16.7253 24.3314C16.6941 24.3502 16.6566 24.3814 16.6128 24.4252L16.4566 24.5627C16.4003 24.6127 16.3503 24.6627 16.3003 24.7189C16.2503 24.7752 16.2191 24.8189 16.1878 24.8627C16.1753 24.8752 16.1753 24.8877 16.1878 24.9002L16.5191 25.0189C16.6378 25.0564 16.7503 25.1002 16.8503 25.1377C16.8691 25.1377 16.8941 25.1377 16.9128 25.1189L16.9191 25.1064Z" fill="white"/>
<path d="M8.35625 25.0944C8.35625 25.0944 8.37501 25.0507 8.38126 25.0382C8.38126 25.0257 8.37501 25.0132 8.34376 24.9819C8.26876 24.9319 8.16876 24.8444 8.03126 24.7319C7.90001 24.6194 7.80001 24.5319 7.73751 24.4882C7.72501 24.4882 7.71251 24.4882 7.70001 24.4819C7.68751 24.4819 7.67501 24.4819 7.66876 24.5007C7.64376 24.5444 7.60625 24.6132 7.55625 24.7069C7.5125 24.7944 7.46251 24.8944 7.41251 25.0007C7.36251 25.1069 7.31876 25.2132 7.27501 25.3257L7.16251 25.6132C7.15001 25.6507 7.15625 25.6757 7.175 25.6819L7.41875 25.8507C7.50625 25.9069 7.59376 25.9694 7.68126 26.0382C7.65001 26.0944 7.61875 26.1757 7.575 26.2632C7.5375 26.3569 7.50001 26.4507 7.46251 26.5507C7.42501 26.6507 7.39376 26.7569 7.36251 26.8569L7.29376 27.1194C7.29376 27.1194 7.28751 27.1757 7.30626 27.1882L7.66876 27.3882C7.80001 27.4569 7.91876 27.5319 8.03751 27.6069C8.06251 27.6132 8.075 27.6069 8.09376 27.5694C8.13126 27.3819 8.18126 27.2007 8.24376 27.0132C8.30626 26.8319 8.37501 26.6569 8.45001 26.4944C8.46251 26.4632 8.46876 26.4444 8.46876 26.4382C8.46876 26.4257 8.45625 26.4132 8.425 26.3882L8.2 26.2319L7.93126 26.0444C7.98751 25.8694 8.05001 25.7069 8.12501 25.5382C8.20001 25.3757 8.27501 25.2194 8.36251 25.0757L8.35625 25.0944Z" fill="white"/>
<path d="M27.8754 8.78736C28.0254 8.88736 28.1691 8.99361 28.3129 9.11236C28.4566 9.23111 28.5816 9.35611 28.7004 9.48111C28.7191 9.49986 28.7379 9.51236 28.7442 9.51861C28.7504 9.52486 28.7691 9.51861 28.8004 9.49361L28.9317 9.38736C28.9879 9.34361 29.0442 9.29986 29.1067 9.25611C29.1692 9.21236 29.2254 9.16861 29.2817 9.12486C29.3379 9.08111 29.3816 9.04361 29.4066 9.01861C29.4066 9.01236 29.4129 9.00611 29.4192 8.98736C29.4254 8.97486 29.4191 8.96236 29.4066 8.94986C29.3691 8.91236 29.3191 8.85611 29.2504 8.78736L29.0254 8.56861C28.9441 8.49361 28.8566 8.41861 28.7629 8.34986C28.6754 8.28111 28.5942 8.22486 28.5317 8.18111C28.5067 8.16236 28.4879 8.15611 28.4629 8.16861L28.1629 8.44361C28.0566 8.54361 27.9504 8.63736 27.8441 8.71861C27.8316 8.73736 27.8379 8.75611 27.8567 8.78111L27.8754 8.78736Z" fill="white"/>
<path d="M19.6878 37.9687C19.7753 37.9562 19.8253 37.8937 19.6878 37.8875C19.1628 37.8687 18.6003 37.8875 18.0503 37.95C17.494 38.0062 16.944 38.1 16.4503 38.2437C16.3565 38.0812 16.0753 37.7437 15.869 37.7062C15.669 37.675 15.4003 37.7812 15.319 37.8937C15.1878 38.075 15.2253 38.425 15.3753 38.7687C15.519 39.1125 15.7753 39.45 16.0253 39.6C16.2503 39.7312 16.4128 39.5062 16.4878 39.4062C16.669 39.3562 16.819 39.2625 16.8815 39.1562C16.9815 38.9687 16.7003 38.6312 16.6003 38.4375C17.1815 38.325 17.6815 38.25 18.169 38.1875C18.6628 38.125 19.1503 38.0687 19.6878 37.9687ZM15.7878 38.5937C15.6878 38.475 15.494 38.0687 15.5815 37.95C15.7128 37.9375 16.0065 38.3125 16.0378 38.4C15.9503 38.4625 15.8503 38.5312 15.7878 38.5937ZM16.0565 38.9937C16.0128 38.8375 16.119 38.7 16.2253 38.6125C16.3378 38.7875 16.4565 38.9562 16.4815 39.15C16.4378 39.225 16.119 39.2062 16.0565 38.9937Z" fill="white"/>
</svg>
