<svg width="50" height="50" viewBox="0 0 50 50" fill="none" xmlns="http://www.w3.org/2000/svg">
<path d="M25 0C38.8063 0 50 11.1938 50 25C50 38.8063 38.8063 50 25 50C11.1938 50 0 38.8063 0 25C0 11.1938 11.1938 0 25 0ZM27.2812 32.3252C27.1688 32.3377 27.0128 32.369 26.8193 32.4189C26.6256 32.4627 26.4186 32.5189 26.2061 32.5752C25.9937 32.6314 25.7934 32.6934 25.6123 32.7559C25.4249 32.8183 25.2877 32.8752 25.2002 32.9189C24.8441 33.1064 24.5316 33.3562 24.2754 33.6748C24.0191 33.9936 23.8125 34.3439 23.6562 34.7314C23.5001 35.1188 23.3877 35.5189 23.3252 35.9375C23.2627 36.3562 23.2506 36.7565 23.2881 37.1377C23.3443 37.7126 23.4254 38.2878 23.5254 38.8564C23.6316 39.4312 23.7377 39.9998 23.8564 40.5684C23.9752 41.137 24.0938 41.7058 24.2188 42.2744C24.3437 42.8432 24.4566 43.4123 24.5566 43.9873C24.5566 44.0186 24.5504 44.0246 24.5254 44.0059C24.5066 43.9871 24.475 43.9564 24.4375 43.9189C24.4001 43.8815 24.3629 43.8376 24.3193 43.7939C24.2756 43.7502 24.2377 43.7125 24.2002 43.6875C24.1502 43.6438 24.1064 43.6373 24.0752 43.6748C24.0377 43.7123 24.0378 43.7685 24.0752 43.8496C24.0939 43.9121 24.1437 44.025 24.2188 44.1875C24.2937 44.35 24.3879 44.5373 24.4941 44.7373C24.6003 44.9372 24.7001 45.1371 24.8125 45.3369C24.9187 45.5368 25.0129 45.7057 25.0879 45.8369C25.1129 45.8744 25.1377 45.8934 25.1689 45.8809C25.2001 45.8684 25.219 45.8496 25.2314 45.8184C25.2316 45.7994 25.2499 45.743 25.2686 45.6621C25.2873 45.5809 25.3123 45.4872 25.3311 45.3936C25.3498 45.2998 25.3689 45.2059 25.3877 45.1309C25.4002 45.0498 25.4125 45.0056 25.4062 44.9932C25.3937 44.962 25.3627 44.9123 25.3193 44.8564C25.2756 44.8002 25.2502 44.7437 25.2314 44.6875L25.2129 44.6807C25.1942 44.5995 25.1754 44.5055 25.1504 44.3994C25.1254 44.2934 25.0998 44.1812 25.0811 44.0752C25.0561 43.9627 25.0373 43.8559 25.0186 43.7559C24.9998 43.656 24.9818 43.5683 24.9756 43.5059C24.8693 42.9309 24.7564 42.3623 24.6377 41.7998C24.5127 41.2311 24.3941 40.6624 24.2754 40.0938C24.1567 39.5251 24.0502 38.9563 23.9502 38.3877C23.8502 37.8128 23.7691 37.2438 23.7129 36.6689C23.6879 36.4878 23.6623 36.3189 23.6436 36.1689C23.6186 36.0189 23.6254 35.8436 23.6504 35.6436C23.6754 35.4436 23.7626 35.2374 23.9062 35.0312C24.0499 34.8251 24.2251 34.6189 24.4375 34.4189C24.6499 34.2191 24.8875 34.0188 25.1436 33.8252C25.3998 33.6314 25.6627 33.4559 25.9189 33.2871C26.1814 33.1246 26.4256 32.975 26.6631 32.8438C26.8942 32.7126 27.094 32.6062 27.2627 32.5312C27.2877 32.5187 27.3129 32.4996 27.3379 32.4746C27.3627 32.4498 27.3811 32.431 27.3936 32.4062C27.4061 32.3812 27.4061 32.3625 27.3936 32.3438C27.381 32.3251 27.3437 32.319 27.2812 32.3252ZM22.2686 33.0439C22.2665 33.0435 22.2118 33.0318 22.1934 33.0625C22.0934 33.1874 21.9995 33.3378 21.9121 33.5127C21.8247 33.6876 21.7439 33.8754 21.6689 34.0752C21.6003 34.2688 21.5377 34.4685 21.4814 34.6621C21.4252 34.8559 21.3814 35.0312 21.3564 35.1875C21.2315 35.875 21.1246 36.569 21.0371 37.2627C20.9559 37.9563 20.8808 38.6566 20.8184 39.3564C20.7559 40.0563 20.7002 40.7562 20.6377 41.4561C20.5752 42.1559 20.506 42.8558 20.4248 43.5557C20.4186 43.5869 20.4064 43.5934 20.3877 43.5684C20.3752 43.5434 20.356 43.5056 20.3311 43.4619C20.3061 43.412 20.2808 43.3621 20.2559 43.2998C20.2309 43.2374 20.1998 43.1933 20.1748 43.1621C20.1374 43.1124 20.0999 43.0996 20.0625 43.1182C20.025 43.1431 20 43.1997 20 43.2871C20 43.3496 20.0122 43.4684 20.0371 43.6494C20.0621 43.8307 20.1002 44.0312 20.1377 44.25C20.1814 44.4686 20.2248 44.6935 20.2686 44.9121C20.3123 45.1371 20.3502 45.325 20.3877 45.4688C20.394 45.5186 20.419 45.5439 20.4502 45.5439C20.4813 45.5439 20.5067 45.5312 20.5254 45.5C20.5379 45.4812 20.5624 45.4372 20.6123 45.3623C20.656 45.2874 20.7059 45.2124 20.7559 45.125C20.8058 45.0376 20.8502 44.9626 20.8877 44.8877C20.9252 44.8189 20.9438 44.7746 20.9375 44.7559C20.9374 44.7246 20.9253 44.6682 20.9004 44.5996C20.8754 44.5309 20.8623 44.4683 20.8623 44.4121C20.8623 44.3309 20.8746 44.2311 20.8809 44.125C20.8871 44.0126 20.9 43.9063 20.9062 43.7939C20.9125 43.6815 20.925 43.5687 20.9375 43.4688C20.95 43.3625 20.9625 43.2748 20.9688 43.2061C21.05 42.5123 21.1191 41.8185 21.1816 41.1123C21.2441 40.4124 21.3067 39.7126 21.3691 39.0127C21.4316 38.3128 21.5063 37.6188 21.5938 36.9189C21.6812 36.2189 21.7809 35.5244 21.9121 34.8369C21.9621 34.5497 22.0248 34.2625 22.0811 33.9814C22.1435 33.7003 22.2122 33.4188 22.2871 33.1377C22.3059 33.0877 22.2998 33.05 22.2686 33.0312V33.0439ZM24.0186 35.1504C23.9811 35.1817 23.9494 35.2505 23.9307 35.3691C23.8932 35.7377 23.8998 36.0943 23.9561 36.4316C24.0123 36.7752 24.1375 37.0998 24.3311 37.4121C24.5748 37.7933 24.8684 38.1561 25.1934 38.5186C25.5246 38.8748 25.8745 39.225 26.2432 39.5625C26.6181 39.9 26.9999 40.2371 27.3936 40.5684C27.7873 40.8996 28.1688 41.2248 28.5312 41.5498C28.8937 41.8748 29.2375 42.2004 29.5625 42.5254C29.8811 42.8503 30.1559 43.188 30.3809 43.5254C30.3871 43.5254 30.3871 43.5377 30.3809 43.5439C30.3685 43.5501 30.3622 43.5501 30.3438 43.5439C30.2625 43.5127 30.1869 43.4875 30.1182 43.4688C30.0495 43.45 29.9872 43.4373 29.9248 43.4248C29.8687 43.4123 29.8313 43.425 29.8125 43.4561C29.7875 43.4873 29.7869 43.5191 29.8057 43.5566C29.8307 43.5942 29.9066 43.6622 30.0439 43.7559C30.1814 43.8496 30.3245 43.9504 30.4932 44.0566C30.6618 44.1628 30.8245 44.2688 30.9932 44.375C31.1619 44.4813 31.2936 44.5625 31.3936 44.625C31.4248 44.6437 31.4502 44.6248 31.4502 44.5811C31.4626 44.5436 31.4687 44.4936 31.4688 44.4189V44.1816C31.4688 44.1005 31.4681 44.0189 31.4619 43.9502C31.4619 43.8754 31.4496 43.8191 31.4434 43.7754V43.7686C31.4308 43.7373 31.393 43.6934 31.3057 43.6436C31.2246 43.5936 31.1744 43.5501 31.1494 43.5127C31.0807 43.4064 31.0121 43.3061 30.9434 43.2061C30.8747 43.1062 30.8059 43.0002 30.7373 42.9004C30.5124 42.563 30.2438 42.2312 29.9189 41.9062C29.6002 41.5813 29.2496 41.2566 28.8809 40.9316C28.5122 40.6067 28.131 40.2752 27.7373 39.9502C27.3436 39.6189 26.9557 39.2871 26.5869 38.9434C26.2122 38.5998 25.8623 38.2564 25.5312 37.9004C25.2 37.5442 24.9127 37.1748 24.6689 36.7998C24.3627 36.3248 24.1688 35.7871 24.0938 35.1934C24.0812 35.1311 24.056 35.1192 24.0186 35.1504ZM33.3936 36.0566C33.3248 35.9879 33.293 36.0564 33.3242 36.1064C33.5742 36.4689 34.0993 36.8627 34.5742 37.2002C34.9492 37.4752 35.1869 37.5188 35.4932 37.8438C35.9931 38.3687 35.2247 39.1122 34.9121 39.3936C34.8934 39.4123 35.0683 39.825 35.1309 39.8066C35.5244 39.7379 36.0305 39.8687 36.2432 39.6816C36.2627 40.0883 37.3556 41.1999 37.0557 41.4873C36.9369 41.606 36.6811 41.5191 36.6436 41.5566C36.5751 41.6256 36.7625 41.9442 36.8125 41.9941C36.9254 42.1186 37.2499 42.0934 37.3623 41.9873C37.7803 41.5811 36.6942 40.276 36.7617 40.2061C36.7742 40.1936 37.9562 41.0621 38.4375 40.5996C38.518 40.5235 38.4182 40.0559 38.3496 39.9873C38.2808 39.9186 37.8497 39.9247 37.7744 40.0059L37.7686 39.9941C37.7312 40.0318 37.7371 40.1442 37.6934 40.1816C37.4742 40.3935 36.4304 39.6814 36.293 39.5752C36.418 39.2814 36.0932 38.7811 36.0244 38.8311C35.9745 38.8562 36.0492 39.0749 35.918 39.2061C35.8804 39.2434 35.7501 39.2688 35.7061 39.2441C36.0185 38.6879 36.0495 38.2312 35.5059 37.6562C35.0497 37.1688 34.8248 37.1373 34.2812 36.75C33.9751 36.5251 33.6747 36.3127 33.3936 36.0566ZM31.5 37.5117C31.5122 37.4243 31.4058 37.3496 31.3184 37.4619C31.031 37.9055 30.4316 38.8612 30.3438 39.249C30.2313 39.6676 30.3431 41.0296 30.543 41.2617C30.7991 41.5616 31.8111 40.6314 32.043 40.4434C32.7866 39.7622 32.7999 39.7744 32.625 38.8311C32.5563 38.4248 32.5431 38.343 32.3369 38.5742L32.3311 38.5811C31.9436 39.0434 30.838 40.0798 30.7061 39.9121C30.6186 39.7996 31.475 37.6305 31.5 37.5117ZM11.0381 39.2939C11.0068 39.2939 10.975 39.3006 10.9375 39.3193C10.9 39.3381 10.8563 39.3633 10.7939 39.3945C10.7377 39.432 10.6561 39.4751 10.5625 39.5312C10.4001 39.625 10.2814 39.7064 10.2002 39.7627C10.1253 39.8251 10.1189 39.8628 10.1875 39.8691C11.625 40.1754 13.0625 40.4568 14.5 40.6943C15.9375 40.9381 17.3881 41.1383 18.8506 41.3008C18.9193 41.3007 19.0194 41.2688 19.1504 41.2002C19.2817 41.1314 19.5006 40.9999 19.8066 40.8125C19.8375 40.8 19.8438 40.7817 19.8252 40.7568L19.8037 40.7246L19.8066 40.7256L19.7998 40.7188L19.8037 40.7246C18.3421 40.5622 16.8927 40.3624 15.4561 40.125C14.0187 39.8875 12.5809 39.6129 11.1436 39.3066C11.1063 39.3004 11.0692 39.294 11.0381 39.2939ZM15.8682 37.7061C15.6683 37.6751 15.3997 37.7812 15.3184 37.8936C15.1872 38.0747 15.2251 38.4249 15.375 38.7686C15.5187 39.1122 15.7745 39.4505 16.0244 39.6006C16.2494 39.7318 16.4123 39.5062 16.4873 39.4062C16.6685 39.3562 16.8184 39.2625 16.8809 39.1562C16.9807 38.9687 16.6996 38.6312 16.5996 38.4375C17.1809 38.325 17.6814 38.25 18.1689 38.1875C18.6626 38.125 19.1501 38.0687 19.6875 37.9688C19.7748 37.9562 19.8247 37.894 19.6875 37.8877C19.1625 37.8689 18.5998 37.8877 18.0498 37.9502C17.4937 38.0064 16.9439 38.1004 16.4502 38.2441C16.3564 38.0816 16.0744 37.7436 15.8682 37.7061ZM16.2246 38.6123C16.3371 38.7873 16.4564 38.9566 16.4814 39.1504C16.4377 39.2254 16.1182 39.2066 16.0557 38.9941C16.0119 38.8379 16.1184 38.6998 16.2246 38.6123ZM15.5811 37.9502C15.7123 37.9377 16.0059 38.3129 16.0371 38.4004C15.9497 38.4628 15.8496 38.5313 15.7871 38.5938C15.687 38.4746 15.4936 38.0689 15.5811 37.9502ZM12.9062 35.9004C12.7377 35.9066 12.6063 35.9192 12.5312 35.9316C12.5188 35.9379 12.5119 35.9502 12.4932 35.9502C12.4809 35.9505 12.475 35.9688 12.4873 35.9873C12.4998 36.0373 12.5121 36.1129 12.5371 36.2129C12.5621 36.3065 12.5876 36.4125 12.625 36.5186C12.6562 36.6248 12.6936 36.7375 12.7373 36.8438L12.8438 37.125C12.8624 37.1622 12.8808 37.1749 12.8994 37.1689L13.1875 37.1191C13.2874 37.1004 13.3934 37.0871 13.5059 37.0684C13.5246 37.1308 13.5498 37.2061 13.5811 37.2998C13.6123 37.3936 13.65 37.4879 13.6875 37.5879C13.725 37.6815 13.7688 37.7814 13.8125 37.875L13.9307 38.1123C13.9307 38.1123 13.9623 38.1562 13.9873 38.1562L14.3809 38.0498C14.5184 38.0123 14.6564 37.9811 14.7939 37.9561C14.8124 37.9436 14.8187 37.9246 14.8125 37.8936C14.7188 37.7373 14.6375 37.5685 14.5625 37.3936C14.4875 37.2186 14.425 37.0496 14.375 36.8809L14.3623 36.875C14.3619 36.8742 14.344 36.8319 14.3438 36.8252C14.3438 36.819 14.3186 36.8122 14.2812 36.8184L14.0127 36.8623L13.6934 36.9121C13.6185 36.7497 13.5621 36.5872 13.5059 36.4248C13.4559 36.2563 13.4121 36.094 13.3809 35.9316C13.3746 35.9066 13.3686 35.8875 13.3623 35.875C13.3622 35.8688 13.3372 35.8623 13.2998 35.8623C13.2123 35.8748 13.0811 35.8879 12.9062 35.9004ZM33.7373 28.2871C33.4748 28.2934 33.2244 28.3436 32.9932 28.4248C32.762 28.5123 32.5245 28.6435 32.2871 28.8184L31.8496 29.1436C31.6997 29.256 31.5493 29.3747 31.3994 29.5059C31.3994 29.5184 31.3875 29.5311 31.375 29.5498C31.3625 29.5685 31.3752 29.5868 31.3877 29.6055C31.4688 29.6866 31.5495 29.7559 31.6182 29.8184L31.8936 30.0557C31.9435 30.1056 31.9995 30.118 32.0557 30.0869C32.1244 30.0369 32.2064 29.9875 32.2939 29.9375C32.3814 29.8875 32.4752 29.8435 32.5752 29.7998C32.6751 29.7561 32.7815 29.7246 32.8877 29.6934C32.9937 29.6684 33.0997 29.6563 33.2119 29.6562C33.3619 29.6562 33.5 29.6807 33.625 29.7119C33.7498 29.7494 33.8809 29.8056 34.0244 29.8867C34.0994 29.9305 34.1875 30.0123 34.2812 30.1436C34.375 30.2748 34.4565 30.4126 34.5127 30.5625C34.5751 30.7124 34.6119 30.8626 34.6182 31C34.6243 31.1374 34.5871 31.2436 34.5059 31.2998C34.4184 31.3622 34.2809 31.3869 34.1123 31.3682C33.9437 31.3494 33.7625 31.3435 33.5752 31.3311C33.3877 31.3248 33.2057 31.3307 33.0244 31.3682C32.8434 31.3995 32.7061 31.5059 32.5938 31.6807C32.5063 31.8181 32.4627 31.962 32.4502 32.1182C32.4377 32.2744 32.4498 32.4371 32.4873 32.5996C32.5248 32.7621 32.5812 32.9313 32.6562 33.0938C32.7312 33.2561 32.8245 33.4124 32.9307 33.5498C32.7932 33.4374 32.6433 33.3373 32.4746 33.2373C32.3121 33.1436 32.1433 33.068 31.9746 33.0117C31.806 32.9556 31.6493 32.9436 31.4932 32.9561C31.3371 32.9749 31.2 33.05 31.0752 33.1748C30.9314 33.3061 30.8314 33.4562 30.7627 33.625C30.694 33.7999 30.6439 33.9686 30.6064 34.1436C30.5689 34.3185 30.5312 34.4938 30.5 34.6562C30.4688 34.8186 30.4183 34.9682 30.3496 35.0869C30.2059 34.7996 30.0497 34.5996 29.8936 34.4746C29.7312 34.3497 29.5751 34.2874 29.4189 34.2686C29.2627 34.2561 29.1119 34.2934 28.9619 34.3809C28.8183 34.4683 28.687 34.5869 28.5684 34.7305C28.4497 34.8741 28.3433 35.0556 28.2559 35.2617C28.1684 35.468 28.1119 35.6871 28.0869 35.9121C27.8994 35.5685 27.6933 35.3685 27.4746 35.2998C27.2559 35.2311 27.0556 35.2559 26.8682 35.3809C26.6809 35.4996 26.5311 35.6996 26.4062 35.9805C26.2812 36.2617 26.2436 36.5875 26.2998 36.9688C26.3061 37.0312 26.3313 37.1123 26.375 37.2246C26.4187 37.337 26.4686 37.4495 26.5186 37.5557C26.5686 37.6682 26.6248 37.7561 26.6748 37.8311C26.7248 37.906 26.7627 37.9369 26.7939 37.9307C26.8063 37.9237 26.8187 37.8801 26.8311 37.7998C26.8436 37.7248 26.8561 37.6371 26.8623 37.5371C26.8686 37.4371 26.875 37.3433 26.875 37.2559V37.0811C26.875 37.0623 26.8558 37.0375 26.8184 37L26.7188 36.8936C26.6812 36.8561 26.6498 36.8117 26.6123 36.7617C26.5812 36.7181 26.5564 36.6745 26.5439 36.6309C26.6002 36.5497 26.706 36.4681 26.8496 36.3994C26.9934 36.3307 27.1125 36.275 27.2188 36.25C27.3687 36.2125 27.4815 36.2117 27.5752 36.2617C27.6626 36.3055 27.7307 36.375 27.7744 36.4688C27.8181 36.5625 27.8438 36.6748 27.8438 36.7998C27.8437 36.9246 27.831 37.0494 27.7998 37.168C27.7873 37.2116 27.806 37.2433 27.8496 37.2559C27.8934 37.2684 27.9311 37.2557 27.9561 37.2119C28.0248 37.1244 28.0932 36.9929 28.1494 36.8242C28.2057 36.6556 28.2875 36.4745 28.375 36.2871C28.4687 36.0997 28.5874 35.9185 28.7373 35.7373C28.8811 35.5561 29.0812 35.4186 29.3438 35.2998C29.4937 35.2373 29.6186 35.2063 29.7373 35.2188C29.8561 35.225 29.9561 35.2623 30.0498 35.3311C30.1372 35.3998 30.2123 35.4933 30.2686 35.6182C30.3248 35.743 30.3564 35.8807 30.3564 36.043C30.3564 36.0742 30.369 36.1055 30.3877 36.1367C30.4127 36.168 30.4375 36.1682 30.4688 36.1494C30.5312 36.118 30.5938 36.0117 30.6562 35.8369L30.8682 35.2305C30.9494 35.0056 31.0502 34.7741 31.1689 34.543C31.2877 34.312 31.4502 34.1249 31.6562 33.9688C31.8187 33.8501 31.9872 33.7997 32.1621 33.8184C32.3371 33.8434 32.5122 33.8998 32.6934 33.9873C32.8746 34.0811 33.0436 34.1936 33.2061 34.3311C33.3747 34.4684 33.5183 34.5872 33.6494 34.6934C33.9744 34.9558 34.3248 35.2059 34.7061 35.4434C35.081 35.6808 35.4497 35.8498 35.8184 35.9561C35.8558 35.9685 35.8871 35.9559 35.9121 35.9248C35.9371 35.8873 35.9432 35.8619 35.9307 35.8369C35.9056 35.7993 35.862 35.7305 35.8184 35.6309C35.7684 35.5372 35.7183 35.4369 35.6621 35.3369L35.5059 35.0684C35.4623 34.9875 35.4251 34.944 35.4062 34.9375C35.275 34.8875 35.0994 34.8121 34.8682 34.6934C34.6433 34.5809 34.4182 34.4493 34.1934 34.3057C33.9686 34.162 33.7625 34.0122 33.5752 33.8623C33.3877 33.7061 33.2623 33.568 33.2061 33.4492C33.1562 33.3557 33.119 33.2622 33.1064 33.1562C33.0877 33.05 33.0877 32.9496 33.1064 32.8496C33.1189 32.7497 33.1438 32.6499 33.1875 32.5625C33.225 32.4688 33.2744 32.393 33.3369 32.3242C33.4244 32.2118 33.5248 32.1432 33.6436 32.1182C33.7622 32.0932 33.881 32.0811 34.0059 32.0811C34.1309 32.0811 34.2623 32.1 34.3936 32.125C34.531 32.15 34.6498 32.1686 34.7686 32.1748C34.8811 32.1811 34.9877 32.1748 35.0752 32.1436C35.1625 32.1123 35.2249 32.0496 35.2686 31.9561C35.3435 31.7748 35.3746 31.5748 35.3496 31.3623C35.3246 31.1498 35.2621 30.9432 35.1621 30.7432C35.0621 30.5433 34.931 30.3491 34.7686 30.168C34.6124 29.9868 34.437 29.8243 34.2559 29.6807C34.0685 29.537 33.887 29.4183 33.6934 29.3184C33.5623 29.2497 33.4311 29.1937 33.3125 29.1562C33.6374 28.9626 33.9683 28.8563 34.3369 28.8438C34.7682 28.8312 35.25 28.9057 35.7812 29.0869C36.8312 29.4432 37.8688 29.7813 38.9062 30.0938C39.9437 30.4062 41.0124 30.6561 42.1123 30.8311C42.3873 30.8623 42.6688 30.8869 42.9688 30.8994C43.2623 30.9119 43.5245 30.9058 43.7432 30.8809C43.968 30.8559 44.1246 30.8185 44.2246 30.7686C44.3246 30.7186 44.3125 30.6495 44.2002 30.5684L44.2061 30.5996C44.1623 30.5746 44.1056 30.5373 44.0244 30.4873C43.9495 30.4374 43.8683 30.3869 43.7871 30.3369L43.5625 30.2119C43.4951 30.1751 43.4575 30.1569 43.4502 30.1562C43.2127 30.175 42.9682 30.1871 42.7119 30.1934C42.4559 30.1934 42.2125 30.1929 41.9814 30.168C40.8752 30.0242 39.7996 29.7996 38.7559 29.5371C37.7122 29.2684 36.6561 28.9683 35.5938 28.6309C35.2313 28.5184 34.9 28.4307 34.5938 28.3682C34.2875 28.3057 33.9998 28.2809 33.7373 28.2871ZM38.8496 35.3379C38.6873 35.444 38.5186 35.5376 38.3438 35.625C38.1688 35.7125 37.9934 35.7812 37.8184 35.8438C37.7934 35.8562 37.7742 35.8629 37.7617 35.8691C37.7557 35.8705 37.75 35.895 37.75 35.9375L37.793 36.2129L37.8438 36.5371C37.6814 36.6183 37.5124 36.6934 37.3438 36.7559C37.175 36.8184 37.0057 36.8684 36.8369 36.9121C36.806 36.9245 36.7876 36.9313 36.7812 36.9375C36.775 36.9375 36.7686 36.9625 36.7686 37C36.7811 37.0937 36.7936 37.225 36.7998 37.4062C36.7998 37.5812 36.8117 37.7127 36.8242 37.7939C36.8367 37.8064 36.8434 37.8124 36.8496 37.8311C36.8558 37.8434 36.8683 37.844 36.8867 37.8379C36.943 37.8254 37.0186 37.8066 37.1123 37.7754C37.2122 37.7442 37.3182 37.7123 37.4307 37.6748C37.5432 37.6373 37.6561 37.5936 37.7686 37.5498L38.0557 37.4248C38.0932 37.4061 38.1059 37.3873 38.0996 37.3623L38.0557 37.0684C38.037 36.9686 38.0242 36.8564 38.0117 36.7441C38.0742 36.7254 38.1562 36.6937 38.25 36.6562C38.3436 36.6188 38.4431 36.5808 38.543 36.5371C38.6429 36.4934 38.7432 36.4435 38.8369 36.3936L39.0811 36.2559C39.0846 36.2533 39.1247 36.224 39.125 36.2002L39.0244 35.7939C38.9869 35.6503 38.9557 35.5065 38.9307 35.3691L38.918 35.3496C38.914 35.3466 38.8845 35.3263 38.8496 35.3379ZM22.7246 31.8496C22.4747 31.8184 22.1746 31.8184 21.8311 31.8496C21.4875 31.8871 21.1314 31.9497 20.7754 32.0371C20.4193 32.1308 20.0753 32.2374 19.7441 32.3623C19.4191 32.4873 19.15 32.6248 18.9375 32.7686C18.7375 32.9061 18.5875 33.0688 18.5 33.25C18.4125 33.4374 18.3379 33.6378 18.2754 33.8564C18.2317 34.0126 18.2062 34.2125 18.1875 34.4561C18.1688 34.6998 18.1877 34.9434 18.2314 35.1934C18.2752 35.4371 18.3627 35.6623 18.4814 35.8623C18.6002 36.0684 18.7751 36.1994 19 36.2744C19.1625 36.3244 19.3312 36.3057 19.5 36.2119C19.6686 36.1182 19.8249 35.9934 19.9561 35.8311C20.0873 35.6686 20.1875 35.4935 20.25 35.2998C20.3125 35.1061 20.3125 34.9371 20.25 34.7871C20.2125 34.6872 20.1438 34.606 20.0439 34.5498C19.9441 34.4874 19.8315 34.4373 19.7129 34.3936C19.588 34.3498 19.4626 34.3064 19.3252 34.2627C19.1879 34.219 19.069 34.1688 18.9629 34.1064C18.8567 34.044 18.7754 33.9683 18.7129 33.8809C18.6505 33.7935 18.6249 33.6812 18.6436 33.5439C18.7873 33.4502 18.9499 33.356 19.1436 33.2686C19.3373 33.1811 19.5504 33.0936 19.7754 33.0186C20.0003 32.9436 20.2378 32.875 20.4814 32.8125C20.725 32.75 20.9623 32.6996 21.1934 32.6621C21.4245 32.6246 21.6499 32.6063 21.8623 32.5938C22.0748 32.5812 22.2629 32.5936 22.4316 32.6123C22.7189 32.6498 22.9315 32.7434 23.0752 32.8809C23.2189 33.0246 23.3125 33.1872 23.3438 33.3809C23.375 33.5746 23.3629 33.7812 23.3066 34C23.2504 34.2249 23.1558 34.4309 23.0371 34.6309C22.9371 34.7871 22.8373 34.9377 22.7373 35.0752C22.6375 35.2123 22.544 35.3308 22.4629 35.4307C22.3879 35.5119 22.3627 35.5812 22.3877 35.625C22.4127 35.6684 22.4568 35.6561 22.5254 35.5938C22.8066 35.3125 23.0502 34.9935 23.2627 34.6436C23.3626 34.4874 23.45 34.3124 23.5312 34.125L23.5439 34.1309C23.6252 33.9434 23.6873 33.7494 23.7373 33.5557C23.7872 33.3622 23.8066 33.1687 23.8066 32.9814C23.8066 32.7939 23.7684 32.6182 23.6934 32.4619C23.6184 32.3058 23.5057 32.1745 23.3496 32.0684C23.1934 31.9622 22.9869 31.8871 22.7246 31.8496ZM15.6816 28.6562C15.5379 28.6688 15.4002 28.7068 15.2627 28.7568C15.1252 28.8068 14.9937 28.869 14.875 28.9502C14.75 29.0314 14.6433 29.1252 14.5371 29.2314C14.4372 29.3376 14.3496 29.4562 14.2871 29.5811C14.2309 29.6873 14.1814 29.819 14.1377 29.9814C14.0939 30.1439 14.0561 30.3004 14.0186 30.4629C13.9873 30.6252 13.956 30.7625 13.9248 30.8936C13.8936 31.0186 13.8623 31.1066 13.8311 31.1504C13.8186 31.1625 13.8064 31.1563 13.7939 31.1377C13.7814 31.1189 13.7688 31.0938 13.75 31.0625C13.7313 31.0313 13.7185 30.9999 13.7061 30.9688C13.6936 30.9378 13.6814 30.9129 13.6689 30.9004C13.6314 30.8629 13.5996 30.8498 13.5684 30.8623C13.5373 30.8748 13.519 30.9002 13.5127 30.9375C13.5064 31.0624 13.4998 31.2375 13.4873 31.4561C13.4748 31.6747 13.4813 31.925 13.5 32.2061C13.5125 32.2936 13.5562 32.3187 13.625 32.2812C13.6624 32.2625 13.7125 32.2379 13.7686 32.1943C13.831 32.1506 13.8936 32.1062 13.9561 32.0625C14.031 32.0125 14.1063 31.9628 14.1875 31.9004C14.2 31.863 14.1999 31.8129 14.1875 31.7568C14.1688 31.7008 14.169 31.6569 14.1875 31.6318C14.3438 31.3756 14.4563 31.1186 14.5312 30.8623C14.6062 30.6063 14.675 30.369 14.7188 30.1504C14.7687 29.9317 14.8121 29.7439 14.8496 29.5752C14.8871 29.4129 14.9501 29.2944 15.0312 29.2256C15.2061 29.2131 15.406 29.2131 15.6309 29.2256C15.8559 29.2443 16.0879 29.2756 16.3379 29.3193C16.5878 29.3631 16.838 29.4186 17.0879 29.4873C17.3439 29.556 17.5873 29.6314 17.8184 29.7188C18.0496 29.8062 18.2691 29.9 18.4629 30C18.6627 30.0999 18.8309 30.2005 18.9746 30.3066C19.2184 30.4879 19.3691 30.6818 19.4316 30.8818C19.494 31.0817 19.4878 31.282 19.4316 31.4756C19.3692 31.6691 19.2564 31.8564 19.0879 32.0312C18.9191 32.2062 18.7311 32.3506 18.5186 32.4756C18.5123 32.4758 18.5004 32.4813 18.4941 32.4873C18.5253 32.45 18.5568 32.4192 18.5879 32.3818C18.7066 32.2256 18.7621 32.0812 18.7559 31.9375C18.7496 31.7938 18.6937 31.6623 18.5938 31.5498C18.4938 31.4374 18.3559 31.3435 18.1748 31.2686C18 31.1999 17.8001 31.1625 17.5879 31.1562C17.3691 31.1562 17.1437 31.1936 16.9062 31.2686C16.6688 31.3498 16.4437 31.475 16.2188 31.6562C16.1063 31.7437 16.0186 31.85 15.9561 31.9688C15.8936 32.0874 15.8441 32.2126 15.8066 32.3438C15.7692 32.4749 15.7436 32.6126 15.7373 32.75C15.7311 32.8875 15.7246 33.0256 15.7246 33.1631C15.3935 33.2068 15.0746 33.2443 14.7686 33.2568C14.4687 33.2756 14.2373 33.2873 14.0811 33.2998C14.0311 33.2999 13.9557 33.3319 13.8496 33.3818C13.7436 33.4318 13.6434 33.4878 13.5498 33.5439C13.4625 33.6001 13.3878 33.6565 13.3379 33.7002C13.2879 33.7439 13.2876 33.7689 13.3438 33.7627C13.7124 33.7315 14.1062 33.7066 14.5186 33.6816C14.9311 33.6566 15.3377 33.6318 15.7314 33.6006C15.7502 33.8566 15.7685 34.1064 15.7686 34.3438C15.7686 34.5812 15.7691 34.8004 15.7441 34.9941C15.6754 34.9316 15.6311 34.8873 15.6123 34.8623C15.5935 34.8374 15.5623 34.8064 15.5127 34.7754C15.4315 34.7192 15.3879 34.719 15.3691 34.7627C15.3504 34.8064 15.3505 34.8624 15.3691 34.9248C15.3816 34.9623 15.4062 35.0443 15.4375 35.1631C15.475 35.2817 15.5123 35.407 15.5498 35.5381C15.5935 35.6691 15.6312 35.7937 15.6748 35.8936C15.7123 35.9997 15.7436 36.0568 15.7686 36.0693C15.7998 36.0881 15.8504 36.0756 15.9004 36.0381C15.9566 36.0006 16.0121 35.9498 16.0684 35.8936C16.1246 35.8373 16.1809 35.7812 16.2246 35.7188C16.2683 35.6564 16.2996 35.6065 16.3184 35.5752C16.3433 35.5565 16.3503 35.519 16.3379 35.4629C16.3254 35.4067 16.3066 35.3191 16.2754 35.1943C16.3129 34.9631 16.3371 34.7125 16.3496 34.4375C16.3621 34.1625 16.3502 33.856 16.3252 33.5186C16.7751 33.4748 17.1877 33.356 17.5752 33.1748C17.7126 33.1061 17.8438 33.0249 17.9688 32.9375C18.2186 32.8375 18.4624 32.7253 18.7061 32.5879C18.8748 32.4941 19.0441 32.3816 19.2129 32.2441L19.2246 32.2568C19.3933 32.1194 19.55 31.9752 19.6875 31.8252C19.8312 31.6689 19.9434 31.5061 20.0371 31.3311C20.1308 31.1561 20.1809 30.981 20.1934 30.7998C20.2058 30.6187 20.1685 30.4376 20.0811 30.2627C19.9936 30.0816 19.8377 29.9128 19.6191 29.7441C19.4066 29.5879 19.1311 29.4381 18.7998 29.2881C18.4624 29.1444 18.1064 29.0189 17.7314 28.9189C17.3565 28.819 16.9816 28.7375 16.6191 28.6875C16.2568 28.6375 15.9441 28.625 15.6816 28.6562ZM40.9316 31.8936C40.9003 31.8062 40.775 31.7876 40.75 31.9375C40.6938 32.4623 40.5877 33.5867 40.6875 33.9746C40.775 34.3996 41.4945 35.5629 41.7695 35.6816C42.1382 35.8301 42.6196 34.5376 42.7383 34.2627C43.0945 33.319 43.1066 33.3249 42.5254 32.5625C42.2879 32.2313 42.2316 32.1688 42.1504 32.4688C42.013 33.0557 41.495 34.485 41.3008 34.4004C41.1695 34.3379 40.9629 32.0123 40.9316 31.8936ZM18.9248 34.9932C19.0498 35.0494 19.175 35.0932 19.3125 35.1182C19.4437 35.1432 19.5688 35.1995 19.6875 35.2744C19.7374 35.2993 19.7558 35.3308 19.7559 35.3682C19.7559 35.4056 19.7376 35.4311 19.7002 35.4561C19.6628 35.481 19.619 35.5002 19.5566 35.5127C19.4941 35.5252 19.4311 35.5252 19.3623 35.5127C19.2562 35.4877 19.1626 35.4186 19.0752 35.3125C18.9877 35.2062 18.9373 35.0994 18.9248 34.9932ZM8.35645 32.5068C8.09399 32.5756 7.99361 32.6254 8.0498 32.6504C9.01842 33.2253 9.99349 33.7749 10.9746 34.2998C11.9559 34.8248 11.1316 34.4377 12.1504 34.9189H12.1562C12.2062 34.9376 12.2811 34.9376 12.3809 34.9189C12.4808 34.9002 12.6561 34.8629 12.8936 34.8066C12.9311 34.8066 12.9309 34.7936 12.9121 34.7686V34.7441C11.8938 34.2631 12.7183 34.6503 11.7314 34.1318C10.744 33.6131 9.76268 33.0623 8.79395 32.4873C8.73795 32.4562 8.68783 32.4499 8.65039 32.4561C8.61291 32.4685 8.51258 32.4819 8.35645 32.5068ZM30.5371 30.5186C29.681 30.8936 29.7372 32.362 28.8311 32.6621C28.4311 32.7933 28.237 32.4812 27.9434 33.1309C27.8059 33.1308 27.5936 33.1186 27.4873 33.2246C27.3311 33.3808 27.3686 33.7562 27.4248 33.9375C27.4373 33.9687 27.5187 34.2247 27.5625 34.1504C27.6 34.0816 27.6184 33.9688 27.6309 33.9062C27.6308 33.8812 27.5064 33.7005 27.5371 33.6191C27.5559 33.5754 27.806 33.5497 27.8936 33.5684C27.8812 33.6426 27.8749 33.803 27.8809 33.8184L27.8877 33.8125C27.8815 33.8998 27.943 33.875 27.9619 33.8252C28.1994 32.7878 28.4436 33.2253 28.8623 33.0879C29.5748 32.8504 29.8563 31.5439 30.4062 30.7627C30.4312 30.7314 30.6621 30.4686 30.5371 30.5186ZM37.7754 31.5879C37.6441 31.6879 37.5061 31.7816 37.3623 31.8691C37.2186 31.9566 37.0689 32.0322 36.9189 32.0947C36.8941 32.1072 36.8813 32.1129 36.875 32.1191C36.8688 32.1191 36.8746 32.1445 36.8809 32.1758L36.9814 32.4189L37.0996 32.707C36.9624 32.7881 36.8251 32.863 36.6816 32.9316C36.5379 33.0004 36.3937 33.0568 36.25 33.1006H36.2686C36.2659 33.1017 36.2248 33.1199 36.2188 33.126C36.2125 33.126 36.2125 33.1504 36.2188 33.1816C36.25 33.2629 36.2942 33.3815 36.3379 33.5439C36.3816 33.7002 36.4184 33.8195 36.4434 33.8945C36.4558 33.9008 36.4621 33.9133 36.4746 33.9258C36.4808 33.9381 36.4935 33.938 36.5059 33.9258C36.5496 33.9133 36.6189 33.8877 36.7002 33.8564C36.7814 33.8252 36.8755 33.7878 36.9629 33.7441C37.0565 33.7005 37.1505 33.6564 37.2441 33.6064L37.4814 33.4756C37.4835 33.4735 37.518 33.4372 37.5059 33.4189L37.4004 33.1572C37.3629 33.0697 37.3246 32.9691 37.2871 32.8691C37.3433 32.8441 37.4123 32.8191 37.4873 32.7754C37.5686 32.7379 37.6502 32.6941 37.7314 32.6504C37.8125 32.6068 37.8936 32.557 37.9746 32.501L38.1689 32.3633C38.1689 32.3633 38.2002 32.3316 38.2002 32.3066L38.0186 31.957C37.9499 31.8322 37.8941 31.7071 37.8379 31.5947C37.8255 31.5761 37.8003 31.5756 37.7754 31.5879ZM38.6816 32.3691C38.5443 32.4878 38.394 32.588 38.2441 32.6816C38.0941 32.7754 37.9371 32.8508 37.7871 32.9258C37.7623 32.9382 37.7435 32.9508 37.7373 32.957C37.7367 32.9599 37.7325 32.9835 37.7441 33.0127L37.9395 33.5986C37.9621 33.6571 37.984 33.704 38.0059 33.7383C38.006 33.7693 38.0255 33.7816 38.0566 33.7754C38.1065 33.7566 38.1687 33.7252 38.2559 33.6816C38.3434 33.6379 38.4313 33.5943 38.5312 33.5381C38.6311 33.4881 38.7247 33.4319 38.8184 33.3633C38.912 33.3008 38.9873 33.2443 39.0498 33.1943C39.0748 33.1756 39.0873 33.1564 39.0811 33.1377L38.9121 32.7627C38.856 32.6255 38.7999 32.5007 38.75 32.376C38.7376 32.3573 38.7127 32.3568 38.6816 32.3691ZM16.4629 31.7939C16.6191 31.7503 16.7943 31.7373 16.9941 31.7686C17.194 31.7998 17.3753 31.8504 17.5439 31.9316C17.7062 32.0065 17.8311 32.1 17.9248 32.2061C18.0123 32.3123 18.0248 32.4252 17.9561 32.5439C17.906 32.6376 17.8122 32.7194 17.6748 32.7881C17.5375 32.8567 17.3814 32.9192 17.2129 32.9629C17.0441 33.0066 16.8813 33.0439 16.7188 33.0752C16.5563 33.1064 16.4252 33.1191 16.3252 33.1191C16.3127 32.913 16.3127 32.6879 16.3252 32.4443C16.3439 32.1943 16.3879 31.9814 16.4629 31.7939ZM14.9873 6.25C14.9436 6.21875 14.9123 6.2123 14.8936 6.2373C14.8687 6.25607 14.8619 6.28741 14.8682 6.33105C14.8683 6.35006 14.8807 6.40643 14.8994 6.4873C14.9182 6.56852 14.9373 6.66217 14.9561 6.75586C14.9748 6.84959 14.9939 6.93732 15.0127 7.01855C15.0376 7.09334 15.05 7.13693 15.0625 7.14941C15.0875 7.17441 15.1314 7.20605 15.2002 7.2373C15.2687 7.2685 15.3184 7.30597 15.3496 7.34961C15.5371 7.61206 15.725 7.88052 15.9062 8.13672C16.0874 8.39911 16.262 8.64952 16.4307 8.89941C16.5744 9.11191 16.7502 9.36856 16.9502 9.6748C17.1501 9.9746 17.3621 10.2809 17.5869 10.5869C17.8056 10.8931 18.0309 11.1809 18.2559 11.4434C18.437 11.6557 18.612 11.8307 18.7744 11.9619C18.762 11.9744 18.7497 11.9876 18.7373 12L18.4121 12.418C18.2997 12.5616 18.1876 12.6995 18.0752 12.8369C17.9627 12.9744 17.8434 13.1 17.7246 13.2188C17.6061 13.3373 17.4812 13.437 17.3564 13.5244C17.194 13.6431 17.0437 13.7121 16.9062 13.7246C16.7688 13.7371 16.6435 13.7248 16.5186 13.6748C16.3936 13.6311 16.281 13.5685 16.1748 13.4873C16.0686 13.4061 15.9683 13.3312 15.8809 13.25C15.7934 13.175 15.7127 13.118 15.6377 13.0742C15.5628 13.0305 15.4937 13.0307 15.4375 13.0742C15.35 13.1305 15.2934 13.2559 15.2871 13.4434C15.2809 13.6308 15.2871 13.8438 15.3184 14.0625C15.3496 14.2874 15.3934 14.5064 15.4434 14.7188C15.4996 14.9311 15.5373 15.0936 15.5498 15.2061C15.5935 15.5685 15.581 15.9309 15.5186 16.2871C15.4561 16.6432 15.3622 16.9743 15.2373 17.293C15.2561 17.3367 15.2684 17.3811 15.2871 17.4248L15.3564 17.5742C15.3814 17.6305 15.4186 17.6998 15.4561 17.7686C15.4997 17.8434 15.556 17.9369 15.6309 18.043C15.6496 18.0742 15.6749 18.093 15.7061 18.1055C15.7373 18.118 15.7621 18.1055 15.7871 18.0742C15.9121 17.9243 16.0747 17.7558 16.2871 17.5684C16.4996 17.3809 16.725 17.206 16.9688 17.0498C17.2125 16.8873 17.4564 16.7561 17.7002 16.6436C17.9437 16.5312 18.1558 16.4555 18.3369 16.418C18.1619 16.7742 17.9937 17.1561 17.8438 17.5498C17.6938 17.9496 17.5185 18.3056 17.2998 18.6367C17.1873 18.7867 17.0311 18.8623 16.8311 18.8623C16.6248 18.8623 16.406 18.825 16.1748 18.75C15.9373 18.675 15.7059 18.5871 15.4746 18.4746L14.8809 18.1992C14.606 18.0806 14.3311 17.9685 14.0625 17.8623C13.7937 17.7561 13.5186 17.6617 13.2373 17.5742C12.9561 17.4867 12.6621 17.4121 12.3496 17.3496C12.0434 17.2871 11.7122 17.2373 11.3623 17.2061H11.0811C10.9687 17.2061 10.8626 17.2248 10.7627 17.2373C10.6691 17.256 10.5939 17.2809 10.5439 17.3184C10.494 17.3496 10.4996 17.3873 10.5557 17.4248L10.7686 17.6055C10.8498 17.6742 10.9373 17.75 11.0186 17.8125C11.106 17.8812 11.1809 17.9373 11.2559 17.9873C11.3307 18.0372 11.3808 18.0617 11.4121 18.0557C11.6495 18.0619 11.9496 18.0868 12.3057 18.1367C12.6619 18.1867 13.0248 18.2557 13.3936 18.3369C13.756 18.4244 14.0999 18.5242 14.4248 18.6367C14.7436 18.7492 14.9939 18.8561 15.1689 18.9561C15.2314 18.9935 15.306 19.0498 15.3809 19.1309C15.4559 19.2121 15.5252 19.3 15.5752 19.4062C15.6876 19.6436 15.8066 19.9433 15.9502 20.293C16.0877 20.643 16.2188 20.9873 16.3438 21.3311C16.4687 21.6747 16.5686 21.9811 16.6436 22.2686C16.7185 22.5559 16.7312 22.7813 16.6562 22.9688C16.5938 23.1248 16.4993 23.2368 16.3682 23.293C16.237 23.3554 16.0808 23.3867 15.9121 23.3867C15.7372 23.3867 15.5559 23.3687 15.3623 23.3125C15.1686 23.2625 14.9871 23.2061 14.8184 23.1436H14.8125C14.8063 22.8374 14.837 22.4997 14.9307 22.1436C14.9369 22.1123 14.8994 22.0625 14.8057 22C14.7121 21.9376 14.6251 21.8684 14.5439 21.7998C14.4503 21.7311 14.3624 21.675 14.2812 21.625C14.2 21.575 14.1496 21.5807 14.1309 21.6494C14.0184 22.0557 13.9059 22.4436 13.7871 22.8311C13.6684 23.2183 13.5564 23.612 13.4502 24.0117C13.3439 24.4117 13.2561 24.8248 13.1748 25.2373C13.0936 25.656 13.0435 26.0876 13.0186 26.5312C12.9186 26.4125 12.7932 26.3125 12.6494 26.2188C12.5057 26.125 12.3499 26.0369 12.1875 25.9619C12.0251 25.8807 11.8749 25.8125 11.7188 25.75C11.5688 25.6875 11.4244 25.6246 11.3057 25.5684C11.1871 25.5122 11.0872 25.4617 11.0186 25.418C10.9502 25.3744 10.9185 25.3371 10.9307 25.2998C10.9432 25.2748 10.9873 25.2496 11.0684 25.2246L11.3623 25.125C11.481 25.0875 11.5997 25.0371 11.7246 24.9746C11.8496 24.9121 11.9689 24.8373 12.0752 24.7373C12.1814 24.6373 12.2686 24.5183 12.3311 24.3809C12.3935 24.2434 12.4187 24.0746 12.4062 23.8809C12.4062 23.6371 12.3559 23.4307 12.2559 23.2744C12.1559 23.112 12.0312 22.9744 11.875 22.8682C11.7188 22.7557 11.5438 22.6621 11.3564 22.5996C11.1628 22.5309 10.9814 22.4742 10.7939 22.418C11.0063 22.418 11.2189 22.4062 11.4375 22.375C11.6562 22.3438 11.85 22.2932 12.0312 22.2119C12.2124 22.1369 12.3623 22.0242 12.4873 21.8867C12.6122 21.7492 12.6934 21.5616 12.7246 21.3242C12.7808 21.1118 12.7873 20.9243 12.7373 20.7432C12.6873 20.562 12.606 20.3935 12.4873 20.2373C12.3686 20.0811 12.2248 19.9369 12.0498 19.8057C11.8748 19.6744 11.6937 19.5554 11.5 19.4492C11.3063 19.343 11.1123 19.2498 10.9248 19.1748C10.7373 19.0998 10.5625 19.0367 10.4062 18.9805C9.78129 18.7742 9.14995 18.6246 8.5 18.5371C7.85 18.4496 7.20566 18.3563 6.55566 18.25C6.52468 18.2375 6.52494 18.2183 6.5498 18.1934C6.5748 18.1684 6.61855 18.1367 6.6748 18.1055C6.73098 18.068 6.79366 18.031 6.8623 17.9873C6.93105 17.9436 6.9875 17.9057 7.03125 17.8682C7.0999 17.8182 7.13066 17.7617 7.11816 17.6992C7.10554 17.637 7.05599 17.6055 6.96875 17.6055C6.90625 17.6055 6.7748 17.6187 6.58105 17.6562C6.38734 17.6938 6.16849 17.7496 5.9248 17.8184C5.68108 17.8871 5.43708 17.9623 5.19336 18.0498C4.94975 18.1373 4.74348 18.2125 4.58105 18.2812C4.53126 18.3 4.50566 18.3369 4.49316 18.3867C4.48693 18.4366 4.49371 18.4805 4.51855 18.5117L4.6377 18.6367C4.7002 18.7055 4.775 18.775 4.84375 18.8438C4.91863 18.9124 4.9876 18.9751 5.0625 19.0312C5.13106 19.0873 5.16878 19.1119 5.1875 19.1182C5.225 19.1056 5.28154 19.0808 5.35645 19.0371C5.43114 18.9936 5.49956 18.975 5.55566 18.9688L5.84961 18.9805L6.1875 19C6.29995 19.0063 6.41274 19.0182 6.5127 19.0244C6.61253 19.0369 6.69989 19.0432 6.76855 19.0557C7.4248 19.1432 8.08145 19.2184 8.73145 19.2871C9.3813 19.3559 10.0187 19.4932 10.6436 19.6807C10.8434 19.7369 11.0433 19.793 11.2432 19.8555C11.4369 19.918 11.6314 19.993 11.8252 20.0742C11.8627 20.1242 11.8873 20.1932 11.8936 20.2744C11.8998 20.3557 11.8998 20.4434 11.8936 20.5371C11.8811 20.6308 11.8684 20.725 11.8496 20.8125C11.8309 20.8997 11.8126 20.9809 11.7939 21.0557C11.7252 21.3307 11.5875 21.5186 11.375 21.6436C11.1625 21.7623 10.9182 21.843 10.6494 21.8867C10.3808 21.9242 10.1118 21.9373 9.83691 21.9248C9.56211 21.9061 9.33057 21.8937 9.14941 21.875C8.6808 21.8313 8.21178 21.7931 7.74316 21.7432C7.27457 21.6932 6.8059 21.6807 6.33105 21.7119C5.91858 21.7307 5.5369 21.7686 5.18066 21.8311C4.82461 21.8935 4.50573 21.9618 4.22461 22.043C4.12482 22.0617 4.08111 22.112 4.08105 22.1807C4.08105 22.2494 4.14395 22.3057 4.2627 22.3369C4.35634 22.3681 4.45601 22.4124 4.56836 22.4561C4.68086 22.4998 4.7873 22.5436 4.89355 22.5811C4.99972 22.6185 5.08715 22.6498 5.16211 22.6748C5.23711 22.6998 5.28145 22.7119 5.29395 22.7119C5.51876 22.6932 5.74355 22.6617 5.97461 22.6367C6.20586 22.6055 6.4377 22.5807 6.66895 22.5557C7.14368 22.5182 7.61218 22.5186 8.08691 22.5498C8.55551 22.581 9.03081 22.5998 9.49316 22.6123C9.76816 22.6248 10.0564 22.6496 10.3564 22.6934C10.6562 22.7371 10.9311 22.793 11.1934 22.8555C11.2433 22.8992 11.2813 22.9618 11.3125 23.043C11.3437 23.1242 11.3689 23.2057 11.3877 23.3057C11.4064 23.3994 11.4186 23.4932 11.4248 23.5869C11.4311 23.6806 11.431 23.7619 11.4248 23.8369C11.4186 24.0432 11.3807 24.1996 11.3057 24.3184C11.2307 24.437 11.1436 24.5309 11.0312 24.5996C10.925 24.6684 10.8061 24.7246 10.6748 24.7559C10.5498 24.7933 10.425 24.8188 10.3125 24.8438C10.2 24.8687 10.0994 24.8932 10.0244 24.9307C9.94963 24.9619 9.90565 25.0189 9.89941 25.0938C9.88719 25.1999 9.95609 25.3189 10.0996 25.4375C10.2433 25.5625 10.4127 25.6805 10.6064 25.793C10.8002 25.9054 11.0002 26.0059 11.2002 26.0996C11.4 26.187 11.5499 26.2563 11.6436 26.3125C11.956 26.5 12.2313 26.7313 12.4688 27C12.7061 27.2687 12.912 27.5501 13.0869 27.8438C13.1306 27.8562 13.1809 27.8746 13.2246 27.8809L13.3809 27.918C13.4434 27.9305 13.5125 27.9436 13.5938 27.9561C13.6812 27.9685 13.7811 27.9748 13.9121 27.9873C13.9494 27.9873 13.9809 27.9872 14.0059 27.9688C14.0309 27.9562 14.0437 27.9242 14.0312 27.8867C13.9875 27.6931 13.9562 27.4558 13.9375 27.1748C13.9188 26.8937 13.9246 26.6061 13.9434 26.3125C13.9684 26.0187 14.0121 25.743 14.0684 25.4805C14.1308 25.2182 14.2001 24.9997 14.2812 24.8311C14.45 25.1935 14.6436 25.5624 14.8623 25.9248C15.081 26.2872 15.2496 26.6495 15.3809 27.0244C15.4308 27.2118 15.4062 27.3743 15.2939 27.5117C15.1814 27.6555 15.0371 27.7807 14.8496 27.8994C14.6622 28.0119 14.4622 28.118 14.2373 28.1992C14.0186 28.2867 13.825 28.3619 13.6562 28.4307C12.625 28.8432 11.6119 29.2625 10.6182 29.6875C9.62463 30.1187 8.64355 30.6122 7.6875 31.1934C7.45625 31.3434 7.2248 31.5121 6.9873 31.6934C6.75609 31.8746 6.55565 32.0494 6.39941 32.2119C6.24326 32.3743 6.14334 32.5061 6.09961 32.6123C6.05612 32.7121 6.11265 32.7556 6.25 32.7432C6.29997 32.7369 6.36868 32.725 6.45605 32.7188C6.54355 32.7062 6.6377 32.6936 6.73145 32.6748L6.98145 32.625C7.05532 32.6065 7.09263 32.5998 7.09961 32.5996C7.26828 32.4309 7.4499 32.2624 7.64355 32.0938C7.83105 31.925 8.03125 31.768 8.21875 31.6367C9.1561 31.0306 10.1248 30.5058 11.0996 30.0371L11.1875 30.0498C12.1624 29.5811 13.1621 29.1308 14.1807 28.6934C14.3182 28.6371 14.475 28.5686 14.6562 28.4873C14.8374 28.4061 15.0186 28.3187 15.2061 28.2188C15.3934 28.1189 15.5746 28.0186 15.7432 27.9062C15.9117 27.8001 16.0558 27.6811 16.1807 27.5625C16.2994 27.4438 16.3875 27.3184 16.4375 27.1934C16.4875 27.0685 16.4813 26.9372 16.4189 26.7998C16.319 26.575 16.2001 26.3561 16.0752 26.1562L15.6875 25.5371C15.5563 25.3247 15.4312 25.1061 15.3125 24.875C15.1938 24.6437 15.0871 24.3932 15.0059 24.1182C14.9371 23.887 14.8932 23.6368 14.8682 23.3682C14.8807 23.3682 14.8938 23.3809 14.9062 23.3809C15.1124 23.4558 15.3622 23.5182 15.6494 23.5869C15.9369 23.6494 16.2188 23.6812 16.5 23.6875C16.7812 23.6875 17.0249 23.6621 17.2373 23.5996C17.4497 23.5372 17.5875 23.4248 17.6562 23.25C17.7 23.15 17.7057 23.0246 17.6807 22.8809C17.6557 22.7372 17.6181 22.5811 17.5557 22.4062C17.4994 22.2313 17.4244 22.0437 17.3369 21.8438L17.0752 21.2246C16.9814 21.0121 16.8936 20.8059 16.7998 20.5996C16.7061 20.3934 16.6187 20.1994 16.5312 20.0244C16.4125 19.7932 16.2557 19.5875 16.0557 19.4062C15.8557 19.225 15.6559 19.0432 15.4434 18.8682L15.8936 19.0557C16.0623 19.1244 16.2313 19.1998 16.4062 19.2686C16.5812 19.3373 16.7626 19.3998 16.9375 19.4561C17.1123 19.5122 17.2808 19.5431 17.4307 19.5557C17.5807 19.5682 17.7186 19.5555 17.8311 19.5117C17.9498 19.468 18.0377 19.3867 18.1064 19.2617C18.225 19.037 18.3188 18.8185 18.4062 18.5938L18.6562 17.9062C18.7375 17.6751 18.8375 17.4435 18.9375 17.2061C19.0437 16.9687 19.1746 16.7311 19.3369 16.5C19.4994 16.2688 19.7059 16.0431 19.9434 15.8369C20.187 15.6307 20.4808 15.4433 20.8369 15.2871C20.8682 15.2746 20.8807 15.2121 20.8682 15.0996C20.8619 14.9871 20.8619 14.8742 20.8682 14.7617C20.8681 14.6493 20.8562 14.5429 20.8438 14.4492C20.8312 14.3557 20.7935 14.3188 20.7373 14.3438C20.3561 14.5 19.9745 14.6496 19.5996 14.7871C19.2247 14.9308 18.8499 15.0807 18.4688 15.2432C18.0938 15.4057 17.7188 15.5811 17.3438 15.7686C16.9688 15.9623 16.5998 16.1813 16.2373 16.4375C16.2686 16.2875 16.2746 16.1242 16.2559 15.9492C16.2371 15.7744 16.2123 15.5996 16.1748 15.4248C16.1373 15.2498 16.0994 15.0805 16.0557 14.918C16.012 14.7556 15.9746 14.6116 15.9434 14.4805C15.9122 14.3494 15.8933 14.2433 15.8809 14.1621C15.8746 14.0809 15.8812 14.0311 15.9248 14.0186C15.9498 14.0186 15.9996 14.0373 16.0684 14.0811L16.3252 14.2559C16.4314 14.3246 16.544 14.3936 16.6689 14.4561C16.7938 14.5184 16.9248 14.5625 17.0684 14.5938C17.2121 14.6187 17.3563 14.6186 17.5 14.5811C17.65 14.5498 17.7938 14.4623 17.9375 14.3311C18.0687 14.2124 18.1997 14.0809 18.3184 13.9248C18.4371 13.7686 18.5619 13.6117 18.6807 13.4492L19.0312 12.9561C19.1437 12.7936 19.2621 12.6369 19.3809 12.4932C19.6745 12.7306 19.962 12.8935 20.2432 12.9873C20.5119 13.0748 20.8 13.0748 21.125 12.9873C21.1187 13.0372 21.1059 13.0933 21.0996 13.1494C21.0809 13.3057 21.0684 13.4434 21.0684 13.5684C21.0684 13.9496 21.1498 14.2871 21.2998 14.5684C21.4498 14.8496 21.644 15.0873 21.8877 15.2686C22.1313 15.4497 22.4187 15.587 22.7373 15.6807C23.0623 15.7744 23.4 15.8119 23.75 15.8057C24.1625 15.7994 24.6252 15.7435 25.1377 15.6436C25.425 15.5873 25.7059 15.5183 25.9932 15.4434C25.9244 15.6058 25.8621 15.7624 25.8184 15.9248C25.756 16.1371 25.725 16.3432 25.7188 16.543C25.7125 16.7492 25.7437 16.9373 25.8125 17.1123C25.8813 17.2872 26.0003 17.4376 26.1689 17.5625C26.3313 17.6873 26.5561 17.7749 26.8369 17.8311C27.0182 17.8686 27.2189 17.8871 27.4502 17.8809C27.6812 17.8808 27.9247 17.8623 28.1807 17.8311C28.4369 17.7998 28.7 17.7623 28.9688 17.7061C29.2374 17.6498 29.4933 17.5867 29.7432 17.5117C29.9931 17.443 30.2247 17.3619 30.4434 17.2744C30.6558 17.1869 30.8438 17.0937 31 17C31.1624 16.9001 31.3183 16.756 31.4619 16.5625C31.6057 16.3687 31.7061 16.1807 31.7686 15.9932C31.8185 15.8494 31.8436 15.7179 31.8311 15.6055C31.8248 15.4931 31.8062 15.387 31.7812 15.2871C31.7563 15.1871 31.7311 15.0808 31.7061 14.9746C31.6811 14.8684 31.6809 14.7433 31.6934 14.5996V14.5811L32.0869 14.6494L32.6436 14.75C32.5499 14.8562 32.4806 14.962 32.4307 15.0557C32.3807 15.1494 32.3494 15.2436 32.3369 15.3311C32.3245 15.4185 32.3244 15.5124 32.3369 15.6123C32.3494 15.7123 32.3746 15.8247 32.4121 15.9434L32.2373 16.043C32.1686 16.0805 32.1061 16.1187 32.0498 16.1562C31.9937 16.1937 31.9433 16.237 31.9121 16.2744C31.8747 16.3119 31.8619 16.3438 31.8682 16.375C31.8746 16.4122 31.9066 16.4248 31.9502 16.4248C31.9939 16.4247 32.05 16.4117 32.1123 16.3867C32.1748 16.3617 32.2502 16.331 32.3252 16.2998L32.5439 16.1992C32.7627 16.5429 33.0119 16.8873 33.3057 17.2373C33.5994 17.5873 33.9064 17.9373 34.2314 18.2998C34.5501 18.656 34.8753 19.0124 35.2002 19.3623C35.5313 19.7122 35.8374 20.0434 36.1436 20.3496C36.2623 20.4684 36.3937 20.6 36.5312 20.75C36.6749 20.8999 36.794 21.0307 36.8877 21.1494C36.6127 21.4057 36.4057 21.6559 36.2744 21.9121C36.1558 22.1432 36.1128 22.4057 36.1377 22.6992C35.9127 22.6367 35.6809 22.5869 35.4434 22.5557C35.2372 22.5244 35.0186 22.5059 34.7812 22.5059C34.55 22.5059 34.3187 22.525 34.0938 22.5625C33.8688 22.6 33.6625 22.6619 33.4688 22.7432C33.275 22.8307 33.1127 22.9438 32.9814 23.0938C32.8502 23.2375 32.7621 23.4184 32.7246 23.6309C32.6809 23.8433 32.7001 24.0994 32.7812 24.3867C32.8563 24.668 32.9932 24.9811 33.1807 25.3311C33.3681 25.681 33.5934 26.0245 33.8496 26.3682C34.1059 26.7119 34.3744 27.025 34.6494 27.3125C34.9244 27.6 35.1875 27.8188 35.4375 27.9688C35.5687 28.0499 35.7066 28.118 35.8564 28.168C36.0063 28.2179 36.1623 28.2492 36.3184 28.2617C36.4745 28.2742 36.631 28.2687 36.7871 28.25C36.9434 28.225 37.0936 28.1807 37.2373 28.1182C37.356 28.0682 37.481 27.987 37.6309 27.8809C37.7745 27.7747 37.9124 27.6623 38.0498 27.5498C38.181 27.4373 38.3059 27.3306 38.4121 27.2432C38.5182 27.1558 38.6059 27.0995 38.6621 27.0869C38.6808 27.0869 38.6937 27.0933 38.6875 27.1182C38.6875 27.1431 38.681 27.1745 38.6748 27.2119C38.6686 27.2494 38.6619 27.2868 38.6494 27.3242C38.6369 27.3617 38.6377 27.3875 38.6377 27.4062C38.6378 27.4622 38.6628 27.4934 38.7002 27.5059C38.7376 27.5182 38.7686 27.5054 38.7998 27.4805C38.8935 27.3742 39.0128 27.231 39.1689 27.0498C39.3251 26.8686 39.4876 26.6561 39.6562 26.4062C39.7 26.3188 39.6809 26.2684 39.5996 26.2559C39.5559 26.2496 39.4932 26.2373 39.4121 26.2373C39.3311 26.2373 39.25 26.2246 39.1689 26.2246C39.0752 26.2121 38.9686 26.2061 38.8623 26.2061C38.8249 26.2311 38.7935 26.2749 38.7686 26.3311C38.7436 26.3934 38.7181 26.425 38.6807 26.4375C38.3809 26.55 38.1124 26.6937 37.875 26.8623C37.6375 27.031 37.4307 27.1875 37.2432 27.3438C37.0622 27.4935 36.8936 27.6308 36.75 27.7432C36.6063 27.8557 36.4748 27.9186 36.3623 27.9248C36.1998 27.8186 36.0309 27.6811 35.8496 27.5186C35.6684 27.3561 35.4937 27.1682 35.3125 26.9619C35.1313 26.7558 34.9562 26.5374 34.7812 26.3125C34.6063 26.0875 34.4494 25.8562 34.3057 25.625C34.1619 25.3937 34.0438 25.168 33.9375 24.9492C33.8314 24.7308 33.7564 24.531 33.7002 24.3438C33.6127 24.025 33.6121 23.7555 33.6934 23.543C33.7746 23.3306 33.9063 23.1621 34.0938 23.0371C34.2812 22.9122 34.4935 22.8305 34.7559 22.793C35.0121 22.7555 35.275 22.7555 35.5312 22.793C35.7375 22.8242 35.9375 22.8621 36.125 22.9121C36.1375 22.9122 36.1565 22.9186 36.1689 22.9248C36.2002 23.0371 36.2503 23.1247 36.3252 23.1934C36.425 23.2869 36.5435 23.3557 36.6807 23.3994C36.818 23.4431 36.9621 23.4687 37.1182 23.4688C37.2743 23.4688 37.4183 23.4679 37.5557 23.4492C37.8744 23.418 38.1 23.3246 38.25 23.1621C38.3937 22.9996 38.4748 22.7996 38.4873 22.5684C38.4998 22.3371 38.4559 22.0805 38.3496 21.8242C38.2434 21.5682 38.106 21.3311 37.9375 21.125C37.9188 21.1063 37.8996 21.0874 37.8809 21.0625C37.9059 21.025 37.9186 20.9994 37.9248 20.9932C37.9311 20.9807 37.9438 20.9683 37.9688 20.9434C38.175 20.7372 38.456 20.5308 38.8184 20.3184C39.1808 20.1059 39.5684 19.8996 39.9746 19.6934C40.387 19.4934 40.7934 19.3058 41.1934 19.1309C41.5934 18.9559 41.9375 18.8061 42.2188 18.6748C42.2935 18.6437 42.3496 18.6125 42.3994 18.5938C42.4493 18.5751 42.4935 18.5561 42.5371 18.5312C42.5807 18.5126 42.6309 18.4875 42.6807 18.4688C42.7306 18.45 42.7998 18.4185 42.8809 18.3936C42.9059 18.3873 42.9125 18.3936 42.9062 18.4248C42.8999 18.4498 42.8808 18.4876 42.8496 18.5312C42.8246 18.5748 42.787 18.6188 42.7559 18.6748C42.7185 18.7247 42.6931 18.7751 42.6807 18.8125C42.6622 18.8684 42.6684 18.9126 42.7119 18.9375C42.7494 18.9625 42.8063 18.9499 42.875 18.9062C42.925 18.875 43.025 18.7935 43.1562 18.6748C43.2938 18.5561 43.4439 18.4121 43.6064 18.2559C43.7688 18.0997 43.9314 17.9436 44.0938 17.7812C44.256 17.6252 44.387 17.4874 44.4932 17.375C44.5244 17.3438 44.531 17.3121 44.5186 17.2871C44.4998 17.2621 44.4749 17.2432 44.4375 17.2432H44C43.9064 17.2432 43.8188 17.2496 43.7314 17.2559C43.6503 17.2621 43.6063 17.2746 43.5938 17.2871C43.5625 17.3059 43.5311 17.3438 43.4873 17.4062C43.4436 17.4686 43.3995 17.5122 43.3496 17.5371C43.0622 17.6746 42.7743 17.8121 42.4932 17.9434C42.2058 18.0745 41.9307 18.2061 41.6621 18.3311C41.381 18.4622 41.0374 18.6181 40.6377 18.793C40.2377 18.9679 39.8314 19.1561 39.4189 19.3623C39.0065 19.5623 38.6252 19.7748 38.2627 19.9873C37.919 20.1873 37.6502 20.3873 37.4502 20.5811L37.1875 20.2812C37.1 20.1812 37.0184 20.0932 36.9434 20.0244C36.806 19.8683 36.6625 19.7059 36.5127 19.5498L36.1182 19.125C36.3682 19.1875 36.6189 19.2244 36.8877 19.2432C37.1501 19.2619 37.4003 19.2308 37.6377 19.1309C37.8251 19.0558 37.9813 18.9116 38.0938 18.6992C38.1999 18.4868 38.2744 18.2368 38.3057 17.9619C38.3369 17.6871 38.3244 17.4061 38.2744 17.125C38.2182 16.844 38.1313 16.5999 38.0127 16.4062C37.8502 16.15 37.6371 15.9305 37.3809 15.7617C37.1247 15.5931 36.8432 15.4625 36.5371 15.375C36.2309 15.2875 35.9183 15.2375 35.5996 15.2188C35.2809 15.2063 34.9743 15.2188 34.6807 15.25C34.3871 15.2813 34.1118 15.3307 33.8682 15.3994C33.6184 15.4681 33.4122 15.5242 33.2373 15.5742C33.1062 15.3056 33.0494 15.0554 33.0869 14.8242C33.1245 14.5931 33.2938 14.4062 33.6123 14.2812C33.6435 14.2625 33.6556 14.2372 33.6494 14.2061C33.6432 14.1749 33.6125 14.1499 33.5752 14.1436L32.7812 13.9873L31.9814 13.8125H31.9619C31.8996 13.825 31.8373 13.8497 31.7812 13.8809L31.6562 13.9248L31.4619 14.2246C31.4057 14.312 31.3562 14.4063 31.3125 14.5C31.2064 14.7184 31.156 14.8993 31.1621 15.043C31.1684 15.1867 31.1939 15.3188 31.2314 15.4375C31.2689 15.5561 31.2995 15.6689 31.3369 15.7812C31.3681 15.8937 31.3689 16.0249 31.3252 16.1748C31.169 16.2685 30.981 16.3617 30.7686 16.4492C30.5561 16.5367 30.3184 16.6187 30.0684 16.6875C29.8186 16.7562 29.5562 16.8246 29.2939 16.8809C29.0253 16.9371 28.7688 16.9809 28.5127 17.0059C28.2565 17.0309 28.0125 17.0498 27.7812 17.0498C27.55 17.0498 27.3434 17.0371 27.1621 17.0059C26.8497 16.9496 26.6119 16.8373 26.4619 16.6748C26.312 16.5124 26.2184 16.3247 26.1934 16.1123C26.1621 15.8999 26.1937 15.6748 26.2686 15.4375C26.2811 15.4125 26.2873 15.3805 26.2998 15.3555C26.4185 15.318 26.5434 15.2806 26.6621 15.2432C27.1809 15.0744 27.675 14.8867 28.1562 14.668C28.6312 14.4492 29.0438 14.2183 29.375 13.9746C29.5999 13.8121 29.7565 13.606 29.8564 13.3623C29.9502 13.1186 30 12.8557 30 12.5869C30 12.3183 29.9497 12.0434 29.8623 11.7686C29.7748 11.4936 29.6558 11.25 29.5059 11.0312C29.3559 10.8125 29.1809 10.6367 28.9746 10.5117C28.7748 10.3807 28.5562 10.3245 28.3252 10.3369C28.1377 10.3432 27.9689 10.4312 27.8252 10.5938C27.6815 10.7562 27.5681 10.9434 27.4932 11.1621C27.412 11.3808 27.3814 11.6061 27.3877 11.8311C27.394 12.0559 27.4565 12.2376 27.5752 12.375C27.6502 12.4623 27.7502 12.518 27.875 12.543C28 12.568 28.1375 12.5811 28.2812 12.5811C28.425 12.5811 28.5752 12.5809 28.7314 12.5684C28.8876 12.5621 29.0315 12.5688 29.1689 12.5938C29.3 12.6188 29.419 12.6618 29.5127 12.7305C29.6126 12.7992 29.6744 12.9121 29.7119 13.0557C29.3683 13.2868 28.9624 13.5181 28.4814 13.7305C28.0064 13.9492 27.5061 14.1369 26.9873 14.3057C26.4686 14.4744 25.9496 14.6125 25.4434 14.7188C24.9311 14.8249 24.4749 14.8805 24.0625 14.8867C23.8062 14.8867 23.5244 14.8687 23.2119 14.8125C22.8996 14.7562 22.612 14.6624 22.3496 14.5312C22.0871 14.4 21.8623 14.2182 21.6748 13.9932C21.4936 13.7682 21.3998 13.4933 21.3936 13.1621C21.3936 13.0684 21.3937 12.9617 21.4062 12.8555C21.4562 12.818 21.5059 12.7804 21.5371 12.7305C21.6245 12.6119 21.681 12.4873 21.7061 12.3438C21.731 12.2001 21.7371 12.0497 21.7246 11.8936C21.7121 11.7373 21.6875 11.5932 21.6562 11.4619C21.5813 11.1495 21.4499 10.9371 21.25 10.8184C21.05 10.6996 20.8248 10.6557 20.5811 10.6807C20.3311 10.7057 20.081 10.7934 19.8311 10.9434C19.5811 11.0871 19.3752 11.2623 19.2002 11.4561C19.1939 11.4623 19.1869 11.4742 19.1807 11.4805C19.1687 11.4803 19.1623 11.4748 19.1562 11.4688C19.1437 11.4688 19.1246 11.45 19.0996 11.4375C18.9059 11.3 18.6937 11.0997 18.4688 10.8311C18.2438 10.5623 18.0186 10.2809 17.7998 9.97461C17.5811 9.66838 17.3689 9.3619 17.1689 9.05566C16.969 8.74946 16.7932 8.49373 16.6494 8.28125C16.6057 8.2125 16.5684 8.15566 16.5371 8.11816C16.5059 8.07448 16.481 8.0306 16.4561 7.99316C16.4248 7.94945 16.3994 7.90602 16.3682 7.8623C16.3369 7.81856 16.3002 7.75563 16.2627 7.68066C16.2439 7.64941 16.25 7.6373 16.2812 7.64355C16.3125 7.6436 16.3499 7.66195 16.3936 7.68066C16.4373 7.69941 16.4936 7.725 16.5498 7.75C16.606 7.77497 16.6565 7.79356 16.7002 7.7998C16.7623 7.81214 16.7996 7.79949 16.8184 7.75C16.8371 7.70625 16.8183 7.6498 16.7559 7.58105C16.7122 7.53735 16.6249 7.45608 16.4814 7.34375C16.3377 7.23127 16.1812 7.11207 16 6.97461C15.8188 6.84337 15.6377 6.70546 15.4502 6.57422C15.269 6.44303 15.1123 6.33124 14.9873 6.25ZM5.74414 28.1699C5.70665 28.0512 5.23777 28.0879 5.1377 28.1191C4.93776 28.1816 4.79449 28.5628 4.85059 28.7441C5.07559 29.4754 7.15664 28.9512 7.18164 29.0762C7.16599 29.1029 5.5573 29.9548 5.7998 30.7695C5.84351 30.9069 6.42406 31.0757 6.53125 31.0449V31.0381C6.6625 30.9943 6.87539 30.4881 6.83789 30.3506C6.81285 30.2819 6.68769 30.2318 6.66895 30.1631C6.58801 29.8943 7.5435 29.2261 8.0498 28.9697C8.0998 28.9572 8.25605 28.8504 8.08105 28.7754C7.6116 28.5698 5.72631 29.1939 5.56934 28.6885C5.50698 28.4827 5.76158 28.2393 5.74414 28.1699ZM43.4629 25.4629C43.3254 25.4441 42.9186 25.8133 42.8936 25.957C42.8816 26.0257 42.9751 26.1316 42.9629 26.2002C42.9254 26.4814 41.7748 26.6754 41.2061 26.6816H41.2129C41.1629 26.6754 40.9818 26.7 41.1006 26.8438C41.4382 27.2312 43.4061 27.4819 43.3311 28.0068C43.2996 28.2192 42.9685 28.3317 42.9561 28.4004C42.9375 28.5254 43.3752 28.6945 43.4814 28.707C43.6877 28.7381 43.9746 28.4564 44.0059 28.2627C44.1119 27.5065 42.0065 27.0816 42.0439 26.9629C42.0439 26.9441 43.887 26.869 44.0059 26.0254C44.0246 25.8818 43.5697 25.4823 43.4629 25.4629ZM7.7002 24.4814C7.68777 24.4814 7.67523 24.4816 7.66895 24.5C7.64395 24.5438 7.60664 24.6133 7.55664 24.707C7.51298 24.7943 7.46297 24.894 7.41309 25C7.36312 25.1062 7.31911 25.2128 7.27539 25.3252L7.16309 25.6133C7.15076 25.6504 7.15634 25.6752 7.1748 25.6816L7.41895 25.8506C7.5064 25.9068 7.59418 25.9694 7.68164 26.0381C7.65042 26.0943 7.61889 26.1753 7.5752 26.2627C7.5377 26.3564 7.50039 26.4508 7.46289 26.5508C7.42545 26.6507 7.39352 26.7566 7.3623 26.8564L7.29395 27.1191C7.29386 27.12 7.28805 27.1751 7.30664 27.1875L7.66895 27.3877C7.8002 27.4564 7.91934 27.5314 8.03809 27.6064C8.0628 27.6125 8.07515 27.6065 8.09375 27.5693C8.13125 27.3818 8.18164 27.2002 8.24414 27.0127C8.30662 26.8315 8.37523 26.6566 8.4502 26.4941C8.4627 26.4629 8.46875 26.4438 8.46875 26.4375C8.4685 26.4251 8.45574 26.4124 8.4248 26.3877L8.2002 26.2314L7.93164 26.0439C7.98785 25.8691 8.05008 25.7067 8.125 25.5381C8.2 25.3756 8.27481 25.2189 8.3623 25.0752L8.35645 25.0938C8.35818 25.0897 8.3759 25.0499 8.38184 25.0381C8.38184 25.0256 8.375 25.0127 8.34375 24.9814C8.26877 24.9314 8.16863 24.8438 8.03125 24.7314C7.90009 24.619 7.79978 24.532 7.7373 24.4883C7.72492 24.4883 7.71258 24.4876 7.7002 24.4814ZM16.7246 24.3311C16.6934 24.3498 16.656 24.3811 16.6123 24.4248L16.4561 24.5625C16.3998 24.6125 16.3498 24.6625 16.2998 24.7188C16.2499 24.7749 16.2187 24.8186 16.1875 24.8623C16.175 24.8748 16.175 24.8879 16.1875 24.9004L16.5186 25.0186C16.6372 25.056 16.7497 25.1002 16.8496 25.1377C16.8683 25.1377 16.8934 25.1377 16.9121 25.1191L16.918 25.1064C16.9805 25.019 17.0555 24.9371 17.1367 24.8496C17.218 24.7684 17.3125 24.6938 17.4062 24.625C17.4187 24.6126 17.4307 24.6058 17.4307 24.5996C17.4295 24.5976 17.4217 24.5865 17.3936 24.5752L17.2559 24.5254L16.918 24.375C16.8619 24.3501 16.8183 24.3314 16.7871 24.3252H16.7559C16.7434 24.3252 16.7309 24.3249 16.7246 24.3311ZM44.9932 22.4814C44.9619 22.4879 44.9124 22.519 44.8564 22.5625C44.8002 22.6062 44.7437 22.6375 44.6875 22.6562C44.6063 22.675 44.5124 22.6996 44.4062 22.7246C44.3 22.7496 44.1936 22.7748 44.0811 22.7998C43.9687 22.8248 43.8626 22.8432 43.7627 22.8682C43.6564 22.8869 43.5746 22.9064 43.5059 22.9189C42.8247 23.0439 42.1431 23.1869 41.4619 23.3369C40.7808 23.4869 40.0997 23.6313 39.4248 23.7812C38.7437 23.925 38.6061 23.9688 37.9189 24.0938C37.2314 24.2188 36.5434 24.325 35.8496 24.4062C35.5622 24.4375 35.2743 24.4682 34.9932 24.4932C34.7058 24.5181 34.4182 24.5377 34.1309 24.5439C34.0747 24.544 34.0434 24.5563 34.0371 24.5938C34.031 24.6249 34.0378 24.6496 34.0752 24.6621C34.2188 24.7183 34.3934 24.7686 34.5869 24.7998C34.7807 24.8311 34.9813 24.8557 35.1875 24.8682C35.3937 24.8807 35.5999 24.8812 35.7998 24.875C35.9996 24.875 36.1808 24.8625 36.3369 24.8438C37.0243 24.7625 37.7121 24.6562 38.3994 24.5312C39.0807 24.4062 39.2188 24.3619 39.9062 24.2119C40.5874 24.0619 41.269 23.9127 41.9502 23.7627C42.6314 23.6127 43.3126 23.475 44 23.3438C44.0311 23.3438 44.0431 23.3495 44.0244 23.3682C44.0057 23.3931 43.975 23.4186 43.9375 23.4561C43.9 23.4936 43.8557 23.5311 43.8057 23.5811C43.762 23.6247 43.7252 23.6628 43.7002 23.7002C43.6628 23.7502 43.6621 23.794 43.6934 23.8252C43.7246 23.8563 43.7872 23.8621 43.8682 23.8311C43.9307 23.8123 44.0374 23.7625 44.2061 23.6875C44.3685 23.6063 44.5495 23.5183 44.7432 23.4121C44.9368 23.3059 45.1371 23.1999 45.3369 23.0938C45.5369 22.9875 45.6998 22.8937 45.8311 22.8125C45.8746 22.7876 45.8936 22.7625 45.8877 22.7314L45.8809 22.7188C45.8809 22.7188 45.8496 22.6688 45.8184 22.6562C45.7994 22.6561 45.7431 22.6369 45.6621 22.6182C45.5809 22.5994 45.4934 22.5748 45.3936 22.5498C45.2998 22.5248 45.2121 22.5057 45.1309 22.4932C45.0498 22.4807 45.0057 22.4752 44.9932 22.4814ZM37.3809 21.75C37.4246 21.7938 37.4688 21.881 37.5 22.0059C37.5375 22.1308 37.5502 22.2623 37.5439 22.3936C37.5377 22.5246 37.4999 22.6433 37.4375 22.7432C37.375 22.8431 37.275 22.8996 37.1377 22.9121C37.0564 22.7121 37.0375 22.5117 37.0938 22.293V22.2998C37.15 22.0812 37.2435 21.8999 37.3809 21.75ZM30.8184 18.75C30.7858 18.7302 30.5063 18.5195 30.5684 18.6377C31.0059 19.4689 32.4559 19.3004 32.8184 20.1816L32.8252 20.1875C32.9751 20.556 33.0247 20.9373 33.2432 21.2061C33.4869 21.5123 33.9998 21.7 34.3311 21.5C35.0058 21.0751 33.7631 20.5819 33.3564 20.4941C33.3502 20.3879 33.2935 20.2566 33.2373 20.1191C32.9498 19.4191 31.6309 19.2437 30.8184 18.75ZM33.4189 20.6377C33.607 20.6943 34.4557 21.0939 34.0811 21.4375C33.8311 21.4374 33.4252 20.8627 33.4189 20.6377ZM34.4248 15.7305C34.7686 15.693 35.1127 15.6996 35.4502 15.7559C35.7875 15.8059 36.1062 15.9118 36.3936 16.0742C36.681 16.2304 36.9182 16.4559 37.0869 16.7246C37.2557 16.9996 37.3438 17.3246 37.3438 17.6934C37.3437 18.0621 37.2246 18.475 36.9746 18.9062C36.6559 18.8 36.3371 18.6246 36.0059 18.3809C35.6747 18.1434 35.3623 17.8804 35.0498 17.6055C34.7374 17.3243 34.4433 17.0436 34.1621 16.75C33.8809 16.4563 33.65 16.1933 33.4688 15.9434C33.7624 15.8434 34.0811 15.7748 34.4248 15.7373V15.7305ZM20.8564 16.1621C20.6689 16.1059 20.4994 16.2746 20.3682 16.3809C20.1182 16.5933 20.1127 16.5874 20.1689 16.8936C20.1752 17.0186 20.1871 17.0496 20.2559 16.9746C20.3125 16.918 20.6747 16.5561 20.8496 16.5684C20.9308 16.7933 20.6186 17.5123 20.9746 18.1123H20.9688C21.1437 18.406 21.587 18.1565 21.7871 18.0127C22.087 17.8065 22.4807 17.2692 22.5684 16.9316C22.5934 16.8379 22.6058 16.7561 22.5371 16.8311C22.2809 17.1123 21.2309 18.1996 21.0371 17.8184C20.8501 17.4618 21.2621 16.3062 20.8564 16.1621ZM12.9561 7.15039C12.8936 7.07539 12.8559 7.06895 12.8496 7.1377C12.5746 8.59391 12.3312 10.0506 12.125 11.5068C11.9188 12.9629 11.7494 14.4252 11.6182 15.9062C11.6182 15.9749 11.656 16.075 11.7246 16.2061C11.7996 16.3373 11.9312 16.5564 12.125 16.8564V16.8691C12.1278 16.8724 12.1569 16.9051 12.1807 16.8877L12.2188 16.8623C12.3437 15.3812 12.5125 13.919 12.7188 12.4629C12.925 11.0129 13.1625 9.55625 13.4375 8.09375C13.4437 8.0563 13.4502 8.01851 13.4502 7.9873C13.4501 7.95622 13.4376 7.92497 13.4189 7.8877C13.4002 7.8502 13.3744 7.80662 13.3369 7.74414C13.2994 7.68789 13.2559 7.60645 13.1934 7.5127C13.0934 7.35033 13.0185 7.23163 12.9561 7.15039ZM40.4062 13.9561C39.725 13.3686 39.7373 13.3562 38.9248 13.625C38.575 13.7312 38.5063 13.756 38.7373 13.9121C39.187 14.2057 40.2234 15.0736 40.0938 15.2119C40.0062 15.2994 38.0061 14.7807 37.8936 14.7744C37.8124 14.7745 37.7626 14.875 37.875 14.9375C38.2938 15.1438 39.2067 15.5752 39.5566 15.6064C39.9383 15.6624 41.1179 15.4001 41.2998 15.2002C41.5373 14.9377 40.6063 14.1374 40.4062 13.9561ZM8.72461 12.4375C8.54334 12.3313 8.16894 12.4875 8.0752 12.6562C7.70075 13.3188 9.50663 14.4938 9.43164 14.5938C9.42185 14.605 7.68063 14.0006 7.26855 14.7373C7.2004 14.8627 7.47438 15.4047 7.56836 15.4619V15.4746C7.68711 15.5434 8.20664 15.3496 8.27539 15.2246C8.30647 15.1621 8.26297 15.0313 8.29395 14.9688C8.43141 14.7251 9.56819 14.968 10.0996 15.168C10.1434 15.193 10.3252 15.2369 10.2627 15.0557C10.0939 14.5682 8.34395 13.6119 8.60645 13.1494C8.71283 12.9621 9.06212 12.9804 9.09961 12.918C9.16183 12.8116 8.81208 12.4937 8.72461 12.4375ZM19.6123 4.11816C19.5874 4.13064 19.5688 4.15597 19.5625 4.19336C19.5625 4.21211 19.5623 4.26895 19.5498 4.35645C19.5436 4.44384 19.5375 4.53784 19.5312 4.6377C19.5312 4.73754 19.5254 4.8251 19.5254 4.90625C19.5254 4.98735 19.5246 5.03144 19.5371 5.04395C19.5497 5.07512 19.5875 5.1123 19.6436 5.16211H19.6504C19.7066 5.21208 19.7436 5.26253 19.7686 5.3125C19.7998 5.38748 19.8371 5.47523 19.8809 5.5752C19.9246 5.67511 19.969 5.78095 20.0127 5.88086C20.0564 5.98711 20.1002 6.0875 20.1377 6.1875C20.1751 6.28725 20.2065 6.36825 20.2314 6.43066C20.4439 6.97441 20.6559 7.5127 20.8809 8.04395C21.1058 8.58124 21.3311 9.11212 21.5498 9.64941C21.7748 10.1869 21.9875 10.7252 22.1875 11.2627C22.3937 11.8 22.5813 12.3496 22.75 12.8994C22.8375 13.1806 22.9192 13.462 22.9941 13.7432C23.0691 14.0243 23.1371 14.3058 23.1934 14.5869C23.2058 14.6368 23.2312 14.6688 23.2686 14.6689C23.3061 14.6689 23.3248 14.6557 23.3311 14.6182C23.3622 14.4621 23.375 14.2873 23.375 14.0938C23.375 13.9 23.3561 13.6936 23.3311 13.4873C23.2998 13.2811 23.2683 13.075 23.2246 12.875C23.1809 12.675 23.1375 12.4996 23.0938 12.3496C22.925 11.7997 22.7375 11.2497 22.5312 10.7061C22.325 10.1623 22.1127 9.62441 21.8877 9.08691C21.6628 8.5559 21.4378 8.0187 21.2129 7.48145C20.9879 6.94395 20.7687 6.40566 20.5625 5.86816C20.5564 5.8372 20.563 5.82508 20.5879 5.84375C20.6128 5.8563 20.644 5.88105 20.6875 5.91211C20.7312 5.94333 20.7749 5.98109 20.8311 6.01855C20.8811 6.05605 20.9312 6.0877 20.9688 6.10645C21.0249 6.13139 21.0629 6.13063 21.0879 6.08691C21.1125 6.04939 21.106 5.9871 21.0625 5.90625C21.0312 5.85 20.9689 5.74961 20.8564 5.59961C20.7502 5.44963 20.6248 5.29314 20.4873 5.11816C20.3499 4.94332 20.2061 4.7686 20.0625 4.59375C19.9188 4.41885 19.8002 4.26873 19.7002 4.15625C19.669 4.11878 19.6373 4.0995 19.6123 4.11816ZM32.3184 9.72461C32.2434 9.71846 32.1306 9.74385 31.9746 9.8125C31.8246 9.88129 31.5684 10.0061 31.2188 10.1934C31.1812 10.2059 31.175 10.2246 31.1875 10.2559L31.2129 10.2998L31.2188 10.293C32.8312 10.5867 34.4309 10.9248 36.0059 11.2998C37.5808 11.6748 39.1561 12.0936 40.7373 12.5498C40.7811 12.5623 40.8252 12.568 40.8564 12.5742C40.8877 12.5742 40.9314 12.5744 40.9688 12.5557C41.0125 12.5432 41.0622 12.5179 41.1309 12.4805C41.1996 12.4492 41.2879 12.4 41.4004 12.3438C41.5876 12.2502 41.7309 12.1747 41.8184 12.1123C41.912 12.0499 41.9187 12.0119 41.8379 11.9932C40.263 11.5369 38.6876 11.1185 37.1064 10.7373C35.5314 10.3561 33.9309 10.0184 32.3184 9.72461ZM14.9873 10.5254C14.9436 10.5379 14.8874 10.5626 14.8125 10.5938C14.7377 10.6249 14.6625 10.656 14.5752 10.6934C14.4939 10.7309 14.4123 10.7691 14.3311 10.8066C14.25 10.8503 14.1812 10.8809 14.125 10.9121C14.1 10.9309 14.0939 10.9441 14.1064 10.9629C14.1501 11.0376 14.1937 11.1124 14.2373 11.1934C14.281 11.2746 14.3313 11.3623 14.375 11.4561C14.325 11.4748 14.2625 11.4942 14.1875 11.5254C14.1125 11.5566 14.0369 11.5879 13.9619 11.6191C13.887 11.6504 13.8118 11.6872 13.7432 11.7246C13.6684 11.762 13.6124 11.7934 13.5625 11.8184C13.5438 11.8308 13.531 11.8437 13.5371 11.8623C13.5934 11.9623 13.6562 12.075 13.7188 12.1875C13.7803 12.3044 13.841 12.4156 13.8906 12.5264C13.8894 12.5257 13.8882 12.5257 13.8877 12.5254L13.8936 12.5312C13.8928 12.5295 13.8914 12.5281 13.8906 12.5264C13.9001 12.532 13.9295 12.5475 13.9502 12.5371C14.075 12.4622 14.2064 12.3935 14.3438 12.3311C14.4812 12.2686 14.6253 12.2121 14.7627 12.1621C14.7869 12.15 14.7994 12.1438 14.8057 12.1436C14.8119 12.1436 14.806 12.1251 14.7998 12.0879C14.7748 12.0316 14.7375 11.9561 14.6875 11.8623C14.6438 11.7686 14.5994 11.6808 14.5557 11.5996C14.6744 11.5309 14.8062 11.4684 14.9375 11.4121C15.0686 11.3559 15.1999 11.3064 15.3311 11.2627C15.3561 11.2502 15.3687 11.2441 15.375 11.2441C15.3809 11.2435 15.3743 11.2184 15.3682 11.1875C15.3244 11.1125 15.2748 11.006 15.2061 10.8623C15.1373 10.7186 15.0873 10.6185 15.0498 10.5498C15.0375 10.5436 15.0249 10.5317 15.0186 10.5254C15.0061 10.5129 14.9998 10.5129 14.9873 10.5254ZM20.5938 11.6748C20.7311 11.6623 20.8622 11.6747 20.9746 11.7246C21.0871 11.7683 21.1562 11.862 21.1875 11.9932C20.9937 12.1057 20.7811 12.1555 20.5498 12.1367C20.3186 12.118 20.1121 12.0562 19.9434 11.9375C19.9871 11.8813 20.0689 11.8307 20.2002 11.7744H20.1934C20.3184 11.7244 20.4562 11.6873 20.5938 11.6748ZM28.4307 11.2998C28.493 11.3185 28.5496 11.337 28.6182 11.3682C28.6807 11.3994 28.7439 11.4373 28.7939 11.4873C28.85 11.5372 28.894 11.5935 28.9189 11.6621C28.819 11.6559 28.6813 11.6619 28.5127 11.6807C28.3377 11.7057 28.1744 11.6938 28.0244 11.6562C27.9621 11.6375 27.9314 11.6117 27.9189 11.5742C27.9066 11.5368 27.9184 11.4993 27.9434 11.4619C27.9683 11.4182 28.0122 11.3808 28.0684 11.3496C28.1245 11.3184 28.1934 11.2934 28.2744 11.2871C28.3181 11.2809 28.3745 11.2874 28.4307 11.2998ZM28.4619 8.16895L28.1621 8.44336C28.0559 8.54328 27.9499 8.63754 27.8438 8.71875C27.8313 8.73745 27.8368 8.75634 27.8555 8.78125L27.875 8.78711C28.025 8.88709 28.1688 8.99358 28.3125 9.1123C28.4562 9.23099 28.5805 9.35651 28.6992 9.48145C28.7178 9.5 28.7367 9.51224 28.7432 9.51855C28.7494 9.5248 28.7686 9.51909 28.7998 9.49414L28.9307 9.3877C28.9869 9.34396 29.043 9.29959 29.1055 9.25586C29.168 9.21211 29.225 9.16875 29.2812 9.125C29.3374 9.08133 29.3813 9.04352 29.4062 9.01855C29.4064 9.01237 29.4118 9.00586 29.418 8.9873C29.4242 8.9749 29.4186 8.9626 29.4062 8.9502C29.3687 8.9127 29.3187 8.85586 29.25 8.78711L29.0244 8.56836C28.9432 8.49345 28.8554 8.41827 28.7617 8.34961C28.6746 8.28118 28.5936 8.22527 28.5312 8.18164C28.5063 8.16289 28.4869 8.15645 28.4619 8.16895ZM32.1377 5.22559C32.0127 5.15684 31.4748 5.45019 31.4248 5.54395C31.3561 5.66892 31.5625 6.1811 31.6875 6.25V6.25684C31.75 6.28788 31.875 6.23748 31.9375 6.26855C32.1875 6.39978 31.9687 7.55614 31.7812 8.09375C31.7563 8.13748 31.7188 8.32535 31.8936 8.25684C32.3686 8.07559 33.2816 6.29395 33.7441 6.54395C33.9313 6.64418 33.919 7.00061 33.9814 7.03809C34.088 7.09342 34.4002 6.73721 34.4502 6.64355C34.5496 6.45594 34.3873 6.0879 34.2188 5.99414C33.55 5.63164 32.4311 7.48125 32.3311 7.40625C32.325 7.38028 32.8767 5.62988 32.1377 5.22559ZM26.3496 5.20605C25.3498 5.19355 25.3493 5.17492 24.8369 5.9873C24.612 6.33098 24.5686 6.39995 24.8809 6.375V6.36914C25.4746 6.29414 26.9875 6.29395 26.9688 6.5127C26.9558 6.65661 24.8623 7.65059 24.7686 7.72559C24.7002 7.78188 24.725 7.91265 24.8682 7.88184C25.3744 7.75059 26.4621 7.46855 26.7871 7.2373C27.1557 7.01242 27.9867 5.92624 28 5.63184C28.0125 5.23184 26.6434 5.21855 26.3496 5.20605Z" fill="black"/>
</svg>
