<svg width="141" height="86" viewBox="0 0 141 86" fill="none" xmlns="http://www.w3.org/2000/svg">
<path fill-rule="evenodd" clip-rule="evenodd" d="M106.12 16.0721L85.18 55.1721L98.39 80.022C112.45 53.252 128.61 22.4921 140.25 0.352051H124.62C113.86 0.352051 110.3 8.26205 106.12 16.0721Z" fill="#27AAE2"/>
<path fill-rule="evenodd" clip-rule="evenodd" d="M61.51 0.0219727H79.21C84.13 9.34197 89.06 18.682 93.99 28.032L82.34 49.712L70.37 26.452L58.41 49.502L46.74 28.032C51.67 18.682 56.6 9.34197 61.52 0.0219727" fill="#1A75BC"/>
<path fill-rule="evenodd" clip-rule="evenodd" d="M46.27 85.5719H54.79C64 85.5719 66.99 80.5919 70.36 73.0319C73.73 80.2019 76.61 85.5219 85.76 85.5719H95.36L70.21 39.0519L58.62 61.2919C58.13 60.9119 33.45 14.1119 31.2 10.0319C29.31 6.60187 27.88 4.78187 25.06 2.98187C22.08 1.08187 18.91 0.0518715 14.44 0.0518715C10.75 0.0518715 3.26 -0.0881286 0 0.0918715C1.87 3.41187 3.83999 7.40187 5.64999 10.8219L44.36 83.9819C45.28 85.7419 45.25 85.5519 46.26 85.5519" fill="#034694"/>
</svg>
