<svg width="50" height="50" viewBox="0 0 50 50" fill="none" xmlns="http://www.w3.org/2000/svg">
<path d="M36 34L33.205 39.6534C32.1793 41.6907 30.3147 43 28.0377 43H22L23.2785 40.4286C23.6169 39.7763 24.277 39.3698 24.9914 39.3698H28.0377C28.9908 39.3698 29.6597 38.812 30.0993 37.9375L31.4144 35.0494C31.7529 34.4018 32.413 34 33.1229 34H35.9949H36Z" fill="#F47D3F"/>
<path d="M34.8985 7.00978C32.3502 7.00978 30.0329 8.35036 28.8561 10.5031L14.0118 37.7845C13.513 38.6847 12.5475 39.2522 11.4734 39.2522H6.72036L11.2935 30.5776C11.7923 29.6627 12.7784 29.1783 13.8162 29.1245H14.947L16.9661 25.3523H13.8623C11.2622 25.4257 8.86844 26.6537 7.67606 28.826L0 43H11.6222C14.1713 43 16.4829 41.6643 17.6391 39.5556L25.0407 25.8929L32.4423 12.2302C32.9304 11.3251 33.9017 10.7723 34.97 10.7723H43.4999L36.3522 23.8845C35.8435 24.8092 34.8163 25.2936 33.7119 25.3474H29.4059L27.3145 29.1147H33.6651C36.2396 29.0756 38.6548 27.8328 39.857 25.6214L50 7H34.8936L34.8985 7.00978Z" fill="#0B1338"/>
<path d="M7.31426 19.4648L0 7H8.89472C10.9107 7 12.7549 7.97656 13.6857 9.53401L21 21.9988H12.2266C10.1701 22.0389 8.26805 21.0523 7.31426 19.4648Z" fill="#0B1338"/>
</svg>
