<svg width="276" height="50" viewBox="0 0 276 50" fill="none" xmlns="http://www.w3.org/2000/svg">
<g clip-path="url(#clip0_438_2419)">
<path d="M275.272 14.148L264.431 24.9979C264.431 16.9679 268.792 9.9545 275.272 6.2002V14.148Z" fill="#6E58A5"/>
<path d="M275.272 43.7994C268.791 40.0489 264.43 33.0337 264.43 24.998L275.272 35.8498V43.7994Z" fill="#6E58A5"/>
<path d="M225.316 35.8518L236.157 25.002C236.157 33.032 231.796 40.0453 225.316 43.7996V35.8518Z" fill="#6E58A5"/>
<path d="M225.316 6.2002C231.796 9.95076 236.157 16.966 236.157 25.0016L225.316 14.1499V6.2002Z" fill="#6E58A5"/>
<path d="M261.137 50.0002L250.297 39.1484C258.32 39.1484 265.327 43.5138 269.078 50.0002H261.137Z" fill="#6E58A5"/>
<path d="M231.511 50.0002C235.259 43.5138 242.268 39.1484 250.297 39.1484L239.454 50.0002H231.511Z" fill="#6E58A5"/>
<path d="M239.451 0L250.291 10.8518C242.268 10.8518 235.261 6.4864 231.51 0H239.451Z" fill="#6E58A5"/>
<path d="M269.075 0C265.328 6.4864 258.32 10.8518 250.291 10.8518L261.132 0H269.075Z" fill="#6E58A5"/>
<path d="M258.541 25.0015C258.541 22.4562 258.884 19.9951 259.529 17.6536C259.792 16.68 260.112 15.7325 260.479 14.8037C259.555 15.1718 258.604 15.4913 257.635 15.7586C255.296 16.4015 252.837 16.7453 250.294 16.7453C247.752 16.7453 245.293 16.4015 242.954 15.7567C241.981 15.4932 241.034 15.1737 240.106 14.8056C240.473 15.7325 240.793 16.6818 241.06 17.6555C241.702 19.9932 242.046 22.4581 242.046 25.0015C242.046 27.5447 241.702 30.0096 241.058 32.3493C240.794 33.323 240.476 34.2703 240.107 35.1991C241.034 34.831 241.982 34.5115 242.955 34.2442C245.29 33.6013 247.753 33.2575 250.294 33.2575C252.836 33.2575 255.299 33.6013 257.635 34.2461C258.608 34.5096 259.555 34.8291 260.483 35.1972C260.116 34.2722 259.796 33.3211 259.529 32.3512C258.887 30.0096 258.543 27.5485 258.543 25.0033L258.541 25.0015ZM250.292 30.8955C248.015 30.8955 245.797 31.1477 243.668 31.6317C244.151 29.4976 244.404 27.2776 244.404 24.9977C244.404 22.7178 244.151 20.4977 243.668 18.3673C245.801 18.8513 248.019 19.1037 250.296 19.1037C252.574 19.1037 254.792 18.8513 256.921 18.3673C256.44 20.5015 256.185 22.7216 256.185 25.0015C256.185 27.2813 256.436 29.5013 256.921 31.6317C254.788 31.1515 252.57 30.8955 250.292 30.8955Z" fill="#6E58A5"/>
<path d="M4.50325 30.1221L0.00366211 41.6336H1.81284L2.82291 38.9612H7.75565L8.76573 41.6336H10.616L6.15745 30.1221H4.50325ZM7.19927 37.4737H3.39982L5.31355 32.4579L7.19927 37.4737Z" fill="#201F4F"/>
<path d="M14.9272 30.1221H13.1741V41.6336H20.1064V40.0731H14.9272V30.1221Z" fill="#201F4F"/>
<path d="M32.2679 35.205L30.7688 34.9396C29.4151 34.6985 28.8381 34.179 28.8381 33.2016C28.8381 32.0692 29.7082 31.3946 31.1645 31.3946C32.6208 31.3946 33.3452 31.9534 33.6794 33.3849L33.7094 33.5156L35.4046 33.4857L35.3672 33.2914C34.9304 30.9966 33.56 29.8809 31.1776 29.8809C28.7952 29.8809 27.1223 31.2152 27.1223 33.282C27.1223 35.0256 28.1904 36.1039 30.2963 36.4869L31.7564 36.7597C33.2855 37.0456 33.8008 37.4661 33.8008 38.4247C33.8008 39.6189 32.8543 40.3609 31.3289 40.3609C29.697 40.3609 28.8736 39.7834 28.4835 38.365L28.4499 38.2397L26.7378 38.2697L26.7714 38.4622C27.1765 40.7589 28.6552 41.8745 31.2897 41.8745C33.924 41.8745 35.5128 40.4897 35.5128 38.3445C35.5128 36.599 34.4804 35.6011 32.2642 35.2031L32.2679 35.205Z" fill="#201F4F"/>
<path d="M38.646 41.6336H46.5809V40.0731H40.3992V36.5711H45.5299V35.0574H40.3992V31.6824H46.5809V30.1221H38.646V41.6336Z" fill="#201F4F"/>
<path d="M55.0147 36.7692C56.9658 36.6103 58.1588 35.4087 58.1588 33.5549C58.1588 31.3404 56.7791 30.1221 54.2716 30.1221H49.7029V41.6336H51.4542V36.9709H52.3785C53.0879 36.9709 53.2746 37.1242 53.7115 37.7297L56.6166 41.6336H58.676L55.4722 37.3392C55.3041 37.1093 55.1603 36.9187 55.0128 36.7673L55.0147 36.7692ZM51.456 31.6582H54.0158C55.7428 31.6582 56.4466 32.2076 56.4466 33.5531C56.4466 34.8986 55.685 35.4816 53.9748 35.4816H51.456V31.6582Z" fill="#201F4F"/>
<path d="M64.6861 30.1221L60.1865 41.6336H61.9956L63.0057 38.9612H67.9385L68.9486 41.6336H70.7988L66.3403 30.1221H64.6861ZM67.3821 37.4737H63.5827L65.4963 32.4579L67.3821 37.4737Z" fill="#201F4F"/>
<path d="M75.4566 37.3989C75.4566 39.5386 74.9057 40.2972 73.3542 40.2972C72.9472 40.2972 72.5141 40.2375 72.0996 40.1254L71.8961 40.0711L71.855 41.6222L71.9782 41.6577C72.4543 41.7979 73.0051 41.8726 73.5727 41.8726C76.0559 41.8726 77.2116 40.4281 77.2116 37.3241V30.1201H75.4585V37.397L75.4566 37.3989Z" fill="#201F4F"/>
<path d="M87.2512 30.1221H85.498V41.6336H87.2512V30.1221Z" fill="#201F4F"/>
<path d="M95.6823 35.205L94.183 34.9396C92.8295 34.6985 92.2506 34.179 92.2506 33.2016C92.2506 32.0692 93.1207 31.3946 94.577 31.3946C96.0333 31.3946 96.7577 31.9534 97.0919 33.3849L97.1217 33.5156L98.817 33.4857L98.7797 33.2914C98.3428 30.9966 96.9723 29.8809 94.59 29.8809C92.2077 29.8809 90.5348 31.2152 90.5348 33.282C90.5348 35.0256 91.6028 36.1039 93.7088 36.4869L95.1689 36.7597C96.698 37.0456 97.2133 37.4661 97.2133 38.4247C97.2133 39.6189 96.2666 40.3609 94.7412 40.3609C93.1095 40.3609 92.2861 39.7834 91.8959 38.365L91.8623 38.2397L90.1501 38.2697L90.1839 38.4622C90.589 40.7589 92.0677 41.8745 94.702 41.8745C97.3365 41.8745 98.9253 40.4897 98.9253 38.3445C98.9253 36.599 97.8929 35.6011 95.6766 35.2031L95.6823 35.205Z" fill="#201F4F"/>
<path d="M103.815 30.1221H102.062V41.6336H108.994V40.0731H103.815V30.1221Z" fill="#201F4F"/>
<path d="M114.704 30.1221L110.205 41.6336H112.014L113.024 38.9612H117.957L118.967 41.6336H120.817L116.359 30.1221H114.704ZM117.399 37.4737H113.599L115.513 32.4579L117.399 37.4737Z" fill="#201F4F"/>
<path d="M129.284 39.2378L125.229 30.1221H123.375V41.6336H124.999V33.6111L128.497 41.6336H129.942L133.437 33.6297V41.6336H135.165V30.1221H133.284L129.284 39.2378Z" fill="#201F4F"/>
<path d="M140.864 30.1221H139.113V41.6336H140.864V30.1221Z" fill="#201F4F"/>
<path d="M152.469 37.6587C151.919 39.5834 151.051 40.2992 149.261 40.2992C147.027 40.2992 145.797 38.7276 145.797 35.8759C145.797 33.0242 147.027 31.4601 149.261 31.4601C151.048 31.4601 151.912 32.1441 152.452 33.9811L152.488 34.1024L154.249 34.0726L154.202 33.8726C153.575 31.1517 152.005 29.8828 149.26 29.8828C146.023 29.8828 144.01 32.1796 144.01 35.8759C144.01 39.5723 146.02 41.8764 149.26 41.8764C151.975 41.8764 153.552 40.5739 154.224 37.7764L154.273 37.5746L152.503 37.5353L152.467 37.6587H152.469Z" fill="#201F4F"/>
<path d="M169.603 35.7863C170.689 35.2686 171.18 34.4333 171.18 33.1308C171.18 31.191 169.817 30.124 167.342 30.124H162.565V41.6354H167.376C169.967 41.6354 171.455 40.4786 171.455 38.4585C171.455 37.0963 170.818 36.1788 169.606 35.7863H169.603ZM167.235 35.121H164.284V31.6433H167.308C168.74 31.6433 169.466 32.2133 169.466 33.3383C169.466 34.5212 168.716 35.121 167.235 35.121ZM169.739 38.3539C169.739 39.548 168.951 40.1049 167.26 40.1049H164.284V36.5935H167.26C169.021 36.5935 169.739 37.1038 169.739 38.3539Z" fill="#201F4F"/>
<path d="M177.825 30.1221L173.325 41.6334H175.136L176.147 38.9612H181.08L182.09 41.6334H183.94L179.481 30.1221H177.828H177.825ZM180.521 37.4737H176.722L178.636 32.4579L180.521 37.4737Z" fill="#201F4F"/>
<path d="M194.153 38.5818L188.031 30.1221H186.496V41.6334H188.121V33.1737L194.243 41.6334H195.778V30.1221H194.153V38.5818Z" fill="#201F4F"/>
<path d="M203.082 35.7077L208.605 30.1221H206.462L201.478 35.1863V30.1221H199.725V41.6334H201.478V36.3449L206.532 41.6334H208.74L203.082 35.7077Z" fill="#201F4F"/>
<path d="M81.2035 20.5744C80.9963 20.7874 80.8936 21.0416 80.8936 21.335C80.8936 21.6284 80.9963 21.8806 81.2035 22.0881C81.4108 22.2955 81.6666 22.3983 81.9727 22.3983C82.2789 22.3983 82.518 22.2936 82.7251 22.0881C82.9325 21.8806 83.0351 21.6303 83.0351 21.335C83.0351 21.0398 82.9306 20.7874 82.7251 20.5744C82.518 20.3614 82.2678 20.2549 81.9727 20.2549C81.6777 20.2549 81.4108 20.3614 81.2035 20.5744Z" fill="#201F4F"/>
<path d="M88.4477 8.25781H86.6982V19.7001H88.4477V8.25781Z" fill="#201F4F"/>
<path d="M143.033 8.25781L143.015 17.9323H123.558C123.776 17.495 123.884 17.0148 123.884 16.4915V11.5972H122.135V16.4915C122.135 16.8952 121.993 17.239 121.709 17.523C121.425 17.807 121.082 17.9492 120.679 17.9492H119.125V11.5991H117.393V15.8543C117.393 16.4335 117.189 16.9269 116.78 17.3362C116.371 17.7454 115.878 17.9492 115.3 17.9492H113.942V11.5991H112.193V17.9341H94.1067V13.1221H92.3405V20.3729C92.3405 21.2025 92.0492 21.9089 91.4649 22.492C90.8823 23.075 90.1747 23.3684 89.3477 23.3684H88.4478V25.1363H89.3477C90.6564 25.1363 91.7766 24.669 92.7083 23.7365C93.6399 22.804 94.1067 21.6829 94.1067 20.3729V19.702H114.777C115.824 19.702 116.657 19.3918 117.279 18.7695L117.393 18.6873V19.702H143.539C143.888 19.702 144.191 19.5768 144.447 19.3264C144.701 19.0759 144.831 18.775 144.831 18.4256L144.814 8.26155H143.03L143.033 8.25781Z" fill="#201F4F"/>
<path d="M147.921 8.25781H146.171V19.7001H147.921V8.25781Z" fill="#201F4F"/>
<path d="M165.279 10.4686C165.563 10.4686 165.805 10.3677 166.007 10.1658C166.208 9.96401 166.309 9.72108 166.309 9.43703C166.309 9.15298 166.208 8.8951 166.007 8.6914C165.805 8.48958 165.563 8.38867 165.279 8.38867C164.994 8.38867 164.736 8.48958 164.533 8.6914C164.332 8.89322 164.231 9.14177 164.231 9.43703C164.231 9.7323 164.332 9.96401 164.533 10.1658C164.736 10.3677 164.983 10.4686 165.279 10.4686Z" fill="#201F4F"/>
<path d="M167.812 11.3193H165.098C163.81 11.3193 162.655 11.8538 161.63 12.9228C160.823 13.8608 160.421 14.8868 160.421 16.0005C160.421 16.6994 160.579 17.3161 160.894 17.8506L160.977 17.9496H156.97C156.152 17.9496 155.454 17.66 154.877 17.0825C154.298 16.5051 154.01 15.8061 154.01 14.9876V14.7429C154.01 14.1206 154.224 13.5039 154.65 12.8928L153.324 11.7641C152.614 12.648 152.261 13.6403 152.261 14.7429C152.261 16.2154 152.735 17.4226 153.684 18.3608C154.59 19.2559 155.684 19.7025 156.971 19.7025H166.522C166.871 19.7025 167.173 19.5773 167.43 19.3269C167.686 19.0765 167.814 18.7756 167.814 18.4261V11.3231L167.812 11.3193ZM166.062 17.9496H165.145L164.836 17.9664C164.214 17.9664 163.658 17.8525 163.168 17.6226C162.493 17.2619 162.154 16.7219 162.154 16.0024C162.154 15.3259 162.41 14.6924 162.924 14.1038C163.6 13.416 164.325 13.0723 165.099 13.0723H166.064V17.9496H166.062Z" fill="#201F4F"/>
<path d="M207.56 12.1038C206.868 11.4049 205.91 11.0498 204.713 11.0498C203.516 11.0498 202.558 11.4049 201.867 12.1038C201.177 12.8027 200.826 13.9351 200.826 15.4675V15.8675C200.826 15.9963 200.831 16.1291 200.844 16.2486C200.844 16.5663 200.811 16.8355 200.743 17.0466C200.68 17.2503 200.596 17.4147 200.493 17.5343C200.395 17.6502 200.284 17.8091 200.169 17.8576C200.045 17.9081 199.922 17.9323 199.803 17.9323H199.177H192.932V16.6728C192.932 15.3741 192.471 14.2641 191.55 13.3408C190.63 12.4196 189.518 11.958 188.223 11.958C186.435 11.958 185.067 12.799 184.12 14.479L182.597 17.4408V13.823H180.831V17.9323H173.326V13.1203H171.56V20.3711C171.56 21.2008 171.269 21.9072 170.684 22.4902C170.101 23.0733 169.394 23.3667 168.566 23.3667H167.667V25.1345H168.566C169.875 25.1345 170.995 24.6673 171.927 23.7348C172.859 22.8023 173.326 21.6811 173.326 20.3711V19.7002H199.178H199.668C200.045 19.7002 200.46 19.6422 200.898 19.5283C201.304 19.4236 201.649 19.2031 201.925 18.8518C202.239 19.1713 202.613 19.4143 203.04 19.5731C203.523 19.7543 204.088 19.8478 204.716 19.8478C205.303 19.8478 205.844 19.7637 206.321 19.5956C206.804 19.4255 207.22 19.1582 207.556 18.8013C207.891 18.4463 208.152 17.9866 208.333 17.4316C208.512 16.884 208.604 16.2243 208.604 15.4675C208.604 13.9332 208.253 12.8027 207.562 12.1038H207.56ZM191.166 17.9323H184.331L185.688 15.2638H185.704C186.25 14.2491 187.089 13.7408 188.223 13.7408C189.03 13.7408 189.722 14.0267 190.299 14.6005C190.876 15.1741 191.166 15.8637 191.166 16.671V17.9305V17.9323ZM206.17 17.4128C205.869 17.8016 205.393 17.9922 204.713 17.9922C204.033 17.9922 203.557 17.8035 203.256 17.4128C202.95 17.0167 202.794 16.3607 202.794 15.4675C202.794 14.6471 202.95 14.0043 203.26 13.554C203.561 13.1166 204.037 12.9036 204.711 12.9036C205.385 12.9036 205.861 13.1166 206.162 13.554C206.472 14.0043 206.628 14.649 206.628 15.4675C206.628 16.3607 206.473 17.0167 206.166 17.4128H206.17Z" fill="#201F4F"/>
<path d="M5.18882 22.6133C4.90503 22.6133 4.66231 22.7142 4.46067 22.916C4.25902 23.1178 4.1582 23.3664 4.1582 23.6617C4.1582 23.9569 4.25902 24.1904 4.46067 24.3979C4.66231 24.6053 4.90503 24.7082 5.18882 24.7082C5.4726 24.7082 5.73025 24.6034 5.93377 24.3979C6.13541 24.1904 6.23623 23.9457 6.23623 23.6617C6.23623 23.3775 6.13541 23.1178 5.93377 22.916C5.73213 22.7142 5.4838 22.6133 5.18882 22.6133Z" fill="#201F4F"/>
<path d="M7.96856 22.6133C7.67356 22.6133 7.42525 22.7142 7.22361 22.916C7.02196 23.1178 6.92114 23.3664 6.92114 23.6617C6.92114 23.9569 7.02196 24.1904 7.22361 24.3979C7.42525 24.6053 7.67356 24.7082 7.96856 24.7082C8.26355 24.7082 8.49507 24.6034 8.69671 24.3979C8.89835 24.1904 8.99917 23.9457 8.99917 23.6617C8.99917 23.3775 8.89835 23.1178 8.69671 22.916C8.49507 22.7142 8.25235 22.6133 7.96856 22.6133Z" fill="#201F4F"/>
<path d="M56.8199 16.4914C56.8199 16.895 56.6779 17.2389 56.3942 17.5229C56.1104 17.8069 55.7669 17.949 55.3636 17.949H53.8102V11.599H52.0776V15.8541C52.0776 16.4334 51.874 16.9268 51.4652 17.336C51.0563 17.7453 50.5633 17.949 49.9846 17.949H48.6272V11.599H46.8778V17.9004L44.8503 17.934H38.9466L38.9298 8.27637H37.1467L37.13 17.9509H35.3973L33.5321 10.0442L31.7996 10.4198L33.5321 17.949H30.8997V19.7H49.46C50.5074 19.7 51.3401 19.3898 51.9618 18.7675L52.0757 18.6853V19.7H55.3636C56.2467 19.7 57.001 19.386 57.6283 18.7581C58.2556 18.1303 58.5693 17.3753 58.5693 16.4914V11.5971H56.8199V16.4914Z" fill="#201F4F"/>
<path d="M66.0435 8.27432L66.0267 17.9488H64.2941L62.4289 10.0422L60.6963 10.4178L62.4289 17.947H59.7964V19.698H66.5495C66.8986 19.698 67.2011 19.5727 67.4568 19.3223C67.7126 19.0718 67.8415 18.7711 67.8415 18.4216L67.8246 8.27246H66.0416L66.0435 8.27432Z" fill="#201F4F"/>
<path d="M70.8341 8.25781H69.0847V19.7001H70.8341V8.25781Z" fill="#201F4F"/>
<path d="M28.8907 12.1037C28.1981 11.4048 27.2402 11.0498 26.0434 11.0498C24.8467 11.0498 23.8889 11.4048 23.1981 12.1037C22.5072 12.8027 22.1563 13.9351 22.1563 15.4674V15.8673C22.1563 15.9963 22.1619 16.1289 22.1749 16.2486C22.1749 16.5663 22.1413 16.8353 22.0741 17.0466C22.0107 17.2502 21.9266 17.4147 21.824 17.5343C21.7249 17.6502 21.5981 17.8277 21.4804 17.8763C21.3572 17.9267 21.2339 17.9511 21.1145 17.9511H20.7541H20.2949L15.7 17.9342V15.6917C15.5469 12.5373 14.1895 10.9619 11.628 10.9619L10.1063 10.9787C8.81994 11.0124 7.87708 11.388 7.27776 12.1075C6.67844 12.8269 6.37784 13.7052 6.37784 14.7424V16.5271H9.97564C10.7281 16.7457 11.1033 17.3399 11.1033 18.3117C11.1033 18.8032 10.9278 19.2236 10.5806 19.5712C10.2314 19.9207 9.81134 20.0944 9.32217 20.0944H4.57986C2.69415 20.0944 1.75129 19.0797 1.75129 17.0503C1.75129 16.0131 2.26847 15.1348 3.30468 14.4153L2.51864 12.8606C0.840172 13.8528 0 15.2768 0 17.1324C0.141895 20.2757 1.71209 21.8473 4.71056 21.8473H9.32217C10.293 21.8473 11.1239 21.5016 11.8165 20.8083C12.5092 20.1151 12.8546 19.2834 12.8546 18.3117C12.8546 17.0129 12.5354 16.0991 11.8987 15.5702C11.2602 15.0414 10.5115 14.7761 9.65077 14.7761H8.12912C8.12912 13.4006 8.7994 12.7129 10.1399 12.7129H11.7269C13.2094 12.7129 13.9506 13.7052 13.9506 15.6917V19.7021H20.2127H20.5077H20.9969C21.374 19.7021 21.7885 19.6441 22.2272 19.5301C22.6324 19.4254 22.9778 19.2049 23.2541 18.8536C23.5678 19.1732 23.9412 19.4161 24.3687 19.5749C24.8522 19.7562 25.4161 19.8497 26.0453 19.8497C26.6316 19.8497 27.173 19.7656 27.6491 19.5973C28.1326 19.4273 28.549 19.1601 28.8851 18.8032C29.2193 18.4481 29.4807 17.9884 29.6618 17.4333C29.8411 16.8858 29.9325 16.2262 29.9325 15.4693C29.9325 13.9351 29.5816 12.8044 28.8907 12.1056V12.1037ZM27.4997 17.4128C27.1991 17.8016 26.723 17.9921 26.0434 17.9921C25.3639 17.9921 24.8877 17.8033 24.5871 17.4128C24.281 17.0167 24.1241 16.3607 24.1241 15.4674C24.1241 14.6471 24.281 14.0042 24.5908 13.5538C24.8915 13.1166 25.3676 12.9036 26.0415 12.9036C26.7155 12.9036 27.1917 13.1166 27.4923 13.5538C27.8022 14.0042 27.959 14.6489 27.959 15.4674C27.959 16.3607 27.8041 17.0167 27.496 17.4128H27.4997Z" fill="#201F4F"/>
<path d="M85.466 16.7942C84.596 16.8634 83.7483 16.9904 82.9268 17.1791C82.1053 17.3679 81.3417 17.6071 80.6397 17.8967C79.9377 18.1864 79.3178 18.5284 78.7839 18.9209C78.2499 19.3132 77.8335 19.7524 77.5385 20.2364C77.2436 20.7204 77.0942 21.2436 77.0942 21.808C77.0942 22.4229 77.2548 22.9367 77.5759 23.3497C77.897 23.7627 78.3638 24.0749 78.9761 24.286C79.5886 24.4971 80.3241 24.6017 81.183 24.6017C81.8943 24.6017 82.5982 24.5345 83.2947 24.3962C83.9911 24.2599 84.6334 24.0636 85.2196 23.8076L85.7311 25.6277C85.059 25.9174 84.3271 26.1341 83.5336 26.2761C82.7401 26.4182 81.9448 26.4892 81.1475 26.4892C80.3504 26.4892 79.5587 26.4014 78.8567 26.2239C78.1546 26.0482 77.5385 25.7735 77.0083 25.3997C76.4799 25.026 76.0672 24.5495 75.776 23.9682C75.4829 23.3871 75.3354 22.6901 75.3354 21.8752C75.3354 21.1185 75.4773 20.414 75.763 19.7617C76.0468 19.1096 76.4594 18.5209 76.9953 17.9939C77.5329 17.467 78.179 17.011 78.9333 16.6222C79.6875 16.2355 80.5333 15.9271 81.4723 15.6991C81.058 15.5235 80.6583 15.359 80.2776 15.2076C79.8966 15.0562 79.5681 14.9329 79.2917 14.8357C79.0153 14.7386 78.8156 14.69 78.6905 14.69C78.36 14.69 78.0632 14.7816 77.7981 14.9629C77.5329 15.146 77.294 15.3777 77.0773 15.6636L76.745 16.0729L75.1748 15.3049L75.4138 14.9199C75.8227 14.2546 76.295 13.7295 76.8309 13.3482C77.3668 12.967 77.9885 12.7764 78.6999 12.7764C78.9948 12.7764 79.344 12.8492 79.7454 12.995C80.1468 13.1409 80.5837 13.3202 81.0561 13.537C81.5284 13.7537 82.0157 13.9705 82.5198 14.191C83.0239 14.4097 83.5261 14.5947 84.0265 14.7461C84.527 14.8974 85.0086 14.9815 85.4697 14.9984V16.7924L85.466 16.7942Z" fill="#201F4F"/>
<path d="M116.713 9.01819L119.712 8.0726L119.924 8.74161L116.926 9.69468L116.713 9.01819ZM117.09 8.50615C116.96 8.50615 116.838 8.47625 116.728 8.41459C116.534 8.30806 116.39 8.11559 116.302 7.84463C116.248 7.6783 116.211 7.50825 116.192 7.33819C116.174 7.17 116.166 6.98126 116.172 6.7757V6.70469L116.777 6.70843V6.77944C116.777 6.92706 116.782 7.06909 116.792 7.20738C116.801 7.34006 116.821 7.45405 116.85 7.54189C116.922 7.76614 117.038 7.7923 117.12 7.7923C117.163 7.7923 117.21 7.78295 117.262 7.768C117.395 7.72503 117.471 7.65028 117.494 7.53815C117.518 7.41294 117.484 7.20364 117.393 6.91959L117.331 6.73085L117.886 6.55145L117.945 6.74019C118.037 7.02424 118.132 7.21299 118.226 7.30081C118.28 7.35128 118.341 7.37556 118.414 7.37556C118.455 7.37556 118.5 7.36809 118.548 7.35314C118.756 7.28586 118.817 7.15505 118.745 6.9308C118.715 6.8411 118.666 6.73646 118.601 6.6206C118.532 6.50286 118.455 6.38326 118.369 6.26554L118.328 6.2076L118.81 5.85254L118.853 5.9086C118.978 6.07305 119.082 6.23003 119.166 6.37579C119.252 6.52343 119.323 6.68414 119.377 6.85045C119.465 7.12141 119.461 7.36061 119.366 7.56244C119.271 7.76426 119.09 7.91003 118.828 7.99411C118.724 8.02775 118.623 8.04458 118.53 8.04458C118.298 8.04458 118.108 7.93993 117.962 7.73624C117.962 8.08943 117.774 8.3361 117.411 8.45196C117.299 8.48746 117.191 8.50615 117.092 8.50615H117.09Z" fill="#201F4F"/>
<path d="M117.876 7.57235C117.94 7.98721 117.777 8.2563 117.387 8.38337C117.148 8.46 116.941 8.45065 116.761 8.35161C116.582 8.25444 116.451 8.07691 116.369 7.82276C116.317 7.66017 116.282 7.49572 116.263 7.32941C116.244 7.16496 116.237 6.97995 116.242 6.77626H116.704C116.704 6.92762 116.709 7.07152 116.718 7.21167C116.728 7.35184 116.748 7.4677 116.78 7.56487C116.864 7.8265 117.032 7.91806 117.282 7.83771C117.441 7.78539 117.534 7.69195 117.562 7.55366C117.59 7.41537 117.555 7.19672 117.46 6.8996L117.42 6.78L117.837 6.64545L117.876 6.76505C117.973 7.06405 118.072 7.26026 118.177 7.35557C118.279 7.45087 118.412 7.4733 118.571 7.42285C118.817 7.34249 118.897 7.17244 118.813 6.90895C118.782 6.81364 118.733 6.70525 118.662 6.58565C118.593 6.46605 118.514 6.34459 118.427 6.22311L118.793 5.95215C118.916 6.11472 119.019 6.26796 119.103 6.41186C119.187 6.55575 119.256 6.70899 119.308 6.87344C119.39 7.12759 119.388 7.3481 119.301 7.53124C119.213 7.71624 119.049 7.84705 118.806 7.92554C118.416 8.05075 118.126 7.92741 117.936 7.55552L117.876 7.57421V7.57235ZM119.665 8.16286L119.835 8.69546L116.972 9.60366L116.802 9.06547L119.665 8.16286Z" fill="#201F4F"/>
<path d="M62.7199 23.5251L62.7068 23.0187L63.2185 23.0112C63.0224 22.8225 62.929 22.574 62.929 22.3366C62.929 21.7442 63.3472 21.2715 64.0064 21.2715C64.2826 21.2715 64.5795 21.3592 64.8615 21.5686L64.7476 22.0545L64.7213 22.0675C64.5403 21.9124 64.3181 21.8321 64.0679 21.8321C63.6497 21.8246 63.4817 22.0619 63.4817 22.331C63.4817 22.5796 63.6161 22.8375 63.9726 22.9851L65.0294 22.9645L65.0425 23.4691L62.7199 23.5232V23.5251Z" fill="#201F4F"/>
</g>
<defs>
<clipPath id="clip0_438_2419">
<rect width="276" height="50" fill="white"/>
</clipPath>
</defs>
</svg>
