<svg width="871" height="414" viewBox="0 0 871 414" fill="none" xmlns="http://www.w3.org/2000/svg">
<g clip-path="url(#clip0_681_1830)">
<path d="M704.835 364.636V414.034H710.701V388.911H711.548L735.044 414.034H743.622L718.024 387.182L742.435 364.636H733.993L711.548 385.995H710.701V364.636H704.835ZM631.161 364.636V414.034H637.027V373.01H637.162L665.744 414.034H673.135V364.636H667.269V405.66H667.134L638.552 364.636H631.161ZM581.356 372.163L591.12 396.438H570.947L581.187 372.163H581.322H581.356ZM578.712 364.636L556.945 414.034H563.556L568.642 401.896H593.324L598.342 414.034H605.191L584.204 364.636H578.678H578.712ZM505.207 408.575V391.013H515.311C522.634 391.013 527.041 394.166 527.041 399.998C527.041 405.524 522.091 408.575 515.378 408.575H505.207ZM505.207 385.555V370.061H514.192C521.108 370.061 524.499 372.569 524.499 377.519C524.499 382.876 520.871 385.555 513.548 385.555H505.173H505.207ZM499.342 364.636V414.034H514.26C525.99 414.034 533.314 409.355 533.314 400.235C533.314 397.014 532.263 394.302 530.161 391.996C528.059 389.691 525.414 388.436 522.125 388.097V387.962C527.482 386.301 530.771 382.368 530.771 376.807C530.771 369.077 524.499 364.67 514.395 364.67H499.342V364.636ZM371.963 372.163L381.728 396.438H361.555L371.794 372.163H371.93H371.963ZM369.319 364.636L347.552 414.034H354.164L359.249 401.896H383.932L388.949 414.034H395.798L374.811 364.636H369.319ZM283.541 364.636V414.034H289.407V391.013H315.784V414.034H321.65V364.636H315.784V385.555H289.407V364.636H283.541ZM233.736 372.163L243.5 396.438H223.327L233.566 372.163H233.702H233.736ZM231.057 364.636L209.291 414.034H215.902L220.988 401.896H245.67L250.688 414.034H257.537L236.55 364.636H231.057ZM122.733 364.636L137.177 414.034H143.584L155.858 372.197H155.993L168.199 414.034H174.539L189.05 364.636H182.913L171.488 405.66H171.352L159.282 364.636H152.739L140.601 405.66H140.465L129.243 364.636H122.767H122.733ZM74.2164 364.636V414.034H102.662V408.609H80.0479V364.67H74.1825L74.2164 364.636ZM24.4111 372.163L34.1755 396.438H14.0025L24.2415 372.163H24.3772H24.4111ZM21.7665 364.636L0 414.034H6.61133L11.697 401.896H36.3792L41.3971 414.034H48.2457L27.259 364.636H21.7665Z" fill="#585859"/>
<path d="M417.158 300.931V189.726H405.698V300.931H417.158ZM355.384 300.931C374.201 300.931 383.626 292.387 383.626 275.469V189.726H372.167V270.485C372.167 277.978 371.149 283.131 368.946 285.945C366.742 288.725 362.165 290.048 355.418 290.048V300.931H355.384ZM355.384 300.931C357.283 300.931 358.334 299.168 358.334 295.472C358.334 291.777 357.317 290.014 355.384 290.014H347.722V300.897H355.384V300.931ZM347.722 300.931C349.62 300.931 350.671 299.168 350.671 295.472C350.671 291.777 349.654 290.014 347.722 290.014H340.059V300.897H347.722V300.931ZM340.059 300.931C341.958 300.931 343.009 299.168 343.009 295.472C343.009 291.777 341.992 290.014 340.059 290.014H332.397V300.897H340.059V300.931ZM332.431 300.931C334.33 300.931 335.381 299.168 335.381 295.472C335.381 291.777 334.363 290.014 332.431 290.014H324.768V300.897H332.431V300.931ZM324.768 300.931C326.667 300.931 327.718 299.168 327.718 295.472C327.718 291.777 326.701 290.014 324.768 290.014H317.106V300.897H324.768V300.931ZM259.774 270.01C259.774 258.246 267.436 250.584 277.438 250.584C288.186 250.584 294.221 258.246 294.221 271.773V290.014H284.965C267.301 290.014 259.808 283.402 259.808 270.01H259.774ZM305.647 290.014V267.502C305.647 250.007 294.458 239.395 277.845 239.395C268.86 239.395 261.673 242.48 256.214 248.651C250.756 254.991 247.975 262.484 247.975 271.434C247.975 289.675 259.299 300.863 283.439 300.863H293.746C291.847 312.187 279.778 317.035 257.401 315.713L257.977 326.155C260.622 326.291 262.961 326.46 264.894 326.46C289.169 326.46 302.561 317.917 305.206 300.863H320.056C321.954 300.863 323.005 299.1 323.005 295.404C323.005 291.709 321.988 289.946 320.056 289.946H305.647V290.014ZM231.803 300.931V189.726H220.343V300.931H231.803ZM197.39 300.931C202.103 282.555 201.493 267.671 195.627 256.347C189.728 245.023 178.573 239.429 162.232 239.429C155.01 239.429 148.263 240.616 141.923 242.955L144.567 253.262C150.467 251.499 155.756 250.617 160.299 250.617C189.863 250.617 190.745 277.401 188.1 290.048H136.905V300.931H197.356H197.39ZM136.939 300.931C138.838 300.931 139.889 299.168 139.889 295.472C139.889 291.777 138.872 290.014 136.939 290.014H129.277V300.897H136.939V300.931ZM129.277 300.931C131.175 300.931 132.226 299.168 132.226 295.472C132.226 291.777 131.209 290.014 129.277 290.014H121.614V300.897H129.277V300.931ZM121.648 300.931C123.547 300.931 124.598 299.168 124.598 295.472C124.598 291.777 123.581 290.014 121.648 290.014H113.986V300.897H121.648V300.931ZM113.986 300.931C115.884 300.931 116.935 299.168 116.935 295.472C116.935 291.777 115.918 290.014 113.986 290.014H106.323V300.897H113.986V300.931ZM106.357 300.931C108.256 300.931 109.307 299.168 109.307 295.472C109.307 291.777 108.29 290.014 106.357 290.014H98.695V300.897H106.357V300.931ZM98.695 300.931C100.594 300.931 101.645 299.168 101.645 295.472C101.645 291.777 100.628 290.014 98.695 290.014H91.0326V300.897H98.695V300.931ZM91.0326 300.931C92.9313 300.931 93.9823 299.168 93.9823 295.472C93.9823 291.777 92.9652 290.014 91.0326 290.014H83.3703V300.897H91.0326V300.931ZM83.4042 300.931C85.3028 300.931 86.3538 299.168 86.3538 295.472C86.3538 291.777 85.3367 290.014 83.4042 290.014H75.7418V300.897H83.4042V300.931ZM47.8047 282.962C43.7023 285.471 38.3793 286.623 31.9036 286.623C18.5114 286.623 11.7645 281.165 11.7645 270.146C11.7645 258.381 20.3084 251.906 32.7851 251.906H47.8047V282.928V282.962ZM75.7418 290.014C63.8414 290.014 59.8407 286.928 59.8407 275.164V241.023H34.9889C13.2224 241.023 -0.0341797 253.228 -0.0341797 271.468C-0.0341797 288.081 12.1713 297.812 30.8526 297.812C37.9047 297.812 44.6855 296.354 50.9917 293.268C54.077 298.422 62.3157 300.931 75.7079 300.931C77.6065 300.931 78.6576 299.168 78.6576 295.472C78.6576 291.777 77.6404 290.014 75.7079 290.014H75.7418ZM45.1602 223.969C49.2626 223.969 52.2123 220.884 52.2123 216.612C52.2123 212.34 49.2626 209.39 45.1602 209.39C41.0578 209.39 37.803 212.476 37.803 216.612C37.803 220.748 40.8882 223.969 45.1602 223.969ZM24.4108 223.969C28.6827 223.969 31.6324 220.884 31.6324 216.612C31.6324 212.34 28.6827 209.39 24.4108 209.39C20.1388 209.39 17.1892 212.476 17.1892 216.612C17.1892 220.748 20.2745 223.969 24.4108 223.969Z" fill="#666666"/>
<path d="M380.338 150.533C375.388 144.6 372.845 138.226 372.845 131.615C372.845 119.748 380.202 112.696 390.916 112.696C401.63 112.696 408.716 120.189 408.716 131.615C408.716 143.04 402.782 150.533 388.509 150.533H380.304H380.338ZM370.302 110.289C364.504 115.782 361.555 123.003 361.555 131.75C361.555 138.802 363.521 145.041 367.624 150.533H349.553V160.976H387.424C410.173 160.976 420.074 148.838 420.074 131.716C420.074 123.105 417.666 116.019 412.716 110.391C407.766 104.729 400.85 101.915 392.103 101.915C383.355 101.915 376.134 104.729 370.336 110.255L370.302 110.289ZM255.299 150.533C270.149 125.241 285.542 112.663 301.205 112.663C314.903 112.663 322.531 122.969 322.531 137.819C322.531 141.922 321.955 146.16 320.836 150.533H255.299ZM332.431 150.533C333.279 145.854 333.719 141.481 333.719 137.243C333.719 115.917 322.836 101.915 302.358 101.915C281.88 101.915 261.402 117.884 243.738 149.652C238.516 148.092 235.973 144.566 235.973 138.904V113.747H224.955V132.835C224.955 145.82 220.988 150.499 210.681 150.499V160.942C221.293 160.942 228.04 158.399 231.295 153.178C234.55 158.399 240.754 160.942 250.078 160.942H349.519C351.35 160.942 352.333 159.246 352.333 155.72C352.333 152.194 351.35 150.499 349.519 150.499H332.431V150.533ZM210.647 160.976C212.478 160.976 213.461 159.28 213.461 155.754C213.461 152.228 212.478 150.533 210.647 150.533H203.29V160.976H210.647ZM203.324 160.976C205.155 160.976 206.138 159.28 206.138 155.754C206.138 152.228 205.155 150.533 203.324 150.533H195.966V160.976H203.324ZM195.966 160.976C197.797 160.976 198.781 159.28 198.781 155.754C198.781 152.228 197.797 150.533 195.966 150.533H188.609V160.976H195.966ZM172.674 150.533V103.475H161.655V151.923C161.655 166.773 155.722 172.842 141.177 175.08L143.449 185.251C159.418 183.42 168.741 175.215 171.691 160.535V160.976H191.457C193.288 160.976 194.271 159.28 194.271 155.754C194.271 152.228 193.288 150.533 191.457 150.533H172.674ZM94.1181 150.533C89.4733 144.871 87.0661 138.802 87.0661 132.157C87.0661 120.698 93.7113 112.663 105.442 112.663C117.173 112.663 122.666 120.562 122.666 133.446C122.666 138.396 121.818 144.024 120.123 150.533H94.1181ZM106.391 101.949C97.2034 101.949 89.7106 104.763 84.2181 110.425C78.5561 116.087 75.742 123.274 75.742 131.886C75.742 139.379 77.7085 145.583 81.6753 150.533H34.0737C19.2237 150.533 11.7647 144.464 11.7647 132.293C11.7647 128.767 12.8836 122.834 15.1551 114.765L4.98387 112.086C2.0003 120.291 0.474609 127.614 0.474609 134.259C0.474609 150.635 12.7819 160.976 32.548 160.976H127.921C132.023 150.804 133.99 141.345 133.99 132.734C133.99 124.122 131.718 116.494 127.209 110.696C122.699 104.899 115.749 101.949 106.425 101.949H106.391ZM111.341 83.573C112.63 82.3186 113.172 80.6234 113.172 78.4874C113.172 74.5207 110.358 71.571 106.391 71.571C102.425 71.571 99.3394 74.5546 99.3394 78.4874C98.6274 84.8274 107.544 87.811 111.341 83.573Z" fill="#666666"/>
<path fill-rule="evenodd" clip-rule="evenodd" d="M716.735 5.62797C739.18 15.6635 749.351 42.2441 739.35 64.6885L624.889 321.069H526.939L657.674 28.2418C667.71 5.79749 694.291 -4.37366 716.735 5.62797Z" fill="#5C5C5E"/>
<path fill-rule="evenodd" clip-rule="evenodd" d="M656.352 0L634.653 0.0678077C595.867 0.169519 553.656 13.3242 536.704 51.6356C512.869 105.441 488.39 159.314 464.386 213.12C434.279 280.588 491.95 315.747 514.87 319.442C562.369 213.052 609.191 106.492 656.352 0Z" fill="#5C5C5E"/>
<path fill-rule="evenodd" clip-rule="evenodd" d="M677.305 228.987C660.658 265.433 642.282 310.763 637.637 321.171H659.335C707.852 321.171 731.687 307.339 749.385 282.08C758.302 272.485 778.373 227.258 794.003 190.54C810.65 154.093 829.026 108.73 833.671 98.3213H811.972C763.455 98.3213 739.621 112.154 721.923 137.412C713.006 147.007 692.935 192.235 677.305 228.953" fill="#F9AE41"/>
<path fill-rule="evenodd" clip-rule="evenodd" d="M764.507 246.752C783.188 240.31 795.834 229.359 806.345 214.34C820.652 198.982 863.541 92.0828 871 75.3682H849.301C817.974 75.3682 796.953 81.1318 781.222 92.015C794.037 87.6075 809.701 85.302 829.433 85.302H851.132C843.673 102.017 800.784 208.915 786.477 224.274C780.204 233.225 773.152 240.751 764.507 246.752Z" fill="#F9AE41"/>
</g>
<defs>
<clipPath id="clip0_681_1830">
<rect width="871" height="414" fill="white"/>
</clipPath>
</defs>
</svg>
