<svg width="249" height="51" viewBox="0 0 249 51" fill="none" xmlns="http://www.w3.org/2000/svg">
<mask id="mask0_438_3880" style="mask-type:luminance" maskUnits="userSpaceOnUse" x="0" y="0" width="249" height="51">
<path d="M248.887 0.328613H0.132812V50.1625H248.887V0.328613Z" fill="white"/>
</mask>
<g mask="url(#mask0_438_3880)">
<path d="M226.162 26.7236H222.288V27.5316H226.162V26.7236Z" fill="#231F20"/>
<path d="M226.162 26.7236H222.288V27.5316H226.162V26.7236Z" fill="#231F20"/>
<path d="M224.229 0.645565C226.842 0.645565 229.362 1.0537 231.732 1.81166L231.85 1.795H237.444C237.486 7.48388 242.124 12.115 247.82 12.1316V17.7539L247.803 17.8204C248.576 20.211 248.996 22.7597 248.996 25.4084C248.996 28.0571 248.576 30.6392 247.795 33.0213L247.82 33.0963V38.6853C242.107 38.7019 237.461 43.3496 237.444 49.0552H231.85L231.715 49.0051C229.345 49.7548 226.834 50.1629 224.229 50.1629C221.625 50.1629 219.13 49.7548 216.769 49.0135L216.66 49.0552H211.282C211.266 43.3413 206.603 38.6853 200.882 38.6853C200.815 38.6853 200.756 38.6853 200.688 38.6853V33.113C199.883 30.6892 199.454 28.0905 199.454 25.4001C199.454 22.7098 199.891 20.1193 200.688 17.6872V12.115C200.747 12.115 200.815 12.115 200.882 12.115C206.595 12.115 211.249 7.47554 211.282 1.77835H216.769C219.121 1.03704 221.633 0.628906 224.229 0.628906" fill="#007F3E"/>
<path d="M224.229 6.89209C234.428 6.89209 242.745 15.2047 242.745 25.3997C242.745 35.5946 234.428 43.9072 224.229 43.9072C214.029 43.9072 205.721 35.5946 205.721 25.3997C205.721 15.2047 214.037 6.89209 224.229 6.89209Z" fill="white"/>
<path d="M224.329 8.42432C233.68 8.42432 241.308 16.0456 241.308 25.3993C241.308 34.753 233.68 42.3743 224.329 42.3743C214.978 42.3743 207.35 34.753 207.35 25.3993C207.35 16.0456 214.978 8.42432 224.329 8.42432Z" fill="#FFC80F" stroke="#231F20" stroke-width="0.150698" stroke-miterlimit="2.61"/>
<path d="M217.902 38.0348C219.742 37.3102 221.918 36.9104 224.22 36.8938V34.5532H216.532C216.592 35.8442 217.087 37.0354 217.902 38.0348Z" fill="white"/>
<path d="M216.323 34.3037C216.323 32.8794 216.885 31.5551 217.827 30.4806C217.355 30.2974 216.91 30.0974 216.491 29.8726H216.473C214.634 31.0304 213.491 32.5963 213.466 34.3287H216.314C216.314 34.3287 216.314 34.3204 216.314 34.312L216.323 34.3037Z" fill="white"/>
<path d="M216.634 38.8844C218.273 39.8257 220.306 40.4587 222.414 40.7003C220.608 40.3338 219.045 39.4592 217.953 38.2681C217.491 38.4513 217.046 38.6513 216.634 38.8761V38.8844Z" fill="white"/>
<path d="M218.07 38.2264C219.154 39.4509 220.717 40.3504 222.531 40.7169C223.102 40.7752 223.674 40.8168 224.245 40.8251L224.229 37.1353C221.985 37.1437 219.868 37.5351 218.07 38.2264Z" fill="white"/>
<path d="M216.34 34.5532H213.483C213.559 36.1774 214.626 37.6601 216.332 38.7844H216.34C216.794 38.5179 217.281 38.293 217.784 38.0848C216.92 37.077 216.398 35.8609 216.332 34.5532H216.34Z" fill="white"/>
<path d="M216.515 34.3039C216.515 34.3039 216.515 34.3122 216.515 34.3206H224.202V31.6219C221.926 31.6136 219.767 31.2221 217.944 30.5225C217.045 31.5969 216.515 32.8963 216.515 34.3039Z" fill="white"/>
<path d="M232.335 34.3039C232.335 34.3039 232.335 34.3122 232.335 34.3206H235.183C235.158 32.5797 234.008 30.9972 232.142 29.8311L232.083 29.8644C231.68 30.081 231.251 30.2725 230.806 30.4557C231.765 31.5386 232.335 32.8712 232.335 34.3039Z" fill="white"/>
<path d="M224.195 31.3881L224.178 27.8564C223.372 27.8564 222.615 27.9314 221.91 28.0397C220.389 28.4645 219.062 29.2641 218.113 30.322C219.894 30.9966 221.985 31.3714 224.195 31.3881Z" fill="white"/>
<path d="M221.792 28.0567C219.531 28.4149 217.802 29.1978 216.793 29.7559C217.171 29.9474 217.583 30.1141 218.002 30.2723C218.961 29.2561 220.28 28.4732 221.792 28.0483V28.0567Z" fill="white"/>
<path d="M226.135 40.7169C228.277 40.492 230.319 39.859 232.024 38.8761C231.613 38.6513 231.167 38.4513 230.705 38.2681C229.588 39.4758 227.984 40.3587 226.135 40.7169Z" fill="white"/>
<path d="M224.456 37.1274L224.472 40.8173C224.993 40.8173 225.513 40.7757 226.026 40.7257C227.883 40.3759 229.487 39.468 230.588 38.2186C228.798 37.5189 226.69 37.1359 224.456 37.1274Z" fill="white"/>
<path d="M230.864 38.0848C231.377 38.293 231.864 38.5179 232.318 38.7761H232.335C234.041 37.6601 235.108 36.1774 235.183 34.5532H232.318C232.26 35.8609 231.73 37.077 230.864 38.0848Z" fill="white"/>
<path d="M232.125 34.5532H224.446V36.8938C226.748 36.9104 228.915 37.3102 230.747 38.0348C231.561 37.0354 232.058 35.8442 232.116 34.5532H232.125Z" fill="white"/>
<path d="M226.815 28.0564C226.076 27.9398 225.27 27.8648 224.421 27.8564L224.438 31.3881C226.656 31.3714 228.748 30.9883 230.529 30.3053C229.597 29.2725 228.303 28.4895 226.824 28.0647L226.815 28.0564Z" fill="white"/>
<path d="M231.781 29.7561C230.806 29.2147 229.168 28.4734 227.034 28.0986C228.462 28.5234 229.705 29.2814 230.63 30.2476C231.024 30.0893 231.419 29.9394 231.781 29.7561Z" fill="white"/>
<path d="M232.133 34.3034C232.133 32.8875 231.596 31.5798 230.688 30.5054C228.865 31.2133 226.706 31.6131 224.429 31.6297V34.3285H232.133C232.133 34.3285 232.133 34.3202 232.133 34.3117V34.3034Z" fill="white"/>
<path d="M226.454 27.8065H222.194V26.4238H226.454V27.8065Z" fill="#231F20"/>
<path d="M223.095 14.0054H219.138V15.1048H223.095V14.0054Z" fill="white"/>
<path d="M223.095 14.0054H219.138V15.1131H223.095V14.0054Z" stroke="#231F20" stroke-width="0.175814" stroke-miterlimit="2.61"/>
<path d="M223.095 14.0054H219.138V15.1048H223.095V14.0054Z" stroke="#231F20" stroke-width="0.0251163" stroke-miterlimit="2.61"/>
<path d="M223.095 15.1299H220.163V16.2293H223.095V15.1299Z" fill="white"/>
<path d="M223.095 15.1299H220.163V16.2376H223.095V15.1299Z" stroke="#231F20" stroke-width="0.175814" stroke-miterlimit="2.61"/>
<path d="M223.095 15.1299H220.163V16.2293H223.095V15.1299Z" stroke="#231F20" stroke-width="0.0251163" stroke-miterlimit="2.61"/>
<path d="M223.095 16.2627H221.237V17.3622H223.095V16.2627Z" fill="white"/>
<path d="M223.095 16.2627H221.237V17.3705H223.095V16.2627Z" stroke="#231F20" stroke-width="0.175814" stroke-miterlimit="2.61"/>
<path d="M223.095 16.2627H221.237V17.3622H223.095V16.2627Z" stroke="#231F20" stroke-width="0.0376744" stroke-miterlimit="2.61"/>
<path d="M225.984 22.6673H222.666V13.8383C222.926 8.12445 225.984 8.39098 225.984 13.8633V22.6673Z" fill="white"/>
<path d="M225.984 22.6673H222.666V13.8383C222.926 8.12445 225.984 8.39098 225.984 13.8633V22.6673Z" stroke="#231F20" stroke-width="0.175814" stroke-miterlimit="2.61"/>
<path d="M222.027 23.042H226.63C226.79 23.042 226.925 23.2002 226.925 23.3918C226.925 23.5834 226.79 23.7416 226.63 23.7416H222.027C221.859 23.7416 221.724 23.5834 221.724 23.3918C221.724 23.2002 221.859 23.042 222.027 23.042Z" fill="#231F20"/>
<path d="M222.027 25.4248H226.63C226.79 25.4248 226.925 25.583 226.925 25.7746C226.925 25.9662 226.79 26.1245 226.63 26.1245H222.027C221.859 26.1245 221.724 25.9662 221.724 25.7746C221.724 25.583 221.859 25.4248 222.027 25.4248Z" fill="#231F20"/>
<path d="M221.725 24.0254H226.926C227.111 24.0254 227.27 24.2753 227.27 24.5917C227.27 24.9083 227.119 25.1582 226.926 25.1582H221.725C221.541 25.1582 221.389 24.9 221.389 24.5917C221.389 24.2836 221.541 24.0254 221.725 24.0254Z" fill="#231F20"/>
<path d="M224.329 27.5981C218.214 27.5981 213.24 30.6383 213.24 34.3698C213.24 38.1014 218.214 41.1415 224.329 41.1415C230.446 41.1415 235.42 38.1014 235.42 34.3698C235.42 30.6383 230.446 27.5981 224.329 27.5981ZM230.807 30.4551C231.252 30.2801 231.681 30.0803 232.083 29.8637L232.143 29.8304C234.008 30.9965 235.167 32.579 235.184 34.3199H232.336C232.336 34.3199 232.336 34.3115 232.336 34.3032C232.336 32.8706 231.765 31.5379 230.807 30.4551ZM230.706 38.2763C231.168 38.4595 231.613 38.6594 232.025 38.8843C230.32 39.8671 228.278 40.5001 226.136 40.725C227.984 40.3669 229.589 39.484 230.706 38.2763ZM226.035 40.7334C225.523 40.7834 225.001 40.8167 224.481 40.825L224.464 37.1351C226.69 37.1518 228.808 37.5349 230.597 38.2263C229.497 39.4756 227.891 40.3835 226.035 40.7334ZM224.464 36.9019V34.5614H232.126C232.067 35.8524 231.571 37.0435 230.756 38.043C228.925 37.3183 226.749 36.9186 224.464 36.9019ZM224.456 34.3282V31.6295C226.715 31.6129 228.875 31.2214 230.697 30.5051C231.605 31.5796 232.143 32.8873 232.143 34.3032C232.143 34.3032 232.143 34.3115 232.143 34.3199H224.456V34.3282ZM230.647 30.2635C229.723 29.2974 228.48 28.5394 227.052 28.1145C229.185 28.4894 230.824 29.2307 231.798 29.7721C231.437 29.9554 231.042 30.1136 230.647 30.2635ZM226.825 28.0729C228.311 28.4978 229.597 29.289 230.529 30.3135C228.748 30.9965 226.657 31.388 224.439 31.3963L224.422 27.8648C225.279 27.8648 226.077 27.948 226.817 28.0646L226.825 28.0729ZM232.328 38.7927C231.874 38.5345 231.386 38.3096 230.874 38.1014C231.74 37.0935 232.268 35.8774 232.328 34.5697H235.193C235.117 36.2023 234.049 37.6765 232.345 38.801H232.328V38.7927ZM217.919 38.043C217.105 37.0435 216.608 35.8524 216.55 34.5614H224.229V36.9019C221.944 36.9102 219.76 37.31 217.927 38.043H217.919ZM217.961 38.2846C219.053 39.4673 220.616 40.3502 222.423 40.7167C220.314 40.4752 218.281 39.8421 216.642 38.901C217.054 38.6761 217.499 38.4762 217.961 38.2929V38.2846ZM216.533 34.3282C216.533 34.3282 216.533 34.3199 216.533 34.3115C216.533 32.9039 217.062 31.6046 217.961 30.53C219.785 31.2297 221.944 31.6212 224.212 31.6295V34.3282H216.533ZM218.129 30.3302C219.079 29.2724 220.397 28.4644 221.926 28.0479C222.633 27.9397 223.389 27.8731 224.195 27.8648L224.212 31.3963C222.003 31.388 219.91 31.0048 218.129 30.3302ZM218.012 30.2801C217.6 30.1219 217.18 29.9554 216.802 29.7637C217.819 29.1974 219.541 28.4228 221.801 28.0646C220.288 28.481 218.969 29.264 218.012 30.2886V30.2801ZM217.835 30.4801C216.895 31.5628 216.331 32.8789 216.331 34.3032C216.331 34.3032 216.331 34.3115 216.331 34.3199H213.483C213.508 32.5958 214.642 31.0215 216.491 29.8554H216.508C216.928 30.0886 217.373 30.2886 217.844 30.4718L217.835 30.4801ZM213.483 34.5614H216.34C216.398 35.8691 216.928 37.0852 217.794 38.0931C217.28 38.3012 216.793 38.5261 216.348 38.7843H216.34C214.634 37.6682 213.568 36.1857 213.492 34.5614H213.483ZM222.531 40.7167C220.717 40.3502 219.154 39.4507 218.071 38.2263C219.868 37.5266 221.986 37.1435 224.229 37.1351L224.246 40.825C223.674 40.825 223.103 40.7834 222.531 40.7167Z" fill="#231F20"/>
<path d="M226.22 26.6572H222.431V27.4484H226.22V26.6572Z" fill="white"/>
<path d="M189.658 17.8701C189.548 17.5285 189.355 17.237 189.07 16.9788C188.793 16.7206 188.515 16.5957 188.238 16.5957C187.818 16.5957 187.491 16.6789 187.264 16.8456C187.095 16.9705 187.012 17.1038 187.012 17.237C187.633 17.6951 188.381 18.0616 189.263 18.3198C189.372 18.3531 189.465 18.3698 189.54 18.3698C189.65 18.3698 189.708 18.3032 189.708 18.1865C189.708 18.1032 189.692 18.0033 189.658 17.8617M164.58 20.2939C165.605 19.9107 166.63 19.894 167.924 20.7353C168.554 21.1434 169.159 21.5849 169.772 22.018C171.091 19.5942 172.082 17.9533 172.729 17.0787C174.132 15.2213 175.51 14.2885 176.855 14.2885C178.072 14.2885 179.131 14.7299 180.022 15.6045C180.777 16.3375 181.156 17.0038 181.156 17.6119C181.156 18.3531 181.021 18.9944 180.769 19.5442C180.475 20.1856 179.93 20.8769 179.156 21.6099C180.761 21.1517 182.895 20.7769 184.214 19.7692C184.558 19.5025 184.819 19.1944 185.012 18.8529C185.104 18.6863 185.356 18.1616 185.751 17.287C185.936 16.8789 186.113 16.654 186.263 16.6123C186.515 16.1375 186.86 15.6878 187.297 15.2546C187.919 14.6383 188.515 14.3384 189.087 14.3384C189.8 14.3384 190.347 14.7715 190.716 15.6544C191.002 16.3041 191.136 17.0371 191.136 17.845C191.136 18.6113 191.019 19.286 190.776 19.8441C190.54 20.4188 190.271 20.702 189.994 20.702C188.566 20.702 187.137 20.1523 185.718 19.0694C185.264 20.2022 184.642 21.1434 183.852 21.8847C182.542 23.1092 179.668 23.6005 177.862 24.0503C175.989 24.5168 174.09 24.7499 172.166 24.7499C171.284 24.7499 170.41 24.5917 169.553 24.2753C169.234 25.1831 168.991 25.6329 168.839 25.6329C168.789 25.6329 168.764 25.5663 168.764 25.4247C168.764 25.1332 168.864 24.6834 169.074 24.067C168.075 23.3507 167.503 22.9592 167.361 22.8759C166.411 22.3429 165.714 22.2845 165.009 22.4761C161.572 23.3591 159.312 25.6162 157.078 28.1733C156.171 29.2061 155.255 29.7225 154.338 29.7225C153.574 29.7225 152.902 29.3811 152.331 28.698C151.726 27.9818 151.423 27.1072 151.423 26.0744C151.423 24.6584 152.012 22.8009 153.188 20.5187C153.314 20.2856 153.414 20.1689 153.482 20.1689C153.507 20.1689 153.524 20.2022 153.524 20.2605C153.524 20.4937 153.272 21.285 152.759 22.651C152.247 24.017 151.995 25.0915 151.995 25.8827C151.995 26.4908 152.137 26.9739 152.424 27.3321C152.726 27.7236 153.146 27.9234 153.692 27.9234C154.65 27.9234 155.616 27.4404 156.591 26.4825C158.867 23.7921 161.177 21.5683 164.597 20.3022M159.506 13.2474C162.488 13.2474 165.891 12.6227 169.705 11.3899C172.368 10.5236 174.359 9.72403 175.669 8.98273C175.669 8.5163 175.393 8.11648 174.829 7.79998C174.334 7.52511 173.797 7.39185 173.216 7.39185H171.679C171.108 7.39185 170.654 7.2086 170.318 6.84212C169.982 6.47563 169.823 6.00086 169.823 5.41781C169.823 4.62653 170.108 3.83525 170.645 3.03565C171.2 2.23604 171.763 1.83623 172.343 1.83623C173.3 1.83623 174.2 2.36931 175.031 3.43545C175.913 4.60154 176.367 5.9842 176.367 7.58342C176.367 8.41634 176.258 9.08268 176.039 9.59077C175.854 10.0239 175.51 10.482 175.031 10.9735C174.309 11.6814 172.359 12.5643 169.192 13.6138C165.336 14.8965 161.79 15.5378 158.54 15.5378C156.12 15.5378 154.373 14.9048 153.297 13.6388C152.549 12.7476 152.172 11.6231 152.172 10.2738C152.172 8.8328 152.516 7.50012 153.204 6.25906C153.423 5.85926 153.574 5.65936 153.658 5.65936C153.692 5.65936 153.709 5.701 153.709 5.75098C153.709 5.88425 153.65 6.10914 153.532 6.43398C153.364 6.87543 153.188 7.3252 153.019 7.75833C152.835 8.32472 152.751 8.93275 152.751 9.58243C152.751 10.3987 153.154 11.1317 153.961 11.7897C155.145 12.7559 156.994 13.2389 159.506 13.2389M173.914 5.29288C173.351 4.45995 172.729 4.04349 172.024 4.04349C171.519 4.04349 171.267 4.20174 171.267 4.52659C171.267 4.88474 171.587 5.10131 172.217 5.18459C172.578 5.18459 173.141 5.23457 173.914 5.29288ZM146.601 5.75931C146.601 5.01801 146.484 4.4183 146.249 3.94354C146.249 3.66867 146.467 3.03565 146.904 2.02781C146.962 1.90287 147.004 1.84457 147.038 1.84457C147.089 1.84457 147.139 1.9112 147.206 2.03614C147.332 2.30268 147.618 3.01899 148.071 4.20174C148.542 5.43447 148.819 6.1841 148.903 6.47563C148.962 6.69219 148.995 6.85044 148.995 6.95872C148.995 7.29189 148.668 7.09199 148.005 6.34236C147.928 6.23408 147.895 6.27572 147.895 6.48396C147.895 6.55059 148.063 8.9161 148.408 13.5721C148.743 18.2281 148.92 20.8519 148.92 21.435C148.92 23.2258 148.643 24.8 148.088 26.1576C147.971 26.4409 147.878 26.6324 147.811 26.7573C147.701 26.9406 147.635 26.9656 147.609 26.8407C147.584 26.7074 147.593 26.4159 147.651 25.9661C147.718 25.3497 147.753 24.6418 147.753 23.8254C147.753 23.0841 147.568 20.0523 147.181 14.7133C146.803 9.38253 146.609 6.39234 146.609 5.75931M75.6522 4.25172C75.6522 3.51041 75.5346 2.91071 75.3078 2.42761C75.3078 2.15275 75.5263 1.51972 75.9547 0.511886C76.0135 0.386946 76.0555 0.328642 76.0976 0.328642C76.1396 0.328642 76.1983 0.395276 76.2572 0.520214C76.3832 0.786751 76.6689 1.50307 77.1225 2.68582C77.593 3.91855 77.8702 4.67651 77.9459 4.9597C78.0046 5.17626 78.0383 5.34284 78.0383 5.4428C78.0383 5.7843 77.7106 5.57607 77.0553 4.83477C76.9797 4.72648 76.9377 4.76813 76.9377 4.96803C76.9377 5.043 77.1056 7.40017 77.4501 12.0645C77.7946 16.7206 77.9626 19.3443 77.9626 19.9274C77.9626 21.7182 77.6938 23.2924 77.1393 24.6501C77.0217 24.9332 76.9292 25.1248 76.862 25.2497C76.7444 25.433 76.6856 25.458 76.6604 25.3247C76.6268 25.1915 76.6436 24.9 76.6941 24.4501C76.7613 23.8337 76.8033 23.1258 76.8033 22.3095C76.8033 21.5683 76.61 18.5364 76.232 13.1973C75.8539 7.86661 75.6607 4.87641 75.6607 4.24338M91.892 27.582C93.463 27.582 95.4373 26.824 97.8148 25.3081C99.3019 24.3585 100.445 23.4923 101.251 22.7177C101.427 22.5427 101.52 22.3845 101.52 22.2429C101.52 22.0764 101.419 21.8014 101.209 21.4516C100.739 20.702 100.1 19.5859 99.2936 18.1116C99.1003 17.8117 98.8819 17.4119 98.6466 16.9205C98.6214 16.8456 98.6466 16.554 98.7138 16.0459C98.7895 15.5629 98.8398 15.2213 98.8902 15.0297C98.9407 14.8382 98.9911 14.7465 99.0498 14.7465C99.0918 14.7465 99.1507 14.7966 99.2262 14.8881C99.722 15.4795 100.302 16.0876 100.949 16.7206C101.209 16.9872 101.343 17.1537 101.343 17.2287C101.343 17.2703 101.301 17.2953 101.217 17.2953C101.108 17.2953 100.823 17.237 100.36 17.1121C100.713 17.7117 101.234 18.6613 101.915 19.969C102.108 20.3938 102.2 20.8686 102.2 21.4016C102.2 22.093 102.049 22.8176 101.738 23.5672C101.486 24.1919 101.217 24.6418 100.949 24.9249C100.125 25.7661 98.9574 26.6741 97.4368 27.6652C95.2441 29.1062 93.421 29.8225 91.9675 29.8225C90.6318 29.8225 89.6488 29.2395 89.0188 28.0733C88.5819 27.2654 88.355 26.3409 88.355 25.3081C88.355 23.6922 88.6995 22.0513 89.38 20.3854C89.5229 20.0274 89.632 19.8441 89.7076 19.8441C89.7412 19.8524 89.758 19.894 89.758 19.9607C89.758 20.0773 89.716 20.2605 89.6488 20.4937C89.1784 22.1429 88.9431 23.4007 88.9431 24.2669C88.9431 25.0083 89.1867 25.7245 89.674 26.3991C90.2537 27.1988 90.9847 27.5986 91.9003 27.5986M76.8872 27.4236C77.9459 27.4236 79.2228 26.9822 80.7267 26.0827C81.9532 25.358 83.1546 24.4751 84.3308 23.4256C85.3894 22.4761 85.9858 21.8097 86.1203 21.4183C86.011 20.802 85.2129 20.5021 83.726 20.5021C81.8945 20.5021 80.9787 19.8857 80.9787 18.653C80.9787 17.7034 81.2895 16.8622 81.9112 16.1375C82.4825 15.4629 83.079 15.1214 83.7007 15.1214C84.4148 15.1214 85.0785 15.5712 85.7002 16.4874C86.2463 17.2703 86.6075 18.1366 86.8008 19.0694C86.8763 19.4859 86.9184 19.9107 86.9184 20.3355C86.9184 21.8265 86.532 23.0092 85.7506 23.8921C84.7173 25.0499 83.5495 26.1326 82.264 27.1488C80.0797 28.8647 78.2314 29.7308 76.7361 29.7308C75.4591 29.7308 74.4761 29.2645 73.7788 28.3232C73.157 27.4903 72.8462 26.4658 72.8462 25.2331C72.8462 23.6173 73.1907 21.9764 73.8712 20.3022C74.0224 19.944 74.1317 19.7692 74.1904 19.7692C74.2241 19.7858 74.2408 19.8274 74.2408 19.8857C74.2408 19.994 74.2072 20.1689 74.14 20.4188C73.6611 22.0764 73.4175 23.334 73.4175 24.1836C73.4175 24.9832 73.6191 25.6579 74.0225 26.2159C74.6105 27.0322 75.5683 27.4404 76.8788 27.4404M84.8181 18.4697C84.6668 18.1782 84.44 17.9034 84.146 17.6368C83.7932 17.3453 83.4738 17.2037 83.1882 17.2037C82.5077 17.2037 82.1633 17.387 82.1633 17.7535C82.1633 18.1782 82.6085 18.3948 83.5075 18.3948C84.188 18.3948 84.6248 18.4198 84.8097 18.4614M96.353 17.2703C95.8994 16.4124 95.1852 15.5629 94.2107 14.7133C93.8747 15.0714 93.4294 15.7045 92.8833 16.6207C92.2868 17.6202 91.9927 18.2782 91.9927 18.603C91.9927 19.0528 92.3372 19.2694 93.0177 19.2694C93.3118 19.2694 93.6983 19.1694 94.1855 18.9695C94.8828 18.678 95.5129 18.2615 96.0674 17.7201C96.2858 17.5119 96.3782 17.3537 96.3447 17.262M97.8065 7.9499C97.8065 8.56627 97.504 9.39086 96.8991 10.4154C96.5126 11.065 95.933 11.9396 95.1769 13.0474C95.9498 13.922 96.4706 14.7049 96.7395 15.3962C96.9075 15.8877 96.9915 16.5124 96.9915 17.262C96.9915 17.5535 96.9243 17.9367 96.7983 18.4031C96.6639 18.8779 96.5211 19.211 96.3699 19.4276C96.0759 19.8857 95.5549 20.3438 94.8072 20.8103C94.0091 21.3184 93.3118 21.5683 92.7405 21.5683C91.8248 21.5683 91.3627 20.9018 91.3627 19.5609C91.3627 18.628 91.5223 17.7368 91.85 16.9122C92.1272 16.1875 92.6565 15.2213 93.4378 14.0052C92.7489 13.3306 92.0264 12.431 91.2535 11.3066C91.1611 11.1983 90.9678 10.9984 90.6738 10.7069C90.5058 10.5403 90.4134 10.3487 90.4134 10.1322C90.4134 9.79066 90.4637 9.40752 90.5561 8.96607C90.6485 8.52462 90.7242 8.30806 90.7914 8.30806C90.8838 8.30806 91.2451 8.50796 91.8751 8.9161C92.4968 9.32423 92.9841 9.64907 93.3118 9.89895C93.4882 10.0322 93.5639 10.1238 93.5639 10.1488V10.1738C93.5639 10.2155 93.4294 10.2404 93.1605 10.2404C92.6649 10.2404 92.4212 10.2654 92.4212 10.3071C92.4212 10.3321 92.4968 10.4404 92.6565 10.6319C93.2614 11.3649 93.8747 11.9562 94.488 12.3811C94.6728 12.1811 95.1852 11.4315 96.0254 10.1238C96.7395 9.0327 97.1848 8.26641 97.3612 7.82497C97.5377 7.39185 97.6552 7.16695 97.7224 7.16695C97.7813 7.16695 97.8148 7.42516 97.8148 7.92491M136.327 21.9681C136.293 21.8598 136.209 21.8431 136.133 21.9681C135.721 22.6177 135.411 23.3173 135.008 23.8254C133.982 25.1248 132.773 25.9078 130.572 26.0077C128.471 26.1077 126.707 25.2247 126.791 22.9259L126.917 21.7348C126.959 21.7348 127.068 22.2096 127.329 22.5677C127.942 23.4007 129.547 23.7838 130.487 23.8088C132.134 23.8587 133.352 23.409 134.369 22.5261C134.831 22.1263 135.251 21.6348 135.655 21.0602C135.965 20.6104 136.268 20.1689 136.562 19.7191C136.671 19.5526 136.814 19.5025 136.906 19.5025C137.041 19.5025 137.107 19.6442 137.107 19.9191C137.107 20.6353 137.292 21.2101 137.671 21.6348C138.923 23.1674 140.519 23.6173 142.098 22.3346C142.3 22.1679 142.4 21.5515 142.4 20.4937C142.4 19.8441 142.233 17.2454 141.896 12.7059C141.569 8.16646 141.401 5.48445 141.401 4.66818C141.401 3.9352 141.283 3.31884 141.048 2.84408C141.048 2.58587 141.266 1.94452 141.703 0.928348C141.753 0.803409 141.796 0.745104 141.846 0.745104C141.896 0.745104 141.947 0.820068 142.006 0.953335C142.132 1.21987 142.417 1.93619 142.871 3.11894C143.334 4.35167 143.619 5.10131 143.711 5.37617C143.753 5.60106 143.787 5.76764 143.787 5.85926C143.787 6.20077 143.459 6.00086 142.804 5.25956C142.728 5.15127 142.687 5.20125 142.687 5.39282C142.687 5.4428 142.829 7.45848 143.132 11.4565C143.426 15.4546 143.577 17.845 143.577 18.603C143.577 20.8353 143.165 22.5844 142.367 23.8587C141.586 25.1164 140.737 25.433 139.905 25.3247C138.158 25.0998 136.872 23.5006 136.343 21.9431M104.376 7.76666C104.225 6.3257 104.032 5.18459 103.805 4.34334C103.612 3.62702 103.452 3.2772 103.309 3.2772C103.099 3.2772 102.763 3.89356 102.301 5.12628C102.226 5.33452 102.15 5.43447 102.083 5.43447C102.016 5.43447 101.99 5.30953 102.016 5.05133C102.108 4.10179 102.326 3.21889 102.671 2.41929C103.024 1.57803 103.377 1.16157 103.729 1.16157C104.452 1.16157 105.007 2.91071 105.402 6.42565C105.561 7.85828 105.687 10.4237 105.771 14.1469C105.855 17.6452 105.931 19.5859 105.989 19.9357C106.048 20.3022 106.141 20.6187 106.241 20.9018C108.014 25.6829 121.179 21.385 124.287 20.2939L119.204 18.9112C118.734 18.7946 118.415 18.7362 118.264 18.7447C118.137 18.7447 118.029 18.8196 117.927 18.9445C117.827 19.0778 117.65 19.1194 117.382 19.0944C116.483 19.0611 115.499 19.0029 114.424 18.9195C114.18 18.8612 114.046 18.7696 114.046 18.6613C114.046 18.5946 114.088 18.4948 114.164 18.3531L114.912 16.8622C115.021 16.6456 115.172 16.529 115.349 16.504C116.684 16.3124 117.743 16.2375 118.532 16.2875C121.54 17.0955 123.758 17.6535 125.194 17.9867C128.337 18.6863 131.017 19.1194 133.235 19.2777C133.664 19.3027 133.874 19.3693 133.874 19.4692C133.874 19.5025 133.865 19.5526 133.831 19.6108L133.008 21.2018C132.924 21.3683 132.823 21.4516 132.697 21.4516C132.697 21.4516 132.42 21.4433 131.866 21.4099C131.311 21.385 130.782 21.3766 130.285 21.3766C128.169 21.385 126.396 21.6099 124.959 22.0513C123.263 22.6177 121.566 23.1841 119.868 23.7505C116.693 24.7 107.568 27.0905 105.561 23.0841C105.334 22.6344 105.166 22.0847 105.048 21.4266C104.897 20.6187 104.771 18.478 104.67 14.9798C104.57 11.165 104.46 8.76617 104.359 7.77499M56.4973 26.1743C56.8417 26.1743 57.0098 26.0744 57.0098 25.8827C57.0098 25.6329 56.8165 25.4247 56.4301 25.258C55.9764 25.0832 55.3799 25.0665 54.6155 25.1915C55.1783 25.8494 55.8 26.1827 56.4973 26.1827M47.9448 21.6932C48.2473 21.5515 48.432 21.4683 48.5413 21.4683C48.6841 21.4683 48.7261 21.6265 48.6673 21.9431C48.6169 22.2429 48.5916 22.5094 48.5916 22.7593C48.5916 23.5173 48.8353 24.0503 49.3226 24.3502C50.1963 24.8916 50.7928 24.5917 51.6246 24.1586C51.8514 24.042 52.0783 23.9171 52.3134 23.7838C52.053 22.2596 52.2127 20.6187 52.7335 19.1611C52.9436 18.5614 53.2376 18.0033 53.5988 17.4869C54.2626 16.5457 54.9095 16.0793 55.5143 16.0793C55.7496 16.0793 56.0521 16.4041 56.4216 17.0454C56.9929 18.0449 57.4383 18.7447 57.7575 19.1445C57.9171 19.3443 58.0767 19.5359 58.2531 19.7108C59.4294 20.9269 60.572 21.6265 62.1093 20.4854C62.143 20.4521 62.185 20.4272 62.2186 20.3938C62.4118 20.2355 62.6051 20.0606 62.7647 19.8441C63.3696 19.0112 63.9493 18.1699 64.5458 17.3286C64.6802 17.1787 64.7978 17.1121 64.8986 17.1121C65.033 17.1121 65.1002 17.2537 65.1002 17.5285C65.1002 18.2449 65.285 18.8196 65.6631 19.2443C66.9149 20.7769 68.5196 21.2267 70.0906 19.944C70.2922 19.7775 70.3931 19.1611 70.3931 18.1032C70.3931 17.4535 70.3258 16.8955 69.9982 12.356C69.6705 7.8083 69.5025 5.13462 69.5025 4.31835C69.5025 3.58538 69.3849 2.96902 69.1497 2.49425C69.1497 2.23604 69.368 1.59469 69.8049 0.578519C69.8554 0.46191 69.8974 0.395276 69.9478 0.395276C69.9898 0.395276 70.0485 0.46191 70.1158 0.603507C70.2334 0.861713 70.5191 1.58636 70.9727 2.76911C71.4348 4.00183 71.7289 4.75147 71.8128 5.03466C71.8717 5.25956 71.88 5.42614 71.88 5.51776C71.88 5.85093 71.544 5.65936 70.8971 4.91806C70.8131 4.8181 70.7796 4.85976 70.7796 5.05965C70.7796 5.10963 70.9307 7.13364 71.2248 11.1234C71.5188 15.1214 71.5608 15.4712 71.5608 16.2375C71.5608 18.4697 71.1491 20.2106 70.351 21.4933C69.5698 22.751 68.7296 23.0675 67.8894 22.9592C66.142 22.7343 64.8566 21.1351 64.3273 19.5775C64.2937 19.4609 64.2181 19.4609 64.1257 19.5775C63.672 20.3438 63.2099 21.1018 62.7395 21.8598C60.908 24.4501 59.0008 23.4007 57.161 21.3683C56.7158 20.8602 56.262 20.1773 55.8252 19.3027C55.506 18.6863 55.2539 18.3782 55.0607 18.3782C54.7751 18.3782 54.3802 18.678 53.8677 19.2777C52.9436 20.3438 52.7251 22.093 53.3468 23.384C54.397 23.0258 55.2539 22.851 55.9008 22.851C56.5477 22.851 57.0686 23.1258 57.455 23.6838C57.8415 24.242 58.0348 24.9582 58.0348 25.8494C58.0348 26.5991 57.8667 27.2155 57.5474 27.7069C57.2198 28.1899 56.7913 28.4315 56.2452 28.4315C55.0355 28.4315 53.9433 27.507 52.9604 25.6662C52.8764 25.7162 52.6831 25.8162 52.3555 25.9577C51.6329 26.2576 50.8685 26.7407 50.1291 26.8573C48.8521 27.0572 47.9616 25.8411 47.7767 24.725C47.7263 24.4252 47.7095 24.092 47.7095 23.7422C47.7095 23.6755 47.6843 23.6505 47.6256 23.6838C47.1467 23.9838 46.5754 24.2669 45.9117 24.5418C42.1227 26.116 35.0908 27.7652 30.5457 26.191C28.6638 25.5413 27.3868 24.2919 26.3703 22.6344C26.1015 22.2013 25.8158 21.993 25.5302 21.993C24.6647 21.993 23.7491 22.726 22.7913 24.1836C22.6233 24.4418 22.3125 25.1248 21.8672 26.2159C21.4219 27.3238 21.0438 28.115 20.7161 28.6065C20.2037 29.3561 19.666 29.7393 19.0863 29.7393C18.2294 29.7393 17.5153 29.0812 16.9188 27.7569C16.3895 26.5908 16.129 25.3747 16.129 24.117C16.129 22.5928 16.2971 21.385 16.5911 20.4688C16.7003 20.1523 16.7675 19.9856 16.8516 19.9856C16.944 19.9856 16.9692 20.1856 16.9188 20.5854C16.8012 21.5599 16.734 22.3762 16.734 23.0508C16.734 26.2659 17.4817 27.8735 18.9939 27.8735C19.5988 27.8735 20.1953 27.4236 20.6658 26.4658C21.2119 25.358 21.6823 24.2086 22.2284 23.0924C22.6737 22.1679 23.2618 21.385 23.9339 20.7186C24.6144 20.0606 25.2277 19.7274 25.7822 19.7274C26.2022 19.7274 26.5971 19.9773 26.9416 20.5104C27.2524 20.9852 27.5044 21.4849 27.8237 21.9431C28.1346 22.4011 28.5378 22.776 28.9915 23.0675C29.6804 23.5173 30.4449 23.8587 31.2682 24.1086C35.6957 25.4247 41.6858 23.9838 45.6344 22.6011C46.441 22.3178 47.2222 22.0097 47.9364 21.7015M15.1041 18.0117C15.1041 17.4369 15.2469 16.8622 15.6838 16.0876C15.9863 15.5128 16.398 14.9465 16.7172 14.505C16.8347 14.3384 16.9272 14.2301 17.0617 14.0802C17.1456 13.9886 17.322 13.8137 17.4229 13.7887C17.4229 13.7887 17.4733 13.7721 17.4397 13.8636C17.3388 14.1218 17.1204 14.38 16.9692 14.5966C16.2047 15.796 15.8182 16.504 15.8182 17.0454C15.8182 17.4286 15.9611 17.6202 16.2551 17.6202C16.3811 17.6202 16.5996 17.5618 16.7424 17.4202C16.8012 17.362 16.9524 16.9788 16.9356 17.3453C16.9356 17.4619 16.9188 17.5785 16.902 17.6951C16.8516 18.0117 16.7592 18.3281 16.6248 18.5863C16.4483 18.9279 16.1795 19.1611 15.8182 19.1611C15.3813 19.1611 15.0957 18.7779 15.0957 18.0117M62.4455 28.798C62.4455 28.3232 62.563 27.8568 62.9243 27.2321C63.1764 26.749 63.5124 26.291 63.7728 25.9328C63.8652 25.7995 63.9493 25.6995 64.0585 25.5829C64.1257 25.5079 64.2685 25.3663 64.3525 25.3414C64.3525 25.3414 64.3945 25.3247 64.3609 25.408C64.2853 25.6245 64.1005 25.8328 63.9828 26.0077C63.3528 26.9906 63.042 27.5737 63.042 28.0151C63.042 28.3316 63.1595 28.4815 63.4032 28.4815C63.504 28.4815 63.6888 28.4398 63.8064 28.3232C63.8569 28.2733 63.9745 27.9568 63.9576 28.2566C63.9576 28.3483 63.9408 28.4398 63.9324 28.5398C63.8904 28.8063 63.8232 29.0562 63.7056 29.2645C63.5628 29.5476 63.3443 29.7393 63.0503 29.7393C62.6891 29.7393 62.4538 29.4227 62.4538 28.798M104.007 28.7231C104.007 28.3483 104.082 27.9651 104.292 27.457C104.443 27.0739 104.645 26.6991 104.805 26.4158C104.863 26.3076 104.905 26.2326 104.973 26.1326C105.015 26.0744 105.099 25.9577 105.149 25.9411C105.149 25.9411 105.175 25.9328 105.149 25.991C105.107 26.166 104.99 26.3242 104.922 26.4742C104.544 27.2654 104.351 27.7319 104.351 28.0817C104.351 28.3399 104.427 28.4649 104.57 28.4649C104.628 28.4649 104.738 28.4315 104.813 28.3315C104.847 28.2899 104.914 28.04 104.905 28.2816C104.905 28.3566 104.905 28.4315 104.889 28.5065C104.863 28.7231 104.822 28.9313 104.755 29.0979C104.662 29.3227 104.536 29.4726 104.359 29.4726C104.141 29.4726 104.007 29.2228 104.007 28.7148M179.576 4.52659C179.576 4.05181 179.693 3.58538 180.055 2.95235C180.307 2.46926 180.644 2.01115 180.904 1.65299C181.004 1.51972 181.08 1.41978 181.189 1.30316C181.257 1.2282 181.399 1.07827 181.484 1.06994C181.484 1.06994 181.526 1.05329 181.501 1.13658C181.424 1.34481 181.239 1.55304 181.122 1.73628C180.492 2.71913 180.182 3.30219 180.182 3.74363C180.182 4.06014 180.299 4.2184 180.542 4.2184C180.644 4.2184 180.829 4.17675 180.946 4.06014C180.996 4.01017 181.114 3.69365 181.105 3.99351C181.105 4.08513 181.089 4.18508 181.072 4.2767C181.039 4.53491 180.962 4.79311 180.854 5.00135C180.702 5.28455 180.484 5.46779 180.19 5.46779C179.828 5.46779 179.593 5.15127 179.593 4.52659M129.387 10.9317L131.403 12.2478L132.26 10.8901L134.167 12.1229L135.201 10.3321L133.252 9.08268L132.328 10.4987L130.538 9.24927L129.387 10.9317ZM91.035 3.00233L93.0346 4.31003L93.8915 2.96068L95.7902 4.18509L96.8151 2.40262L94.8661 1.16157L93.9503 2.56921L92.1692 1.31982L91.0182 3.00233H91.035ZM38.1909 29.6226L39.9972 30.7971L40.7701 29.5893L42.4755 30.6888L43.3997 29.0895L41.6522 27.9734L40.8288 29.2395L39.2326 28.1234L38.1993 29.631L38.1909 29.6226ZM15.6754 9.97391L17.6413 11.2566L18.4814 9.93226L20.3466 11.1317L21.3546 9.38253L19.4476 8.16646L18.5403 9.54912L16.8012 8.32472L15.6754 9.97391ZM58.9001 9.10767L60.8743 10.3987L61.7229 9.07435L63.6048 10.2821L64.613 8.52462L62.6891 7.29189L61.7817 8.68288L60.0259 7.45848L58.8916 9.116L58.9001 9.10767ZM45.6932 7.66671C46.0377 7.66671 46.3317 7.86661 46.6089 8.26641C46.8778 8.66621 47.0626 9.18263 47.1802 9.82398C47.1887 9.89062 47.197 9.93227 47.197 9.94059C47.2139 9.95726 47.2222 9.95726 47.2307 9.94059C47.2307 9.93227 47.2474 9.89062 47.2727 9.82398C47.3315 9.44084 47.4659 8.86612 47.676 8.10816C47.9112 7.55843 48.1632 7.28356 48.4237 7.28356C48.5665 7.28356 48.7093 7.37518 48.8437 7.56675C48.9698 7.72502 49.0285 7.85828 49.0285 7.96656C49.0285 8.04153 49.0117 8.14147 48.9698 8.26641C48.9193 8.433 48.8521 8.51629 48.7849 8.51629C48.7513 8.51629 48.6841 8.44965 48.5833 8.32472C48.4824 8.19978 48.3732 8.13315 48.2641 8.13315C48.0204 8.13315 47.7935 8.69954 47.5919 9.83232C47.4995 10.3237 47.3987 10.6736 47.2894 10.8818C47.2139 11.0234 47.1383 11.0901 47.0963 11.0901C47.0543 11.0901 47.0206 11.0234 47.0206 10.8984C47.0206 10.6986 46.903 10.3154 46.6762 9.74069C46.4493 9.16598 46.2814 8.88278 46.1889 8.88278C46.1217 8.88278 46.0796 8.89944 46.0629 8.94942C46.0461 8.99106 45.9873 9.00772 45.8949 9.00772C45.7856 9.00772 45.6596 8.94108 45.4916 8.78283C45.3236 8.6329 45.2395 8.5163 45.2395 8.42468C45.2395 8.38302 45.3067 8.24142 45.4496 8.01654C45.5924 7.78331 45.6764 7.66671 45.7101 7.66671M83.5831 0.703458C83.9276 0.703458 84.2216 0.90336 84.4989 1.30316C84.7677 1.70297 84.9525 2.21938 85.0617 2.86073C85.0785 2.92736 85.0785 2.96902 85.0785 2.97734C85.0869 2.994 85.1037 2.994 85.1037 2.97734C85.1037 2.96902 85.1205 2.92736 85.1457 2.86073C85.2046 2.47758 85.339 1.90287 85.549 1.14491C85.7759 0.595178 86.0279 0.320312 86.3051 0.320312C86.4396 0.320312 86.5823 0.411934 86.7252 0.603507C86.8428 0.761762 86.9016 0.89503 86.9016 0.994982C86.9016 1.06994 86.8764 1.1699 86.8428 1.30316C86.784 1.46974 86.7252 1.55304 86.6495 1.55304C86.6243 1.55304 86.5571 1.48641 86.4563 1.36147C86.3555 1.23653 86.2463 1.1699 86.1371 1.1699C85.8934 1.1699 85.6666 1.73628 85.4649 2.86906C85.3725 3.36882 85.2718 3.71032 85.1626 3.91855C85.0869 4.05181 85.0197 4.11845 84.9693 4.11845C84.9105 4.11845 84.8937 4.05181 84.8937 3.92688C84.8937 3.73531 84.776 3.34383 84.5492 2.76911C84.314 2.19439 84.1544 1.9112 84.062 1.9112C83.9948 1.9112 83.9528 1.92785 83.9359 1.96951C83.9191 2.01115 83.8604 2.03614 83.7763 2.03614C83.6671 2.03614 83.5327 1.96118 83.3731 1.81125C83.205 1.66132 83.121 1.54471 83.121 1.44476C83.121 1.40311 83.1967 1.26152 83.3311 1.03663C83.4738 0.811738 83.5662 0.695129 83.5999 0.695129M39.5771 15.8294C39.5771 15.921 39.3922 16.2875 39.031 16.7373C38.6613 17.287 38.2077 17.7451 37.9304 18.0117C37.6532 18.1949 36.9223 18.3782 35.6369 18.7362C35.3596 18.8279 35.2672 18.8279 35.2672 18.8279C35.2672 18.8279 35.3596 18.7362 35.4521 18.6447C35.6369 18.4614 36.0906 18.1949 36.9139 17.8284C37.5608 17.4619 38.0145 17.1953 38.1069 17.1038C38.1993 17.1038 38.1993 17.0121 38.1993 17.0121C38.1993 16.8288 37.5608 16.7373 36.2754 16.7373C36.2754 16.7373 35.9981 16.7373 35.5445 16.8288C35.2672 16.8288 35.1748 16.8288 35.1748 16.7373C35.1748 16.7373 35.1748 16.654 35.2672 16.5623L35.7293 15.7461C35.8217 15.5629 36.0906 15.3796 36.4602 15.3796C36.5526 15.2879 36.8299 15.2879 37.2836 15.2879C38.8461 15.2879 39.5771 15.4712 39.5771 15.8294ZM20.8086 2.00282C20.8086 2.09444 20.6238 2.4526 20.2625 2.91071C19.8929 3.46044 19.4391 3.91021 19.162 4.18509C18.8847 4.36833 18.1538 4.55158 16.8684 4.90973C16.5911 5.00135 16.4987 5.00135 16.4987 5.00135C16.4987 5.00135 16.5911 4.90973 16.6835 4.82644C16.8684 4.6432 17.322 4.36833 18.1538 4.01017C18.7923 3.64369 19.2544 3.36882 19.3467 3.2772C19.4308 3.2772 19.4308 3.18558 19.4308 3.18558C19.4308 3.00233 18.7923 2.91071 17.5069 2.91071C17.5069 2.91071 17.2296 2.91071 16.776 3.00233C16.4987 3.00233 16.4063 3.00233 16.4063 2.91071C16.4063 2.91071 16.4063 2.81909 16.4987 2.72747L16.9608 1.9112C17.0532 1.72796 17.322 1.54471 17.6917 1.54471C17.7841 1.45309 18.0614 1.45309 18.5151 1.45309C20.0776 1.45309 20.8086 1.63633 20.8086 1.99449M189.507 26.2409C189.473 26.1409 189.415 26.0577 189.338 25.991C189.263 25.9161 189.187 25.8827 189.103 25.8827C188.986 25.8827 188.893 25.8994 188.826 25.9494C188.776 25.9827 188.759 26.016 188.759 26.0577C188.927 26.1827 189.145 26.291 189.397 26.3659C189.431 26.3659 189.457 26.3825 189.473 26.3825C189.507 26.3825 189.523 26.3659 189.523 26.3326C189.523 26.3076 189.523 26.2742 189.515 26.2409M189.927 26.2409C189.927 26.4575 189.893 26.649 189.825 26.8074C189.759 26.9656 189.683 27.0488 189.607 27.0488C189.205 27.0488 188.801 26.8906 188.398 26.5824C188.348 26.7074 188.213 27.1654 187.994 27.4986C187.121 28.7897 184.709 29.2894 183.282 29.5643C183.004 29.6226 182.727 29.6559 182.466 29.6809C182.735 29.5893 182.886 29.4894 183.155 29.3894C184.709 28.7813 186.222 28.0817 187.633 27.2155C187.911 27.0405 188.129 26.6657 188.204 26.5241C188.229 26.4742 188.296 26.3326 188.406 26.0827C188.465 25.9661 188.506 25.8994 188.549 25.8994C188.625 25.7661 188.717 25.6329 188.835 25.5079C189.011 25.333 189.179 25.2497 189.338 25.2497C189.54 25.2497 189.692 25.3747 189.8 25.6162C189.877 25.7995 189.918 26.0077 189.918 26.2326M45.6344 2.75246C45.6344 3.47709 45.4496 4.0185 45.0799 4.74315C44.5338 5.46779 43.9793 6.01752 43.2485 6.55892C42.8788 6.74216 42.7023 6.9254 42.7023 6.9254C42.7023 6.74216 42.8872 6.74216 43.0637 6.37567C44.3407 5.10963 44.8951 4.20174 44.8951 3.84358C44.8951 3.30219 44.7187 3.11894 44.349 3.11894C44.1726 3.11894 43.9878 3.30219 43.8029 3.30219C43.6181 3.48543 43.4333 3.48543 43.4333 3.48543V3.12727C43.6181 2.21938 44.1726 1.67798 44.8951 1.67798C45.4496 1.67798 45.6344 2.03614 45.6344 2.94403V2.76078V2.75246ZM129.648 29.6143C130.605 29.2811 135.503 27.407 136.579 27.0155H136.629V27.0739C136.579 27.1822 136.276 27.6069 136.276 27.6069C135.377 27.9401 130.479 29.8142 129.295 30.264C129.295 30.1557 129.597 29.7308 129.648 29.6143ZM180.602 6.97538C181.971 6.49228 188.978 3.81027 190.515 3.25221H190.599V3.3355C190.515 3.49376 190.087 4.10179 190.087 4.10179C188.801 4.58489 181.786 7.26691 180.089 7.89993C180.089 7.74167 180.517 7.13364 180.602 6.97538ZM57.2282 4.80978C58.606 4.33501 65.6127 1.65299 67.1502 1.0866H67.2342V1.1699C67.1502 1.32815 66.7217 1.93619 66.7217 1.93619C65.4279 2.41929 58.4212 5.10131 56.7241 5.74266C56.7241 5.58439 57.1526 4.97636 57.2282 4.80978ZM27.9917 15.0297C30.1004 14.2885 40.896 10.1572 43.2569 9.29924H43.3829V9.42418C43.2569 9.67405 42.6016 10.6069 42.6016 10.6069C40.6189 11.3483 29.8148 15.4795 27.2104 16.4624C27.2104 16.2125 27.8657 15.2796 28.0001 15.0297M79.6765 9.75735C80.0714 9.61575 80.945 9.29091 82.0204 8.89111V8.61625C82.1296 8.39135 82.1296 8.16646 82.1296 7.94158C82.1296 7.03369 81.5583 6.1258 80.525 5.10131C80.4157 5.10131 80.4157 4.98469 80.4157 4.98469L80.7602 4.4183C80.7602 4.30169 80.8778 4.30169 80.8778 4.4183C82.0204 5.20958 82.4741 6.23408 82.4741 7.48347C82.4741 7.93324 82.3649 8.27475 82.2473 8.73286C82.2137 8.76617 82.1885 8.80782 82.1633 8.84113C84.7845 7.84996 88.5147 6.43398 89.5816 6.0425H89.6656V6.1258C89.5816 6.28405 89.1532 6.89209 89.1532 6.89209C87.8593 7.37518 80.8526 10.0572 79.1556 10.6902C79.1556 10.532 79.5841 9.92394 79.6681 9.76569M124.749 2.06945C124.489 2.7108 124.296 3.07729 124.178 3.16891C120.817 4.33501 116.406 5.95088 111.022 8.24142C110.048 8.65789 109.602 9.06602 109.602 9.24093C109.602 9.35755 109.761 9.49081 110.073 9.64907C110.383 9.80733 110.878 9.99057 111.568 10.2238C111.685 10.2654 111.744 10.5153 111.744 10.9818C111.744 11.3732 111.727 11.6148 111.685 11.6814C111.652 11.7481 111.509 11.7564 111.265 11.7064C109.694 11.4065 108.904 10.8652 108.904 10.0655C108.904 9.62408 109.114 9.04104 109.551 8.32472C109.888 7.77499 110.24 7.35019 110.61 7.05034V6.94207C110.711 6.73383 110.711 6.53393 110.711 6.3257C110.711 5.49277 110.19 4.66818 109.249 3.74363C109.149 3.74363 109.149 3.63535 109.149 3.63535L109.459 3.11894C109.459 3.01899 109.559 3.01899 109.559 3.11894C110.602 3.84358 111.022 4.77646 111.022 5.90924C111.022 6.25906 110.946 6.53393 110.862 6.8671C110.878 6.85044 110.905 6.83378 110.921 6.82545C111.34 6.55892 113.66 5.65936 117.869 4.14344C120.045 3.36048 122.229 2.59419 124.405 1.81125C124.64 1.72796 124.783 1.68631 124.817 1.71129C124.842 1.75295 124.817 1.86956 124.741 2.06113M165.546 0.736775L167.512 1.97783L166.47 3.70199L164.445 2.46093L165.546 0.736775ZM121.759 26.6907L123.775 27.9568L122.708 29.7225L120.633 28.4566L121.767 26.6907H121.759ZM52.5235 8.59958L54.5566 9.88229L53.4729 11.6647L51.3809 10.382L52.5235 8.59958ZM179.03 27.3737C178.971 27.2238 178.811 27.1488 178.551 27.1488C178.291 27.1488 177.896 27.407 177.384 27.9068C177.442 27.9151 177.502 27.9234 177.569 27.9234C177.846 27.9234 178.139 27.8568 178.467 27.7236C178.77 27.5986 178.963 27.482 179.038 27.3737M179.325 27.1405C179.325 27.5569 179.123 27.9234 178.703 28.24C178.282 28.5564 177.804 28.7148 177.274 28.7148C177.174 28.7148 177.047 28.698 176.897 28.6564C176.745 28.6148 176.636 28.5981 176.56 28.5981C175.989 28.5981 175.418 28.8647 174.838 29.4144C174.409 29.8391 173.99 30.264 173.561 30.6804C173.3 30.872 173.04 31.0052 172.788 31.0802C172.477 31.1719 172.292 31.2218 172.251 31.2218C172.242 31.2218 172.234 31.2218 172.234 31.2135C172.234 31.1968 172.351 31.1135 172.586 30.9719C172.813 30.8553 173.15 30.6221 173.612 30.264C173.838 30.0391 174.165 29.6892 174.594 29.1895C174.889 28.848 175.208 28.5481 175.536 28.3066C175.921 28.0234 176.266 27.8651 176.585 27.8235C176.552 27.8235 176.745 27.8319 177.182 27.8319C177.442 27.5737 177.702 27.3238 177.964 27.0739C178.308 26.774 178.593 26.6241 178.811 26.6241C179.156 26.6241 179.325 26.7989 179.325 27.1405ZM33.2593 6.09248C33.1837 5.7843 33.066 5.41781 32.8813 4.99302C32.688 4.52659 32.5536 4.29336 32.4696 4.29336C32.4108 4.29336 32.3772 4.31003 32.3603 4.35167C32.3436 4.38498 32.2931 4.40997 32.2176 4.40997C32.1252 4.40997 32.0075 4.34334 31.8647 4.21007C31.7135 4.0768 31.6463 3.97686 31.6463 3.89356C31.6463 3.86024 31.7051 3.73531 31.8311 3.5354C31.9571 3.3355 32.0327 3.22722 32.0663 3.22722C32.3688 3.22722 32.6293 3.40214 32.8729 3.75196C33.1081 4.10179 33.2761 4.5599 33.3685 5.12628C33.3769 5.18459 33.3854 5.21791 33.3854 5.22624C33.3854 5.2429 33.4022 5.2429 33.4022 5.22624C33.4022 5.21791 33.4189 5.17626 33.4442 5.12628C33.4946 4.78479 33.6122 4.28504 33.7971 3.61037C33.9987 3.1356 34.2255 2.88572 34.4607 2.88572C34.5867 2.88572 34.7044 2.96902 34.8303 3.1356C34.9395 3.2772 34.9984 3.39381 34.9984 3.48543C34.9984 3.55206 34.9816 3.64368 34.9395 3.75196C34.8975 3.90189 34.8303 3.97686 34.7799 3.97686C34.7464 3.97686 34.6875 3.91855 34.6035 3.80194C34.5111 3.69365 34.4187 3.63535 34.3263 3.63535C34.1079 3.63535 33.9146 4.13511 33.7297 5.13462C33.6542 5.51776 33.5701 5.82594 33.4609 6.05916C33.629 6.07583 33.8558 6.19243 34.1246 6.41733C34.4019 6.63388 34.5531 6.82545 34.57 6.98371C34.57 7.02536 34.5363 7.14196 34.4607 7.31688C34.3767 7.4918 34.3263 7.59174 34.2927 7.60007C34.0322 7.67504 33.7718 7.74167 33.5114 7.81664C33.1837 7.92491 32.9568 8.04985 32.8309 8.19145C33.1921 9.28259 33.3769 10.3487 33.3769 11.4149C33.3769 11.7231 33.3433 12.0479 33.2761 12.3728C33.2425 12.4811 33.2258 12.5393 33.2173 12.5476C33.1837 12.5476 33.1669 12.3644 33.1669 11.9896C33.1669 11.3732 33.0829 10.6319 32.8981 9.77401C32.7217 8.90776 32.6293 8.41634 32.6293 8.2914C32.6293 7.85828 32.7468 7.5501 32.9988 7.34187C33.1165 7.25025 33.335 7.1503 33.6625 7.05868C33.5281 6.9254 33.4022 6.85877 33.2761 6.85877C33.2173 6.85877 33.1333 6.9254 33.0325 7.067C32.9233 7.2086 32.8644 7.27524 32.8476 7.27524C32.8224 7.27524 32.8141 7.21693 32.8224 7.10032C32.8813 6.54226 33.0325 6.21742 33.2845 6.10914M130.487 4.7598C129.967 6.05084 128.144 6.65887 126.967 7.11698C126.38 7.36686 126.262 7.29189 126.883 6.95039C127.278 6.76715 127.656 6.55059 128.026 6.3257C128.866 5.82594 129.555 5.35951 130.244 4.67651C130.244 4.31835 129.563 2.89405 129.521 2.89405C129.588 3.06064 129.228 3.3355 128.925 3.00233C128.664 2.71913 128.556 2.51091 128.664 2.12776C128.706 1.97783 129.059 1.53639 129.244 1.63633C129.463 1.75295 129.765 2.12776 129.883 2.35264C130.118 2.73579 130.294 3.55206 130.42 3.86024C130.496 3.38547 130.681 2.7108 130.782 2.26102C130.949 1.77794 131.194 1.4281 131.429 1.4281C132.193 1.4281 131.933 3.00233 131.831 3.00233C131.714 3.00233 131.664 2.26102 131.319 2.26102C131.151 2.29434 131 2.81075 130.849 3.37715C130.706 3.94354 130.639 4.55158 130.479 4.75147M122.423 8.36637C122.423 8.45799 122.238 8.8328 121.868 9.29091C121.499 9.84064 121.027 10.3071 120.75 10.5819C120.473 10.7652 119.726 10.9485 118.424 11.3232C118.146 11.4149 118.054 11.4149 118.054 11.4149C118.054 11.4149 118.146 11.3232 118.239 11.2317C118.424 11.0484 118.894 10.7735 119.726 10.3987C120.38 10.0322 120.843 9.74902 120.935 9.6574C121.027 9.6574 121.027 9.56578 121.027 9.56578C121.027 9.38253 120.38 9.29091 119.071 9.29091C119.071 9.29091 118.793 9.29091 118.322 9.38253C118.045 9.38253 117.944 9.38253 117.944 9.29091C117.944 9.29091 117.944 9.19929 118.037 9.10767L118.499 8.27475C118.591 8.09151 118.869 7.90826 119.246 7.90826C119.339 7.81664 119.616 7.81664 120.078 7.81664C121.666 7.81664 122.406 7.99988 122.406 8.36637M159.824 2.63585C159.824 2.71081 159.674 3.01899 159.363 3.40214C159.052 3.86024 158.674 4.24338 158.439 4.47661C158.212 4.62653 157.59 4.78479 156.514 5.08464C156.279 5.1596 156.212 5.1596 156.212 5.1596C156.212 5.1596 156.288 5.08464 156.364 5.00968C156.514 4.85976 156.901 4.62653 157.59 4.31835C158.128 4.0185 158.514 3.78528 158.59 3.71032C158.674 3.71032 158.674 3.63535 158.674 3.63535C158.674 3.48543 158.137 3.40214 157.053 3.40214C157.053 3.40214 156.817 3.40214 156.439 3.47709C156.212 3.47709 156.137 3.47709 156.137 3.40214C156.137 3.40214 156.137 3.32717 156.212 3.25221L156.599 2.56088C156.674 2.41095 156.909 2.2527 157.212 2.2527C157.288 2.17774 157.523 2.17774 157.91 2.17774C159.22 2.17774 159.833 2.33599 159.833 2.63585M135.209 5.66769C135.209 5.12628 135.335 4.70983 135.578 4.16843C135.94 3.6187 136.318 3.21057 136.805 2.80243C137.049 2.66916 137.175 2.52756 137.175 2.52756C137.175 2.66916 137.049 2.66916 136.922 2.9357C136.066 3.88523 135.696 4.56823 135.696 4.84309C135.696 5.25122 135.813 5.3845 136.066 5.3845C136.192 5.3845 136.31 5.25122 136.435 5.25122C136.553 5.10963 136.679 5.10963 136.679 5.10963V5.3845C136.553 6.06749 136.183 6.47563 135.696 6.47563C135.326 6.47563 135.209 6.20077 135.209 5.51776V5.65104V5.66769ZM11.6848 15.6295L12.046 14.9715L12.8694 15.238L12.4829 16.0459L11.71 15.771L11.332 16.3957L10.475 16.0793L10.8951 15.3047L11.6932 15.6211L11.6848 15.6295ZM12.0125 14.1968L11.332 13.8803L10.8279 14.6216L11.4747 14.9715L12.0125 14.2052V14.1968ZM5.86269 15.9876C5.64426 15.5378 5.49303 15.2713 5.41742 15.138C5.23259 14.7966 5.06457 14.5216 4.88814 14.3051L4.86294 14.3634C4.84613 14.5384 4.88814 14.8798 4.95534 15.3962C5.00575 15.7544 5.05616 16.0625 5.10657 16.429L5.86269 15.9876ZM5.35021 18.6113C5.70307 18.2615 6.07272 17.9367 6.45078 17.6285C6.32476 17.2037 6.16514 16.7456 5.96351 16.2625L5.13177 16.7622C5.13177 16.9955 5.18218 17.3369 5.22419 17.6452C5.26619 17.9784 5.2914 18.2782 5.34181 18.6197M2.77101 25.0415C2.78782 24.8666 2.82142 24.675 2.86343 24.4917C2.98104 24.0087 3.18268 23.5423 3.47672 23.0758C3.45152 22.701 3.47672 22.3095 3.51873 21.918C3.66996 20.7436 4.29164 19.7524 5.09817 18.8779L4.82933 16.9705C3.86318 17.5951 2.84662 18.2782 2.04009 19.1277C0.796707 20.4355 -0.144238 22.701 1.21677 24.3002C1.60323 24.7584 2.14932 25.0415 2.76261 25.0499M3.964 24.7499C3.93879 24.7083 3.90518 24.6584 3.88839 24.6084C3.77917 24.4085 3.69515 24.2086 3.62795 23.9921C3.45152 24.3002 3.3087 24.6334 3.19948 24.9832C3.19948 24.9915 3.19948 24.9998 3.19107 25.0083C3.45152 24.9582 3.71196 24.8666 3.964 24.7416M6.85404 20.5021C6.85404 20.5021 6.78683 20.5604 6.74483 20.5854C6.20714 21.0434 5.71987 21.4933 5.2914 21.9347C4.92174 22.3178 4.55209 22.7094 4.21603 23.1341C4.35886 23.4672 4.56048 23.8088 4.82933 24.1003C4.84613 24.117 4.86294 24.1337 4.87974 24.1503C5.9215 23.2924 6.76163 21.9681 6.84564 20.8519C6.85404 20.7353 6.86244 20.627 6.86244 20.5021M7.28251 19.1777C7.50094 19.0029 7.72778 18.8196 7.97141 18.628C7.94621 18.5946 7.92941 18.5114 7.92941 18.3948C7.92941 18.3281 8.00502 18.0366 8.16465 17.5202C8.58471 17.5202 8.93756 17.3953 9.23161 17.162C9.40804 17.0205 9.58447 16.7955 9.76929 16.4957C9.92052 16.2542 10.0297 16.1375 10.0969 16.1375C9.97933 17.0454 9.56766 17.895 8.87876 18.678C8.63512 18.9528 8.10583 19.4359 7.29931 20.1356C7.24891 21.5432 6.87925 23.0591 6.21554 24.067C6.07272 24.3002 5.9047 24.5168 5.71987 24.7333C6.50118 25.0665 7.41693 25.0166 8.15624 24.6418C8.97116 24.2335 9.58447 23.434 9.58447 22.3512C9.58447 21.8181 9.45005 21.4016 9.1812 21.1101C9.05519 20.9685 8.90396 20.8436 8.73593 20.7353C8.71072 20.7186 8.70233 20.6937 8.71073 20.6687C8.79474 20.4105 8.93756 20.0523 9.14759 19.6025C9.42484 19.7274 9.69368 19.9856 9.93732 20.3771C10.0381 20.4188 10.1389 20.4355 10.2398 20.4355C10.5086 20.4355 10.7942 20.3355 11.0967 20.1439C11.3992 19.9524 11.6008 19.7274 11.6932 19.4776C11.7856 19.2277 11.836 18.9112 11.8612 18.553C11.9116 18.4531 11.962 18.3948 12.0208 18.3782L12.046 18.4031C12.1217 18.12 12.1469 18.9195 12.1132 19.336L12.0545 19.3776C12.2056 19.3776 12.3653 19.2277 12.5333 18.9362C12.6762 18.7029 12.7602 18.478 12.8106 18.2782C12.8106 18.0366 12.861 17.6452 12.945 17.1204C12.9702 17.0205 13.0122 16.9705 13.0626 16.9705C13.0878 16.9705 13.1046 16.9788 13.1131 16.9872C13.1382 17.0371 13.155 17.2787 13.155 17.7117C13.155 19.1277 12.7854 20.0856 12.046 20.5937C11.8781 20.7103 11.7268 20.7686 11.5756 20.7686C11.4747 20.9852 11.2899 21.1684 11.0295 21.335C10.769 21.4933 10.5254 21.5766 10.2986 21.5766C10.2062 21.5766 10.1305 21.5599 10.0969 21.5349C10.0381 23.1008 9.87851 24.7416 8.5763 25.7079C7.45894 26.5407 5.9047 26.5575 4.78732 25.6495C4.34205 25.9661 3.87158 26.1827 3.39271 26.2576C3.3171 26.2659 3.24989 26.2742 3.18268 26.2825C3.60274 27.9568 6.14833 28.4815 7.71938 28.4481C8.97116 28.4232 8.96277 28.5148 7.69417 28.6564C5.67786 28.8813 3.42631 28.1234 2.90543 26.291C1.85527 26.2659 1.08235 25.6245 0.62028 24.775C0.0321892 23.6922 0.0573931 22.2512 0.460655 21.0268C0.754701 20.1272 1.24198 19.386 1.83847 18.7696C2.6786 17.9117 3.76236 17.262 4.78732 16.6123C4.6529 15.3713 4.28325 13.4472 4.36726 12.1312C4.46807 12.2562 4.78732 12.6726 4.88814 12.8059C5.49303 13.6388 6.03071 14.605 6.49279 15.7211C7.39172 15.2213 8.45869 14.5633 9.70208 13.7387C10.307 13.3389 10.5254 13.3472 9.8281 13.8387C8.74434 14.6133 7.66056 15.3213 6.5768 15.971C6.72802 16.3791 6.84564 16.8205 6.96326 17.2703C7.49254 16.8622 8.02182 16.4791 8.49229 16.1126C10.9875 14.1885 11.6344 13.8387 8.18985 16.7955C7.8538 17.0871 7.45894 17.387 7.06408 17.7117C7.11449 17.9367 7.15649 18.1699 7.2153 18.4114C7.2657 18.6613 7.29931 18.9279 7.32452 19.2027M4.0312 22.1679C4.0312 22.2263 4.0312 22.2845 4.04801 22.3595C4.31685 22.018 4.6361 21.6598 4.99735 21.285C5.44262 20.8186 6.06432 20.2605 6.85404 19.5942C6.82884 19.3443 6.79524 19.0778 6.74483 18.7946C6.70282 18.5697 6.66081 18.3364 6.5936 18.0949C6.19874 18.4281 5.80388 18.7779 5.45102 19.1528C5.48463 19.4359 5.51824 19.7941 5.51824 20.044C5.53504 20.5021 5.38382 20.6937 5.283 19.994L5.20739 19.4193C4.51848 20.2189 4.01441 21.1184 4.02281 22.1679M180.29 19.0362C180.29 19.0362 180.299 18.9861 180.299 18.9695C180.299 18.628 179.904 18.1532 179.114 17.5285C178.207 16.8205 177.3 16.4624 176.401 16.4624C174.502 16.4624 172.536 18.4114 170.495 22.3095C171.04 22.5178 171.696 22.6344 172.469 22.6344C173.939 22.6344 175.552 22.1845 177.283 21.3016C178.829 20.5104 179.828 19.7524 180.282 19.0445" fill="#007F3E"/>
<path d="M3.28349 45.5563V47.4054H4.58569C5.08977 47.4054 5.41742 47.3887 5.55184 47.3638C5.76187 47.322 5.9299 47.2305 6.06432 47.0889C6.19874 46.9389 6.26595 46.7474 6.26595 46.4975C6.26595 46.2892 6.21554 46.1144 6.11473 45.9728C6.01391 45.8229 5.86269 45.7146 5.67786 45.6562C5.48463 45.5896 5.07297 45.5563 4.42606 45.5563H3.28349ZM3.28349 42.8076V44.4069H4.20763C4.76212 44.4069 5.09817 44.4069 5.23259 44.3818C5.47623 44.3569 5.66105 44.2736 5.80388 44.1319C5.9467 43.9904 6.01391 43.8155 6.01391 43.5906C6.01391 43.3656 5.95511 43.1991 5.83748 43.0658C5.71987 42.9326 5.54344 42.8492 5.3082 42.8243C5.16538 42.8076 4.77052 42.7993 4.09842 42.7993H3.29189L3.28349 42.8076ZM1.87207 41.6582H4.6613C5.21578 41.6582 5.62745 41.6832 5.89629 41.7249C6.16513 41.7748 6.41717 41.8665 6.6272 42.008C6.84564 42.158 7.02207 42.3495 7.16489 42.591C7.30771 42.8326 7.37493 43.0991 7.37493 43.399C7.37493 43.7238 7.29091 44.0237 7.10608 44.2903C6.92966 44.5568 6.69442 44.765 6.39197 44.8982C6.82043 45.0232 7.14809 45.2314 7.37493 45.5229C7.60175 45.8145 7.71938 46.1643 7.71938 46.5641C7.71938 46.8806 7.64376 47.1888 7.49254 47.4804C7.34972 47.7802 7.14809 48.0134 6.88765 48.1966C6.6356 48.3716 6.31636 48.4881 5.9383 48.5215C5.70306 48.5465 5.14017 48.5631 4.24124 48.5715H1.88047V41.6499L1.87207 41.6582Z" fill="#007F3E"/>
<path d="M12.6168 45.8312L11.6591 43.2658L10.7181 45.8312H12.6253H12.6168ZM15.2128 48.5715H13.6754L13.0621 46.9973H10.2729L9.69318 48.5715H8.19775L10.9114 41.6499H12.3984L15.196 48.5715H15.2128Z" fill="#007F3E"/>
<path d="M15.9692 48.5715V41.6499H17.3386L20.2035 46.2726V41.6499H21.5057V48.5715H20.0943L17.2798 44.057V48.5715H15.9692Z" fill="#007F3E"/>
<path d="M23.0186 48.5715V41.6499H24.43V44.7234L27.278 41.6499H29.1683L26.5387 44.3485L29.3111 48.5715H27.4881L25.5726 45.3231L24.43 46.4809V48.5715H23.0186Z" fill="#007F3E"/>
<path d="M33.9147 45.1065C33.9147 45.8894 34.0996 46.4809 34.4608 46.889C34.822 47.2971 35.2926 47.497 35.8554 47.497C36.4183 47.497 36.8804 47.2971 37.2416 46.8973C37.6028 46.4975 37.7793 45.8978 37.7793 45.0899C37.7793 44.282 37.6028 43.7072 37.2584 43.3157C36.9056 42.9242 36.4435 42.7326 35.8639 42.7326C35.2841 42.7326 34.8137 42.9326 34.4608 43.324C34.108 43.7238 33.9315 44.3152 33.9315 45.1065M32.4781 45.1564C32.4781 44.4568 32.5873 43.8571 32.7974 43.3824C32.957 43.0242 33.1754 42.716 33.4443 42.4328C33.7214 42.1496 34.0156 41.9414 34.3432 41.8081C34.7716 41.6249 35.2757 41.5332 35.847 41.5332C36.8719 41.5332 37.6953 41.8498 38.317 42.4827C38.9303 43.1158 39.2412 43.9987 39.2412 45.1231C39.2412 46.2476 38.9303 47.1139 38.3254 47.7469C37.7121 48.3799 36.8888 48.6964 35.8722 48.6964C34.8557 48.6964 34.0071 48.3799 33.3939 47.7552C32.7806 47.1305 32.4697 46.2643 32.4697 45.1648" fill="#007F3E"/>
<path d="M40.3418 48.5715V41.6499H45.1305V42.8243H41.7532V44.4568H44.6684V45.6312H41.7532V48.5715H40.3418Z" fill="#007F3E"/>
<path d="M53.4641 46.031L54.8335 46.4559C54.6235 47.2139 54.2791 47.7719 53.7918 48.1384C53.3045 48.5049 52.6912 48.6881 51.935 48.6881C51.011 48.6881 50.2464 48.3716 49.6499 47.7469C49.0535 47.1222 48.751 46.2643 48.751 45.1732C48.751 44.0153 49.045 43.1242 49.6499 42.4827C50.2548 41.8498 51.0362 41.5332 52.0191 41.5332C52.876 41.5332 53.5649 41.7831 54.1026 42.2829C54.4218 42.5827 54.6571 43.0076 54.8167 43.5573L53.4221 43.8904C53.3381 43.5323 53.17 43.249 52.9012 43.0409C52.6407 42.8326 52.3215 42.7326 51.9519 42.7326C51.431 42.7326 51.011 42.9159 50.6917 43.2824C50.3725 43.6489 50.2044 44.2486 50.2044 45.0732C50.2044 45.9478 50.364 46.5724 50.6833 46.9389C51.0025 47.3137 51.4142 47.497 51.9183 47.497C52.2879 47.497 52.6155 47.3804 52.8844 47.1472C53.1533 46.9056 53.3464 46.5391 53.4641 46.031Z" fill="#007F3E"/>
<path d="M57.211 45.1065C57.211 45.8894 57.3959 46.4809 57.7571 46.889C58.1184 47.2971 58.5889 47.497 59.1517 47.497C59.7147 47.497 60.1767 47.2971 60.5379 46.8973C60.8993 46.4975 61.0757 45.8978 61.0757 45.0899C61.0757 44.282 60.8993 43.7072 60.5548 43.3157C60.2103 42.9242 59.7398 42.7326 59.1602 42.7326C58.5805 42.7326 58.11 42.9326 57.7571 43.324C57.4043 43.7238 57.2278 44.3152 57.2278 45.1065M55.7744 45.1564C55.7744 44.4568 55.8836 43.8571 56.0937 43.3824C56.2533 43.0242 56.4718 42.716 56.7406 42.4328C57.0179 42.1496 57.3119 41.9414 57.6395 41.8081C58.0764 41.6249 58.5804 41.5332 59.1434 41.5332C60.1683 41.5332 60.9917 41.8498 61.6133 42.4827C62.235 43.1158 62.5375 43.9987 62.5375 45.1231C62.5375 46.2476 62.235 47.1139 61.6217 47.7469C61.0085 48.3799 60.1851 48.6964 59.1685 48.6964C58.152 48.6964 57.3035 48.3799 56.6902 47.7552C56.0769 47.1305 55.7744 46.2643 55.7744 45.1648" fill="#007F3E"/>
<path d="M63.6045 48.5715V41.6499H65.7133L66.9818 46.3726L68.2336 41.6499H70.3507V48.5715H69.0402V43.1242L67.654 48.5715H66.2929L64.9152 43.1242V48.5715H63.6045Z" fill="#007F3E"/>
<path d="M71.729 48.5715V41.6499H73.8377L75.1063 46.3726L76.3581 41.6499H78.4753V48.5715H77.1646V43.1242L75.7784 48.5715H74.4174L73.0396 43.1242V48.5715H71.729Z" fill="#007F3E"/>
<path d="M79.8696 48.5715V41.6499H85.0448V42.8243H81.2809V44.3569H84.7843V45.5229H81.2809V47.4054H85.1792V48.5715H79.8696Z" fill="#007F3E"/>
<path d="M87.7913 44.5818H88.8247C89.5052 44.5818 89.9253 44.5568 90.0933 44.4984C90.2613 44.4402 90.3958 44.3402 90.4882 44.2069C90.5806 44.0654 90.631 43.8905 90.631 43.6822C90.631 43.449 90.5722 43.2658 90.4462 43.1158C90.3201 42.9742 90.1437 42.8826 89.9169 42.8409C89.7992 42.8243 89.4548 42.8159 88.8919 42.8159H87.7913V44.5734V44.5818ZM86.3799 48.5715V41.6499H89.3456C90.0933 41.6499 90.631 41.7081 90.9755 41.8331C91.3115 41.958 91.5803 42.1746 91.7904 42.4995C91.992 42.8243 92.0928 43.1824 92.0928 43.5906C92.0928 44.107 91.9416 44.5402 91.6308 44.8733C91.3198 45.2148 90.8578 45.4231 90.2529 45.5146C90.5554 45.6896 90.8074 45.8811 91.009 46.0977C91.2023 46.3059 91.4711 46.6807 91.8072 47.2222L92.6557 48.5715H90.9755L89.9589 47.0638C89.5976 46.5225 89.354 46.1894 89.2112 46.0477C89.0768 45.9061 88.9339 45.8145 88.7911 45.7562C88.6399 45.7062 88.4046 45.6813 88.0854 45.6813H87.7998V48.5715H86.3884H86.3799Z" fill="#007F3E"/>
<path d="M97.8817 46.031L99.2428 46.4559C99.0327 47.2139 98.6883 47.7719 98.1926 48.1384C97.7053 48.5049 97.092 48.6881 96.3359 48.6881C95.4118 48.6881 94.6472 48.3716 94.0507 47.7469C93.4542 47.1222 93.1519 46.2643 93.1519 45.1732C93.1519 44.0153 93.4542 43.1242 94.0507 42.4827C94.6557 41.8498 95.4369 41.5332 96.4199 41.5332C97.2769 41.5332 97.9658 41.7831 98.5034 42.2829C98.8227 42.5827 99.0579 43.0076 99.2176 43.5573L97.8229 43.8904C97.739 43.5323 97.5709 43.249 97.3104 43.0409C97.05 42.8326 96.7308 42.7326 96.3527 42.7326C95.8318 42.7326 95.4118 42.9159 95.0926 43.2824C94.7733 43.6489 94.6052 44.2486 94.6052 45.0732C94.6052 45.9478 94.7649 46.5724 95.0841 46.9389C95.4034 47.3137 95.815 47.497 96.3191 47.497C96.6971 47.497 97.0164 47.3804 97.2853 47.1472C97.5541 46.9056 97.7473 46.5391 97.8649 46.031" fill="#007F3E"/>
<path d="M100.461 48.5715V41.6499H105.636V42.8243H101.864V44.3569H105.375V45.5229H101.864V47.4054H105.762V48.5715H100.461Z" fill="#007F3E"/>
<path d="M112.206 43.9658L112.567 43.6909C112.836 43.4827 112.971 43.2827 112.971 43.0829C112.971 42.9163 112.911 42.7663 112.777 42.6498C112.651 42.5332 112.474 42.4665 112.256 42.4665C112.037 42.4665 111.879 42.5249 111.752 42.6247C111.635 42.7247 111.567 42.8496 111.567 42.9912C111.567 43.1579 111.669 43.3577 111.87 43.591L112.197 43.9741L112.206 43.9658ZM111.685 45.4067C111.382 45.5649 111.147 45.7483 110.996 45.9647C110.845 46.1813 110.77 46.3979 110.77 46.6312C110.77 46.9227 110.862 47.1476 111.055 47.3308C111.248 47.5141 111.5 47.6056 111.819 47.6056C112.029 47.6056 112.231 47.564 112.424 47.4807C112.618 47.3975 112.828 47.2642 113.063 47.0726L111.702 45.4067H111.685ZM115.852 47.7306L115.046 48.7551C114.65 48.5635 114.265 48.297 113.903 47.9638C113.618 48.2137 113.323 48.4053 113.004 48.5218C112.684 48.6468 112.307 48.7051 111.87 48.7051C110.996 48.7051 110.349 48.4636 109.913 47.9804C109.576 47.6056 109.399 47.1725 109.399 46.6894C109.399 46.248 109.534 45.8482 109.803 45.49C110.073 45.1402 110.467 44.832 110.996 44.5655C110.761 44.2822 110.585 44.0157 110.458 43.7658C110.333 43.516 110.273 43.2744 110.273 43.0496C110.273 42.633 110.441 42.275 110.778 41.9834C111.114 41.6919 111.592 41.5503 112.222 41.5503C112.853 41.5503 113.298 41.7002 113.643 42.0083C113.978 42.3166 114.155 42.6831 114.155 43.1245C114.155 43.4077 114.071 43.666 113.903 43.9242C113.735 44.174 113.391 44.4572 112.886 44.782L113.861 46.0481C113.97 45.8482 114.071 45.5816 114.155 45.2568L115.365 45.5317C115.247 45.9564 115.137 46.2647 115.046 46.4645C114.962 46.6644 114.861 46.8227 114.76 46.9559C114.911 47.0975 115.104 47.2475 115.339 47.4141C115.574 47.5806 115.751 47.6889 115.861 47.7472" fill="#007F3E"/>
<path d="M120.825 42.8249V47.406H121.875C122.271 47.406 122.556 47.381 122.724 47.3393C122.951 47.281 123.144 47.1894 123.296 47.0478C123.446 46.9145 123.564 46.6896 123.665 46.3815C123.758 46.0733 123.808 45.6485 123.808 45.1154C123.808 44.5824 123.758 44.1743 123.665 43.8827C123.564 43.5995 123.438 43.3746 123.261 43.2163C123.086 43.0498 122.876 42.9498 122.606 42.8916C122.414 42.8498 122.027 42.8249 121.447 42.8249H120.817H120.825ZM119.414 41.6505H121.994C122.573 41.6505 123.018 41.6921 123.321 41.7837C123.733 41.9003 124.085 42.1169 124.37 42.4168C124.665 42.7249 124.892 43.0914 125.043 43.5412C125.194 43.9826 125.27 44.5324 125.27 45.1738C125.27 45.7401 125.202 46.2316 125.06 46.648C124.884 47.1478 124.64 47.5559 124.312 47.8641C124.068 48.1056 123.741 48.2889 123.321 48.4138C123.009 48.5138 122.589 48.5637 122.069 48.5637H119.414V41.6421V41.6505Z" fill="#007F3E"/>
<path d="M126.463 48.5715V41.6499H131.639V42.8243H127.875V44.3569H131.378V45.5229H127.875V47.4054H131.773V48.5715H126.463Z" fill="#007F3E"/>
<path d="M134.747 48.5715L132.251 41.6499H133.78L135.553 46.7723L137.258 41.6499H138.754L136.25 48.5715H134.747Z" fill="#007F3E"/>
<path d="M139.468 48.5715V41.6499H144.643V42.8243H140.879V44.3569H144.383V45.5229H140.879V47.4054H144.778V48.5715H139.468Z" fill="#007F3E"/>
<path d="M146.014 48.5719V41.7085H147.425V47.4058H150.928V48.5719H146.014Z" fill="#007F3E"/>
<path d="M153.095 45.1065C153.095 45.8894 153.271 46.4809 153.641 46.889C154.011 47.2971 154.473 47.497 155.027 47.497C155.582 47.497 156.052 47.2971 156.414 46.8973C156.774 46.4975 156.951 45.8978 156.951 45.0899C156.951 44.282 156.775 43.7072 156.422 43.3157C156.069 42.9242 155.607 42.7326 155.027 42.7326C154.448 42.7326 153.978 42.9326 153.624 43.324C153.271 43.7238 153.095 44.3152 153.095 45.1065ZM151.642 45.1564C151.642 44.4568 151.75 43.8571 151.96 43.3824C152.12 43.0242 152.339 42.716 152.607 42.4328C152.885 42.1496 153.179 41.9414 153.506 41.8081C153.943 41.6249 154.44 41.5332 155.01 41.5332C156.044 41.5332 156.859 41.8498 157.48 42.4827C158.094 43.1158 158.405 43.9987 158.405 45.1231C158.405 46.2476 158.102 47.1139 157.489 47.7469C156.876 48.3799 156.052 48.6964 155.035 48.6964C154.019 48.6964 153.171 48.3799 152.557 47.7552C151.944 47.1305 151.642 46.2643 151.642 45.1648" fill="#007F3E"/>
<path d="M160.925 42.8243V44.79H161.698C162.252 44.79 162.622 44.7483 162.807 44.6817C162.991 44.6151 163.143 44.4984 163.244 44.3402C163.353 44.1903 163.403 44.007 163.403 43.8072C163.403 43.5573 163.336 43.349 163.184 43.1825C163.034 43.0159 162.849 42.9159 162.614 42.8743C162.445 42.8409 162.109 42.8243 161.597 42.8243H160.916H160.925ZM159.514 48.5715V41.6499H161.773C162.63 41.6499 163.193 41.6832 163.454 41.7498C163.856 41.8498 164.193 42.083 164.462 42.4245C164.73 42.7743 164.865 43.2241 164.865 43.7739C164.865 44.1986 164.79 44.5568 164.63 44.8483C164.47 45.1398 164.277 45.3647 164.041 45.5313C163.798 45.6979 163.554 45.8061 163.311 45.8645C162.974 45.931 162.487 45.9644 161.849 45.9644H160.933V48.5715H159.522H159.514Z" fill="#007F3E"/>
<path d="M165.999 48.5715V41.6499H168.108L169.377 46.3726L170.628 41.6499H172.746V48.5715H171.435V43.1242L170.049 48.5715H168.687L167.31 43.1242V48.5715H165.999Z" fill="#007F3E"/>
<path d="M174.141 48.5715V41.6499H179.325V42.8243H175.553V44.3569H179.056V45.5229H175.553V47.4054H179.45V48.5715H174.141Z" fill="#007F3E"/>
<path d="M180.66 48.5715V41.6499H182.029L184.886 46.2726V41.6499H186.196V48.5715H184.784L181.971 44.057V48.5715H180.66Z" fill="#007F3E"/>
<path d="M189.263 48.5715V42.8243H187.187V41.6499H192.732V42.8243H190.674V48.5715H189.263Z" fill="#007F3E"/>
</g>
</svg>
