<svg width="245" height="51" viewBox="0 0 245 51" fill="none" xmlns="http://www.w3.org/2000/svg">
<mask id="mask0_647_4899" style="mask-type:luminance" maskUnits="userSpaceOnUse" x="1" y="1" width="243" height="50">
<path d="M243.575 1.63818H1.42432V50.1583H243.575V1.63818Z" fill="white"/>
</mask>
<g mask="url(#mask0_647_4899)">
<path d="M221.453 27.3374H217.683V28.124H221.453V27.3374Z" fill="black"/>
<path d="M221.453 27.3374H217.683V28.124H221.453V27.3374Z" fill="black"/>
<path d="M220.048 1.95068C222.421 1.99709 224.713 2.38973 226.875 3.08154L226.989 3.06592H232.437C232.477 8.60458 236.991 13.1132 242.536 13.1294V18.604L242.52 18.6685C243.271 20.996 243.681 23.4774 243.681 26.0562C243.681 28.635 243.272 31.149 242.512 33.4683L242.536 33.5415V38.9829C236.975 38.9991 232.453 43.5245 232.437 49.0796H226.989L226.858 49.0308C224.552 49.7607 222.107 50.1587 219.571 50.1587C217.036 50.1587 214.607 49.7613 212.309 49.0396L212.203 49.0796H206.969C206.952 43.5164 202.413 38.9829 196.844 38.9829H196.655V33.5581C195.871 31.1983 195.454 28.6678 195.454 26.0483C195.454 23.429 195.879 20.9066 196.655 18.5386V13.1138H196.844C202.405 13.1138 206.936 8.59628 206.969 3.04932H212.309C214.599 2.32757 217.044 1.9302 219.571 1.93018L220.048 1.95068ZM219.669 9.4458C210.526 9.44605 203.065 16.8998 203.065 26.0483C203.066 35.1967 210.526 42.6506 219.669 42.6509C228.813 42.6508 236.272 35.1968 236.272 26.0483C236.272 16.8997 228.813 9.44591 219.669 9.4458ZM219.669 9.59619C228.73 9.5963 236.122 16.983 236.122 26.0483C236.122 35.1136 228.73 42.5004 219.669 42.5005C210.609 42.5002 203.216 35.1135 203.216 26.0483C203.216 16.9831 210.609 9.59644 219.669 9.59619ZM217.593 27.0454V28.313C212.63 28.9064 208.875 31.5831 208.875 34.7827C208.875 38.4158 213.717 41.3755 219.67 41.3755C225.624 41.3754 230.466 38.4158 230.466 34.7827C230.466 31.5814 226.706 28.9035 221.739 28.312V27.0454H217.593ZM219.589 41.0679C219.032 41.0679 218.476 41.0273 217.92 40.9624C216.154 40.6056 214.632 39.7297 213.577 38.5376C215.327 37.8564 217.389 37.4833 219.572 37.4751L219.589 41.0679ZM219.801 37.4751C221.968 37.4914 224.03 37.8645 225.771 38.5376C224.7 39.7539 223.137 40.6374 221.33 40.978C220.832 41.0266 220.324 41.0598 219.817 41.0679L219.801 37.4751ZM225.877 38.5864C226.327 38.7648 226.76 38.9593 227.161 39.1782C225.502 40.1351 223.513 40.7513 221.429 40.9702C223.227 40.6216 224.789 39.7621 225.877 38.5864ZM213.471 38.5942C214.534 39.7457 216.055 40.6056 217.814 40.9624C215.761 40.7273 213.782 40.1101 212.187 39.1938C212.587 38.9749 213.021 38.7804 213.471 38.6021V38.5942ZM230.245 34.9771C230.171 36.5665 229.132 38.0024 227.473 39.0972H227.456V39.0894C227.015 38.838 226.539 38.6183 226.041 38.4155C226.883 37.4342 227.398 36.2502 227.456 34.9771H230.245ZM211.893 34.9692C211.95 36.2424 212.465 37.4265 213.308 38.4077C212.808 38.6103 212.334 38.8292 211.9 39.0806H211.893C210.232 37.994 209.194 36.5506 209.12 34.9692H211.893ZM219.572 34.9692V37.2476C217.348 37.2556 215.222 37.6454 213.438 38.3589H213.43C212.637 37.3858 212.154 36.2261 212.097 34.9692H219.572ZM227.26 34.9692C227.202 36.2261 226.719 37.3858 225.926 38.3589C224.143 37.6534 222.025 37.2639 219.801 37.2476V34.9692H227.26ZM213.471 31.0444C215.246 31.7255 217.348 32.1066 219.556 32.1147V34.7417H212.081V34.7261C212.081 33.3557 212.596 32.0906 213.471 31.0444ZM212.057 30.3872C212.466 30.6141 212.899 30.8094 213.356 30.9878L213.349 30.9956C212.433 32.0497 211.885 33.3307 211.885 34.7173V34.7339H209.112C209.137 33.0553 210.24 31.5225 212.04 30.3872H212.057ZM225.869 31.02C226.752 32.066 227.276 33.339 227.276 34.7173V34.7339H219.793V32.1147C221.993 32.0986 224.095 31.7173 225.869 31.02ZM227.276 30.3628C229.091 31.4981 230.22 33.039 230.237 34.7339H227.465V34.7173C227.465 33.3227 226.907 32.0254 225.976 30.9712C226.409 30.8009 226.827 30.6059 227.219 30.395L227.276 30.3628ZM219.556 31.8872C217.405 31.8791 215.368 31.5059 213.635 30.8491C214.56 29.8194 215.843 29.0329 217.331 28.6274C218.019 28.5221 218.755 28.4568 219.54 28.4487L219.556 31.8872ZM219.761 28.4487C220.595 28.4488 221.372 28.5305 222.092 28.644L222.1 28.6519C223.546 29.0655 224.798 29.8361 225.705 30.8335C223.972 31.4984 221.935 31.8791 219.776 31.8872L219.761 28.4487ZM217.209 28.644C215.737 29.0495 214.452 29.8116 213.521 30.8091V30.8003C213.12 30.6464 212.711 30.4848 212.343 30.2983C213.333 29.7469 215.009 28.9927 217.209 28.644ZM222.32 28.6919C224.397 29.0569 225.992 29.779 226.94 30.3062C226.589 30.4845 226.205 30.6387 225.82 30.7847C224.921 29.844 223.71 29.1055 222.32 28.6919ZM217.43 26.0728C217.266 26.0728 217.134 26.2271 217.134 26.4136C217.134 26.5999 217.266 26.7534 217.43 26.7534H221.91C222.066 26.7532 222.197 26.5998 222.197 26.4136C222.197 26.2272 222.066 26.073 221.91 26.0728H217.43ZM217.135 24.7095C216.956 24.7095 216.808 24.9612 216.808 25.2612C216.808 25.5612 216.956 25.813 217.135 25.813H222.197C222.385 25.8128 222.533 25.5692 222.533 25.2612C222.533 24.9532 222.377 24.7097 222.197 24.7095H217.135ZM217.43 23.7534C217.266 23.7534 217.134 23.9077 217.134 24.0942C217.134 24.2808 217.266 24.4351 217.43 24.4351H221.91C222.066 24.4348 222.197 24.2806 222.197 24.0942C222.197 23.9079 222.066 23.7536 221.91 23.7534H217.43ZM219.765 10.6323C219.32 10.6122 218.901 10.9806 218.583 11.6626C218.302 12.2654 218.087 13.1365 217.995 14.2808L217.963 14.7876V14.8667H214.527V16.1206H215.526V17.2144H216.572V18.3179H217.963V23.4761H221.369V14.8159C221.369 13.4773 221.182 12.4493 220.894 11.7485C220.608 11.055 220.207 10.6527 219.765 10.6323ZM219.757 10.8081C220.09 10.8235 220.45 11.1366 220.73 11.8159C221.008 12.4884 221.193 13.4912 221.193 14.8159V23.3003H218.139V18.3179H218.556V15.9604H218.555V14.8667H218.139V14.7964C218.202 13.4121 218.434 12.3974 218.742 11.7368C219.053 11.0697 219.426 10.7931 219.757 10.8081ZM217.963 17.2397V18.1421H216.748V17.2397H217.963ZM218.38 17.2397V18.1421H218.139V17.2397H218.38ZM217.963 16.1362V17.0386H215.702V16.1362H217.963ZM218.38 16.1362V17.0386H218.139V16.1362H218.38ZM217.963 15.0425V15.9448H214.703V15.0425H217.963ZM218.379 15.0425V15.9448H218.139V15.0425H218.379Z" fill="black"/>
<path d="M185.919 18.7175C185.812 18.3849 185.624 18.101 185.346 17.8496C185.077 17.5983 184.806 17.4766 184.536 17.4766C184.127 17.4766 183.809 17.5577 183.588 17.72C183.424 17.8416 183.343 17.9714 183.343 18.101C183.947 18.5471 184.676 18.9039 185.534 19.1553C185.64 19.1878 185.731 19.204 185.804 19.204C185.911 19.204 185.968 19.1392 185.968 19.0256C185.968 18.9445 185.952 18.8471 185.919 18.7093M161.507 21.0773C162.505 20.7042 163.502 20.6881 164.761 21.5072C165.375 21.9045 165.964 22.3343 166.56 22.756C167.844 20.3961 168.81 18.7985 169.439 17.947C170.805 16.1385 172.146 15.2303 173.455 15.2303C174.641 15.2303 175.671 15.6601 176.538 16.5116C177.274 17.2253 177.642 17.874 177.642 18.4661C177.642 19.1878 177.511 19.8122 177.266 20.3474C176.98 20.9719 176.449 21.645 175.696 22.3587C177.258 21.9126 179.335 21.5477 180.619 20.5665C180.954 20.3069 181.208 20.0069 181.396 19.6744C181.486 19.5122 181.731 19.0013 182.116 18.1498C182.296 17.7524 182.468 17.5335 182.614 17.4928C182.86 17.0306 183.195 16.5927 183.621 16.171C184.226 15.5709 184.806 15.2789 185.362 15.2789C186.057 15.2789 186.589 15.7006 186.949 16.5602C187.227 17.1928 187.358 17.9065 187.358 18.6931C187.358 19.4392 187.244 20.096 187.007 20.6395C186.778 21.1989 186.515 21.4747 186.246 21.4747C184.856 21.4747 183.465 20.9395 182.083 19.8852C181.642 20.9881 181.036 21.9045 180.267 22.6262C178.991 23.8184 176.194 24.2969 174.436 24.7347C172.613 25.1889 170.764 25.416 168.891 25.416C168.032 25.416 167.182 25.2619 166.347 24.9538C166.037 25.8377 165.8 26.2757 165.653 26.2757C165.604 26.2757 165.579 26.2108 165.579 26.0729C165.579 25.7891 165.677 25.3512 165.882 24.751C164.909 24.0535 164.352 23.6725 164.214 23.5913C163.289 23.0723 162.61 23.0155 161.924 23.202C158.578 24.0617 156.379 26.2594 154.203 28.7491C153.32 29.7547 152.429 30.2574 151.537 30.2574C150.793 30.2574 150.139 29.925 149.582 29.26C148.994 28.5626 148.699 27.7111 148.699 26.7055C148.699 25.3268 149.272 23.5183 150.416 21.2963C150.539 21.0693 150.637 20.9556 150.703 20.9556C150.728 20.9556 150.744 20.9881 150.744 21.0449C150.744 21.2719 150.499 22.0424 149.999 23.3723C149.501 24.7023 149.255 25.7485 149.255 26.5189C149.255 27.1109 149.394 27.5813 149.673 27.93C149.967 28.3112 150.376 28.5058 150.908 28.5058C151.84 28.5058 152.78 28.0354 153.729 27.1028C155.945 24.4834 158.194 22.3181 161.523 21.0854M156.567 14.2166C159.47 14.2166 162.782 13.6084 166.495 12.4081C169.087 11.5647 171.026 10.7862 172.302 10.0644C172.302 9.61028 172.032 9.22101 171.484 8.91284C171.001 8.64523 170.478 8.51547 169.914 8.51547H168.417C167.861 8.51547 167.419 8.33706 167.092 7.98024C166.765 7.62341 166.61 7.16116 166.61 6.59348C166.61 5.82306 166.888 5.05265 167.411 4.27412C167.951 3.4956 168.498 3.10632 169.063 3.10632C169.995 3.10632 170.871 3.62535 171.68 4.66338C172.539 5.79873 172.98 7.14493 172.98 8.70199C172.98 9.51296 172.874 10.1617 172.662 10.6564C172.482 11.0781 172.146 11.5242 171.68 12.0027C170.977 12.692 169.079 13.5516 165.996 14.5734C162.242 15.8223 158.791 16.4467 155.627 16.4467C153.271 16.4467 151.57 15.8304 150.523 14.5977C149.795 13.73 149.427 12.6352 149.427 11.3214C149.427 9.91844 149.762 8.62089 150.433 7.41255C150.645 7.02329 150.793 6.82866 150.874 6.82866C150.908 6.82866 150.924 6.86921 150.924 6.91787C150.924 7.04762 150.866 7.26659 150.752 7.58286C150.588 8.01268 150.416 8.45059 150.253 8.8723C150.073 9.42375 149.991 10.0158 149.991 10.6483C149.991 11.4431 150.384 12.1567 151.169 12.7974C152.322 13.7381 154.122 14.2084 156.567 14.2084M170.592 6.47184C170.045 5.66088 169.439 5.25539 168.753 5.25539C168.261 5.25539 168.016 5.40947 168.016 5.72575C168.016 6.07446 168.327 6.28532 168.941 6.36641C169.292 6.36641 169.84 6.41507 170.592 6.47184ZM144.004 6.92598C144.004 6.20422 143.891 5.62032 143.662 5.15808C143.662 4.89046 143.874 4.27412 144.3 3.29285C144.356 3.17121 144.397 3.11444 144.43 3.11444C144.48 3.11444 144.528 3.17932 144.594 3.30096C144.717 3.56047 144.994 4.2579 145.436 5.40947C145.894 6.6097 146.163 7.33957 146.246 7.62341C146.303 7.83426 146.335 7.98834 146.335 8.09376C146.335 8.41815 146.017 8.22353 145.371 7.49365C145.297 7.38823 145.264 7.42878 145.264 7.63152C145.264 7.69639 145.428 9.99954 145.764 14.5328C146.09 19.0661 146.262 21.6207 146.262 22.1884C146.262 23.9319 145.993 25.4647 145.452 26.7865C145.338 27.0623 145.248 27.2488 145.183 27.3704C145.076 27.5488 145.011 27.5732 144.986 27.4516C144.962 27.3218 144.97 27.0379 145.027 26.6C145.092 25.9999 145.126 25.3106 145.126 24.5158C145.126 23.7941 144.946 20.8421 144.569 15.6439C144.201 10.4537 144.013 7.54231 144.013 6.92598M74.9391 5.45813C74.9391 4.73637 74.8246 4.15248 74.6038 3.68212C74.6038 3.4145 74.8165 2.79816 75.2335 1.81689C75.2908 1.69525 75.3317 1.63848 75.3726 1.63848C75.4135 1.63848 75.4707 1.70336 75.528 1.825C75.6507 2.08451 75.9287 2.78195 76.3703 3.93351C76.8284 5.13375 77.0982 5.87173 77.1719 6.14745C77.229 6.3583 77.2618 6.52049 77.2618 6.61781C77.2618 6.95031 76.9428 6.74756 76.3049 6.02581C76.2313 5.92038 76.1904 5.96093 76.1904 6.15556C76.1904 6.22855 76.3539 8.52358 76.6893 13.065C77.0246 17.5983 77.1881 20.1528 77.1881 20.7205C77.1881 22.4641 76.9265 23.9968 76.3867 25.3187C76.2722 25.5944 76.1822 25.781 76.1168 25.9026C76.0023 26.081 75.945 26.1053 75.9205 25.9755C75.8878 25.8459 75.9041 25.562 75.9533 25.124C76.0187 24.5239 76.0596 23.8346 76.0596 23.0399C76.0596 22.3181 75.8715 19.3662 75.5035 14.1679C75.1355 8.97772 74.9473 6.06635 74.9473 5.45002M90.7478 28.1733C92.2771 28.1733 94.1991 27.4353 96.5134 25.9594C97.961 25.0349 99.0733 24.1914 99.8584 23.4372C100.03 23.2669 100.12 23.1129 100.12 22.975C100.12 22.8128 100.022 22.5452 99.8175 22.2045C99.3595 21.4747 98.738 20.3881 97.9529 18.9526C97.7648 18.6606 97.5521 18.2714 97.3231 17.7929C97.2986 17.72 97.3231 17.4361 97.3885 16.9414C97.4622 16.4711 97.5112 16.1385 97.5603 15.952C97.6094 15.7655 97.6585 15.6763 97.7156 15.6763C97.7565 15.6763 97.8138 15.725 97.8874 15.8141C98.37 16.3899 98.9342 16.9819 99.564 17.5983C99.8175 17.8578 99.9484 18.02 99.9484 18.093C99.9484 18.1335 99.9075 18.1579 99.8257 18.1579C99.7194 18.1579 99.4413 18.101 98.9915 17.9794C99.335 18.5633 99.8421 19.4878 100.504 20.7611C100.693 21.1747 100.783 21.6369 100.783 22.1559C100.783 22.829 100.635 23.5346 100.333 24.2644C100.087 24.8726 99.8257 25.3106 99.564 25.5863C98.7625 26.4054 97.6257 27.2893 96.1454 28.2544C94.0109 29.6573 92.2362 30.3548 90.8214 30.3548C89.5211 30.3548 88.5642 29.7871 87.9508 28.6517C87.5256 27.8651 87.3047 26.965 87.3047 25.9594C87.3047 24.3861 87.64 22.7885 88.3025 21.1665C88.4416 20.8179 88.5478 20.6395 88.6214 20.6395C88.6541 20.6475 88.6705 20.6881 88.6705 20.753C88.6705 20.8665 88.6296 21.0449 88.5642 21.2719C88.1062 22.8776 87.8772 24.1023 87.8772 24.9456C87.8772 25.6674 88.1143 26.3648 88.5887 27.0217C89.153 27.8002 89.8646 28.1895 90.7559 28.1895M76.1413 28.0192C77.1719 28.0192 78.4149 27.5893 79.8789 26.7136C81.0728 26.008 82.2424 25.1484 83.3873 24.1265C84.4178 23.202 84.9984 22.5533 85.1293 22.1722C85.0229 21.572 84.246 21.2801 82.7985 21.2801C81.0157 21.2801 80.1242 20.68 80.1242 19.4797C80.1242 18.5552 80.4268 17.7361 81.0319 17.0306C81.5881 16.3737 82.1687 16.0413 82.7739 16.0413C83.4691 16.0413 84.1152 16.4792 84.7204 17.3712C85.252 18.1335 85.6036 18.9769 85.7917 19.8852C85.8653 20.2907 85.9062 20.7042 85.9062 21.1179C85.9062 22.5695 85.53 23.7211 84.7694 24.5807C83.7636 25.708 82.6268 26.7622 81.3754 27.7516C79.2491 29.4222 77.4498 30.2655 75.9942 30.2655C74.7511 30.2655 73.7942 29.8115 73.1154 28.895C72.5101 28.084 72.2076 27.0866 72.2076 25.8864C72.2076 24.3131 72.5429 22.7155 73.2054 21.0854C73.3526 20.7367 73.4589 20.5665 73.5161 20.5665C73.5489 20.5826 73.5651 20.6232 73.5651 20.68C73.5651 20.7854 73.5325 20.9556 73.467 21.1989C73.0009 22.8128 72.7637 24.0374 72.7637 24.8645C72.7637 25.6431 72.96 26.2999 73.3526 26.8433C73.925 27.6381 74.8574 28.0354 76.1332 28.0354M83.8616 19.3013C83.7144 19.0175 83.4936 18.7499 83.2074 18.4903C82.8639 18.2065 82.5531 18.0687 82.275 18.0687C81.6126 18.0687 81.2773 18.2471 81.2773 18.6039C81.2773 19.0175 81.7108 19.2283 82.5859 19.2283C83.2483 19.2283 83.6735 19.2527 83.8535 19.2932M95.0904 18.1335C94.6489 17.2982 93.9537 16.4711 93.005 15.6439C92.6779 15.9925 92.2444 16.6089 91.7128 17.501C91.1322 18.4741 90.8459 19.1148 90.8459 19.4311C90.8459 19.869 91.1812 20.0799 91.8437 20.0799C92.1299 20.0799 92.5061 19.9825 92.9805 19.7879C93.6592 19.5041 94.2726 19.0985 94.8124 18.5715C95.025 18.3687 95.115 18.2147 95.0823 18.1254M96.5053 9.05882C96.5053 9.65893 96.2108 10.4618 95.622 11.4593C95.2458 12.0918 94.6815 12.9434 93.9455 14.0219C94.6979 14.8734 95.2049 15.6357 95.4667 16.3088C95.6302 16.7874 95.712 17.3956 95.712 18.1254C95.712 18.4092 95.6466 18.7823 95.5239 19.2364C95.393 19.6987 95.254 20.023 95.1068 20.2339C94.8206 20.68 94.3135 21.126 93.5856 21.5801C92.8087 22.0748 92.1299 22.3181 91.5738 22.3181C90.6824 22.3181 90.2326 21.6693 90.2326 20.3637C90.2326 19.4554 90.3879 18.5877 90.7069 17.7849C90.9768 17.0793 91.4921 16.1385 92.2526 14.9545C91.582 14.2977 90.8786 13.4218 90.1262 12.3271C90.0363 12.2216 89.8482 12.0269 89.562 11.7431C89.3984 11.5809 89.3084 11.3944 89.3084 11.1836C89.3084 10.8511 89.3575 10.478 89.4474 10.0482C89.5373 9.61839 89.611 9.40754 89.6764 9.40754C89.7664 9.40754 90.1181 9.60216 90.7314 9.99954C91.3366 10.3969 91.8109 10.7132 92.1299 10.9565C92.3016 11.0862 92.3753 11.1754 92.3753 11.1998V11.2241C92.3753 11.2646 92.2444 11.289 91.9827 11.289C91.5002 11.289 91.263 11.3133 91.263 11.3538C91.263 11.3782 91.3366 11.4836 91.4921 11.6701C92.0808 12.3838 92.6779 12.9595 93.2749 13.3732C93.4548 13.1785 93.9537 12.4487 94.7715 11.1754C95.4667 10.1131 95.9001 9.36698 96.0719 8.93717C96.2436 8.51547 96.3581 8.29651 96.4235 8.29651C96.4808 8.29651 96.5134 8.54791 96.5134 9.03449M134.003 22.7074C133.97 22.602 133.888 22.5857 133.815 22.7074C133.414 23.3399 133.112 24.0211 132.719 24.5158C131.721 25.781 130.544 26.5432 128.401 26.6406C126.356 26.7379 124.638 25.8782 124.721 23.64L124.843 22.4803C124.884 22.4803 124.991 22.9425 125.244 23.2913C125.841 24.1023 127.403 24.4753 128.319 24.4996C129.922 24.5482 131.107 24.1104 132.097 23.2507C132.547 22.8615 132.956 22.3829 133.349 21.8234C133.651 21.3855 133.946 20.9556 134.232 20.5177C134.338 20.3556 134.477 20.3069 134.567 20.3069C134.698 20.3069 134.763 20.4448 134.763 20.7124C134.763 21.4098 134.943 21.9694 135.311 22.3829C136.53 23.8751 138.084 24.3131 139.621 23.0642C139.818 22.902 139.915 22.3019 139.915 21.2719C139.915 20.6395 139.753 18.1092 139.425 13.6895C139.106 9.26967 138.943 6.65836 138.943 5.86361C138.943 5.14996 138.828 4.54985 138.599 4.0876C138.599 3.8362 138.811 3.21175 139.237 2.22238C139.286 2.10073 139.327 2.04396 139.376 2.04396C139.425 2.04396 139.474 2.11695 139.532 2.2467C139.654 2.50621 139.932 3.20365 140.373 4.35522C140.824 5.55545 141.102 6.28532 141.191 6.55294C141.232 6.7719 141.266 6.93408 141.266 7.02329C141.266 7.35579 140.946 7.16116 140.308 6.4394C140.235 6.33397 140.194 6.38263 140.194 6.56915C140.194 6.61781 140.333 8.58035 140.628 12.473C140.913 16.3656 141.061 18.6931 141.061 19.4311C141.061 21.6045 140.66 23.3074 139.883 24.5482C139.123 25.7728 138.297 26.081 137.487 25.9755C135.786 25.7566 134.534 24.1995 134.019 22.6831M102.901 8.88041C102.754 7.47744 102.565 6.36641 102.345 5.54734C102.156 4.8499 102.001 4.5093 101.862 4.5093C101.658 4.5093 101.331 5.10942 100.881 6.30964C100.807 6.51238 100.733 6.6097 100.668 6.6097C100.603 6.6097 100.578 6.48805 100.603 6.23666C100.693 5.31216 100.905 4.45253 101.241 3.67401C101.584 2.85493 101.928 2.44945 102.271 2.44945C102.974 2.44945 103.514 4.15248 103.899 7.57475C104.054 8.96961 104.177 11.4674 104.258 15.0924C104.341 18.4985 104.414 20.3881 104.471 20.7286C104.528 21.0854 104.618 21.3936 104.716 21.6693C106.442 26.3243 119.257 22.1397 122.283 21.0773L117.335 19.7311C116.877 19.6176 116.567 19.5608 116.42 19.569C116.296 19.569 116.191 19.642 116.092 19.7636C115.994 19.8934 115.822 19.9339 115.561 19.9095C114.686 19.8771 113.728 19.8204 112.681 19.7392C112.444 19.6825 112.314 19.5932 112.314 19.4878C112.314 19.4229 112.355 19.3257 112.428 19.1878L113.157 17.7361C113.262 17.5253 113.41 17.4118 113.582 17.3874C114.882 17.2009 115.913 17.1279 116.681 17.1766C119.609 17.9633 121.768 18.5066 123.166 18.831C126.226 19.5122 128.834 19.9339 130.993 20.0879C131.411 20.1123 131.615 20.1772 131.615 20.2744C131.615 20.3069 131.607 20.3556 131.573 20.4123L130.773 21.9613C130.69 22.1235 130.593 22.2045 130.469 22.2045C130.469 22.2045 130.2 22.1964 129.661 22.164C129.12 22.1397 128.605 22.1315 128.122 22.1315C126.062 22.1397 124.336 22.3587 122.937 22.7885C121.286 23.3399 119.634 23.8914 117.981 24.4428C114.89 25.3673 106.008 27.6948 104.054 23.7941C103.833 23.3562 103.669 22.8209 103.555 22.1803C103.408 21.3936 103.285 19.3094 103.187 15.9034C103.089 12.1892 102.983 9.85357 102.884 8.88851M56.2926 26.8027C56.6279 26.8027 56.7915 26.7055 56.7915 26.5189C56.7915 26.2757 56.6034 26.0729 56.2272 25.9107C55.7855 25.7404 55.2049 25.7242 54.4607 25.8459C55.0086 26.4864 55.6138 26.8109 56.2926 26.8109M47.9671 22.4397C48.2616 22.3019 48.4414 22.2208 48.5478 22.2208C48.6868 22.2208 48.7276 22.3749 48.6705 22.6831C48.6214 22.975 48.5968 23.2345 48.5968 23.4778C48.5968 24.2158 48.834 24.7347 49.3084 25.0268C50.1589 25.5538 50.7395 25.2619 51.5492 24.8402C51.77 24.7267 51.9909 24.6051 52.2198 24.4753C51.9663 22.9913 52.1217 21.3936 52.6287 19.9744C52.8332 19.3906 53.1194 18.8471 53.4711 18.3443C54.1172 17.428 54.7469 16.9739 55.3357 16.9739C55.5648 16.9739 55.8592 17.2902 56.219 17.9145C56.7751 18.8877 57.2086 19.569 57.5194 19.9583C57.6747 20.1528 57.8301 20.3393 58.0018 20.5097C59.1469 21.6937 60.2591 22.3749 61.7557 21.2638C61.7884 21.2314 61.8293 21.2071 61.862 21.1747C62.0501 21.0205 62.2383 20.8502 62.3936 20.6395C62.9825 19.8285 63.5468 19.0094 64.1274 18.1903C64.2583 18.0443 64.3727 17.9794 64.4709 17.9794C64.6018 17.9794 64.6672 18.1173 64.6672 18.3849C64.6672 19.0824 64.8471 19.642 65.2151 20.0555C66.4337 21.5477 67.9958 21.9856 69.5251 20.7367C69.7213 20.5746 69.8195 19.9744 69.8195 18.9445C69.8195 18.3119 69.7541 17.7686 69.4351 13.3488C69.1162 8.92095 68.9527 6.31776 68.9527 5.52301C68.9527 4.80936 68.8381 4.20925 68.6092 3.74699C68.6092 3.4956 68.8217 2.87115 69.247 1.88177C69.2962 1.76824 69.3371 1.70336 69.3861 1.70336C69.427 1.70336 69.4842 1.76824 69.5496 1.9061C69.6642 2.1575 69.9422 2.86304 70.3838 4.01461C70.8336 5.21484 71.1199 5.94471 71.2016 6.22043C71.2589 6.4394 71.267 6.60159 71.267 6.6908C71.267 7.01518 70.9399 6.82866 70.3102 6.10691C70.2284 6.00958 70.1958 6.05014 70.1958 6.24477C70.1958 6.29343 70.3429 8.26407 70.6292 12.1486C70.9154 16.0413 70.9563 16.3818 70.9563 17.1279C70.9563 19.3013 70.5555 20.9963 69.7786 22.2452C69.0181 23.4697 68.2003 23.7779 67.3823 23.6725C65.6813 23.4534 64.43 21.8964 63.9148 20.3799C63.882 20.2664 63.8085 20.2664 63.7185 20.3799C63.2769 21.126 62.8271 21.864 62.3691 22.602C60.5862 25.124 58.7297 24.1023 56.9387 22.1235C56.5053 21.6288 56.0636 20.9638 55.6383 20.1123C55.3276 19.5122 55.0822 19.2122 54.8942 19.2122C54.6161 19.2122 54.2317 19.5041 53.7328 20.0879C52.8332 21.126 52.6206 22.829 53.2258 24.086C54.2481 23.7373 55.0822 23.567 55.712 23.567C56.3417 23.567 56.8488 23.8346 57.2249 24.3779C57.6012 24.9213 57.7893 25.6187 57.7893 26.4864C57.7893 27.2164 57.6257 27.8165 57.3149 28.2949C56.996 28.7653 56.5788 29.0005 56.0472 29.0005C54.8696 29.0005 53.8064 28.1003 52.8496 26.308C52.7678 26.3567 52.5797 26.4541 52.2607 26.5919C51.5574 26.8839 50.8132 27.3542 50.0935 27.4677C48.8504 27.6623 47.9835 26.4783 47.8035 25.3917C47.7545 25.0998 47.7381 24.7754 47.7381 24.4347C47.7381 24.3698 47.7136 24.3455 47.6564 24.3779C47.1902 24.67 46.6341 24.9456 45.988 25.2133C42.2996 26.746 35.4543 28.3517 31.0299 26.819C29.198 26.1864 27.9548 24.97 26.9653 23.3562C26.7036 22.9345 26.4255 22.7317 26.1475 22.7317C25.305 22.7317 24.4136 23.4453 23.4813 24.8645C23.3178 25.1159 23.0152 25.781 22.5817 26.8433C22.1482 27.9219 21.7802 28.6923 21.4612 29.1708C20.9624 29.9006 20.439 30.2737 19.8746 30.2737C19.0405 30.2737 18.3453 29.6331 17.7647 28.3436C17.2494 27.2083 16.9959 26.0243 16.9959 24.7996C16.9959 23.3156 17.1595 22.1397 17.4457 21.2477C17.552 20.9395 17.6174 20.7772 17.6992 20.7772C17.7892 20.7772 17.8137 20.9719 17.7647 21.3612C17.6502 22.31 17.5848 23.1048 17.5848 23.7616C17.5848 26.892 18.3126 28.4571 19.7847 28.4571C20.3736 28.4571 20.9542 28.0192 21.4122 27.0866C21.9438 26.008 22.4017 24.8889 22.9334 23.8022C23.3668 22.902 23.9393 22.1397 24.5935 21.4909C25.256 20.8502 25.853 20.5258 26.3928 20.5258C26.8017 20.5258 27.1861 20.7691 27.5214 21.2882C27.824 21.7505 28.0693 22.237 28.3801 22.6831C28.6827 23.129 29.0752 23.494 29.5169 23.7779C30.1875 24.2158 30.9318 24.5482 31.7332 24.7916C36.0432 26.0729 41.8743 24.67 45.7181 23.3237C46.5032 23.048 47.2638 22.748 47.959 22.4478M15.9982 18.8553C15.9982 18.2957 16.1372 17.7361 16.5624 16.9819C16.8569 16.4223 17.2577 15.8709 17.5684 15.4411C17.6829 15.2789 17.7729 15.1735 17.9037 15.0275C17.9854 14.9383 18.1572 14.768 18.2554 14.7437C18.2554 14.7437 18.3044 14.7275 18.2717 14.8166C18.1736 15.068 17.9609 15.3194 17.8137 15.5303C17.0695 16.6981 16.6933 17.3874 16.6933 17.9145C16.6933 18.2876 16.8324 18.4741 17.1186 18.4741C17.2413 18.4741 17.4539 18.4173 17.5929 18.2795C17.6502 18.2227 17.7974 17.8496 17.781 18.2065C17.781 18.3201 17.7647 18.4336 17.7483 18.5471C17.6992 18.8553 17.6093 19.1634 17.4784 19.4148C17.3067 19.7474 17.045 19.9744 16.6933 19.9744C16.268 19.9744 15.9899 19.6013 15.9899 18.8553M62.0829 29.3573C62.0829 28.895 62.1974 28.4409 62.549 27.8327C62.7944 27.3623 63.1215 26.9163 63.375 26.5676C63.465 26.4378 63.5468 26.3405 63.6531 26.2269C63.7185 26.154 63.8575 26.0161 63.9393 25.9918C63.9393 25.9918 63.9802 25.9755 63.9475 26.0566C63.8739 26.2675 63.694 26.4703 63.5794 26.6406C62.9661 27.5975 62.6635 28.1652 62.6635 28.595C62.6635 28.9031 62.778 29.0491 63.0152 29.0491C63.1134 29.0491 63.2932 29.0086 63.4077 28.895C63.4568 28.8464 63.5713 28.5382 63.5549 28.8301C63.5549 28.9194 63.5385 29.0086 63.5304 29.1059C63.4895 29.3654 63.4241 29.6087 63.3096 29.8115C63.1705 30.0871 62.9579 30.2737 62.6717 30.2737C62.3201 30.2737 62.091 29.9655 62.091 29.3573M102.541 29.2843C102.541 28.9194 102.615 28.5463 102.819 28.0516C102.966 27.6786 103.162 27.3137 103.318 27.0379C103.375 26.9325 103.416 26.8595 103.482 26.7622C103.522 26.7055 103.604 26.5919 103.653 26.5757C103.653 26.5757 103.678 26.5676 103.653 26.6243C103.612 26.7946 103.498 26.9487 103.432 27.0947C103.064 27.8651 102.876 28.3193 102.876 28.6598C102.876 28.9112 102.95 29.0329 103.089 29.0329C103.146 29.0329 103.253 29.0005 103.326 28.9031C103.359 28.8626 103.424 28.6193 103.416 28.8545C103.416 28.9275 103.416 29.0005 103.399 29.0735C103.375 29.2843 103.334 29.4871 103.269 29.6492C103.179 29.8682 103.056 30.0141 102.884 30.0141C102.672 30.0141 102.541 29.7709 102.541 29.2762M176.105 5.72575C176.105 5.2635 176.219 4.80936 176.571 4.19302C176.816 3.72266 177.144 3.27663 177.397 2.92791C177.495 2.79816 177.569 2.70085 177.675 2.58731C177.741 2.51432 177.879 2.36835 177.962 2.36024C177.962 2.36024 178.002 2.34402 177.978 2.42512C177.904 2.62786 177.723 2.8306 177.61 3.00901C176.996 3.96595 176.694 4.53363 176.694 4.96344C176.694 5.2716 176.808 5.4257 177.045 5.4257C177.144 5.4257 177.324 5.38514 177.438 5.2716C177.486 5.22295 177.601 4.91478 177.593 5.20673C177.593 5.29593 177.577 5.39325 177.561 5.48245C177.528 5.73386 177.454 5.98525 177.348 6.188C177.201 6.46373 176.988 6.64214 176.702 6.64214C176.35 6.64214 176.121 6.33397 176.121 5.72575M127.247 11.962L129.21 13.2434L130.044 11.9215L131.901 13.1218L132.907 11.3782L131.01 10.1617L130.11 11.5404L128.368 10.3239L127.247 11.962ZM89.9136 4.24168L91.8601 5.5149L92.6943 4.20113L94.5425 5.39326L95.5402 3.65779L93.6429 2.44945L92.7514 3.81998L91.0176 2.60353L89.8972 4.24168H89.9136ZM38.4721 30.1601L40.2305 31.3037L40.9829 30.1278L42.643 31.1982L43.5427 29.6411L41.8416 28.5544L41.0401 29.7871L39.4862 28.7005L38.4803 30.1683L38.4721 30.1601ZM16.5543 11.0295L18.468 12.2783L19.2858 10.9889L21.1015 12.1567L22.0828 10.4537L20.2264 9.26967L19.3431 10.6159L17.6502 9.42375L16.5543 11.0295ZM58.6316 10.1861L60.5535 11.4431L61.3795 10.1536L63.2114 11.3295L64.1929 9.61839L62.3201 8.41815L61.4367 9.77247L59.7275 8.58035L58.6234 10.1942L58.6316 10.1861ZM45.7753 8.78309C46.1107 8.78309 46.3969 8.97772 46.6667 9.36698C46.9285 9.75624 47.1084 10.259 47.2229 10.8835C47.2311 10.9484 47.2392 10.9889 47.2392 10.997C47.2556 11.0132 47.2637 11.0132 47.272 10.997C47.272 10.9889 47.2883 10.9484 47.3129 10.8835C47.3701 10.5104 47.5009 9.95088 47.7054 9.2129C47.9344 8.67766 48.1798 8.41004 48.4333 8.41004C48.5723 8.41004 48.7114 8.49925 48.8422 8.68577C48.9649 8.83986 49.0221 8.96961 49.0221 9.07503C49.0221 9.14803 49.0057 9.24534 48.9649 9.36698C48.9158 9.52918 48.8504 9.61027 48.7849 9.61027C48.7523 9.61027 48.6868 9.54539 48.5887 9.42375C48.4905 9.30211 48.3842 9.23723 48.2779 9.23723C48.0408 9.23723 47.8199 9.78869 47.6236 10.8916C47.5337 11.3701 47.4355 11.7107 47.3292 11.9134C47.2556 12.0513 47.1821 12.1162 47.1412 12.1162C47.1003 12.1162 47.0675 12.0513 47.0675 11.9296C47.0675 11.735 46.953 11.362 46.7322 10.8024C46.5114 10.2428 46.3478 9.9671 46.2578 9.9671C46.1924 9.9671 46.1515 9.98332 46.1352 10.032C46.1188 10.0725 46.0615 10.0887 45.9716 10.0887C45.8653 10.0887 45.7426 10.0239 45.5791 9.86978C45.4155 9.72381 45.3337 9.61028 45.3337 9.52107C45.3337 9.48052 45.3991 9.34265 45.5382 9.12369C45.6772 8.89662 45.759 8.78309 45.7917 8.78309M82.6594 2.00342C82.9948 2.00342 83.281 2.19805 83.5509 2.58731C83.8126 2.97657 83.9925 3.47937 84.0988 4.10382C84.1152 4.16869 84.1152 4.20925 84.1152 4.21735C84.1233 4.23357 84.1397 4.23357 84.1397 4.21735C84.1397 4.20925 84.1561 4.16869 84.1806 4.10382C84.2379 3.73077 84.3687 3.17121 84.5731 2.43323C84.794 1.89799 85.0393 1.63037 85.3093 1.63037C85.4401 1.63037 85.5791 1.71958 85.7182 1.9061C85.8326 2.06018 85.8899 2.18994 85.8899 2.28725C85.8899 2.36024 85.8653 2.45756 85.8326 2.58731C85.7754 2.7495 85.7182 2.8306 85.6445 2.8306C85.62 2.8306 85.5546 2.76572 85.4564 2.64408C85.3583 2.52243 85.252 2.45756 85.1457 2.45756C84.9085 2.45756 84.6877 3.00901 84.4913 4.11192C84.4014 4.59851 84.3033 4.931 84.197 5.13375C84.1233 5.2635 84.0579 5.32837 84.0089 5.32837C83.9516 5.32837 83.9353 5.2635 83.9353 5.14185C83.9353 4.95533 83.8207 4.57418 83.6 4.01461C83.3709 3.45504 83.2156 3.17932 83.1256 3.17932C83.0602 3.17932 83.0193 3.19553 83.0029 3.23609C82.9865 3.27663 82.9294 3.30096 82.8476 3.30096C82.7412 3.30096 82.6104 3.22798 82.455 3.082C82.2914 2.93603 82.2096 2.82249 82.2096 2.72518C82.2096 2.68462 82.2833 2.54676 82.4141 2.3278C82.5531 2.10884 82.6431 1.99531 82.6758 1.99531M39.8216 16.7306C39.8216 16.8198 39.6416 17.1766 39.29 17.6145C38.9301 18.1498 38.4885 18.5957 38.2186 18.8553C37.9487 19.0337 37.2372 19.2122 35.9859 19.5608C35.716 19.65 35.626 19.65 35.626 19.65C35.626 19.65 35.716 19.5608 35.806 19.4716C35.9859 19.2932 36.4276 19.0337 37.229 18.6769C37.8587 18.3201 38.3004 18.0605 38.3903 17.9714C38.4803 17.9714 38.4803 17.8821 38.4803 17.8821C38.4803 17.7037 37.8587 17.6145 36.6075 17.6145C36.6075 17.6145 36.3375 17.6145 35.896 17.7037C35.626 17.7037 35.5361 17.7037 35.5361 17.6145C35.5361 17.6145 35.5361 17.5335 35.626 17.4442L36.0759 16.6495C36.1658 16.4711 36.4276 16.2927 36.7874 16.2927C36.8773 16.2034 37.1472 16.2034 37.5889 16.2034C39.11 16.2034 39.8216 16.3818 39.8216 16.7306ZM21.5513 3.26852C21.5513 3.35773 21.3713 3.70645 21.0197 4.15248C20.6598 4.68772 20.2181 5.12563 19.9483 5.39326C19.6784 5.57167 18.9669 5.75008 17.7156 6.09879C17.4457 6.188 17.3557 6.188 17.3557 6.188C17.3557 6.188 17.4457 6.09879 17.5356 6.0177C17.7156 5.83929 18.1572 5.57167 18.9669 5.22295C19.5884 4.86613 20.0382 4.59851 20.1282 4.5093C20.21 4.5093 20.21 4.4201 20.21 4.4201C20.21 4.24168 19.5884 4.15248 18.3372 4.15248C18.3372 4.15248 18.0672 4.15248 17.6257 4.24168C17.3557 4.24168 17.2658 4.24168 17.2658 4.15248C17.2658 4.15248 17.2658 4.06327 17.3557 3.97407L17.8056 3.17932C17.8955 3.0009 18.1572 2.82249 18.5171 2.82249C18.607 2.73329 18.8769 2.73329 19.3186 2.73329C20.8397 2.73329 21.5513 2.9117 21.5513 3.26042M185.771 26.8676C185.739 26.7703 185.682 26.6892 185.608 26.6243C185.534 26.5513 185.46 26.5189 185.379 26.5189C185.265 26.5189 185.174 26.5351 185.109 26.5838C185.06 26.6162 185.044 26.6487 185.044 26.6892C185.207 26.8109 185.419 26.9163 185.665 26.9893C185.698 26.9893 185.723 27.0055 185.739 27.0055C185.771 27.0055 185.788 26.9893 185.788 26.9569C185.788 26.9325 185.788 26.9001 185.78 26.8676M186.18 26.8676C186.18 27.0785 186.148 27.265 186.082 27.4191C186.017 27.5732 185.943 27.6542 185.869 27.6542C185.477 27.6542 185.085 27.5002 184.692 27.2001C184.643 27.3218 184.512 27.7678 184.299 28.0921C183.449 29.3492 181.101 29.8357 179.712 30.1034C179.441 30.1601 179.171 30.1926 178.918 30.2169C179.179 30.1278 179.327 30.0304 179.588 29.9331C181.101 29.341 182.574 28.6598 183.947 27.8165C184.218 27.6462 184.43 27.2812 184.504 27.1434C184.528 27.0947 184.593 26.9569 184.7 26.7136C184.757 26.6 184.798 26.5351 184.839 26.5351C184.913 26.4054 185.002 26.2757 185.117 26.154C185.289 25.9836 185.452 25.9026 185.608 25.9026C185.804 25.9026 185.952 26.0243 186.057 26.2594C186.132 26.4378 186.172 26.6406 186.172 26.8595M45.7181 3.9984C45.7181 4.70393 45.5382 5.23106 45.1783 5.9366C44.6467 6.64214 44.1069 7.17738 43.3954 7.7045C43.0356 7.88291 42.8638 8.06133 42.8638 8.06133C42.8638 7.88291 43.0438 7.88291 43.2156 7.52609C44.4587 6.29343 44.9984 5.40947 44.9984 5.06075C44.9984 4.53363 44.8267 4.35522 44.4668 4.35522C44.2951 4.35522 44.1152 4.53363 43.9352 4.53363C43.7553 4.71205 43.5754 4.71205 43.5754 4.71205V4.36333C43.7553 3.47937 44.2951 2.95224 44.9984 2.95224C45.5382 2.95224 45.7181 3.30096 45.7181 4.18492V4.0065V3.9984ZM127.502 30.152C128.434 29.8276 133.201 28.003 134.248 27.6218H134.297V27.6786C134.248 27.784 133.954 28.1976 133.954 28.1976C133.078 28.522 128.31 30.3467 127.158 30.7846C127.158 30.6792 127.452 30.2655 127.502 30.152ZM177.103 8.10999C178.436 7.63963 185.257 5.02832 186.753 4.48497H186.835V4.56607C186.753 4.72015 186.336 5.31216 186.336 5.31216C185.085 5.78252 178.256 8.39383 176.603 9.01016C176.603 8.85608 177.02 8.26407 177.103 8.10999ZM57.0041 6.00148C58.3453 5.53922 65.166 2.92791 66.6627 2.37646H66.7445V2.45756C66.6627 2.61164 66.2457 3.20365 66.2457 3.20365C64.9862 3.67401 58.1654 6.28532 56.5134 6.90976C56.5134 6.75567 56.9306 6.16367 57.0041 6.00148ZM28.5436 15.952C30.5964 15.2303 41.1055 11.2079 43.4037 10.3726H43.5263V10.4942C43.4037 10.7375 42.7657 11.6458 42.7657 11.6458C40.8357 12.3676 30.3184 16.3899 27.7831 17.3469C27.7831 17.1035 28.421 16.1953 28.5519 15.952M78.8565 10.8186C79.2409 10.6807 80.0914 10.3645 81.1383 9.97521V9.70759C81.2446 9.48863 81.2446 9.26967 81.2446 9.05071C81.2446 8.16676 80.6885 7.2828 79.6825 6.28532C79.5762 6.28532 79.5762 6.17178 79.5762 6.17178L79.9115 5.62032C79.9115 5.50678 80.026 5.50678 80.026 5.62032C81.1383 6.39074 81.5799 7.38823 81.5799 8.60468C81.5799 9.04259 81.4736 9.3751 81.3591 9.82113C81.3264 9.85357 81.3019 9.89411 81.2773 9.92655C83.829 8.96151 87.4601 7.58286 88.4987 7.2017H88.5805V7.2828C88.4987 7.43688 88.0817 8.02889 88.0817 8.02889C86.8222 8.49925 80.0015 11.1106 78.3494 11.7269C78.3494 11.5728 78.7666 10.9808 78.8484 10.8267M122.733 3.3334C122.479 3.95784 122.291 4.31467 122.177 4.40387C118.905 5.53922 114.612 7.1125 109.37 9.34265C108.421 9.74814 107.988 10.1455 107.988 10.3158C107.988 10.4293 108.143 10.5591 108.446 10.7132C108.748 10.8673 109.23 11.0457 109.902 11.2727C110.016 11.3133 110.073 11.5566 110.073 12.0108C110.073 12.3918 110.057 12.6271 110.016 12.692C109.983 12.7569 109.844 12.7649 109.607 12.7163C108.078 12.4243 107.308 11.8972 107.308 11.1187C107.308 10.6889 107.513 10.1212 107.938 9.42375C108.266 8.88851 108.609 8.47492 108.969 8.18297V8.07755C109.068 7.87481 109.068 7.68017 109.068 7.47744C109.068 6.66647 108.56 5.86361 107.644 4.96344C107.546 4.96344 107.546 4.85801 107.546 4.85801L107.849 4.35522C107.849 4.2579 107.946 4.2579 107.946 4.35522C108.961 5.06075 109.37 5.96904 109.37 7.07195C109.37 7.41255 109.296 7.68017 109.214 8.00456C109.23 7.98834 109.256 7.97212 109.272 7.96401C109.68 7.7045 111.938 6.82866 116.035 5.3527C118.153 4.59039 120.28 3.8443 122.398 3.082C122.627 3.0009 122.765 2.96036 122.799 2.98468C122.823 3.02523 122.799 3.13877 122.725 3.32529M162.447 2.03585L164.36 3.24419L163.346 4.9229L161.375 3.71455L162.447 2.03585ZM119.822 27.3055L121.785 28.5382L120.746 30.2574L118.726 29.0248L119.83 27.3055H119.822ZM52.4243 9.69137L54.4034 10.9403L53.3485 12.6757L51.3121 11.4268L52.4243 9.69137ZM175.573 27.9705C175.516 27.8246 175.36 27.7516 175.107 27.7516C174.853 27.7516 174.469 28.003 173.97 28.4896C174.027 28.4977 174.085 28.5058 174.15 28.5058C174.42 28.5058 174.706 28.4409 175.025 28.3112C175.319 28.1895 175.508 28.076 175.581 27.9705M175.86 27.7435C175.86 28.1489 175.663 28.5058 175.254 28.814C174.845 29.1221 174.379 29.2762 173.863 29.2762C173.766 29.2762 173.643 29.26 173.496 29.2194C173.348 29.1789 173.243 29.1626 173.168 29.1626C172.613 29.1626 172.056 29.4222 171.492 29.9574C171.075 30.371 170.667 30.7846 170.249 31.19C169.995 31.3766 169.742 31.5063 169.496 31.5793C169.194 31.6686 169.014 31.7172 168.973 31.7172C168.965 31.7172 168.957 31.7172 168.957 31.7091C168.957 31.6928 169.071 31.6118 169.3 31.4739C169.521 31.3604 169.849 31.1333 170.298 30.7846C170.519 30.5656 170.837 30.225 171.255 29.7385C171.542 29.4059 171.852 29.114 172.171 28.8789C172.547 28.6031 172.883 28.449 173.193 28.4084C173.16 28.4084 173.349 28.4166 173.774 28.4166C174.027 28.1652 174.28 27.9219 174.535 27.6786C174.87 27.3867 175.147 27.2407 175.36 27.2407C175.696 27.2407 175.86 27.4109 175.86 27.7435ZM33.6714 7.25036C33.5979 6.95031 33.4833 6.59348 33.3034 6.17989C33.1153 5.72575 32.9845 5.49868 32.9027 5.49868C32.8455 5.49868 32.8127 5.5149 32.7963 5.55545C32.7801 5.58788 32.7309 5.61221 32.6574 5.61221C32.5674 5.61221 32.4529 5.54734 32.3139 5.41758C32.1666 5.28783 32.1012 5.19051 32.1012 5.10942C32.1012 5.07698 32.1585 4.95533 32.2811 4.7607C32.4038 4.56607 32.4774 4.46064 32.5101 4.46064C32.8046 4.46064 33.0581 4.63095 33.2953 4.97155C33.5242 5.31216 33.6878 5.75819 33.7778 6.30964C33.7859 6.36641 33.7941 6.39885 33.7941 6.40696C33.7941 6.42318 33.8105 6.42318 33.8105 6.40696C33.8105 6.39885 33.8268 6.3583 33.8514 6.30964C33.9005 5.97715 34.0149 5.49057 34.1949 4.83369C34.3912 4.37143 34.612 4.12815 34.841 4.12815C34.9636 4.12815 35.0782 4.20925 35.2008 4.37143C35.3071 4.5093 35.3644 4.62284 35.3644 4.71205C35.3644 4.77692 35.348 4.86613 35.3071 4.97155C35.2662 5.11752 35.2008 5.19051 35.1517 5.19051C35.1191 5.19051 35.0618 5.13375 34.98 5.02021C34.89 4.91478 34.8001 4.85801 34.7102 4.85801C34.4975 4.85801 34.3094 5.3446 34.1294 6.31776C34.0558 6.6908 33.974 6.99085 33.8677 7.21793C34.0313 7.23415 34.2521 7.34768 34.5138 7.56664C34.7837 7.77749 34.9309 7.96401 34.9473 8.11809C34.9473 8.15865 34.9146 8.27218 34.841 8.44248C34.7592 8.61279 34.7102 8.7101 34.6774 8.71821C34.4238 8.7912 34.1703 8.85608 33.9168 8.92907C33.5979 9.03449 33.377 9.15613 33.2544 9.294C33.606 10.3564 33.7859 11.3944 33.7859 12.4325C33.7859 12.7325 33.7532 13.0488 33.6878 13.3651C33.6551 13.4705 33.6388 13.5272 33.6305 13.5353C33.5979 13.5353 33.5815 13.3569 33.5815 12.992C33.5815 12.3918 33.4997 11.6701 33.3198 10.8348C33.1481 9.99143 33.0581 9.51296 33.0581 9.39131C33.0581 8.96961 33.1726 8.66956 33.4179 8.46681C33.5325 8.37761 33.7451 8.28029 34.064 8.19109C33.9331 8.06133 33.8105 7.99645 33.6878 7.99645C33.6305 7.99645 33.5487 8.06133 33.4507 8.19919C33.3443 8.33706 33.2871 8.40194 33.2707 8.40194C33.2462 8.40194 33.238 8.34517 33.2462 8.23163C33.3034 7.68829 33.4507 7.37201 33.696 7.26659M128.319 5.95282C127.812 7.20982 126.037 7.80183 124.892 8.24786C124.32 8.49114 124.205 8.41815 124.81 8.08566C125.195 7.90724 125.562 7.69639 125.922 7.47744C126.741 6.99085 127.411 6.53671 128.082 5.87173C128.082 5.52301 127.419 4.13625 127.378 4.13625C127.444 4.29845 127.093 4.56607 126.797 4.24168C126.544 3.96595 126.438 3.76322 126.544 3.39017C126.585 3.24419 126.929 2.81438 127.109 2.9117C127.321 3.02523 127.616 3.39017 127.73 3.60912C127.959 3.98217 128.13 4.77692 128.253 5.07698C128.327 4.61472 128.507 3.95784 128.605 3.51992C128.768 3.04957 129.006 2.70895 129.235 2.70895C129.979 2.70895 129.726 4.24168 129.627 4.24168C129.513 4.24168 129.464 3.51992 129.128 3.51992C128.965 3.55236 128.818 4.05515 128.671 4.60662C128.531 5.15808 128.466 5.75008 128.31 5.94471M120.468 9.4643C120.468 9.55351 120.288 9.91844 119.928 10.3645C119.569 10.8997 119.11 11.3538 118.84 11.6215C118.57 11.7999 117.843 11.9783 116.575 12.3432C116.305 12.4325 116.215 12.4325 116.215 12.4325C116.215 12.4325 116.305 12.3432 116.395 12.2541C116.575 12.0757 117.033 11.808 117.843 11.4431C118.48 11.0862 118.931 10.8105 119.02 10.7213C119.11 10.7213 119.11 10.6321 119.11 10.6321C119.11 10.4537 118.48 10.3645 117.205 10.3645C117.205 10.3645 116.934 10.3645 116.477 10.4537C116.207 10.4537 116.108 10.4537 116.108 10.3645C116.108 10.3645 116.108 10.2753 116.199 10.1861L116.648 9.3751C116.738 9.19669 117.009 9.01827 117.376 9.01827C117.467 8.92907 117.736 8.92907 118.186 8.92907C119.731 8.92907 120.452 9.10748 120.452 9.4643M156.877 3.88486C156.877 3.95784 156.731 4.2579 156.427 4.63095C156.125 5.07698 155.757 5.45002 155.528 5.67709C155.307 5.82307 154.702 5.97715 153.655 6.2691C153.426 6.34208 153.361 6.34208 153.361 6.34208C153.361 6.34208 153.434 6.2691 153.508 6.19611C153.655 6.05014 154.031 5.82306 154.702 5.52301C155.226 5.23106 155.601 5.00399 155.676 4.931C155.757 4.931 155.757 4.85801 155.757 4.85801C155.757 4.71205 155.234 4.63095 154.179 4.63095C154.179 4.63095 153.95 4.63095 153.582 4.70393C153.361 4.70393 153.288 4.70393 153.288 4.63095C153.288 4.63095 153.288 4.55795 153.361 4.48497L153.737 3.81187C153.811 3.66589 154.039 3.51181 154.334 3.51181C154.408 3.43883 154.637 3.43883 155.013 3.43883C156.289 3.43883 156.885 3.59291 156.885 3.88486M132.915 6.83677C132.915 6.30964 133.037 5.90416 133.275 5.37703C133.627 4.8418 133.995 4.44443 134.469 4.04705C134.706 3.9173 134.829 3.77943 134.829 3.77943C134.829 3.9173 134.706 3.9173 134.583 4.17681C133.75 5.10131 133.389 5.7663 133.389 6.03392C133.389 6.43128 133.503 6.56105 133.75 6.56105C133.872 6.56105 133.987 6.43128 134.109 6.43128C134.224 6.29343 134.346 6.29343 134.346 6.29343V6.56105C134.224 7.22603 133.864 7.62341 133.389 7.62341C133.029 7.62341 132.915 7.35579 132.915 6.6908V6.82056V6.83677ZM12.6696 16.536L13.0212 15.8953L13.8228 16.1548L13.4465 16.9414L12.6941 16.6737L12.3261 17.282L11.4919 16.9739L11.9008 16.2197L12.6778 16.5278L12.6696 16.536ZM12.9886 15.141L12.3261 14.8329L11.8354 15.5546L12.4651 15.8953L12.9886 15.1492V15.141ZM7.00203 16.8846C6.7894 16.4467 6.64218 16.1872 6.56858 16.0574C6.38866 15.725 6.22509 15.4573 6.05335 15.2464L6.02882 15.3033C6.01246 15.4736 6.05335 15.806 6.11877 16.3088C6.16784 16.6576 6.21691 16.9576 6.26599 17.3144L7.00203 16.8846ZM6.50316 19.4392C6.84665 19.0985 7.20649 18.7823 7.57452 18.4822C7.45183 18.0687 7.29645 17.6226 7.10018 17.1523L6.29052 17.6388C6.29052 17.8659 6.33959 18.1984 6.38048 18.4985C6.42137 18.8229 6.44591 19.1148 6.49498 19.4473M3.99242 25.6998C4.00878 25.5296 4.04149 25.343 4.08238 25.1646C4.19688 24.6942 4.39316 24.2401 4.6794 23.786C4.65487 23.4211 4.6794 23.0399 4.72029 22.6587C4.8675 21.5152 5.47269 20.5502 6.2578 19.6987L5.9961 17.8416C5.0556 18.4498 4.06602 19.1148 3.2809 19.942C2.07052 21.2152 1.15455 23.4211 2.47943 24.9781C2.85563 25.4241 3.38723 25.6998 3.98424 25.708M5.15374 25.416C5.1292 25.3754 5.09649 25.3268 5.08014 25.2782C4.97381 25.0835 4.89203 24.8889 4.82661 24.678C4.65487 24.9781 4.51583 25.3024 4.40951 25.6431C4.40951 25.6512 4.40951 25.6593 4.40133 25.6674C4.65487 25.6187 4.90839 25.5296 5.15374 25.4079M7.96707 21.2801C7.96707 21.2801 7.90165 21.3368 7.86075 21.3612C7.33734 21.8072 6.863 22.2452 6.44591 22.675C6.08606 23.048 5.72622 23.4292 5.39908 23.8427C5.53812 24.1671 5.73439 24.4996 5.9961 24.7835C6.01246 24.7996 6.02882 24.8159 6.04517 24.8321C7.05928 23.9968 7.87711 22.7074 7.9589 21.6207C7.96707 21.5072 7.97525 21.4017 7.97525 21.2801M8.38417 19.9906C8.5968 19.8204 8.81762 19.642 9.05478 19.4554C9.03025 19.4229 9.01389 19.3418 9.01389 19.2283C9.01389 19.1634 9.08749 18.8796 9.24289 18.3768C9.6518 18.3768 9.99529 18.2552 10.2815 18.0281C10.4533 17.8903 10.625 17.6712 10.8049 17.3793C10.9521 17.1442 11.0585 17.0306 11.1239 17.0306C11.0094 17.9145 10.6087 18.7417 9.93804 19.5041C9.70087 19.7717 9.18564 20.242 8.40052 20.9233C8.35146 22.2938 7.99161 23.7697 7.34552 24.751C7.20649 24.9781 7.04292 25.1889 6.863 25.3998C7.62358 25.7242 8.51502 25.6755 9.23471 25.3106C10.028 24.9132 10.625 24.1347 10.625 23.0804C10.625 22.5614 10.4942 22.1559 10.2325 21.8721C10.1098 21.7342 9.96257 21.6126 9.79901 21.5072C9.77447 21.4909 9.7663 21.4666 9.77447 21.4423C9.85625 21.1909 9.99529 20.8421 10.1997 20.4042C10.4696 20.5258 10.7313 20.7772 10.9685 21.1584C11.0666 21.1989 11.1648 21.2152 11.2629 21.2152C11.5246 21.2152 11.8026 21.1179 12.0971 20.9314C12.3915 20.7449 12.5878 20.5258 12.6778 20.2826C12.7677 20.0393 12.8168 19.7311 12.8414 19.3824C12.8904 19.2851 12.9394 19.2283 12.9967 19.2122L13.0212 19.2364C13.0949 18.9608 13.1194 19.7392 13.0867 20.1447L13.0295 20.1853C13.1766 20.1853 13.3321 20.0393 13.4956 19.7555C13.6347 19.5283 13.7165 19.3094 13.7655 19.1148C13.7655 18.8796 13.8145 18.4985 13.8963 17.9875C13.9209 17.8903 13.9618 17.8416 14.0108 17.8416C14.0353 17.8416 14.0517 17.8496 14.0599 17.8578C14.0845 17.9065 14.1007 18.1417 14.1007 18.5633C14.1007 19.942 13.741 20.8746 13.0212 21.3693C12.8577 21.4828 12.7105 21.5396 12.5633 21.5396C12.4651 21.7505 12.2852 21.9289 12.0317 22.091C11.7781 22.2452 11.541 22.3262 11.3202 22.3262C11.2302 22.3262 11.1566 22.31 11.1239 22.2857C11.0666 23.8102 10.9113 25.4079 9.64362 26.3486C8.55591 27.1595 7.04292 27.1758 5.95521 26.2918C5.52176 26.6 5.06378 26.8109 4.59761 26.8839C4.52401 26.892 4.45858 26.9001 4.39316 26.9081C4.80207 28.5382 7.28009 29.0491 8.80944 29.0166C10.028 28.9924 10.0198 29.0815 8.7849 29.2194C6.82211 29.4384 4.63033 28.7005 4.12327 26.9163C3.10099 26.892 2.34858 26.2675 1.89878 25.4403C1.32629 24.3861 1.35083 22.9831 1.74339 21.791C2.02963 20.9151 2.50397 20.1934 3.08463 19.5932C3.90246 18.758 4.95745 18.1254 5.95521 17.4928C5.82435 16.2846 5.46452 14.4112 5.5463 13.1299C5.64443 13.2516 5.95521 13.657 6.05335 13.7868C6.64218 14.5977 7.1656 15.5385 7.61541 16.6251C8.49048 16.1385 9.52912 15.4978 10.7395 14.695C11.3283 14.3058 11.541 14.3138 10.8622 14.7924C9.80719 15.5466 8.75219 16.2358 7.69719 16.8684C7.84439 17.2658 7.9589 17.6956 8.07339 18.1335C8.58862 17.7361 9.10385 17.3631 9.56184 17.0063C11.9908 15.1329 12.6206 14.7924 9.26742 17.6712C8.94029 17.9551 8.55591 18.2471 8.17153 18.5633C8.2206 18.7823 8.26149 19.0094 8.31874 19.2445C8.36781 19.4878 8.40052 19.7474 8.42506 20.015M5.21916 22.902C5.21916 22.9588 5.21916 23.0155 5.23552 23.0885C5.49723 22.756 5.808 22.4073 6.15966 22.0424C6.59311 21.5882 7.19831 21.0449 7.96707 20.3961C7.94254 20.1528 7.90983 19.8934 7.86075 19.6176C7.81986 19.3987 7.77897 19.1715 7.71354 18.9364C7.32916 19.2608 6.94478 19.6013 6.60129 19.9663C6.634 20.242 6.66673 20.5907 6.66673 20.834C6.68308 21.2801 6.53587 21.4666 6.43773 20.7854L6.36413 20.2258C5.6935 21.0044 5.20281 21.8802 5.21099 22.902M176.8 19.8528C176.8 19.8528 176.808 19.8041 176.808 19.7879C176.808 19.4554 176.423 18.9931 175.655 18.3849C174.772 17.6956 173.889 17.3469 173.014 17.3469C171.165 17.3469 169.251 19.2445 167.264 23.0399C167.795 23.2427 168.433 23.3562 169.186 23.3562C170.617 23.3562 172.188 22.9182 173.872 22.0586C175.377 21.2882 176.35 20.5502 176.792 19.8609" fill="black"/>
<path d="M4.49114 45.6735V47.4739H5.75878C6.24947 47.4739 6.56843 47.4576 6.69928 47.4334C6.90374 47.3927 7.0673 47.3036 7.19816 47.1657C7.32901 47.0197 7.39444 46.8332 7.39444 46.5899C7.39444 46.3871 7.34537 46.2169 7.24723 46.079C7.14909 45.9331 7.00188 45.8276 6.82196 45.7708C6.63385 45.7059 6.23312 45.6735 5.60339 45.6735H4.49114ZM4.49114 42.9973V44.5544H5.39075C5.93053 44.5544 6.25765 44.5544 6.38851 44.53C6.62568 44.5058 6.8056 44.4246 6.94463 44.2867C7.08366 44.1489 7.14909 43.9786 7.14909 43.7597C7.14909 43.5406 7.09184 43.3785 6.97734 43.2487C6.86285 43.119 6.6911 43.0378 6.46211 43.0136C6.32309 42.9973 5.93871 42.9892 5.28444 42.9892H4.49932L4.49114 42.9973ZM3.11719 41.8782H5.83238C6.37215 41.8782 6.77289 41.9026 7.03459 41.9431C7.2963 41.9917 7.54165 42.081 7.7461 42.2188C7.95875 42.3648 8.13049 42.5513 8.26951 42.7864C8.40855 43.0217 8.47398 43.2811 8.47398 43.5731C8.47398 43.8894 8.3922 44.1813 8.21227 44.4409C8.04053 44.7004 7.81153 44.9031 7.51711 45.0328C7.9342 45.1545 8.25316 45.3572 8.47398 45.641C8.69478 45.9249 8.80929 46.2655 8.80929 46.6548C8.80929 46.9629 8.73567 47.263 8.58847 47.5469C8.44944 47.8388 8.25316 48.0658 7.99964 48.2442C7.75428 48.4146 7.44351 48.5281 7.07548 48.5605C6.84649 48.5849 6.29854 48.6011 5.42347 48.6093H3.12537V41.8701L3.11719 41.8782Z" fill="black"/>
<path d="M13.5771 45.9412L12.6449 43.4434L11.7288 45.9412H13.5854H13.5771ZM16.1043 48.6093H14.6076L14.0107 47.0765H11.2954L10.7311 48.6093H9.27539L11.917 41.8701H13.3645L16.0879 48.6093H16.1043Z" fill="black"/>
<path d="M16.8403 48.6093V41.8701H18.1734L20.9622 46.371V41.8701H22.2298V48.6093H20.8559L18.1161 44.2137V48.6093H16.8403Z" fill="black"/>
<path d="M23.7021 48.6093V41.8701H25.0761V44.8626L27.8485 41.8701H29.6887L27.1289 44.4976L29.8277 48.6093H28.053L26.1884 45.4464L25.0761 46.5737V48.6093H23.7021Z" fill="black"/>
<path d="M34.3094 45.2359C34.3094 45.9982 34.4894 46.5741 34.8411 46.9714C35.1927 47.3688 35.6507 47.5634 36.1986 47.5634C36.7466 47.5634 37.1964 47.3688 37.5481 46.9795C37.8997 46.5902 38.0714 46.0064 38.0714 45.2198C38.0714 44.4331 37.8997 43.8735 37.5644 43.4923C37.221 43.1112 36.7711 42.9247 36.2069 42.9247C35.6425 42.9247 35.1845 43.1193 34.8411 43.5004C34.4976 43.8897 34.3258 44.4655 34.3258 45.2359M32.911 45.2845C32.911 44.6033 33.0173 44.0195 33.2218 43.5572C33.3772 43.2085 33.5898 42.9085 33.8515 42.6327C34.1213 42.357 34.4076 42.1543 34.7266 42.0245C35.1436 41.8461 35.6344 41.7568 36.1905 41.7568C37.1882 41.7568 37.9897 42.065 38.5949 42.6813C39.1919 43.2978 39.4945 44.1574 39.4945 45.2521C39.4945 46.3469 39.1919 47.1904 38.6031 47.8067C38.006 48.423 37.2046 48.7312 36.215 48.7312C35.2255 48.7312 34.3994 48.423 33.8025 47.8148C33.2054 47.2066 32.9028 46.3632 32.9028 45.2927" fill="black"/>
<path d="M40.5659 48.6093V41.8701H45.2275V43.0136H41.9399V44.603H44.7777V45.7465H41.9399V48.6093H40.5659Z" fill="black"/>
<path d="M53.34 46.1361L54.6731 46.5497C54.4686 47.2877 54.1333 47.831 53.659 48.1879C53.1846 48.5447 52.5876 48.7231 51.8515 48.7231C50.952 48.7231 50.2077 48.4149 49.6271 47.8067C49.0464 47.1985 48.752 46.3632 48.752 45.3008C48.752 44.1735 49.0382 43.3058 49.6271 42.6813C50.2158 42.065 50.9765 41.7568 51.9333 41.7568C52.7675 41.7568 53.4381 42.0001 53.9616 42.4868C54.2723 42.7787 54.5013 43.1923 54.6567 43.7276L53.2991 44.0519C53.2173 43.7032 53.0537 43.4274 52.792 43.2248C52.5385 43.022 52.2277 42.9247 51.8679 42.9247C51.3609 42.9247 50.952 43.1031 50.6411 43.4599C50.3304 43.8167 50.1668 44.4007 50.1668 45.2035C50.1668 46.055 50.3222 46.6632 50.633 47.0201C50.9437 47.385 51.3445 47.5634 51.8352 47.5634C52.195 47.5634 52.5139 47.4499 52.7756 47.2228C53.0374 46.9876 53.2254 46.6308 53.34 46.1361Z" fill="black"/>
<path d="M56.9873 45.2359C56.9873 45.9982 57.1673 46.5741 57.519 46.9714C57.8707 47.3688 58.3286 47.5634 58.8765 47.5634C59.4245 47.5634 59.8743 47.3688 60.226 46.9795C60.5777 46.5902 60.7494 46.0064 60.7494 45.2198C60.7494 44.4331 60.5777 43.8735 60.2423 43.4923C59.907 43.1112 59.449 42.9247 58.8848 42.9247C58.3205 42.9247 57.8624 43.1193 57.519 43.5004C57.1755 43.8897 57.0037 44.4655 57.0037 45.2359M55.5889 45.2845C55.5889 44.6033 55.6952 44.0195 55.8997 43.5572C56.0551 43.2085 56.2677 42.9085 56.5294 42.6327C56.7993 42.357 57.0855 42.1543 57.4045 42.0245C57.8298 41.8461 58.3204 41.7568 58.8684 41.7568C59.8661 41.7568 60.6676 42.065 61.2728 42.6813C61.878 43.2978 62.1724 44.1574 62.1724 45.2521C62.1724 46.3469 61.878 47.1904 61.2809 47.8067C60.684 48.423 59.8825 48.7312 58.8929 48.7312C57.9033 48.7312 57.0774 48.423 56.4803 47.8148C55.8833 47.2066 55.5889 46.3632 55.5889 45.2927" fill="black"/>
<path d="M63.2109 48.6093V41.8701H65.2637L66.4986 46.4683L67.7172 41.8701H69.7781V48.6093H68.5024V43.3055L67.1529 48.6093H65.828L64.4868 43.3055V48.6093H63.2109Z" fill="black"/>
<path d="M71.1201 48.6093V41.8701H73.1728L74.4078 46.4683L75.6264 41.8701H77.6873V48.6093H76.4114V43.3055L75.062 48.6093H73.7372L72.3959 43.3055V48.6093H71.1201Z" fill="black"/>
<path d="M79.0444 48.6093V41.8701H84.0822V43.0136H80.4183V44.5058H83.8287V45.641H80.4183V47.4739H84.213V48.6093H79.0444Z" fill="black"/>
<path d="M86.7563 44.7247H87.7622C88.4247 44.7247 88.8336 44.7004 88.9972 44.6435C89.1607 44.5868 89.2916 44.4895 89.3816 44.3597C89.4715 44.2219 89.5206 44.0516 89.5206 43.8488C89.5206 43.6218 89.4634 43.4434 89.3407 43.2974C89.218 43.1595 89.0462 43.0703 88.8255 43.0297C88.7109 43.0136 88.3756 43.0054 87.8276 43.0054H86.7563V44.7165V44.7247ZM85.3823 48.6093V41.8701H88.2693C88.9972 41.8701 89.5206 41.9268 89.8559 42.0485C90.183 42.1701 90.4447 42.381 90.6492 42.6973C90.8455 43.0136 90.9436 43.3622 90.9436 43.7597C90.9436 44.2625 90.7964 44.6842 90.4939 45.0086C90.1912 45.341 89.7414 45.5438 89.1526 45.633C89.447 45.8033 89.6923 45.9898 89.8886 46.2006C90.0767 46.4034 90.3384 46.7683 90.6656 47.2955L91.4916 48.6093H89.8559L88.8664 47.1413C88.5146 46.6143 88.2775 46.2899 88.1385 46.152C88.0076 46.0141 87.8685 45.9249 87.7296 45.8682C87.5823 45.8194 87.3533 45.7952 87.0426 45.7952H86.7645V48.6093H85.3906H85.3823Z" fill="black"/>
<path d="M96.5785 46.1361L97.9034 46.5497C97.6989 47.2877 97.3636 47.831 96.881 48.1879C96.4067 48.5447 95.8097 48.7231 95.0737 48.7231C94.174 48.7231 93.4298 48.4149 92.8491 47.8067C92.2685 47.1985 91.9741 46.3632 91.9741 45.3008C91.9741 44.1735 92.2685 43.3058 92.8491 42.6813C93.438 42.065 94.1986 41.7568 95.1555 41.7568C95.9897 41.7568 96.6603 42.0001 97.1836 42.4868C97.4945 42.7787 97.7234 43.1923 97.8788 43.7276L96.5212 44.0519C96.4395 43.7032 96.2759 43.4274 96.0223 43.2248C95.7688 43.022 95.458 42.9247 95.09 42.9247C94.5829 42.9247 94.174 43.1031 93.8633 43.4599C93.5525 43.8167 93.3889 44.4007 93.3889 45.2035C93.3889 46.055 93.5443 46.6632 93.8551 47.0201C94.1659 47.385 94.5666 47.5634 95.0573 47.5634C95.4253 47.5634 95.7361 47.4499 95.9978 47.2228C96.2595 46.9876 96.4476 46.6308 96.5621 46.1361" fill="black"/>
<path d="M99.0894 48.6093V41.8701H104.128V43.0136H100.455V44.5058H103.873V45.641H100.455V47.4739H104.25V48.6093H99.0894Z" fill="black"/>
<path d="M110.522 44.1252L110.874 43.8576C111.136 43.6549 111.267 43.4602 111.267 43.2656C111.267 43.1034 111.209 42.9574 111.079 42.8439C110.956 42.7304 110.784 42.6655 110.571 42.6655C110.359 42.6655 110.204 42.7223 110.081 42.8196C109.967 42.9169 109.901 43.0385 109.901 43.1764C109.901 43.3386 109.999 43.5332 110.196 43.7603L110.514 44.1333L110.522 44.1252ZM110.016 45.5282C109.721 45.6822 109.492 45.8608 109.345 46.0715C109.198 46.2824 109.124 46.4932 109.124 46.7204C109.124 47.0042 109.214 47.2232 109.402 47.4016C109.59 47.58 109.836 47.6691 110.146 47.6691C110.35 47.6691 110.547 47.6286 110.735 47.5475C110.923 47.4665 111.128 47.3367 111.357 47.1502L110.032 45.5282H110.016ZM114.072 47.7908L113.287 48.7883C112.902 48.6017 112.527 48.3422 112.175 48.0179C111.897 48.2612 111.61 48.4477 111.3 48.5612C110.988 48.6829 110.621 48.7396 110.196 48.7396C109.345 48.7396 108.715 48.5045 108.29 48.034C107.962 47.6691 107.791 47.2474 107.791 46.7771C107.791 46.3473 107.922 45.958 108.183 45.6093C108.446 45.2687 108.829 44.9686 109.345 44.7091C109.116 44.4334 108.944 44.1739 108.821 43.9306C108.699 43.6874 108.641 43.4521 108.641 43.2332C108.641 42.8276 108.805 42.479 109.133 42.1952C109.459 41.9113 109.925 41.7734 110.539 41.7734C111.152 41.7734 111.586 41.9194 111.921 42.2194C112.248 42.5195 112.42 42.8764 112.42 43.3062C112.42 43.5819 112.338 43.8333 112.175 44.0847C112.011 44.328 111.676 44.6037 111.185 44.92L112.134 46.1527C112.24 45.958 112.338 45.6985 112.42 45.3822L113.598 45.6499C113.483 46.0634 113.376 46.3635 113.287 46.5581C113.205 46.7527 113.107 46.9069 113.009 47.0366C113.155 47.1744 113.344 47.3204 113.573 47.4826C113.802 47.6448 113.974 47.7502 114.08 47.807" fill="black"/>
<path d="M118.913 43.0144V47.4747H119.936C120.32 47.4747 120.598 47.4504 120.762 47.4098C120.983 47.353 121.171 47.2639 121.318 47.126C121.465 46.9962 121.58 46.7773 121.677 46.4773C121.768 46.1771 121.817 45.7636 121.817 45.2445C121.817 44.7256 121.768 44.3282 121.677 44.0444C121.58 43.7686 121.457 43.5497 121.285 43.3955C121.114 43.2334 120.909 43.136 120.647 43.0793C120.46 43.0387 120.083 43.0144 119.518 43.0144H118.905H118.913ZM117.54 41.871H120.051C120.614 41.871 121.048 41.9115 121.343 42.0007C121.744 42.1142 122.086 42.325 122.364 42.6171C122.651 42.9171 122.872 43.2739 123.019 43.7118C123.166 44.1416 123.24 44.6769 123.24 45.3013C123.24 45.8528 123.174 46.3313 123.036 46.7367C122.864 47.2233 122.627 47.6207 122.307 47.9207C122.07 48.1559 121.752 48.3344 121.343 48.456C121.04 48.5533 120.631 48.6019 120.124 48.6019H117.54V41.8628V41.871Z" fill="black"/>
<path d="M124.401 48.6093V41.8701H129.44V43.0136H125.776V44.5058H129.185V45.641H125.776V47.4739H129.57V48.6093H124.401Z" fill="black"/>
<path d="M132.465 48.6093L130.036 41.8701H131.524L133.25 46.8575L134.91 41.8701H136.366L133.928 48.6093H132.465Z" fill="black"/>
<path d="M137.061 48.6093V41.8701H142.098V43.0136H138.435V44.5058H141.845V45.641H138.435V47.4739H142.23V48.6093H137.061Z" fill="black"/>
<path d="M143.433 48.6097V41.9272H144.806V47.4743H148.217V48.6097H143.433Z" fill="black"/>
<path d="M150.326 45.2359C150.326 45.9982 150.497 46.5741 150.857 46.9714C151.218 47.3688 151.667 47.5634 152.207 47.5634C152.747 47.5634 153.205 47.3688 153.557 46.9795C153.908 46.5902 154.08 46.0064 154.08 45.2198C154.08 44.4331 153.908 43.8735 153.565 43.4923C153.221 43.1112 152.771 42.9247 152.207 42.9247C151.643 42.9247 151.185 43.1193 150.841 43.5004C150.497 43.8897 150.326 44.4655 150.326 45.2359ZM148.911 45.2845C148.911 44.6033 149.017 44.0195 149.221 43.5572C149.377 43.2085 149.59 42.9085 149.851 42.6327C150.122 42.357 150.408 42.1543 150.726 42.0245C151.152 41.8461 151.635 41.7568 152.19 41.7568C153.197 41.7568 153.99 42.065 154.595 42.6813C155.192 43.2978 155.495 44.1574 155.495 45.2521C155.495 46.3469 155.2 47.1904 154.604 47.8067C154.006 48.423 153.205 48.7312 152.215 48.7312C151.226 48.7312 150.4 48.423 149.802 47.8148C149.205 47.2066 148.911 46.3632 148.911 45.2927" fill="black"/>
<path d="M157.948 43.0136V44.9274H158.701C159.24 44.9274 159.601 44.8869 159.781 44.822C159.96 44.7572 160.107 44.6435 160.206 44.4895C160.312 44.3435 160.361 44.1651 160.361 43.9705C160.361 43.7272 160.296 43.5244 160.148 43.3623C160.001 43.2001 159.821 43.1027 159.592 43.0622C159.429 43.0297 159.101 43.0136 158.602 43.0136H157.94H157.948ZM156.575 48.6093V41.8701H158.774C159.609 41.8701 160.156 41.9026 160.41 41.9674C160.802 42.0647 161.13 42.2918 161.391 42.6243C161.653 42.9649 161.784 43.4028 161.784 43.9381C161.784 44.3516 161.711 44.7004 161.555 44.9842C161.399 45.268 161.211 45.487 160.982 45.6492C160.745 45.8114 160.508 45.9168 160.271 45.9736C159.943 46.0384 159.469 46.0708 158.848 46.0708H157.956V48.6093H156.583H156.575Z" fill="black"/>
<path d="M162.888 48.6093V41.8701H164.941L166.176 46.4683L167.394 41.8701H169.455V48.6093H168.179V43.3055L166.83 48.6093H165.505L164.164 43.3055V48.6093H162.888Z" fill="black"/>
<path d="M170.813 48.6093V41.8701H175.86V43.0136H172.188V44.5058H175.598V45.641H172.188V47.4739H175.982V48.6093H170.813Z" fill="black"/>
<path d="M177.16 48.6093V41.8701H178.493L181.273 46.371V41.8701H182.549V48.6093H181.174L178.436 44.2137V48.6093H177.16Z" fill="black"/>
<path d="M185.534 48.6093V43.0136H183.513V41.8701H188.911V43.0136H186.907V48.6093H185.534Z" fill="black"/>
</g>
</svg>
