<svg width="81" height="50" viewBox="0 0 81 50" fill="none" xmlns="http://www.w3.org/2000/svg">
<path d="M4.56055 6.55788C6.23259 6.51613 8.77304 7.07982 10.2893 7.76078C11.9802 8.52017 12.7426 9.07757 14.704 9.14561C17.097 9.22863 18.3198 8.15258 20.4409 7.40208C22.0787 6.82255 23.4928 6.64757 25.2007 6.54736L25.203 7.77914C24.8719 7.70513 24.4231 7.67768 24.0841 7.67617C22.2357 7.67658 20.4641 8.41859 19.1624 9.73749C18.217 10.6979 17.5736 11.9166 17.3122 13.2418C17.123 14.1616 17.1656 15.3235 17.1657 16.2769L17.1661 19.7398L17.1656 32.7615C17.2044 35.1907 17.1356 37.6692 17.166 40.1019C17.179 41.1332 17.1264 42.3485 17.1881 43.3579C16.6206 42.8404 16.0082 42.1901 15.4625 41.6365L12.6196 38.7489C12.5724 38.2997 12.6039 37.226 12.6042 36.7078L12.6053 32.6214L12.6061 19.1977L12.6073 16.111C12.6073 15.1175 12.652 14.1106 12.4461 13.1373C12.0599 11.3489 10.9861 9.78631 9.45875 8.79008C8.08039 7.89104 6.20216 7.43823 4.58261 7.78446C4.5856 7.38608 4.59841 6.95119 4.56055 6.55788Z" fill="#1A61AE"/>
<path d="M23.5527 8.88268C23.8553 8.83329 24.5044 8.86615 24.8174 8.90819C26.3275 9.11238 27.695 9.91109 28.6192 11.1286C31.3104 14.6787 29.0612 19.8885 24.6476 20.3076C24.0145 20.3676 23.5423 20.324 22.9147 20.2314C22.8979 19.4852 22.9132 18.6252 22.9235 17.8787C23.2352 17.986 23.5607 18.0468 23.8899 18.0592C27.0111 18.1988 28.6941 14.4119 26.535 12.1904C25.9028 11.5304 25.0356 11.1497 24.1241 11.1321C23.1996 11.1186 22.308 11.4772 21.6479 12.1281C20.5068 13.2638 20.6266 14.3037 20.6244 15.7485L20.623 19.1213L20.6226 31.1767L20.6179 49.1602C19.9236 48.4636 18.9662 47.5542 18.3337 46.8365L18.3361 23.8348L18.3345 17.371C18.3339 16.3405 18.2974 15.2693 18.3591 14.2435C18.5363 11.2969 20.7057 9.20925 23.5527 8.88268Z" fill="#1A61AE"/>
<path d="M59.2307 20.2326C59.6741 19.7602 60.294 19.2254 60.9617 19.176C62.0536 19.0953 63.2131 19.205 64.3035 19.1537C65.9984 19.0739 67.7172 19.9662 67.9585 21.8063C68.1121 22.9788 67.7419 25.0688 69.3443 25.4229C69.8192 25.5315 70.3179 25.4366 70.7204 25.1609C71.812 24.4283 71.3848 22.8193 71.5953 21.7905C71.774 20.9271 72.286 20.1701 73.0187 19.6849C74.4684 18.738 76.9324 18.9889 77.9076 20.5111C78.4031 21.2984 78.5659 22.2515 78.3606 23.1598C78.1695 24.0413 77.6291 24.8064 76.8645 25.279C75.2269 26.3021 72.9997 25.8838 71.9607 24.194C71.108 26.3979 68.1913 26.2931 67.5604 24.1029C66.3698 25.8514 65.4448 25.8176 63.5607 25.8159L61.1649 25.8126L53.4014 25.8128L44.3087 25.8114L41.6172 25.8146C40.4108 25.8197 39.1329 26.0017 38.2782 24.952C38.2373 26.5211 37.5118 27.0633 36.1895 27.6797C36.9625 26.9985 37.3592 26.6474 37.4321 25.5592C37.5529 23.7559 37.465 21.94 37.4882 20.1328C37.4925 19.8027 37.5086 19.5453 37.2646 19.3067C37.3823 19.1785 37.4196 19.2037 37.6288 19.194C37.7967 19.1862 38.3772 19.1703 38.494 19.2445L38.5308 19.2999C38.3659 19.4321 38.3121 19.5092 38.3012 19.7323C38.2628 20.3325 38.2976 20.9566 38.2976 21.5559C38.2976 22.8763 38.0126 25.3645 39.9343 25.4643C41.4713 25.5442 43.0983 25.4439 44.6514 25.458L58.4524 25.4791C58.4608 24.1991 58.4625 22.919 58.4576 21.639C58.4548 20.9773 58.4685 20.2986 58.3962 19.6419C58.3808 19.5007 58.2935 19.3945 58.1937 19.3019C58.2515 19.2212 58.2313 19.2172 58.3222 19.205C58.538 19.176 59.2554 19.1474 59.4263 19.2391L59.4546 19.3091C59.2194 19.6145 59.2542 19.8408 59.2307 20.2326ZM59.238 25.4765C60.4011 25.4781 64.6963 25.6025 65.4706 25.3345C66.148 25.0573 66.5679 24.659 66.8726 23.9538C67.5249 22.4432 66.9312 19.6468 64.9836 19.5162C64.3625 19.4746 63.6734 19.5138 63.0446 19.5019C62.3438 19.5158 61.5331 19.478 60.8477 19.516C59.5714 19.8302 59.2546 21.0349 59.2388 22.2144C59.2243 23.2965 59.2671 24.3974 59.238 25.4765ZM75.4674 25.4594C77.2787 25.219 77.7003 23.4594 77.4933 21.9014C77.2893 20.3672 76.1423 19.2652 74.5569 19.4801C72.7455 19.7446 72.2634 21.2875 72.4768 22.9081C72.6857 24.4987 73.8585 25.5547 75.4674 25.4594Z" fill="black"/>
<path d="M5.18134 8.88274C5.29014 8.86515 5.64622 8.85959 5.76262 8.85987C7.27385 8.86861 8.71982 9.48011 9.78258 10.56C10.5755 11.3562 11.114 12.3721 11.3293 13.4776C11.4875 14.2969 11.446 15.5903 11.4451 16.4661L11.4443 20.4234L11.4424 35.2209C10.7008 34.508 9.87202 33.6615 9.16558 32.9116C9.12832 31.3183 9.16106 29.5736 9.16098 27.9684V18.393C9.15742 17.3574 9.25191 14.4658 9.02106 13.6494C8.7726 12.7526 8.17229 11.9958 7.35779 11.5526C6.55913 11.1142 5.61882 11.0166 4.74783 11.2814C3.85803 11.5424 3.1111 12.1539 2.67694 12.977C2.24819 13.7971 2.15887 14.7541 2.42839 15.6399C2.70353 16.525 3.32069 17.2621 4.14142 17.6858C5.00627 18.1337 5.95293 18.1671 6.86551 17.8672C6.8601 18.6584 6.8586 19.4496 6.86107 20.2408C6.82566 20.247 6.79006 20.2524 6.75437 20.2568C5.06035 20.4756 3.56378 20.2027 2.18668 19.1266C1.01314 18.204 0.246046 16.8559 0.0498688 15.3715C-0.366754 12.0074 1.86919 9.29388 5.18134 8.88274Z" fill="#1A61AE"/>
<path d="M24.878 29.0775C25.5127 29.0666 26.12 29.0548 26.7535 29.1276C26.5586 29.169 26.1619 29.1931 26.0381 29.3577C25.8256 29.6405 25.9363 33.1548 25.9219 33.7759C26.2379 33.4628 26.6841 33.0206 27.0962 32.8793C28.0036 32.568 29.3703 32.7556 30.3022 32.7156C31.5657 32.6615 32.8713 32.7044 33.8013 33.6607C35.3661 35.0267 33.9261 37.5841 35.6177 38.7413C36.5814 39.4006 37.9034 38.6732 38.0828 37.6029C38.3015 36.2992 38.1503 34.8704 38.1952 33.5526C38.2316 32.4914 37.6077 32.9993 37.4588 32.7107C37.8807 32.7588 38.8568 32.6381 39.1312 32.7561L39.1635 32.8372C39.0511 32.9711 39.0119 33.0727 38.9934 33.2478C38.9348 33.8005 38.9845 34.3884 38.9893 34.9444C38.9986 36.0232 38.8236 37.6053 39.5579 38.4919C39.8138 38.8007 40.1633 38.9655 40.5598 38.9954C40.9821 39.0273 41.4105 38.9272 41.7318 38.6395C42.2604 38.1664 42.3922 37.3635 42.4326 36.6863C42.4649 36.1467 42.5308 33.2021 42.321 32.9434C42.1715 32.7589 41.8599 32.8832 41.7096 32.713C42.121 32.7536 43.1495 32.6438 43.4126 32.7552L43.4441 32.8287C43.1503 33.1712 43.2413 34.416 43.251 34.8855C43.2716 35.891 43.0493 37.5588 43.721 38.375C44.0188 38.7333 44.4472 38.9571 44.9103 38.9965C45.3197 39.0317 45.7255 38.8983 46.0351 38.6269C47.0167 37.7555 46.672 35.5952 46.7379 34.39C46.7662 33.8759 46.7961 33.2016 46.4432 32.8067L46.4873 32.7429C46.7043 32.7129 47.5732 32.6749 47.7446 32.7626L47.783 32.8293C47.6936 32.9059 47.5704 33.0215 47.5619 33.1529C47.3946 35.6923 48.3952 39.9543 44.2916 39.2631C43.6276 39.1512 43.1891 38.7095 42.846 38.1578C41.8066 39.7155 39.5854 39.745 38.5953 38.1589C37.5329 39.899 34.8661 39.6857 34.2341 37.6315C33.7744 38.3277 33.2545 38.8603 32.4561 39.1561C32.0156 39.3193 31.5399 39.3335 31.0777 39.334C29.8839 39.3354 28.6908 39.3352 27.4973 39.3344C26.5233 39.3361 25.5493 39.3327 24.5754 39.3242C24.2792 39.3235 23.6971 39.4017 23.4503 39.2883C23.3572 39.1708 23.3791 39.2283 23.3764 39.0666C23.5233 38.9523 24.8405 39.0041 25.1322 39.0067C25.1322 37.7554 25.2039 29.7669 25.0748 29.4554C25.0222 29.3285 24.9237 29.2768 24.8045 29.2246L24.878 29.0775ZM32.1235 38.8728C32.7902 38.6061 33.2203 38.2183 33.5319 37.5206C34.1977 36.0298 33.6161 33.2495 31.7098 33.0779C31.091 33.0223 30.3494 33.0817 29.7218 33.0595C29.0058 33.074 28.1355 33.0259 27.4415 33.0877C26.8886 33.268 26.5149 33.5898 26.2512 34.114C25.7084 35.1932 25.9594 37.701 25.9352 39.0031L29.2477 39.0081C29.9509 39.0088 31.5063 39.0745 32.1235 38.8728Z" fill="black"/>
<path d="M1.02456 0.800797C2.82101 0.773843 4.68268 0.79953 6.484 0.799473L17.2926 0.799396L24.613 0.797848C25.2492 0.797389 28.7853 0.711872 29.2094 0.93354C29.4484 1.0577 29.6272 1.27376 29.7051 1.53252C29.9343 2.31189 29.5897 2.84418 28.846 3.06209C27.2441 3.12385 25.3117 3.07575 23.6893 3.07577L13.9899 3.07517L5.58205 3.07619C4.1421 3.0769 2.70183 3.08402 1.26188 3.06897C0.652446 3.0626 0.15561 2.82255 0.0358077 2.17472C-0.101446 1.43251 0.292747 0.915412 1.02456 0.800797Z" fill="#1A61AE"/>
<path d="M73.7571 29.0849C74.3301 29.0566 75.0689 29.058 75.6416 29.1238C74.8462 29.2855 74.8066 29.2247 74.7993 30.1354C74.7977 30.3303 74.7989 30.5416 74.7989 30.7372L74.8062 33.9186C74.8086 35.0516 74.9416 36.8295 74.5298 37.8687C73.7462 39.8474 70.7693 39.8235 70.1166 37.644C69.0472 39.351 66.742 39.8735 65.0717 38.7937C64.6627 38.5324 64.3285 38.1691 64.101 37.739C63.8096 38.4041 63.4665 38.8632 62.7621 39.1518C62.6126 39.2129 62.1118 39.342 61.9611 39.3226L61.8992 39.2703L61.8984 39.0473C61.9934 38.9655 62.3038 38.9592 62.4388 38.9136C63.766 38.4661 63.6795 36.9871 63.6597 35.8646C63.6443 34.9748 64.1713 33.9956 64.8317 33.4464C66.1888 32.2705 68.6981 32.4151 69.8616 33.8126C70.1885 34.2077 70.4076 34.6817 70.4965 35.1878C70.705 36.3783 70.1602 38.6311 72.05 38.981C73.3117 39.2146 74.0028 37.921 73.9979 36.8438C74.021 36.2858 74.0157 35.7775 74.0137 35.238L74.0133 32.9097L74.0137 30.7751C74.0133 30.3931 74.1483 29.3402 73.6989 29.2283L73.7571 29.0849ZM67.5111 38.995C68.0955 38.903 68.8076 38.6324 69.122 38.1089C70.351 36.0651 69.5342 32.7424 66.6838 33.0093C66.0934 33.0928 65.4056 33.3606 65.081 33.8841C63.8302 35.904 64.8042 39.1105 67.5111 38.995Z" fill="black"/>
<path d="M58.3327 32.7479C58.9405 32.6715 60.4382 32.6917 61.0582 32.7371C60.8307 32.8225 60.4027 32.8088 60.2354 32.984C60.0329 33.1961 60.0955 36.1119 60.1085 36.5889C60.1331 37.4837 60.2507 38.4169 61.1778 38.8203C61.3851 38.9104 61.6975 38.979 61.86 39.1334L61.8628 39.2577L61.8018 39.3048C61.4991 39.3311 61.2037 39.2379 60.9135 39.1544C60.3012 38.9163 60.0592 38.6921 59.7011 38.1539C58.9013 39.64 56.959 39.6306 55.802 38.5143C55.6682 39.7896 55.0777 40.7283 53.8128 41.0906C54.931 40.3194 54.9658 39.3944 55.022 38.1403C54.4 38.7712 53.8225 39.1643 52.9192 39.2955C50.945 39.5823 49.1806 38.5458 48.9247 36.4383C48.8225 35.5503 49.0731 34.6577 49.6223 33.9545C50.2285 33.1757 50.9903 32.8421 51.9404 32.7249C52.5381 32.6793 53.1169 32.7161 53.6895 32.9062C54.2577 33.0949 54.7573 33.4034 55.1367 33.8744C56.2514 35.2578 55.4354 36.7631 56.1418 38.1495C56.3281 38.5158 56.6155 38.7816 57.0087 38.9066C57.425 39.0388 57.9192 39.0253 58.3076 38.8134C58.7582 38.5674 59.0116 38.1059 59.1466 37.624C59.2347 37.3108 59.2731 36.9825 59.2953 36.6584C59.3285 36.1746 59.3782 33.2816 59.2117 33.0191C59.0832 32.817 58.5513 32.7994 58.3327 32.7479ZM52.762 38.986C53.1775 38.9388 53.4931 38.8631 53.8475 38.6278C54.8276 37.9773 55.0147 36.6791 54.8943 35.5898C54.7233 34.0475 53.5869 32.8555 51.9829 33.0482C51.3904 33.1223 50.6755 33.387 50.3457 33.906C49.0613 35.9281 50.0555 39.1158 52.762 38.986Z" fill="black"/>
<path d="M32.2871 19.1982C33.7811 19.0114 35.4794 19.6354 36.0364 21.1379C36.3558 21.9995 36.3016 23.0124 35.9243 23.8442C35.562 24.6604 34.8815 25.2908 34.0426 25.5873C33.7241 25.6992 33.3925 25.7691 33.0561 25.7952C31.9711 25.8834 30.6996 25.8164 29.5978 25.811C27.175 25.7993 24.6225 26.3173 23.6536 23.4197C23.4308 22.6021 23.4712 22.0166 23.6891 21.2193C23.9952 21.215 24.3126 21.2202 24.6197 21.2211C24.4741 21.6285 24.3958 22.057 24.3878 22.4898C24.3676 23.3252 24.5696 24.1912 25.1544 24.8137C25.9276 25.6368 27.1864 25.484 28.2157 25.482C29.1849 25.4746 30.1541 25.4759 31.1232 25.486C30.9638 25.3884 30.7728 25.2737 30.6254 25.162C29.9277 24.6256 29.4724 23.8311 29.3611 22.9554C29.1619 21.4563 29.9592 19.8441 31.4417 19.3745C31.7466 19.2779 31.9744 19.2383 32.2871 19.1982ZM33.0266 25.459C35.8077 25.3168 35.9571 21.4625 34.3336 20.0584C33.8709 19.6552 33.2696 19.4497 32.6582 19.4861C31.9772 19.5263 31.3272 19.7086 30.87 20.2608C29.8761 21.4613 30.0649 23.7975 31.2488 24.8138C31.7708 25.2634 32.3582 25.4488 33.0266 25.459Z" fill="black"/>
<path d="M2.62307 4.24907C4.74884 4.29635 7.03266 4.25452 9.16801 4.25464L21.9018 4.2535C23.2408 4.25334 25.8263 4.21341 27.2839 4.29972C27.5966 4.31825 27.9163 5.08905 27.156 5.37232C26.1743 5.42248 24.8601 5.3815 23.8461 5.38146L17.4261 5.38126L7.66292 5.38085C6.0968 5.38089 4.53064 5.38609 2.96456 5.38442C2.65055 5.3841 2.30481 5.33377 2.18252 4.98889C2.13079 4.84096 2.14392 4.67792 2.21869 4.5403C2.31402 4.36219 2.44412 4.30066 2.62307 4.24907Z" fill="#1A61AE"/>
<path d="M77.0424 29.0743C77.5338 29.0711 78.117 29.071 78.5983 29.1369C78.3142 29.2196 77.9028 29.1678 77.7351 29.4287C77.6284 29.8538 77.6478 30.7801 77.6474 31.2469L77.649 33.64C77.6506 35.2104 77.6478 36.7912 77.6627 38.3615C77.6647 38.5505 77.6955 38.8363 77.7496 39.0127C77.9784 39.2428 78.2406 39.1847 78.5955 39.2889C78.2794 39.3347 78.0079 39.33 77.6894 39.3321C77.183 39.3361 76.5675 39.3448 76.0716 39.3017C76.1888 39.2509 76.3068 39.2247 76.4309 39.1959C76.5724 39.1631 76.7041 39.1167 76.7785 38.9797C76.8957 38.7642 76.8989 29.8103 76.7902 29.4263C76.6071 29.1744 76.3505 29.2079 76.0264 29.1483C76.437 29.081 76.618 29.0828 77.0424 29.0743Z" fill="black"/>
<path d="M31.5759 43.0882C32.3961 43.0756 33.6511 42.9538 34.1095 43.7731C34.565 44.587 34.2247 45.5013 33.4544 45.9473C33.4321 45.9575 33.4095 45.9668 33.3867 45.9754C33.0459 46.1098 31.552 46.1618 31.2912 46.0485C31.3538 46.0253 31.4059 46.0087 31.469 45.9892C31.5644 45.8023 31.5873 43.4656 31.4704 43.2146C31.3906 43.1496 31.3603 43.1528 31.2539 43.1329L31.2188 43.1268C31.2772 43.083 31.489 43.0907 31.5759 43.0882ZM33.5609 45.6382C33.8206 45.3303 33.9529 44.9473 33.922 44.5424C33.8945 44.1695 33.7166 43.8234 33.4294 43.5854C32.9873 43.2158 32.4622 43.1979 31.9166 43.2324C31.9014 43.9363 31.898 44.6398 31.9024 45.3442C31.906 45.9262 32.1261 46.0095 32.6594 45.9624C33.0328 45.9299 33.2555 45.8503 33.5609 45.6382Z" fill="black"/>
<path d="M65.6445 42.5943C66.7143 42.4456 68.6368 42.5987 67.2942 44.091C68.0572 44.3969 68.3284 45.0208 67.8507 45.7263C67.445 46.1203 67.0505 46.089 66.5252 46.0777C66.2863 46.0724 66.0281 46.1097 65.7912 46.0699L65.8005 46.0184C65.8866 45.9729 65.9573 45.9331 66.0402 45.8823C66.1396 45.6057 66.1356 43.0362 66.0442 42.7364C65.9331 42.6284 65.803 42.6243 65.6445 42.5943ZM66.8153 44.1971L66.9737 44.089C67.7234 43.8709 67.3629 42.6654 66.69 42.6609C66.612 42.6958 66.5858 42.6938 66.5353 42.7588C66.4088 42.9229 66.4556 43.8863 66.4872 44.074L66.4548 44.1979C66.4742 44.5862 66.4128 45.5423 66.5425 45.8059C66.6561 45.8981 66.9903 45.9741 67.1245 45.9408C68.1102 45.6963 67.7331 44.351 66.8153 44.1971Z" fill="black"/>
<path d="M66.4855 44.0737L66.972 44.0888L66.8136 44.1968C66.7102 44.2025 66.5606 44.1976 66.4531 44.1976L66.4855 44.0737Z" fill="black"/>
<path d="M27.2859 42.4351C27.4019 43.1053 27.5762 45.5236 27.7588 45.8754C27.9046 46.005 28.1438 46.0399 28.3395 46.089C27.9853 46.0834 27.6313 46.0695 27.2777 46.048C27.2684 45.4753 27.1662 44.6024 27.1125 44.0118L27.0561 43.3823C26.5981 44.2824 26.1997 45.2259 25.7312 46.1183C25.2648 45.3279 24.7768 44.2389 24.3926 43.4119C24.358 43.8047 24.1616 45.6455 24.2307 45.9128C24.34 46.0208 24.4696 46.0383 24.6219 46.0809C24.4157 46.0728 23.6964 46.0955 23.5791 46.0513C23.6825 46.02 23.7299 46.0009 23.8279 45.9554C23.963 45.7641 24.198 43.0025 24.2867 42.4891C24.445 42.5983 25.6386 45.1187 25.8172 45.4842C26.312 44.6199 26.7787 43.3729 27.2859 42.4351Z" fill="black"/>
<path d="M60.934 43.0068C61.2004 43.1514 63.0663 45.16 63.3973 45.5085C63.3904 45.1441 63.3819 43.5357 63.314 43.2473C63.1968 43.1368 63.1831 43.1665 62.9939 43.1344L63.0137 43.1031C63.198 43.0633 63.6511 43.071 63.8374 43.1027C63.7804 43.1384 63.6207 43.2375 63.6163 43.3119C63.5593 44.2436 63.6296 45.1831 63.5811 46.1161C63.2384 45.9439 61.4869 44.0527 61.1244 43.6583C61.13 44.132 61.1175 45.4991 61.2125 45.8899C61.3289 46.0186 61.3471 45.9918 61.5378 46.0524C61.4554 46.0938 60.7299 46.0897 60.6487 46.0402L60.6172 46.0593L60.8512 45.9415C60.953 45.7441 60.888 43.4743 60.934 43.0068Z" fill="black"/>
<path d="M71.8428 43.0068C72.1168 43.1531 73.9548 45.1421 74.3056 45.5154C74.2947 45.1088 74.2963 43.532 74.2187 43.2408C74.1351 43.1616 73.8796 43.123 73.7406 43.084C73.9726 43.0787 74.584 43.043 74.7675 43.1271C74.6616 43.1486 74.6366 43.1457 74.5549 43.2107C74.4571 43.4544 74.5428 45.5885 74.4834 46.1243C74.0288 45.8123 72.4898 44.149 72.0299 43.6583C72.0271 44.0804 72.0291 45.5174 72.1172 45.8753C72.2336 46.0195 72.3657 46.0325 72.5533 46.0845C72.3431 46.0739 71.627 46.097 71.5098 46.0524C71.6084 46.0231 71.6504 46.0061 71.7446 45.9634C71.8961 45.7185 71.7769 43.5422 71.8428 43.0068Z" fill="black"/>
<path d="M51.5582 43.0112C51.8196 43.1246 53.7062 45.1676 54.0258 45.506C54.0202 45.1083 54.0181 43.5986 53.9511 43.2639C53.8181 43.127 53.8363 43.1847 53.6257 43.1181C53.7866 43.0596 54.2222 43.0697 54.3948 43.0949C54.3916 43.205 54.2234 43.3224 54.2234 43.5494C54.2222 44.4024 54.2481 45.2907 54.2093 46.1412C53.6197 45.681 52.3058 44.244 51.7509 43.6607C51.7538 44.0758 51.7404 45.5978 51.8584 45.9044C51.9627 46.0202 52.1142 46.0409 52.2715 46.0852C52.1199 46.0783 51.3084 46.0949 51.2441 46.0421C51.3824 46.0117 51.5367 45.9507 51.5408 45.7785C51.5618 44.8565 51.5238 43.9333 51.5582 43.0112Z" fill="black"/>
<path d="M69.7224 43.0103C69.9317 43.1155 70.6285 45.2446 70.8309 45.581C71.0439 45.9343 71.0476 45.9664 71.4614 46.0838C70.2441 46.0468 70.6547 46.1167 70.1932 44.9603L69.8481 44.9571L69.1962 44.9546C69.1049 45.1939 68.8664 45.7341 68.9024 45.9676L69.0673 46.0391L69.0685 46.07C68.7302 46.0708 68.392 46.0769 68.0537 46.0887C68.1903 46.0542 68.4958 45.9981 68.5654 45.8624C69.0305 44.9554 69.2956 43.9367 69.7224 43.0103ZM69.2548 44.797H69.7842C69.9216 44.7958 70.0013 44.8214 70.0938 44.7532C70.0518 44.5935 69.7713 43.7576 69.665 43.663C69.5082 44.0529 69.3878 44.3978 69.2548 44.797Z" fill="black"/>
<path d="M58.8366 42.9487C59.2589 43.885 59.5952 44.9065 60.0603 45.8208C60.1428 45.9829 60.3836 46.0349 60.5505 46.0836L59.7107 46.0735C59.5636 45.6949 59.4206 45.3143 59.2815 44.9325C59.1001 44.8013 58.5072 44.8431 58.2983 44.9183C58.2001 45.1734 57.9329 45.7461 58.0077 45.967L58.1766 46.0511C58.1002 46.0848 57.3522 46.0787 57.1816 46.0873C57.4536 45.9983 57.6032 46.0093 57.7369 45.7266C58.156 44.8411 58.4203 43.8293 58.8366 42.9487ZM58.3488 44.7977L58.9166 44.7972C59.0346 44.7948 59.1163 44.8163 59.1874 44.7526C59.1365 44.5548 58.8713 43.7997 58.7477 43.6591C58.6058 44.0353 58.4725 44.415 58.3488 44.7977Z" fill="black"/>
<path d="M48.1924 46.0014C48.4712 45.6765 49.2165 43.5249 49.4678 42.9478C49.8784 43.8377 50.1941 44.8011 50.6144 45.687C50.7566 45.9864 50.8799 45.9925 51.1903 46.0859C50.9094 46.077 50.6172 46.077 50.3355 46.0733C50.209 45.6968 50.0567 45.3101 49.9164 44.9372C49.7261 44.7788 49.3228 44.9116 49.0867 44.8117C49.2795 44.7873 49.6465 44.8007 49.8526 44.8024L49.3959 43.5968C49.3034 43.8527 48.9853 44.6127 49.0487 44.8121L48.9198 44.9518C48.8241 45.1947 48.5585 45.7581 48.6365 45.9921C48.5238 46.0392 48.3128 46.0246 48.1924 46.0014Z" fill="black"/>
<path d="M36.5845 43.0322C37.0234 43.1252 38.6209 43.0956 39.1047 43.0615C39.0998 43.2248 39.1039 43.4287 39.0582 43.5802C38.964 43.5095 38.9842 43.4908 38.9479 43.3564C38.8181 43.2284 38.2139 43.2605 38.0135 43.2609C38.0103 44.0777 38.0123 44.895 38.0191 45.7122C38.0321 45.778 38.0511 45.8426 38.0685 45.9076C38.1671 46.0205 38.357 46.0457 38.5082 46.0834C38.2515 46.07 37.5451 46.0981 37.3501 46.0497C37.4244 46.0335 37.4975 46.0221 37.5531 45.9656C37.7288 45.7869 37.6479 43.6419 37.6481 43.2589C37.4144 43.2625 37.1756 43.2589 36.9427 43.267C36.6752 43.2759 36.6751 43.3458 36.5041 43.533C36.4777 43.4538 36.5617 43.1358 36.5845 43.0322Z" fill="black"/>
<path d="M41.3664 46.0752C40.9659 46.0821 40.072 46.1012 39.7062 46.0553L39.6998 46.0212C39.7972 45.9907 39.8065 45.9903 39.8865 45.9294C40.0623 45.4375 39.9107 43.8437 39.9216 43.2539C39.9233 43.1731 39.6925 43.1698 39.6367 43.1109C39.7733 43.061 40.0991 43.0772 40.2603 43.0772C40.3525 43.1605 40.3302 43.1109 40.3403 43.2251C40.2837 43.548 40.3266 44.0679 40.3088 44.4127L40.3161 44.5801C40.3262 45.258 40.0328 46.1463 41.1324 45.8929C41.25 45.8661 41.2973 45.7966 41.3543 45.6967L41.4796 45.481L41.3664 46.0752Z" fill="black"/>
<path d="M58.7793 30.4157C59.1369 30.3387 59.4889 30.569 59.5633 30.9291C59.6376 31.2891 59.4061 31.6412 59.0472 31.7136C58.692 31.7855 58.3456 31.5554 58.2717 31.1986C58.1981 30.8418 58.4248 30.4921 58.7793 30.4157Z" fill="black"/>
<path d="M60.3865 30.4165C60.6193 30.3648 60.8618 30.4435 61.0206 30.6223C61.1794 30.8012 61.23 31.0524 61.1524 31.2791C61.0748 31.5059 60.8812 31.6728 60.6468 31.7156C60.2932 31.7802 59.9533 31.5485 59.8822 31.1944C59.8114 30.8404 60.0357 30.4945 60.3865 30.4165Z" fill="black"/>
<path d="M32.6563 16.8927C33.0114 16.8139 33.3628 17.0393 33.4412 17.3962C33.5196 17.7531 33.2953 18.1063 32.9402 18.1851C32.5851 18.2639 32.2337 18.0384 32.1553 17.6816C32.0769 17.3247 32.3012 16.9715 32.6563 16.8927Z" fill="black"/>
<path d="M56.9625 46.0748C56.7188 46.0756 55.4413 46.1012 55.2986 46.0444L55.4146 45.9989C55.6292 45.7759 55.5767 43.745 55.4999 43.3478C55.4639 43.1629 55.3884 43.1516 55.2344 43.1166C55.3395 43.0585 55.6785 43.0764 55.8192 43.076L55.8959 43.1471C55.8725 43.3705 55.8099 44.1995 55.9065 44.3664L55.9105 44.4107L55.9081 44.5809C55.9263 45.2511 55.6203 46.1626 56.7495 45.886C56.9277 45.8421 57.0162 45.5659 57.0878 45.4046L56.9625 46.0748Z" fill="black"/>
<path d="M30.336 46.0804C30.0804 46.08 28.8158 46.0979 28.6592 46.0463C28.7777 46.0101 28.7945 46.0057 28.869 45.9074C28.9574 45.6633 28.9243 43.6474 28.894 43.2542C28.887 43.1636 28.7394 43.1766 28.6045 43.1141C28.7361 43.0621 29.0313 43.0767 29.1879 43.0763L29.2556 43.1401C29.2389 43.3757 29.1788 44.2392 29.2611 44.4122L29.2989 44.5767C29.2837 44.7745 29.2061 45.7421 29.4065 45.8607C29.5743 45.9602 30.0891 45.9358 30.2534 45.8164C30.28 45.7969 30.4376 45.4675 30.4706 45.4017L30.336 46.0804Z" fill="black"/>
<path d="M42.1855 43.1033C42.6935 43.0363 43.5778 42.9859 44.0038 43.31C44.3962 43.609 44.2697 44.1013 43.9941 44.4287C43.9153 44.5221 43.83 44.6106 43.7399 44.6931C44.0616 45.0989 44.4548 45.6578 44.8888 45.9368C45.0238 46.0237 45.1956 46.0278 45.3164 46.0887C43.9698 46.0944 44.1933 45.6549 43.4113 44.8015L43.495 44.6732C43.9476 44.4534 43.9892 43.7776 43.6829 43.4201C43.4812 43.1849 43.1486 43.217 42.8637 43.2077L42.8342 43.1614C42.7619 43.1163 42.344 43.1212 42.1855 43.1033Z" fill="black"/>
<path d="M34.9307 43.0788C35.0927 43.0658 35.7792 43.028 35.8857 43.1024L35.709 43.1714C35.6169 43.4586 35.6343 45.5508 35.689 45.8985C35.7609 45.9996 35.9186 46.0281 36.0474 46.0695C35.7896 46.0752 35.2586 46.106 35.0318 46.0666C35.4142 45.829 35.2949 43.7043 35.2491 43.2311C35.167 43.134 35.0679 43.1263 34.9307 43.0788Z" fill="black"/>
<path d="M75.8136 43.2292C75.7259 43.1996 75.6354 43.1716 75.5469 43.1431L75.5772 43.1163C75.7453 43.1147 76.3151 43.0972 76.4469 43.1309C76.2957 43.1963 76.2068 43.2256 76.2 43.4031C76.1858 43.7666 76.1915 44.1342 76.1862 44.4981L76.1959 44.5432C76.1931 44.9295 76.088 45.6249 76.3067 45.9571C76.3354 46.0002 76.5698 46.0623 76.6344 46.0802C76.4392 46.0761 75.6936 46.0904 75.5683 46.0493C75.6338 46.027 75.6988 46.0091 75.7457 45.9551C75.9264 45.7443 75.8338 43.6253 75.8136 43.2292Z" fill="black"/>
<path d="M77.4055 43.1552C77.5611 43.1487 77.6168 43.1309 77.7385 43.2531C77.3853 43.5387 76.832 44.0764 76.5063 44.4087C77.1044 45.0123 77.7809 45.8498 78.5722 46.0821C77.907 46.0874 77.669 46.0838 77.1436 45.5635C76.8243 45.247 76.5002 44.877 76.1943 44.5439L76.1846 44.4989C76.4307 44.2531 77.3234 43.4424 77.4055 43.1552Z" fill="black"/>
<path d="M45.3105 43.1118C45.4657 43.1216 45.9083 43.1086 45.9899 43.1549L46.0097 43.191C45.9891 43.4339 45.937 44.4729 46.0416 44.6447L46.0744 44.7166L46.036 44.7934C45.945 44.9733 45.9806 45.7227 46.0465 45.9165C46.1685 46.0221 46.3237 46.0432 46.4846 46.0846C46.2878 46.0777 45.5057 46.0915 45.3792 46.0424L45.5603 45.9429C45.684 45.6614 45.6553 43.6338 45.6056 43.2556C45.5078 43.1106 45.4653 43.1996 45.3105 43.1118Z" fill="black"/>
<path d="M43.3333 46.084C43.0334 46.0698 42.4826 46.1014 42.234 46.0499C42.3468 45.9914 42.4511 45.9394 42.4612 45.8029C42.4907 45.4057 42.5784 43.4215 42.4204 43.1904C42.3302 43.1672 42.2668 43.1489 42.1855 43.103C42.344 43.1209 42.7619 43.116 42.8342 43.1611L42.8637 43.2074C42.8483 43.4487 42.8152 44.4324 42.8738 44.6299C42.8718 44.6717 42.8702 44.7692 42.8621 44.8053C42.8374 45.1185 42.7655 45.6555 42.9316 45.9024C43.012 46.0226 43.1927 46.0482 43.3333 46.084Z" fill="black"/>
<path d="M45.3105 43.1129C45.5963 43.0386 46.5436 43.0183 46.816 43.1304C47.779 43.5268 47.3195 44.2149 46.8863 44.7048L46.7266 44.6264C47.0746 44.4062 47.0993 43.814 46.8822 43.4915C46.6567 43.1556 46.3779 43.2547 46.04 43.1978L46.0097 43.1921L45.9899 43.156C45.9083 43.1097 45.4657 43.1227 45.3105 43.1129Z" fill="black"/>
<path d="M46.7256 44.6255L46.8853 44.7039C47.2159 45.1052 47.7267 45.8704 48.1931 46.0008C48.3135 46.024 48.5245 46.0386 48.6372 45.9915L48.7601 46.0337C48.6602 46.1178 47.8528 46.0682 47.6855 46.0625C47.3027 45.8298 46.9794 45.3838 46.7345 45.0073C46.6994 44.8647 46.6569 44.7985 46.5898 44.6706L46.7256 44.6255Z" fill="black"/>
<path d="M29.1895 43.0763C29.5556 43.0791 29.9565 43.0913 30.3182 43.0601C30.3044 43.1787 30.2839 43.4573 30.2332 43.5463L30.224 43.5203C30.195 43.4406 30.1595 43.3249 30.0795 43.2993C29.8711 43.2331 29.516 43.2388 29.2907 43.2335C29.2907 43.5004 29.3054 44.1835 29.2626 44.4122C29.1803 44.2392 29.2404 43.3757 29.2571 43.1401L29.1895 43.0763Z" fill="black"/>
<path d="M56.9404 43.0649C56.9275 43.1726 56.9004 43.4472 56.8697 43.5377C56.8111 43.4817 56.8014 43.4435 56.7695 43.3696C56.565 43.1929 56.196 43.2372 55.9155 43.2363C55.9131 43.5999 55.9196 44.0073 55.9066 44.3667C55.81 44.1998 55.8727 43.3708 55.8961 43.1474L55.8193 43.0763C56.1802 43.0783 56.5848 43.0897 56.9404 43.0649Z" fill="black"/>
<path d="M40.2617 43.077C40.606 43.0791 41.0118 43.0909 41.3493 43.062C41.3355 43.1607 41.306 43.4922 41.2559 43.5417C41.2102 43.4442 41.1662 43.2907 41.0688 43.2757C40.8457 43.2407 40.5668 43.2346 40.3417 43.2249C40.3316 43.1108 40.3539 43.1603 40.2617 43.077Z" fill="black"/>
<path d="M37.2658 19.3064C37.0783 19.317 37.0055 19.3299 36.8273 19.2679L36.7715 19.2135C37.0131 19.0984 38.7583 19.1281 39.0848 19.2065C38.9252 19.2515 38.6884 19.3335 38.532 19.2996L38.4952 19.2442C38.3784 19.17 37.7979 19.1859 37.63 19.1937C37.4208 19.2034 37.3835 19.1782 37.2658 19.3064Z" fill="black"/>
<path d="M40.3105 44.4128C40.5013 44.4136 41.1584 44.3832 41.2688 44.4059C41.2696 44.5481 41.2437 44.6862 41.2219 44.8263L41.1904 44.8381C41.1512 44.7524 41.1208 44.6374 41.0437 44.6187C40.8432 44.5696 40.5251 44.5802 40.3178 44.5802L40.3105 44.4128Z" fill="black"/>
<path d="M55.9106 44.4108C56.1038 44.4133 56.7646 44.3844 56.8628 44.4047C56.8531 44.538 56.8551 44.752 56.7872 44.8507C56.7533 44.7707 56.7161 44.6367 56.6437 44.6188C56.4417 44.568 56.1131 44.5806 55.9082 44.581L55.9106 44.4108Z" fill="black"/>
<path d="M30.2443 44.3784C30.2362 44.4438 30.2031 44.7387 30.1872 44.783C30.0214 44.5234 29.5826 44.5799 29.3015 44.5762L29.2637 44.4117C29.6318 44.4162 29.8805 44.4203 30.2443 44.3784Z" fill="black"/>
<path d="M57.5215 19.1818C58.1018 19.1216 59.4836 19.1124 60.0465 19.1905C59.8008 19.2607 59.7067 19.288 59.4549 19.309L59.4266 19.239C59.2556 19.1473 58.5383 19.1759 58.3225 19.2049C58.2316 19.2171 58.2518 19.2211 58.194 19.3018C57.9802 19.3048 57.7183 19.2651 57.5215 19.1818Z" fill="black"/>
<path d="M45.7773 32.7306C46.255 32.6429 47.8231 32.646 48.3218 32.6998C48.15 32.7611 47.9621 32.8432 47.7823 32.829L47.7439 32.7623C47.5725 32.6747 46.7036 32.7126 46.4866 32.7426L46.4426 32.8065C46.1972 32.8333 46.0174 32.7868 45.7773 32.7306Z" fill="black"/>
<path d="M37.458 32.7104C37.7578 32.61 39.2957 32.648 39.6667 32.7149L39.7063 32.7515C39.5406 32.8264 39.3446 32.8348 39.1627 32.8369L39.1304 32.7558C38.856 32.6378 37.88 32.7585 37.458 32.7104Z" fill="black"/>
<path d="M41.708 32.7133C41.9618 32.6198 43.6681 32.6341 43.9219 32.7431L43.8714 32.7869L43.8726 32.7465C43.7792 32.8364 43.6503 32.833 43.5129 32.8311C43.4895 32.8307 43.466 32.83 43.4426 32.829L43.411 32.7555C43.148 32.6441 42.1194 32.7539 41.708 32.7133Z" fill="black"/>
<path d="M46.0408 44.645C46.2118 44.6535 46.4219 44.6702 46.59 44.6706C46.6571 44.7986 46.6996 44.8648 46.7347 45.0073C46.5298 44.736 46.3577 44.8059 46.0352 44.7937L46.0735 44.7169L46.0408 44.645Z" fill="black"/>
<path d="M49.0498 44.8119L49.0878 44.8115C49.3238 44.9114 49.7272 44.7786 49.9175 44.937C49.637 44.9736 49.2147 44.9557 48.9209 44.9517L49.0498 44.8119Z" fill="black"/>
<path d="M42.873 44.6299C43.0678 44.6486 43.3018 44.6778 43.4942 44.6729L43.4106 44.8013C43.2942 44.8143 42.9919 44.8058 42.8613 44.8054C42.8694 44.7692 42.871 44.6717 42.873 44.6299Z" fill="black"/>
<path d="M58.2988 44.9183C58.5078 44.8431 59.1006 44.8013 59.2821 44.9325C59.0764 44.9772 58.5086 44.9703 58.2988 44.9183Z" fill="black"/>
<path d="M77.4066 43.1543L77.333 43.1222C77.5735 43.0914 77.9449 43.1048 78.1963 43.106L77.7396 43.2522C77.6179 43.13 77.5622 43.1478 77.4066 43.1543Z" fill="black"/>
<path d="M73.698 29.2278C73.557 29.2235 73.4733 29.2307 73.344 29.168L73.3428 29.1194C73.4818 29.0512 73.5982 29.0753 73.7562 29.0845L73.698 29.2278Z" fill="black"/>
<path d="M24.8038 29.2248C24.6651 29.2211 24.5945 29.2253 24.4597 29.1805L24.4385 29.1358C24.5649 29.0548 24.7245 29.0754 24.8774 29.0777L24.8038 29.2248Z" fill="black"/>
</svg>
