<svg width="213" height="50" viewBox="0 0 213 50" fill="none" xmlns="http://www.w3.org/2000/svg">
<path d="M179.265 32.9355C177.664 34.31 175.829 35.4083 173.786 35.9851C163.723 38.8261 154.414 29.8674 156.838 19.6999C158.268 13.705 163.937 9.26858 170.129 9.3729C169.889 10.8333 169.57 12.2814 169.687 13.7786C160.888 14.0118 157.488 25.701 164.919 30.6038C172.344 35.5065 181.781 28.0389 178.658 19.7245C178.198 18.4911 177.302 17.5646 176.823 16.3864C176.148 14.7297 175.995 12.8582 176.516 11.1401C176.743 10.9806 178.431 12.2753 178.719 12.5146C180.891 14.3247 183.561 18.4298 183.561 21.326V36.9055H179.265V32.9416V32.9355Z" fill="#067937"/>
<path d="M189.175 32.9362V36.9001H184.88V27.8739C186.641 27.8248 188.341 27.3585 189.985 26.7817C191.433 29.4877 193.845 31.5617 196.956 32.0403C204.233 33.1632 209.921 25.7447 206.78 19.0257C203.994 13.0736 195.9 11.9507 191.544 16.8596C190.758 17.7432 190.341 18.7863 189.402 19.5595C188.236 20.5229 186.512 21.204 184.996 21.2653C186.236 11.0978 197.944 5.90056 206.393 11.9262C209.406 14.0738 211.695 17.9212 211.971 21.6519C212.897 34.2248 198.533 41.1892 189.181 32.9362H189.175Z" fill="#067937"/>
<path d="M209.598 38.9854C210.016 39.016 210.672 39.1449 211.083 39.2615C212.617 39.7033 213.004 41.1023 212.844 42.5627C212.74 43.5199 212.041 43.9924 211.415 44.5999C213.495 45.3485 213.421 48.8338 211.47 49.6683C211.298 49.7419 210.488 49.9935 210.365 49.9935H195.117V38.9854H209.598ZM197.326 43.5015H209.604C209.635 43.5015 210.095 43.2315 210.157 43.1763C210.599 42.759 210.549 41.6852 210.046 41.2987C209.924 41.2005 209.384 40.9734 209.273 40.9734H197.492C197.492 40.9734 197.326 41.1269 197.326 41.1391V43.5077V43.5015ZM197.326 48.0177H209.604C209.635 48.0177 210.095 47.7477 210.157 47.6925C210.795 47.0973 210.322 45.4896 209.494 45.4896H197.492C197.492 45.4896 197.326 45.643 197.326 45.6553V48.0238V48.0177Z" fill="#0F3D4E"/>
<path d="M175.708 2.78318C175.837 2.74636 175.941 2.76477 176.021 2.88135L178.039 6.4771C177.665 7.01094 177.199 7.43433 176.818 7.97431C174.763 10.9196 174.585 14.5461 176.272 17.7062C176.585 18.2952 177.088 18.8475 177.377 19.4611C178.162 21.1055 178.481 23.4311 177.776 25.1186C170.326 21.0933 168.449 11.1405 173.873 4.58719C174.112 4.29879 175.481 2.84454 175.708 2.78318Z" fill="#067937"/>
<path d="M192.588 49.9998H179.322C176.978 49.9998 175.45 47.6926 175.296 45.545C175.032 41.7897 176.149 39.2432 180.199 38.9855C184.249 38.7278 188.274 39.188 192.214 38.9855C192.324 38.9609 192.594 39.0653 192.594 39.1573V40.8079C192.594 40.8999 192.324 41.0042 192.214 40.9797C188.336 41.219 184.028 40.6422 180.199 40.9674C178.917 41.0779 178.328 41.7713 178.021 42.9739C177.738 44.0723 177.64 46.8642 178.61 47.6251C178.702 47.6987 179.377 48.0178 179.432 48.0178H192.422C192.422 48.0178 192.588 48.1712 192.588 48.1835V49.9998Z" fill="#0F3D4E"/>
<path d="M171.228 47.4656V38.9917H173.321V49.9998H171.063C170.443 49.9998 162.19 43.6735 160.846 43.0415L158.453 41.5259V49.9998H156.25V38.9917H158.619L170.835 47.3613L171.222 47.4656H171.228Z" fill="#0F3D4E"/>
<path d="M184.66 22.3633C187.593 22.3388 189.974 20.8477 191.753 18.608C192.048 18.2399 192.244 17.7612 192.533 17.4054C193.656 16.0186 195.987 14.865 197.767 14.9325C197.061 21.4613 191.22 26.7138 184.66 26.769V22.3633Z" fill="#067937"/>
<path d="M196.993 8.38565C196.257 8.45929 195.49 8.56974 194.766 8.74769C194.238 8.87654 193.398 9.30607 192.944 9.36129C192.79 9.3797 192.759 9.38584 192.643 9.26925C192.434 9.06676 191.919 7.99908 191.643 7.62478C191.483 7.41002 190.532 6.41597 190.514 6.3362L192.588 2.55637C192.68 2.48887 193.349 3.05339 193.465 3.15771C194.987 4.4831 196.306 6.49574 196.987 8.38565H196.993Z" fill="#067937"/>
<path d="M180.445 0.0460846C183.378 -0.457075 184.409 3.3473 181.949 4.40885C178.709 5.81401 177.39 0.567652 180.445 0.0460846Z" fill="#067937"/>
<path d="M186.722 0.0464649C189.667 -0.462831 190.655 3.35995 188.225 4.40923C184.985 5.80826 183.666 0.574169 186.722 0.0464649Z" fill="#067937"/>
<path d="M25.212 22.5156V27.448H33.6359C34.7539 27.448 36.1588 29.1041 36.1588 30.1862V32.1711H7.99944C7.70051 32.1711 6.98307 31.4059 6.98307 31.1548V28.0997C4.27474 28.8948 6.18791 31.8961 5.11175 33.899C4.85467 34.3832 3.922 35.0708 3.3899 35.0708H0.544071C0.490263 34.7479 0.627771 34.9034 0.795173 34.8436C1.47674 34.6104 2.25396 34.5207 2.86976 34.1261C4.47802 33.1038 3.62905 30.7781 3.87417 29.2296C4.13126 27.5795 7.04883 26.0849 8.58535 25.9533V29.977C8.58535 30.6167 9.96641 30.6286 10.4088 30.5689V27.5138C10.4088 27.4181 11.6404 26.2403 11.8019 26.1207C11.9095 26.037 11.9394 25.9115 12.1247 25.9593V30.5689H23.6037V23.9744C23.6037 23.8847 24.7337 22.8026 24.8891 22.689C24.9967 22.6053 25.0266 22.4798 25.212 22.5276V22.5156ZM34.437 30.5569C34.6462 30.0427 33.8451 29.0563 33.4206 29.0563H25.212V30.5569H34.437Z" fill="#0D4155"/>
<path d="M140.649 22.6226V32.1705H138.341C138.275 32.1705 137.845 33.0015 137.576 33.2287C136.242 34.3347 134.347 33.701 133.714 32.1705H109.805C109.386 32.2542 109.572 32.864 109.488 33.2526C109.327 34.0179 108.346 35.0701 107.551 35.0701H104.604C105.16 34.6157 106.003 34.6336 106.684 34.3048C107.593 33.8684 107.946 33.2107 108.035 32.2243C108.107 31.465 107.88 29.9583 108.059 29.3545C108.155 29.0317 109.231 28.2305 109.542 27.9914V30.5682H121.344V27.5131C121.344 27.3995 122.749 26.15 122.952 25.9586V27.4593H129.869C130.772 27.4593 131.908 28.6012 132.183 29.4382C132.255 29.6534 132.356 30.5203 132.404 30.5562C132.452 30.5981 133.588 30.5921 133.72 30.5562C133.905 30.4964 133.971 30.1497 134.114 29.9823C135.274 28.6311 136.816 28.6431 137.976 29.9823C138.347 30.4067 138.156 30.7236 139.046 30.5741V23.8721L140.655 22.6405L140.649 22.6226ZM130.784 30.5562C130.826 30.054 130.15 29.0556 129.66 29.0556H122.952V30.5562H130.784ZM136.003 30.5921C134.951 30.6519 135.041 32.3618 136.195 32.1705C137.056 32.027 136.966 30.5383 136.003 30.5921Z" fill="#0D4155"/>
<path d="M79.282 30.5562C79.3477 30.4964 78.7618 29.0197 78.5047 28.9121C77.7634 28.6012 74.6186 29.0675 74.23 28.7925C74.0207 28.643 74.1762 27.7343 74.1284 27.4473H79.1146C79.1863 27.4473 79.8021 27.8359 79.9037 27.9435C80.4119 28.4936 80.6032 30.5562 81.3685 30.5562H84.4236V27.3935C84.4236 27.3038 85.5536 26.2217 85.709 26.1081C85.8166 26.0244 85.8465 25.8989 86.0318 25.9467V30.5562H88.6086V23.8542C88.6086 23.7525 89.9598 22.6584 90.2169 22.6226V32.1705H62.0575C61.8243 32.1705 61.1966 31.4351 61.1487 31.1481C60.8259 29.1094 61.3819 26.2994 61.1368 24.177C61.2025 23.6987 62.1711 22.9932 62.5358 22.6285V29.6534C62.5358 29.9524 62.8706 30.5682 63.2353 30.5682H79.276L79.282 30.5562Z" fill="#0D4155"/>
<path d="M120.75 39.9978C121.988 40.1472 122.825 40.9125 122.849 42.1979C122.873 43.2621 122.305 43.4773 121.767 44.2366C123.309 44.9899 123.214 47.5488 121.581 48.1287C121.42 48.1885 120.756 48.3679 120.643 48.3679H115.603C115.603 48.3679 115.441 48.2184 115.441 48.2064V39.9978C117.121 40.1412 119.112 39.8064 120.75 39.9978ZM117.265 43.4295H120.111C121.139 43.4295 121.139 41.4984 120.111 41.4984H117.265V43.4295ZM117.265 46.8612H120.003C121.253 46.8612 121.061 44.9301 120.326 44.9301H117.271V46.8612H117.265Z" fill="#0D4155"/>
<path d="M45.4922 32.1645H41.9529C42.0007 33.1629 41.642 34.251 40.7213 34.7413C40.5897 34.813 39.95 35.0581 39.8604 35.0581H37.0145C36.9607 34.7413 37.0863 34.8848 37.2656 34.8309C38.7543 34.3766 40.3865 34.1673 40.3386 32.1645H37.2298V29.9643C37.2298 29.8986 37.5646 29.211 37.6363 29.0855C38.4972 27.6028 40.3207 27.0467 41.9469 27.0169V30.5562H43.878V23.9618C43.878 23.8542 45.2411 22.7122 45.4863 22.6226V32.1705L45.4922 32.1645ZM40.3386 28.8403C39.4359 28.7686 38.551 29.6594 38.6228 30.5562H40.3386V28.8403Z" fill="#0D4155"/>
<path d="M106.855 24.7642V32.1657H96.8233C96.5961 32.1657 96.0281 31.4782 95.9384 31.2271C95.7591 30.7428 95.7292 29.3139 95.8069 28.7938C95.8846 28.2736 96.907 27.5143 97.3016 27.1257V29.6487C97.3016 29.9476 97.6364 30.5634 98.0011 30.5634H105.241V29.9177H102.132V27.7176C102.132 27.5442 102.688 26.5817 102.838 26.3844C103.741 25.2245 105.433 24.7462 106.849 24.7642H106.855ZM105.247 26.5876C104.35 26.5159 103.46 27.4007 103.531 28.3035H105.247V26.5876Z" fill="#0D4155"/>
<path d="M2.20014 39.9976L5.52426 45.7909L5.47046 39.9976H7.29394V48.3677H5.30903L1.71587 42.2515L1.82349 48.3677H0V39.9976H2.20014Z" fill="#0D4155"/>
<path d="M78.3207 43.6449V48.2066C78.3207 48.2066 78.1712 48.368 78.1592 48.368H76.6048V43.6508H74.7813V48.2125C74.7813 48.4577 73.0654 48.4577 73.0654 48.2125V42.2578H80.198C80.8377 42.2578 81.5671 43.0231 81.7285 43.6269C81.9377 44.4161 81.9676 47.1603 81.866 48.0033C81.7883 48.631 80.6643 48.3799 80.192 48.2723C79.9528 47.9256 80.3295 44.8346 80.0963 44.0753C79.8811 43.3758 78.8647 43.597 78.3207 43.6508V43.6449Z" fill="#0D4155"/>
<path d="M71.8814 48.3676C71.5526 48.3018 70.3987 48.535 70.2851 48.1942C70.1058 47.3393 70.5362 44.4337 70.1058 43.8657C69.7769 43.4352 68.3361 43.4472 68.3361 43.7043V48.3676H66.7278V43.6505H64.7967V48.3676C64.5337 48.3317 63.1885 48.4812 63.1885 48.2062V42.2515H70.321C70.4585 42.2515 71.2596 42.652 71.3912 42.7895C71.5167 42.9151 71.8754 43.5787 71.8754 43.7043V48.3676H71.8814Z" fill="#0D4155"/>
<path d="M40.7679 44.6134C40.8397 44.2009 40.3614 43.5432 39.9608 43.5432H36.5829V42.2578H40.8217C41.3897 42.2578 42.1789 43.1008 42.3283 43.6449C42.3523 43.7345 42.4838 44.4101 42.4838 44.4579V48.2125C42.4838 48.2125 42.3343 48.374 42.3224 48.374H37.7069C37.677 48.374 37.2345 48.2125 37.1508 48.1767C35.9013 47.6147 35.8116 45.5162 37.0014 44.8765C37.097 44.8227 37.6471 44.6134 37.7069 44.6134H40.7619H40.7679ZM40.7679 45.7912H38.6754C38.2868 45.7912 37.7726 46.2097 37.9161 46.6521C37.946 46.7478 38.1911 47.0766 38.2509 47.0766H40.7739V45.7912H40.7679Z" fill="#0D4155"/>
<path d="M55.5715 39.9976V41.4982H52.0859C52.0022 41.4982 51.494 41.7971 51.3984 41.8868C50.5554 42.6581 50.3641 45.9882 51.3984 46.592C51.4761 46.6398 52.1517 46.867 52.1935 46.867H55.5715V48.3677H52.0859C51.8049 48.3677 50.6989 48.0448 50.4179 47.8894C48.1221 46.6458 48.152 41.8151 50.3461 40.5117C50.5793 40.3742 51.6495 39.9976 51.8707 39.9976H55.5715Z" fill="#0D4155"/>
<path d="M14.4868 48.368H9.81748C9.7577 48.368 9.21364 48.1587 9.112 48.1049C7.98204 47.4951 7.92225 45.552 9.04026 44.9123C9.15983 44.8466 9.73378 44.6134 9.81151 44.6134H12.759C12.8785 44.1949 12.4959 43.5432 12.0595 43.5432H8.68154V42.2578H12.9204C13.4585 42.2578 14.4748 43.2802 14.4748 43.8123V48.374L14.4868 48.368ZM12.8726 45.7912H10.6724C10.6425 45.7912 10.1284 46.0064 10.1104 46.0303C9.85933 46.2755 9.97293 47.0766 10.3556 47.0766H12.8785V45.7912H12.8726Z" fill="#0D4155"/>
<path d="M129.706 48.3676H125.037C125.007 48.3676 124.564 48.2122 124.481 48.1703C123.201 47.6083 123.129 45.5158 124.331 44.8701C124.427 44.8163 124.977 44.607 125.037 44.607H127.984C128.146 44.1706 127.721 43.5369 127.285 43.5369H123.907V42.2515H128.146C128.271 42.2515 128.923 42.6102 129.06 42.7297C129.21 42.8553 129.7 43.5787 129.7 43.6983V48.3616L129.706 48.3676ZM128.098 45.7908H125.898C125.114 45.7908 125.001 47.0762 125.575 47.0762H128.098V45.7908Z" fill="#0D4155"/>
<path d="M108.572 48.368H103.902C103.537 48.368 102.874 47.8718 102.665 47.5669C102.109 46.7538 102.294 45.3607 103.197 44.8765C103.292 44.8227 103.842 44.6134 103.902 44.6134H106.957C107.029 44.2009 106.551 43.5432 106.15 43.5432H102.772V42.2578H107.011C107.483 42.2578 108.566 43.2084 108.566 43.7046V48.368H108.572ZM106.963 45.7912H104.763C103.938 45.7912 103.998 47.0766 104.44 47.0766H106.963V45.7912Z" fill="#0D4155"/>
<path d="M139.255 39.9976V45.0375C139.649 44.7805 141.586 42.2515 141.778 42.2515H143.763L141.084 45.199C141.084 45.3724 143.153 47.4111 143.44 47.7758C143.565 47.9372 143.763 48.1464 143.763 48.3617H141.67C141.479 48.3617 139.667 45.7311 139.255 45.468V48.3617H137.646V39.9976H139.255Z" fill="#0D4155"/>
<path d="M57.1859 25.9469V32.1707H55.5776V28.0932C55.1352 28.1829 54.2563 28.7329 54.1248 29.1574C53.8976 29.8928 54.1547 31.5429 54.077 32.4337C54.0172 33.1033 53.7302 34.0121 53.2161 34.4665C53.0487 34.6159 52.1519 35.0643 51.9904 35.0643H49.043C49.0729 34.885 49.2522 34.873 49.3897 34.8192C50.1849 34.5143 51.1773 34.5143 51.835 33.8267C53.0606 32.5533 51.7154 29.8868 52.9112 28.2487C53.784 27.0529 55.763 26.1203 57.2038 25.9409L57.1859 25.9469Z" fill="#0D4155"/>
<path d="M25.6245 42.0659C30.3656 41.8507 30.258 48.8278 25.4811 48.469C21.5292 48.1761 21.6487 42.2453 25.6245 42.0659ZM25.6186 43.453C23.8848 43.7041 23.9445 46.7532 25.4033 47.0521C28.0758 47.6021 27.9921 43.1122 25.6186 43.453Z" fill="#0D4155"/>
<path d="M58.9851 42.0659C63.7321 41.7909 63.7261 48.8756 58.8476 48.469C54.9854 48.1462 55.0272 42.2931 58.9851 42.0659ZM58.9791 43.453C57.1436 43.7698 57.2154 47.4467 59.5889 47.07C61.4124 46.7831 61.1852 43.0763 58.9791 43.453Z" fill="#0D4155"/>
<path d="M35.4072 48.3676H33.8527C33.7332 48.3676 33.6973 48.1045 33.6853 47.9969C33.5897 47.1838 33.8766 44.2902 33.5897 43.8298C33.5538 43.776 33.3565 43.6505 33.3146 43.6505H31.4374V48.3676H29.8291V42.2515H33.8527C34.0082 42.2515 34.7675 42.6401 34.9169 42.7955C35.0724 42.9629 35.4132 43.7222 35.4132 43.9135V48.3676H35.4072Z" fill="#0D4155"/>
<path d="M88.0845 42.2516V43.537H85.2386C84.8381 43.537 84.3658 44.1946 84.4315 44.6072H88.0785V45.8926H84.4315C84.4196 46.2932 84.5391 46.7834 84.9636 46.9149C85.0414 46.9388 85.7349 47.0704 85.7767 47.0704H88.0845C88.0008 47.5845 88.3595 48.284 87.7138 48.3618C86.7453 48.4813 84.7006 48.4036 83.8456 47.9313C82.2254 47.0405 82.1836 43.9376 83.5766 42.8315C83.744 42.7 84.5571 42.2456 84.7065 42.2456H88.0845V42.2516Z" fill="#0D4155"/>
<path d="M136.469 48.3677H134.86V44.4517C134.86 44.2425 134.639 43.6446 134.376 43.6446H132.499V48.3618H130.891V42.2456H134.914C135.052 42.2456 135.853 42.6462 135.984 42.7837C136.11 42.9092 136.469 43.5729 136.469 43.6984V48.3618V48.3677Z" fill="#0D4155"/>
<path d="M17.8107 39.9967V42.2507H19.5266V43.4284H17.8107V46.3759C17.8107 47.0156 19.0423 47.1352 19.5266 47.0754V48.3608H17.6493C17.1232 48.3608 16.328 47.6135 16.2264 47.1053C16.0949 46.4596 16.346 43.8051 16.1546 43.5301C15.9992 43.3029 15.0904 43.5002 15.0187 43.4284C14.9768 43.3866 14.9768 42.2865 15.0187 42.2447C15.0785 42.1849 16.1965 42.3702 16.1965 42.0832V39.9907H17.8047L17.8107 39.9967Z" fill="#0D4155"/>
<path d="M99.0233 42.2516V43.537C97.4808 43.6147 95.3643 43.1185 95.3643 45.3067C95.3643 46.048 95.9144 46.9687 96.7155 46.9687H99.0233V48.3618H96.3927C95.9383 48.3618 94.9937 47.9612 94.617 47.6682C93.224 46.5622 93.2838 43.6805 94.7964 42.694C94.9638 42.5864 95.7051 42.2456 95.8486 42.2456H99.0113L99.0233 42.2516Z" fill="#0D4155"/>
<path d="M92.3165 42.2507C93.3627 42.436 93.2372 44.0263 93.2312 44.8275C92.9024 44.7677 91.9458 44.9351 91.7246 44.7796C91.3898 44.5465 92.1311 43.01 90.4452 43.4344V48.3668H88.8369V42.2507C89.8772 42.3822 91.336 42.0773 92.3225 42.2507H92.3165Z" fill="#0D4155"/>
<path d="M143.763 22.6226V32.1705H142.154V23.8601C142.154 23.7585 143.505 22.6644 143.763 22.6285V22.6226Z" fill="#0D4155"/>
<path d="M92.9081 22.6226V32.1645H91.2998V23.8542L92.9081 22.6226Z" fill="#0D4155"/>
<path d="M48.1698 22.6226V32.1705H46.5615V23.8063C47.1474 23.5791 47.5659 22.8438 48.1698 22.6285V22.6226Z" fill="#0D4155"/>
<path d="M45.2764 39.9976H43.5605V48.3617H45.2764V39.9976Z" fill="#0D4155"/>
<path d="M111.466 39.9976H109.75V48.3617H111.466V39.9976Z" fill="#0D4155"/>
<path d="M60.0789 27.9869V32.6503C60.0789 33.1166 59.7142 33.9596 59.3853 34.3123C59.1402 34.5754 58.3211 35.0597 57.9863 35.0597H55.1405C55.0867 34.7428 55.2122 34.8863 55.3916 34.8325C56.7308 34.4259 58.2315 34.2466 58.4586 32.5307C58.5722 31.6698 58.2793 30.0436 58.4885 29.3441C58.5483 29.1468 58.8712 28.9555 59.0027 28.7821L60.0789 27.981V27.9869Z" fill="#0D4155"/>
<path d="M21.8877 42.2515H20.1719V48.3676H21.8877V42.2515Z" fill="#0D4155"/>
<path d="M101.493 42.2515H99.8848V48.26H101.493V42.2515Z" fill="#0D4155"/>
<path d="M85.4762 22.9648C87.2818 22.4327 87.509 25.2905 85.5838 24.848C84.7229 24.6507 84.8066 23.1621 85.4762 22.9648Z" fill="#0D4155"/>
<path d="M49.9639 35.7284C51.8232 35.1784 51.895 38.1498 50.0715 37.6117C49.3421 37.3964 49.2225 35.9436 49.9639 35.7284Z" fill="#0D4155"/>
<path d="M52.541 35.7277C54.1074 35.369 54.203 37.3598 53.3541 37.6109C51.8116 38.0653 51.5126 35.9608 52.541 35.7277Z" fill="#0D4155"/>
<path d="M1.47045 35.729C3.31785 35.2926 3.24012 38.1264 1.49436 37.5884C0.669308 37.3313 0.6992 35.9143 1.47045 35.729Z" fill="#0D4155"/>
<path d="M103.776 22.6539C103.979 22.4924 104.404 22.4865 104.661 22.5104C105.803 22.63 105.791 24.3877 104.541 24.4355C103.585 24.4714 103.172 23.1381 103.776 22.6479V22.6539Z" fill="#0D4155"/>
<path d="M5.11778 37.3905C4.49003 38.1378 2.85785 37.3427 3.49757 36.1409C4.13728 34.9392 6.03849 36.3024 5.11778 37.3905Z" fill="#0D4155"/>
<path d="M83.0069 22.9643C84.8961 22.4023 84.8602 25.3677 83.1145 24.8475C82.3851 24.6323 82.2655 23.1795 83.0069 22.9643Z" fill="#0D4155"/>
<path d="M11.7725 22.7605C12.0594 22.9936 12.1312 23.8904 11.9219 24.1834C11.4676 24.8171 10.1343 24.5301 10.0985 23.5257C10.0626 22.6289 11.2464 22.33 11.7785 22.7605H11.7725Z" fill="#0D4155"/>
<path d="M21.8877 39.9976H20.1719V41.6058H21.8877V39.9976Z" fill="#0D4155"/>
<path d="M99.8848 41.6058V39.9976H101.439C101.684 39.9976 101.684 41.6058 101.439 41.6058H99.8848Z" fill="#0D4155"/>
<path d="M78.5649 33.1633C79.6829 32.0453 81.0042 34.377 79.5335 34.7177C78.4214 34.9748 77.9372 33.791 78.5649 33.1633Z" fill="#0D4155"/>
<rect x="150" y="15" width="1.25" height="35" fill="#0F3D4E"/>
</svg>
