<svg width="222" height="50" viewBox="0 0 368 83" fill="none" xmlns="http://www.w3.org/2000/svg">
<path d="M255.453 82.5622H256.25V34.3018H255.453V82.5622Z" fill="#0D4155"/>
<path d="M18.6569 38.6455C19.6517 38.6455 20.1621 39.1872 20.209 40.234C20.2559 41.2288 19.7454 41.7288 18.6569 41.7549C18.1829 41.7809 17.7975 41.6247 17.5007 41.3018C17.2194 40.9736 17.0684 40.5934 17.0684 40.1663C17.0684 39.1559 17.5996 38.6455 18.6569 38.6455Z" fill="#0D4155"/>
<path d="M84.8438 60.6611C85.2813 60.6611 85.6302 60.8226 85.9062 61.1455C86.1979 61.4736 86.3333 61.8434 86.3333 62.2757C86.3333 63.3382 85.8385 63.8799 84.8438 63.9059C84.4063 63.9163 84.0208 63.7705 83.7031 63.4424C83.3854 63.1038 83.2344 62.7288 83.2344 62.2757C83.2344 61.1976 83.7708 60.6611 84.8438 60.6611Z" fill="#0D4155"/>
<path d="M88.9694 60.6924C89.3965 60.6924 89.7819 60.8643 90.1152 61.208C90.3861 61.5518 90.5319 61.9111 90.5579 62.3018C90.5736 62.7288 90.4538 63.1038 90.1829 63.4215C89.9121 63.7341 89.5111 63.9007 88.9694 63.9007C88.4798 63.9007 88.084 63.7341 87.8027 63.4215C87.5267 63.1038 87.3809 62.7288 87.3809 62.3018C87.3809 61.8903 87.5111 61.5205 87.7715 61.1872C88.0319 60.8538 88.4277 60.6924 88.9694 60.6924Z" fill="#0D4155"/>
<path d="M140.37 39.1924C140.807 39.1924 141.156 39.3538 141.438 39.6872C141.724 40.0101 141.859 40.3851 141.859 40.8174C141.859 41.2393 141.745 41.6143 141.505 41.9215C141.271 42.2393 140.896 42.4059 140.37 42.432C139.922 42.4476 139.547 42.2913 139.229 41.9632C138.906 41.6247 138.75 41.2393 138.75 40.8174C138.75 39.734 139.302 39.1924 140.37 39.1924Z" fill="#0D4155"/>
<path d="M144.495 39.1924C144.922 39.1924 145.307 39.3591 145.641 39.708C145.906 40.0465 146.052 40.4059 146.083 40.7913C146.125 41.8538 145.594 42.3955 144.495 42.3955C143.979 42.3955 143.578 42.2445 143.313 41.9528C143.042 41.6611 142.906 41.2705 142.906 40.7913C142.906 40.3643 143.036 39.9841 143.292 39.6663C143.547 39.3434 143.953 39.1924 144.495 39.1924Z" fill="#0D4155"/>
<path d="M175.678 38.4634C176.089 38.4634 176.469 38.6144 176.829 38.9269C177.094 39.2446 177.245 39.6196 177.266 40.0415C177.292 40.4946 177.173 40.8696 176.912 41.1561C176.646 41.4478 176.245 41.5936 175.678 41.5936C175.167 41.5936 174.761 41.4478 174.501 41.1561C174.235 40.8696 174.1 40.4946 174.1 40.0415C174.1 38.9894 174.626 38.4634 175.678 38.4634Z" fill="#0D4155"/>
<path d="M171.729 48.1873V50.9217H176.995V52.078H165.521C163.984 52.078 163.615 51.5363 163.615 50.1717V46.1925L161.203 48.7082V52.1978C161.203 53.5103 162.13 54.7186 163.63 54.7186H179.63V42.3228C174.333 42.3228 171.729 45.6092 171.729 48.1873ZM176.995 48.2915H173.958C173.958 46.4998 175.547 45.2186 176.995 45.2186V48.2915Z" fill="#0D4155"/>
<path d="M241.631 38.5728V54.7186H238.995V40.8175L241.631 38.5728Z" fill="#0D4155"/>
<path d="M233.802 40.8175V52.078H232.464C232.172 51.328 231.682 50.6821 231 50.1717C230.318 49.6717 229.552 49.4165 228.719 49.4165C227.859 49.4165 227.094 49.6717 226.406 50.1613C225.719 50.6613 225.245 51.2967 224.974 52.078H222.474C222.453 50.5936 221.99 49.3644 221.094 48.3696C220.125 47.3384 218.839 46.8228 217.24 46.8228H206.703V44.1925L204.078 46.8228V52.078H184.198V47.5884L181.604 50.0467V55.0207C181.604 56.2134 181.036 57.3332 179.938 58.0467C178.839 58.7498 175.938 59.3644 175.938 59.3644V59.5415H179.76C182.594 59.5415 184.198 57.7655 184.198 55.0207V54.7186H224.974C225.245 55.4894 225.714 56.1144 226.391 56.604C227.068 57.0988 227.833 57.354 228.682 57.354C229.542 57.354 230.307 57.1144 230.984 56.6196C231.656 56.1457 232.125 55.4998 232.391 54.7342H236.432V38.5728L233.802 40.8175ZM206.703 52.078V49.4478H217.24C218.839 49.4478 219.719 50.328 219.87 52.078H206.703ZM229.63 54.3384C229.385 54.5936 229.078 54.7186 228.719 54.7186C228.359 54.7186 228.042 54.5936 227.766 54.3488C227.505 54.0936 227.37 53.7967 227.37 53.4425C227.37 53.0832 227.5 52.755 227.75 52.4894C228.016 52.2238 228.318 52.078 228.682 52.078C229.047 52.078 229.365 52.2134 229.615 52.4738C229.87 52.7342 230 53.0415 230 53.3957C230 53.7603 229.875 54.0675 229.63 54.3384Z" fill="#0D4155"/>
<path d="M156.094 38.5728V54.7186H153.453V40.8175L156.094 38.5728Z" fill="#0D4155"/>
<path d="M96.4538 59.5467H92.6309V59.3644C92.6309 59.3644 95.5319 58.7446 96.6361 58.0415C97.735 57.3384 98.2975 56.2134 98.2975 55.0207V50.0467L100.902 47.5884V55.0207C100.902 57.7655 99.2871 59.5467 96.4538 59.5467Z" fill="#0D4155"/>
<path d="M92.0889 45.6768C89.4535 47.0674 88.1305 48.7653 88.1305 50.7757V54.484H88.1514V55.0205C88.1514 56.2132 87.5837 57.3382 86.4743 58.0413C85.3805 58.7445 82.4795 59.3643 82.4795 59.3643V59.5465H86.3024C89.1357 59.5465 90.792 57.7653 90.792 55.0205V50.5518C90.8076 50.0413 90.9066 49.6038 91.141 49.2913C91.4118 48.9215 91.8701 48.557 92.5316 48.1663C92.792 48.0049 93.0889 47.859 93.4066 47.6924V54.7184H96.0368V44.1924C94.5055 44.5934 93.1878 45.0882 92.0889 45.6768Z" fill="#0D4155"/>
<path d="M3.1875 60.6611C3.61458 60.6611 3.97396 60.8226 4.25 61.1455C4.54167 61.4736 4.67188 61.8434 4.67188 62.2757C4.67188 63.3382 4.18229 63.8799 3.1875 63.9059C2.74479 63.9163 2.35417 63.7705 2.03646 63.4424C1.71875 63.1038 1.5625 62.7288 1.5625 62.2757C1.5625 61.1976 2.11458 60.6611 3.1875 60.6611Z" fill="#0D4155"/>
<path d="M7.29688 60.6924C7.73438 60.6924 8.11979 60.8643 8.44792 61.208C8.71875 61.5518 8.86979 61.9111 8.89063 62.3018C8.91667 62.7288 8.79167 63.1038 8.52083 63.4215C8.25521 63.7341 7.83854 63.9007 7.29688 63.9007C6.8125 63.9007 6.42187 63.7341 6.14583 63.4215C5.85417 63.1038 5.71875 62.7288 5.71875 62.3018C5.71875 61.8903 5.84896 61.5205 6.10417 61.1872C6.375 60.8538 6.76563 60.6924 7.29688 60.6924Z" fill="#0D4155"/>
<path d="M80.9896 38.5728V54.7186H78.3594V40.8175L80.9896 38.5728Z" fill="#0D4155"/>
<path d="M133.224 56.104C132.703 56.104 132.333 56.2446 132.109 56.5103C131.88 56.7759 131.766 57.1144 131.766 57.5207C131.766 58.5311 132.245 59.0259 133.224 59.005C133.734 58.9842 134.12 58.8228 134.37 58.5311C134.609 58.2394 134.729 57.9269 134.698 57.5884C134.661 56.5988 134.167 56.104 133.224 56.104Z" fill="#0D4155"/>
<path d="M148.964 40.8175V52.078H144.568V44.1925L141.932 46.8228V52.078H137.536C136.818 52.078 136.333 51.9321 136.083 51.6509C135.677 51.1509 135.359 50.4061 135.104 49.4165C135.021 48.8332 134.771 48.2811 134.37 47.7655C133.964 47.2446 133.234 46.8228 132.26 46.8228H124.719V48.9946H131.297C132.172 48.9946 132.578 49.8123 132.844 50.5311C133.161 51.4425 133.391 51.9478 133.526 52.078H107.083C105.547 52.078 105.177 51.5363 105.177 50.1717V38.5728L102.766 41.0936V52.1978C102.766 53.5103 103.693 54.7238 105.193 54.7238H151.594V38.5728L148.964 40.8175Z" fill="#0D4155"/>
<path d="M59.2559 48.3177C58.3027 47.3281 57.0267 46.8229 55.4017 46.8229H42.2715V38.4062L39.6413 41.0312V52.0729H20.2454V44.1927L17.61 46.8229V52.0729H16.2767C14.7715 52.0729 14.3965 51.5469 14.3757 50.2656V44.1927C12.8444 44.5937 11.5267 45.0833 10.4225 45.6771C7.79753 47.0677 6.47461 48.7656 6.47461 50.776V54.4844H6.48503V55.0208C6.48503 56.2135 5.91211 57.3333 4.81836 58.0417C3.7194 58.7448 0.818359 59.3646 0.818359 59.3646V59.5469H4.63607C7.47461 59.5469 9.12565 57.7708 9.12565 55.0208V50.5521C9.14648 50.0417 9.24544 49.6042 9.48503 49.2917C9.74544 48.9167 10.209 48.5573 10.8704 48.1719C11.1257 48.0156 11.4069 47.875 11.7038 47.7188V52.1979C11.7038 53.5 12.6257 54.6979 14.1048 54.7083V54.7188H60.6725V52.0729C60.6725 50.5781 60.1934 49.3281 59.2559 48.3177ZM42.2715 52.0729V49.4479H55.4017C57.0527 49.4479 57.9277 50.3281 58.0371 52.0729H42.2715Z" fill="#0D4155"/>
<path d="M73.8646 40.8175V52.078H70.4688L70.5 46.1509C65.2031 46.1509 62.5938 49.4269 62.5938 52.005V54.7446H67.8698V55.1717C67.8229 56.3123 67.2656 57.3748 66.2188 58.0467C65.1198 58.7498 62.2188 59.3644 62.2188 59.3644V59.5415H66.0417C68.7552 59.5415 70.3333 57.8853 70.4531 55.3228V54.7186H76.5V38.5728L73.8646 40.8175ZM67.8698 52.1092H64.8333C64.8333 50.3228 66.4115 49.0415 67.8698 49.0415V52.1092Z" fill="#0D4155"/>
<path d="M3.01042 81.854H0V67.9321H3.72396L9.39583 77.953L9.28125 67.9321H12.224V81.854H8.85938L2.89062 71.3332L3.01042 81.854Z" fill="#0D4155"/>
<path d="M19.1201 73.7552H14.6097V71.6406H20.1305C22.9274 71.6406 24.3285 72.9167 24.3285 75.4635V81.8542H17.1045C16.1253 81.8542 15.3545 81.5833 14.7816 81.0313C14.2139 80.5 13.9326 79.7604 13.9326 78.8229C13.9326 77.5938 14.3389 76.724 15.1462 76.2188C15.7712 75.8438 16.7243 75.6563 18.0212 75.6563H21.5889C21.5889 74.9427 21.4066 74.4531 21.0576 74.1667C20.7087 73.8958 20.0628 73.7552 19.1201 73.7552ZM18.2139 79.8125H21.5889V77.6823H18.4066C17.3337 77.6823 16.792 78.0417 16.7712 78.7552C16.766 79.1979 16.9066 79.5104 17.2035 79.6667C17.3962 79.7708 17.7295 79.8125 18.2139 79.8125Z" fill="#0D4155"/>
<path d="M27.1986 73.6769H25.3184V71.6405H27.1986V67.9321H29.8913V71.6405H32.7819V73.6769H29.8913V77.8019C29.8913 78.6405 30.0684 79.1873 30.4173 79.4478C30.7663 79.6925 31.459 79.8123 32.5059 79.8123H32.7819V81.854H30.3184C29.3132 81.854 28.5371 81.578 28.0007 81.005C27.4642 80.4478 27.1986 79.6769 27.1986 78.6717V73.6769Z" fill="#0D4155"/>
<path d="M33.9688 67.9321H36.75V70.4582H33.9688V67.9321ZM33.9688 71.6405H36.75V81.854H33.9688V71.6405Z" fill="#0D4155"/>
<path d="M43.4482 82.0623C41.5524 82.0623 40.1253 81.4634 39.1722 80.2603C38.4118 79.3123 38.0264 78.13 38.0264 76.7394C38.0264 75.3123 38.4535 74.1248 39.2868 73.1561C40.2712 72.005 41.6618 71.4321 43.4482 71.4321C44.9378 71.4321 46.167 71.8488 47.1514 72.6925C48.2868 73.6457 48.8597 75.005 48.8597 76.7394C48.8597 78.2707 48.3962 79.5311 47.4587 80.5207C46.4847 81.5519 45.1514 82.0623 43.4482 82.0623ZM43.417 79.8592C44.0732 79.8592 44.6462 79.6561 45.1149 79.2498C45.7399 78.7134 46.0472 77.8905 46.0472 76.7707C46.0472 75.7759 45.7972 74.9946 45.292 74.4373C44.8285 73.9321 44.2243 73.6717 43.4743 73.6717C42.6982 73.6717 42.068 73.953 41.5732 74.4894C41.0785 75.0415 40.8337 75.7967 40.8337 76.7707C40.8337 77.7082 41.0785 78.4478 41.568 79.0103C42.0524 79.5728 42.667 79.8592 43.417 79.8592Z" fill="#0D4155"/>
<path d="M52.8076 81.8542H50.1357V71.6406H55.193C56.7191 71.6406 57.8076 71.9271 58.4743 72.4948C59.1462 73.0625 59.4691 74.0313 59.4691 75.3854V81.8542H56.7451V75.7344C56.7451 74.9896 56.641 74.4896 56.443 74.2552C56.2399 74.0313 55.7503 73.9115 54.9795 73.9115H52.8076V81.8542Z" fill="#0D4155"/>
<path d="M66.0785 73.7552H61.5628V71.6406H67.0889C69.8962 71.6406 71.292 72.9167 71.292 75.4635V81.8542H64.0628C63.0785 81.8542 62.3024 81.5833 61.7399 81.0312C61.1722 80.5 60.8857 79.7604 60.8857 78.8229C60.8857 77.5938 61.2972 76.724 62.1045 76.2188C62.7243 75.8438 63.6878 75.6562 64.9795 75.6562H68.542C68.542 74.9427 68.3701 74.4531 68.016 74.1667C67.6722 73.8958 67.016 73.7552 66.0785 73.7552ZM65.1722 79.8125H68.542V77.6823H65.3649C64.2868 77.6823 63.7503 78.0417 63.7347 78.7552C63.7243 79.1979 63.8649 79.5104 64.1566 79.6667C64.3493 79.7708 64.6878 79.8125 65.1722 79.8125Z" fill="#0D4155"/>
<path d="M73.2451 67.9321H76.0316V81.854H73.2451V67.9321Z" fill="#0D4155"/>
<path d="M93.4167 67.9321V70.3019H88.6094C87.5 70.3019 86.6667 70.6509 86.125 71.3332C85.5 72.13 85.1771 73.4738 85.1771 75.3644C85.1771 77.0728 85.5 78.2238 86.1458 78.8071C86.6146 79.2186 87.4271 79.4321 88.6094 79.4321H93.4167V81.854H88.4896C84.1563 81.854 81.9844 79.6144 81.9844 75.1509C81.9844 72.8488 82.4479 71.1144 83.3802 69.9425C84.4427 68.5988 86.1823 67.9321 88.5729 67.9321H93.4167Z" fill="#0D4155"/>
<path d="M99.6309 82.0623C97.7298 82.0623 96.3079 81.4634 95.3444 80.2603C94.5892 79.3123 94.209 78.13 94.209 76.7394C94.209 75.3123 94.6257 74.1248 95.4694 73.1561C96.4434 72.005 97.834 71.4321 99.6309 71.4321C101.115 71.4321 102.35 71.8488 103.324 72.6925C104.469 73.6457 105.037 75.005 105.037 76.7394C105.037 78.2707 104.563 79.5311 103.641 80.5207C102.657 81.5519 101.324 82.0623 99.6309 82.0623ZM99.5892 79.8592C100.245 79.8592 100.813 79.6561 101.303 79.2498C101.912 78.7134 102.225 77.8905 102.225 76.7707C102.225 75.7759 101.975 74.9946 101.469 74.4373C101.001 73.9321 100.402 73.6717 99.6465 73.6717C98.8757 73.6717 98.2454 73.953 97.7454 74.4894C97.2663 75.0415 97.0111 75.7967 97.0111 76.7707C97.0111 77.7082 97.2559 78.4478 97.7402 79.0103C98.2246 79.5728 98.834 79.8592 99.5892 79.8592Z" fill="#0D4155"/>
<path d="M109.005 81.8542H106.328V71.6406H116.651C118.089 71.6406 119.13 71.9167 119.797 72.4635C120.536 73.0313 120.901 74.0104 120.901 75.3854V81.8542H118.203V75.7344C118.203 75.0573 118.109 74.599 117.911 74.3385C117.667 74.0104 117.188 73.8594 116.484 73.8594C116.271 73.8594 116.052 73.8594 115.828 73.8906H115.344C115.146 73.8906 115.021 73.9063 114.953 73.9115V81.8542H112.182V73.9115H109.005V81.8542Z" fill="#0D4155"/>
<path d="M125.61 81.8542H122.933V71.6406H133.261C134.693 71.6406 135.74 71.9167 136.396 72.4635C137.131 73.0313 137.495 74.0104 137.495 75.3854V81.8542H134.808V75.7344C134.808 75.0573 134.714 74.599 134.516 74.3385C134.276 74.0104 133.797 73.8594 133.084 73.8594C132.881 73.8594 132.657 73.8594 132.422 73.8906H131.938C131.75 73.8906 131.615 73.9063 131.558 73.9115V81.8542H128.787V73.9115H125.61V81.8542Z" fill="#0D4155"/>
<path d="M147.98 79.7448V81.8542H144.053C140.61 81.8542 138.896 80.1406 138.896 76.7396C138.896 75.2656 139.261 74.099 140.006 73.2135C140.881 72.1667 142.23 71.6406 144.053 71.6406H147.98V73.7552H144.423C143.542 73.7552 142.938 73.8594 142.6 74.0885C142.183 74.3542 141.949 74.8854 141.902 75.6927H147.98V77.8385H141.902C141.949 78.6146 142.136 79.125 142.443 79.3802C142.751 79.6146 143.407 79.7448 144.402 79.7448H147.98Z" fill="#0D4155"/>
<path d="M152.011 81.8542H149.334V71.6406H153.865C155.115 71.6406 155.907 71.8854 156.261 72.375C156.553 72.8281 156.693 73.7865 156.693 75.2813V75.901H154.141V75.0885C154.141 74.3385 154.053 73.9115 153.881 73.7865C153.709 73.6667 153.089 73.599 152.011 73.599V81.8542Z" fill="#0D4155"/>
<path d="M163.652 79.6667H166.485V81.8542H162.865C161.089 81.8542 159.735 81.3906 158.813 80.474C157.917 79.5938 157.475 78.3698 157.475 76.7708C157.475 73.349 159.271 71.6406 162.865 71.6406H166.485V73.8698H163.652C162.542 73.8698 161.756 74.0313 161.292 74.3385C160.646 74.7604 160.318 75.5781 160.318 76.7708C160.318 77.6563 160.501 78.3021 160.865 78.7344C161.381 79.3542 162.303 79.6667 163.652 79.6667Z" fill="#0D4155"/>
<path d="M167.896 67.9321H170.678V70.4582H167.896V67.9321ZM167.896 71.6405H170.678V81.854H167.896V71.6405Z" fill="#0D4155"/>
<path d="M177.365 73.7552H172.855V71.6406H178.381C181.178 71.6406 182.574 72.9167 182.574 75.4635V81.8542H175.355C174.37 81.8542 173.6 81.5833 173.032 81.0313C172.464 80.5 172.178 79.7604 172.178 78.8229C172.178 77.5938 172.589 76.724 173.402 76.2188C174.016 75.8438 174.98 75.6563 176.266 75.6563H179.834C179.834 74.9427 179.657 74.4531 179.308 74.1667C178.959 73.8958 178.308 73.7552 177.365 73.7552ZM176.454 79.8125H179.834V77.6823H176.646C175.579 77.6823 175.037 78.0417 175.016 78.7552C175.016 79.1979 175.152 79.5104 175.459 79.6667C175.646 79.7708 175.98 79.8125 176.454 79.8125Z" fill="#0D4155"/>
<path d="M184.537 67.9321H187.329V81.854H184.537V67.9321Z" fill="#0D4155"/>
<path d="M201.818 81.854H194.167V67.9321H201.313C202.875 67.9321 204.026 68.1196 204.756 68.4894C205.886 69.0728 206.448 70.1561 206.448 71.7655C206.448 73.078 205.761 74.1248 204.396 74.8957C205.797 75.5519 206.5 76.578 206.5 77.953C206.5 79.4478 206.047 80.4998 205.151 81.1144C204.412 81.6092 203.302 81.854 201.818 81.854ZM201.344 70.4217H197.089V73.6353H201.344C202.641 73.6353 203.292 73.1092 203.292 72.0519C203.292 70.9582 202.641 70.4217 201.344 70.4217ZM197.089 76.0988V79.3853H201.386C202.677 79.3853 203.323 78.8384 203.323 77.7707C203.323 76.6561 202.677 76.0988 201.386 76.0988H197.089Z" fill="#0D4155"/>
<path d="M212.875 73.7552H208.365V71.6406H213.886C216.683 71.6406 218.089 72.9167 218.089 75.4635V81.8542H210.865C209.881 81.8542 209.11 81.5833 208.537 81.0313C207.969 80.5 207.683 79.7604 207.683 78.8229C207.683 77.5938 208.089 76.724 208.912 76.2188C209.532 75.8438 210.49 75.6563 211.771 75.6563H215.339C215.339 74.9427 215.167 74.4531 214.813 74.1667C214.464 73.8958 213.818 73.7552 212.875 73.7552ZM211.969 79.8125H215.339V77.6823H212.167C211.089 77.6823 210.547 78.0417 210.532 78.7552C210.526 79.1979 210.667 79.5104 210.959 79.6667C211.151 79.7708 211.495 79.8125 211.969 79.8125Z" fill="#0D4155"/>
<path d="M222.755 81.8542H220.078V71.6406H225.146C226.661 71.6406 227.76 71.9271 228.422 72.4948C229.089 73.0625 229.427 74.0313 229.427 75.3854V81.8542H226.693V75.7344C226.693 74.9896 226.589 74.4896 226.391 74.2552C226.187 74.0313 225.693 73.9115 224.927 73.9115H222.755V81.8542Z" fill="#0D4155"/>
<path d="M234.074 81.854H231.381V67.9321H234.074V76.5571L238.433 71.6405H241.839L237.089 76.6196L241.839 81.854H238.193L234.074 76.8957V81.854Z" fill="#0D4155"/>
<path d="M329.052 3.73438C329.052 5.80208 327.365 7.47396 325.297 7.47396C323.24 7.47396 321.562 5.80208 321.562 3.73438C321.562 1.66667 323.24 0 325.297 0C327.365 0 329.052 1.66667 329.052 3.73438Z" fill="#067937"/>
<path d="M309.933 29.7292C309.652 29.2708 309.35 28.8125 309.021 28.3906C309.256 28.7917 309.516 29.1823 309.803 29.5625C309.839 29.6198 309.891 29.6667 309.933 29.7292Z" fill="#067937"/>
<path d="M298.271 21.6768C298.271 21.6924 298.266 21.6924 298.266 21.708C298.266 21.9736 298.276 22.2341 298.286 22.4945H298.292C298.276 22.2236 298.271 21.9476 298.271 21.6768Z" fill="#067937"/>
<path d="M305.354 21.6247C305.354 21.6403 305.36 21.6559 305.36 21.6715C305.36 20.1663 305.584 18.7132 306 17.333C306.011 17.307 306.021 17.2913 306.037 17.2653C306.021 17.2653 306.011 17.2653 306 17.2549C305.578 18.6351 305.354 20.0986 305.354 21.6247Z" fill="#067937"/>
<path d="M311.495 42.0049C311.506 42.0153 311.511 42.0153 311.516 42.0205C311.943 40.6351 312.167 39.1611 312.167 37.6455C312.167 37.6195 312.162 37.6143 312.162 37.5986C312.162 39.1143 311.933 40.5726 311.516 41.9476C311.516 41.9632 311.506 41.9841 311.495 42.0049Z" fill="#067937"/>
<path d="M306.578 27.5938C306.823 28.1667 307.083 28.724 307.385 29.2604C307.083 28.7188 306.823 28.1667 306.578 27.5938Z" fill="#067937"/>
<path d="M305.792 25.3486C305.953 25.958 306.157 26.5674 306.386 27.1559C306.151 26.5622 305.953 25.9528 305.792 25.3486Z" fill="#067937"/>
<path d="M298.271 21.6768C298.271 21.6924 298.266 21.7028 298.266 21.708C298.266 21.9476 298.276 22.1872 298.286 22.4268V22.4945H298.292C298.276 22.2236 298.271 21.9528 298.271 21.6768Z" fill="#067937"/>
<path d="M308.386 30.7603C308.376 30.7498 308.37 30.7186 308.35 30.6925C308.084 30.2394 307.818 29.8644 307.558 29.5259L307.49 29.4269L307.459 29.3853C307.719 29.8228 308.001 30.2446 308.303 30.6613C308.324 30.6978 308.37 30.7238 308.386 30.7603Z" fill="#067937"/>
<path d="M306 17.255C305.578 18.6353 305.354 20.0988 305.354 21.6248C305.354 21.6405 305.354 21.6561 305.36 21.6717C305.36 20.3228 305.552 18.9582 305.938 17.6092L306.052 17.1821C306.042 17.2186 306.037 17.2342 306.037 17.2603C306.021 17.2603 306.011 17.2603 306 17.255Z" fill="#067937"/>
<path d="M311.516 42.0207C311.51 42.0155 311.505 42.0155 311.495 42.005C311.313 42.604 311.083 43.1821 310.823 43.7342C308.469 49.005 303.182 52.6769 297.047 52.6769C288.708 52.6769 281.922 45.8957 281.922 37.5571C281.922 30.6196 286.635 24.7498 293.031 22.9946C294.115 22.6873 295.266 22.5311 296.427 22.4894C296.427 22.2342 296.417 21.9738 296.417 21.7082C296.417 19.5623 296.708 17.4373 297.276 15.3696C297.198 15.3696 297.125 15.354 297.047 15.354C295.818 15.354 294.599 15.4686 293.417 15.6561C282.901 17.4009 274.844 26.5623 274.844 37.5571C274.844 49.8019 284.807 59.7655 297.047 59.7655C302.885 59.7655 308.198 57.4998 312.167 53.8019V60.4425H319.245V36.5936H319.229C318.953 30.3592 316.094 24.7707 311.703 20.9113C310.49 19.8384 309.156 18.9009 307.724 18.1144C307.391 19.2759 307.208 20.4842 307.208 21.7082C307.208 22.7707 307.333 23.8332 307.594 24.8644C307.901 26.1144 308.38 27.2915 309.016 28.3905C309.349 28.8123 309.651 29.2707 309.932 29.729C310.729 31.0311 311.359 32.4373 311.724 33.9582C312.016 35.1144 312.167 36.3228 312.167 37.5571C312.167 37.578 312.161 37.5832 312.161 37.5988C312.161 37.6144 312.167 37.6196 312.167 37.6457C312.167 39.1613 311.943 40.6353 311.516 42.0207Z" fill="#067937"/>
<path d="M311.495 42.0049C311.506 42.0153 311.511 42.0153 311.516 42.0205C311.943 40.6351 312.167 39.1611 312.167 37.6455C312.167 37.6195 312.162 37.6143 312.162 37.5986C312.162 39.1143 311.933 40.5726 311.516 41.9476C311.516 41.9632 311.506 41.9841 311.495 42.0049Z" fill="#067937"/>
<path d="M305.354 21.708C305.354 22.3174 305.396 22.9215 305.464 23.5361C305.396 22.9372 305.354 22.3278 305.354 21.708Z" fill="#067937"/>
<path d="M298.287 22.4946C298.287 22.5259 298.287 22.5467 298.292 22.578V22.6144L298.287 22.4946Z" fill="#067937"/>
<path d="M298.271 21.6769C298.271 20.7342 298.339 19.7915 298.464 18.854C298.344 19.7655 298.271 20.7186 298.271 21.6769Z" fill="#067937"/>
<path d="M298.475 18.7448C298.61 17.7813 298.798 16.8125 299.058 15.8646L299.183 15.4219C299.167 15.4688 299.157 15.5 299.141 15.5469C298.844 16.5781 298.615 17.651 298.475 18.7448Z" fill="#067937"/>
<path d="M305.792 25.3488C305.792 25.3332 305.787 25.3228 305.787 25.3175C305.714 25.0103 305.677 24.703 305.62 24.4009C305.677 24.6925 305.714 25.0103 305.787 25.3123C305.787 25.3228 305.792 25.3332 305.792 25.3488Z" fill="#067937"/>
<path d="M306.053 17.1821C306.245 16.5884 306.464 16.0103 306.725 15.4478L306.579 15.354L306.053 17.1821Z" fill="#067937"/>
<path d="M307.458 29.3853C307.432 29.3384 307.411 29.3019 307.391 29.2603C307.401 29.2811 307.411 29.3019 307.427 29.328L307.458 29.3853Z" fill="#067937"/>
<path d="M328.641 34.3229C328.708 34.2813 328.766 34.25 328.828 34.2083V34.2031C328.828 34.2083 328.828 34.2083 328.818 34.2083C328.76 34.25 328.698 34.2917 328.641 34.3229Z" fill="#067937"/>
<path d="M342.646 22.4844C339.917 22.6406 337.365 23.5365 335.203 24.974V24.9844C335.203 24.9792 335.203 24.974 335.214 24.974C337.365 23.5417 339.917 22.6406 342.646 22.4844Z" fill="#067937"/>
<path d="M325.083 43.3228C324.682 43.4217 324.286 43.4894 323.875 43.5467C324.203 43.4946 324.536 43.4582 324.859 43.3905C324.938 43.38 325.01 43.3488 325.083 43.3228Z" fill="#067937"/>
<path d="M325.084 43.3226C325.605 43.2288 326.12 43.083 326.636 42.9424C326.12 43.083 325.605 43.2184 325.084 43.3226Z" fill="#067937"/>
<path d="M323.109 36.5C322.557 36.599 321.99 36.6771 321.422 36.7083C321.99 36.6719 322.557 36.599 323.109 36.5Z" fill="#067937"/>
<path d="M324.089 36.2967C324.423 36.2186 324.745 36.1144 325.074 36.0103C324.62 36.1561 324.162 36.2759 323.693 36.38C323.829 36.3436 323.959 36.328 324.089 36.2967Z" fill="#067937"/>
<path d="M342.656 22.484H342.646C342.536 22.4893 342.432 22.5049 342.328 22.5153L342.901 22.4736C342.818 22.4736 342.734 22.4736 342.656 22.484Z" fill="#067937"/>
<path d="M342.219 22.5259C339.641 22.7655 337.245 23.6144 335.198 24.9738V24.9842C335.188 24.9894 335.188 24.9946 335.183 24.9946C335.198 24.9946 335.203 24.979 335.214 24.9738C337.282 23.5936 339.698 22.755 342.219 22.5259Z" fill="#067937"/>
<path d="M332.49 27.3748C332.881 26.9478 333.271 26.5728 333.652 26.2134C333.235 26.578 332.86 26.9686 332.49 27.3748Z" fill="#067937"/>
<path d="M298.475 18.7448C298.469 18.776 298.469 18.8125 298.459 18.8542C298.339 19.7917 298.271 20.7344 298.271 21.6771C298.271 21.9531 298.277 22.224 298.292 22.4948H298.287L298.292 22.6146C298.485 27.4063 300.209 31.8229 302.975 35.3542C304.829 37.7292 307.178 39.6875 309.829 41.1406L309.891 40.9375C310.162 39.8802 310.303 38.7813 310.313 37.6875V37.5C310.303 36.4531 310.178 35.4063 309.923 34.3958C309.626 33.1719 309.105 31.9479 308.386 30.7604C308.37 30.724 308.324 30.6979 308.303 30.6615C308.001 30.2448 307.719 29.8229 307.459 29.3854L307.428 29.3281C307.412 29.3021 307.402 29.2813 307.386 29.2604C307.084 28.724 306.824 28.1667 306.579 27.5938C306.506 27.4583 306.449 27.3073 306.386 27.1562C306.157 26.5677 305.954 25.9583 305.792 25.349C305.792 25.3333 305.787 25.3229 305.787 25.3125C305.714 25.0104 305.678 24.6927 305.62 24.401C305.568 24.1094 305.501 23.8281 305.464 23.5365C305.396 22.9219 305.355 22.3177 305.355 21.7135C305.355 21.6927 305.36 21.6771 305.36 21.6719C305.355 21.6563 305.355 21.6406 305.355 21.625C305.355 20.099 305.579 18.6354 306.001 17.2552C306.011 17.2656 306.021 17.2656 306.037 17.2656C306.037 17.2344 306.042 17.2188 306.053 17.1823L306.579 15.3542L306.725 15.4479C307.558 13.6198 308.74 11.9948 310.193 10.6354L306.589 4.39062C303.105 7.19792 300.485 11.026 299.183 15.4219L299.058 15.8646C298.798 16.8125 298.61 17.7813 298.475 18.7448Z" fill="#067937"/>
<path d="M334.042 14.9688C334.11 15.1094 334.151 15.2708 334.214 15.4115C336.438 14.4635 338.776 13.8802 341.167 13.651C341.115 13.5208 341.084 13.3958 341.037 13.2812C339.563 9.66667 337.162 6.52083 334.136 4.14062L330.542 10.3698C331.979 11.6563 333.177 13.2188 334.042 14.9688Z" fill="#067937"/>
<path d="M336.25 26.5153C335.323 27.1299 334.532 27.8747 333.787 28.6872C333.229 29.7601 332.526 30.7341 331.729 31.6299C330.87 32.5934 329.912 33.4788 328.828 34.2028V34.208C328.766 34.2549 328.709 34.2809 328.641 34.3226C328.24 34.583 327.823 34.8226 327.396 35.0413C327.229 35.1247 327.052 35.2184 326.87 35.3018C326.422 35.5153 325.969 35.7132 325.49 35.8695C325.354 35.932 325.214 35.9684 325.073 36.0101C324.745 36.1143 324.422 36.2184 324.089 36.2965C323.959 36.3278 323.828 36.3434 323.693 36.3799C323.506 36.4215 323.308 36.4632 323.11 36.4997C322.558 36.5986 321.99 36.6768 321.422 36.708C321.401 36.708 321.391 36.7236 321.375 36.7236H321.36C321.282 36.7236 321.188 36.7236 321.104 36.7288V43.8122C321.188 43.807 321.282 43.8122 321.36 43.807C321.401 43.807 321.433 43.8018 321.474 43.8018C322.084 43.7809 322.698 43.7184 323.287 43.6403C323.485 43.6143 323.683 43.583 323.87 43.5466C324.287 43.4893 324.683 43.4215 325.084 43.3226C325.604 43.2288 326.12 43.083 326.636 42.9424C326.787 42.8903 326.964 42.8538 327.12 42.7966C327.808 42.5778 328.479 42.3434 329.125 42.0674C329.709 41.8174 330.266 41.5205 330.823 41.2341C336.021 38.4736 340.016 33.7236 341.735 27.984C342.084 26.8226 342.297 25.5986 342.448 24.3643C340.235 24.5622 338.089 25.2861 336.25 26.5153Z" fill="#067937"/>
<path d="M325.074 36.0103C324.62 36.1561 324.162 36.2759 323.693 36.38C323.824 36.3436 323.959 36.328 324.089 36.2967C324.423 36.2186 324.751 36.1144 325.074 36.0103Z" fill="#067937"/>
<path d="M324.859 43.3905C324.938 43.38 325.01 43.3488 325.083 43.3228C324.682 43.4217 324.286 43.4894 323.875 43.5467C324.203 43.4946 324.536 43.4582 324.859 43.3905Z" fill="#067937"/>
<path d="M332.417 27.4583L332.266 27.6146L332.256 27.6354C332.329 27.5469 332.412 27.4635 332.49 27.375C332.469 27.3958 332.443 27.4219 332.417 27.4583Z" fill="#067937"/>
<path d="M333.651 26.2134C334.141 25.7863 334.641 25.3644 335.183 24.9946C334.672 25.3488 334.167 25.755 333.651 26.2134Z" fill="#067937"/>
<path d="M343.578 15.3535C342.969 15.3535 342.375 15.39 341.797 15.4316C339.37 15.6296 337.047 16.2181 334.906 17.1243C328.365 19.9108 323.432 25.7441 321.88 32.8171C321.745 33.4629 321.635 34.1191 321.552 34.7858L321.62 34.765L321.729 34.8223C322.057 34.7962 322.406 34.7337 322.786 34.6712C322.964 34.64 323.13 34.6035 323.286 34.5618C323.37 34.5462 323.458 34.5358 323.542 34.5202L323.651 34.4941C323.938 34.4316 324.224 34.3327 324.578 34.2233C324.672 34.1868 324.771 34.166 324.875 34.1243C325.26 33.9889 325.656 33.8223 326.099 33.6191C326.245 33.5462 326.396 33.4629 326.547 33.39C326.943 33.1921 327.302 32.9889 327.615 32.7806C327.661 32.7493 327.729 32.7129 327.766 32.6921L327.807 32.6608C328.625 32.1191 329.401 31.416 330.188 30.5514C330.755 29.4837 331.469 28.5306 332.255 27.6348L332.266 27.6139L332.417 27.4577C332.443 27.4212 332.469 27.3952 332.49 27.3743C332.859 26.9681 333.234 26.5775 333.651 26.2129C334.167 25.7546 334.667 25.3483 335.182 24.9941C335.187 24.9941 335.187 24.9889 335.203 24.9837V24.9733C337.245 23.6139 339.641 22.765 342.219 22.5306C342.24 22.5306 342.266 22.5254 342.292 22.515H342.328C342.432 22.5046 342.536 22.4889 342.646 22.4837H342.651C342.734 22.4733 342.818 22.4733 342.896 22.4733L344.568 22.3275L344.547 22.4941C352.432 23.0046 358.693 29.5514 358.693 37.5566C358.693 45.8952 351.911 52.6764 343.578 52.6764C338.37 52.6764 333.786 50.0462 331.068 46.041C330.583 45.3327 330.177 44.5723 329.823 43.791C329.156 44.0723 328.458 44.3275 327.677 44.5723C327.557 44.6087 327.427 44.6504 327.302 44.6764L327.146 44.7181C326.594 44.8743 326.042 45.0254 325.474 45.1452C325.036 45.2337 324.594 45.3171 324.167 45.3796L323.984 45.4108C323.833 45.4316 323.682 45.4577 323.521 45.4837C322.875 45.5775 322.208 45.6139 321.599 45.6504H321.495L321.432 45.666H321.375V60.4421H328.458V53.8014C332.427 57.4993 337.734 59.765 343.578 59.765C355.807 59.765 365.776 49.8014 365.776 37.5566C365.776 25.3223 355.807 15.3535 343.578 15.3535Z" fill="#067937"/>
<path d="M344.541 22.4948L344.567 22.3281L342.9 22.474C343.119 22.4688 343.338 22.4479 343.577 22.4479C343.906 22.4479 344.223 22.4844 344.541 22.4948Z" fill="#067937"/>
<path d="M342.292 22.5156C342.266 22.526 342.24 22.5313 342.219 22.5313C342.25 22.5313 342.292 22.5156 342.328 22.5156H342.292Z" fill="#067937"/>
<path d="M318.776 3.73438C318.776 5.80208 317.099 7.47396 315.042 7.47396C312.974 7.47396 311.292 5.80208 311.292 3.73438C311.292 1.66667 312.974 0 315.042 0C317.099 0 318.776 1.66667 318.776 3.73438Z" fill="#067937"/>
<path d="M278.074 81.8955H274.521V63.9528H278.475L298.98 78.0049V63.8955H302.396V81.8955H298.813L278.074 67.7809V81.8955Z" fill="#0F3D4E"/>
<path d="M333.87 63.9531V67.0208H314.198C312.766 67.0208 311.698 67.4635 311.005 68.3385C310.198 69.3802 309.792 71.1042 309.792 73.5312C309.792 75.7448 310.203 77.224 311.031 77.9635C311.625 78.4948 312.687 78.776 314.198 78.776H333.87V81.875H314.052C308.469 81.875 305.672 79.0052 305.672 73.2552C305.672 70.3021 306.271 68.0573 307.469 66.5469C308.849 64.8281 311.078 63.9531 314.151 63.9531H333.87Z" fill="#0F3D4E"/>
<path d="M361.407 81.875H338.136V63.9531H360.787C362.74 63.9531 364.183 64.1979 365.104 64.6719C366.511 65.4219 367.214 66.8229 367.214 68.8906C367.214 70.5833 366.36 71.9375 364.636 72.9323C366.407 73.7813 367.287 75.0885 367.287 76.8698C367.287 78.7813 366.719 80.1354 365.589 80.9323C364.672 81.5677 363.271 81.875 361.407 81.875ZM360.828 67.1667H341.813V71.3073H360.828C362.448 71.3073 363.261 70.6354 363.261 69.2708C363.261 67.875 362.448 67.1667 360.828 67.1667ZM341.813 74.474V78.7135H360.881C362.5 78.7135 363.308 78.0156 363.308 76.6198C363.308 75.1927 362.5 74.474 360.881 74.474H341.813Z" fill="#0F3D4E"/>
</svg>
