<svg width="107" height="51" viewBox="0 0 107 51" fill="none" xmlns="http://www.w3.org/2000/svg">
<path d="M43.2986 34.895L44.4207 37.7033C44.4207 37.7033 26.5219 28.3984 2.76631 40.6712C2.62491 40.5527 3.02631 40.3521 3.95227 39.5953C4.98314 38.7473 6.0505 37.9632 7.16347 37.2292C14.2564 32.5699 23.2332 30.4272 31.6808 31.2432C34.2489 31.4894 36.8078 31.9408 39.2527 32.7887C40.425 33.1945 41.6383 33.778 43.2986 34.895Z" fill="#E87200"/>
<path d="M20.405 37.1523H21.8099L23.639 39.8422V37.1523H25.0576V42.0122H23.639L21.8191 39.3452V42.0122H20.405V37.1523Z" fill="#0055B8"/>
<path d="M29.6189 41.2138H27.913L27.6758 42.0161H26.1432L27.9723 37.1562H29.6098L31.4389 42.0161H29.8653L29.6235 41.2138H29.6189ZM29.3088 40.1606L28.7705 38.4145L28.2414 40.1606H29.3088Z" fill="#54565A"/>
<path d="M32.6798 37.1515H35.4942C35.964 37.1515 36.3243 37.2655 36.5752 37.498C36.8261 37.7305 36.9538 38.0177 36.9538 38.3597C36.9538 38.6469 36.8626 38.8931 36.6847 39.0982C36.5661 39.235 36.3928 39.3444 36.1601 39.4219C36.5114 39.5085 36.7668 39.6499 36.931 39.855C37.0952 40.0602 37.1773 40.3155 37.1773 40.6255C37.1773 40.8762 37.118 41.1042 36.9994 41.3048C36.8808 41.5054 36.7212 41.6649 36.5205 41.7835C36.3928 41.8564 36.2057 41.9111 35.9503 41.943C35.6128 41.9886 35.3893 42.0069 35.2752 42.0069H32.6798V37.147V37.1515ZM34.1942 39.0618H34.8465C35.0791 39.0618 35.2433 39.0207 35.3345 38.9387C35.4257 38.8566 35.4714 38.7426 35.4714 38.5876C35.4714 38.4463 35.4257 38.3369 35.3345 38.2548C35.2433 38.1773 35.0837 38.1363 34.8556 38.1363H34.1942V39.0572V39.0618ZM34.1942 40.9674H34.9605C35.2205 40.9674 35.4029 40.9218 35.5079 40.8306C35.6128 40.7395 35.6675 40.6164 35.6675 40.4614C35.6675 40.32 35.6128 40.2015 35.5079 40.1149C35.4029 40.0283 35.2205 39.9827 34.9559 39.9827H34.1942V40.9674Z" fill="#E87200"/>
<path d="M1.95885 22.2851C-1.1292 12.7157 6.70723 10.263 6.70723 10.263C15.3328 7.65067 25.386 14.0606 25.386 14.0606L38.9971 24.8199C44.9908 31.0566 46.6557 36.0578 46.6831 39.6731C46.7013 35.9985 45.041 30.8788 38.8877 24.4779L25.0804 13.5683C25.0804 13.5683 14.8858 7.07168 6.13706 9.7159C6.13706 9.7159 -1.80884 12.2006 1.32026 21.9112C1.32026 21.9112 5.65355 35.7888 20.8247 44.3734C20.8247 44.3734 29.2814 49.288 36.68 49.2424C29.4183 49.2242 21.185 44.4418 21.185 44.4418C6.22829 35.9803 1.95429 22.2942 1.95429 22.2942L1.95885 22.2851Z" fill="#54565A" fill-opacity="0.5"/>
<path d="M46.6786 39.6633C46.6558 36.0526 44.9863 31.0513 38.9927 24.8101L25.3816 14.0508C25.3816 14.0508 15.3329 7.64544 6.70275 10.2532C6.70275 10.2532 -1.13367 12.7059 1.95437 22.2753C1.95437 22.2753 6.22837 35.9614 21.1851 44.4229C21.1851 44.4229 29.4184 49.2053 36.6801 49.2235C39.5492 49.2053 42.2632 48.4439 44.2611 46.3605C44.2611 46.3605 46.6558 44.0354 46.6786 39.6587V39.6633ZM29.6966 47.2449C25.2903 46.2009 21.1395 44.0718 17.4539 41.4778C13.9508 39.0114 10.7532 35.6058 9.17957 31.5711C7.83853 28.1245 6.81223 24.149 8.14415 20.5428C9.42133 17.0826 12.5504 14.8623 16.195 14.5888C18.1883 14.4383 20.5283 14.6891 22.444 15.2818C23.0051 15.455 23.5753 15.6374 24.1135 15.8835L39.2846 25.7492C43.3761 28.8767 44.8221 35.6924 44.8221 35.697C45.5838 39.2986 45.2554 42.7589 42.8242 45.6356C39.759 49.26 33.706 48.1932 29.692 47.2449H29.6966Z" fill="url(#paint0_linear_629_2214)"/>
<path d="M30.7775 0C30.7775 0 24.8386 20.055 10.7942 32.9707C10.7942 32.9707 21.2306 27.9968 24.679 28.2384C24.679 28.2384 29.8972 22.3026 30.7775 19.4122L33.5873 27.354C33.5873 27.354 39.5262 28.0743 40.5708 28.6396L30.7775 0Z" fill="#0055B8"/>
<path d="M30.6773 1.80615C30.6773 1.80615 23.6345 22.8642 10.1511 33.628C10.1511 33.628 22.6082 27.9429 25.6826 28.1572C25.6826 28.1572 29.8927 23.4477 30.6773 20.8764L33.2043 28.6997C33.2043 28.6997 38.4134 28.9322 39.3439 29.4337L30.6727 1.80615H30.6773Z" fill="url(#paint1_linear_629_2214)"/>
<path d="M66.8124 29.6893C66.8124 29.9081 66.8672 30.7105 66.9675 32.1694L67.0724 34.9458C67.1454 35.9974 67.1804 36.5612 67.1774 36.6372C67.1774 36.66 67.1774 36.6919 67.1774 36.742C67.1774 37.0931 67.1409 37.4122 67.1181 37.6265C67.1181 37.6949 67.118 37.7541 67.1089 37.8043C67.1044 37.8909 67.0998 37.9547 67.1181 38.0049C67.1226 38.0824 67.1774 38.0869 67.191 38.0869C67.2321 38.0869 67.2595 38.0596 67.2959 37.9912C67.3051 37.973 67.3188 37.9547 67.3279 37.9319C67.3598 37.8772 67.3963 37.8088 67.4191 37.745C67.6472 37.2025 67.7612 36.546 67.7612 35.7391C67.7612 35.7163 67.7612 35.7026 67.7612 35.698C67.784 35.6616 67.784 35.543 67.6973 34.1799C67.5696 32.5706 67.5058 30.3412 67.4875 30.0722C67.638 30.2455 67.7566 30.3321 67.8387 30.3321C67.8844 30.3321 67.9437 30.3002 67.9437 30.2135C67.9437 30.1588 67.9254 30.1087 67.9026 30.0449C67.8935 30.0266 67.8889 30.0038 67.8798 29.9856C67.8616 29.9081 67.7794 29.6072 67.5423 29.0328C67.3598 28.5495 67.2412 28.2532 67.1774 28.121C67.1682 28.0663 67.1135 28.0161 67.0588 28.0161C67.0405 28.0161 66.9858 28.0207 66.9402 28.1164C66.7531 28.6361 66.6938 28.8413 66.6938 28.9279C66.6938 28.937 66.6938 28.9462 66.6984 28.9507C66.7805 29.1376 66.817 29.3656 66.817 29.6893H66.8124Z" fill="#0055B8"/>
<path d="M77.1254 32.2512H77.2486C77.2805 32.2512 77.3079 32.2238 77.3079 32.1919V32.0095C77.3079 31.8636 77.3079 31.7725 77.2258 31.7679C77.0524 31.7086 76.9338 31.6494 76.8654 31.6175C76.8107 31.5992 76.7924 31.5855 76.7879 31.5855C76.8061 31.5582 76.9156 31.4944 77.0205 31.4351L77.0935 31.3941C77.3626 31.2436 78.5759 30.7877 80.7745 29.9625C83.5797 28.9049 85.0303 28.3532 85.0439 28.3441C85.0531 28.3441 85.0576 28.335 85.0668 28.3304C85.1032 28.2939 85.1671 28.1936 85.231 28.0386C85.2675 27.9703 85.2674 27.9292 85.2674 27.9201C85.2674 27.8882 85.2401 27.8608 85.2082 27.8608C85.1762 27.8608 85.1306 27.8608 85.0668 27.8927C84.2183 28.1936 83.3699 28.5082 82.5534 28.8091C81.9468 29.0325 81.3401 29.2604 80.738 29.4793C78.4163 30.3364 77.1938 30.8242 77.0296 30.9199C76.9019 31.0157 76.7787 31.1388 76.6465 31.3074C76.5324 31.5354 76.4868 31.6722 76.4868 31.7907C76.4868 31.9229 76.5689 32.1645 77.1254 32.2466V32.2512Z" fill="#0055B8"/>
<path d="M77.1349 28.5581C77.3082 28.5307 77.4268 28.5262 77.4314 28.5262C77.8738 28.5262 78.0563 28.549 78.1247 28.5717C78.1247 28.5717 78.1247 28.5717 78.1201 28.5717C78.0973 28.5945 77.9331 28.7085 77.6503 28.8635C77.2945 29.0231 77.1303 29.1097 77.0528 29.2054C76.9935 29.2374 76.9616 29.2693 76.957 29.2693C76.9387 29.2875 76.9342 29.3149 76.9433 29.3377C76.9524 29.3604 76.9752 29.3741 76.998 29.3741C77.0072 29.3741 77.0437 29.3741 77.1668 29.3422C77.3173 29.2966 77.4451 29.2602 77.5591 29.2328C77.8556 29.1507 78.0335 29.1006 78.1384 29.0231C78.2615 28.9 78.4486 28.7131 78.6036 28.4942C78.8271 28.1569 78.8271 28.1158 78.8271 28.093C78.8271 27.8879 78.4987 27.7876 77.8191 27.7876C77.6321 27.7876 77.5135 27.7876 77.4542 27.8514C77.3265 27.856 77.2261 27.9016 77.1394 27.9882C77.1394 27.9882 77.1303 27.9973 77.1303 28.0019L76.9479 28.3392C76.9114 28.4076 76.9114 28.4487 76.9114 28.4578C76.9114 28.549 76.9935 28.5489 77.1349 28.5489V28.5581Z" fill="#0055B8"/>
<path d="M81.2858 32.2455C81.2083 32.3504 81.1033 32.4324 80.9756 32.5327L80.9346 32.5646C80.7567 32.6832 80.5697 32.8063 80.3872 32.902C80.3598 32.9203 80.2869 32.9567 80.2093 32.9978C79.8216 33.1983 79.7532 33.2531 79.7532 33.3169C79.7532 33.3488 79.7805 33.3761 79.8125 33.3761C79.9128 33.3761 80.0132 33.3442 80.1135 33.2804C80.2504 33.2439 80.3963 33.1847 80.4784 33.1254C80.6928 33.0342 80.9118 32.9385 81.1033 32.7835C81.2584 32.6604 81.3861 32.5327 81.4865 32.396C81.5047 32.3549 81.5275 32.3185 81.5458 32.282C81.5868 32.209 81.6279 32.1315 81.6735 32.0221C81.6918 31.9674 81.7009 31.9127 81.71 31.858C81.7146 31.8124 81.7237 31.7668 81.7374 31.7076C81.8058 31.2562 81.9016 31.1514 81.9198 31.1468C81.9289 31.1514 81.9472 31.1924 81.9563 31.2152C81.9746 31.2653 82.0019 31.3292 82.0703 31.3292C82.0886 31.3292 82.1023 31.3246 82.1114 31.3109C82.1433 31.279 82.1844 31.2334 82.1889 31.1878C82.2163 31.0966 82.2209 31.0602 82.2209 31.0511C82.2209 30.928 82.0749 30.7456 81.9472 30.7456C81.8423 30.7456 81.7054 30.9052 81.6416 31.0693L81.6188 31.1833C81.5914 31.32 81.5686 31.4295 81.5458 31.5161C81.5093 31.3611 81.4546 31.2334 81.3861 31.1422C81.2858 30.9736 81.1763 30.9006 81.0304 30.9006C81.0212 30.9006 81.0121 30.9006 81.003 30.9052C80.857 30.9781 80.8205 31.0875 80.7886 31.1833C80.7886 31.1878 80.7886 31.1969 80.7886 31.2015C80.7886 31.2562 80.8251 31.2927 80.9391 31.4067C80.9665 31.4249 81.0577 31.4796 81.1216 31.4796C81.1444 31.4796 81.1672 31.4705 81.1809 31.4614C81.2037 31.4933 81.2402 31.5571 81.2812 31.6848L81.336 31.8124C81.3816 31.9173 81.4181 32.0039 81.4272 32.0449C81.4135 32.0723 81.3907 32.0996 81.3679 32.127C81.3451 32.1589 81.3177 32.1954 81.2904 32.2318L81.2858 32.2455Z" fill="#0055B8"/>
<path d="M66.7349 27.2818C66.7076 27.3091 66.6756 27.3273 66.6391 27.3501C66.6026 27.3729 66.5616 27.3957 66.5297 27.4276C66.4202 27.4823 66.3655 27.5097 66.3198 27.5097C66.3107 27.5097 66.2788 27.496 66.2514 27.4869C66.2241 27.4778 66.1921 27.4641 66.1648 27.455C66.1191 27.4322 66.0827 27.3912 66.0735 27.3912C66.0735 27.3912 66.0918 27.3638 66.1648 27.3182C66.183 27.3091 66.1967 27.3 66.2104 27.2909C66.2469 27.2726 66.2605 27.2635 66.2879 27.2635C66.3107 27.2635 66.3244 27.2635 66.3518 27.3456C66.3518 27.3547 66.3609 27.3638 66.3655 27.3684C66.3883 27.3912 66.4065 27.4094 66.4384 27.4094C66.4704 27.4094 66.4932 27.3912 66.5205 27.3593C66.5844 27.2635 66.6209 27.1587 66.6209 27.0812C66.6209 26.8988 66.5388 26.8076 66.3791 26.8076C66.2377 26.8076 66.0735 26.9353 65.8774 27.1906C65.7634 27.2772 65.7086 27.4049 65.7086 27.569C65.7086 27.6738 65.7862 27.765 65.9276 27.8334C65.7405 27.993 65.7405 28.034 65.7405 28.0477L65.7086 28.2118C65.7086 28.2711 65.7542 28.303 65.7998 28.303C65.8546 28.303 65.8956 28.2619 65.8956 28.2619L66.1648 28.0796C66.4977 27.8516 66.7212 27.6966 66.8535 27.6146C66.8991 27.569 66.9311 27.496 66.963 27.3593V27.3C66.963 27.3 66.9584 27.2681 66.9447 27.259C66.9219 27.2316 66.8946 27.2271 66.8763 27.2271C66.8444 27.2271 66.817 27.2407 66.7897 27.259C66.7805 27.2635 66.7669 27.2726 66.7577 27.2772C66.7532 27.2772 66.7486 27.2863 66.744 27.2909L66.7349 27.2818Z" fill="#0055B8"/>
<path d="M70.1103 30.9104V31.1566C70.1103 31.453 70.0784 31.7265 70.0236 31.959C69.9005 32.2508 69.8412 32.4605 69.8001 32.5881C69.791 32.6201 69.7819 32.6474 69.7773 32.6656C69.7773 32.6702 69.7773 32.6793 69.7773 32.6839C69.7773 32.7249 69.7682 32.7796 69.7636 32.8298C69.7545 32.8845 69.75 32.9392 69.75 32.9893C69.75 33.468 69.9324 33.5683 70.0875 33.5683C70.3657 33.5683 70.4752 33.1854 70.5436 32.8343V32.8024C70.5436 32.7705 70.5163 32.7431 70.4843 32.7431C70.4342 32.7431 70.4022 32.7796 70.3931 32.8161C70.3156 32.9665 70.2426 33.0486 70.1787 33.0486C70.0738 33.0486 70.0556 32.8754 70.0556 32.7751C70.0556 32.6292 70.1149 32.3602 70.238 31.9681C70.3612 31.5715 70.425 31.2296 70.425 30.9743V30.7235C70.3931 30.3679 70.3612 30.1308 70.2973 29.9713C70.197 29.7707 70.0693 29.5564 69.8275 29.3467C69.8047 29.3239 69.7864 29.3057 69.7545 29.3057C69.7226 29.3057 69.6998 29.3239 69.6815 29.3467C69.677 29.3513 69.6724 29.3558 69.6679 29.3604L69.5493 29.5974C69.5036 29.6521 69.5036 29.716 69.5584 29.7661C69.9324 30.14 70.1194 30.5229 70.1194 30.915L70.1103 30.9104Z" fill="#0055B8"/>
<path d="M86.8139 31.7365C86.8139 31.7365 86.782 31.7501 86.7729 31.7638L86.4399 32.32L85.7283 31.8367C85.7283 31.8367 85.6964 31.8231 85.6827 31.8276C85.6645 31.8276 85.6508 31.8413 85.6417 31.855L85.1855 32.5571C85.1673 32.5844 85.1764 32.6209 85.2038 32.6391L86.0294 33.1862C86.0294 33.1862 86.0522 33.1953 86.0613 33.1953C86.0613 33.1953 86.0704 33.1953 86.075 33.1953C86.0932 33.1953 86.1069 33.1817 86.1115 33.168L86.4445 32.6391L87.188 33.1224C87.188 33.1224 87.2199 33.1361 87.2336 33.1315C87.2518 33.1315 87.2655 33.1178 87.2701 33.1042L87.6988 32.3702C87.7171 32.3428 87.708 32.3063 87.6806 32.2881L86.855 31.741C86.855 31.741 86.823 31.7273 86.8094 31.7319L86.8139 31.7365Z" fill="#0055B8"/>
<path d="M101.807 29.7481C101.953 29.7481 102.067 29.6752 102.131 29.5384C102.195 29.4472 102.232 29.3105 102.232 29.201C102.232 29.1919 102.241 29.1737 102.245 29.16C102.254 29.1327 102.263 29.1053 102.263 29.078C102.263 28.9822 102.222 28.964 102.186 28.964C102.131 28.964 102.099 29.0232 102.086 29.0688C102.04 29.0916 101.994 29.1099 101.953 29.1099C101.93 29.1099 101.862 29.1099 101.862 28.9868C101.862 28.8272 101.962 28.6585 102.127 28.3759C102.163 28.312 102.204 28.2437 102.245 28.1707C102.314 28.1023 102.373 28.0111 102.4 27.92C102.428 27.888 102.423 27.8607 102.414 27.8425C102.405 27.8197 102.368 27.7969 102.346 27.7969C102.3 27.7969 102.25 27.8333 102.181 27.9063C102.177 27.9108 102.172 27.9154 102.168 27.92C102.14 27.9701 102.118 27.9975 102.058 28.0567C102.058 28.0567 102.049 28.0659 102.049 28.0704C102.022 28.1206 101.985 28.1707 101.944 28.2254C101.862 28.3439 101.771 28.4762 101.712 28.6175C101.566 28.8546 101.488 29.0825 101.488 29.2922C101.488 29.6889 101.68 29.7481 101.794 29.7481H101.807Z" fill="#0055B8"/>
<path d="M86.3987 31.3577C86.3987 31.3577 86.4215 31.3668 86.4306 31.3668C86.4352 31.3668 86.4397 31.3668 86.4443 31.3668C86.458 31.3668 86.4717 31.3532 86.4808 31.3395L86.9095 30.6055C86.9278 30.5781 86.9187 30.5417 86.8913 30.5234L86.0657 29.9764C86.0657 29.9764 86.0338 29.9627 86.0201 29.9672C86.0064 29.9672 85.9882 29.9809 85.9836 29.9946L85.4955 30.7286C85.4955 30.7286 85.4818 30.7605 85.4864 30.7742C85.4864 30.7924 85.5001 30.8061 85.5138 30.8107L86.3987 31.3577Z" fill="#0055B8"/>
<path d="M101.935 30.3043C101.935 30.3043 101.899 30.3636 101.871 30.4046C101.762 30.5687 101.716 30.6462 101.716 30.6964C101.716 30.7146 101.725 30.7328 101.744 30.7465C101.753 30.7556 101.766 30.7556 101.78 30.7556C101.785 30.7556 101.794 30.7556 101.798 30.7556C102.109 30.6462 103.066 30.2906 105.881 29.1965L105.949 29.1691C105.949 29.1691 105.968 29.16 105.977 29.1509C105.995 29.1235 106.164 28.9001 106.196 28.8363C106.196 28.8272 106.2 28.8181 106.2 28.809V28.777C106.2 28.7451 106.173 28.7178 106.141 28.7178H106.109C106.109 28.7178 106.095 28.7178 106.086 28.7178C105.489 28.9457 102.551 30.0581 101.967 30.2724C101.953 30.277 101.94 30.2906 101.935 30.3043Z" fill="#0055B8"/>
<path d="M96.133 29.0088C96.133 29.0088 96.1558 29.018 96.1649 29.018C96.1832 29.018 96.206 29.0088 96.2151 28.9906L96.6439 28.2885C96.6621 28.2612 96.653 28.2247 96.6256 28.2065L95.8 27.6867C95.7726 27.6685 95.7361 27.6776 95.7179 27.705L95.2618 28.4071C95.2618 28.4071 95.2481 28.439 95.2526 28.4526C95.2526 28.4709 95.2663 28.4846 95.28 28.4891L96.133 29.0088Z" fill="#0055B8"/>
<path d="M91.9957 28.9275C92.1691 28.9001 92.2603 28.8956 92.2603 28.8956C92.607 28.8956 92.762 28.9184 92.8305 28.9321C92.794 28.9548 92.7301 28.9868 92.6708 29.0232C92.6024 29.0597 92.5249 29.1007 92.4428 29.1509L92.2649 29.2466C92.0778 29.3515 91.9638 29.4107 91.9091 29.4655L91.8498 29.5247C91.8498 29.5247 91.827 29.5703 91.8361 29.5931C91.8452 29.6159 91.868 29.6296 91.8908 29.6296C91.9 29.6296 91.9364 29.6296 92.0277 29.5977L92.1143 29.5749C92.5249 29.4655 92.7484 29.4062 92.8806 29.3059C92.9719 29.2147 93.127 29.0597 93.2501 28.8728C93.3733 28.7223 93.4463 28.5537 93.4463 28.499C93.4463 28.3257 93.1999 28.2573 92.5933 28.2573C92.4382 28.2573 92.3515 28.2573 92.2968 28.2892C92.1873 28.2938 92.087 28.3439 92.0003 28.4306C91.9957 28.4351 91.9912 28.4397 91.9866 28.4442L91.8361 28.7406C91.795 28.7862 91.795 28.8272 91.795 28.8363C91.795 28.9275 91.8817 28.9275 91.9866 28.9275H91.9957Z" fill="#0055B8"/>
<path d="M92.8395 33.9608C94.1897 33.9608 95.6448 33.701 97.2823 33.163C98.5777 32.7117 99.3988 32.3378 99.7135 32.0506C99.9096 31.8546 100.042 31.6722 100.156 31.4534C100.247 31.2437 100.284 30.9838 100.284 30.5735C100.284 29.8805 100.097 29.2924 99.7226 28.8274C99.3851 28.367 98.9974 28.1299 98.5732 28.1299C98.2949 28.1299 98.0349 28.3077 97.8205 28.6451C97.5879 28.9642 97.4739 29.3061 97.4739 29.6891C97.4739 29.9444 97.5377 30.1404 97.6746 30.3136C97.8525 30.4914 98.0532 30.5735 98.2995 30.5735H98.9381C99.1981 30.5735 99.4079 30.6191 99.5812 30.7194C99.7591 30.8197 99.8686 30.9701 99.8823 31.1206C99.3395 31.4169 98.523 31.7497 97.4556 32.1053C95.8272 32.6387 94.4588 32.894 93.2637 32.894C92.2511 32.894 91.462 32.6889 90.983 32.2968C90.6683 32.0415 90.5178 31.7543 90.5178 31.4306C90.5178 31.1206 90.5588 30.8744 90.6364 30.6875C90.6957 30.5097 90.755 30.3273 90.8462 30.1495C90.8462 30.145 90.8462 30.1404 90.8508 30.1358C90.8644 30.0766 90.8736 30.031 90.8827 29.99C90.9009 29.917 90.9101 29.8669 90.9101 29.8213C90.9101 29.7757 90.8781 29.7301 90.8188 29.7301C90.7595 29.7301 90.7185 29.7802 90.5816 30.0082C90.2897 30.5598 90.1483 31.116 90.1483 31.7133C90.1483 32.3105 90.3034 32.7755 90.6181 33.1539C91.0743 33.701 91.7995 33.97 92.8304 33.97L92.8395 33.9608ZM99.0886 29.5569C99.011 29.5523 98.9335 29.5477 98.8651 29.5432C98.7282 29.5341 98.6097 29.5249 98.5139 29.5067C98.2995 29.5067 98.1763 29.4292 98.1763 29.2924C98.1763 29.1876 98.3497 29.1693 98.45 29.1693C98.6826 29.1693 98.8879 29.2924 99.0886 29.5569Z" fill="#0055B8"/>
<path d="M59.4639 30.6961C59.4639 30.6961 59.4776 30.6961 59.4822 30.6961L59.765 30.6004C59.8836 30.5411 60.0022 30.4819 60.1299 30.4499C60.1664 30.4317 60.2029 30.4135 60.2393 30.3952C60.3944 30.3177 60.5723 30.2357 60.7502 30.108C60.8916 29.994 60.9874 29.8755 61.0923 29.7433L61.1288 29.6977C61.2018 29.5883 61.2611 29.4561 61.2885 29.3467C61.3204 29.2555 61.3523 29.1597 61.3843 29.0321C61.4071 28.8771 61.4709 28.4713 61.5667 28.4713C61.5804 28.4713 61.5895 28.4941 61.6078 28.526C61.626 28.5671 61.6579 28.6263 61.7218 28.6263C61.7309 28.6263 61.74 28.6263 61.7492 28.6218C61.7765 28.6081 61.8358 28.5716 61.845 28.5169C61.8723 28.4303 61.8769 28.3938 61.8769 28.3802C61.8769 28.2571 61.7309 28.0747 61.6032 28.0747C61.4755 28.0747 61.3706 28.1887 61.3021 28.3893C61.2474 28.5534 61.2109 28.6902 61.1881 28.8041C61.1471 28.6719 61.0878 28.558 61.0467 28.4713C60.9555 28.3209 60.8232 28.2297 60.6909 28.2297C60.6818 28.2297 60.6727 28.2297 60.6636 28.2343C60.5358 28.2981 60.4492 28.3756 60.4492 28.5306C60.4492 28.5853 60.4902 28.6263 60.5586 28.6947C60.5815 28.7175 60.6772 28.7813 60.7457 28.7813C60.773 28.7813 60.7958 28.7722 60.8141 28.7586C60.846 28.795 60.8962 28.8816 60.9372 29.0047C60.9646 29.1005 60.992 29.1825 61.0148 29.2418C61.0376 29.3056 61.0558 29.3603 61.0558 29.3831C61.0558 29.4196 60.9965 29.4789 60.9509 29.5245L60.5951 29.8846C60.5039 29.9439 60.4081 29.9986 60.3123 30.0487C60.212 30.1035 60.1116 30.1582 60.0158 30.2174C59.993 30.2357 59.9337 30.263 59.8699 30.2949C59.5323 30.4682 59.4092 30.5457 59.4092 30.6323C59.4092 30.6505 59.4183 30.6688 59.4366 30.6824C59.4457 30.6916 59.4594 30.6961 59.473 30.6961H59.4639Z" fill="#0055B8"/>
<path d="M88.1686 38.9613C88.1048 38.9613 88.0865 39.0114 88.0729 39.0433C88.0729 39.0525 88.0637 39.0661 88.0592 39.0798C88.0272 39.1163 87.9999 39.1755 88.0227 39.2667C87.9862 39.2667 87.9543 39.2667 87.9269 39.2667C87.9269 39.2394 87.936 39.2211 87.9451 39.2029C87.9497 39.1847 87.9588 39.1664 87.9588 39.1436C87.9588 39.0616 87.8676 39.0251 87.8265 39.0707L87.7672 39.13C87.7672 39.13 87.7581 39.1391 87.7536 39.1436L87.6623 39.326C87.6486 39.3488 87.6258 39.3533 87.5346 39.3533C87.4753 39.3533 87.416 39.3488 87.3613 39.3397C87.3065 39.3351 87.2518 39.326 87.1925 39.326C87.0465 39.326 86.928 39.3625 86.7911 39.4536C86.6634 39.5676 86.5266 39.7135 86.4034 39.8412C86.2939 39.9597 86.189 40.0691 86.116 40.1284C86.0567 40.1876 85.9609 40.2515 85.8652 40.3107C85.7831 40.3654 85.7009 40.4156 85.6553 40.4612C85.6371 40.4794 85.6325 40.5068 85.6416 40.5296C85.6508 40.5524 85.6736 40.566 85.6964 40.566C85.9381 40.566 86.1069 40.4566 86.2574 40.3335C86.3122 40.2788 86.3623 40.2241 86.4171 40.1648C86.5767 39.9962 86.7364 39.8229 86.9051 39.7363C86.9964 39.7044 87.0876 39.7089 87.2016 39.7226C87.2701 39.7317 87.343 39.7363 87.4388 39.7363C87.5392 39.7363 87.6851 39.6816 87.7855 39.5722C87.9041 39.6406 88.0409 39.6406 88.1413 39.5722C88.1595 39.5585 88.1686 39.5448 88.1686 39.522C88.1686 39.522 88.1778 39.5038 88.1823 39.4947C88.196 39.4719 88.2097 39.4354 88.2234 39.3944C88.2599 39.3214 88.2599 39.2211 88.2599 39.1528C88.2599 39.0798 88.2599 39.0069 88.2097 38.9567C88.196 38.943 88.1823 38.9385 88.1686 38.9385V38.9613Z" fill="#0055B8"/>
<path d="M72.9431 28.1389C72.8382 27.879 72.7606 27.683 72.7013 27.5326C72.642 27.3821 72.6055 27.2818 72.5736 27.218C72.5417 27.1496 72.5052 27.1131 72.5006 27.1086C72.4869 27.0949 72.4732 27.0903 72.4596 27.0903C72.4003 27.0903 72.3455 27.1359 72.3364 27.2317C72.1311 27.7104 72.0627 27.9155 72.0627 28.0386C72.0627 28.0477 72.0627 28.0568 72.0673 28.066C72.1585 28.2529 72.2132 28.5219 72.2132 28.8C72.2132 28.996 72.2817 30.1084 72.3957 31.8545C72.5189 33.7374 72.6375 36.0761 72.6375 36.3633C72.6375 36.573 72.6055 36.6961 72.5325 36.7463C71.9532 37.2934 69.9189 39.0805 68.0578 39.0805C67.2915 39.0805 66.7214 38.8115 66.3701 38.2872C65.9596 37.6216 65.9414 36.8101 66.3108 35.8163C66.3747 35.684 66.4066 35.5837 66.4066 35.5154C66.4066 35.4151 66.3564 35.3923 66.3154 35.3923C66.2607 35.3923 66.2105 35.4379 66.0782 35.7023C65.5582 36.7417 65.5719 38.2188 66.1101 39.1443C66.4842 39.8327 67.1182 40.1838 67.994 40.1838C69.7638 40.1838 71.5473 38.9939 72.528 37.8131C72.788 37.4803 72.9431 37.1748 73.0252 36.8466C73.1301 36.45 73.1802 35.7388 73.1802 34.6036C73.1802 34.3118 73.089 32.2602 72.9978 30.9974C72.9203 29.9169 72.8655 29.306 72.8473 29.151C73.0799 29.4291 73.162 29.4291 73.1939 29.4291C73.2304 29.4291 73.2624 29.4109 73.2806 29.3835C73.2943 29.3607 73.3034 29.3334 73.3034 29.2969C73.3034 29.265 73.3034 29.1966 73.2715 29.1009C73.2441 28.9914 73.1438 28.7133 72.9339 28.148L72.9431 28.1389Z" fill="#0055B8"/>
<path d="M89.145 35.5148C89.0812 35.5148 89.0629 35.565 89.0493 35.5969C89.0447 35.6106 89.0401 35.6242 89.0265 35.647C88.9535 35.9069 88.8896 36.0893 88.8531 36.1941C88.8212 36.2898 88.8121 36.3126 88.8121 36.3309C88.8121 36.3856 88.8531 36.4585 88.9215 36.5269C88.9444 36.5497 88.9717 36.5771 88.9854 36.5953C88.9215 36.6591 88.7893 36.7002 88.6251 36.7002C88.4837 36.7002 88.3149 36.6454 88.21 36.5634C88.0412 36.3947 88.0138 36.3081 88.0138 36.2853C88.0138 36.2853 88.0458 36.1622 88.1051 35.8887C88.1324 35.7884 88.137 35.7154 88.1051 35.6698C88.0914 35.6516 88.064 35.6288 88.0184 35.6288C87.9317 35.6288 87.8861 35.6744 87.8131 35.7473C87.7356 35.8704 87.6535 35.9981 87.5714 36.1257C87.4893 36.2534 87.4026 36.3856 87.3296 36.4996C87.0651 36.8232 86.7777 36.9646 86.3991 36.9646C85.7514 36.9646 85.6647 36.7184 85.6647 36.5087C85.6647 36.4357 85.6875 36.2944 85.756 36.1257C85.7788 36.03 85.7742 35.9616 85.7377 35.916C85.7149 35.8841 85.6784 35.8704 85.6374 35.8704C85.5826 35.8704 85.5096 35.9114 85.4458 35.9753C85.0535 36.2762 84.6293 36.5178 84.1777 36.7002C83.6121 36.919 83.1058 37.033 82.6725 37.033C81.897 37.033 81.4774 36.8506 80.8799 36.2534C80.7293 36.1348 80.5834 35.9844 80.4511 35.8248C80.1363 35.5786 79.9265 35.4783 79.7441 35.4783C79.3244 35.4783 78.9002 35.7564 78.5079 36.2807C78.4806 36.2716 78.4532 36.2716 78.4304 36.2716C78.3529 36.2716 78.2388 36.3126 78.1704 36.4175C78.0062 36.6272 77.8648 36.7594 77.7508 36.8688C77.7143 36.9008 77.6869 36.9327 77.6595 36.9555C77.3083 37.2427 76.9297 37.4022 76.5876 37.4022C76.1497 37.4022 75.7939 37.1378 75.5567 36.6409C75.3378 36.1759 75.1918 35.3279 75.1371 34.1927C75.128 33.91 75.1143 33.6228 75.1052 33.3356C75.0595 32.0135 75.0139 30.6412 74.8588 29.3374C74.7722 28.4575 74.6217 27.7828 74.4255 27.3952C74.3845 27.3132 74.348 27.2402 74.2796 27.2402C74.2567 27.2402 74.2339 27.2539 74.2248 27.2721L74.161 27.3998C74.015 27.7463 73.942 28.0107 73.942 28.1839C73.942 28.1931 73.942 28.1976 73.9466 28.2067C74.0925 28.5623 74.2157 29.1322 74.3069 29.8981C74.421 31.2476 74.4803 32.6654 74.5396 34.0377L74.5487 34.2884C74.6034 35.6744 74.7403 36.7731 74.9181 37.2336C75.1873 38.004 75.7939 38.4827 76.5009 38.4827C76.948 38.4827 77.3858 38.2867 77.7371 37.922C77.842 37.7943 77.9469 37.6393 78.0974 37.4022C78.882 38.1499 79.4841 38.4964 79.9767 38.4964C80.1546 38.4964 80.3234 38.3915 80.4511 38.2001C80.6062 38.0177 80.6655 37.7533 80.6974 37.5208C81.2174 37.9584 81.7374 38.1317 82.5128 38.1317C82.9781 38.1317 83.4798 38.0086 84.0044 37.7578C84.383 37.58 84.7296 37.3703 85.0581 37.1059C85.0991 37.0649 85.1174 37.0466 85.1356 37.0375C85.1675 37.7123 85.537 38.0679 86.203 38.0679C86.7595 38.0679 87.211 37.7715 87.544 37.188C87.7538 37.5572 88.023 37.7624 88.3058 37.7624C88.698 37.7624 89.0219 37.5664 89.2135 37.2108C89.3822 36.9053 89.4643 36.5588 89.4643 36.144C89.4643 36.071 89.4279 35.9342 89.3686 35.7838C89.291 35.5878 89.218 35.5011 89.1268 35.5011L89.145 35.5148ZM79.1374 36.6728L79.1967 36.6363C79.3062 36.5816 79.4248 36.5497 79.475 36.5497C79.6164 36.5497 79.7121 36.6044 79.7988 36.7457C79.8992 36.846 79.963 36.9737 79.9949 37.1287C79.9949 37.2016 79.9949 37.2746 79.9949 37.2791C79.9174 37.2791 79.7395 37.2199 79.4795 37.0421C79.2606 36.9053 79.1237 36.7959 79.0416 36.7229C79.0644 36.7093 79.1009 36.6865 79.1374 36.6637V36.6728Z" fill="#0055B8"/>
<path d="M63.4598 32.1275C63.1816 32.1275 62.9216 32.3053 62.7072 32.6426C62.4746 32.9618 62.3605 33.3037 62.3605 33.6867C62.3605 33.942 62.4244 34.138 62.5612 34.3112C62.7391 34.489 62.9398 34.5711 63.1861 34.5711H63.8247C64.0163 34.5711 64.2535 34.6258 64.4679 34.717C64.6686 34.831 64.7598 34.9358 64.7735 35.0635C64.3767 35.3644 63.9251 35.6288 63.4689 35.8294C63.1679 35.957 62.917 36.0619 62.6707 36.1576C62.1826 36.3537 61.763 36.5178 61.2704 36.805C60.7276 37.0786 60.2897 37.4114 59.9384 37.8262C59.6648 38.1317 59.4139 38.4417 59.1813 38.738C58.7707 39.1164 58.3876 39.3033 58.0044 39.3033C57.7855 39.3033 57.635 39.235 57.5346 39.0845C57.416 38.9341 57.3658 38.7654 57.3658 38.5101C57.3658 38.2274 57.4753 37.7943 57.6988 37.188C57.6988 37.1834 57.6988 37.1743 57.6988 37.1652C57.6988 37.1287 57.7125 37.0877 57.7353 37.0512C57.8904 37.074 58.0455 37.0877 58.196 37.0877C58.8574 37.0877 59.3637 36.8597 59.5827 36.4676C59.7332 36.226 59.8062 35.8659 59.8062 35.3689C59.8062 34.7717 59.7377 34.2702 59.3911 33.7687C59.3637 33.7414 59.3363 33.7368 59.3181 33.7368C59.236 33.7368 59.1904 33.8371 59.1493 33.9146L59.1402 33.9374C59.0125 34.1881 58.9486 34.4435 58.9486 34.6988C58.9486 34.7261 58.9577 34.7489 58.9669 34.7808C58.9669 34.7945 58.9806 34.8173 58.9806 34.8218C58.9806 34.8355 58.9806 34.8446 58.9897 34.8538C59.1767 35.1455 59.3911 35.4966 59.4048 35.6333C59.2725 35.8841 58.8392 36.0345 58.2371 36.0345C58.0728 36.0345 57.9041 36.0209 57.7718 36.0026C58.0044 35.6744 58.123 35.2048 58.123 34.6121C58.123 34.3021 58.082 34.0605 57.9953 33.828C57.8585 33.4906 57.6851 33.3311 57.4525 33.3311C57.2199 33.3311 56.9188 33.5636 56.6132 33.9967C56.2802 34.4207 56.1115 34.8857 56.1115 35.378C56.1115 35.6242 56.1297 35.875 56.2392 36.0801C56.1023 36.1348 55.9564 36.1622 55.8058 36.1622C55.5823 36.1622 55.3771 36.0984 55.2311 35.9798C55.0669 35.8522 54.9848 35.6607 54.9848 35.4373C54.9848 35.378 54.9848 35.3598 55.0076 35.3097C55.0076 35.3005 55.0122 35.2914 55.0122 35.2823C55.0122 35.255 55.0213 35.223 55.0304 35.2002C55.0395 35.1729 55.0441 35.1547 55.0441 35.1319C55.0441 35.0316 54.9848 34.9814 54.9209 34.9814C54.8662 34.9814 54.8206 35.027 54.4785 35.3689C54.255 35.6516 54.1181 35.7838 54.0862 35.8066C54.0771 35.8066 54.068 35.8111 54.0634 35.8203C53.7669 36.0573 53.4157 36.185 53.0781 36.185C52.5718 36.185 52.1431 35.916 51.9013 35.4464C51.6824 34.9814 51.5364 34.1334 51.4817 32.9982C51.468 32.6791 51.468 32.4466 51.468 32.205C51.468 31.9634 51.468 31.7172 51.4543 31.3844C51.4224 30.3631 51.395 29.6747 51.3631 29.3374C51.2764 28.4575 51.1259 27.7828 50.9297 27.3952C50.9297 27.3907 50.9252 27.3861 50.9161 27.3816C50.8933 27.3588 50.8796 27.336 50.8704 27.3132C50.8568 27.2858 50.834 27.2402 50.7838 27.2402C50.7199 27.2402 50.7017 27.2995 50.688 27.3405C50.6834 27.3588 50.6789 27.377 50.6652 27.3998C50.501 27.7964 50.4143 28.0244 50.4143 28.1839C50.4143 28.1931 50.4143 28.2022 50.4189 28.2113C50.5968 28.5669 50.7199 29.1322 50.7792 29.8981C50.8111 30.1352 50.8385 30.9148 50.9024 33.094C50.9571 34.4799 51.094 35.5786 51.2718 36.0391C51.5547 36.8278 52.1568 37.3156 52.8364 37.3156C53.2378 37.3156 53.6483 37.1469 54.0223 36.8232C54.2459 36.5999 54.4055 36.4175 54.515 36.2443C54.7567 36.8187 55.1308 37.1333 55.6508 37.2062C56.0476 37.2427 56.4307 37.1196 56.8504 36.8187C57.01 36.8916 57.1879 36.9463 57.4023 37.001C57.156 37.5983 57.0283 38.1362 57.0283 38.6058C57.0283 39.0435 57.156 39.4264 57.4114 39.7456C57.676 40.0419 57.9679 40.1923 58.2827 40.1923C58.6932 40.1923 59.0763 39.9735 59.4549 39.5313C60.1848 38.697 60.6637 38.2411 60.8781 38.0451C61.056 37.9265 61.3935 37.7396 61.877 37.5025C62.2419 37.3339 62.5977 37.1789 62.9444 37.0284C63.291 36.878 63.6468 36.7229 64.0163 36.5543C64.8145 36.1713 65.2388 35.4692 65.2114 34.5757C65.1795 33.9009 64.9788 33.3128 64.6184 32.8341C64.2809 32.3737 63.8931 32.1366 63.4689 32.1366L63.4598 32.1275ZM63.9753 33.5544C63.7563 33.5362 63.5739 33.5362 63.4507 33.5362H63.4051C63.104 33.5043 63.063 33.3994 63.063 33.29C63.063 33.1806 63.2363 33.1669 63.3367 33.1669C63.5647 33.1669 63.7882 33.3037 63.9753 33.5544ZM56.9918 35.72C56.8823 35.6607 56.7729 35.5786 56.6679 35.5011C56.5585 35.3917 56.5037 35.2869 56.4764 35.2094C56.5402 35.0589 56.6907 34.8583 56.8823 34.6668C57.1378 34.3659 57.2427 34.3523 57.2655 34.3523C57.2883 34.3523 57.3704 34.3751 57.4844 34.6851C57.5985 34.913 57.6258 35.0863 57.6304 35.1911C57.5118 35.3872 57.3111 35.5558 56.9918 35.72Z" fill="#0055B8"/>
<path d="M106.227 33.9376C106.063 33.5409 105.826 33.3495 105.502 33.3495C105.242 33.3495 104.982 33.4771 104.727 33.7324C104.512 33.9467 104.385 34.1199 104.298 34.3023C104.211 34.3296 104.125 34.4436 104.074 34.6032C103.942 34.8676 103.86 35.0454 103.81 35.1548C103.792 35.1959 103.778 35.2232 103.773 35.2369C103.687 35.3782 103.6 35.4968 103.454 35.6153C103.021 35.9527 102.355 36.1168 101.771 36.2627C101.712 36.2763 101.657 36.29 101.598 36.3037C101.844 36.0575 102.008 35.8296 102.113 35.5971C102.245 35.3326 102.305 35.0773 102.305 34.7445C102.305 34.4983 102.145 34.2248 101.798 33.8783C101.415 33.4954 100.973 33.313 100.444 33.313C99.8734 33.313 99.285 33.7096 98.6875 34.4983C98.4183 34.8585 98.0443 35.5104 97.4969 36.518C97.2734 36.3493 97.0454 36.1806 96.7854 36.0074C96.4843 35.8113 96.1924 35.7156 95.9005 35.7156C95.7271 35.7156 95.5492 35.7475 95.3577 35.8159C93.9163 36.3675 92.9857 37.3249 92.0096 38.4282C91.6949 38.7929 91.3026 38.9889 90.8647 38.9889C90.6458 38.9889 90.4952 38.9206 90.3949 38.7656C90.2809 38.6197 90.2261 38.451 90.2261 38.223C90.2261 37.872 90.331 37.407 90.5272 36.8736C90.778 36.2307 90.8647 35.9663 90.8647 35.8751C90.8647 35.8204 90.8237 35.7794 90.8145 35.7703C90.8008 35.7566 90.7872 35.7521 90.7735 35.7521C90.7142 35.7521 90.6823 35.8022 90.6366 35.8751L90.6001 35.9344C90.1166 36.869 89.8612 37.6805 89.8612 38.2823C89.8612 38.72 89.9889 39.1029 90.2444 39.4221C90.5135 39.7229 90.8054 39.8688 91.1429 39.8688C91.5398 39.8688 91.9458 39.6409 92.3198 39.2078C93.1682 38.2185 94.117 37.2246 95.5538 36.8462C95.8685 36.755 96.1103 36.7915 96.4843 36.9967C96.5208 37.0149 96.6576 37.1106 96.8447 37.2474C96.9359 37.3158 97.0454 37.3933 97.1731 37.4845C97.0818 37.7261 97.0317 37.8902 97.0317 38.0133C97.0317 38.0954 97.0727 38.141 97.0819 38.1455C97.0955 38.1592 97.1092 38.1638 97.1229 38.1638C97.2597 38.1638 97.392 37.8401 97.465 37.603C97.8025 37.7352 98.131 37.7945 98.4959 37.7945C99.3534 37.7945 100.115 37.6987 100.891 37.489C101.018 37.4571 101.164 37.4252 101.315 37.3887C102.031 37.2292 102.925 37.0286 103.39 36.5864C103.705 36.2991 103.951 35.9299 104.138 35.4466C104.754 35.8934 105.324 36.1122 105.881 36.1122C106.036 36.1122 106.177 35.9663 106.273 35.7065C106.378 35.4284 106.428 35.1457 106.428 34.8631C106.428 34.4892 106.364 34.1701 106.241 33.9239L106.227 33.9376ZM104.708 34.5758C104.708 34.5758 104.731 34.5394 104.772 34.4983C104.891 34.4391 105.005 34.4163 105.165 34.4163C105.27 34.4163 105.37 34.4619 105.466 34.5576C105.589 34.6488 105.662 34.7582 105.685 34.8767C105.685 34.9223 105.698 34.9588 105.707 34.9816C105.707 34.9861 105.712 34.9953 105.712 34.9998C105.712 35.0272 105.712 35.0317 105.68 35.0317C105.648 35.0317 105.644 35.0317 105.63 35.0181C105.621 35.0089 105.612 35.0044 105.602 35.0044C105.238 34.9132 104.927 34.7673 104.708 34.5804V34.5758ZM98.6053 36.7961C98.3545 36.7961 98.1082 36.7505 97.8983 36.673C98.7011 35.1138 99.4948 34.3251 100.257 34.3251C100.608 34.3251 100.964 34.4755 101.319 34.7719C101.63 34.9953 101.78 35.1776 101.807 35.2825C101.798 35.287 101.794 35.2916 101.789 35.3007C101.616 35.5925 101.224 35.8934 100.594 36.2216C99.8232 36.6091 99.171 36.7961 98.6099 36.7961H98.6053Z" fill="#0055B8"/>
<path d="M105.62 37.895C105.515 37.895 105.442 37.9269 105.365 38.0044C105.305 38.0637 105.274 38.123 105.242 38.1777C105.219 38.1914 105.205 38.2096 105.196 38.2233C105.191 38.2324 105.187 38.2369 105.178 38.2461C105.173 38.2461 105.169 38.2552 105.164 38.2597L105.073 38.4421C105.041 38.5105 104.954 38.6473 104.849 38.7248C104.343 39.0439 103.764 39.322 103.025 39.6046C102.902 39.6639 102.847 39.6913 102.733 39.7232C102.701 39.7323 102.683 39.7597 102.687 39.7916C102.687 39.8235 102.719 39.8463 102.747 39.8463C102.87 39.8463 103.002 39.8463 103.093 39.8144C103.613 39.7095 104.69 39.4952 105.087 38.9299C105.15 38.8205 105.205 38.6928 105.237 38.6108C105.237 38.6062 105.237 38.6017 105.242 38.5971C105.383 38.6928 105.552 38.7476 105.702 38.7476C105.784 38.7476 105.835 38.6518 105.848 38.6245C105.885 38.5515 105.885 38.4512 105.885 38.3555C105.885 38.2597 105.885 38.1594 105.848 38.0819C105.784 37.9543 105.707 37.895 105.611 37.895H105.62ZM105.479 38.2689C105.479 38.2689 105.492 38.2597 105.497 38.2597C105.529 38.2597 105.547 38.2734 105.575 38.3008C105.584 38.3099 105.588 38.3145 105.593 38.3327V38.3418C105.547 38.3236 105.497 38.3053 105.456 38.278C105.465 38.278 105.47 38.2734 105.479 38.2689Z" fill="#0055B8"/>
<path d="M101.26 38.4735C101.155 38.4735 101.023 38.5373 100.849 38.6741L100.562 38.9613H100.297C100.133 39.0023 99.9827 39.0798 99.8505 39.1847C99.7273 39.2759 99.5677 39.4035 99.4445 39.5585C99.3031 39.7272 99.1435 39.9187 99.0568 39.9779C98.9108 40.101 98.7831 40.1831 98.6919 40.2424L98.6371 40.2788C98.5505 40.3381 98.4912 40.3655 98.4912 40.3655C98.4638 40.3791 98.4547 40.4065 98.4593 40.4338C98.4638 40.4612 98.4912 40.4794 98.5185 40.4794H98.5505C98.5505 40.4794 98.6508 40.4794 98.7831 40.4475C98.8424 40.4293 98.9929 40.37 99.107 40.2515C99.2028 40.174 99.294 40.0782 99.3852 39.9871C99.4719 39.9004 99.5677 39.8047 99.6589 39.7272C99.8824 39.5038 100.079 39.4081 100.316 39.4081H100.453C100.516 39.44 100.557 39.44 100.617 39.44C100.836 39.44 101.032 39.3807 101.237 39.2439C101.433 39.0798 101.534 38.9111 101.534 38.7379C101.534 38.5647 101.433 38.4644 101.26 38.4644V38.4735ZM101.155 38.902C101.132 38.9111 101.105 38.9248 101.082 38.9385C100.977 38.9886 100.872 39.0206 100.772 39.0251C100.959 38.8564 101.091 38.8108 101.137 38.8108C101.214 38.8108 101.251 38.8245 101.274 38.8382C101.246 38.8564 101.205 38.8792 101.155 38.902Z" fill="#0055B8"/>
<path d="M64.2535 37.7129C64.2033 37.7129 64.1623 37.763 64.1212 37.8177C64.1075 37.8314 64.0984 37.8451 64.0893 37.8542C64.0847 37.8542 64.0802 37.8633 64.0756 37.8679C64.0483 37.9226 64.0209 37.9454 63.957 38.0183C63.8202 38.2417 63.7198 38.4332 63.6514 38.6019C63.4872 38.9347 63.4598 39.1626 63.4598 39.3632C63.4598 39.7872 63.6332 39.8511 63.7335 39.8511C63.8658 39.8511 63.9844 39.7644 64.0665 39.5958C64.0939 39.5137 64.1258 39.3906 64.1304 39.2629C64.1623 39.2174 64.1623 39.1535 64.1623 39.1216C64.1623 39.0259 64.1212 39.0076 64.0847 39.0076C64.03 39.0076 63.9935 39.076 63.9844 39.1216C63.9479 39.1535 63.9114 39.1535 63.8886 39.1535C63.8612 39.1535 63.7974 39.1535 63.7974 39.0031C63.7974 38.8253 63.9342 38.5335 64.1532 38.1232C64.217 38.032 64.2809 37.9317 64.3128 37.836C64.3128 37.8314 64.3128 37.8223 64.3128 37.8177V37.7858C64.3128 37.7858 64.3083 37.7539 64.2946 37.7448C64.2809 37.7357 64.2672 37.7266 64.2535 37.7266V37.7129Z" fill="#0055B8"/>
<path d="M57.22 30.3907C57.22 30.3907 57.1881 30.4044 57.1835 30.4181L56.8506 30.9469L56.1709 30.4956C56.1436 30.4774 56.1071 30.4819 56.0888 30.5093L55.6008 31.1795C55.6008 31.1795 55.5871 31.2114 55.5916 31.225C55.5962 31.2387 55.6053 31.257 55.619 31.2661L56.4446 31.8132C56.4446 31.8132 56.4674 31.8223 56.4765 31.8223C56.4765 31.8223 56.4857 31.8223 56.4902 31.8223C56.5039 31.8223 56.5221 31.8086 56.5267 31.7949L56.8597 31.2934L57.5713 31.7493C57.5713 31.7493 57.6032 31.763 57.6169 31.7584C57.6351 31.7584 57.6488 31.7448 57.6534 31.7311L58.0821 30.9971C58.1004 30.9697 58.0913 30.9333 58.0639 30.915L57.2702 30.3953C57.2702 30.3953 57.2383 30.3816 57.2246 30.3862L57.22 30.3907Z" fill="#0055B8"/>
<path d="M52.3529 30.5138C52.3529 30.5138 52.3666 30.5138 52.3757 30.5138C53.0827 30.2357 58.4378 28.2297 58.9623 28.0428C58.976 28.0428 58.9852 28.0337 58.9897 28.02C59.008 27.9927 59.1813 27.7647 59.2132 27.669C59.2132 27.6644 59.2132 27.6553 59.2132 27.6507V27.6188C59.2132 27.5869 59.1859 27.5596 59.1539 27.5596H59.122C59.122 27.5596 59.1083 27.5596 59.0992 27.5596C58.4925 27.7921 53.1238 29.8163 52.5445 29.9986C52.5308 30.0032 52.5171 30.0169 52.508 30.0305C52.4989 30.0488 52.4761 30.0853 52.4533 30.1263C52.3392 30.3132 52.2891 30.4044 52.2891 30.4545C52.2891 30.4728 52.2982 30.4956 52.3164 30.5047C52.3256 30.5138 52.3392 30.5138 52.3529 30.5138Z" fill="#0055B8"/>
<path d="M53.4248 32.1057C53.0781 32.2653 52.8957 32.3565 52.7953 32.4522L52.736 32.5115C52.736 32.5115 52.7132 32.557 52.7224 32.5798C52.7315 32.6026 52.7543 32.6163 52.7771 32.6163C52.7862 32.6163 52.8227 32.6163 52.9459 32.5844C53.0827 32.5434 53.2059 32.5115 53.3108 32.4795C53.6301 32.3884 53.808 32.3428 53.8855 32.2607C54.0087 32.1376 54.1957 31.9507 54.3462 31.741C54.5013 31.5541 54.5743 31.3899 54.5743 31.3352C54.5743 31.1255 54.2641 31.0298 53.5981 31.0298C53.402 31.0298 53.2971 31.0298 53.2423 31.0617C53.0873 31.0708 52.9459 31.162 52.9048 31.2441L52.7269 31.5723C52.6631 31.6361 52.6539 31.6817 52.6539 31.7C52.6539 31.7911 52.7543 31.7911 52.8774 31.7911C53.0827 31.7638 53.1739 31.7592 53.1739 31.7592C53.6757 31.7592 53.8399 31.7911 53.8901 31.8094C53.8627 31.8276 53.7669 31.8869 53.6757 31.9416C53.5981 31.9872 53.5115 32.0419 53.4248 32.0966V32.1057Z" fill="#0055B8"/>
<path d="M55.9244 38.6067C55.897 38.5884 55.8606 38.5975 55.8423 38.6249L55.482 39.1537L54.8023 38.6705C54.8023 38.6705 54.7704 38.6568 54.7567 38.6614C54.7385 38.6614 54.7248 38.675 54.7156 38.6887L54.2276 39.3908C54.2276 39.3908 54.2139 39.4227 54.2185 39.4364C54.223 39.4501 54.2321 39.4683 54.2458 39.4774L55.0988 40.0245C55.0988 40.0245 55.1216 40.0336 55.1307 40.0336C55.1307 40.0336 55.1399 40.0336 55.1444 40.0336C55.1627 40.0336 55.1763 40.0199 55.1809 40.0063L55.482 39.5093L56.2209 39.9926C56.2209 39.9926 56.2528 40.0063 56.2665 40.0017C56.2848 40.0017 56.2984 39.988 56.303 39.9744L56.7318 39.213C56.7455 39.1856 56.7409 39.1492 56.7135 39.1309L55.9198 38.6112L55.9244 38.6067Z" fill="#0055B8"/>
<path d="M52.7818 38.6067C52.7544 38.5884 52.718 38.5975 52.6997 38.6249L52.3394 39.1537L51.6597 38.6705C51.6597 38.6705 51.6278 38.6568 51.6141 38.6614C51.5959 38.6614 51.5822 38.675 51.5731 38.6887L51.1169 39.3908C51.0987 39.4182 51.1078 39.4546 51.1352 39.4729L51.9608 40.0199C51.9608 40.0199 51.9836 40.0291 51.9927 40.0291C51.9927 40.0291 52.0018 40.0291 52.0064 40.0291C52.0201 40.0291 52.0383 40.0154 52.0429 40.0017L52.3759 39.5048L53.1194 39.9926C53.1194 39.9926 53.1513 40.0063 53.1695 40.0017C53.1878 40.0017 53.2015 39.988 53.206 39.9698L53.6029 39.2084C53.6165 39.1811 53.6074 39.1446 53.5801 39.1309L52.7864 38.6112L52.7818 38.6067Z" fill="#0055B8"/>
<path d="M62.9717 30.6273C62.9717 30.6273 62.9899 30.6364 63.0036 30.6364C63.0082 30.6364 63.0127 30.6364 63.0173 30.6364C63.031 30.6364 63.0447 30.6227 63.0538 30.609L63.4825 29.875C63.5008 29.8477 63.4917 29.8112 63.4643 29.793L62.6387 29.2459C62.6387 29.2459 62.6068 29.2322 62.5931 29.2368C62.5748 29.2368 62.5612 29.2504 62.5566 29.2641L62.0685 30.0255C62.0685 30.0255 62.0548 30.0574 62.0594 30.0711C62.0594 30.0893 62.0731 30.103 62.0868 30.1075L62.9717 30.6273Z" fill="#0055B8"/>
<defs>
<linearGradient id="paint0_linear_629_2214" x1="5.07435" y1="10.7547" x2="42.4673" y2="48.167" gradientUnits="userSpaceOnUse">
<stop stop-color="#54565A"/>
<stop offset="1" stop-color="#54565A" stop-opacity="0.5"/>
</linearGradient>
<linearGradient id="paint1_linear_629_2214" x1="24.7475" y1="1.80615" x2="24.7475" y2="33.628" gradientUnits="userSpaceOnUse">
<stop stop-color="white" stop-opacity="0.5"/>
<stop offset="0.21" stop-color="#BED4ED" stop-opacity="0.37"/>
<stop offset="0.57" stop-color="#578FD0" stop-opacity="0.17"/>
<stop offset="0.85" stop-color="#1865BE" stop-opacity="0.05"/>
<stop offset="1" stop-color="#0055B8" stop-opacity="0"/>
</linearGradient>
</defs>
</svg>
