<svg width="143" height="50" viewBox="0 0 143 50" fill="none" xmlns="http://www.w3.org/2000/svg">
<path d="M117.263 0C131.069 0 142.263 11.1938 142.263 25C142.263 38.8063 131.069 50 117.263 50C103.456 50 92.2627 38.8063 92.2627 25C92.2627 11.1938 103.456 0 117.263 0ZM119.544 32.3242C119.431 32.3367 119.275 32.368 119.081 32.418C118.887 32.4617 118.681 32.518 118.469 32.5742C118.256 32.6305 118.056 32.6934 117.875 32.7559C117.688 32.8183 117.55 32.8743 117.463 32.918C117.107 33.1054 116.794 33.3561 116.538 33.6748C116.282 33.9935 116.075 34.3431 115.919 34.7305C115.763 35.118 115.65 35.5187 115.588 35.9375C115.525 36.356 115.512 36.7557 115.55 37.1367C115.606 37.7116 115.688 38.2868 115.788 38.8555C115.894 39.4305 116 39.9996 116.119 40.5684C116.238 41.137 116.356 41.7057 116.481 42.2744C116.606 42.8432 116.719 43.4123 116.819 43.9873C116.819 44.0183 116.813 44.0243 116.788 44.0059L116.7 43.918C116.663 43.8805 116.625 43.8367 116.581 43.793C116.538 43.7495 116.5 43.7124 116.463 43.6875C116.413 43.6438 116.369 43.6373 116.338 43.6748C116.3 43.7123 116.3 43.7684 116.338 43.8496C116.357 43.9121 116.406 44.0251 116.481 44.1875C116.556 44.3499 116.651 44.5374 116.757 44.7373C116.863 44.9372 116.963 45.1371 117.075 45.3369C117.181 45.5369 117.276 45.7057 117.351 45.8369C117.376 45.8744 117.4 45.8934 117.432 45.8809C117.463 45.8684 117.482 45.8495 117.494 45.8184C117.494 45.7996 117.513 45.7433 117.531 45.6621C117.55 45.5809 117.575 45.4872 117.594 45.3936C117.612 45.2998 117.632 45.2059 117.65 45.1309C117.663 45.0496 117.675 45.0057 117.669 44.9932C117.656 44.9619 117.625 44.9116 117.581 44.8555C117.538 44.7995 117.513 44.7435 117.494 44.6875L117.476 44.6807C117.457 44.5994 117.438 44.5056 117.413 44.3994C117.388 44.2932 117.362 44.1804 117.344 44.0742C117.319 43.9619 117.3 43.8557 117.281 43.7559C117.263 43.6559 117.244 43.5684 117.237 43.5059C117.131 42.931 117.019 42.3622 116.9 41.7998C116.775 41.2312 116.657 40.6623 116.538 40.0938C116.419 39.525 116.313 38.9555 116.213 38.3867C116.113 37.8118 116.032 37.2429 115.976 36.668C115.951 36.4868 115.925 36.3179 115.906 36.168C115.881 36.0181 115.888 35.8433 115.913 35.6436C115.938 35.4436 116.025 35.2374 116.169 35.0312C116.313 34.825 116.488 34.618 116.7 34.418C116.913 34.218 117.15 34.0179 117.406 33.8242C117.662 33.6305 117.925 33.4558 118.182 33.2871C118.444 33.1247 118.687 32.9749 118.925 32.8438C119.156 32.7125 119.357 32.6063 119.525 32.5312C119.55 32.5187 119.576 32.4996 119.601 32.4746C119.625 32.4498 119.644 32.431 119.656 32.4062C119.669 32.3813 119.669 32.3624 119.656 32.3438C119.644 32.325 119.606 32.318 119.544 32.3242ZM114.531 33.0439C114.528 33.0433 114.474 33.0322 114.456 33.0625C114.356 33.1875 114.262 33.3378 114.175 33.5127C114.087 33.6876 114.007 33.8753 113.932 34.0752C113.863 34.2688 113.8 34.4685 113.744 34.6621C113.688 34.8558 113.644 35.0313 113.619 35.1875C113.494 35.875 113.387 36.5689 113.3 37.2627C113.219 37.9564 113.144 38.6565 113.081 39.3564C113.019 40.0563 112.963 40.7562 112.9 41.4561C112.838 42.1561 112.769 42.8566 112.688 43.5566C112.681 43.5875 112.669 43.5932 112.65 43.5684C112.638 43.5434 112.619 43.5064 112.594 43.4629C112.569 43.4129 112.544 43.3623 112.519 43.2998C112.494 43.2375 112.462 43.1933 112.438 43.1621C112.4 43.1124 112.363 43.1004 112.325 43.1191C112.288 43.1442 112.263 43.2 112.263 43.2871C112.263 43.3496 112.275 43.4691 112.3 43.6504C112.325 43.8316 112.363 44.0314 112.4 44.25C112.444 44.4686 112.488 44.6935 112.531 44.9121C112.575 45.1371 112.613 45.325 112.65 45.4688C112.657 45.5187 112.682 45.5439 112.713 45.5439C112.744 45.5439 112.769 45.5312 112.788 45.5C112.801 45.4812 112.825 45.4371 112.875 45.3623C112.919 45.2874 112.969 45.2124 113.019 45.125C113.069 45.0375 113.113 44.9627 113.15 44.8877C113.188 44.8189 113.206 44.7746 113.2 44.7559C113.2 44.7245 113.188 44.6681 113.163 44.5996C113.138 44.5309 113.125 44.4683 113.125 44.4121C113.125 44.3309 113.137 44.2311 113.144 44.125C113.15 44.0126 113.163 43.9064 113.169 43.7939C113.175 43.6814 113.188 43.5687 113.2 43.4688C113.213 43.3625 113.225 43.2748 113.231 43.2061C113.313 42.5124 113.382 41.8185 113.444 41.1123C113.507 40.4124 113.569 39.7126 113.632 39.0127C113.694 38.3128 113.769 37.6189 113.856 36.9189C113.944 36.2191 114.044 35.5252 114.175 34.8379C114.225 34.5505 114.288 34.2626 114.344 33.9814C114.406 33.7003 114.475 33.4188 114.55 33.1377C114.569 33.0877 114.562 33.05 114.531 33.0312V33.0439ZM116.281 35.1504C116.244 35.1817 116.212 35.2505 116.193 35.3691C116.156 35.7378 116.163 36.0942 116.219 36.4316C116.275 36.7753 116.4 37.1006 116.594 37.4131C116.837 37.7941 117.131 38.1562 117.456 38.5186C117.787 38.8747 118.137 39.2251 118.506 39.5625C118.881 39.9 119.263 40.2381 119.656 40.5693C120.05 40.9005 120.432 41.2249 120.794 41.5498C121.156 41.8748 121.5 42.2004 121.825 42.5254C122.144 42.8503 122.419 43.1879 122.644 43.5254C122.65 43.5254 122.65 43.5377 122.644 43.5439C122.631 43.5501 122.625 43.5501 122.606 43.5439C122.525 43.5127 122.45 43.4875 122.381 43.4688C122.312 43.4501 122.25 43.4373 122.188 43.4248C122.132 43.4124 122.094 43.4251 122.075 43.4561C122.05 43.4873 122.05 43.5192 122.068 43.5566C122.093 43.5941 122.169 43.6631 122.307 43.7568C122.444 43.8505 122.587 43.9506 122.756 44.0566C122.924 44.1628 123.087 44.2688 123.256 44.375C123.425 44.4812 123.556 44.5625 123.656 44.625C123.688 44.6437 123.713 44.6248 123.713 44.5811C123.725 44.5436 123.731 44.4936 123.731 44.4189V44.1816C123.731 44.1004 123.731 44.0189 123.725 43.9502C123.725 43.8753 123.712 43.8191 123.706 43.7754V43.7686C123.693 43.7373 123.655 43.6933 123.568 43.6436C123.487 43.5937 123.437 43.5501 123.412 43.5127C123.343 43.4065 123.275 43.306 123.206 43.2061C123.137 43.1062 123.069 43.0002 123 42.9004C122.775 42.5629 122.507 42.2312 122.182 41.9062C121.863 41.5812 121.512 41.2566 121.144 40.9316C120.775 40.6067 120.394 40.2752 120 39.9502C119.606 39.619 119.218 39.2881 118.85 38.9443C118.475 38.6007 118.125 38.2566 117.794 37.9004C117.463 37.5441 117.175 37.1748 116.932 36.7998C116.626 36.3249 116.431 35.7879 116.356 35.1943C116.344 35.1318 116.319 35.1191 116.281 35.1504ZM125.656 36.0566C125.588 35.9879 125.557 36.0564 125.588 36.1064C125.838 36.4689 126.363 36.8628 126.838 37.2002C127.213 37.4749 127.45 37.5191 127.756 37.8438C128.256 38.3688 127.487 39.1123 127.175 39.3936C127.156 39.4124 127.331 39.8238 127.394 39.8066C127.787 39.7379 128.293 39.8686 128.506 39.6816C128.525 40.0881 129.618 41.1999 129.318 41.4873C129.2 41.6059 128.944 41.5192 128.906 41.5566C128.838 41.6258 129.025 41.9442 129.075 41.9941C129.188 42.1189 129.513 42.0935 129.625 41.9873C130.044 41.581 128.957 40.2748 129.025 40.2061C129.051 40.2034 130.222 41.0595 130.7 40.5996C130.781 40.5238 130.681 40.056 130.612 39.9873C130.543 39.9188 130.112 39.9247 130.037 40.0059L130.031 39.9941C129.994 40.0318 130 40.1442 129.956 40.1816C129.737 40.3931 128.695 39.6821 128.557 39.5752C128.682 39.2814 128.356 38.7811 128.287 38.8311C128.238 38.8567 128.312 39.075 128.182 39.2061C128.144 39.2435 128.013 39.2691 127.969 39.2441C128.281 38.6879 128.312 38.2313 127.769 37.6562C127.312 37.1689 127.088 37.1374 126.544 36.75C126.238 36.525 125.937 36.3128 125.656 36.0566ZM123.763 37.5117C123.775 37.4244 123.668 37.3496 123.581 37.4619C123.294 37.9057 122.694 38.8625 122.606 39.25C122.494 39.6692 122.607 41.0304 122.807 41.2617C123.063 41.5617 124.075 40.6309 124.307 40.4434C125.05 39.7623 125.063 39.7745 124.888 38.8311C124.819 38.425 124.806 38.3435 124.601 38.5742L124.594 38.5811C124.206 39.0437 123.1 40.0808 122.969 39.9121C122.881 39.7993 123.738 37.6305 123.763 37.5117ZM103.3 39.2939C103.269 39.294 103.238 39.3007 103.2 39.3193C103.163 39.338 103.119 39.3624 103.057 39.3936C103 39.431 102.919 39.475 102.825 39.5312C102.663 39.625 102.544 39.7064 102.463 39.7627C102.388 39.8252 102.381 39.8629 102.45 39.8691C103.888 40.1754 105.325 40.4568 106.763 40.6943C108.2 40.9381 109.65 41.1373 111.112 41.2998C111.181 41.2998 111.282 41.2689 111.413 41.2002C111.544 41.1314 111.763 40.9999 112.069 40.8125C112.1 40.8001 112.106 40.7816 112.088 40.7568L112.066 40.7246C110.605 40.5622 109.155 40.3624 107.719 40.125C106.281 39.8875 104.844 39.6129 103.406 39.3066C103.369 39.3004 103.331 39.2939 103.3 39.2939ZM112.066 40.7246L112.069 40.7256L112.062 40.7188L112.066 40.7246ZM108.132 37.707C107.932 37.6758 107.662 37.782 107.581 37.8945C107.45 38.0759 107.488 38.426 107.638 38.7695C107.781 39.1132 108.038 39.4506 108.288 39.6006C108.513 39.7314 108.675 39.5062 108.75 39.4062C108.931 39.3563 109.081 39.2625 109.144 39.1562C109.243 38.9687 108.962 38.6312 108.862 38.4375C109.444 38.325 109.944 38.25 110.432 38.1875C110.925 38.125 111.413 38.0687 111.95 37.9688C112.038 37.9562 112.088 37.8939 111.95 37.8877C111.425 37.8689 110.862 37.8877 110.312 37.9502C109.756 38.0064 109.207 38.1004 108.713 38.2441C108.619 38.0818 108.338 37.7449 108.132 37.707ZM108.487 38.6133C108.6 38.7883 108.719 38.9567 108.744 39.1504C108.7 39.2254 108.382 39.2066 108.319 38.9941C108.276 38.8381 108.381 38.7008 108.487 38.6133ZM107.844 37.9502C107.975 37.9377 108.268 38.3125 108.3 38.4004C108.212 38.4628 108.112 38.5313 108.05 38.5938C107.95 38.4744 107.756 38.0688 107.844 37.9502ZM105.169 35.8994C105 35.9057 104.869 35.9182 104.794 35.9307C104.781 35.9369 104.775 35.9502 104.756 35.9502C104.744 35.9506 104.738 35.9687 104.75 35.9873C104.762 36.0372 104.775 36.1121 104.8 36.2119C104.825 36.3057 104.85 36.4123 104.888 36.5186C104.919 36.6248 104.956 36.7375 105 36.8438L105.106 37.125C105.125 37.162 105.144 37.1748 105.162 37.1689L105.45 37.1182C105.55 37.0994 105.656 37.0871 105.769 37.0684C105.787 37.1309 105.812 37.2061 105.844 37.2998C105.875 37.3935 105.913 37.487 105.95 37.5869C105.988 37.6807 106.031 37.7812 106.075 37.875L106.193 38.1123C106.193 38.1123 106.225 38.1562 106.25 38.1562L106.644 38.0498C106.781 38.0123 106.919 37.9811 107.057 37.9561C107.075 37.9436 107.081 37.9246 107.075 37.8936C106.981 37.7373 106.9 37.5685 106.825 37.3936C106.75 37.2186 106.688 37.0496 106.638 36.8809L106.625 36.875C106.625 36.875 106.607 36.8327 106.606 36.8252C106.606 36.819 106.581 36.8122 106.544 36.8184L106.275 36.8623L105.956 36.9121C105.881 36.7497 105.825 36.5872 105.769 36.4248C105.719 36.2561 105.675 36.0932 105.644 35.9307C105.637 35.906 105.631 35.8874 105.625 35.875C105.625 35.8688 105.6 35.8623 105.562 35.8623C105.475 35.8748 105.344 35.8869 105.169 35.8994ZM126 28.2871C125.738 28.2934 125.488 28.3436 125.257 28.4248C125.026 28.5123 124.787 28.6434 124.55 28.8184L124.112 29.1436C123.962 29.256 123.812 29.3747 123.662 29.5059C123.662 29.5183 123.65 29.5311 123.638 29.5498C123.625 29.5685 123.638 29.5868 123.65 29.6055C123.732 29.6866 123.812 29.7559 123.881 29.8184L124.156 30.0557C124.206 30.1057 124.263 30.1182 124.319 30.0869C124.388 30.037 124.469 29.9874 124.557 29.9375C124.644 29.8875 124.738 29.8435 124.838 29.7998C124.938 29.7561 125.044 29.7246 125.15 29.6934C125.256 29.6684 125.362 29.6563 125.475 29.6562C125.625 29.6562 125.763 29.6807 125.888 29.7119C126.013 29.7494 126.144 29.8056 126.287 29.8867C126.362 29.9305 126.45 30.0123 126.544 30.1436C126.638 30.2747 126.719 30.4126 126.775 30.5625C126.838 30.7123 126.875 30.8626 126.881 31C126.887 31.1373 126.85 31.2436 126.769 31.2998C126.681 31.3621 126.544 31.3869 126.375 31.3682C126.206 31.3494 126.025 31.3435 125.838 31.3311C125.65 31.3248 125.468 31.3307 125.287 31.3682C125.106 31.3995 124.969 31.5059 124.856 31.6807C124.769 31.8181 124.725 31.962 124.713 32.1182C124.7 32.2744 124.713 32.4371 124.75 32.5996C124.787 32.7621 124.844 32.9313 124.919 33.0938C124.994 33.2561 125.087 33.4124 125.193 33.5498C125.056 33.4374 124.906 33.3373 124.737 33.2373C124.575 33.1436 124.406 33.068 124.237 33.0117C124.069 32.9556 123.912 32.9436 123.756 32.9561C123.6 32.9749 123.463 33.05 123.338 33.1748C123.194 33.3061 123.094 33.4562 123.025 33.625C122.957 33.7999 122.907 33.9686 122.869 34.1436C122.832 34.3185 122.794 34.4938 122.763 34.6562C122.731 34.8186 122.681 34.9683 122.612 35.0869C122.469 34.7995 122.312 34.5996 122.156 34.4746C121.994 34.3497 121.838 34.2873 121.682 34.2686C121.525 34.2561 121.375 34.2934 121.225 34.3809C121.081 34.4683 120.95 34.5869 120.831 34.7305C120.712 34.8742 120.606 35.0555 120.519 35.2617C120.431 35.468 120.375 35.6871 120.35 35.9121C120.162 35.5685 119.956 35.3685 119.737 35.2998C119.519 35.2311 119.318 35.2559 119.131 35.3809C118.944 35.4996 118.794 35.6996 118.669 35.9805C118.544 36.2617 118.506 36.5875 118.562 36.9688C118.569 37.0312 118.594 37.1124 118.638 37.2246C118.681 37.337 118.731 37.4495 118.781 37.5557C118.831 37.6682 118.888 37.7561 118.938 37.8311C118.987 37.906 119.025 37.9369 119.057 37.9307C119.069 37.9239 119.081 37.8802 119.094 37.7998C119.106 37.7248 119.119 37.6371 119.125 37.5371C119.131 37.4371 119.138 37.3433 119.138 37.2559V37.0811C119.138 37.0623 119.119 37.0375 119.081 37L118.981 36.8936C118.944 36.8561 118.913 36.8117 118.875 36.7617C118.844 36.7181 118.819 36.6745 118.807 36.6309C118.863 36.5497 118.969 36.4681 119.112 36.3994C119.256 36.3307 119.375 36.275 119.481 36.25C119.631 36.2125 119.744 36.2117 119.838 36.2617C119.925 36.3055 119.993 36.375 120.037 36.4688C120.081 36.5625 120.106 36.6749 120.106 36.7998C120.106 36.9246 120.094 37.0494 120.062 37.168C120.05 37.2116 120.069 37.2433 120.112 37.2559C120.156 37.2684 120.194 37.2557 120.219 37.2119C120.287 37.1244 120.357 36.9929 120.413 36.8242C120.469 36.6556 120.55 36.4744 120.638 36.2871C120.731 36.0997 120.85 35.9185 121 35.7373C121.144 35.5561 121.344 35.4186 121.606 35.2998C121.756 35.2373 121.881 35.2063 122 35.2188C122.119 35.225 122.219 35.2623 122.312 35.3311C122.4 35.3998 122.475 35.4933 122.531 35.6182C122.587 35.7431 122.619 35.8806 122.619 36.043C122.619 36.0742 122.632 36.1055 122.65 36.1367C122.675 36.168 122.7 36.1682 122.731 36.1494C122.794 36.1181 122.856 36.0118 122.919 35.8369L123.131 35.2305C123.212 35.0055 123.313 34.7742 123.432 34.543C123.55 34.312 123.713 34.1249 123.919 33.9688C124.081 33.8501 124.25 33.7997 124.425 33.8184C124.6 33.8434 124.775 33.8998 124.956 33.9873C125.137 34.0811 125.306 34.1936 125.469 34.3311C125.637 34.4684 125.781 34.5872 125.912 34.6934C126.237 34.9558 126.588 35.2059 126.969 35.4434C127.344 35.6808 127.712 35.8498 128.081 35.9561C128.118 35.9685 128.15 35.9558 128.175 35.9248C128.2 35.8873 128.206 35.8619 128.193 35.8369C128.168 35.7993 128.125 35.7306 128.081 35.6309C128.031 35.5371 127.981 35.4369 127.925 35.3369L127.769 35.0684C127.725 34.9875 127.688 34.944 127.669 34.9375C127.538 34.8875 127.363 34.812 127.132 34.6934C126.907 34.5809 126.681 34.4494 126.456 34.3057C126.231 34.162 126.025 34.0122 125.838 33.8623C125.65 33.7061 125.525 33.568 125.469 33.4492C125.419 33.3557 125.382 33.2622 125.369 33.1562C125.35 33.05 125.35 32.9496 125.369 32.8496C125.382 32.7497 125.407 32.6499 125.45 32.5625C125.488 32.4688 125.537 32.393 125.6 32.3242C125.687 32.2117 125.788 32.1432 125.906 32.1182C126.025 32.0932 126.144 32.0811 126.269 32.0811C126.394 32.0811 126.525 32.1 126.656 32.125C126.794 32.15 126.913 32.1685 127.031 32.1748C127.144 32.1811 127.25 32.1748 127.338 32.1436C127.425 32.1123 127.488 32.0496 127.531 31.9561C127.606 31.7749 127.637 31.5747 127.612 31.3623C127.587 31.1498 127.525 30.9432 127.425 30.7432C127.325 30.5432 127.194 30.3491 127.031 30.168C126.875 29.9868 126.7 29.8243 126.519 29.6807C126.331 29.537 126.15 29.4183 125.956 29.3184C125.825 29.2497 125.694 29.1937 125.575 29.1562C125.9 28.9626 126.231 28.8563 126.6 28.8438C127.031 28.8312 127.513 28.9057 128.044 29.0869C129.094 29.4432 130.131 29.7813 131.169 30.0938C132.206 30.4062 133.275 30.6561 134.375 30.8311C134.65 30.8623 134.931 30.8869 135.231 30.8994C135.525 30.9119 135.787 30.9058 136.006 30.8809C136.231 30.8559 136.387 30.8185 136.487 30.7686C136.587 30.7186 136.575 30.6495 136.463 30.5684L136.469 30.5996C136.425 30.5746 136.368 30.5373 136.287 30.4873C136.212 30.4374 136.131 30.3869 136.05 30.3369L135.825 30.2119C135.758 30.175 135.72 30.1569 135.713 30.1562C135.475 30.175 135.231 30.1871 134.975 30.1934C134.719 30.1934 134.475 30.1929 134.244 30.168C133.138 30.0242 132.062 29.7996 131.019 29.5371C129.975 29.2684 128.919 28.9683 127.856 28.6309C127.494 28.5184 127.163 28.4307 126.856 28.3682C126.55 28.3057 126.263 28.2809 126 28.2871ZM131.112 35.3379C130.95 35.444 130.781 35.5376 130.606 35.625C130.431 35.7125 130.256 35.7812 130.081 35.8438C130.056 35.8561 130.038 35.8629 130.025 35.8691C130.019 35.8691 130.013 35.8937 130.013 35.9375L130.057 36.2129L130.106 36.5371C129.944 36.6183 129.775 36.6934 129.606 36.7559C129.438 36.8184 129.268 36.8684 129.1 36.9121C129.069 36.9245 129.05 36.9313 129.044 36.9375C129.038 36.9375 129.031 36.9625 129.031 37C129.044 37.0938 129.056 37.225 129.062 37.4062C129.062 37.5812 129.075 37.7127 129.088 37.7939C129.1 37.8062 129.106 37.8126 129.112 37.8311C129.119 37.8436 129.132 37.8441 129.15 37.8379C129.207 37.8254 129.281 37.8066 129.375 37.7754C129.475 37.7442 129.581 37.7123 129.693 37.6748C129.806 37.6373 129.919 37.5936 130.031 37.5498L130.318 37.4248C130.356 37.4061 130.369 37.3873 130.362 37.3623L130.318 37.0684C130.3 36.9686 130.288 36.8563 130.275 36.7441C130.338 36.7254 130.419 36.6937 130.513 36.6562C130.606 36.6188 130.707 36.5808 130.807 36.5371C130.906 36.4934 131.006 36.4434 131.1 36.3936L131.344 36.2559C131.347 36.2537 131.387 36.2242 131.388 36.2002L131.287 35.7939C131.25 35.6503 131.218 35.5065 131.193 35.3691L131.182 35.3496C131.182 35.3496 131.15 35.3254 131.112 35.3379ZM114.987 31.8496C114.737 31.8184 114.437 31.8184 114.094 31.8496C113.75 31.8871 113.394 31.9497 113.038 32.0371C112.682 32.1308 112.338 32.2374 112.007 32.3623C111.682 32.4873 111.413 32.6248 111.2 32.7686C111 32.906 110.85 33.0688 110.763 33.25C110.675 33.4373 110.601 33.637 110.538 33.8555C110.494 34.0117 110.469 34.2123 110.45 34.4561C110.431 34.6997 110.45 34.9434 110.494 35.1934C110.538 35.4371 110.625 35.6623 110.744 35.8623C110.863 36.0684 111.038 36.1994 111.263 36.2744C111.425 36.3244 111.594 36.3057 111.763 36.2119C111.931 36.1182 112.088 35.9934 112.219 35.8311C112.35 35.6686 112.45 35.4935 112.513 35.2998C112.575 35.1061 112.575 34.9371 112.513 34.7871C112.475 34.6872 112.406 34.606 112.307 34.5498C112.207 34.4874 112.094 34.4373 111.976 34.3936C111.851 34.3498 111.725 34.3055 111.588 34.2617C111.45 34.218 111.332 34.1679 111.226 34.1055C111.119 34.043 111.038 33.9683 110.976 33.8809C110.913 33.7934 110.888 33.6805 110.906 33.543C111.05 33.4493 111.213 33.356 111.406 33.2686C111.6 33.1811 111.813 33.0936 112.038 33.0186C112.263 32.9436 112.501 32.875 112.744 32.8125C112.988 32.75 113.225 32.6996 113.456 32.6621C113.687 32.6246 113.913 32.6063 114.125 32.5938C114.337 32.5812 114.526 32.5936 114.694 32.6123C114.982 32.6498 115.194 32.7434 115.338 32.8809C115.482 33.0246 115.575 33.1872 115.606 33.3809C115.638 33.5746 115.626 33.7813 115.569 34C115.513 34.2249 115.419 34.4309 115.3 34.6309C115.2 34.787 115.1 34.9368 115 35.0742C114.9 35.2116 114.807 35.3307 114.726 35.4307C114.651 35.5119 114.625 35.5812 114.65 35.625C114.675 35.6683 114.72 35.6561 114.788 35.5938C115.069 35.3125 115.313 34.9935 115.525 34.6436C115.625 34.4874 115.713 34.3124 115.794 34.125L115.807 34.1309C115.888 33.9434 115.95 33.7494 116 33.5557C116.05 33.362 116.069 33.1679 116.069 32.9805C116.069 32.7931 116.031 32.6181 115.956 32.4619C115.881 32.3058 115.768 32.1745 115.612 32.0684C115.456 31.9622 115.25 31.8871 114.987 31.8496ZM108.881 28.6875C108.519 28.6375 108.206 28.625 107.943 28.6562C107.8 28.6688 107.663 28.7069 107.525 28.7568C107.388 28.8068 107.256 28.869 107.138 28.9502C107.013 29.0314 106.906 29.1252 106.8 29.2314C106.7 29.3377 106.612 29.457 106.55 29.582C106.494 29.6881 106.444 29.8193 106.4 29.9814C106.357 30.1439 106.319 30.3004 106.281 30.4629C106.25 30.6254 106.219 30.7633 106.188 30.8945C106.156 31.0193 106.125 31.1067 106.094 31.1504C106.081 31.1629 106.069 31.1564 106.057 31.1377C106.044 31.1189 106.031 31.0938 106.013 31.0625C105.994 31.0313 105.981 30.9999 105.969 30.9688C105.956 30.9378 105.944 30.9129 105.932 30.9004C105.894 30.8629 105.862 30.8508 105.831 30.8633C105.8 30.8758 105.782 30.9004 105.775 30.9375C105.769 31.0625 105.762 31.2383 105.75 31.457C105.738 31.6757 105.744 31.9259 105.763 32.207C105.775 32.2942 105.819 32.3187 105.888 32.2812C105.925 32.2625 105.975 32.2379 106.031 32.1943C106.094 32.1506 106.156 32.1063 106.219 32.0625C106.294 32.0125 106.369 31.9628 106.45 31.9004C106.463 31.8629 106.463 31.813 106.45 31.7568C106.431 31.7006 106.431 31.6568 106.45 31.6318C106.606 31.3757 106.719 31.1194 106.794 30.8633C106.869 30.607 106.938 30.3691 106.981 30.1504C107.031 29.9317 107.075 29.7439 107.112 29.5752C107.15 29.4128 107.213 29.2943 107.294 29.2256C107.469 29.2131 107.669 29.2131 107.894 29.2256C108.118 29.2443 108.35 29.2756 108.6 29.3193C108.85 29.3631 109.1 29.4196 109.35 29.4883C109.606 29.557 109.85 29.6313 110.081 29.7188C110.312 29.8062 110.531 29.9001 110.725 30C110.925 30.1 111.094 30.2004 111.237 30.3066C111.481 30.4879 111.631 30.6818 111.693 30.8818C111.756 31.0818 111.75 31.2818 111.693 31.4756C111.631 31.6692 111.518 31.8563 111.35 32.0312C111.181 32.2062 110.994 32.3506 110.781 32.4756C110.775 32.4756 110.762 32.482 110.756 32.4883C110.787 32.4509 110.818 32.4192 110.85 32.3818C110.968 32.2256 111.025 32.0812 111.019 31.9375C111.012 31.7941 110.956 31.6631 110.856 31.5508C110.756 31.4383 110.619 31.3445 110.438 31.2695C110.263 31.2008 110.062 31.1625 109.85 31.1562C109.631 31.1563 109.406 31.1946 109.169 31.2695C108.932 31.3507 108.706 31.4751 108.481 31.6562C108.369 31.7437 108.281 31.8501 108.219 31.9688C108.156 32.0874 108.106 32.2126 108.068 32.3438C108.031 32.4749 108.006 32.6126 108 32.75C107.994 32.8875 107.987 33.0256 107.987 33.1631C107.656 33.2068 107.337 33.2443 107.031 33.2568C106.731 33.2756 106.5 33.2883 106.344 33.3008C106.294 33.3008 106.219 33.3318 106.112 33.3818C106.006 33.4318 105.906 33.4878 105.812 33.5439C105.725 33.6002 105.65 33.6564 105.6 33.7002C105.55 33.7439 105.55 33.7689 105.606 33.7627C105.975 33.7315 106.369 33.7066 106.781 33.6816C107.194 33.6566 107.6 33.6318 107.994 33.6006C108.013 33.8566 108.031 34.1064 108.031 34.3438C108.031 34.5812 108.031 34.8004 108.006 34.9941C107.937 34.9319 107.894 34.8883 107.875 34.8633C107.856 34.8383 107.825 34.8066 107.775 34.7754C107.694 34.7192 107.65 34.719 107.631 34.7627C107.612 34.8064 107.612 34.8633 107.631 34.9258C107.643 34.9634 107.669 35.0445 107.7 35.1631C107.738 35.2818 107.775 35.4069 107.812 35.5381C107.856 35.6693 107.894 35.7946 107.938 35.8945C107.975 36.0006 108.006 36.0568 108.031 36.0693C108.062 36.088 108.112 36.0754 108.162 36.0381C108.218 36.0006 108.275 35.9507 108.331 35.8945C108.387 35.8383 108.444 35.7812 108.487 35.7188C108.531 35.6563 108.562 35.6064 108.581 35.5752C108.606 35.5564 108.612 35.5191 108.6 35.4629C108.587 35.4066 108.568 35.3192 108.537 35.1943C108.575 34.9631 108.6 34.7125 108.612 34.4375C108.625 34.1627 108.613 33.8567 108.588 33.5195C109.038 33.4758 109.45 33.357 109.838 33.1758C109.975 33.1071 110.107 33.025 110.231 32.9375C110.481 32.8375 110.725 32.7253 110.969 32.5879C111.137 32.4942 111.306 32.3816 111.475 32.2441L111.487 32.2568C111.656 32.1193 111.813 31.9752 111.95 31.8252C112.094 31.6691 112.206 31.5068 112.3 31.332C112.393 31.1571 112.444 30.9819 112.456 30.8008C112.469 30.6195 112.431 30.4377 112.344 30.2627C112.256 30.0815 112.1 29.9128 111.881 29.7441C111.668 29.588 111.394 29.438 111.062 29.2881C110.725 29.1444 110.369 29.0189 109.994 28.9189C109.619 28.8189 109.243 28.7375 108.881 28.6875ZM133.194 31.8936C133.163 31.8061 133.038 31.7875 133.013 31.9375C132.956 32.4625 132.85 33.5869 132.95 33.9746C133.038 34.3995 133.756 35.5612 134.031 35.6807C134.4 35.8306 134.881 34.5384 135 34.2627C135.356 33.3191 135.369 33.3247 134.788 32.5625C134.551 32.2313 134.494 32.1688 134.413 32.4688C134.276 33.0563 133.756 34.4869 133.562 34.3994C133.431 34.3333 133.226 32.0129 133.194 31.8936ZM111.188 34.9932C111.312 35.0494 111.438 35.0932 111.575 35.1182C111.706 35.1432 111.831 35.1994 111.95 35.2744C112 35.2994 112.018 35.3307 112.019 35.3682C112.019 35.4056 112 35.4311 111.963 35.4561C111.925 35.481 111.882 35.4992 111.819 35.5117C111.757 35.5242 111.694 35.5242 111.625 35.5117C111.519 35.4867 111.425 35.4185 111.338 35.3125C111.25 35.2062 111.2 35.0994 111.188 34.9932ZM100.619 32.5059C100.357 32.5746 100.256 32.6254 100.312 32.6504C101.281 33.2253 102.256 33.7749 103.237 34.2998C104.218 34.8248 103.394 34.4379 104.412 34.9189H104.419C104.469 34.9376 104.544 34.9376 104.644 34.9189C104.744 34.9002 104.919 34.8629 105.156 34.8066C105.194 34.8066 105.194 34.7936 105.175 34.7686V34.7441C104.156 34.2629 104.981 34.6495 103.994 34.1309C103.007 33.6121 102.025 33.0623 101.057 32.4873C101 32.4561 100.95 32.4498 100.912 32.4561C100.874 32.4685 100.775 32.481 100.619 32.5059ZM122.8 30.5186C121.944 30.8936 122 32.3631 121.094 32.6631C120.694 32.7941 120.5 32.482 120.206 33.1318C120.069 33.1318 119.856 33.1194 119.75 33.2256C119.594 33.3819 119.631 33.7562 119.688 33.9375C119.7 33.9687 119.781 34.2251 119.825 34.1504C119.863 34.0816 119.881 33.9688 119.894 33.9062C119.893 33.8803 119.769 33.7002 119.8 33.6191C119.819 33.5754 120.069 33.5506 120.156 33.5693C120.144 33.6445 120.137 33.8069 120.144 33.8193L120.15 33.8125C120.144 33.9 120.207 33.8752 120.226 33.8252C120.463 32.788 120.706 33.2252 121.125 33.0879C121.837 32.8504 122.119 31.5439 122.669 30.7627C122.694 30.7312 122.925 30.4686 122.8 30.5186ZM130.037 31.5879C129.906 31.6878 129.769 31.7817 129.625 31.8691C129.481 31.9565 129.331 32.0313 129.182 32.0938C129.157 32.1062 129.144 32.1129 129.138 32.1191C129.131 32.1191 129.137 32.1445 129.144 32.1758L129.244 32.4189L129.362 32.707C129.225 32.7882 129.087 32.8629 128.943 32.9316C128.8 33.0003 128.656 33.0569 128.513 33.1006H128.531C128.529 33.1016 128.488 33.1187 128.481 33.125C128.475 33.125 128.475 33.1504 128.481 33.1816C128.513 33.2629 128.556 33.3816 128.6 33.5439C128.643 33.7002 128.681 33.8195 128.706 33.8945C128.719 33.9008 128.725 33.9133 128.737 33.9258C128.744 33.9379 128.756 33.9379 128.769 33.9258C128.812 33.9133 128.882 33.8877 128.963 33.8564C129.044 33.8253 129.137 33.7878 129.225 33.7441C129.318 33.7004 129.412 33.6564 129.506 33.6064L129.744 33.4756C129.746 33.474 129.781 33.4373 129.769 33.4189L129.662 33.1562C129.625 33.0688 129.587 32.969 129.55 32.8691C129.606 32.8441 129.675 32.8191 129.75 32.7754C129.831 32.7379 129.913 32.6941 129.994 32.6504C130.075 32.6067 130.156 32.5562 130.237 32.5L130.432 32.3633C130.432 32.3633 130.463 32.3316 130.463 32.3066L130.281 31.957C130.213 31.832 130.156 31.7062 130.1 31.5938C130.087 31.5754 130.062 31.5755 130.037 31.5879ZM130.944 32.3691C130.807 32.4878 130.657 32.5879 130.507 32.6816C130.357 32.7754 130.2 32.8508 130.05 32.9258C130.025 32.9382 130.006 32.9508 130 32.957C129.999 32.9606 129.995 32.9839 130.007 33.0127C130.038 33.1002 130.081 33.2253 130.131 33.3877C130.181 33.5502 130.225 33.6695 130.269 33.7383C130.269 33.7692 130.288 33.7816 130.319 33.7754C130.369 33.7566 130.431 33.7252 130.519 33.6816C130.606 33.6379 130.694 33.5943 130.794 33.5381C130.894 33.4882 130.987 33.4319 131.081 33.3633C131.175 33.3008 131.25 33.2443 131.312 33.1943C131.338 33.1756 131.35 33.1564 131.344 33.1377L131.175 32.7627C131.119 32.6253 131.063 32.4999 131.013 32.375C131 32.3565 130.975 32.3568 130.944 32.3691ZM108.725 31.7939C108.881 31.7502 109.056 31.7383 109.256 31.7695C109.456 31.8008 109.638 31.8504 109.807 31.9316C109.969 32.0066 110.094 32.1008 110.188 32.207C110.275 32.3132 110.287 32.4253 110.219 32.5439C110.169 32.6377 110.075 32.7193 109.938 32.7881C109.8 32.8568 109.643 32.9191 109.475 32.9629C109.306 33.0066 109.144 33.044 108.981 33.0752C108.819 33.1064 108.688 33.1191 108.588 33.1191C108.575 32.9129 108.575 32.688 108.588 32.4443C108.607 32.1943 108.65 31.9814 108.725 31.7939ZM107.25 6.25C107.206 6.21875 107.175 6.2123 107.156 6.2373C107.131 6.25606 107.125 6.28736 107.131 6.33105C107.131 6.34999 107.143 6.40633 107.162 6.4873C107.181 6.56853 107.2 6.66215 107.219 6.75586C107.238 6.84961 107.257 6.93731 107.275 7.01855C107.3 7.09337 107.313 7.13693 107.325 7.14941C107.35 7.17441 107.394 7.20605 107.463 7.2373C107.531 7.2685 107.581 7.30598 107.612 7.34961C107.8 7.61205 107.988 7.88052 108.169 8.13672C108.35 8.39911 108.525 8.64952 108.693 8.89941C108.837 9.11191 109.013 9.36856 109.213 9.6748C109.413 9.9746 109.625 10.2809 109.85 10.5869C110.068 10.8931 110.294 11.1809 110.519 11.4434C110.7 11.6557 110.875 11.8307 111.037 11.9619C111.025 11.9744 111.012 11.9875 111 12L110.675 12.418C110.562 12.5616 110.45 12.6995 110.338 12.8369C110.225 12.9744 110.106 13.1 109.987 13.2188C109.869 13.3373 109.744 13.437 109.619 13.5244C109.457 13.6431 109.306 13.7121 109.169 13.7246C109.031 13.7371 108.906 13.7248 108.781 13.6748C108.656 13.6311 108.544 13.5685 108.438 13.4873C108.331 13.4061 108.231 13.3312 108.144 13.25C108.056 13.175 107.975 13.118 107.9 13.0742C107.826 13.0305 107.756 13.0307 107.7 13.0742C107.613 13.1305 107.556 13.2559 107.55 13.4434C107.544 13.6309 107.55 13.8438 107.581 14.0625C107.612 14.2874 107.656 14.5064 107.706 14.7188C107.762 14.9311 107.8 15.0936 107.812 15.2061C107.856 15.5685 107.844 15.9309 107.781 16.2871C107.719 16.6432 107.625 16.9743 107.5 17.293C107.519 17.3367 107.531 17.3811 107.55 17.4248L107.619 17.5742C107.644 17.6305 107.681 17.6998 107.719 17.7686C107.762 17.8434 107.819 17.9369 107.894 18.043C107.912 18.0742 107.938 18.093 107.969 18.1055C108 18.118 108.025 18.1055 108.05 18.0742C108.175 17.9243 108.337 17.7558 108.55 17.5684C108.762 17.3809 108.988 17.2061 109.231 17.0498C109.475 16.8873 109.719 16.756 109.963 16.6436C110.206 16.5312 110.418 16.4555 110.6 16.418C110.425 16.7742 110.256 17.1561 110.106 17.5498C109.956 17.9497 109.781 18.3056 109.562 18.6367C109.45 18.7867 109.294 18.8623 109.094 18.8623C108.888 18.8623 108.669 18.825 108.438 18.75C108.2 18.675 107.969 18.5871 107.737 18.4746L107.144 18.1992C106.869 18.0806 106.594 17.9685 106.325 17.8623C106.056 17.7561 105.781 17.6617 105.5 17.5742C105.219 17.4867 104.925 17.4121 104.612 17.3496C104.306 17.2871 103.975 17.2373 103.625 17.2061H103.344C103.231 17.2061 103.125 17.2248 103.025 17.2373C102.932 17.256 102.857 17.281 102.807 17.3184C102.757 17.3496 102.762 17.3873 102.818 17.4248L103.031 17.6055C103.113 17.6742 103.2 17.75 103.281 17.8125C103.369 17.8812 103.444 17.9373 103.519 17.9873C103.593 18.0372 103.644 18.0618 103.675 18.0557C103.912 18.0619 104.212 18.0868 104.568 18.1367C104.925 18.1867 105.288 18.2557 105.656 18.3369C106.019 18.4244 106.363 18.5242 106.688 18.6367C107.006 18.7492 107.257 18.8561 107.432 18.9561C107.494 18.9935 107.569 19.0498 107.644 19.1309C107.719 19.2121 107.788 19.3 107.838 19.4062C107.95 19.6436 108.069 19.9433 108.213 20.293C108.35 20.643 108.481 20.9873 108.606 21.3311C108.731 21.6747 108.831 21.9811 108.906 22.2686C108.981 22.556 108.994 22.7813 108.919 22.9688C108.856 23.1249 108.762 23.2368 108.631 23.293C108.5 23.3554 108.343 23.3867 108.175 23.3867C108 23.3867 107.819 23.3687 107.625 23.3125C107.431 23.2625 107.25 23.2061 107.081 23.1436H107.075C107.069 22.8374 107.1 22.4997 107.193 22.1436C107.2 22.1123 107.162 22.0625 107.068 22C106.975 21.9376 106.888 21.8684 106.807 21.7998C106.713 21.7311 106.625 21.675 106.544 21.625C106.463 21.575 106.412 21.5808 106.394 21.6494C106.281 22.0557 106.169 22.4436 106.05 22.8311C105.931 23.2183 105.819 23.612 105.713 24.0117C105.607 24.4117 105.519 24.8248 105.438 25.2373C105.356 25.656 105.306 26.0876 105.281 26.5312C105.181 26.4125 105.056 26.3125 104.912 26.2188C104.768 26.125 104.613 26.0369 104.45 25.9619C104.288 25.8807 104.138 25.8125 103.981 25.75C103.831 25.6875 103.687 25.6246 103.568 25.5684C103.45 25.5122 103.35 25.4617 103.281 25.418C103.213 25.3744 103.181 25.3372 103.193 25.2998C103.206 25.2748 103.25 25.2496 103.331 25.2246L103.625 25.125C103.744 25.0875 103.862 25.0371 103.987 24.9746C104.112 24.9121 104.232 24.8373 104.338 24.7373C104.444 24.6373 104.531 24.5183 104.594 24.3809C104.656 24.2434 104.681 24.0746 104.669 23.8809C104.669 23.6371 104.619 23.4307 104.519 23.2744C104.419 23.112 104.294 22.9744 104.138 22.8682C103.982 22.7557 103.807 22.6621 103.619 22.5996C103.425 22.5309 103.244 22.4742 103.057 22.418C103.269 22.418 103.482 22.4062 103.7 22.375C103.919 22.3437 104.113 22.2931 104.294 22.2119C104.475 22.1369 104.625 22.0242 104.75 21.8867C104.875 21.7492 104.956 21.5616 104.987 21.3242C105.043 21.1118 105.05 20.9243 105 20.7432C104.95 20.562 104.869 20.3935 104.75 20.2373C104.631 20.0811 104.488 19.9369 104.312 19.8057C104.138 19.6744 103.956 19.5555 103.763 19.4492C103.569 19.343 103.375 19.2498 103.188 19.1748C103 19.0998 102.825 19.0367 102.669 18.9805C102.044 18.7742 101.413 18.6246 100.763 18.5371C100.113 18.4496 99.4684 18.3563 98.8184 18.25C98.7873 18.2375 98.7876 18.2183 98.8125 18.1934C98.8375 18.1684 98.8813 18.1367 98.9375 18.1055C98.9937 18.068 99.0564 18.031 99.125 17.9873C99.1937 17.9436 99.2502 17.9057 99.2939 17.8682C99.3625 17.8182 99.3933 17.7617 99.3809 17.6992C99.3682 17.6371 99.3186 17.6055 99.2314 17.6055C99.1689 17.6055 99.0375 17.6187 98.8438 17.6562C98.65 17.6938 98.4312 17.7496 98.1875 17.8184C97.9437 17.8871 97.6998 17.9623 97.4561 18.0498C97.2124 18.1373 97.0062 18.2125 96.8438 18.2812C96.7939 18.3 96.7684 18.3369 96.7559 18.3867C96.7496 18.4366 96.7564 18.4805 96.7812 18.5117L96.9004 18.6367C96.9629 18.7055 97.0377 18.775 97.1064 18.8438C97.1813 18.9124 97.2503 18.9751 97.3252 19.0312C97.3937 19.0873 97.4315 19.1119 97.4502 19.1182C97.4877 19.1056 97.5443 19.0808 97.6191 19.0371C97.6938 18.9936 97.7623 18.975 97.8184 18.9688L98.1123 18.9805L98.4502 19C98.5626 19.0063 98.6755 19.0182 98.7754 19.0244C98.8752 19.0369 98.9626 19.0432 99.0312 19.0557C99.6875 19.1432 100.344 19.2184 100.994 19.2871C101.644 19.3559 102.281 19.4932 102.906 19.6807C103.106 19.7369 103.306 19.793 103.506 19.8555C103.7 19.918 103.894 19.993 104.088 20.0742C104.125 20.1242 104.15 20.1932 104.156 20.2744C104.163 20.3557 104.163 20.4434 104.156 20.5371C104.144 20.6309 104.131 20.725 104.112 20.8125C104.094 20.8997 104.075 20.9809 104.057 21.0557C103.988 21.3306 103.85 21.5186 103.638 21.6436C103.425 21.7623 103.181 21.843 102.912 21.8867C102.643 21.9242 102.374 21.9373 102.1 21.9248C101.825 21.9061 101.593 21.8937 101.412 21.875C100.943 21.8313 100.474 21.7932 100.006 21.7432C99.5372 21.6932 99.0686 21.6807 98.5938 21.7119C98.1813 21.7307 97.7996 21.7686 97.4434 21.8311C97.0873 21.8935 96.7684 21.9618 96.4873 22.043C96.3875 22.0617 96.3438 22.112 96.3438 22.1807C96.3438 22.2494 96.4066 22.3057 96.5254 22.3369C96.619 22.3681 96.7187 22.4124 96.8311 22.4561C96.9436 22.4998 97.05 22.5436 97.1562 22.5811C97.2624 22.6185 97.3498 22.6498 97.4248 22.6748C97.4998 22.6998 97.5441 22.7119 97.5566 22.7119C97.7815 22.6932 98.0062 22.6617 98.2373 22.6367C98.4686 22.6055 98.7004 22.5807 98.9316 22.5557C99.4064 22.5182 99.8749 22.5186 100.35 22.5498C100.818 22.581 101.293 22.5998 101.756 22.6123C102.031 22.6248 102.319 22.6496 102.619 22.6934C102.919 22.7371 103.194 22.793 103.456 22.8555C103.506 22.8992 103.544 22.9619 103.575 23.043C103.606 23.1242 103.632 23.2057 103.65 23.3057C103.669 23.3993 103.681 23.4932 103.688 23.5869C103.694 23.6806 103.694 23.762 103.688 23.8369C103.681 24.0432 103.643 24.1996 103.568 24.3184C103.493 24.437 103.406 24.5309 103.294 24.5996C103.188 24.6684 103.069 24.7246 102.938 24.7559C102.813 24.7933 102.688 24.8188 102.575 24.8438C102.463 24.8687 102.362 24.8932 102.287 24.9307C102.212 24.9619 102.168 25.0188 102.162 25.0938C102.15 25.1999 102.219 25.3189 102.362 25.4375C102.506 25.5625 102.675 25.6805 102.869 25.793C103.063 25.9054 103.263 26.0059 103.463 26.0996C103.663 26.187 103.813 26.2563 103.906 26.3125C104.219 26.5 104.494 26.7313 104.731 27C104.969 27.2687 105.175 27.5501 105.35 27.8438C105.393 27.8562 105.444 27.8746 105.487 27.8809L105.644 27.918C105.706 27.9305 105.775 27.9436 105.856 27.9561C105.944 27.9685 106.044 27.9748 106.175 27.9873C106.212 27.9873 106.244 27.9873 106.269 27.9688C106.294 27.9562 106.306 27.9242 106.294 27.8867C106.25 27.6931 106.219 27.4558 106.2 27.1748C106.181 26.8937 106.187 26.6061 106.206 26.3125C106.231 26.0187 106.275 25.743 106.331 25.4805C106.394 25.2182 106.463 24.9997 106.544 24.8311C106.713 25.1935 106.906 25.5624 107.125 25.9248C107.344 26.2872 107.512 26.6495 107.644 27.0244C107.694 27.2117 107.669 27.3743 107.557 27.5117C107.444 27.6555 107.3 27.7807 107.112 27.8994C106.925 28.0119 106.725 28.118 106.5 28.1992C106.281 28.2867 106.088 28.3619 105.919 28.4307C104.888 28.8432 103.875 29.2625 102.881 29.6875C101.887 30.1187 100.906 30.6122 99.9502 31.1934C99.7189 31.3434 99.4875 31.5121 99.25 31.6934C99.0188 31.8746 98.8184 32.0494 98.6621 32.2119C98.5059 32.3744 98.406 32.5061 98.3623 32.6123C98.3188 32.7121 98.3753 32.7557 98.5127 32.7432C98.5627 32.7369 98.6314 32.725 98.7188 32.7188C98.8063 32.7062 98.9004 32.6936 98.9941 32.6748L99.2441 32.625C99.3182 32.6065 99.3555 32.5997 99.3623 32.5996C99.531 32.4309 99.7126 32.2624 99.9062 32.0938C100.094 31.925 100.294 31.768 100.481 31.6367C101.419 31.0306 102.387 30.5058 103.362 30.0371L103.45 30.0498C104.425 29.5811 105.425 29.1308 106.443 28.6934C106.581 28.6371 106.738 28.5686 106.919 28.4873C107.1 28.4061 107.281 28.3187 107.469 28.2188C107.656 28.1188 107.837 28.0186 108.006 27.9062C108.174 27.8001 108.318 27.6811 108.443 27.5625C108.562 27.4438 108.65 27.3184 108.7 27.1934C108.75 27.0685 108.744 26.9372 108.682 26.7998C108.582 26.575 108.463 26.3561 108.338 26.1562L107.95 25.5371C107.819 25.3247 107.694 25.1061 107.575 24.875C107.456 24.6437 107.35 24.3932 107.269 24.1182C107.2 23.887 107.156 23.6368 107.131 23.3682C107.143 23.3682 107.156 23.3809 107.169 23.3809C107.375 23.4558 107.625 23.5182 107.912 23.5869C108.2 23.6494 108.481 23.6812 108.763 23.6875C109.044 23.6875 109.288 23.6621 109.5 23.5996C109.712 23.5371 109.85 23.4248 109.919 23.25C109.963 23.15 109.968 23.0246 109.943 22.8809C109.918 22.7372 109.881 22.5811 109.818 22.4062C109.762 22.2313 109.687 22.0437 109.6 21.8438L109.338 21.2246C109.244 21.0121 109.156 20.8059 109.062 20.5996C108.969 20.3934 108.881 20.1994 108.794 20.0244C108.675 19.7932 108.518 19.5875 108.318 19.4062C108.118 19.225 107.919 19.0432 107.706 18.8682L108.156 19.0557C108.325 19.1244 108.494 19.1998 108.669 19.2686C108.844 19.3373 109.025 19.3998 109.2 19.4561C109.375 19.5122 109.544 19.5431 109.693 19.5557C109.843 19.5682 109.981 19.5555 110.094 19.5117C110.212 19.468 110.3 19.3867 110.369 19.2617C110.488 19.037 110.582 18.8185 110.669 18.5938L110.919 17.9062C111 17.675 111.1 17.4435 111.2 17.2061C111.306 16.9687 111.437 16.7311 111.6 16.5C111.762 16.2688 111.969 16.0432 112.206 15.8369C112.45 15.6307 112.744 15.4433 113.1 15.2871C113.131 15.2746 113.143 15.2121 113.131 15.0996C113.125 14.9871 113.125 14.8742 113.131 14.7617C113.131 14.6494 113.119 14.5429 113.106 14.4492C113.094 14.3557 113.056 14.3188 113 14.3438C112.619 14.5 112.237 14.6496 111.862 14.7871C111.487 14.9308 111.113 15.0807 110.731 15.2432C110.356 15.4057 109.981 15.5811 109.606 15.7686C109.231 15.9623 108.862 16.1812 108.5 16.4375C108.531 16.2875 108.537 16.1242 108.519 15.9492C108.5 15.7744 108.475 15.5996 108.438 15.4248C108.4 15.2498 108.362 15.0805 108.318 14.918C108.275 14.7557 108.237 14.6116 108.206 14.4805C108.175 14.3494 108.156 14.2433 108.144 14.1621C108.137 14.0809 108.144 14.0311 108.188 14.0186C108.212 14.0186 108.262 14.0373 108.331 14.0811L108.588 14.2559C108.694 14.3245 108.807 14.3936 108.932 14.4561C109.056 14.5184 109.187 14.5625 109.331 14.5938C109.475 14.6187 109.619 14.6186 109.763 14.5811C109.913 14.5498 110.056 14.4623 110.2 14.3311C110.331 14.2124 110.462 14.081 110.581 13.9248C110.7 13.7686 110.825 13.6117 110.943 13.4492L111.294 12.9561C111.406 12.7936 111.525 12.6369 111.644 12.4932C111.937 12.7306 112.225 12.8935 112.506 12.9873C112.775 13.0748 113.063 13.0748 113.388 12.9873C113.381 13.0372 113.369 13.0933 113.362 13.1494C113.344 13.3057 113.331 13.4434 113.331 13.5684C113.331 13.9496 113.413 14.2871 113.562 14.5684C113.712 14.8496 113.907 15.0873 114.15 15.2686C114.394 15.4497 114.681 15.587 115 15.6807C115.325 15.7744 115.663 15.8119 116.013 15.8057C116.425 15.7994 116.888 15.7435 117.4 15.6436C117.688 15.5873 117.969 15.5183 118.256 15.4434C118.187 15.6058 118.125 15.7624 118.081 15.9248C118.019 16.1371 117.988 16.3432 117.981 16.543C117.975 16.7492 118.006 16.9373 118.075 17.1123C118.144 17.2872 118.263 17.4376 118.432 17.5625C118.594 17.6873 118.819 17.7749 119.1 17.8311C119.281 17.8686 119.482 17.8871 119.713 17.8809C119.944 17.8808 120.187 17.8623 120.443 17.8311C120.7 17.7998 120.963 17.7623 121.231 17.7061C121.5 17.6498 121.756 17.5867 122.006 17.5117C122.256 17.443 122.487 17.3619 122.706 17.2744C122.919 17.1869 123.106 17.0937 123.263 17C123.425 16.9001 123.581 16.756 123.725 16.5625C123.868 16.3687 123.969 16.1807 124.031 15.9932C124.081 15.8495 124.106 15.7179 124.094 15.6055C124.087 15.4931 124.069 15.387 124.044 15.2871C124.019 15.1871 123.994 15.0809 123.969 14.9746C123.944 14.8684 123.944 14.7434 123.956 14.5996V14.5811L124.35 14.6494L124.906 14.75C124.813 14.8562 124.743 14.962 124.693 15.0557C124.643 15.1494 124.612 15.2436 124.6 15.3311C124.587 15.4185 124.587 15.5124 124.6 15.6123C124.612 15.7123 124.637 15.8247 124.675 15.9434L124.5 16.043C124.431 16.0805 124.369 16.1187 124.312 16.1562C124.256 16.1937 124.206 16.237 124.175 16.2744C124.137 16.3119 124.125 16.3438 124.131 16.375C124.137 16.4123 124.169 16.4248 124.213 16.4248C124.257 16.4247 124.313 16.4116 124.375 16.3867C124.437 16.3617 124.513 16.331 124.588 16.2998L124.807 16.1992C125.025 16.5429 125.275 16.8873 125.568 17.2373C125.862 17.5873 126.169 17.9373 126.494 18.2998C126.813 18.656 127.138 19.0124 127.463 19.3623C127.794 19.7122 128.1 20.0434 128.406 20.3496C128.525 20.4684 128.656 20.6 128.794 20.75C128.938 20.8999 129.057 21.0307 129.15 21.1494C128.875 21.4057 128.668 21.6559 128.537 21.9121C128.418 22.1432 128.375 22.4057 128.4 22.6992C128.175 22.6367 127.944 22.5869 127.706 22.5557C127.5 22.5244 127.281 22.5059 127.044 22.5059C126.813 22.5059 126.581 22.525 126.356 22.5625C126.132 22.6 125.925 22.662 125.731 22.7432C125.538 22.8307 125.375 22.9438 125.244 23.0938C125.113 23.2375 125.025 23.4184 124.987 23.6309C124.944 23.8433 124.963 24.0994 125.044 24.3867C125.119 24.668 125.256 24.9811 125.443 25.3311C125.631 25.681 125.856 26.0245 126.112 26.3682C126.369 26.7119 126.637 27.025 126.912 27.3125C127.187 27.6 127.45 27.8188 127.7 27.9688C127.831 28.0499 127.969 28.118 128.119 28.168C128.269 28.2179 128.425 28.2492 128.581 28.2617C128.737 28.2742 128.894 28.2687 129.05 28.25C129.206 28.225 129.356 28.1807 129.5 28.1182C129.619 28.0682 129.744 27.987 129.894 27.8809C130.037 27.7746 130.175 27.6623 130.312 27.5498C130.444 27.4373 130.569 27.3307 130.675 27.2432C130.781 27.1557 130.869 27.0995 130.925 27.0869C130.943 27.0869 130.956 27.0934 130.95 27.1182C130.95 27.1431 130.944 27.1745 130.938 27.2119C130.931 27.2493 130.925 27.2868 130.912 27.3242C130.9 27.3617 130.9 27.3875 130.9 27.4062C130.901 27.4623 130.925 27.4934 130.963 27.5059C131 27.5182 131.031 27.5054 131.062 27.4805C131.156 27.3742 131.275 27.2309 131.432 27.0498C131.588 26.8686 131.75 26.6561 131.919 26.4062C131.963 26.3188 131.944 26.2684 131.862 26.2559C131.819 26.2496 131.756 26.2373 131.675 26.2373C131.594 26.2373 131.513 26.2246 131.432 26.2246C131.338 26.2121 131.231 26.2061 131.125 26.2061C131.088 26.2311 131.056 26.2749 131.031 26.3311C131.006 26.3934 130.981 26.425 130.943 26.4375C130.644 26.55 130.375 26.6937 130.138 26.8623C129.9 27.0311 129.693 27.1875 129.506 27.3438C129.325 27.4935 129.156 27.6308 129.013 27.7432C128.869 27.8557 128.737 27.9186 128.625 27.9248C128.463 27.8186 128.294 27.6811 128.112 27.5186C127.931 27.3561 127.756 27.1682 127.575 26.9619C127.394 26.7558 127.219 26.5374 127.044 26.3125C126.869 26.0875 126.712 25.8562 126.568 25.625C126.425 25.3937 126.306 25.168 126.2 24.9492C126.094 24.7307 126.019 24.531 125.963 24.3438C125.875 24.025 125.875 23.7555 125.956 23.543C126.037 23.3306 126.169 23.1621 126.356 23.0371C126.544 22.9122 126.756 22.8305 127.019 22.793C127.275 22.7555 127.538 22.7555 127.794 22.793C128 22.8242 128.2 22.8621 128.388 22.9121C128.4 22.9122 128.419 22.9186 128.432 22.9248C128.463 23.0372 128.513 23.1247 128.588 23.1934C128.688 23.2869 128.806 23.3557 128.943 23.3994C129.081 23.4431 129.225 23.4687 129.381 23.4688C129.537 23.4688 129.681 23.4679 129.818 23.4492C130.137 23.418 130.363 23.3246 130.513 23.1621C130.656 22.9996 130.738 22.7996 130.75 22.5684C130.763 22.3371 130.719 22.0805 130.612 21.8242C130.506 21.5683 130.369 21.3311 130.2 21.125C130.181 21.1063 130.162 21.0874 130.144 21.0625C130.169 21.025 130.181 20.9994 130.188 20.9932C130.194 20.9807 130.207 20.9683 130.231 20.9434C130.438 20.7372 130.719 20.5308 131.081 20.3184C131.444 20.1059 131.831 19.8996 132.237 19.6934C132.65 19.4934 133.056 19.3058 133.456 19.1309C133.856 18.9559 134.2 18.8061 134.481 18.6748C134.556 18.6437 134.612 18.6125 134.662 18.5938C134.712 18.575 134.756 18.5562 134.8 18.5312C134.843 18.5126 134.894 18.4875 134.943 18.4688C134.993 18.45 135.062 18.4185 135.144 18.3936C135.169 18.3873 135.175 18.3936 135.169 18.4248C135.163 18.4498 135.143 18.4876 135.112 18.5312C135.087 18.5749 135.05 18.6187 135.019 18.6748C134.981 18.7247 134.956 18.7751 134.943 18.8125C134.925 18.8685 134.931 18.9126 134.975 18.9375C135.012 18.9625 135.069 18.95 135.138 18.9062C135.188 18.875 135.288 18.7936 135.419 18.6748C135.556 18.5561 135.707 18.4121 135.869 18.2559C136.032 18.0997 136.194 17.9436 136.356 17.7812C136.519 17.6252 136.65 17.4874 136.756 17.375C136.787 17.3438 136.794 17.3121 136.781 17.2871C136.763 17.2622 136.738 17.2432 136.7 17.2432H136.263C136.169 17.2432 136.082 17.2496 135.994 17.2559C135.913 17.2621 135.869 17.2746 135.856 17.2871C135.825 17.3059 135.794 17.3438 135.75 17.4062C135.706 17.4686 135.662 17.5121 135.612 17.5371C135.325 17.6746 135.037 17.8121 134.756 17.9434C134.468 18.0746 134.193 18.2061 133.925 18.3311C133.644 18.4622 133.3 18.6181 132.9 18.793C132.5 18.9679 132.094 19.1561 131.682 19.3623C131.269 19.5623 130.888 19.7748 130.525 19.9873C130.182 20.1873 129.913 20.3873 129.713 20.5811L129.45 20.2812C129.363 20.1812 129.281 20.0932 129.206 20.0244C129.069 19.8683 128.925 19.7059 128.775 19.5498L128.381 19.125C128.631 19.1875 128.882 19.2244 129.15 19.2432C129.413 19.2619 129.663 19.2308 129.9 19.1309C130.088 19.0558 130.244 18.9116 130.356 18.6992C130.463 18.4868 130.537 18.2367 130.568 17.9619C130.6 17.6871 130.587 17.4061 130.537 17.125C130.481 16.844 130.394 16.5999 130.275 16.4062C130.113 16.15 129.9 15.9305 129.644 15.7617C129.387 15.5931 129.106 15.4625 128.8 15.375C128.494 15.2875 128.181 15.2375 127.862 15.2188C127.544 15.2063 127.237 15.2188 126.943 15.25C126.65 15.2813 126.374 15.3307 126.131 15.3994C125.881 15.4681 125.675 15.5242 125.5 15.5742C125.369 15.3056 125.312 15.0554 125.35 14.8242C125.387 14.5931 125.556 14.4062 125.875 14.2812C125.906 14.2625 125.918 14.2372 125.912 14.2061C125.906 14.1749 125.875 14.1499 125.838 14.1436L125.044 13.9873L124.244 13.8125H124.225C124.162 13.825 124.1 13.8497 124.044 13.8809L123.919 13.9248L123.725 14.2246C123.668 14.3121 123.619 14.4063 123.575 14.5C123.469 14.7184 123.419 14.8993 123.425 15.043C123.431 15.1867 123.457 15.3188 123.494 15.4375C123.532 15.5561 123.562 15.6689 123.6 15.7812C123.631 15.8937 123.632 16.0249 123.588 16.1748C123.432 16.2685 123.244 16.3617 123.031 16.4492C122.819 16.5367 122.581 16.6187 122.331 16.6875C122.081 16.7562 121.819 16.8246 121.557 16.8809C121.288 16.9371 121.032 16.9809 120.775 17.0059C120.519 17.0309 120.275 17.0498 120.044 17.0498C119.813 17.0498 119.606 17.0371 119.425 17.0059C119.112 16.9496 118.875 16.8373 118.725 16.6748C118.575 16.5124 118.481 16.3247 118.456 16.1123C118.425 15.8999 118.456 15.6749 118.531 15.4375C118.544 15.4125 118.55 15.3805 118.562 15.3555C118.681 15.318 118.806 15.2806 118.925 15.2432C119.444 15.0744 119.938 14.8867 120.419 14.668C120.894 14.4493 121.307 14.2183 121.638 13.9746C121.863 13.8121 122.019 13.606 122.119 13.3623C122.213 13.1186 122.263 12.8557 122.263 12.5869C122.263 12.3183 122.212 12.0434 122.125 11.7686C122.038 11.4936 121.918 11.25 121.769 11.0312C121.619 10.8125 121.444 10.6367 121.237 10.5117C121.038 10.3807 120.819 10.3245 120.588 10.3369C120.4 10.3432 120.232 10.4312 120.088 10.5938C119.944 10.7562 119.831 10.9434 119.756 11.1621C119.675 11.3808 119.644 11.6061 119.65 11.8311C119.657 12.056 119.719 12.2375 119.838 12.375C119.913 12.4623 120.013 12.518 120.138 12.543C120.263 12.568 120.4 12.5811 120.544 12.5811C120.688 12.5811 120.838 12.5809 120.994 12.5684C121.15 12.5621 121.294 12.5688 121.432 12.5938C121.563 12.6188 121.682 12.6618 121.775 12.7305C121.875 12.7992 121.937 12.9121 121.975 13.0557C121.631 13.2868 121.225 13.5181 120.744 13.7305C120.269 13.9492 119.769 14.1369 119.25 14.3057C118.731 14.4744 118.212 14.6125 117.706 14.7188C117.194 14.8249 116.738 14.8805 116.325 14.8867C116.069 14.8867 115.787 14.8687 115.475 14.8125C115.162 14.7562 114.875 14.6625 114.612 14.5312C114.35 14.4 114.125 14.2182 113.938 13.9932C113.756 13.7682 113.663 13.4933 113.656 13.1621C113.656 13.0684 113.656 12.9617 113.669 12.8555C113.719 12.818 113.769 12.7804 113.8 12.7305C113.887 12.6119 113.944 12.4873 113.969 12.3438C113.994 12.2001 114 12.0497 113.987 11.8936C113.975 11.7373 113.95 11.5932 113.919 11.4619C113.844 11.1496 113.713 10.9371 113.513 10.8184C113.313 10.6996 113.087 10.6557 112.844 10.6807C112.594 10.7057 112.344 10.7934 112.094 10.9434C111.844 11.0871 111.638 11.2623 111.463 11.4561C111.457 11.4623 111.45 11.4742 111.443 11.4805C111.431 11.4803 111.425 11.4748 111.419 11.4688C111.406 11.4688 111.387 11.45 111.362 11.4375C111.169 11.3 110.956 11.0997 110.731 10.8311C110.506 10.5623 110.281 10.2809 110.062 9.97461C109.844 9.66837 109.632 9.3619 109.432 9.05566C109.232 8.74946 109.056 8.49373 108.912 8.28125C108.868 8.2125 108.831 8.15566 108.8 8.11816C108.769 8.07449 108.744 8.0306 108.719 7.99316C108.688 7.94946 108.662 7.90601 108.631 7.8623C108.6 7.81856 108.563 7.75563 108.525 7.68066C108.507 7.64941 108.513 7.6373 108.544 7.64355C108.575 7.64363 108.613 7.66196 108.656 7.68066C108.7 7.69941 108.756 7.725 108.812 7.75C108.869 7.77497 108.919 7.79356 108.963 7.7998C109.025 7.81213 109.062 7.79955 109.081 7.75C109.1 7.70625 109.081 7.6498 109.019 7.58105C108.975 7.53735 108.888 7.45607 108.744 7.34375C108.6 7.23128 108.444 7.11207 108.263 6.97461C108.081 6.84338 107.9 6.70545 107.713 6.57422C107.532 6.44303 107.375 6.33124 107.25 6.25ZM98.0068 28.1689C97.969 28.0505 97.5009 28.0879 97.4004 28.1191C97.2005 28.1816 97.0562 28.5628 97.1123 28.7441C97.3372 29.475 99.4173 28.9509 99.4443 29.0752C99.4443 29.0939 97.8187 29.9508 98.0625 30.7695C98.1068 30.907 98.6878 31.0752 98.7939 31.0439V31.0381C98.9251 30.9943 99.1378 30.4884 99.1006 30.3506C99.0756 30.2819 98.9505 30.2318 98.9316 30.1631C98.8504 29.8944 99.8062 29.2261 100.312 28.9697C100.363 28.9572 100.519 28.8504 100.344 28.7754C99.8747 28.5693 97.9873 29.1937 97.8311 28.6875C97.7692 28.4814 98.0256 28.2376 98.0068 28.1689ZM135.726 25.4629C135.588 25.4442 135.182 25.8121 135.156 25.9561C135.144 26.0248 135.238 26.1314 135.226 26.2002C135.188 26.4814 134.037 26.6754 133.469 26.6816H133.476C133.426 26.6754 133.244 26.7002 133.362 26.8438C133.7 27.2313 135.669 27.4818 135.594 28.0068C135.562 28.219 135.231 28.3317 135.219 28.4004C135.201 28.5254 135.638 28.6936 135.744 28.7061C135.95 28.7371 136.237 28.4564 136.269 28.2627C136.375 27.5069 134.271 27.0819 134.307 26.9629C134.307 26.9441 136.149 26.8688 136.269 26.0254C136.287 25.8819 135.833 25.4828 135.726 25.4629ZM99.9629 24.4814C99.9504 24.4814 99.9379 24.4815 99.9316 24.5C99.9067 24.5437 99.8692 24.6125 99.8193 24.7061C99.7756 24.7936 99.7248 24.8938 99.6748 25C99.6248 25.1062 99.5818 25.2127 99.5381 25.3252L99.4248 25.6123C99.4123 25.6497 99.4188 25.6753 99.4375 25.6816L99.6816 25.8506C99.769 25.9068 99.8569 25.9694 99.9443 26.0381C99.9131 26.0943 99.8816 26.1753 99.8379 26.2627C99.8004 26.3563 99.763 26.45 99.7256 26.5498C99.6881 26.6498 99.6562 26.7564 99.625 26.8564L99.5566 27.1191C99.5563 27.1226 99.5512 27.1754 99.5693 27.1875L99.9316 27.3877C100.063 27.4564 100.181 27.5315 100.3 27.6064C100.325 27.6127 100.338 27.6066 100.356 27.5693C100.394 27.3818 100.444 27.2002 100.507 27.0127C100.569 26.8315 100.638 26.6566 100.713 26.4941C100.725 26.4629 100.731 26.4438 100.731 26.4375C100.731 26.4251 100.719 26.4126 100.688 26.3877L100.463 26.2314L100.194 26.0439C100.251 25.8691 100.313 25.7067 100.388 25.5381C100.463 25.3756 100.538 25.2189 100.625 25.0752L100.619 25.0938C100.621 25.0904 100.637 25.0506 100.644 25.0381C100.644 25.0256 100.638 25.0127 100.606 24.9814C100.531 24.9314 100.431 24.8439 100.294 24.7314C100.163 24.6189 100.062 24.5311 100 24.4873C99.9876 24.4873 99.9753 24.4876 99.9629 24.4814ZM109.019 24.3252C109.006 24.3252 108.994 24.3249 108.987 24.3311C108.956 24.3498 108.919 24.3811 108.875 24.4248L108.719 24.5625C108.663 24.6125 108.612 24.6625 108.562 24.7188C108.513 24.7749 108.481 24.8187 108.45 24.8623C108.438 24.8748 108.438 24.8879 108.45 24.9004L108.781 25.0186C108.9 25.056 109.012 25.1002 109.112 25.1377C109.131 25.1377 109.156 25.1377 109.175 25.1191L109.182 25.1064C109.244 25.019 109.319 24.938 109.4 24.8506C109.482 24.7693 109.575 24.6938 109.669 24.625C109.681 24.6129 109.693 24.6067 109.693 24.6006C109.693 24.6006 109.688 24.5877 109.656 24.5752L109.519 24.5254C109.462 24.5004 109.406 24.4752 109.35 24.4502L109.182 24.375C109.125 24.35 109.081 24.3314 109.05 24.3252H109.019ZM137.257 22.4814C137.226 22.4877 137.175 22.5187 137.119 22.5625C137.063 22.6062 137.006 22.6375 136.95 22.6562C136.869 22.675 136.775 22.6996 136.669 22.7246C136.563 22.7496 136.456 22.7748 136.344 22.7998C136.231 22.8248 136.125 22.8432 136.025 22.8682C135.919 22.8869 135.837 22.9064 135.769 22.9189C135.088 23.0439 134.407 23.187 133.726 23.3369C133.044 23.4869 132.362 23.6313 131.688 23.7812C131.007 23.9249 130.869 23.9688 130.182 24.0938C129.494 24.2188 128.806 24.325 128.112 24.4062C127.825 24.4375 127.538 24.4682 127.257 24.4932C126.969 24.5182 126.681 24.5377 126.394 24.5439C126.338 24.544 126.306 24.5563 126.3 24.5938C126.294 24.6248 126.301 24.6497 126.338 24.6621C126.482 24.7183 126.657 24.7686 126.851 24.7998C127.044 24.831 127.244 24.8557 127.45 24.8682C127.656 24.8807 127.863 24.8812 128.062 24.875C128.263 24.875 128.444 24.8625 128.601 24.8438C129.288 24.7625 129.976 24.6562 130.663 24.5312C131.344 24.4063 131.482 24.3619 132.169 24.2119C132.85 24.0619 133.532 23.9127 134.213 23.7627C134.894 23.6127 135.575 23.475 136.263 23.3438C136.294 23.3438 136.306 23.3497 136.288 23.3682C136.269 23.3932 136.238 23.4186 136.2 23.4561C136.163 23.4935 136.119 23.5311 136.069 23.5811C136.026 23.6248 135.988 23.6627 135.963 23.7002C135.926 23.7501 135.925 23.794 135.956 23.8252C135.987 23.8564 136.051 23.8623 136.132 23.8311C136.194 23.8122 136.3 23.7623 136.469 23.6875C136.631 23.6063 136.813 23.5184 137.007 23.4121C137.2 23.3059 137.401 23.1999 137.601 23.0938C137.8 22.9876 137.963 22.8937 138.094 22.8125C138.137 22.7876 138.156 22.7625 138.15 22.7314L138.144 22.7188C138.144 22.7188 138.112 22.6688 138.081 22.6562C138.062 22.656 138.005 22.6368 137.925 22.6182C137.844 22.5994 137.756 22.5748 137.656 22.5498C137.563 22.5248 137.475 22.5057 137.394 22.4932C137.313 22.4807 137.269 22.4753 137.257 22.4814ZM129.644 21.75C129.687 21.7938 129.731 21.881 129.763 22.0059C129.8 22.1308 129.813 22.2623 129.807 22.3936C129.8 22.5246 129.763 22.6433 129.7 22.7432C129.638 22.8431 129.538 22.8995 129.4 22.9121C129.319 22.7121 129.3 22.5117 129.356 22.293V22.2998C129.413 22.0812 129.506 21.8999 129.644 21.75ZM123.081 18.75C123.049 18.7307 122.769 18.5191 122.831 18.6377C123.269 19.4688 124.719 19.3004 125.081 20.1816L125.088 20.1875C125.238 20.5561 125.287 20.9374 125.506 21.2061C125.75 21.5123 126.262 21.6999 126.594 21.5C127.269 21.0751 126.026 20.5819 125.619 20.4941C125.613 20.388 125.556 20.2565 125.5 20.1191C125.213 19.4191 123.894 19.2437 123.081 18.75ZM125.682 20.6377C125.87 20.6944 126.718 21.094 126.344 21.4375C126.094 21.4374 125.688 20.8629 125.682 20.6377ZM126.688 15.7305C127.031 15.693 127.375 15.6996 127.713 15.7559C128.05 15.8059 128.369 15.9118 128.656 16.0742C128.944 16.2304 129.181 16.4559 129.35 16.7246C129.518 16.9996 129.606 17.3246 129.606 17.6934C129.606 18.0621 129.487 18.475 129.237 18.9062C128.919 18.8 128.6 18.6246 128.269 18.3809C127.937 18.1434 127.625 17.8804 127.312 17.6055C127 17.3243 126.706 17.0437 126.425 16.75C126.144 16.4563 125.913 16.1933 125.731 15.9434C126.025 15.8434 126.344 15.7748 126.688 15.7373V15.7305ZM113.119 16.1621C112.932 16.1059 112.762 16.2746 112.631 16.3809C112.381 16.5933 112.375 16.5875 112.432 16.8936C112.438 17.0186 112.45 17.0496 112.519 16.9746C112.575 16.9179 112.937 16.5562 113.112 16.5684C113.194 16.7933 112.881 17.5124 113.237 18.1123H113.231C113.406 18.406 113.85 18.1565 114.05 18.0127C114.35 17.8065 114.743 17.2692 114.831 16.9316C114.856 16.8379 114.869 16.7561 114.8 16.8311C114.544 17.1123 113.494 18.1996 113.3 17.8184C113.113 17.4617 113.525 16.3061 113.119 16.1621ZM105.219 7.15039C105.156 7.07539 105.119 7.06895 105.112 7.1377C104.837 8.59394 104.594 10.0506 104.388 11.5068C104.181 12.9629 104.013 14.4252 103.882 15.9062C103.882 15.9749 103.919 16.075 103.987 16.2061C104.062 16.3373 104.194 16.5564 104.388 16.8564V16.8691C104.39 16.8716 104.42 16.9058 104.444 16.8877L104.481 16.8623C104.606 15.3812 104.775 13.919 104.981 12.4629C105.188 11.0129 105.425 9.55625 105.7 8.09375C105.706 8.05633 105.713 8.01849 105.713 7.9873C105.713 7.95622 105.7 7.92499 105.682 7.8877C105.663 7.85026 105.638 7.80646 105.601 7.74414C105.563 7.68789 105.519 7.60645 105.456 7.5127C105.356 7.35031 105.281 7.23161 105.219 7.15039ZM132.669 13.9561C131.988 13.3686 132 13.3562 131.188 13.625C130.838 13.7312 130.769 13.7559 131 13.9121C131.45 14.2057 132.486 15.0735 132.356 15.2119C132.269 15.2994 130.269 14.7807 130.156 14.7744C130.075 14.7744 130.025 14.875 130.138 14.9375C130.556 15.1437 131.468 15.5749 131.818 15.6064C132.199 15.6627 133.381 15.4002 133.562 15.2002C133.8 14.9377 132.869 14.1375 132.669 13.9561ZM100.987 12.4375C100.806 12.3313 100.432 12.4875 100.338 12.6562C99.9635 13.3188 101.769 14.4938 101.694 14.5938C101.684 14.6049 99.9433 14.0006 99.5312 14.7373C99.4631 14.8627 99.7371 15.4047 99.8311 15.4619V15.4746C99.9498 15.5434 100.469 15.3496 100.538 15.2246C100.569 15.1622 100.526 15.0313 100.557 14.9688C100.694 14.7251 101.831 14.968 102.362 15.168C102.406 15.193 102.588 15.2369 102.525 15.0557C102.357 14.5681 100.607 13.6119 100.869 13.1494C100.976 12.9621 101.325 12.9804 101.362 12.918C101.425 12.8116 101.075 12.4937 100.987 12.4375ZM111.875 4.11914C111.85 4.13165 111.831 4.15618 111.825 4.19336C111.825 4.21211 111.825 4.26895 111.812 4.35645C111.806 4.44387 111.8 4.5378 111.794 4.6377C111.794 4.73759 111.788 4.82507 111.788 4.90625C111.788 4.98742 111.787 5.03142 111.8 5.04395C111.812 5.07513 111.85 5.11227 111.906 5.16211H111.912C111.968 5.21211 112.006 5.2625 112.031 5.3125C112.062 5.3875 112.1 5.4752 112.144 5.5752C112.187 5.67511 112.232 5.78095 112.275 5.88086C112.319 5.98711 112.363 6.0875 112.4 6.1875C112.438 6.28743 112.469 6.36917 112.494 6.43164C112.707 6.97522 112.919 7.51286 113.144 8.04395C113.369 8.5814 113.594 9.11293 113.812 9.65039C114.037 10.1878 114.25 10.7253 114.45 11.2627C114.656 11.8001 114.844 12.3505 115.013 12.9004C115.1 13.1815 115.182 13.463 115.257 13.7441C115.332 14.0252 115.4 14.3068 115.456 14.5879C115.469 14.6376 115.494 14.6689 115.531 14.6689C115.569 14.6689 115.587 14.6563 115.594 14.6191C115.625 14.4629 115.638 14.2875 115.638 14.0938C115.638 13.9 115.619 13.6936 115.594 13.4873C115.563 13.2811 115.531 13.075 115.487 12.875C115.444 12.675 115.4 12.4996 115.356 12.3496C115.188 11.7997 115 11.2497 114.794 10.7061C114.588 10.1625 114.375 9.6252 114.15 9.08789C113.925 8.55666 113.7 8.01893 113.475 7.48145C113.25 6.94409 113.031 6.4065 112.825 5.86914C112.819 5.83801 112.825 5.82531 112.85 5.84375C112.875 5.85624 112.906 5.88089 112.95 5.91211C112.994 5.94334 113.038 5.98108 113.094 6.01855C113.144 6.05605 113.194 6.0877 113.231 6.10645C113.288 6.13134 113.326 6.13146 113.351 6.08789C113.376 6.05041 113.369 5.98745 113.325 5.90625C113.294 5.85 113.232 5.74961 113.119 5.59961C113.013 5.4497 112.887 5.29401 112.75 5.11914C112.613 4.94417 112.469 4.76872 112.325 4.59375C112.182 4.41884 112.063 4.26873 111.963 4.15625C111.932 4.11875 111.9 4.10039 111.875 4.11914ZM124.581 9.72461C124.506 9.71847 124.393 9.74386 124.237 9.8125C124.087 9.8813 123.831 10.0061 123.481 10.1934C123.444 10.2059 123.438 10.2246 123.45 10.2559L123.476 10.2998L123.481 10.293C125.094 10.5867 126.694 10.9248 128.269 11.2998C129.844 11.6748 131.419 12.0936 133 12.5498C133.044 12.5623 133.088 12.568 133.119 12.5742C133.15 12.5742 133.194 12.5744 133.231 12.5557C133.275 12.5432 133.325 12.5179 133.394 12.4805C133.462 12.4492 133.551 12.4 133.663 12.3438C133.85 12.2502 133.994 12.1747 134.081 12.1123C134.175 12.0499 134.181 12.0119 134.101 11.9932C132.526 11.5369 130.95 11.1185 129.369 10.7373C127.794 10.3561 126.194 10.0184 124.581 9.72461ZM107.25 10.5254C107.206 10.5379 107.15 10.5626 107.075 10.5938C107 10.6249 106.925 10.656 106.838 10.6934C106.757 10.7309 106.675 10.7691 106.594 10.8066C106.513 10.8503 106.444 10.8809 106.388 10.9121C106.363 10.9309 106.357 10.9441 106.369 10.9629C106.413 11.0376 106.456 11.1124 106.5 11.1934C106.544 11.2746 106.594 11.3623 106.638 11.4561C106.588 11.4748 106.525 11.4942 106.45 11.5254C106.375 11.5566 106.3 11.5879 106.225 11.6191C106.15 11.6504 106.074 11.6872 106.006 11.7246C105.931 11.762 105.875 11.7934 105.825 11.8184C105.807 11.8308 105.794 11.8437 105.8 11.8623C105.856 11.9623 105.919 12.075 105.981 12.1875C106.043 12.3044 106.104 12.4156 106.153 12.5264C106.163 12.5319 106.192 12.5475 106.213 12.5371C106.338 12.4622 106.469 12.3935 106.606 12.3311C106.744 12.2686 106.888 12.2121 107.025 12.1621C107.05 12.15 107.062 12.1438 107.068 12.1436C107.075 12.1436 107.069 12.1251 107.062 12.0879C107.038 12.0316 107 11.9561 106.95 11.8623C106.906 11.7686 106.862 11.6808 106.818 11.5996C106.937 11.5309 107.069 11.4684 107.2 11.4121C107.331 11.3559 107.463 11.3064 107.594 11.2627C107.619 11.2502 107.631 11.2441 107.638 11.2441C107.644 11.2436 107.637 11.2184 107.631 11.1875C107.587 11.1125 107.537 11.006 107.469 10.8623C107.4 10.7186 107.35 10.6185 107.312 10.5498C107.3 10.5436 107.288 10.5317 107.281 10.5254C107.269 10.5129 107.262 10.5129 107.25 10.5254ZM106.156 12.5312C106.155 12.5295 106.154 12.5281 106.153 12.5264C106.152 12.5257 106.151 12.5257 106.15 12.5254L106.156 12.5312ZM112.856 11.6748C112.994 11.6623 113.125 11.6747 113.237 11.7246C113.35 11.7683 113.419 11.862 113.45 11.9932C113.256 12.1057 113.044 12.1555 112.812 12.1367C112.581 12.118 112.375 12.0562 112.206 11.9375C112.25 11.8813 112.332 11.8307 112.463 11.7744H112.456C112.581 11.7244 112.719 11.6873 112.856 11.6748ZM120.693 11.2998C120.756 11.3185 120.812 11.337 120.881 11.3682C120.943 11.3994 121.007 11.4373 121.057 11.4873C121.113 11.5372 121.157 11.5935 121.182 11.6621C121.082 11.6559 120.944 11.6619 120.775 11.6807C120.6 11.7057 120.437 11.6938 120.287 11.6562C120.225 11.6375 120.194 11.6117 120.182 11.5742C120.169 11.5368 120.181 11.4993 120.206 11.4619C120.231 11.4182 120.275 11.3808 120.331 11.3496C120.387 11.3184 120.456 11.2934 120.537 11.2871C120.581 11.2809 120.637 11.2874 120.693 11.2998ZM120.726 8.16895L120.425 8.44336C120.319 8.54335 120.213 8.63751 120.106 8.71875C120.094 8.73748 120.1 8.75628 120.119 8.78125L120.138 8.78711C120.288 8.88711 120.431 8.99356 120.575 9.1123C120.719 9.23105 120.844 9.35645 120.963 9.48145C120.982 9.50002 121.001 9.51234 121.007 9.51855C121.013 9.52443 121.032 9.51786 121.062 9.49316L121.194 9.3877C121.251 9.34398 121.307 9.29957 121.369 9.25586C121.432 9.21218 121.488 9.16868 121.544 9.125C121.6 9.08125 121.644 9.04355 121.669 9.01855C121.669 9.01232 121.675 9.006 121.682 8.9873C121.688 8.97493 121.681 8.96257 121.669 8.9502C121.631 8.91269 121.581 8.85586 121.513 8.78711L121.288 8.56836C121.207 8.49338 121.119 8.41835 121.025 8.34961C120.938 8.28086 120.856 8.22441 120.794 8.18066C120.769 8.16207 120.75 8.15664 120.726 8.16895ZM124.4 5.22559C124.275 5.15684 123.737 5.4502 123.688 5.54395C123.619 5.669 123.825 6.18126 123.95 6.25V6.25684C124.013 6.28776 124.138 6.23736 124.2 6.26855C124.45 6.39979 124.231 7.55616 124.044 8.09375C124.019 8.13749 123.981 8.32541 124.156 8.25684C124.631 8.07563 125.543 6.29489 126.006 6.54395C126.193 6.64395 126.182 7.00059 126.244 7.03809C126.351 7.09304 126.663 6.73717 126.713 6.64355C126.812 6.45601 126.65 6.08803 126.481 5.99414C125.813 5.63164 124.694 7.48125 124.594 7.40625C124.585 7.38817 125.141 5.63094 124.4 5.22559ZM118.612 5.20605C117.613 5.19356 117.613 5.17542 117.101 5.9873C116.876 6.33096 116.831 6.39994 117.144 6.375V6.36914C117.737 6.29414 119.25 6.29398 119.231 6.5127C119.219 6.65645 117.125 7.65059 117.031 7.72559C116.963 7.78194 116.988 7.91305 117.132 7.88184C117.638 7.75055 118.725 7.4685 119.05 7.2373C119.418 7.0124 120.25 5.92611 120.263 5.63184C120.275 5.23184 118.906 5.21855 118.612 5.20605Z" fill="black"/>
<path d="M0.275146 27.7129H2.31265V33.5816C2.31265 35.3129 2.8689 36.4504 4.42515 36.4504C5.9814 36.4504 6.53765 35.3129 6.53765 33.5816V27.7129H8.57515V34.2066C8.57515 36.9316 7.0314 38.0504 4.42515 38.0504C1.8189 38.0504 0.275146 36.9316 0.275146 34.2066V27.7129Z" fill="black"/>
<path d="M10.425 30.3752H12.2751V31.3939H12.3063C12.9188 30.5377 13.75 30.2002 14.7688 30.2002C16.5438 30.2002 17.3188 31.4502 17.3188 33.1439V37.8752H15.3688V33.8689C15.3688 32.9502 15.3563 31.7127 14.1 31.7127C12.6875 31.7127 12.3813 33.2439 12.3813 34.2002V37.8689H10.4313V30.3689L10.425 30.3752Z" fill="black"/>
<path d="M19.1001 27.1436H21.0501V29.0061H19.1001V27.1436ZM19.1001 30.3748H21.0501V37.8748H19.1001V30.3748Z" fill="black"/>
<path d="M23.4814 31.8H22.0376V30.375H23.4814V28.875L25.4313 28.25V30.375H27.1626V31.8H25.4313V35.2938C25.4313 35.9375 25.6063 36.5312 26.3501 36.5312C26.7001 36.5312 27.0376 36.4562 27.2376 36.325L27.2938 37.8687C26.8876 37.9875 26.4376 38.0437 25.8501 38.0437C24.3189 38.0437 23.4751 37.1 23.4751 35.6125V31.8H23.4814Z" fill="black"/>
<path d="M34.2625 37.4502C33.55 37.8439 32.7313 38.0502 31.6875 38.0502C29.2125 38.0502 27.7688 36.6252 27.7688 34.1627C27.7688 31.9939 28.9188 30.2002 31.25 30.2002C34.0313 30.2002 34.8188 32.1064 34.8188 34.7314H29.6375C29.725 35.9377 30.5688 36.6252 31.7813 36.6252C32.725 36.6252 33.5438 36.2752 34.2688 35.8689V37.4564L34.2625 37.4502ZM32.95 33.3877C32.8938 32.4439 32.4563 31.6252 31.3625 31.6252C30.2688 31.6252 29.7188 32.3814 29.6313 33.3877H32.95Z" fill="black"/>
<path d="M41.0751 37.0316H41.0438C40.4626 37.7566 39.6626 38.0504 38.7438 38.0504C36.4438 38.0504 35.6001 36.1566 35.6001 34.1066C35.6001 32.0566 36.4438 30.2066 38.7438 30.2066C39.7188 30.2066 40.4063 30.5441 40.9876 31.2566H41.0188V26.9629H42.9688V37.8816H41.0751V37.0379V37.0316ZM39.2813 36.5316C40.5751 36.5316 41.0001 35.1629 41.0001 34.1004C41.0001 33.0379 40.5063 31.7129 39.2501 31.7129C37.9938 31.7129 37.6313 33.0941 37.6313 34.1004C37.6313 35.1066 37.9938 36.5316 39.2751 36.5316H39.2813Z" fill="black"/>
<path d="M48.675 27.7129H52.2313C53.5438 27.7129 55.5063 28.0941 55.5063 30.3191C55.5063 31.5254 54.6938 32.3754 53.4813 32.5879V32.6191C54.8625 32.7504 55.8126 33.6816 55.8126 34.9316C55.8126 37.4941 53.5125 37.8754 52.2313 37.8754H48.675V27.7129ZM50.7126 31.8129H51.5438C52.4001 31.8129 53.4688 31.6254 53.4688 30.5754C53.4688 29.3941 52.4375 29.3066 51.5 29.3066H50.7126V31.8129ZM50.7126 36.2691H51.675C52.6188 36.2691 53.7688 36.0379 53.7688 34.8566C53.7688 33.5316 52.6938 33.3254 51.675 33.3254H50.7126V36.2691Z" fill="black"/>
<path d="M57.4688 30.7689C58.225 30.4189 59.2438 30.2002 60.075 30.2002C62.3625 30.2002 63.3062 31.1439 63.3062 33.3627V34.3252C63.3062 35.0814 63.3188 35.6502 63.3375 36.2064C63.35 36.7752 63.3813 37.3002 63.425 37.8814H61.7063C61.6313 37.4877 61.6313 36.9939 61.6188 36.7627H61.5875C61.1375 37.5939 60.1625 38.0564 59.275 38.0564C57.95 38.0564 56.6562 37.2564 56.6562 35.8314C56.6562 34.7127 57.1938 34.0564 57.9375 33.6877C58.6813 33.3252 59.6438 33.2502 60.4563 33.2502H61.5313C61.5313 32.0439 60.9938 31.6314 59.8438 31.6314C59.0125 31.6314 58.1813 31.9502 57.5313 32.4439L57.475 30.7689H57.4688ZM59.7563 36.6189C60.35 36.6189 60.8188 36.3564 61.125 35.9502C61.4438 35.5252 61.5313 34.9877 61.5313 34.4064H60.6875C59.8125 34.4064 58.5188 34.5502 58.5188 35.7002C58.5188 36.3377 59.0563 36.6189 59.7563 36.6189Z" fill="black"/>
<path d="M64.9688 30.3752H66.8188V31.3939H66.85C67.4625 30.5377 68.2937 30.2002 69.3125 30.2002C71.0875 30.2002 71.8625 31.4502 71.8625 33.1439V37.8752H69.9125V33.8689C69.9125 32.9502 69.9 31.7127 68.6438 31.7127C67.2313 31.7127 66.925 33.2439 66.925 34.2002V37.8689H64.975V30.3689L64.9688 30.3752Z" fill="black"/>
<path d="M73.6438 26.9502H75.6V33.3752H75.625L77.9563 30.3752H80.2563L77.4625 33.7252L80.6063 37.8752H78.1313L75.625 34.2315H75.6V37.8752H73.6438V26.9502Z" fill="black"/>
<path d="M0.337646 40.5566H2.78765V41.2504H1.22515V42.3316H2.71265V43.0254H1.22515V44.9566H0.337646V40.5566Z" fill="black"/>
<path d="M4.7875 41.6309C5.75 41.6309 6.4875 42.2809 6.4875 43.3496C6.4875 44.2809 5.8625 45.0246 4.7875 45.0246C3.7125 45.0246 3.09375 44.2809 3.09375 43.3496C3.09375 42.2746 3.83125 41.6309 4.7875 41.6309ZM4.7875 44.3746C5.4375 44.3746 5.60625 43.7934 5.60625 43.2496C5.60625 42.7496 5.34375 42.2871 4.7875 42.2871C4.23125 42.2871 3.975 42.7684 3.975 43.2496C3.975 43.7871 4.14375 44.3746 4.7875 44.3746Z" fill="black"/>
<path d="M7.0563 41.7059H7.8063V42.4434H7.8188C7.8563 42.1434 8.2063 41.6309 8.7063 41.6309C8.78755 41.6309 8.87505 41.6309 8.96255 41.6559V42.5059C8.88755 42.4621 8.73755 42.4371 8.5813 42.4371C7.8938 42.4371 7.8938 43.2934 7.8938 43.7621V44.9559H7.05005V41.7059H7.0563Z" fill="black"/>
<path d="M14.2937 44.8939C13.975 44.9689 13.625 45.0314 13.2875 45.0314C11.8625 45.0314 10.875 44.3189 10.875 42.8314C10.875 41.3439 11.7937 40.4814 13.2875 40.4814C13.575 40.4814 13.9625 40.5377 14.2813 40.6627L14.2188 41.4064C13.8813 41.2189 13.5812 41.1752 13.2687 41.1752C12.3625 41.1752 11.7937 41.8689 11.7937 42.7689C11.7937 43.6689 12.35 44.3377 13.2875 44.3377C13.6375 44.3377 14.0437 44.2627 14.25 44.1564L14.2875 44.8939H14.2937Z" fill="black"/>
<path d="M16.2438 41.6309C17.2063 41.6309 17.9438 42.2809 17.9438 43.3496C17.9438 44.2809 17.3188 45.0246 16.2438 45.0246C15.1688 45.0246 14.55 44.2809 14.55 43.3496C14.55 42.2746 15.2875 41.6309 16.2438 41.6309ZM16.2438 44.3746C16.8938 44.3746 17.0625 43.7934 17.0625 43.2496C17.0625 42.7496 16.8 42.2871 16.2438 42.2871C15.6875 42.2871 15.4313 42.7684 15.4313 43.2496C15.4313 43.7871 15.6 44.3746 16.2438 44.3746Z" fill="black"/>
<path d="M18.4813 41.7059H19.2687V42.1621H19.2813C19.5438 41.7621 19.9313 41.6309 20.2438 41.6309C20.7 41.6309 21.0188 41.7996 21.2 42.2059C21.3938 41.8121 21.8188 41.6309 22.2125 41.6309C23.0125 41.6309 23.2375 42.1809 23.2375 42.9059V44.9559H22.3937V43.0184C22.3937 42.7184 22.3937 42.2871 21.9062 42.2871C21.3438 42.2871 21.275 42.9559 21.275 43.3809V44.9559H20.4312V43.0184C20.4312 42.7184 20.4313 42.2871 19.9438 42.2871C19.3813 42.2871 19.3125 42.9559 19.3125 43.3809V44.9559H18.4688V41.7059H18.4813Z" fill="black"/>
<path d="M23.9688 41.7059H24.7563V42.1621H24.7688C25.0313 41.7621 25.4188 41.6309 25.7313 41.6309C26.1876 41.6309 26.5063 41.7996 26.6876 42.2059C26.8813 41.8121 27.3063 41.6309 27.7001 41.6309C28.5001 41.6309 28.7251 42.1809 28.7251 42.9059V44.9559H27.8813V43.0184C27.8813 42.7184 27.8813 42.2871 27.3938 42.2871C26.8313 42.2871 26.7626 42.9559 26.7626 43.3809V44.9559H25.9188V43.0184C25.9188 42.7184 25.9188 42.2871 25.4313 42.2871C24.8688 42.2871 24.8001 42.9559 24.8001 43.3809V44.9559H23.9563V41.7059H23.9688Z" fill="black"/>
<path d="M32.0752 44.7752C31.7689 44.9439 31.4127 45.0315 30.9564 45.0315C29.8814 45.0315 29.2627 44.4127 29.2627 43.3502C29.2627 42.4127 29.7627 41.6377 30.7689 41.6377C31.9752 41.6377 32.3127 42.4627 32.3127 43.6002H30.0689C30.1064 44.1252 30.4689 44.419 30.9939 44.419C31.4064 44.419 31.7564 44.2689 32.0689 44.0877V44.7752H32.0752ZM31.5064 43.0127C31.4814 42.6002 31.2939 42.2502 30.8189 42.2502C30.3439 42.2502 30.1064 42.5752 30.0689 43.0127H31.5064Z" fill="black"/>
<path d="M32.8813 41.7059H33.6312V42.4434H33.6437C33.6812 42.1434 34.0313 41.6309 34.5313 41.6309C34.6125 41.6309 34.7 41.6309 34.7875 41.6559V42.5059C34.7125 42.4621 34.5625 42.4371 34.4062 42.4371C33.7187 42.4371 33.7187 43.2934 33.7187 43.7621V44.9559H32.875V41.7059H32.8813Z" fill="black"/>
<path d="M37.1938 42.4123C37.0438 42.3436 36.8813 42.2936 36.6188 42.2936C36.0938 42.2936 35.7626 42.7123 35.7626 43.3186C35.7626 43.9248 36.0438 44.381 36.6376 44.381C36.8751 44.381 37.1438 44.2936 37.2876 44.2311L37.3251 44.9311C37.0813 45.0061 36.8251 45.0373 36.4813 45.0373C35.4188 45.0373 34.8813 44.3123 34.8813 43.3248C34.8813 42.3373 35.4376 41.6436 36.4501 41.6436C36.7876 41.6436 37.0376 41.6811 37.2688 41.7498L37.1938 42.4185V42.4123Z" fill="black"/>
<path d="M40.3751 44.7752C40.0688 44.9439 39.7126 45.0315 39.2626 45.0315C38.1876 45.0315 37.5688 44.4127 37.5688 43.3502C37.5688 42.4127 38.0688 41.6377 39.0751 41.6377C40.2813 41.6377 40.6188 42.4627 40.6188 43.6002H38.3751C38.4126 44.1252 38.7813 44.419 39.3001 44.419C39.7126 44.419 40.0626 44.2689 40.3813 44.0877V44.7752H40.3751ZM39.8063 43.0127C39.7813 42.6002 39.5938 42.2502 39.1188 42.2502C38.6438 42.2502 38.4063 42.5752 38.3688 43.0127H39.8063Z" fill="black"/>
<path d="M45.6189 43.5252C45.8314 43.2814 45.8814 42.9064 45.8939 42.5689H46.6626C46.6376 43.1314 46.4564 43.6564 46.1001 44.0752L46.8876 44.9564H45.8064L45.5126 44.5689C45.2064 44.8814 44.7501 45.0377 44.3126 45.0377C43.4439 45.0377 42.7439 44.5814 42.7439 43.7564C42.7439 43.2252 42.9689 42.8439 43.6689 42.5439C43.3314 42.2252 43.0564 41.9877 43.0564 41.4814C43.0564 40.8127 43.7751 40.4814 44.3939 40.4814C45.0126 40.4814 45.6626 40.7627 45.6626 41.4752C45.6626 42.0814 45.2939 42.3627 44.8126 42.6439L45.6189 43.5252ZM44.1251 43.0189C43.8376 43.1689 43.5876 43.3752 43.5876 43.7252C43.5876 44.1127 43.9189 44.3752 44.3314 44.3752C44.6251 44.3752 44.9064 44.3002 45.1001 44.1127L44.1251 43.0189ZM44.8939 41.5502C44.8939 41.2439 44.6626 41.0939 44.4064 41.0939C44.1501 41.0939 43.9001 41.2377 43.9001 41.5627C43.9001 41.8064 44.1439 42.0189 44.3189 42.1877C44.5376 42.0752 44.8939 41.8064 44.8939 41.5502Z" fill="black"/>
<path d="M48.8813 40.5566H49.7626V44.9566H48.8813V40.5566Z" fill="black"/>
<path d="M50.5188 41.7059H51.3188V42.1496H51.3313C51.5938 41.7746 51.9563 41.6309 52.3938 41.6309C53.1626 41.6309 53.5 42.1746 53.5 42.9059V44.9559H52.6563V43.2246C52.6563 42.8309 52.65 42.2934 52.1063 42.2934C51.4938 42.2934 51.3625 42.9559 51.3625 43.3746V44.9621H50.5188V41.7121V41.7059Z" fill="black"/>
<path d="M53.8938 41.7061H54.8L55.6125 44.0748H55.6251L56.4063 41.7061H57.25L56.05 44.9561H55.1001L53.8938 41.7061Z" fill="black"/>
<path d="M60.25 44.7752C59.9437 44.9439 59.5875 45.0315 59.1313 45.0315C58.0563 45.0315 57.4375 44.4127 57.4375 43.3502C57.4375 42.4127 57.9375 41.6377 58.9438 41.6377C60.15 41.6377 60.4875 42.4627 60.4875 43.6002H58.2438C58.2813 44.1252 58.65 44.419 59.1688 44.419C59.5813 44.419 59.9313 44.2689 60.25 44.0877V44.7752ZM59.6812 43.0127C59.6562 42.6002 59.4688 42.2502 58.9938 42.2502C58.5188 42.2502 58.2813 42.5752 58.2438 43.0127H59.6812Z" fill="black"/>
<path d="M62.9627 42.3939C62.7064 42.3064 62.5127 42.2564 62.2064 42.2564C61.9814 42.2564 61.7064 42.3377 61.7064 42.6189C61.7064 43.1377 63.1752 42.8064 63.1752 43.9814C63.1752 44.7377 62.5002 45.0377 61.8127 45.0377C61.4939 45.0377 61.1627 44.9814 60.8564 44.9002L60.9064 44.2064C61.1689 44.3377 61.4502 44.419 61.7377 44.419C61.9502 44.419 62.2939 44.3377 62.2939 44.0189C62.2939 43.3814 60.8252 43.8189 60.8252 42.6439C60.8252 41.9439 61.4377 41.6377 62.1002 41.6377C62.5002 41.6377 62.7565 41.7002 63.019 41.7564L62.9627 42.3939Z" fill="black"/>
<path d="M64 42.3246H63.375V41.7059H64V41.0559L64.8438 40.7871V41.7059H65.5938V42.3246H64.8438V43.8371C64.8438 44.1121 64.9188 44.3746 65.2438 44.3746C65.3938 44.3746 65.5375 44.3434 65.6313 44.2871L65.6563 44.9559C65.4813 45.0059 65.2813 45.0309 65.0313 45.0309C64.3688 45.0309 64.0063 44.6246 64.0063 43.9809V42.3309L64 42.3246Z" fill="black"/>
<path d="M66.0438 41.7059H66.8313V42.1621H66.8438C67.1063 41.7621 67.4938 41.6309 67.8063 41.6309C68.2626 41.6309 68.5813 41.7996 68.7626 42.2059C68.9563 41.8121 69.3813 41.6309 69.7813 41.6309C70.5813 41.6309 70.8063 42.1809 70.8063 42.9059V44.9559H69.9626V43.0184C69.9626 42.7184 69.9626 42.2871 69.4751 42.2871C68.9126 42.2871 68.8438 42.9559 68.8438 43.3809V44.9559H68.0001V43.0184C68.0001 42.7184 68.0001 42.2871 67.5126 42.2871C66.9501 42.2871 66.8813 42.9559 66.8813 43.3809V44.9559H66.0376V41.7059H66.0438Z" fill="black"/>
<path d="M74.1501 44.7752C73.8439 44.9439 73.4876 45.0315 73.0314 45.0315C71.9564 45.0315 71.3376 44.4127 71.3376 43.3502C71.3376 42.4127 71.8376 41.6377 72.8439 41.6377C74.0501 41.6377 74.3876 42.4627 74.3876 43.6002H72.1439C72.1814 44.1252 72.5501 44.419 73.0689 44.419C73.4814 44.419 73.8314 44.2689 74.1501 44.0877V44.7752ZM73.5876 43.0127C73.5626 42.6002 73.3751 42.2502 72.9001 42.2502C72.4251 42.2502 72.1876 42.5752 72.1501 43.0127H73.5876Z" fill="black"/>
<path d="M74.9376 41.7059H75.7376V42.1496H75.7501C76.0126 41.7746 76.3751 41.6309 76.8126 41.6309C77.5814 41.6309 77.9126 42.1746 77.9126 42.9059V44.9559H77.0689V43.2246C77.0689 42.8309 77.0689 42.2934 76.5189 42.2934C75.9064 42.2934 75.7751 42.9559 75.7751 43.3746V44.9621H74.9314V41.7121L74.9376 41.7059Z" fill="black"/>
<path d="M78.9563 42.3246H78.3313V41.7059H78.9563V41.0559L79.8 40.7871V41.7059H80.5501V42.3246H79.8V43.8371C79.8 44.1121 79.875 44.3746 80.2 44.3746C80.35 44.3746 80.4938 44.3434 80.5875 44.2871L80.6125 44.9559C80.4375 45.0059 80.2375 45.0309 79.9875 45.0309C79.325 45.0309 78.9625 44.6246 78.9625 43.9809V42.3309L78.9563 42.3246Z" fill="black"/>
<path d="M7.7439 12.5254H0.150146V10.9566H4.4064C4.4064 9.31289 3.51265 8.58789 1.4314 8.58789V7.21914C2.46265 7.21914 3.18765 7.28789 3.62515 7.44414C5.2439 8.01914 6.05015 9.18164 6.05015 10.9504H7.75015V12.5316L7.7439 12.5254ZM16.9376 12.5254H7.37515V10.9566H14.0314C13.9939 10.3379 13.7751 9.80664 13.3626 9.36289C12.9064 8.85664 12.2939 8.60039 11.5564 8.60039C10.8189 8.60039 10.0564 8.96289 9.60015 9.44414C9.43765 9.21914 9.1689 8.85664 8.7814 8.33164C9.5814 7.50039 10.5376 7.08789 11.6751 7.08789C12.3689 7.08789 12.9751 7.21914 13.5064 7.46289C14.7626 8.06289 15.5001 9.21914 15.7001 10.9566H16.9439V12.5254H16.9376ZM20.1001 6.32539H18.6439V4.97539H20.1001V6.32539ZM17.9001 6.32539H16.4439V4.97539H17.9001V6.32539ZM21.9501 12.5254H16.6626V10.9566H17.7439C18.2939 10.9566 18.5751 10.5816 18.5751 9.83164V7.21914H20.2251V9.77539C20.2251 10.2066 20.1564 10.5941 20.0251 10.9566H21.9501V12.5254ZM29.7251 12.5254H27.8501C27.3689 13.1941 26.6314 13.5316 25.6564 13.5316C24.6814 13.5316 23.9189 13.1941 23.4314 12.5254H21.6376V10.9566H22.9501C22.9501 9.26914 23.9126 8.21289 25.6126 8.21289C27.3126 8.21289 28.3564 9.23164 28.3564 10.9566H29.7251V12.5254ZM26.7251 10.9254C26.7251 10.0004 26.3751 9.53164 25.6814 9.53164H25.5626C24.9626 9.53164 24.5689 10.0941 24.5689 10.8566C24.5689 11.6191 24.9689 12.2066 25.6564 12.2066C26.3439 12.2066 26.7251 11.7129 26.7251 10.9316V10.9254ZM32.7939 10.2691C32.7939 10.8879 32.6189 11.4066 32.2751 11.8191C31.8876 12.3004 31.3501 12.5316 30.6564 12.5316H29.1064V10.9629H30.3126C30.8626 10.9629 31.1439 10.5754 31.1439 9.81289V4.98164H32.7876V10.2691H32.7939ZM35.6314 12.5254H33.9876V4.96289H35.6314V12.5254ZM47.8439 6.32539H46.3876V4.97539H47.8439V6.32539ZM49.7689 9.85664C49.7689 11.4754 48.6814 12.5316 47.0751 12.5316H42.8314C40.2439 12.5316 38.9501 11.4441 38.9501 9.25039V7.53789H40.5689V9.25039C40.5689 10.5191 41.1814 10.9629 42.8689 10.9629H44.5564C44.4251 10.6254 44.3689 10.2566 44.3689 9.87539C44.3689 8.24414 45.3876 7.21288 47.0189 7.21288C48.6501 7.21288 49.7751 8.24414 49.7751 9.86289L49.7689 9.85664ZM48.1376 9.90039C48.1376 8.97539 47.7876 8.51914 47.0939 8.51914H46.9876C46.3564 8.51914 45.9814 9.10664 45.9814 9.84414C45.9814 10.6754 46.4001 11.2066 47.0689 11.2066C47.7376 11.2066 48.1376 10.6441 48.1376 9.90664V9.90039ZM55.7439 12.5316H53.9251C53.6564 13.8191 52.6001 14.4629 50.7376 14.4629V13.1379C51.8189 13.1379 52.3564 12.6191 52.3564 11.5879V7.21288H54.0064V10.9504H55.7439V12.5191V12.5316ZM67.2564 12.5316H55.1251V10.9629H56.6001C57.1376 10.9629 57.4314 10.6816 57.4314 9.83789V7.78789H59.0751V9.30039C60.1064 7.98789 61.4689 7.20039 62.7814 7.20039C64.7064 7.20039 65.8314 8.56289 65.9814 10.9629H67.2564V12.5316ZM64.2689 10.9566L64.2814 10.7441C64.2814 9.53789 63.6814 8.62539 62.6501 8.62539C61.4439 8.62539 60.3626 9.41289 59.4626 10.9566H64.2689ZM75.0376 12.5316H73.1626C72.6814 13.2004 71.9439 13.5379 70.9689 13.5379C69.9939 13.5379 69.2314 13.2004 68.7439 12.5316H66.9501V10.9629H68.2626C68.2626 9.27538 69.2251 8.21914 70.9251 8.21914C72.6251 8.21914 73.6689 9.23788 73.6689 10.9629H75.0376V12.5316ZM72.0376 10.9254C72.0376 10.0004 71.6876 9.53164 70.9939 9.53164H70.8751C70.2751 9.53164 69.8814 10.0941 69.8814 10.8566C69.8814 11.6191 70.2814 12.2066 70.9689 12.2066C71.6564 12.2066 72.0376 11.7129 72.0376 10.9316V10.9254ZM78.1126 10.2691C78.1126 10.8879 77.9376 11.4066 77.5939 11.8191C77.2064 12.3004 76.6689 12.5316 75.9751 12.5316H74.4251V10.9629H75.6314C76.1814 10.9629 76.4626 10.5754 76.4626 9.81289V4.98164H78.1064V10.2691H78.1126ZM80.9439 12.5316H79.3001V4.96914H80.9439V12.5316Z" fill="black"/>
<path d="M1.80625 19.1998V22.3748C1.80625 23.7748 1.2625 24.4498 0 24.5186V23.9436C0.8 23.9436 1.20625 23.5061 1.20625 22.4873V19.1998H1.80625ZM4.85625 23.1061H4.175C3.8625 23.1061 3.60625 22.9936 3.39375 22.7811C3.14375 22.5373 3.025 22.1936 3.025 21.7373V17.5373H3.64375V21.3748C3.64375 21.7686 3.70625 22.0561 3.81875 22.2248C3.9125 22.3686 4.075 22.4561 4.30625 22.4936C4.36875 22.4998 4.4375 22.4998 4.85625 22.4998V23.0998V23.1061ZM6.55 23.1061H4.73125V22.5061H6.55V23.1061ZM8.25 23.1061H6.43125V22.5061H8.25V23.1061ZM9.95625 23.1061H8.1375V22.5061H9.95625V23.1061ZM11.6625 23.1061H9.84375V22.5061H11.6625V23.1061ZM13.3625 23.1061H11.5438V22.5061H13.3625V23.1061ZM15.0688 23.1061H13.25V22.5061H15.0688V23.1061ZM20.4312 23.1061H19.1125C18.7875 23.6061 18.3062 23.8561 17.6688 23.8561C17.0312 23.8561 16.5062 23.6061 16.1875 23.1061H14.9125V22.5061H15.925C15.8812 22.3248 15.8562 22.1248 15.8562 21.9123C15.8562 21.3436 16.0188 20.8811 16.3375 20.5123C16.6625 20.1436 17.1125 19.9623 17.6688 19.9623C18.225 19.9623 18.675 20.1498 18.9938 20.5186C19.2938 20.8686 19.45 21.3373 19.45 21.9061C19.45 22.1186 19.425 22.3186 19.375 22.5061H20.425V23.1061H20.4312ZM18.75 21.8436C18.75 21.4561 18.675 21.1436 18.5188 20.9123C18.3375 20.6311 18.0688 20.4936 17.7 20.4936C17.3313 20.4936 17.0125 20.6498 16.8125 20.9498C16.65 21.1998 16.5687 21.5248 16.5687 21.9498C16.5687 22.3373 16.6437 22.6561 16.8125 22.8936C17.0125 23.1748 17.2937 23.3123 17.6625 23.3123C18.3875 23.3123 18.7438 22.8248 18.7438 21.8436H18.75ZM21.6875 17.6248H21.075V16.8936H21.6875V17.6248ZM22.2437 18.5811H21.6313V17.8498H22.2437V18.5811ZM21.1188 18.5811H20.5063V17.8498H21.1188V18.5811ZM23.2187 23.1061H20.25V22.5123H20.8C21.1688 22.5123 21.4125 22.3936 21.5312 22.1623C21.6187 21.9998 21.6625 21.7248 21.6625 21.3248V19.1998H22.2625V21.5936C22.2625 21.9623 22.2125 22.2748 22.1 22.5061H23.2187V23.1061ZM25.075 18.5811H24.4625V17.8498H25.075V18.5811ZM23.95 18.5811H23.3375V17.8498H23.95V18.5811ZM26.0375 23.1061H23.0688V22.5123H23.6188C23.9875 22.5123 24.2313 22.3936 24.35 22.1623C24.4375 21.9998 24.4813 21.7248 24.4813 21.3248V19.1998H25.0813V21.5936C25.0813 21.9623 25.0312 22.2748 24.9187 22.5061H26.0375V23.1061ZM32.8125 19.1998V21.5936C32.8125 22.5998 32.3938 23.1061 31.5375 23.1061H25.8438V22.5061H26.6438C27.1938 22.5061 27.4937 22.1373 27.5562 21.4061V19.2061H28.1562V21.5998C28.1562 21.9498 28.1063 22.2436 28.0125 22.4748V22.5061H29.1375C29.6875 22.5061 29.8688 22.2373 29.8688 21.3248V19.1998H30.4688V21.5936C30.4688 21.9623 30.4188 22.2748 30.3063 22.5061H31.3375C31.9813 22.5061 32.2 22.2373 32.2 21.3248V19.1998H32.8125ZM37.5188 17.5373V21.5873C37.5188 22.5936 37.1 23.0998 36.2562 23.0998H33.7688V22.5061H35.1688L34.0563 18.1936H34.7125L35.7938 22.5061H36.05C36.4125 22.5061 36.65 22.3873 36.7812 22.1436C36.8688 21.9873 36.9125 21.7123 36.9125 21.3186V17.5311H37.5125L37.5188 17.5373ZM39.275 23.1061H38.675V17.5373H39.275V23.1061ZM43.5312 21.0936V22.3748C43.5312 23.7748 42.9813 24.4498 41.7125 24.5186V23.9436C42.5063 23.9436 42.9063 23.4623 42.925 22.4873C42.7375 22.8123 42.4 22.9811 41.9125 22.9811C40.9688 22.9811 40.2688 22.1873 40.2688 21.0686C40.2688 19.9498 40.9312 19.1748 41.9125 19.1748C42.8937 19.1748 43.5312 19.9748 43.5312 21.0936ZM42.95 21.0936C42.95 20.3186 42.5187 19.7061 41.8812 19.7061C41.2437 19.7061 40.8688 20.3061 40.8688 21.0561C40.8688 21.8061 41.3 22.4311 41.925 22.4311C42.55 22.4311 42.95 21.8373 42.95 21.0873V21.0936ZM48.4625 18.5811H47.85V17.8498H48.4625V18.5811ZM47.3375 18.5811H46.725V17.8498H47.3375V18.5811ZM49.3812 21.1123C49.3812 21.6811 49.2188 22.1561 48.9 22.5248C48.5625 22.9123 48.1063 23.1123 47.55 23.1123C46.9938 23.1123 46.525 22.9248 46.1875 22.5436C45.8687 22.1936 45.7063 21.7186 45.7063 21.1248C45.7063 20.5311 45.8688 20.0811 46.2063 19.7123C46.5438 19.3248 47 19.1373 47.5562 19.1373C48.1125 19.1373 48.5813 19.3248 48.9188 19.7061C49.2313 20.0686 49.3812 20.5436 49.3812 21.1186V21.1123ZM48.6938 21.0623C48.6938 20.6561 48.6188 20.3248 48.4625 20.0748C48.2625 19.7936 47.9812 19.6436 47.5937 19.6436C47.1812 19.6436 46.8688 19.7998 46.6625 20.1061C46.4875 20.3748 46.4062 20.7248 46.4062 21.1623C46.4062 21.5686 46.4938 21.8998 46.6625 22.1498C46.8688 22.4498 47.1625 22.5998 47.55 22.5998C48.3188 22.5998 48.6938 22.0811 48.6938 21.0623ZM51.8375 19.1998V22.3748C51.8375 23.7748 51.2938 24.4498 50.0312 24.5186V23.9436C50.8313 23.9436 51.2375 23.5061 51.2375 22.4873V19.1998H51.8375ZM54.8812 23.1061H54.2C53.8875 23.1061 53.6313 22.9936 53.4188 22.7811C53.1688 22.5373 53.05 22.1936 53.05 21.7373V17.5373H53.6687V21.3748C53.6687 21.7686 53.7312 22.0561 53.8437 22.2248C53.9375 22.3686 54.1 22.4561 54.3375 22.4936C54.4 22.4998 54.4687 22.4998 54.8875 22.4998V23.0998L54.8812 23.1061ZM56.575 23.1061H54.7562V22.5061H56.575V23.1061ZM58.2812 23.1061H56.4625V22.5061H58.2812V23.1061ZM59.9875 23.1061H58.1687V22.5061H59.9875V23.1061ZM61.6875 23.1061H59.8687V22.5061H61.6875V23.1061ZM63.3937 23.1061H61.575V22.5061H63.3937V23.1061ZM65.1 23.1061H63.2812V22.5061H65.1V23.1061ZM66.8 23.1061H64.9812V22.5061H66.8V23.1061ZM73.5125 23.1061H66.6V22.5061H71.8312C71.8375 22.3936 71.85 22.2936 71.85 22.1936C71.85 20.7373 71.0812 19.9061 69.7312 19.9061C69 19.9061 68.4562 20.1873 68.1125 20.7561C68.025 20.6623 67.8562 20.4873 67.5875 20.2248C68.0813 19.6123 68.7812 19.3123 69.7188 19.3123C71.4313 19.3123 72.5562 20.4498 72.5562 22.2373V22.5061H73.5V23.1061H73.5125ZM70.2 24.4186H69.5875V23.6873H70.2V24.4186ZM75.3313 18.5811H74.7188V17.8498H75.3313V18.5811ZM74.2 18.5811H73.5875V17.8498H74.2V18.5811ZM76.2937 23.1061H73.325V22.5123H73.875C74.2438 22.5123 74.4875 22.3936 74.6062 22.1623C74.6937 21.9998 74.7375 21.7248 74.7375 21.3248V19.1998H75.3375V21.5936C75.3375 21.9623 75.2875 22.2748 75.175 22.5061H76.2937V23.1061ZM79.1125 23.1061H76.1438V22.5123H76.6937C77.0625 22.5123 77.3063 22.3936 77.425 22.1623C77.5125 21.9998 77.5562 21.7248 77.5562 21.3248V17.5373H78.1562V21.5873C78.1562 21.9561 78.1062 22.2686 77.9937 22.4998H79.1125V23.0998V23.1061ZM80.9812 17.5373V21.5873C80.9812 22.5936 80.5625 23.0998 79.7188 23.0998H78.9687V22.5061H79.5187C79.8875 22.5061 80.1312 22.3873 80.25 22.1436C80.3375 21.9873 80.3812 21.7123 80.3812 21.3186V17.5311H80.9812V17.5373Z" fill="black"/>
</svg>
