<svg width="465" height="86" viewBox="0 0 465 86" fill="none" xmlns="http://www.w3.org/2000/svg">
<g clip-path="url(#clip0_681_1803)">
<path d="M147.51 6.1001H141.29V34.1101H147.51V6.1001Z" fill="#15589F"/>
<path d="M293.44 29.44H291.73C288.72 29.44 286.28 26.3 286.28 22.44C286.28 18.58 288.72 15.44 291.73 15.44C294.74 15.44 297.18 18.58 297.18 22.44V29.44H293.45H293.44ZM263.51 29.44H240.96V15.43H261.79C264.8 15.43 267.24 18.57 267.24 22.43V29.43H263.51V29.44ZM291.73 10.77C285.28 10.77 280.06 16 280.06 22.44C280.06 25.07 280.93 27.49 282.4 29.44H273.48V22.44C273.48 15.99 268.25 10.77 261.81 10.77H244.71L240.98 14.5V10.77H234.76V29.45H225.58V10.77H219.36V31.78C219.36 35.65 216.92 38.78 213.91 38.78V43.45C219.56 43.45 224.27 39.44 225.35 34.11H263.54L267.27 30.38V34.11H293.46L297.19 30.38V34.11H303.41V22.44C303.41 15.99 298.18 10.77 291.74 10.77" fill="#15589F"/>
<path d="M260.94 51.9502C254.49 51.9502 249.27 57.1802 249.27 63.6202V80.8002H254.87V63.6202C254.87 59.4902 257.59 56.1502 260.94 56.1502C264.29 56.1502 267.01 59.5002 267.01 63.6202V80.8002H272.61V63.6202C272.61 57.1702 267.38 51.9502 260.94 51.9502Z" fill="#15589F"/>
<path d="M235.79 69.3599H223.65V63.6199C223.65 59.4899 226.37 56.1499 229.72 56.1499C233.07 56.1499 235.79 59.4999 235.79 63.6199V69.3599ZM229.72 51.9499C223.27 51.9499 218.05 57.1799 218.05 63.6199V80.7999H223.65V70.1999L227.01 73.5599H235.79V80.7899H241.39V63.6099C241.39 57.1599 236.16 51.9399 229.72 51.9399" fill="#15589F"/>
<path d="M164.75 69.3599H152.61V63.6199C152.61 59.4899 155.33 56.1499 158.68 56.1499C162.03 56.1499 164.75 59.4999 164.75 63.6199V69.3599ZM158.68 51.9499C152.23 51.9499 147.01 57.1799 147.01 63.6199V80.7999H152.61V70.1999L155.97 73.5599H164.75V80.7899H170.35V63.6099C170.35 57.1599 165.12 51.9399 158.68 51.9399" fill="#15589F"/>
<path d="M66.7 69.3599H54.56V63.6199C54.56 59.4899 57.28 56.1499 60.63 56.1499C63.98 56.1499 66.7 59.4999 66.7 63.6199V69.3599ZM60.63 51.9499C54.18 51.9499 48.96 57.1799 48.96 63.6199V80.7999H54.56V70.1999L57.92 73.5599H66.7V80.7899H72.3V63.6099C72.3 57.1599 67.07 51.9399 60.63 51.9399" fill="#15589F"/>
<path d="M206.88 29.44H201.43C198.42 29.44 195.98 26.3 195.98 22.44C195.98 18.58 198.42 15.44 201.43 15.44C204.44 15.44 206.88 18.58 206.88 22.44V29.44ZM201.43 10.77C194.98 10.77 189.76 16 189.76 22.44C189.76 25.07 190.63 27.49 192.1 29.44H175.87C172.86 29.44 170.42 26.3 170.42 22.44V10.77H164.2V22.44C164.2 28.89 169.43 34.11 175.87 34.11H203.15L206.88 30.38V34.11H213.1V22.44C213.1 15.99 207.87 10.77 201.43 10.77Z" fill="#15589F"/>
<path d="M111.5 29.4401H109.79C106.78 29.4401 104.34 26.3001 104.34 22.4401C104.34 18.5801 106.78 15.4401 109.79 15.4401C112.8 15.4401 115.24 18.5801 115.24 22.4401V29.4401H111.51H111.5ZM109.79 38.7801V43.4501C115.44 43.4501 120.15 39.4401 121.23 34.1101H125.76L129.49 30.3801V34.1101H135.72V6.1001H129.49V29.4401H121.46V22.4401C121.46 15.9901 116.23 10.7701 109.79 10.7701C103.35 10.7701 98.12 16.0001 98.12 22.4401C98.12 28.8801 103.35 34.1101 109.79 34.1101H111.5L115.23 30.3801V31.7801C115.23 35.6501 112.79 38.7801 109.78 38.7801" fill="#15589F"/>
<path d="M11.67 15.44C14.68 15.44 17.12 18.58 17.12 22.44V29.44H11.67C8.66 29.44 6.22 26.3 6.22 22.44C6.22 18.58 8.66 15.44 11.67 15.44ZM11.67 34.11H13.38L17.11 30.38V34.11H23.33V22.44C23.33 15.99 18.1 10.77 11.66 10.77C5.22 10.77 0 15.99 0 22.44C0 28.89 5.23 34.11 11.67 34.11Z" fill="#15589F"/>
<path d="M82.37 34.11L86.1 30.38V34.11H92.32V22.44C92.32 15.99 87.09 10.77 80.65 10.77H57.07V15.44H80.65C83.66 15.44 86.1 18.58 86.1 22.44V29.44H50.58V22.44C50.58 15.99 45.35 10.77 38.91 10.77H31.4V15.44H38.91C41.92 15.44 44.36 18.58 44.36 22.44V29.44H29.57V34.11H40.63L44.36 30.38V34.11H82.37Z" fill="#15589F"/>
<path d="M20.23 1.42969H3.10999V6.09969H20.23V1.42969Z" fill="#15589F"/>
<path d="M204.54 1.42969H198.32V6.09969H204.54V1.42969Z" fill="#15589F"/>
<path d="M99.34 64.69H86.23V52.79H80.63V80.8H86.23V68.89H99.34V80.8H104.94V52.79H99.34V64.69Z" fill="#15589F"/>
<path d="M134 69.1295C134 73.2595 131.28 76.5995 127.93 76.5995H123.17H119.81V56.9896H127.93C131.28 56.9896 134 60.3295 134 64.4595V69.1295ZM127.93 52.7896H114.21V80.7996H119.81V77.4396L123.17 80.7996H127.93C134.38 80.7996 139.6 75.5695 139.6 69.1295V64.4595C139.6 58.0095 134.37 52.7896 127.93 52.7896Z" fill="#15589F"/>
<path d="M35.48 70.7495C35.48 74.4496 33.11 77.4396 30.19 77.4396C27.27 77.4396 24.9 74.4496 24.9 70.7495V52.7896H19.3V70.7495C19.3 74.4496 16.93 77.4396 14.01 77.4396C11.09 77.4396 8.71999 74.4496 8.71999 70.7495V52.7896H3.10999V70.7495C3.10999 76.7696 7.98999 81.6395 14 81.6395C17.21 81.6395 20.1 80.2495 22.09 78.0396C24.08 80.2495 26.97 81.6395 30.18 81.6395C36.2 81.6395 41.07 76.7596 41.07 70.7495V52.7896H35.47V70.7495H35.48Z" fill="#15589F"/>
<path d="M201 76.5995H192.62V68.5295H201C203.23 68.5295 205.04 70.3396 205.04 72.5695C205.04 74.7995 203.23 76.6096 201 76.6096M200.3 56.9896C202.32 56.9896 203.96 58.6296 203.96 60.6496C203.96 62.6696 202.32 64.3095 200.3 64.3095H192.63V56.9795H200.3V56.9896ZM206.22 66.1896C208.23 64.8896 209.56 62.6395 209.56 60.0695C209.56 56.0495 206.3 52.7896 202.27 52.7896H187.02V80.7996H192.62V77.4396L195.98 80.7996H202.97C207.2 80.7996 210.63 77.3695 210.63 73.1395C210.63 70.0695 208.82 67.4195 206.21 66.1995" fill="#15589F"/>
<path d="M297.79 58.9298C297.79 62.1098 295.53 64.6898 292.73 64.6898H286.54V52.7798H280.94V80.7898H286.54V68.8898H292.73C295.52 68.8898 297.79 71.4698 297.79 74.6498V80.7998H303.4V74.9498C303.4 71.5198 301.62 68.5198 298.93 66.7998C301.62 65.0798 303.4 62.0698 303.4 58.6498V52.7998H297.79V58.9498V58.9298Z" fill="#15589F"/>
<path fill-rule="evenodd" clip-rule="evenodd" d="M430.19 16.0501L409.25 55.1501L422.46 80.0001C436.52 53.2301 452.68 22.4701 464.32 0.330078H448.69C437.93 0.330078 434.37 8.24008 430.19 16.0501Z" fill="#27AAE2"/>
<path fill-rule="evenodd" clip-rule="evenodd" d="M385.58 0H403.28C408.2 9.32 413.13 18.66 418.06 28.01L406.41 49.69L394.44 26.43L382.48 49.48L370.81 28.01C375.74 18.66 380.67 9.32 385.59 0" fill="#1A75BC"/>
<path fill-rule="evenodd" clip-rule="evenodd" d="M370.34 85.5499H378.86C388.07 85.5499 391.06 80.5699 394.43 73.0099C397.8 80.1799 400.68 85.4999 409.83 85.5499H419.43L394.28 39.0299L382.69 61.2699C382.2 60.8899 357.52 14.0899 355.27 10.0099C353.38 6.5799 351.95 4.7599 349.13 2.9599C346.15 1.0599 342.98 0.0298988 338.51 0.0298988C334.82 0.0298988 327.33 -0.110101 324.07 0.0698988C325.94 3.3899 327.91 7.3799 329.72 10.7999L368.43 83.9599C369.35 85.7199 369.32 85.5299 370.33 85.5299" fill="#034694"/>
</g>
<defs>
<clipPath id="clip0_681_1803">
<rect width="464.32" height="85.56" fill="white"/>
</clipPath>
</defs>
</svg>
