<svg width="2141" height="773" viewBox="0 0 2141 773" fill="none" xmlns="http://www.w3.org/2000/svg">
<g clip-path="url(#clip0_371_564)">
<path d="M1633.36 462.81C1635.36 435.96 1637.35 409.1 1639.35 382.25C1676.38 391.18 1704.43 388.87 1723.44 384.96C1745.72 380.38 1781.25 368.34 1810.24 364.32C1823.02 362.55 1836.26 361.43 1836.26 361.43C1844.29 360.79 1852.32 360.31 1860.35 359.98V358.05C1852.32 356.45 1844.61 354.6 1837.22 352.51C1829.83 350.42 1821.96 347.78 1813.61 344.56C1796.9 338.14 1784.29 333.8 1775.78 331.55C1767.27 329.31 1759.32 328.18 1751.93 328.18C1733.94 328.18 1723.82 338.3 1721.57 358.54H1707.11C1705.5 351.15 1704.38 344.25 1703.74 337.82C1703.09 331.4 1702.78 325.46 1702.78 319.99C1702.78 295.26 1707.84 275.98 1717.96 262.17C1728.08 248.36 1742.61 241.45 1761.57 241.45C1767.67 241.45 1773.69 242.02 1779.64 243.14C1785.58 244.27 1792.97 246.27 1801.81 249.16C1810.64 252.05 1822.12 256.23 1836.26 261.69C1849.43 266.83 1861.48 271.01 1872.4 274.22C1883.32 277.44 1894.4 279.93 1905.65 281.69C1916.89 283.46 1929.26 284.75 1942.75 285.55C1956.24 286.35 1971.82 286.75 1989.49 286.75H1999.61L1977.93 373.48H1961.07C1945.65 373.48 1930.79 375.01 1916.5 378.06C1902.2 381.12 1886.78 386.49 1870.24 394.2C1853.69 401.91 1834.18 412.83 1811.69 426.97C1794.66 437.57 1778.93 446 1764.47 452.27C1757.76 455.18 1741.34 461.79 1721.59 465.76C1704.56 469.18 1673.41 472.89 1633.38 462.82L1633.36 462.81ZM1785.66 170.62L1829.03 127.25L1872.4 170.62L1829.03 213.99L1785.66 170.62Z" fill="white"/>
<path d="M1604.42 220.32L1602.22 219.03L1606.52 207.76L1536.32 166.66L1528.47 175.86L1526.51 174.72L1544.48 144.02L1546.44 145.17L1542.19 156.64L1612.39 197.74L1620.19 188.35L1622.39 189.64L1604.42 220.34V220.32ZM1636.5 165.53L1576.81 174.92L1576.44 174.7L1562.66 122.78L1554.04 132.18L1552.08 131.03L1566.47 106.45L1568.43 107.59L1565.64 117.12L1577.68 163.58L1638.1 153.79L1644.9 146.11L1647.1 147.4L1636.5 165.5V165.53Z" fill="white"/>
<path d="M1653.11 143.76L1651.71 141.97L1656.96 135.34L1604.03 67.7101L1594.49 69.7801L1593.88 69.0001L1604.97 52.5801L1635.28 91.3101C1635.38 90.5101 1635.59 89.1501 1635.93 87.2001C1636.27 85.2601 1636.81 83.0301 1637.55 80.5301C1638.29 78.0301 1639.38 75.5601 1640.83 73.1101C1642.27 70.6601 1644.11 68.5601 1646.34 66.8201C1650.8 63.3301 1655.2 61.9301 1659.52 62.6201C1663.84 63.3201 1668.57 66.9401 1673.69 73.4801L1697.36 103.72L1705.28 100.04L1706.68 101.83L1685.48 118.42L1684.08 116.63L1689.44 109.91L1665.77 79.6701C1663.13 76.4601 1660.08 74.3201 1656.61 73.2501C1653.14 72.1901 1649.77 72.9401 1646.49 75.5001C1643.37 77.9501 1641.15 80.9401 1639.84 84.4801C1638.53 88.0201 1637.56 91.0001 1636.93 93.4101L1664.88 129.12L1673.25 125.09L1674.65 126.88L1653.11 143.74V143.76Z" fill="white"/>
<path d="M1733.17 93.7899C1731.03 94.5499 1728.67 94.8799 1726.09 94.7999C1723.5 94.7199 1721.04 93.9099 1718.69 92.3899C1716.35 90.8699 1714.52 88.2799 1713.23 84.6299C1711.46 79.6399 1711.9 75.2299 1714.54 71.3799C1717.18 67.5299 1721.37 63.6399 1727.09 59.7099L1739.25 51.1799L1737.12 45.1699C1735.1 39.4699 1732.37 35.5999 1728.94 33.5599C1725.51 31.5199 1721.97 31.1499 1718.32 32.4399C1716.36 33.1399 1714.75 34.0299 1713.49 35.1299C1712.23 36.2299 1711.31 37.3799 1710.73 38.5899L1714.33 50.8499C1713.33 52.0099 1711.95 52.8999 1710.17 53.5299C1708.48 54.1299 1706.95 54.1499 1705.6 53.5699C1704.24 52.9999 1703.3 51.9599 1702.76 50.4399C1702.07 48.4799 1702.38 45.9699 1703.69 42.8899C1705.01 39.8199 1707.18 36.8199 1710.2 33.8899C1713.22 30.9599 1716.96 28.7099 1721.41 27.1299C1727.91 24.8199 1733.04 24.7299 1736.8 26.8599C1740.56 28.9799 1743.44 32.8499 1745.43 38.4599L1758.18 74.3899C1758.62 75.6399 1759.21 76.5299 1759.96 77.0699C1760.7 77.6099 1761.92 77.5799 1763.61 76.9799L1770.02 74.7099L1770.64 76.4499C1768.56 78.4899 1766.73 80.1199 1765.15 81.3299C1763.57 82.5399 1761.94 83.4499 1760.25 84.0499C1757.22 85.1199 1754.76 85.0999 1752.85 83.9699C1750.95 82.8399 1749.41 80.4799 1748.23 76.8899L1747.96 76.9799C1746.13 81.1399 1744.14 84.6499 1742 87.5199C1739.86 90.3799 1736.92 92.4799 1733.18 93.8099L1733.17 93.7899ZM1722.25 78.2599C1723.17 80.8399 1724.85 82.9799 1727.3 84.6599C1729.75 86.3499 1732.89 86.5099 1736.72 85.1499C1739.39 84.1999 1741.56 82.4799 1743.23 79.9799C1744.9 77.4799 1746.1 74.9999 1746.83 72.5399L1740.15 53.7099L1727.39 63.9499C1724.27 66.4599 1722.43 68.8999 1721.86 71.2499C1721.29 73.6099 1721.42 75.9399 1722.24 78.2599H1722.25Z" fill="white"/>
<path d="M1821.42 75.4599L1781.07 77.2399L1780.98 75.1199L1815.41 16.2899L1789.64 17.4299L1783.43 34.2999L1781.45 34.3899L1780.53 13.5799L1790.47 13.8499L1828.55 12.1699L1828.58 12.7399L1793.22 73.0299L1820.69 71.8199L1828.94 53.0199L1831.06 52.9299L1829.24 75.9899L1821.42 75.4799V75.4599Z" fill="white"/>
<path d="M1844.03 74.9299L1844.65 72.7499L1854.46 73.4599L1867.71 26.5399L1859.96 20.0799L1860.23 19.1299L1879.42 17.9199L1879.83 18.0399L1876.93 29.8799L1877.2 29.9599C1877.81 29.5399 1879 28.8999 1880.77 28.0199C1882.54 27.1499 1884.67 26.2799 1887.18 25.4099C1889.68 24.5499 1892.35 23.9499 1895.19 23.6199C1898.03 23.2899 1900.82 23.5199 1903.54 24.2899C1908.9 25.7999 1912.6 28.5399 1914.62 32.4999C1916.64 36.4599 1916.52 42.4399 1914.27 50.4399L1903.83 87.3999L1911.47 91.6199L1910.85 93.7999L1884.94 86.4799L1885.56 84.2999L1894.01 84.6299L1904.45 47.6699C1905.58 43.6699 1905.55 39.9599 1904.36 36.5299C1903.17 33.0999 1900.53 30.8099 1896.44 29.6499C1893.99 28.9599 1891.49 28.7399 1888.96 29.0099C1886.43 29.2799 1884.11 29.7699 1881.99 30.4999C1879.87 31.2299 1878.03 31.9099 1876.48 32.5499L1864.15 76.1899L1872.34 80.5599L1871.72 82.7399L1844.03 74.9199V74.9299Z" fill="white"/>
<path d="M1932.82 110.56C1930.95 109.28 1929.29 107.56 1927.84 105.42C1926.39 103.28 1925.59 100.81 1925.44 98.0204C1925.29 95.2304 1926.32 92.2304 1928.51 89.0404C1931.5 84.6804 1935.33 82.4404 1940 82.3104C1944.66 82.1904 1950.27 83.2804 1956.82 85.6004L1970.87 90.4304L1974.48 85.1704C1977.9 80.1804 1979.43 75.7004 1979.06 71.7304C1978.69 67.7604 1976.91 64.6704 1973.72 62.4804C1972.01 61.3004 1970.33 60.5304 1968.7 60.1504C1967.07 59.7804 1965.59 59.7104 1964.28 59.9504L1956.48 70.0704C1954.96 69.9504 1953.42 69.3504 1951.87 68.2804C1950.39 67.2604 1949.48 66.0404 1949.15 64.6104C1948.81 63.1804 1949.1 61.8004 1950.01 60.4704C1951.18 58.7604 1953.4 57.5304 1956.66 56.7804C1959.92 56.0404 1963.62 56.0304 1967.76 56.7504C1971.9 57.4704 1975.92 59.1704 1979.82 61.8404C1985.51 65.7404 1988.6 69.8404 1989.09 74.1304C1989.58 78.4204 1988.15 83.0204 1984.78 87.9304L1963.21 119.37C1962.46 120.46 1962.09 121.46 1962.09 122.38C1962.09 123.3 1962.83 124.26 1964.31 125.28L1969.92 129.13L1968.88 130.65C1966 130.17 1963.61 129.64 1961.71 129.08C1959.8 128.52 1958.11 127.73 1956.63 126.71C1953.98 124.89 1952.55 122.88 1952.35 120.68C1952.14 118.48 1953.15 115.84 1955.36 112.78L1955.13 112.62C1950.69 113.58 1946.68 114.04 1943.1 113.99C1939.52 113.94 1936.1 112.8 1932.83 110.55L1932.82 110.56ZM1938.95 92.6004C1937.4 94.8604 1936.66 97.4804 1936.74 100.45C1936.82 103.42 1938.53 106.06 1941.88 108.36C1944.22 109.96 1946.89 110.71 1949.89 110.59C1952.89 110.47 1955.6 109.99 1958.03 109.13L1969.33 92.6504L1953.55 88.3504C1949.68 87.3004 1946.63 87.2404 1944.39 88.1704C1942.15 89.1004 1940.33 90.5704 1938.95 92.6004Z" fill="white"/>
<path d="M2013.79 180.94C2013.39 182 2013.19 183.04 2013.19 184.06C2013.19 185.07 2013.46 186.29 2014 187.72L2027.22 212.79L2055.67 212.05L2056.79 214.18L2027.93 222.34L1996.8 163.29L1999.06 162.1L2006.37 171.71L2078.33 133.78L2074.53 122.32L2076.66 121.2L2094.24 154.55L2092.11 155.67L2084 143.93L2013.8 180.94H2013.79Z" fill="white"/>
<path d="M2031.12 238.15L2033.34 237.68L2037.27 246.7L2084.97 236.62L2087.09 226.76L2088.06 226.55L2098.7 244L2039.35 256.54L2039.37 266.24L2037.15 266.71L2031.12 238.15ZM2112.77 235.24C2112.36 233.3 2112.7 231.49 2113.8 229.81C2114.89 228.13 2116.41 227.09 2118.35 226.68C2120.29 226.27 2122.1 226.61 2123.78 227.71C2125.46 228.8 2126.5 230.32 2126.91 232.26C2127.32 234.2 2126.98 236.01 2125.88 237.69C2124.79 239.37 2123.27 240.41 2121.33 240.82C2119.39 241.23 2117.58 240.89 2115.9 239.79C2114.22 238.7 2113.18 237.18 2112.77 235.24Z" fill="white"/>
<path d="M2037.09 303.069C2037.4 297.309 2039 292.049 2041.9 287.289L2043.61 284.399L2129.79 288.989L2134.5 280.439L2135.49 280.489L2140.71 299.639L2093.44 297.119C2094.78 298.519 2096.23 300.269 2097.77 302.389C2099.31 304.509 2100.62 306.939 2101.71 309.699C2102.79 312.449 2103.25 315.439 2103.08 318.639C2102.86 322.789 2101.63 326.669 2099.41 330.289C2097.18 333.909 2093.79 336.799 2089.23 338.969C2084.67 341.139 2078.75 342.029 2071.49 341.639C2066.68 341.379 2062.13 340.119 2057.85 337.859C2053.57 335.599 2049.82 332.649 2046.61 329.029C2043.4 325.409 2040.94 321.349 2039.24 316.859C2037.54 312.369 2036.81 307.769 2037.07 303.049L2037.09 303.069ZM2047.32 294.679C2045.82 296.209 2044.53 298.099 2043.47 300.359C2042.4 302.619 2041.79 305.259 2041.63 308.279C2041.43 312.049 2042.28 315.619 2044.18 318.989C2046.08 322.359 2049.17 325.169 2053.45 327.429C2057.73 329.689 2063.36 331.009 2070.34 331.379C2075.15 331.639 2079.52 330.949 2083.44 329.309C2087.36 327.669 2090.51 325.429 2092.88 322.569C2095.25 319.719 2096.54 316.539 2096.72 313.049C2096.85 310.589 2096.48 308.309 2095.6 306.179C2094.72 304.049 2093.68 302.199 2092.49 300.619C2091.3 299.039 2090.3 297.809 2089.49 296.909L2047.32 294.659V294.679Z" fill="white"/>
<path d="M2033.13 352.729L2035.27 353.479L2033.93 363.229L2079.9 379.459L2086.84 372.139L2087.78 372.469L2087.76 391.699L2087.62 392.099L2070.15 386.239L2070.01 386.639L2072.48 389.009C2077.26 393.899 2080.23 397.829 2081.39 400.799C2082.55 403.759 2082.69 406.489 2081.81 408.989C2081.24 410.589 2080.27 411.779 2078.9 412.549C2077.53 413.319 2076.04 413.419 2074.43 412.849C2073.09 412.379 2072.06 411.689 2071.33 410.779C2070.6 409.869 2069.94 408.809 2069.37 407.609L2075.11 399.869C2074.61 397.589 2073.39 395.029 2071.44 392.189C2069.49 389.349 2067.14 386.839 2064.4 384.669L2030.59 372.739L2025.18 382.099L2023.04 381.349L2033.13 352.749V352.729Z" fill="white"/>
<path d="M2003.5 415.68C2004.79 413.82 2006.52 412.17 2008.67 410.73C2010.82 409.29 2013.29 408.51 2016.09 408.38C2018.88 408.25 2021.87 409.29 2025.05 411.5C2029.39 414.52 2031.61 418.36 2031.71 423.03C2031.8 427.7 2030.67 433.3 2028.32 439.83L2023.41 453.85L2028.65 457.49C2033.61 460.94 2038.09 462.49 2042.06 462.15C2046.04 461.81 2049.13 460.05 2051.34 456.87C2052.53 455.16 2053.31 453.49 2053.7 451.86C2054.08 450.23 2054.16 448.76 2053.92 447.44L2043.85 439.58C2043.99 438.06 2044.59 436.53 2045.67 434.98C2046.69 433.51 2047.92 432.61 2049.36 432.28C2050.8 431.95 2052.17 432.25 2053.49 433.16C2055.2 434.35 2056.41 436.57 2057.14 439.84C2057.86 443.1 2057.85 446.8 2057.1 450.94C2056.35 455.08 2054.63 459.09 2051.93 462.97C2047.99 468.63 2043.88 471.7 2039.58 472.17C2035.29 472.64 2030.69 471.17 2025.81 467.78L1994.51 446.02C1993.42 445.26 1992.42 444.88 1991.51 444.88C1990.59 444.88 1989.62 445.61 1988.6 447.09L1984.72 452.68L1983.21 451.63C1983.71 448.76 1984.25 446.37 1984.82 444.47C1985.4 442.57 1986.19 440.88 1987.22 439.41C1989.05 436.77 1991.07 435.36 1993.28 435.16C1995.49 434.97 1998.11 435.99 2001.16 438.22L2001.32 437.99C2000.38 433.54 1999.95 429.53 2000.02 425.95C2000.09 422.37 2001.26 418.96 2003.52 415.7L2003.5 415.68ZM2021.42 421.92C2019.17 420.36 2016.56 419.6 2013.58 419.66C2010.6 419.72 2007.96 421.42 2005.64 424.75C2004.02 427.08 2003.26 429.74 2003.36 432.75C2003.46 435.75 2003.93 438.47 2004.78 440.9L2021.19 452.3L2025.58 436.54C2026.65 432.68 2026.73 429.63 2025.82 427.38C2024.91 425.13 2023.44 423.31 2021.42 421.91V421.92Z" fill="white"/>
<path d="M1974.94 455.65L1976.39 457.39L1970.27 465.09L2001.52 502.51L2011.22 499.76L2011.86 500.52L2002.03 517.04L2001.7 517.31L1989.67 503.35L1989.34 503.62L1990.25 506.92C1991.87 513.57 1992.42 518.47 1991.9 521.61C1991.38 524.75 1990.11 527.17 1988.08 528.86C1986.77 529.95 1985.34 530.47 1983.76 530.43C1982.19 530.39 1980.86 529.72 1979.77 528.41C1978.86 527.32 1978.32 526.2 1978.16 525.05C1978 523.89 1977.97 522.65 1978.09 521.32L1986.98 517.59C1987.71 515.38 1987.97 512.55 1987.74 509.11C1987.51 505.67 1986.77 502.32 1985.52 499.05L1962.54 471.53L1953.11 476.82L1951.66 475.08L1974.94 455.64V455.65Z" fill="white"/>
<path d="M1914.19 562.11L1924.72 560.3L1925.54 562.11L1904.88 571.46L1904 569.52L1910.05 563.98L1902.87 475.92C1902.64 473.12 1902.85 470.54 1903.49 468.17C1904.13 465.81 1905.74 464.04 1908.32 462.87C1910.22 462.01 1912.03 461.89 1913.76 462.51C1915.49 463.13 1916.75 464.3 1917.53 466.02C1918.31 467.74 1918.39 469.42 1917.78 471.04C1917.17 472.67 1916 473.87 1914.28 474.65C1912.9 475.27 1911.56 475.39 1910.24 475C1908.92 474.61 1907.69 473.95 1906.54 473.02L1906.28 473.14L1907.85 496.54L1954.59 544.15L1962.56 543.19L1963.38 545L1937.82 556.57L1937 554.76L1944.08 548.76L1909.47 512.15L1909.08 512.32L1914.19 562.12V562.11Z" fill="white"/>
<path d="M212.81 70.94L269.56 127.69L333.77 64.22L269.56 0L212.81 56.75L156.06 0L92.5898 64.22L156.06 127.69L212.81 70.94Z" fill="white"/>
<path d="M568.98 310.63C559.52 285.74 544.58 262.1 524.18 239.69H501.78L444.28 367.38C462.2 375.35 479.99 383.69 497.67 392.39C515.33 401.11 533.14 410.44 551.06 420.39C538 431.2 519.1 444.58 494.2 455.69C467.79 467.48 443.89 472.59 426.52 474.93C426.54 474.91 426.56 474.88 426.58 474.86C420.29 476.7 410.99 478.75 399.63 478.75C396.22 478.75 389.65 478.56 378.45 476.38C367.62 474.27 353.88 471.7 338.74 463.98C329 459.01 309.8 448.92 295.31 426.74C285.14 411.16 281.48 396.05 280 386.79V145.61H257.6L200.1 235.21L147.83 259.85C96.05 284.25 58.47 310.75 35.08 339.37C11.69 368.01 0 398.25 0 430.1C0 463.96 10.08 489.83 30.24 507.76C52.5 527.55 81.85 537.91 108.27 534.64C154.73 528.89 195.79 482.84 202.58 420.81C201.25 438.58 201.54 476.53 225.51 512.98C243.9 540.96 269.34 555.79 276.57 559.59C287.73 565.46 302.22 571.04 333.31 575.14C361.44 578.85 412.91 582.62 481.38 568.92C500.3 565.13 527.09 558.7 558.53 547.33C566 520.95 571.97 495.19 576.45 470.05C580.93 444.92 583.17 420.9 583.17 397.99C583.17 364.64 578.43 335.52 568.98 310.63ZM157.93 390.52C141.25 392.02 126.44 392.76 113.5 392.76C89.1 392.76 71.43 391.27 60.48 388.28C49.52 385.29 44.05 380.57 44.05 374.09C44.05 367.61 48.77 361.4 58.24 355.42C67.69 349.45 82.62 343.97 103.04 338.99L191.9 318.08L198.62 383.04C188.17 386.53 174.6 389.01 157.93 390.51V390.52Z" fill="white"/>
<path d="M512.984 55.2575L445.78 122.461L512.984 189.664L580.187 122.461L512.984 55.2575Z" fill="white"/>
<g filter="url(#filter0_d_371_564)">
<path d="M727.293 129.927L660.09 197.131L727.293 264.334L794.497 197.131L727.293 129.927Z" fill="white"/>
<path d="M1400.06 294.951C1372.68 294.951 1348.54 294.33 1327.63 293.09C1306.72 291.851 1287.55 289.86 1270.13 287.11C1252.7 284.38 1235.52 280.521 1218.61 275.541C1201.68 270.571 1183.01 264.101 1162.61 256.131C1140.7 247.671 1122.91 241.201 1109.22 236.721C1095.52 232.241 1084.08 229.141 1074.87 227.391C1065.65 225.651 1056.32 224.771 1046.87 224.771C1017.49 224.771 994.98 235.481 979.29 256.881C963.61 278.291 955.77 308.161 955.77 346.481C955.77 354.951 956.26 364.16 957.26 374.11C958.25 384.07 959.99 394.771 962.49 406.221H984.89C988.37 374.861 1004.05 359.18 1031.93 359.18C1043.38 359.18 1055.7 360.931 1068.89 364.411C1082.08 367.901 1101.62 374.621 1127.51 384.571C1140.45 389.551 1152.64 393.661 1164.1 396.891C1175.54 400.131 1187.49 402.991 1199.94 405.481V408.46C1187.49 408.96 1175.04 409.711 1162.6 410.701C1162.6 410.701 1141.87 412.451 1122.28 415.18C1075.63 421.68 1051.68 439.411 996.33 450.011C969.95 455.061 936.13 461.201 896.84 452.601C870.25 446.781 847.7 435.641 840.41 431.981C829.08 426.301 819.67 422.43 810.54 413.311C801.32 404.1 791.74 390.531 781.79 372.62L749.68 314.381H727.28L669.78 442.061C688.19 466.46 704.13 486.991 717.57 503.661C731.01 520.341 743.95 533.9 756.4 544.35C743.45 558.79 718.69 576.83 682.1 598.49C645.51 620.14 599.33 643.67 543.59 669.05V691.451L706.37 772.841C724.29 735.001 739.71 698.54 752.66 663.451C765.6 628.361 775.55 594.871 782.53 563.021C792.99 568.991 804.06 573.101 815.76 575.341C830.44 578.151 843.92 578.51 854.96 578.701C885.73 579.23 901.38 579.481 914.71 579.031C919.62 578.871 924.13 578.671 928.2 578.461C948.08 577.831 966.98 575.81 984.88 572.35C1006.78 568.13 1028.93 561.15 1051.34 551.44C1073.74 541.73 1098.13 528.66 1124.52 512.24C1159.36 490.34 1189.6 473.41 1215.25 461.46C1240.88 449.51 1264.78 441.181 1286.93 436.451C1309.07 431.721 1332.11 429.36 1356 429.36H1382.13L1415.73 294.951H1400.05H1400.06Z" fill="white"/>
<path d="M1151.41 47.7868L1084.21 114.99L1151.41 182.194L1218.61 114.99L1151.41 47.7868Z" fill="white"/>
</g>
</g>
<defs>
<filter id="filter0_d_371_564" x="539.59" y="47.7871" width="880.14" height="733.054" filterUnits="userSpaceOnUse" color-interpolation-filters="sRGB">
<feFlood flood-opacity="0" result="BackgroundImageFix"/>
<feColorMatrix in="SourceAlpha" type="matrix" values="0 0 0 0 0 0 0 0 0 0 0 0 0 0 0 0 0 0 127 0" result="hardAlpha"/>
<feOffset dy="4"/>
<feGaussianBlur stdDeviation="2"/>
<feComposite in2="hardAlpha" operator="out"/>
<feColorMatrix type="matrix" values="0 0 0 0 0 0 0 0 0 0 0 0 0 0 0 0 0 0 0.25 0"/>
<feBlend mode="normal" in2="BackgroundImageFix" result="effect1_dropShadow_371_564"/>
<feBlend mode="normal" in="SourceGraphic" in2="effect1_dropShadow_371_564" result="shape"/>
</filter>
<clipPath id="clip0_371_564">
<rect width="2140.72" height="772.83" fill="white"/>
</clipPath>
</defs>
</svg>
