<svg width="2597" height="560" viewBox="0 0 2597 560" fill="none" xmlns="http://www.w3.org/2000/svg">
<g clip-path="url(#clip0_256_32)">
<path d="M106.84 450.65C108.84 423.8 110.83 396.94 112.83 370.09C149.86 379.02 177.91 376.71 196.92 372.8C219.2 368.22 254.73 356.18 283.72 352.16C296.5 350.39 309.74 349.27 309.74 349.27C317.77 348.63 325.8 348.15 333.83 347.82V345.89C325.8 344.29 318.09 342.44 310.7 340.35C303.31 338.26 295.44 335.62 287.09 332.4C270.38 325.98 257.77 321.64 249.26 319.39C240.75 317.15 232.8 316.02 225.41 316.02C207.42 316.02 197.3 326.14 195.05 346.38H180.59C178.98 338.99 177.86 332.09 177.22 325.66C176.57 319.24 176.26 313.3 176.26 307.83C176.26 283.1 181.32 263.82 191.44 250.01C201.56 236.2 216.09 229.29 235.05 229.29C241.15 229.29 247.17 229.86 253.12 230.98C259.06 232.11 266.45 234.11 275.29 237C284.12 239.89 295.6 244.07 309.74 249.53C322.91 254.67 334.96 258.85 345.88 262.06C356.8 265.28 367.88 267.77 379.13 269.53C390.37 271.3 402.74 272.59 416.23 273.39C429.72 274.19 445.3 274.59 462.97 274.59H473.09L451.41 361.32H434.55C419.13 361.32 404.27 362.85 389.98 365.9C375.68 368.96 360.26 374.33 343.72 382.04C327.17 389.75 307.66 400.67 285.17 414.81C268.14 425.41 252.41 433.84 237.95 440.11C231.24 443.02 214.82 449.63 195.07 453.6C178.04 457.02 146.89 460.73 106.86 450.66L106.84 450.65ZM259.14 158.46L302.51 115.09L345.88 158.46L302.51 201.83L259.14 158.46Z" fill="white"/>
<path d="M77.9 208.16L75.7 206.87L80 195.6L9.81 154.49L1.96 163.69L0 162.55L17.97 131.85L19.93 133L15.68 144.47L85.88 185.57L93.68 176.18L95.88 177.47L77.91 208.17L77.9 208.16ZM109.98 153.37L50.29 162.76L49.92 162.54L36.14 110.62L27.52 120.02L25.56 118.87L39.95 94.29L41.91 95.43L39.12 104.96L51.16 151.42L111.58 141.63L118.38 133.95L120.58 135.24L109.98 153.34V153.37Z" fill="white"/>
<path d="M126.6 131.6L125.2 129.81L130.45 123.18L77.5201 55.5499L67.9801 57.6199L67.3701 56.8399L78.4601 40.4199L108.77 79.1499C108.87 78.3499 109.08 76.9899 109.42 75.0399C109.76 73.0999 110.3 70.8699 111.04 68.3699C111.78 65.8699 112.87 63.3999 114.32 60.9499C115.76 58.4999 117.6 56.3999 119.83 54.6599C124.29 51.1699 128.69 49.7699 133.01 50.4599C137.33 51.1599 142.06 54.7799 147.18 61.3199L170.85 91.5599L178.77 87.8799L180.17 89.6699L158.97 106.26L157.57 104.47L162.93 97.7499L139.26 67.5099C136.62 64.2999 133.57 62.1599 130.1 61.0899C126.63 60.0299 123.26 60.7799 119.98 63.3399C116.86 65.7899 114.64 68.7799 113.33 72.3199C112.02 75.8599 111.05 78.8399 110.42 81.2499L138.37 116.96L146.74 112.93L148.14 114.72L126.6 131.58V131.6Z" fill="white"/>
<path d="M206.65 81.62C204.51 82.38 202.15 82.71 199.57 82.63C196.98 82.55 194.52 81.74 192.17 80.22C189.83 78.7 188 76.11 186.71 72.46C184.94 67.47 185.38 63.06 188.02 59.21C190.66 55.36 194.85 51.47 200.57 47.54L212.73 39.01L210.6 33C208.58 27.3 205.85 23.43 202.42 21.39C198.99 19.35 195.45 18.98 191.8 20.27C189.84 20.97 188.23 21.86 186.97 22.96C185.71 24.06 184.79 25.21 184.21 26.42L187.81 38.68C186.81 39.84 185.43 40.73 183.65 41.36C181.96 41.96 180.43 41.98 179.08 41.4C177.72 40.83 176.78 39.79 176.24 38.27C175.55 36.31 175.86 33.8 177.17 30.72C178.49 27.65 180.66 24.65 183.68 21.72C186.7 18.79 190.44 16.54 194.89 14.96C201.39 12.65 206.52 12.56 210.28 14.69C214.04 16.81 216.92 20.68 218.91 26.29L231.66 62.22C232.1 63.47 232.69 64.36 233.44 64.9C234.18 65.44 235.4 65.41 237.09 64.81L243.5 62.54L244.12 64.28C242.04 66.32 240.21 67.95 238.63 69.16C237.05 70.37 235.42 71.28 233.73 71.88C230.7 72.95 228.24 72.93 226.33 71.8C224.43 70.67 222.89 68.31 221.71 64.72L221.44 64.81C219.61 68.97 217.62 72.48 215.48 75.35C213.34 78.21 210.4 80.31 206.66 81.64L206.65 81.62ZM195.73 66.1C196.65 68.68 198.33 70.82 200.78 72.5C203.23 74.19 206.37 74.35 210.2 72.99C212.87 72.04 215.04 70.32 216.71 67.82C218.38 65.32 219.58 62.84 220.31 60.38L213.63 41.55L200.87 51.79C197.75 54.3 195.91 56.74 195.34 59.09C194.77 61.45 194.9 63.78 195.72 66.1H195.73Z" fill="white"/>
<path d="M294.9 63.2998L254.55 65.0798L254.46 62.9598L288.89 4.12977L263.12 5.26977L256.91 22.1398L254.93 22.2298L254.01 1.41977L263.95 1.68977L302.03 0.00976562L302.06 0.579766L266.7 60.8698L294.17 59.6598L302.42 40.8598L304.54 40.7698L302.72 63.8298L294.9 63.3198V63.2998Z" fill="white"/>
<path d="M317.51 62.7698L318.13 60.5898L327.94 61.2998L341.19 14.3798L333.44 7.91977L333.71 6.96977L352.9 5.75977L353.31 5.87977L350.41 17.7198L350.68 17.7998C351.29 17.3798 352.48 16.7398 354.25 15.8598C356.02 14.9898 358.15 14.1198 360.66 13.2498C363.16 12.3898 365.83 11.7898 368.67 11.4598C371.51 11.1298 374.3 11.3598 377.02 12.1298C382.38 13.6398 386.08 16.3798 388.1 20.3398C390.12 24.2998 390 30.2798 387.75 38.2798L377.31 75.2398L384.95 79.4598L384.33 81.6398L358.42 74.3198L359.04 72.1398L367.49 72.4698L377.93 35.5098C379.06 31.5098 379.03 27.7998 377.84 24.3698C376.65 20.9398 374.01 18.6498 369.92 17.4898C367.47 16.7998 364.97 16.5798 362.44 16.8498C359.91 17.1198 357.59 17.6098 355.47 18.3398C353.35 19.0698 351.51 19.7498 349.96 20.3898L337.63 64.0298L345.82 68.3998L345.2 70.5798L317.51 62.7598V62.7698Z" fill="white"/>
<path d="M406.3 98.4002C404.43 97.1202 402.77 95.4002 401.32 93.2602C399.87 91.1202 399.07 88.6502 398.92 85.8602C398.77 83.0702 399.8 80.0702 401.99 76.8802C404.98 72.5202 408.81 70.2802 413.48 70.1502C418.14 70.0302 423.75 71.1202 430.3 73.4402L444.35 78.2702L447.96 73.0102C451.38 68.0202 452.91 63.5402 452.54 59.5702C452.17 55.6002 450.39 52.5102 447.2 50.3202C445.49 49.1402 443.81 48.3702 442.18 47.9902C440.55 47.6202 439.07 47.5502 437.76 47.7902L429.96 57.9102C428.44 57.7902 426.9 57.1902 425.35 56.1202C423.87 55.1002 422.96 53.8802 422.63 52.4502C422.29 51.0202 422.58 49.6402 423.49 48.3102C424.66 46.6002 426.88 45.3702 430.14 44.6202C433.4 43.8802 437.1 43.8702 441.24 44.5902C445.38 45.3102 449.4 47.0102 453.3 49.6802C458.99 53.5802 462.08 57.6802 462.57 61.9702C463.06 66.2602 461.63 70.8602 458.26 75.7702L436.69 107.21C435.94 108.3 435.57 109.3 435.57 110.22C435.57 111.14 436.31 112.1 437.79 113.12L443.4 116.97L442.36 118.49C439.48 118.01 437.09 117.48 435.19 116.92C433.28 116.36 431.59 115.57 430.11 114.55C427.46 112.73 426.03 110.72 425.83 108.52C425.62 106.32 426.63 103.68 428.84 100.62L428.61 100.46C424.17 101.42 420.16 101.88 416.58 101.83C413 101.78 409.58 100.64 406.31 98.3902L406.3 98.4002ZM412.43 80.4402C410.88 82.7002 410.14 85.3202 410.22 88.2902C410.3 91.2602 412.01 93.9002 415.36 96.2002C417.7 97.8002 420.37 98.5502 423.37 98.4302C426.37 98.3102 429.08 97.8302 431.51 96.9702L442.81 80.4902L427.03 76.1902C423.16 75.1402 420.11 75.0802 417.87 76.0102C415.63 76.9402 413.81 78.4102 412.43 80.4402Z" fill="white"/>
<path d="M487.27 168.78C486.87 169.84 486.67 170.88 486.67 171.9C486.67 172.91 486.94 174.13 487.48 175.56L500.7 200.63L529.15 199.89L530.27 202.02L501.41 210.18L470.28 151.13L472.54 149.94L479.85 159.55L551.81 121.62L548.01 110.16L550.14 109.04L567.72 142.39L565.59 143.51L557.48 131.77L487.28 168.78H487.27Z" fill="white"/>
<path d="M504.6 225.989L506.82 225.519L510.75 234.539L558.45 224.459L560.57 214.599L561.54 214.389L572.18 231.839L512.83 244.379L512.85 254.079L510.63 254.549L504.6 225.989ZM586.25 223.079C585.84 221.139 586.18 219.329 587.28 217.649C588.37 215.969 589.89 214.929 591.83 214.519C593.77 214.109 595.58 214.449 597.26 215.549C598.94 216.639 599.98 218.159 600.39 220.099C600.8 222.039 600.46 223.849 599.36 225.529C598.27 227.209 596.75 228.249 594.81 228.659C592.87 229.069 591.06 228.729 589.38 227.629C587.7 226.539 586.66 225.019 586.25 223.079Z" fill="white"/>
<path d="M510.57 290.909C510.88 285.149 512.48 279.889 515.38 275.129L517.09 272.239L603.27 276.829L607.98 268.279L608.97 268.329L614.19 287.479L566.92 284.959C568.26 286.359 569.71 288.109 571.25 290.229C572.79 292.349 574.1 294.779 575.19 297.539C576.27 300.289 576.73 303.279 576.56 306.479C576.34 310.629 575.11 314.509 572.89 318.129C570.66 321.749 567.27 324.639 562.71 326.809C558.15 328.979 552.23 329.869 544.97 329.479C540.16 329.219 535.61 327.959 531.33 325.699C527.05 323.439 523.3 320.489 520.09 316.869C516.88 313.249 514.42 309.189 512.72 304.699C511.02 300.209 510.29 295.609 510.55 290.889L510.57 290.909ZM520.81 282.519C519.31 284.049 518.02 285.939 516.96 288.199C515.89 290.459 515.28 293.099 515.12 296.119C514.92 299.889 515.77 303.459 517.67 306.829C519.57 310.199 522.66 313.009 526.94 315.269C531.22 317.529 536.85 318.849 543.83 319.219C548.64 319.479 553.01 318.789 556.93 317.149C560.85 315.509 564 313.269 566.37 310.409C568.74 307.559 570.03 304.379 570.21 300.889C570.34 298.429 569.97 296.149 569.09 294.019C568.21 291.889 567.17 290.039 565.98 288.459C564.79 286.879 563.79 285.649 562.98 284.749L520.81 282.499V282.519Z" fill="white"/>
<path d="M506.62 340.569L508.76 341.319L507.42 351.069L553.39 367.299L560.33 359.979L561.27 360.309L561.25 379.539L561.11 379.939L543.64 374.079L543.5 374.479L545.97 376.849C550.75 381.739 553.72 385.669 554.88 388.639C556.04 391.599 556.18 394.329 555.3 396.829C554.73 398.429 553.76 399.619 552.39 400.389C551.02 401.159 549.53 401.259 547.92 400.689C546.58 400.219 545.55 399.529 544.82 398.619C544.09 397.709 543.43 396.649 542.86 395.449L548.6 387.709C548.1 385.429 546.88 382.869 544.93 380.029C542.98 377.189 540.63 374.679 537.89 372.509L504.08 360.579L498.67 369.939L496.53 369.189L506.62 340.589V340.569Z" fill="white"/>
<path d="M476.98 403.51C478.27 401.65 480 400 482.15 398.56C484.3 397.12 486.77 396.34 489.57 396.21C492.36 396.08 495.35 397.12 498.53 399.33C502.87 402.35 505.09 406.19 505.19 410.86C505.28 415.53 504.15 421.13 501.8 427.66L496.89 441.68L502.13 445.32C507.09 448.77 511.57 450.32 515.54 449.98C519.52 449.64 522.61 447.88 524.82 444.7C526.01 442.99 526.79 441.32 527.18 439.69C527.56 438.06 527.64 436.59 527.4 435.27L517.33 427.41C517.47 425.89 518.07 424.36 519.15 422.81C520.17 421.34 521.4 420.44 522.84 420.11C524.28 419.78 525.65 420.08 526.97 420.99C528.68 422.18 529.89 424.4 530.62 427.67C531.34 430.93 531.33 434.63 530.58 438.77C529.83 442.91 528.11 446.92 525.41 450.8C521.47 456.46 517.36 459.53 513.06 460C508.77 460.47 504.17 459 499.29 455.61L467.99 433.85C466.9 433.09 465.9 432.71 464.99 432.71C464.07 432.71 463.1 433.44 462.08 434.92L458.2 440.51L456.69 439.46C457.19 436.59 457.73 434.2 458.3 432.3C458.88 430.4 459.67 428.71 460.7 427.24C462.53 424.6 464.55 423.19 466.76 422.99C468.97 422.8 471.59 423.82 474.64 426.05L474.8 425.82C473.86 421.37 473.43 417.36 473.5 413.78C473.57 410.2 474.74 406.79 477 403.53L476.98 403.51ZM494.9 409.76C492.65 408.2 490.04 407.44 487.06 407.5C484.08 407.56 481.44 409.26 479.12 412.59C477.5 414.92 476.74 417.58 476.84 420.59C476.94 423.59 477.41 426.31 478.26 428.74L494.67 440.14L499.06 424.38C500.13 420.52 500.21 417.47 499.3 415.22C498.39 412.97 496.92 411.15 494.9 409.75V409.76Z" fill="white"/>
<path d="M448.43 443.489L449.88 445.229L443.76 452.929L475.01 490.349L484.71 487.599L485.35 488.359L475.52 504.879L475.19 505.149L463.16 491.189L462.83 491.459L463.74 494.759C465.36 501.409 465.91 506.309 465.39 509.449C464.87 512.589 463.6 515.009 461.57 516.699C460.26 517.789 458.83 518.31 457.25 518.27C455.68 518.229 454.35 517.559 453.26 516.249C452.35 515.159 451.81 514.039 451.65 512.889C451.49 511.729 451.46 510.489 451.58 509.159L460.47 505.429C461.2 503.219 461.46 500.389 461.23 496.949C461 493.509 460.26 490.159 459.01 486.889L436.03 459.369L426.6 464.659L425.15 462.919L448.43 443.479V443.489Z" fill="white"/>
<path d="M387.67 549.95L398.2 548.14L399.02 549.95L378.36 559.3L377.48 557.36L383.53 551.82L376.35 463.76C376.12 460.96 376.33 458.38 376.97 456.01C377.61 453.65 379.22 451.88 381.8 450.71C383.7 449.85 385.51 449.73 387.24 450.35C388.97 450.97 390.23 452.14 391.01 453.86C391.79 455.58 391.87 457.26 391.26 458.88C390.65 460.51 389.48 461.71 387.76 462.49C386.38 463.11 385.04 463.23 383.72 462.84C382.4 462.45 381.17 461.79 380.02 460.86L379.76 460.98L381.33 484.38L428.07 531.99L436.04 531.03L436.86 532.84L411.3 544.41L410.48 542.6L417.56 536.6L382.95 499.99L382.56 500.16L387.67 549.96V549.95Z" fill="white"/>
<path d="M1019.42 199.55L878.09 330.18L1019.42 458.59H902.82L823.12 381.1L795.45 406.56V458.59H709.47V199.55H795.45V302.13L902.83 199.55H1019.43H1019.42Z" fill="white"/>
<path d="M1327.17 286.63C1332.58 300.16 1336.08 318.24 1337.69 340.87C1339.29 363.51 1340.09 397.08 1340.09 441.61V458.58H1254.11V374.26C1254.11 371.68 1253.98 367.93 1253.74 363.01C1253.49 358.09 1253.06 354.22 1252.45 351.39C1251.83 348.56 1250.91 345 1249.68 340.69C1248.45 336.39 1246.97 332.94 1245.25 330.36C1243.53 327.78 1241.31 324.95 1238.61 321.87C1235.9 318.8 1232.83 316.46 1229.39 314.86C1225.94 313.26 1221.83 311.91 1217.03 310.8C1212.23 309.69 1207 309.14 1201.35 309.14C1166.42 309.14 1140.83 316.77 1124.6 332.02V458.59H1038.62V200.29H1124.6V275.2C1152.15 254.05 1185.48 243.47 1224.6 243.47C1233.7 243.47 1241.63 243.65 1248.4 244.02C1255.16 244.39 1262.98 245.44 1271.83 247.16C1280.69 248.88 1288.37 251.22 1294.89 254.17C1301.41 257.12 1307.62 261.37 1313.52 266.9C1319.42 272.43 1323.97 279.02 1327.17 286.64V286.63Z" fill="white"/>
<path d="M1663.32 458.96H1578.45C1578.45 452.81 1578.32 446.29 1578.08 439.4C1552 454.9 1521.87 462.65 1487.67 462.65C1477.58 462.65 1469.04 462.52 1462.02 462.28C1455.01 462.03 1446.34 461.42 1436.01 460.44C1425.68 459.45 1416.94 458.1 1409.81 456.38C1402.67 454.66 1395.17 452.08 1387.3 448.63C1379.42 445.19 1373.03 441.07 1368.11 436.27C1363.19 431.47 1359.13 425.33 1355.93 417.82C1352.73 410.32 1351.13 402.02 1351.13 392.91C1351.13 381.35 1354.88 371.32 1362.38 362.84C1369.88 354.35 1380.15 347.65 1393.19 342.73C1406.23 337.81 1420.5 334.19 1435.99 331.84C1451.49 329.51 1468.21 328.33 1486.17 328.33C1516.67 328.33 1544.22 332.88 1568.83 341.98C1563.91 327.22 1555.6 317.57 1543.92 313.01C1532.23 308.46 1513.72 306.18 1488.39 306.18C1467.73 306.18 1447.86 307.6 1428.8 310.42C1409.73 313.25 1397.56 315.46 1392.27 317.06C1386.98 318.66 1382.49 320.08 1378.8 321.3L1359.61 263C1401.43 247.5 1446.08 239.75 1493.56 239.75C1503.89 239.75 1513.98 240.06 1523.82 240.67C1533.66 241.29 1545.34 242.76 1558.87 245.1C1572.4 247.44 1584.52 250.58 1595.22 254.51C1605.92 258.45 1616.07 264.17 1625.66 271.67C1635.25 279.18 1642.27 287.85 1646.69 297.68C1653.82 313.92 1658.37 334.4 1660.34 359.12C1662.31 383.84 1663.29 417.12 1663.29 458.93L1663.32 458.96ZM1497.27 408.4C1515.22 408.4 1531.71 406.5 1546.72 402.68C1561.72 398.87 1570.34 395.36 1572.55 392.16V388.1C1565.66 381.71 1542.04 378.51 1501.7 378.51C1481.28 378.51 1466.64 379.68 1457.79 382.02C1448.93 384.36 1444.51 387.99 1444.51 392.91C1444.51 403.24 1462.09 408.41 1497.28 408.41L1497.27 408.4Z" fill="white"/>
<path d="M1682.51 244.569H1961.1V312.839H1958.52L1814.24 389.959H1961.1V458.589H1682.51V389.959H1685.83L1838.6 312.839H1682.51V244.569Z" fill="white"/>
<path d="M2261.1 288.48C2267 301.76 2270.63 318.8 2271.98 339.59C2273.33 360.38 2274.01 394.39 2274.01 441.62V458.59H2188.03V373.9C2188.03 371.32 2187.85 367.57 2187.48 362.65C2187.11 357.73 2186.62 353.86 2186 351.03C2185.38 348.2 2184.4 344.64 2183.05 340.33C2181.7 336.03 2180.1 332.58 2178.25 330C2176.4 327.42 2174.06 324.65 2171.24 321.7C2168.41 318.75 2165.15 316.41 2161.46 314.69C2157.77 312.97 2153.34 311.55 2148.18 310.45C2143.01 309.34 2137.35 308.79 2131.21 308.79C2115.46 308.79 2102.85 311.07 2093.39 315.62C2083.92 320.17 2075.12 326.63 2067.01 334.99V458.61H1980.3V244.96H2067.01V274.48C2074.88 268.82 2080.97 264.7 2085.28 262.12C2089.58 259.54 2095.61 256.46 2103.36 252.9C2111.11 249.34 2119.53 246.81 2128.64 245.34C2137.74 243.86 2148.2 243.13 2160.01 243.13C2171.82 243.13 2181.78 243.63 2190.64 244.61C2199.5 245.6 2208.78 247.56 2218.5 250.51C2228.21 253.46 2236.7 258.14 2243.96 264.53C2251.21 270.93 2256.93 278.92 2261.12 288.51L2261.1 288.48Z" fill="white"/>
<path d="M2596.89 458.96H2512.02C2512.02 452.81 2511.89 446.29 2511.65 439.4C2485.57 454.9 2455.44 462.65 2421.24 462.65C2411.15 462.65 2402.61 462.52 2395.59 462.28C2388.58 462.03 2379.91 461.42 2369.58 460.44C2359.25 459.45 2350.51 458.1 2343.38 456.38C2336.24 454.66 2328.74 452.08 2320.87 448.63C2312.99 445.19 2306.6 441.07 2301.68 436.27C2296.76 431.47 2292.7 425.33 2289.5 417.82C2286.3 410.32 2284.7 402.02 2284.7 392.91C2284.7 381.35 2288.45 371.32 2295.95 362.84C2303.45 354.35 2313.72 347.65 2326.76 342.73C2339.8 337.81 2354.07 334.19 2369.56 331.84C2385.06 329.51 2401.78 328.33 2419.74 328.33C2450.24 328.33 2477.79 332.88 2502.4 341.98C2497.48 327.22 2489.17 317.57 2477.49 313.01C2465.8 308.46 2447.29 306.18 2421.96 306.18C2401.3 306.18 2381.43 307.6 2362.37 310.42C2343.3 313.25 2331.13 315.46 2325.84 317.06C2320.55 318.66 2316.06 320.08 2312.37 321.3L2293.18 263C2335 247.5 2379.65 239.75 2427.13 239.75C2437.46 239.75 2447.55 240.06 2457.39 240.67C2467.23 241.29 2478.91 242.76 2492.44 245.1C2505.97 247.44 2518.09 250.58 2528.79 254.51C2539.49 258.45 2549.64 264.17 2559.23 271.67C2568.82 279.18 2575.84 287.85 2580.26 297.68C2587.39 313.92 2591.94 334.4 2593.91 359.12C2595.88 383.84 2596.86 417.12 2596.86 458.93L2596.89 458.96ZM2430.84 408.4C2448.79 408.4 2465.28 406.5 2480.29 402.68C2495.29 398.87 2503.91 395.36 2506.12 392.16V388.1C2499.23 381.71 2475.61 378.51 2435.27 378.51C2414.85 378.51 2400.21 379.68 2391.36 382.02C2382.5 384.36 2378.08 387.99 2378.08 392.91C2378.08 403.24 2395.66 408.41 2430.85 408.41L2430.84 408.4Z" fill="white"/>
</g>
<defs>
<clipPath id="clip0_256_32">
<rect width="2596.89" height="559.29" fill="white"/>
</clipPath>
</defs>
</svg>
