<svg width="615" height="560" viewBox="0 0 615 560" fill="none" xmlns="http://www.w3.org/2000/svg">
<path d="M106.85 450.64C108.85 423.79 110.84 396.93 112.84 370.08C149.87 379.01 177.92 376.7 196.93 372.79C219.21 368.21 254.74 356.17 283.73 352.15C296.51 350.38 309.75 349.26 309.75 349.26C317.78 348.62 325.81 348.14 333.84 347.81V345.88C325.81 344.28 318.1 342.43 310.71 340.34C303.32 338.25 295.45 335.61 287.1 332.39C270.39 325.97 257.78 321.63 249.27 319.38C240.76 317.14 232.81 316.01 225.42 316.01C207.43 316.01 197.31 326.13 195.06 346.37H180.6C178.99 338.98 177.87 332.08 177.23 325.65C176.58 319.23 176.27 313.29 176.27 307.82C176.27 283.09 181.33 263.81 191.45 250C201.57 236.19 216.1 229.28 235.06 229.28C241.16 229.28 247.18 229.85 253.13 230.97C259.07 232.1 266.46 234.1 275.3 236.99C284.13 239.88 295.61 244.06 309.75 249.52C322.92 254.66 334.97 258.84 345.89 262.05C356.81 265.27 367.89 267.76 379.14 269.52C390.38 271.29 402.75 272.58 416.24 273.38C429.73 274.18 445.31 274.58 462.98 274.58H473.1L451.42 361.31H434.56C419.14 361.31 404.28 362.84 389.99 365.89C375.69 368.95 360.27 374.32 343.73 382.03C327.18 389.74 307.67 400.66 285.18 414.8C268.15 425.4 252.42 433.83 237.96 440.1C231.25 443.01 214.83 449.62 195.08 453.59C178.05 457.01 146.9 460.72 106.87 450.65L106.85 450.64ZM259.15 158.45L302.52 115.08L345.89 158.45L302.52 201.82L259.15 158.45Z" fill="white"/>
<path d="M77.91 208.15L75.71 206.86L80.01 195.59L9.80994 154.49L1.95996 163.69L0 162.55L17.97 131.85L19.9299 133L15.6799 144.47L85.88 185.57L93.6799 176.18L95.88 177.47L77.91 208.17V208.15ZM109.99 153.36L50.3 162.75L49.9299 162.53L36.15 110.61L27.53 120.01L25.5699 118.86L39.96 94.2803L41.92 95.4203L39.13 104.95L51.17 151.41L111.59 141.62L118.39 133.94L120.59 135.23L109.99 153.33V153.36Z" fill="white"/>
<path d="M126.6 131.59L125.2 129.8L130.45 123.17L77.5201 55.5402L67.9801 57.6102L67.3701 56.8302L78.4601 40.4102L108.77 79.1402C108.87 78.3402 109.08 76.9802 109.42 75.0302C109.76 73.0902 110.3 70.8602 111.04 68.3602C111.78 65.8602 112.87 63.3902 114.32 60.9402C115.76 58.4902 117.6 56.3902 119.83 54.6502C124.29 51.1602 128.69 49.7602 133.01 50.4502C137.33 51.1502 142.06 54.7702 147.18 61.3102L170.85 91.5502L178.77 87.8702L180.17 89.6602L158.97 106.25L157.57 104.46L162.93 97.7402L139.26 67.5002C136.62 64.2902 133.57 62.1502 130.1 61.0802C126.63 60.0202 123.26 60.7702 119.98 63.3302C116.86 65.7802 114.64 68.7702 113.33 72.3102C112.02 75.8502 111.05 78.8302 110.42 81.2402L138.37 116.95L146.74 112.92L148.14 114.71L126.6 131.57V131.59Z" fill="white"/>
<path d="M206.66 81.62C204.52 82.38 202.16 82.71 199.58 82.63C196.99 82.55 194.53 81.74 192.18 80.22C189.84 78.7 188.01 76.11 186.72 72.46C184.95 67.47 185.39 63.06 188.03 59.21C190.67 55.36 194.86 51.47 200.58 47.54L212.74 39.01L210.61 33C208.59 27.3 205.86 23.43 202.43 21.39C199 19.35 195.46 18.98 191.81 20.27C189.85 20.97 188.24 21.86 186.98 22.96C185.72 24.06 184.8 25.21 184.22 26.42L187.82 38.68C186.82 39.84 185.44 40.73 183.66 41.36C181.97 41.96 180.44 41.98 179.09 41.4C177.73 40.83 176.79 39.79 176.25 38.27C175.56 36.31 175.87 33.8 177.18 30.72C178.5 27.65 180.67 24.65 183.69 21.72C186.71 18.79 190.45 16.54 194.9 14.96C201.4 12.65 206.53 12.56 210.29 14.69C214.05 16.81 216.93 20.68 218.92 26.29L231.67 62.22C232.11 63.47 232.7 64.36 233.45 64.9C234.19 65.44 235.41 65.41 237.1 64.81L243.51 62.54L244.13 64.28C242.05 66.32 240.22 67.95 238.64 69.16C237.06 70.37 235.43 71.28 233.74 71.88C230.71 72.95 228.25 72.93 226.34 71.8C224.44 70.67 222.9 68.31 221.72 64.72L221.45 64.81C219.62 68.97 217.63 72.48 215.49 75.35C213.35 78.21 210.41 80.31 206.67 81.64L206.66 81.62ZM195.74 66.09C196.66 68.67 198.34 70.81 200.79 72.49C203.24 74.18 206.38 74.34 210.21 72.98C212.88 72.03 215.05 70.31 216.72 67.81C218.39 65.31 219.59 62.83 220.32 60.37L213.64 41.54L200.88 51.78C197.76 54.29 195.92 56.73 195.35 59.08C194.78 61.44 194.91 63.77 195.73 66.09H195.74Z" fill="white"/>
<path d="M294.91 63.29L254.56 65.07L254.47 62.95L288.9 4.12L263.13 5.26L256.92 22.13L254.94 22.22L254.02 1.41L263.96 1.68L302.04 0L302.07 0.57L266.71 60.86L294.18 59.65L302.43 40.85L304.55 40.76L302.73 63.82L294.91 63.31V63.29Z" fill="white"/>
<path d="M317.52 62.76L318.14 60.58L327.95 61.29L341.2 14.37L333.45 7.91L333.72 6.96L352.91 5.75L353.32 5.87L350.42 17.71L350.69 17.79C351.3 17.37 352.49 16.73 354.26 15.85C356.03 14.98 358.16 14.11 360.67 13.24C363.17 12.38 365.84 11.78 368.68 11.45C371.52 11.12 374.31 11.35 377.03 12.12C382.39 13.63 386.09 16.37 388.11 20.33C390.13 24.29 390.01 30.27 387.76 38.27L377.32 75.23L384.96 79.45L384.34 81.63L358.43 74.31L359.05 72.13L367.5 72.46L377.94 35.5C379.07 31.5 379.04 27.79 377.85 24.36C376.66 20.93 374.02 18.64 369.93 17.48C367.48 16.79 364.98 16.57 362.45 16.84C359.92 17.11 357.6 17.6 355.48 18.33C353.36 19.06 351.52 19.74 349.97 20.38L337.64 64.02L345.83 68.39L345.21 70.57L317.52 62.75V62.76Z" fill="white"/>
<path d="M406.31 98.3905C404.44 97.1105 402.78 95.3905 401.33 93.2505C399.88 91.1105 399.08 88.6405 398.93 85.8505C398.78 83.0605 399.81 80.0605 402 76.8705C404.99 72.5105 408.82 70.2705 413.49 70.1405C418.15 70.0205 423.76 71.1105 430.31 73.4305L444.36 78.2605L447.97 73.0005C451.39 68.0105 452.92 63.5305 452.55 59.5605C452.18 55.5905 450.4 52.5005 447.21 50.3105C445.5 49.1305 443.82 48.3605 442.19 47.9805C440.56 47.6105 439.08 47.5405 437.77 47.7805L429.97 57.9005C428.45 57.7805 426.91 57.1805 425.36 56.1105C423.88 55.0905 422.97 53.8705 422.64 52.4405C422.3 51.0105 422.59 49.6305 423.5 48.3005C424.67 46.5905 426.89 45.3605 430.15 44.6105C433.41 43.8705 437.11 43.8605 441.25 44.5805C445.39 45.3005 449.41 47.0005 453.31 49.6705C459 53.5705 462.09 57.6705 462.58 61.9605C463.07 66.2505 461.64 70.8505 458.27 75.7605L436.7 107.2C435.95 108.29 435.58 109.29 435.58 110.21C435.58 111.13 436.32 112.09 437.8 113.11L443.41 116.96L442.37 118.48C439.49 118 437.1 117.47 435.2 116.91C433.29 116.35 431.6 115.56 430.12 114.54C427.47 112.72 426.04 110.71 425.84 108.51C425.63 106.31 426.64 103.67 428.85 100.61L428.62 100.45C424.18 101.41 420.17 101.87 416.59 101.82C413.01 101.77 409.59 100.63 406.32 98.3805L406.31 98.3905ZM412.44 80.4305C410.89 82.6905 410.15 85.3105 410.23 88.2805C410.31 91.2505 412.02 93.8905 415.37 96.1905C417.71 97.7905 420.38 98.5405 423.38 98.4205C426.38 98.3005 429.09 97.8205 431.52 96.9605L442.82 80.4805L427.04 76.1805C423.17 75.1305 420.12 75.0705 417.88 76.0005C415.64 76.9305 413.82 78.4005 412.44 80.4305Z" fill="white"/>
<path d="M487.28 168.77C486.88 169.83 486.68 170.87 486.68 171.89C486.68 172.9 486.95 174.12 487.49 175.55L500.71 200.62L529.16 199.88L530.28 202.01L501.42 210.17L470.29 151.12L472.55 149.93L479.86 159.54L551.82 121.61L548.02 110.15L550.15 109.03L567.73 142.38L565.6 143.5L557.49 131.76L487.29 168.77H487.28Z" fill="white"/>
<path d="M504.61 225.98L506.83 225.51L510.76 234.53L558.46 224.45L560.58 214.59L561.55 214.38L572.19 231.83L512.84 244.37L512.86 254.07L510.64 254.54L504.61 225.98ZM586.26 223.07C585.85 221.13 586.19 219.32 587.29 217.64C588.38 215.96 589.9 214.92 591.84 214.51C593.78 214.1 595.59 214.44 597.27 215.54C598.95 216.63 599.99 218.15 600.4 220.09C600.81 222.03 600.47 223.84 599.37 225.52C598.28 227.2 596.76 228.24 594.82 228.65C592.88 229.06 591.07 228.72 589.39 227.62C587.71 226.53 586.67 225.01 586.26 223.07Z" fill="white"/>
<path d="M510.58 290.9C510.89 285.14 512.49 279.88 515.39 275.12L517.1 272.23L603.28 276.82L607.99 268.27L608.98 268.32L614.2 287.47L566.93 284.95C568.27 286.35 569.72 288.1 571.26 290.22C572.8 292.34 574.11 294.77 575.2 297.53C576.28 300.28 576.74 303.27 576.57 306.47C576.35 310.62 575.12 314.5 572.9 318.12C570.67 321.74 567.28 324.63 562.72 326.8C558.16 328.97 552.24 329.86 544.98 329.47C540.17 329.21 535.62 327.95 531.34 325.69C527.06 323.43 523.31 320.48 520.1 316.86C516.89 313.24 514.43 309.18 512.73 304.69C511.03 300.2 510.3 295.6 510.56 290.88L510.58 290.9ZM520.81 282.51C519.31 284.04 518.02 285.93 516.96 288.19C515.89 290.45 515.28 293.09 515.12 296.11C514.92 299.88 515.77 303.45 517.67 306.82C519.57 310.19 522.66 313 526.94 315.26C531.22 317.52 536.85 318.84 543.83 319.21C548.64 319.47 553.01 318.78 556.93 317.14C560.85 315.5 564 313.26 566.37 310.4C568.74 307.55 570.03 304.37 570.21 300.88C570.34 298.42 569.97 296.14 569.09 294.01C568.21 291.88 567.17 290.03 565.98 288.45C564.79 286.87 563.79 285.64 562.98 284.74L520.81 282.49V282.51Z" fill="white"/>
<path d="M506.62 340.56L508.76 341.31L507.42 351.06L553.39 367.29L560.33 359.97L561.27 360.3L561.25 379.53L561.11 379.93L543.64 374.07L543.5 374.47L545.97 376.84C550.75 381.73 553.72 385.66 554.88 388.63C556.04 391.59 556.18 394.32 555.3 396.82C554.73 398.42 553.76 399.61 552.39 400.38C551.02 401.15 549.53 401.25 547.92 400.68C546.58 400.21 545.55 399.52 544.82 398.61C544.09 397.7 543.43 396.64 542.86 395.44L548.6 387.7C548.1 385.42 546.88 382.86 544.93 380.02C542.98 377.18 540.63 374.67 537.89 372.5L504.08 360.57L498.67 369.93L496.53 369.18L506.62 340.58V340.56Z" fill="white"/>
<path d="M476.99 403.51C478.28 401.65 480.01 400 482.16 398.56C484.31 397.12 486.78 396.34 489.58 396.21C492.37 396.08 495.36 397.12 498.54 399.33C502.88 402.35 505.1 406.19 505.2 410.86C505.29 415.53 504.16 421.13 501.81 427.66L496.9 441.68L502.14 445.32C507.1 448.77 511.58 450.32 515.55 449.98C519.53 449.64 522.62 447.88 524.83 444.7C526.02 442.99 526.8 441.32 527.19 439.69C527.57 438.06 527.65 436.59 527.41 435.27L517.34 427.41C517.48 425.89 518.08 424.36 519.16 422.81C520.18 421.34 521.41 420.44 522.85 420.11C524.29 419.78 525.66 420.08 526.98 420.99C528.69 422.18 529.9 424.4 530.63 427.67C531.35 430.93 531.34 434.63 530.59 438.77C529.84 442.91 528.12 446.92 525.42 450.8C521.48 456.46 517.37 459.53 513.07 460C508.78 460.47 504.18 459 499.3 455.61L468 433.85C466.91 433.09 465.91 432.71 465 432.71C464.08 432.71 463.11 433.44 462.09 434.92L458.21 440.51L456.7 439.46C457.2 436.59 457.74 434.2 458.31 432.3C458.89 430.4 459.68 428.71 460.71 427.24C462.54 424.6 464.56 423.19 466.77 422.99C468.98 422.8 471.6 423.82 474.65 426.05L474.81 425.82C473.87 421.37 473.44 417.36 473.51 413.78C473.58 410.2 474.75 406.79 477.01 403.53L476.99 403.51ZM494.91 409.75C492.66 408.19 490.05 407.43 487.07 407.49C484.09 407.55 481.45 409.25 479.13 412.58C477.51 414.91 476.75 417.57 476.85 420.58C476.95 423.58 477.42 426.3 478.27 428.73L494.68 440.13L499.07 424.37C500.14 420.51 500.22 417.46 499.31 415.21C498.4 412.96 496.93 411.14 494.91 409.74V409.75Z" fill="white"/>
<path d="M448.43 443.48L449.88 445.22L443.76 452.92L475.01 490.34L484.71 487.59L485.35 488.35L475.52 504.87L475.19 505.14L463.16 491.18L462.83 491.45L463.74 494.75C465.36 501.4 465.91 506.3 465.39 509.44C464.87 512.58 463.6 515 461.57 516.69C460.26 517.78 458.83 518.3 457.25 518.26C455.68 518.22 454.35 517.55 453.26 516.24C452.35 515.15 451.81 514.03 451.65 512.88C451.49 511.72 451.46 510.48 451.58 509.15L460.47 505.42C461.2 503.21 461.46 500.38 461.23 496.94C461 493.5 460.26 490.15 459.01 486.88L436.03 459.36L426.6 464.65L425.15 462.91L448.43 443.47V443.48Z" fill="white"/>
<path d="M387.68 549.94L398.21 548.13L399.03 549.94L378.37 559.29L377.49 557.35L383.54 551.81L376.36 463.75C376.13 460.95 376.34 458.37 376.98 456C377.62 453.64 379.23 451.87 381.81 450.7C383.71 449.84 385.52 449.72 387.25 450.34C388.98 450.96 390.24 452.13 391.02 453.85C391.8 455.57 391.88 457.25 391.27 458.87C390.66 460.5 389.49 461.7 387.77 462.48C386.39 463.1 385.05 463.22 383.73 462.83C382.41 462.44 381.18 461.78 380.03 460.85L379.77 460.97L381.34 484.37L428.08 531.98L436.05 531.02L436.87 532.83L411.31 544.4L410.49 542.59L417.57 536.59L382.96 499.98L382.57 500.15L387.68 549.95V549.94Z" fill="white"/>
</svg>
