<svg width="50" height="50" viewBox="0 0 50 50" fill="none" xmlns="http://www.w3.org/2000/svg">
<mask id="mask0_462_1168" style="mask-type:luminance" maskUnits="userSpaceOnUse" x="10" y="9" width="30" height="34">
<path d="M32.7311 19.3984V9.73502L35.1054 12.0996V21.763L32.7311 19.3984ZM10.5088 31.7969V16.1002L12.8237 13.8791V30.5226L21.656 39.3182L23.4059 37.584L12.8367 27.0589L14.8952 25.0069V12.0994L17.2697 9.73486V23.2576H20.0078L16.1923 27.0574L24.9951 35.8242L33.793 27.0645L30.0153 23.3026L31.6948 21.6299L37.1496 27.063L26.5482 37.6205L28.3268 39.3143L37.176 30.5047V13.8791L39.4912 16.0955L39.4908 31.7754L28.4446 42.5001L24.996 39.1689L21.6238 42.5001L10.5088 31.7969Z" fill="white"/>
</mask>
<g mask="url(#mask0_462_1168)">
<path d="M39.4914 9.73486H10.5088V42.5001H39.4914V9.73486Z" fill="url(#paint0_linear_462_1168)"/>
</g>
<path d="M22.8263 16.9193L25.0029 19.093L27.1736 16.9236L25.0009 14.7456L22.8263 16.9193Z" fill="white"/>
<path d="M22.6661 27.2593L24.9955 29.5044L27.3185 27.2638L24.9932 25.0142L22.6661 27.2593ZM19.2036 19.4571V9.67383L21.522 12.0531V18.3374L25 21.6895L28.4783 18.3359V12.0531L30.7966 9.67383V19.4328L26.7278 23.3529L30.7966 27.2739L25 32.8598L19.2051 27.2739L23.2607 23.3656L19.2036 19.4571Z" fill="white"/>
<path d="M22.5848 12.9345L23.7932 14.0211L25.0005 12.9345L26.208 14.0211L27.402 12.9442L26.208 11.8475L28.6229 9.67374L26.208 7.5L25.0005 8.58656L26.208 9.67374L25.0005 10.7603L23.7932 9.67374L25.0005 8.58656L23.7932 7.5L21.3773 9.67374L23.7932 11.8475L22.5848 12.9345Z" fill="white"/>
<defs>
<linearGradient id="paint0_linear_462_1168" x1="25" y1="42.4173" x2="25" y2="15.502" gradientUnits="userSpaceOnUse">
<stop stop-color="#8C7032"/>
<stop offset="0.1575" stop-color="#917536"/>
<stop offset="0.389" stop-color="#A18544"/>
<stop offset="0.666" stop-color="#BEA460"/>
<stop offset="0.9761" stop-color="#EED78C"/>
<stop offset="1" stop-color="#F4DD91"/>
</linearGradient>
</defs>
</svg>
