<svg width="51" height="50" viewBox="0 0 51 50" fill="none" xmlns="http://www.w3.org/2000/svg">
<path d="M8.87386 0.0500026L40.3773 0C44.9584 0.637519 48.5305 3.95012 49.5645 8.45025C49.4831 18.3818 50.561 29.4321 49.834 39.3012C49.4078 45.0513 45.4911 49.1452 39.7506 49.7577C30.106 49.1952 19.5964 50.514 10.0583 49.7702C4.85054 49.364 0.827224 45.6701 0 40.5324L0.025068 9.04402C0.701888 4.42513 4.30533 0.887524 8.88013 0.0562494L8.87386 0.0500026ZM34.2546 25.2945C33.9475 17.3005 31.5661 8.06274 24.8355 3.12509L17.0208 10.9878C23.2061 11.3628 28.1194 15.8692 31.516 20.6694L34.2546 25.2945ZM25.3243 15.3442C18.2365 15.763 9.69482 17.6755 4.56227 22.9132C4.24266 23.2382 3.04569 24.6195 3.12716 24.9445L10.9921 32.551C11.3555 26.932 15.2096 22.2569 19.5212 18.9881L25.3181 15.3442H25.3243ZM24.4971 34.2073C30.2689 34.001 36.5859 32.6697 41.5054 29.5259C42.3702 28.9759 46.6504 25.7008 46.475 24.807C46.3434 24.1257 39.7506 18.3818 38.9297 17.213C38.6351 17.213 38.397 19.3881 38.2591 19.8568C36.9744 24.282 33.7909 27.7196 30.294 30.5634L24.4971 34.2073ZM32.5939 38.7699C27.0665 38.2511 22.5481 34.6635 19.2267 30.4509L15.3663 24.457C15.7298 30.7759 17.19 37.6011 21.0065 42.77C21.5454 43.495 23.9206 46.3014 24.6538 46.4076C24.8919 46.4451 25.0611 46.4201 25.2366 46.2389L32.6002 38.7636L32.5939 38.7699Z" fill="#E30E2D"/>
</svg>
