<svg width="50" height="50" viewBox="0 0 50 50" fill="none" xmlns="http://www.w3.org/2000/svg">
<path d="M44.4695 16.9128C44.3712 16.8125 44.273 16.706 44.1747 16.5932C43.5423 15.6784 42.8975 14.7574 42.2589 13.8426C42.0931 13.5543 41.9273 13.2849 41.7738 12.9967C41.6449 12.7398 41.4545 12.6709 41.1782 12.6709C40.0177 12.6897 38.8694 12.6834 37.7089 12.6834H37.1317C37.101 12.2949 37.0825 11.9503 37.0518 11.6119C37.0518 10.5468 37.0334 9.49413 37.0395 8.42895C37.0395 8.17832 36.8922 8.07807 36.7264 7.97155C35.6764 7.26352 34.6202 6.54923 33.5702 5.83493C33.4351 5.74721 33.3062 5.63443 33.1833 5.53418C33.8465 5.6407 34.4974 5.74095 35.1483 5.85373C36.1799 6.03544 37.2238 6.22967 38.2554 6.41138C39.2808 6.59935 40.3001 6.78106 41.3256 6.9565C41.6265 7.00663 41.9273 7.06302 42.2282 7.11314C42.6458 7.1758 42.7133 7.23219 42.7931 7.652C42.9712 8.5668 43.1247 9.4816 43.2967 10.3839C43.6098 12.0443 43.9291 13.6922 44.23 15.3526C44.3283 15.8664 44.3835 16.399 44.4511 16.9128H44.4695Z" fill="#E6DAC8"/>
<path d="M16.7821 5.50586C16.6838 5.59358 16.5795 5.69383 16.4812 5.78155C15.7996 6.25148 15.1058 6.71515 14.4242 7.17254C14.025 7.42944 13.6443 7.69887 13.2391 7.9307C12.9934 8.06855 12.8952 8.25025 12.8952 8.51968V10.1989C12.8768 10.8255 12.8645 11.4583 12.8583 12.0849C12.8522 12.4796 12.6619 12.6739 12.2934 12.6739C11.1267 12.6739 9.95391 12.6864 8.78723 12.6613C8.46793 12.6613 8.25301 12.7428 8.15476 13.0686C7.44247 14.1025 6.74246 15.1238 6.03017 16.1576C5.83367 16.4333 5.63104 16.7153 5.42841 16.991C5.53279 16.3519 5.62491 15.719 5.74157 15.0862C6.02403 13.5636 6.32491 12.0348 6.60737 10.5122C6.78544 9.56606 6.93896 8.6262 7.12317 7.68007C7.20914 7.17255 7.22756 7.18508 7.73722 7.09109C8.75039 6.93445 9.75128 6.74021 10.7583 6.56477C12.0232 6.34547 13.282 6.12617 14.5347 5.9006C15.1856 5.78155 15.8426 5.6437 16.4935 5.52466C16.5917 5.50586 16.69 5.51213 16.7882 5.50586H16.7821Z" fill="#E6DAC8"/>
<path d="M44.4878 33.1621C44.408 33.6696 44.3527 34.1834 44.2668 34.6847C43.9167 36.5519 43.5667 38.4191 43.2167 40.2863C43.0694 41.0319 42.9466 41.7775 42.8053 42.5231C42.7746 42.6547 42.7194 42.7738 42.6702 42.9179C41.4913 43.1246 40.3062 43.3377 39.1272 43.5444C37.5184 43.8327 35.9158 44.1334 34.307 44.4279C34.092 44.4592 33.8894 44.5094 33.6868 44.5282C33.6008 44.5282 33.5087 44.4655 33.4227 44.4404C33.5517 44.3402 33.6684 44.2212 33.8034 44.1334C34.3991 43.7136 35.0008 43.3001 35.6026 42.8803C35.9526 42.6547 36.3026 42.4041 36.6649 42.1973C36.9596 42.0281 37.064 41.8214 37.0517 41.483C37.0395 40.6559 37.064 39.8226 37.0824 39.0018C37.0947 38.4943 37.1316 37.9867 37.15 37.4792C37.3035 37.4604 37.4202 37.4479 37.5368 37.4416C38.7833 37.4416 40.0421 37.4541 41.2886 37.4604C41.5343 37.4604 41.6386 37.3288 41.7492 37.1597C42.4308 36.1446 43.1124 35.1296 43.8062 34.127C44.0273 33.8012 44.2668 33.4817 44.5001 33.1621H44.4878Z" fill="#E6DAC8"/>
<path d="M16.6959 44.5419C16.1494 44.4605 15.6029 44.4041 15.0625 44.3164C13.9818 44.1284 12.8888 43.9404 11.8081 43.7399C10.8133 43.5707 9.83087 43.3828 8.8484 43.1948C8.41243 43.1133 7.98259 43.0256 7.55276 42.9692C7.31943 42.9379 7.22118 42.8376 7.18433 42.5995C7.03696 41.7662 6.86503 40.9391 6.70538 40.1183C6.45362 38.7837 6.208 37.4554 5.95625 36.1208C5.77817 35.2185 5.60624 34.3037 5.44045 33.3952C5.42817 33.3137 5.44045 33.226 5.45273 33.1445C5.51414 33.2135 5.58168 33.2824 5.63694 33.3638C5.95624 33.8338 6.28783 34.2974 6.61328 34.7674C7.16592 35.5944 7.7247 36.4278 8.27119 37.2611C8.37558 37.4178 8.50453 37.4616 8.6826 37.4616C9.13086 37.4491 9.58525 37.4428 10.0335 37.4428C10.9607 37.4554 11.8818 37.4616 12.8397 37.4742C12.852 37.6809 12.8581 37.8438 12.8704 38.0005C12.8827 39.0343 12.8888 40.0682 12.9011 41.102C12.9072 41.7223 13.1958 42.1797 13.7608 42.4742C14.5897 43.0381 15.4248 43.6146 16.2538 44.191C16.4073 44.2976 16.5547 44.4291 16.7143 44.5482H16.6959V44.5419Z" fill="#E6DAC8"/>
<path d="M20.4171 37.161C20.3373 37.1108 20.2698 37.0294 20.2022 36.9605C20.3803 36.9793 20.5522 36.9918 20.7303 37.0231C21.7926 37.2299 22.8549 37.5181 23.9233 37.6309C24.9365 37.7374 25.9681 37.7312 26.969 37.5119C27.8839 37.3051 28.7988 37.0858 29.7138 36.8728C29.7752 36.8602 29.8427 36.8728 29.9103 36.8728C29.5418 37.1297 29.1673 37.4116 28.7988 37.6685C27.9637 38.2637 27.4541 39.2412 26.6067 39.8239C26.1891 40.0996 25.6304 40.5319 25.2005 40.8139C25.1023 40.7638 23.3891 40.0244 23.3031 39.968" fill="#E6DAC8"/>
<path d="M9.97845 25.1432C9.99688 25.0555 9.99688 24.9427 10.0583 24.8738C11.1267 23.2948 12.2013 21.7158 13.282 20.1369C13.3004 20.1055 13.3311 20.0993 13.3618 20.0742C13.3496 20.1557 13.3618 20.2434 13.3311 20.3248C12.9443 21.4965 12.7355 22.7184 12.6127 23.9527C12.5267 24.7485 12.5759 25.5755 12.6741 26.365C12.8092 27.4114 13.0548 28.439 13.2513 29.4728C13.282 29.6044 13.2636 29.7423 13.2697 29.8676C13.1531 29.7297 13.0364 29.5981 12.9381 29.4478" fill="#E6DAC8"/>
<path d="M39.9868 24.9736C39.9377 25.0926 39.9009 25.2242 39.8333 25.3307C38.8508 26.7718 37.8745 28.2004 36.892 29.6415C36.8306 29.7292 36.7447 29.8107 36.671 29.8984C36.7508 29.5287 36.8245 29.1528 36.892 28.7831C37.0456 27.8683 37.2052 26.9661 37.3403 26.0513C37.5859 24.3094 37.1622 22.6427 36.7938 20.9635L36.6464 20.1865C36.8122 20.4058 36.9964 20.6063 37.1499 20.8319C37.5982 21.4585 38.0342 22.0913 38.4763 22.7304C38.9798 23.476 39.4894 24.2217 39.9868 24.9673V24.9736Z" fill="#E6DAC8"/>
<path d="M29.7937 13.2008C29.542 13.1507 29.2902 13.1131 29.0323 13.0504C27.9823 12.781 26.92 12.593 25.8454 12.474C24.4638 12.3048 23.1375 12.5742 21.8112 12.8311C21.234 12.9376 20.669 13.0692 20.1041 13.2008C20.491 12.9 20.884 12.6056 21.2831 12.3048C21.934 11.8599 22.5971 11.4088 23.248 10.9639C23.8007 10.5943 24.3472 10.2183 24.8937 9.84863C25.0288 9.91129 25.1638 9.95515 25.2805 10.0366C26.6928 10.989 28.1051 11.9665 29.5174 12.9314C29.6157 13.0003 29.6955 13.1131 29.7815 13.2008H29.7937Z" fill="#E6DAC8"/>
<path d="M32.0595 45.2762C31.9612 45.3577 31.863 45.4454 31.7586 45.5143C29.6279 46.9554 27.491 48.3965 25.3725 49.8439C25.0594 50.0632 24.8567 50.0444 24.5559 49.8314C22.0997 48.1522 19.6312 46.4855 17.1566 44.8125C17.0092 44.7123 16.8557 44.6246 16.6961 44.5368C16.5426 44.4178 16.3952 44.2862 16.2355 44.1797C15.4066 43.6032 14.5715 43.0268 13.7425 42.4629C13.1776 42.1684 12.889 41.711 12.8829 41.0907C12.8706 40.0568 12.8644 39.023 12.8522 37.9891C12.8399 37.8325 12.8337 37.6696 12.8215 37.4628C11.8697 37.4503 10.9425 37.444 10.0153 37.4315C9.56702 37.4315 9.11263 37.444 8.66438 37.4503C8.48631 37.4503 8.3635 37.4127 8.25297 37.2498C7.70647 36.4164 7.15383 35.5831 6.59505 34.756C6.27575 34.2861 5.94416 33.8224 5.61872 33.3525C5.55731 33.271 5.48977 33.2021 5.43451 33.1332C5.28714 32.8826 5.13977 32.6445 4.99854 32.4001C5.31784 31.8863 5.631 31.3663 5.97486 30.8587C6.6933 29.7873 7.43629 28.7221 8.16701 27.6507C8.69508 26.8737 9.21702 26.103 9.75738 25.3323C9.8065 25.2509 9.90475 25.2008 9.9723 25.1318C10.353 25.6958 10.7337 26.2659 11.1144 26.8299C11.7162 27.7071 12.3241 28.578 12.9259 29.4427C13.0241 29.593 13.1408 29.7184 13.2574 29.8625C13.2759 29.9001 13.3066 29.9439 13.3373 29.994C13.4846 30.2447 13.632 30.489 13.7732 30.7522C14.2338 31.4101 14.7004 32.0618 15.1548 32.7322C15.2899 32.9327 15.4496 33.1269 15.5662 33.3462C16.0329 34.1984 16.7513 34.7873 17.5619 35.2635C17.7154 35.345 17.8812 35.4202 18.0286 35.5142C18.7101 35.9716 19.3917 36.429 20.0733 36.8738C20.1102 36.9052 20.1593 36.9365 20.2023 36.9553C20.2698 37.0242 20.3374 37.1057 20.4172 37.1558C21.8479 38.1395 23.2786 39.1232 24.7094 40.107C24.7953 40.1696 24.9059 40.2135 25.0041 40.2636C25.1085 40.3639 25.2067 40.4704 25.3234 40.5644C25.6734 40.815 26.0234 41.0406 26.3734 41.2912C27.6813 42.1872 28.9831 43.0769 30.2787 43.9855C30.8805 44.4053 31.4638 44.8501 32.0595 45.2762Z" fill="url(#paint0_linear_490_1426)"/>
<path d="M49.9221 25.0437C49.8239 25.2003 49.7256 25.3695 49.6212 25.5324C47.994 27.9384 46.3668 30.3445 44.7396 32.7442C44.6536 32.8821 44.5615 33.0199 44.4878 33.1641C44.2545 33.4836 44.0211 33.7969 43.7939 34.129C43.1001 35.1315 42.4185 36.1465 41.7369 37.1616C41.6325 37.3308 41.522 37.4624 41.2764 37.4624C40.0299 37.4498 38.7711 37.4436 37.5246 37.4436C37.4079 37.4561 37.2912 37.4624 37.1377 37.4811C37.1193 37.9887 37.0763 38.4962 37.0702 39.0037C37.0517 39.8308 37.0333 40.6641 37.0395 41.485C37.0517 41.8233 36.9412 42.0301 36.6526 42.1993C36.2903 42.406 35.9403 42.6567 35.5903 42.8822C34.9885 43.302 34.3806 43.7156 33.7912 44.1354C33.6561 44.2231 33.5394 44.3421 33.4105 44.4424C33.1157 44.6304 32.8148 44.8183 32.514 45.0063C32.3666 45.1066 32.2131 45.188 32.0534 45.2757C31.4578 44.8497 30.8745 44.3985 30.2727 43.985C28.9771 43.0827 27.6753 42.1867 26.3674 41.2907C26.0174 41.0401 25.6674 40.8145 25.3174 40.5639C25.2007 40.4762 25.1024 40.3634 24.998 40.2631C25.4279 39.9874 25.8454 39.7055 26.263 39.4298C27.1104 38.8408 27.9577 38.2581 28.7928 37.6629C29.1613 37.406 29.5358 37.124 29.9043 36.8671C30.5244 36.4473 31.1385 36.0338 31.7648 35.6265C31.9122 35.5262 32.0657 35.4385 32.2254 35.3508C32.5447 35.1127 32.8701 34.8621 33.2078 34.6428C33.5701 34.4047 33.8587 34.1165 34.1043 33.7468C34.7184 32.8132 35.3631 31.8984 35.9833 30.9773C36.2166 30.6264 36.4438 30.263 36.6649 29.9059C36.7447 29.8181 36.8307 29.7367 36.8859 29.649C37.8684 28.2079 38.8448 26.7793 39.8272 25.3381C39.8948 25.2316 39.9316 25.1 39.9807 24.981C40.0974 24.8745 40.2263 24.7805 40.3246 24.6552C40.5579 24.3294 40.7913 23.9785 41.0185 23.6401C42.3448 21.6852 43.6589 19.7366 44.9791 17.7754C45.4273 18.4208 45.8817 19.0661 46.3238 19.724C47.4352 21.3657 48.5467 23.001 49.6519 24.6426C49.7318 24.7617 49.8054 24.8933 49.916 25.0499L49.9221 25.0437Z" fill="url(#paint1_linear_490_1426)"/>
<path d="M44.9787 17.7759C43.6523 19.7308 42.3383 21.6795 41.0181 23.6406C40.797 23.979 40.5575 24.3236 40.3242 24.6557C40.226 24.7873 40.1032 24.875 39.9803 24.9815C39.483 24.2359 38.9794 23.4903 38.4698 22.7446C38.0338 22.1118 37.5917 21.4727 37.1435 20.8461C36.99 20.6206 36.7996 20.4201 36.6399 20.2008C36.6215 20.1882 36.6092 20.1694 36.6092 20.1506C36.1978 19.5241 35.7926 18.8912 35.3811 18.2521C34.8838 17.5065 34.3864 16.7609 33.889 16.009C33.7232 15.8774 33.5697 15.7333 33.4039 15.6142C32.5013 14.9877 31.6048 14.3736 30.696 13.7533C30.3951 13.5528 30.0819 13.3836 29.7811 13.2082C29.6951 13.1205 29.6153 13.0077 29.517 12.9388C28.1047 11.9738 26.6924 11.0026 25.2801 10.044C25.1634 9.96253 25.0284 9.9124 24.8933 9.85601C24.8134 9.77456 24.7459 9.6743 24.6599 9.61791C22.5108 8.1204 20.3432 6.60409 18.1818 5.10658C18.0467 5.01886 17.887 4.975 17.7458 4.90608C19.0721 4.00381 20.3923 3.09528 21.7187 2.19301C22.7871 1.46618 23.8617 0.739358 24.9608 0C25.1082 0.100252 25.2556 0.200501 25.3968 0.300753C27.853 1.96117 30.303 3.6216 32.7715 5.28202C32.9004 5.38227 33.0416 5.46373 33.1829 5.53891C33.3118 5.63917 33.4346 5.74569 33.5697 5.83967C34.6197 6.55397 35.6759 7.26826 36.7259 7.97629C36.8917 8.0828 37.0391 8.18306 37.0391 8.43369C37.0268 9.49887 37.0513 10.5515 37.0513 11.6167C37.0821 11.955 37.1005 12.2997 37.1312 12.6881H37.7084C38.8689 12.6881 40.0172 12.7007 41.1777 12.6756C41.4479 12.6756 41.6444 12.7445 41.7734 13.0014C41.9269 13.2896 42.0927 13.5591 42.2584 13.8473C42.9032 14.7621 43.5418 15.6832 44.1743 16.5979C44.2725 16.7045 44.3708 16.8173 44.469 16.9175C44.6471 17.2057 44.8129 17.494 44.9848 17.7822H44.9787V17.7759Z" fill="url(#paint2_linear_490_1426)"/>
<path d="M24.9057 9.85488C24.3592 10.2246 23.8127 10.6005 23.2601 10.9702C22.6092 11.4151 21.946 11.8662 21.2951 12.3111C20.896 12.6118 20.5091 12.9063 20.1161 13.2071C20.067 13.2259 20.0302 13.2572 19.9872 13.2885C19.5512 13.5642 19.103 13.8336 18.6609 14.1156C18.0775 14.5354 17.5126 14.9803 16.9108 15.3499C16.1985 15.776 15.7626 16.4339 15.3205 17.0918C15.1854 17.2986 15.038 17.4991 14.9029 17.7059C14.7985 17.8876 14.688 18.063 14.5713 18.2447C14.1599 18.8588 13.7547 19.4791 13.3555 20.0931C13.3248 20.1119 13.2941 20.1244 13.2757 20.1558C12.195 21.7347 11.1265 23.3137 10.052 24.8927C9.99056 24.9616 9.99057 25.0744 9.97214 25.1621C9.9046 25.231 9.80635 25.2811 9.75723 25.3626C9.22301 26.127 8.69493 26.904 8.16685 27.6809C7.43614 28.7524 6.69928 29.8175 5.97471 30.889C5.63085 31.3965 5.32382 31.9103 4.99838 32.4303C4.09574 31.1083 3.18695 29.7862 2.29044 28.4641C1.62728 27.4929 0.976393 26.5155 0.313225 25.5506C0.214978 25.3939 0.116729 25.2435 6.10352e-05 25.0618C0.12901 24.8801 0.245677 24.7047 0.362345 24.523C1.98956 22.1169 3.61678 19.7109 5.244 17.3111C5.31154 17.2109 5.36067 17.1106 5.42207 17.0104C5.62471 16.7347 5.83348 16.4527 6.02383 16.177C6.73613 15.1432 7.43614 14.1219 8.14843 13.088C8.24668 12.7622 8.46159 12.6807 8.7809 12.6807C9.94758 12.6995 11.1204 12.6933 12.2871 12.6933C12.6555 12.6933 12.8459 12.499 12.852 12.1043C12.8643 11.4777 12.8704 10.8449 12.8889 10.2183V8.53908C12.8889 8.26965 12.9871 8.09421 13.2327 7.9501C13.6441 7.72454 14.0187 7.4551 14.4178 7.19194C15.0994 6.73454 15.7933 6.27088 16.4749 5.80095C16.5731 5.71323 16.6775 5.61298 16.7757 5.52526C17.0951 5.32475 17.4266 5.11798 17.7521 4.91748C17.8995 4.9864 18.053 5.024 18.1881 5.11798C20.3495 6.6155 22.5109 8.1318 24.6662 9.62932C24.7522 9.69197 24.8197 9.78596 24.8996 9.86742V9.85488H24.9057Z" fill="url(#paint3_linear_490_1426)"/>
<path d="M31.2919 25.0427C30.7454 25.7319 30.1129 26.2332 29.5111 26.7783V29.4224C29.3085 29.4412 29.1734 29.46 29.0383 29.46C28.455 29.46 27.8716 29.46 27.2822 29.4726C27.1041 29.4726 26.9444 29.5352 26.7664 29.5603C26.2014 30.1054 25.6365 30.6443 25.09 31.1581C24.5619 30.6505 24.0032 30.1054 23.4382 29.5728C23.254 29.5352 23.0698 29.4726 22.8733 29.4726C22.1856 29.4538 21.4917 29.46 20.7487 29.46C20.6628 28.9964 20.7119 28.5578 20.6996 28.1192C20.6996 27.6743 20.6996 27.2232 20.6996 26.7783C20.6628 26.7783 20.6198 26.7783 20.6014 26.7595C20.0364 26.2081 19.4777 25.663 18.8698 25.0678C19.4777 24.4725 20.0364 23.9149 20.5891 23.3697C20.6321 23.1818 20.6873 22.9813 20.6996 22.7933C20.6996 22.1166 20.6996 21.4399 20.6996 20.6943C21.5961 20.6567 22.4619 20.6943 23.3277 20.6755C23.9356 20.099 24.5374 19.5226 25.176 18.896C25.7225 19.4599 26.2935 20.0677 26.8707 20.6755H29.462C29.4804 20.8509 29.4989 20.9825 29.4989 21.1078C29.505 21.6843 29.4989 22.2607 29.505 22.8371C29.505 23.0189 29.5664 23.2006 29.6032 23.3635C30.1559 23.9086 30.7147 24.4662 31.2857 25.0302V25.0427H31.2919Z" fill="#E6DAC8"/>
<defs>
<linearGradient id="paint0_linear_490_1426" x1="8.25297" y1="29.8061" x2="25.9986" y2="46.2341" gradientUnits="userSpaceOnUse">
<stop stop-color="#B04344"/>
<stop offset="1" stop-color="#DE4148"/>
</linearGradient>
<linearGradient id="paint1_linear_490_1426" x1="28.3016" y1="42.6441" x2="46.7956" y2="24.7593" gradientUnits="userSpaceOnUse">
<stop stop-color="#B04344"/>
<stop offset="1" stop-color="#DE4148"/>
</linearGradient>
<linearGradient id="paint2_linear_490_1426" x1="44.1251" y1="21.3035" x2="24.2317" y2="5.2753" gradientUnits="userSpaceOnUse">
<stop stop-color="#B04344"/>
<stop offset="1" stop-color="#DE4148"/>
</linearGradient>
<linearGradient id="paint3_linear_490_1426" x1="19.9688" y1="7.29846" x2="3.748" y2="25.9664" gradientUnits="userSpaceOnUse">
<stop stop-color="#B04344"/>
<stop offset="1" stop-color="#DE4148"/>
</linearGradient>
</defs>
</svg>
