<svg width="50" height="50" viewBox="0 0 50 50" fill="none" xmlns="http://www.w3.org/2000/svg">
<path d="M6.24102 0.0357393L43.5001 0C46.9514 0.393108 49.6836 3.14486 50 6.58992V42.9202C49.7124 47.0229 46.5056 49.7031 42.4576 49.8032C31.0541 49.3529 19.176 50.4107 7.83002 49.8103C3.58067 49.5888 0.632729 47.5518 0 43.2133V6.44697C0.395456 3.13771 2.92638 0.521764 6.24102 0.0357393ZM24.4536 3.7381C13.7043 3.94538 6.58614 14.6808 10.3394 24.6443C10.476 25.0017 11.1015 26.7528 11.5473 26.6742C12.1225 26.5669 14.1789 24.0296 14.9051 23.6294C11.4898 17.6112 15.6888 9.82055 22.2606 8.40536C30.1265 6.71143 37.065 13.3371 35.5982 21.2135C34.6276 26.4597 29.8317 28.9828 26.5818 32.728L26.7041 33.1497L29.6017 35.8729C33.0098 32.1848 37.5036 29.2973 39.2508 24.3941C42.8746 14.2377 35.325 3.53797 24.4464 3.74524L24.4536 3.7381ZM29.0624 11.879L8.95888 31.7917C2.53092 40.1184 12.9278 50.3393 21.4193 44.0209C21.7645 43.7636 23.7058 42.0411 23.8136 41.8052C23.9502 41.5051 21.3546 38.9892 20.9735 38.5675C20.1898 38.9963 19.7009 39.7754 19.025 40.3186C14.1861 44.2282 8.9373 38.6747 12.7624 34.0932L32.0175 14.9667C32.1613 14.7594 32.0894 14.595 32.0175 14.3877C31.7946 13.7802 29.7239 11.7146 29.0696 11.879H29.0624ZM29.6592 20.6203C29.4651 20.6703 26.8622 23.2934 26.8622 23.4936C27.6603 24.6157 28.8323 25.5091 29.7742 26.5312C30.0906 26.038 32.866 23.7652 32.8228 23.515C32.7869 23.322 30.3279 20.9062 30.0834 20.7418C29.9324 20.6417 29.8677 20.5631 29.6592 20.6203ZM38.6037 29.3616C38.1938 29.8262 35.6701 32.0347 35.6701 32.3921C35.6701 32.6708 36.9859 33.6429 37.3095 34.0289C41.2712 38.689 35.1237 44.0138 30.824 40.0255L20.3408 29.6689L19.9166 29.7904C19.5643 30.3765 17.1556 32.0347 17.1556 32.5422L17.3785 32.921C23.2025 37.5239 29.918 49.8461 38.7834 44.5427C44.7153 40.9904 44.1041 32.9639 38.5893 29.3687L38.6037 29.3616Z" fill="#735D46"/>
</svg>
