<svg width="50" height="50" viewBox="0 0 50 50" fill="none" xmlns="http://www.w3.org/2000/svg">
<path d="M14.7129 5.97035C16.441 5.92719 19.0665 6.50977 20.6336 7.21355C22.3811 7.99838 23.1691 8.57446 25.1962 8.64477C27.6694 8.73058 28.9332 7.61847 31.1254 6.84283C32.818 6.24388 34.2795 6.06303 36.0446 5.95947L36.047 7.23252C35.7048 7.15604 35.241 7.12766 34.8906 7.1261C32.9803 7.12652 31.1493 7.89339 29.804 9.25649C28.8269 10.2491 28.162 11.5086 27.8918 12.8782C27.6962 13.8289 27.7403 15.0297 27.7404 16.015L27.7408 19.5939L27.7403 33.0519C27.7804 35.5626 27.7092 38.1241 27.7407 40.6383C27.7541 41.7042 27.6998 42.9602 27.7635 44.0033C27.1771 43.4685 26.5441 42.7964 25.9801 42.2243L23.042 39.24C22.9932 38.7757 23.0258 37.666 23.026 37.1304L23.0272 32.9071L23.0281 19.0337L23.0292 15.8436C23.0292 14.8168 23.0755 13.7761 22.8626 12.7702C22.4635 10.9219 21.3538 9.30694 19.7752 8.27733C18.3507 7.34817 16.4095 6.88019 14.7357 7.23802C14.7388 6.82629 14.752 6.37683 14.7129 5.97035Z" fill="#1A61AE"/>
<path d="M34.3422 8.37277C34.6549 8.32173 35.3258 8.35569 35.6493 8.39913C37.2099 8.61016 38.6233 9.43563 39.5784 10.694C42.3598 14.363 40.0353 19.7473 35.4737 20.1804C34.8195 20.2425 34.3315 20.1975 33.6828 20.1017C33.6655 19.3305 33.6812 18.4418 33.6919 17.6702C34.014 17.7811 34.3505 17.8439 34.6907 17.8567C37.9165 18.001 39.6558 14.0873 37.4244 11.7913C36.771 11.1092 35.8748 10.7157 34.9328 10.6976C33.9772 10.6836 33.0558 11.0543 32.3736 11.7269C31.1942 12.9007 31.318 13.9755 31.3157 15.4687L31.3143 18.9545L31.3139 31.4137L31.3091 49.9998C30.5915 49.2799 29.602 48.34 28.9483 47.5982L28.9508 23.8259L28.9491 17.1455C28.9485 16.0805 28.9108 14.9734 28.9746 13.9132C29.1577 10.8679 31.3998 8.71028 34.3422 8.37277Z" fill="#1A61AE"/>
<path d="M15.3549 8.37277C15.4674 8.35459 15.8354 8.34884 15.9557 8.34913C17.5176 8.35816 19.012 8.99015 20.1104 10.1062C20.9298 10.9291 21.4864 11.979 21.7089 13.1216C21.8724 13.9683 21.8295 15.305 21.8286 16.2102L21.8278 20.3001L21.8258 35.5934C21.0594 34.8566 20.2028 33.9817 19.4727 33.2068C19.4342 31.56 19.468 29.7569 19.4679 28.0979V18.2017C19.4642 17.1314 19.5619 14.1429 19.3233 13.2991C19.0665 12.3723 18.4461 11.5901 17.6043 11.132C16.7789 10.679 15.8071 10.5781 14.9069 10.8518C13.9873 11.1215 13.2153 11.7536 12.7666 12.6042C12.3235 13.4517 12.2312 14.4408 12.5098 15.3563C12.7941 16.2711 13.432 17.0329 14.2802 17.4708C15.174 17.9337 16.1524 17.9682 17.0955 17.6583C17.0899 18.476 17.0884 19.2937 17.0909 20.1114C17.0544 20.1178 17.0176 20.1233 16.9807 20.1279C15.2299 20.354 13.6832 20.072 12.2599 18.9599C11.0471 18.0063 10.2543 16.6131 10.0515 15.079C9.62096 11.6022 11.9318 8.79768 15.3549 8.37277Z" fill="#1A61AE"/>
<path d="M11.0586 0.0202018C12.9152 -0.00765529 14.8393 0.0188921 16.701 0.0188333L27.8717 0.0187536L35.4374 0.0171542C36.0949 0.0166798 39.7495 -0.0717023 40.1878 0.157393C40.4348 0.285713 40.6195 0.509011 40.7001 0.776445C40.937 1.58192 40.5808 2.13205 39.8122 2.35727C38.1566 2.42109 36.1595 2.37138 34.4827 2.3714L24.4583 2.37078L15.7688 2.37183C14.2806 2.37256 12.7921 2.37993 11.3039 2.36437C10.674 2.35779 10.1605 2.1097 10.0367 1.44016C9.89486 0.673085 10.3023 0.138658 11.0586 0.0202018Z" fill="#1A61AE"/>
<path d="M12.7111 3.5842C14.9081 3.63306 17.2685 3.58983 19.4754 3.58995L32.6358 3.58878C34.0197 3.58861 36.6918 3.54734 38.1983 3.63655C38.5214 3.65569 38.8518 4.45232 38.0661 4.74508C37.0515 4.79693 35.6932 4.75457 34.6453 4.75453L28.0101 4.75432L17.9199 4.7539C16.3013 4.75394 14.6826 4.75931 13.0641 4.75759C12.7395 4.75726 12.3822 4.70524 12.2558 4.3488C12.2024 4.19591 12.2159 4.02741 12.2932 3.88519C12.3917 3.70111 12.5262 3.63751 12.7111 3.5842Z" fill="#1A61AE"/>
</svg>
