<svg width="50" height="50" viewBox="0 0 50 50" fill="none" xmlns="http://www.w3.org/2000/svg">
<path d="M20.294 32.0418C18.8819 33.2537 17.2641 34.2222 15.4624 34.7308C6.58909 37.2359 -1.61872 29.3365 0.518445 20.3712C1.7791 15.0851 6.77845 11.1733 12.2377 11.2653C12.0267 12.553 11.7453 13.8299 11.8481 15.15C4.08941 15.3556 1.09196 25.6627 7.64414 29.9858C14.1909 34.3088 22.5123 27.7242 19.7584 20.3929C19.3526 19.3053 18.5626 18.4883 18.1406 17.4495C17.5455 15.9887 17.4102 14.3385 17.8701 12.8235C18.0703 12.6828 19.5582 13.8245 19.8125 14.0355C21.7278 15.6316 24.0814 19.2512 24.0814 21.805V35.5424H20.294V32.0472V32.0418Z" fill="#067937"/>
<path d="M29.0335 32.0419V35.5371H25.2461V27.5782C26.7989 27.5349 28.2976 27.1237 29.7477 26.6151C31.0246 29.0012 33.1509 30.8299 35.8941 31.252C42.311 32.2421 47.3266 25.7007 44.5564 19.7762C42.1 14.5279 34.9634 13.5378 31.122 17.8662C30.4294 18.6454 30.0615 19.5652 29.2337 20.2469C28.2057 21.0963 26.6853 21.6969 25.3489 21.751C26.4418 12.7857 36.7652 8.203 44.2155 13.5162C46.8721 15.4099 48.8902 18.8023 49.1337 22.0919C49.9507 33.1781 37.2846 39.3191 29.0389 32.0419H29.0335Z" fill="#067937"/>
<path d="M47.0414 37.376C47.4093 37.403 47.9882 37.5167 48.3507 37.6195C49.7034 38.009 50.0442 39.2426 49.9035 40.5303C49.8116 41.3744 49.1948 41.791 48.6429 42.3266C50.4771 42.9867 50.4121 46.0599 48.6916 46.7957C48.5401 46.8607 47.8259 47.0825 47.7177 47.0825H34.2725V37.376H47.0414ZM36.2203 41.3581H47.0468C47.0738 41.3581 47.4796 41.1201 47.5337 41.0714C47.9233 40.7035 47.88 39.7566 47.4363 39.4158C47.3281 39.3292 46.852 39.129 46.7546 39.129H36.3663C36.3663 39.129 36.2203 39.2643 36.2203 39.2751V41.3636V41.3581ZM36.2203 45.3403H47.0468C47.0738 45.3403 47.4796 45.1022 47.5337 45.0535C48.0964 44.5287 47.6798 43.1112 46.9494 43.1112H36.3663C36.3663 43.1112 36.2203 43.2464 36.2203 43.2573V45.3457V45.3403Z" fill="#0F3D4E"/>
<path d="M17.1574 5.45401C17.271 5.42155 17.363 5.43778 17.4333 5.54058L19.2134 8.71116C18.8834 9.18188 18.4722 9.55521 18.1367 10.0313C16.3242 12.6284 16.1673 15.826 17.6552 18.6125C17.9311 19.1319 18.3748 19.6188 18.6291 20.1599C19.3216 21.6099 19.603 23.6605 18.9808 25.1484C12.4123 21.5991 10.7567 12.8232 15.5396 7.04472C15.7507 6.79042 16.9572 5.50812 17.1574 5.45401Z" fill="#067937"/>
<path d="M32.0419 47.0883H20.3443C18.2774 47.0883 16.9302 45.0539 16.7949 43.1602C16.5623 39.8489 17.547 37.6036 21.118 37.3763C24.6889 37.1491 28.2383 37.5549 31.7118 37.3763C31.8092 37.3547 32.0473 37.4467 32.0473 37.5278V38.9833C32.0473 39.0644 31.8092 39.1564 31.7118 39.1348C28.2924 39.3458 24.4942 38.8372 21.118 39.1239C19.9872 39.2213 19.4677 39.8327 19.1972 40.8932C18.9483 41.8617 18.8618 44.3235 19.7166 44.9944C19.7978 45.0593 20.393 45.3407 20.4416 45.3407H31.8958C31.8958 45.3407 32.0419 45.4759 32.0419 45.4867V47.0883Z" fill="#0F3D4E"/>
<path d="M13.2072 44.8533V37.3813H15.0522V47.0879H13.0611C12.5146 47.0879 5.23742 41.5096 4.05251 40.9523L1.94239 39.6159V47.0879H0V37.3813H2.08847L12.8609 44.7613L13.2017 44.8533H13.2072Z" fill="#0F3D4E"/>
<path d="M25.0518 22.7192C27.638 22.6976 29.7373 21.3828 31.3064 19.408C31.5661 19.0833 31.7392 18.6613 31.9935 18.3475C32.9836 17.1247 35.0396 16.1075 36.6087 16.167C35.9865 21.9239 30.8356 26.5553 25.0518 26.604V22.7192Z" fill="#067937"/>
<path d="M35.9264 10.3945C35.2772 10.4594 34.6008 10.5568 33.9624 10.7137C33.4971 10.8273 32.7558 11.206 32.3555 11.2547C32.2202 11.271 32.1932 11.2764 32.0904 11.1736C31.9064 10.995 31.4519 10.0536 31.2084 9.72355C31.0678 9.53418 30.2291 8.65768 30.2129 8.58734L32.0417 5.25444C32.1228 5.19492 32.7126 5.69269 32.8154 5.78467C34.1572 6.95335 35.3205 8.72801 35.921 10.3945H35.9264Z" fill="#067937"/>
<path d="M21.3351 3.04069C23.9214 2.59703 24.8303 5.95157 22.6607 6.88759C19.8039 8.12661 18.6407 3.50059 21.3351 3.04069Z" fill="#067937"/>
<path d="M26.8693 3.04097C29.4664 2.5919 30.3375 5.96267 28.1949 6.88787C25.3381 8.12148 24.1748 3.50628 26.8693 3.04097Z" fill="#067937"/>
</svg>
