<svg width="50" height="50" viewBox="0 0 50 50" fill="none" xmlns="http://www.w3.org/2000/svg">
<path fill-rule="evenodd" clip-rule="evenodd" d="M6.95244 48.8859H42.9263C46.2052 48.8859 48.88 46.2024 48.88 42.928V6.92935C48.88 3.6481 46.1985 0.971468 42.9263 0.971468H6.95244C3.67346 0.971468 0.998675 3.65489 0.998675 6.92935V42.928C0.998675 46.2092 3.68025 48.8859 6.95244 48.8859ZM6.23283 49.8438H43.6459C47.0538 49.8438 49.844 47.0516 49.844 43.6413V6.20245C49.844 2.79212 47.0538 0 43.6459 0H6.23283C2.82486 0 0.034668 2.79212 0.034668 6.20245V43.6413C0.034668 47.0516 2.82486 49.8438 6.23283 49.8438Z" fill="#002C4B"/>
<path fill-rule="evenodd" clip-rule="evenodd" d="M28.038 28.2404L26.8975 29.3817C23.1297 25.6249 16.7957 25.8627 12.736 29.9252C8.67634 33.9877 8.43873 40.326 12.1929 44.0964L11.0524 45.2377C4.20932 27.0651 9.63356 21.1616 28.0312 28.2472" fill="#002C4B"/>
<path fill-rule="evenodd" clip-rule="evenodd" d="M28.2486 21.8271L29.3892 22.9685C25.635 26.7388 25.8726 33.0771 29.9323 37.1397C33.992 41.2022 40.3259 41.4467 44.0937 37.6831L45.2342 38.8244C27.0742 45.6723 21.1747 40.2443 28.2554 21.8339" fill="#002C4B"/>
<path fill-rule="evenodd" clip-rule="evenodd" d="M21.6228 21.8271L20.4822 22.9685C24.2365 26.7388 23.9988 33.0771 19.9391 37.1397C15.8794 41.2022 9.5455 41.4467 5.77772 37.6831L4.63721 38.8244C22.7972 45.6723 28.6967 40.2443 21.616 21.8339" fill="#002C4B"/>
<path fill-rule="evenodd" clip-rule="evenodd" d="M21.8403 28.2404L22.9808 29.3817C26.7486 25.6249 33.0826 25.8627 37.1423 29.9252C41.202 33.9877 41.4396 40.326 37.6854 44.0964L38.8259 45.2377C45.669 27.0651 40.2447 21.1616 21.8471 28.2472" fill="#002C4B"/>
<path fill-rule="evenodd" clip-rule="evenodd" d="M45.2343 11.0324L44.0938 12.1737C40.326 8.4169 33.992 8.65466 29.9323 12.7172C25.8726 16.7797 25.635 23.118 29.3892 26.8884L28.2487 28.0297C21.4056 9.85711 26.8298 3.95358 45.2275 11.0392" fill="#A77B18"/>
<path fill-rule="evenodd" clip-rule="evenodd" d="M11.0524 4.61963L12.1929 5.75414C8.43866 9.52452 8.67627 15.8628 12.736 19.9253C16.7957 23.9878 23.1296 24.2256 26.8974 20.4688L28.0379 21.6101C9.87789 28.4579 3.97843 23.03 11.0591 4.61963" fill="#002C4B"/>
<path fill-rule="evenodd" clip-rule="evenodd" d="M38.8259 4.61963L37.6854 5.75414C41.4396 9.52452 41.202 15.8628 37.1423 19.9253C33.0826 23.9878 26.7486 24.2256 22.9808 20.4688L21.8403 21.6101C40.0004 28.4579 45.8998 23.03 38.8191 4.61963" fill="#A77B18"/>
<path fill-rule="evenodd" clip-rule="evenodd" d="M4.64404 11.0324L5.78456 12.1737C9.55234 8.4169 15.8863 8.65466 19.946 12.7172C24.0057 16.7797 24.2433 23.118 20.4891 26.8884L21.6296 28.0297C28.4727 9.85711 23.0485 3.95358 4.65083 11.0392" fill="#002C4B"/>
</svg>
