<svg width="50" height="50" viewBox="0 0 50 50" fill="none" xmlns="http://www.w3.org/2000/svg">
<path d="M25.1126 34.5791L31.3385 40.7932C31.8248 41.28 32.6173 41.28 33.1036 40.7932C33.5959 40.3004 33.5899 39.5071 33.0976 39.0203L26.9077 32.8903C26.6375 32.6259 26.2773 32.4756 25.8991 32.4756H24.2961C23.9178 32.4756 23.5516 32.6259 23.2814 32.8963L22.2548 33.924C21.4323 34.7534 20.0934 34.7534 19.2649 33.924C18.4424 33.1007 18.4424 31.7605 19.2649 30.9311L20.5797 29.615C20.7778 29.4167 20.8919 29.1522 20.8979 28.8698L21.03 23.0282C21.036 22.7338 20.9219 22.4453 20.7118 22.235L18.4304 19.9512C17.9561 19.4765 17.1876 19.4825 16.7193 19.9572C16.257 20.426 16.263 21.1832 16.7253 21.652L18.0581 22.9922C18.2623 23.1965 18.3763 23.473 18.3763 23.7614V26.3517C18.3763 26.6401 18.2623 26.9166 18.0581 27.1209L12.7628 32.4216H12.7568L11.8562 33.317C11.7061 33.4673 11.7061 33.7197 11.8562 33.8699L20.5977 42.6442L20.5197 42.5421L23.0893 45.1142C23.5696 45.595 24.3441 45.595 24.8244 45.1142C25.3047 44.6335 25.3047 43.8522 24.8244 43.3774L20.5437 39.1105L20.7959 38.834L25.4908 43.5156C27.5261 45.547 28.3606 45.547 28.8769 45.0301C29.3933 44.5133 29.3933 43.6719 28.8769 43.149L22.7111 36.995L22.9812 36.7426L29.8195 43.5697C30.8102 44.5613 31.6567 44.5613 32.179 44.0385C32.7014 43.5156 32.7014 42.6683 31.7107 41.6766L24.8724 34.8555L25.1186 34.5911L25.1126 34.5791Z" fill="#21B5E9"/>
<path d="M15.4278 25.1128L9.21992 31.3449C8.73361 31.8317 8.73361 32.625 9.21992 33.1118C9.71223 33.6046 10.5047 33.5986 10.991 33.1058L17.1149 26.9097C17.3791 26.6393 17.5292 26.2787 17.5292 25.9001V24.2955C17.5292 23.9168 17.3791 23.5502 17.1089 23.2798L16.0822 22.2521C15.2537 21.4288 15.2537 20.0886 16.0822 19.2592C16.9048 18.4359 18.2436 18.4359 19.0721 19.2592L20.387 20.5754C20.5851 20.7737 20.8493 20.8879 21.1314 20.8939L26.9671 21.0261C27.2613 21.0321 27.5495 20.9179 27.7596 20.7076L30.041 18.4239C30.5153 17.9491 30.5093 17.1799 30.035 16.7111C29.5667 16.2483 28.8103 16.2543 28.342 16.7171L27.0031 18.0513C26.799 18.2556 26.5228 18.3698 26.2346 18.3698H23.647C23.3588 18.3698 23.0827 18.2556 22.8785 18.0513L17.5832 12.7506H17.5892L16.6886 11.8432C16.5385 11.6929 16.2864 11.6929 16.1363 11.8432L7.37075 20.5934L7.47282 20.5153L4.9032 23.0875C4.42289 23.5683 4.42289 24.3435 4.9032 24.8243C5.3835 25.3051 6.16399 25.3051 6.63829 24.8243L10.901 20.5393L11.1772 20.7917L6.50021 25.4914C4.47093 27.5287 4.47092 28.3641 4.98725 28.8809C5.50357 29.3978 6.34411 29.3978 6.86644 28.8809L13.0143 22.7089L13.2665 22.9793L6.44616 29.8245C5.45554 30.8161 5.45554 31.6635 5.97787 32.1863C6.5002 32.7092 7.34674 32.7092 8.33736 31.7175L15.1517 24.8724L15.4158 25.1188L15.4278 25.1128Z" fill="#B5D339"/>
<path d="M34.5206 24.8554L40.7286 18.6232C41.2149 18.1364 41.2149 17.3431 40.7286 16.8564C40.2362 16.3636 39.4437 16.3696 38.9574 16.8624L32.8336 23.0585C32.5694 23.3289 32.4193 23.6895 32.4193 24.0681V25.6727C32.4193 26.0513 32.5694 26.4179 32.8396 26.6884L33.8662 27.7161C34.6947 28.5394 34.6947 29.8796 33.8662 30.7089C33.0437 31.5323 31.7049 31.5323 30.8763 30.7089L29.5615 29.3928C29.3634 29.1945 29.0992 29.0803 28.817 29.0743L22.9814 28.9421C22.6872 28.936 22.399 29.0502 22.1889 29.2606L19.9074 31.5443C19.4331 32.0191 19.4391 32.7883 19.9134 33.2571C20.3817 33.7198 21.1382 33.7138 21.6065 33.2511L22.9453 31.9169C23.1495 31.7126 23.4256 31.5984 23.7138 31.5984H26.3015C26.5896 31.5984 26.8658 31.7126 27.0699 31.9169L32.3653 37.2175H32.3593L33.2598 38.125C33.4099 38.2753 33.6621 38.2753 33.8122 38.125L42.5777 29.3748L42.4756 29.4529L45.0453 26.8807C45.5256 26.3999 45.5256 25.6247 45.0453 25.1439C44.565 24.6631 43.7845 24.6631 43.3102 25.1439L39.0475 29.4288L38.7713 29.1764L43.4483 24.4768C45.4776 22.4395 45.4775 21.6041 44.9612 21.0873C44.4449 20.5704 43.6044 20.5704 43.082 21.0873L36.9342 27.2593L36.682 26.9889L43.5023 20.1437C44.4929 19.1521 44.4929 18.3047 43.9706 17.7819C43.4483 17.259 42.6017 17.259 41.6111 18.2506L34.7968 25.0958L34.5326 24.8494L34.5206 24.8554Z" fill="#B5D339"/>
<path d="M24.8295 15.4197L18.6035 9.20556C18.1172 8.71876 17.3247 8.71876 16.8384 9.20556C16.3461 9.69836 16.3521 10.4917 16.8444 10.9784L23.0343 17.1084C23.3045 17.3729 23.6647 17.5231 24.043 17.5231H25.646C26.0242 17.5231 26.3904 17.3729 26.6606 17.1024L27.6873 16.0748C28.5098 15.2454 29.8486 15.2454 30.6771 16.0748C31.4997 16.8981 31.4997 18.2383 30.6771 19.0676L29.3623 20.3838C29.1642 20.5821 29.0501 20.8465 29.0441 21.129L28.912 26.9705C28.906 27.265 29.0201 27.5535 29.2302 27.7638L31.5117 30.0475C31.986 30.5223 32.7545 30.5163 33.2228 30.0415C33.685 29.5728 33.679 28.8155 33.2167 28.3468L31.8839 27.0066C31.6798 26.8022 31.5657 26.5258 31.5657 26.2373V23.6471C31.5657 23.3586 31.6798 23.0822 31.8839 22.8778L37.1792 17.5772H37.1852L38.0858 16.6817C38.2359 16.5315 38.2359 16.2791 38.0858 16.1288L29.3443 7.35454L29.4223 7.45671L26.8527 4.88451C26.3724 4.40373 25.5979 4.40373 25.1176 4.88451C24.6373 5.3653 24.6373 6.14657 25.1176 6.62134L29.3983 10.8883L29.1462 11.1647L24.4512 6.48312C22.4159 4.45181 21.5814 4.45181 21.0651 4.96865C20.5487 5.48549 20.5487 6.32687 21.0651 6.84972L27.231 13.0037L26.9608 13.2562L20.1225 6.42904C19.1319 5.43742 18.2853 5.43742 17.763 5.96027C17.2407 6.48312 17.2407 7.3305 18.2313 8.32212L25.0696 15.1432L24.8234 15.4077L24.8295 15.4197Z" fill="#21B5E9"/>
<path d="M24.9737 48.5706C21.8218 48.5706 18.6698 47.3686 16.2743 44.9707L5.02317 33.7083C2.69971 31.3826 1.4209 28.2875 1.4209 25.0001C1.4209 21.7128 2.69971 18.6177 5.02317 16.2919L16.2743 5.02959C21.0713 0.227766 28.8762 0.227766 33.6732 5.02959L44.9243 16.2919C47.2478 18.6177 48.5266 21.7128 48.5266 25.0001C48.5266 28.2875 47.2478 31.3826 44.9243 33.7083L33.6732 44.9707C31.2777 47.3686 28.1257 48.5706 24.9737 48.5706ZM24.9737 2.20499C22.0199 2.20499 19.066 3.32882 16.8206 5.5825L5.56952 16.8448C3.39014 19.0264 2.18938 21.9231 2.18938 25.0062C2.18938 28.0892 3.39014 30.9859 5.56952 33.1675L16.8206 44.4298C21.3174 48.9312 28.6301 48.9312 33.1269 44.4298L44.378 33.1675C46.5574 30.9859 47.7521 28.0892 47.7521 25.0062C47.7521 21.9231 46.5514 19.0264 44.378 16.8448L33.1269 5.5825C30.8815 3.33483 27.9276 2.20499 24.9737 2.20499Z" fill="#B5D339"/>
<path d="M24.9742 50C21.3119 50 17.6496 48.6057 14.8639 45.8112L4.18314 35.1197C-1.39438 29.5366 -1.39438 20.4558 4.18314 14.8788L14.8639 4.18733C20.4414 -1.39578 29.5131 -1.39578 35.0846 4.18733L45.7654 14.8788C51.3429 20.4619 51.3429 29.5426 45.7654 35.1197L35.0846 45.8112C32.2989 48.5997 28.6366 50 24.9742 50ZM24.9742 0.773761C21.5101 0.773761 18.0459 2.09591 15.4102 4.73421L4.72948 15.4256C-0.541849 20.7022 -0.541849 29.2962 4.72948 34.5728L15.4102 45.2643C20.6815 50.5409 29.2669 50.5409 34.5383 45.2643L45.219 34.5728C50.4903 29.2962 50.4903 20.7022 45.219 15.4256L34.5383 4.73421C31.9026 2.09591 28.4384 0.773761 24.9742 0.773761Z" fill="#B5D339"/>
</svg>
