<svg width="100" height="50" viewBox="0 0 100 50" fill="none" xmlns="http://www.w3.org/2000/svg">
<path fill-rule="evenodd" clip-rule="evenodd" d="M60.4819 37.883C49.3193 43.2104 29.1338 48.128 14.0553 43.0445C7.71964 40.907 -1.76817 34.4479 0.28538 25.0743C0.660343 23.3832 1.45901 21.7687 2.43392 20.1191C7.33718 11.8205 18.4423 8.70227 25.6466 6.8967C45.8946 1.81823 71.9833 7.65112 96.6458 15.9597C85.207 13.0678 66.6576 11.4408 50.6604 11.4785C40.2289 11.5049 31.5885 12.7522 21.6633 16.5079C12.9766 20.231 9.10326 27.7902 13.6866 33.3943C17.7687 37.7309 25.1217 40.3097 33.8658 40.8793C43.2724 41.4841 53.9038 39.798 60.4819 37.883Z" fill="url(#paint0_linear_357_168)"/>
<path d="M22.8005 25.2566C22.7325 25.0859 22.6582 24.9176 22.5902 24.7444C22.5286 24.671 22.4296 24.6036 22.2995 24.5464C22.0769 24.8904 21.8851 25.2393 21.7181 25.5907C22.1016 25.7491 22.8623 25.415 22.8005 25.2566Z" fill="url(#paint1_linear_357_168)"/>
<path d="M38.9236 29.886C38.9749 29.8754 39.0839 29.886 39.0927 29.8144C39.0624 29.8213 39.0311 29.824 39 29.8226C38.9197 29.7921 38.8436 29.7527 38.7732 29.7053C38.7269 29.6807 38.6968 29.5669 38.673 29.5199C38.6492 29.473 38.2558 29.5493 38.1907 29.5563C38.0431 29.5569 37.8965 29.5339 37.7572 29.4883C37.6945 29.4753 37.6231 29.4812 37.5918 29.4226C37.5342 29.3158 37.548 29.2853 37.4352 29.324C37.3536 29.3479 37.2662 29.3479 37.1846 29.324C37.1232 29.3158 37.0844 29.2442 37.028 29.2196C36.9893 29.2078 36.9542 29.1873 36.9258 29.1599C36.8974 29.1325 36.8766 29.099 36.8652 29.0624C36.8326 28.9955 36.8188 28.9087 36.7399 28.8981C36.6146 28.8805 36.6146 28.8852 36.5206 28.9838C36.4893 29.019 36.5983 29.1421 36.6209 29.1773C36.7023 29.3052 36.7725 29.4402 36.8451 29.5716C36.8564 29.5117 36.8664 29.4542 36.8764 29.3932C36.9172 29.4819 36.9332 29.5788 36.9228 29.6748C37.036 29.6844 37.15 29.6712 37.2573 29.6361C37.3451 29.5632 37.4229 29.4804 37.4891 29.3897C37.4953 29.4636 37.4753 29.5868 37.5417 29.6243C37.5804 29.6542 37.6224 29.6802 37.667 29.7018C37.7046 29.717 37.7497 29.7018 37.771 29.7428C37.7923 29.7839 37.8123 29.8461 37.8461 29.852C37.9025 29.8602 37.8787 29.8977 37.8749 29.9529C37.8712 30.008 37.7497 30.1019 37.7133 30.1429C37.7133 30.1253 37.6958 30.1089 37.6933 30.0913C37.6614 30.1452 37.6442 30.2057 37.6432 30.2673C37.6432 30.333 37.6181 30.3259 37.5605 30.3518L37.3813 30.4315C37.3462 30.448 37.3463 30.5407 37.3124 30.5571C37.2786 30.5735 37.241 30.5348 37.2109 30.5465L37.0857 30.6005C37.0255 30.6251 37.0343 30.7014 36.9792 30.7178L36.6823 30.8175C36.6534 30.8269 36.6484 30.841 36.6296 30.868C36.6108 30.895 36.5745 30.8997 36.5344 30.9067C36.448 30.922 36.364 30.9478 36.2839 30.9689C36.2212 30.9841 36.2087 31.051 36.1398 31.051C36.0333 31.051 36.0245 31.0733 36.0045 30.9701C35.9844 30.8668 35.9619 30.7612 35.9418 30.6568C35.9014 30.5095 35.8317 30.3705 35.7364 30.2473C35.6837 30.1652 35.675 30.15 35.5835 30.1171C35.5309 30.0983 35.5322 29.9493 35.5221 29.8965C35.4981 29.8183 35.4622 29.7436 35.4156 29.6748C35.3931 29.6326 35.3417 29.6126 35.3129 29.5657C35.2553 29.4671 35.1964 29.3686 35.1363 29.2689C35.1074 29.2196 35.0849 29.1351 35.011 29.1515C35.0185 29.0905 35.0285 29.0342 35.0373 28.9685C35.011 29.0412 34.9859 29.114 34.9596 29.1867C34.8801 29.1061 34.8153 29.0138 34.7679 28.9134C34.7053 28.9873 34.8155 29.1116 34.8519 29.1797C34.9233 29.317 34.9959 29.4554 35.0674 29.5938C35.1112 29.676 35.0962 29.7687 35.1601 29.8344C35.1876 29.8613 35.2553 29.9071 35.2628 29.9517C35.2741 30.0221 35.2854 30.0913 35.2979 30.1617C35.3041 30.2028 35.2979 30.279 35.333 30.3095C35.3815 30.3441 35.4261 30.3834 35.4658 30.4268C35.5185 30.5316 35.5604 30.6408 35.591 30.753C35.6036 30.7882 35.7088 30.7823 35.7351 30.8105L35.8604 30.9431C35.928 31.0158 36.0634 31.0956 35.9581 31.1906C36.0295 31.2106 36.1059 31.3467 36.1623 31.3338L36.7424 31.1883C36.7775 31.1801 36.8814 31.139 36.9103 31.1883C36.9391 31.2376 36.8614 31.3924 36.8526 31.43C36.7962 31.5781 36.7191 31.7185 36.6234 31.8476C36.5706 31.9599 36.5023 32.0652 36.4204 32.1609C36.1874 32.3956 35.9193 32.6032 35.7389 32.8848C35.7 32.947 35.4507 33.2661 35.4883 33.3224C35.517 33.3545 35.5376 33.3924 35.5484 33.433C35.5593 33.4736 35.5601 33.5161 35.551 33.5571C35.5429 33.5937 35.5449 33.6316 35.5568 33.6673C35.5686 33.703 35.5899 33.7353 35.6186 33.7612C35.7238 33.8938 35.6875 34.1003 35.6963 34.2681C35.6981 34.2852 35.6981 34.3025 35.6963 34.3197C37.2872 33.2751 38.4705 31.7727 39.0664 30.0409C39.0153 29.9922 38.9676 29.9404 38.9236 29.886Z" fill="url(#paint2_linear_357_168)"/>
<path d="M32.7106 34.9497C32.6755 34.8077 32.6173 34.6721 32.5382 34.5479C32.4942 34.4599 32.4489 34.372 32.4048 34.2853C32.386 34.2462 32.4124 34.1741 32.4187 34.1338C32.4258 33.9482 32.4684 33.7656 32.5445 33.5952C32.6376 33.4364 32.581 33.3094 32.5445 33.1445L32.4187 32.6083C32.4048 32.5533 32.3306 32.4861 32.2928 32.447L32.1054 32.2028C32.0714 32.1588 32.0953 32.1026 32.1054 32.0476C32.1179 31.9353 32.1318 31.8241 32.1456 31.713C32.1595 31.6018 32.162 31.6116 32.1054 31.5359C32.0487 31.4601 32.0437 31.4406 31.9418 31.4467C31.8826 31.4467 31.7644 31.4858 31.7216 31.4357L31.5416 31.2207C31.5165 31.1902 31.1503 31.2464 31.1038 31.2696L30.8433 31.3978C30.7766 31.432 30.7464 31.4137 30.6709 31.3978C30.6078 31.3701 30.5367 31.364 30.4696 31.3807L30.1852 31.4785C30.1399 31.4931 30.0896 31.4345 30.0594 31.4088L29.7863 31.2171C29.6841 31.1581 29.5998 31.0738 29.5422 30.9728L29.1949 30.3853L29.0842 30.1972C29.0666 30.1679 29.1282 30.058 29.1396 30.0286C29.1584 29.9761 29.2188 29.8809 29.2063 29.8235C29.1849 29.7294 29.1635 29.6366 29.1408 29.5437C29.1116 29.465 29.0934 29.3829 29.0867 29.2995C29.1042 29.2527 29.1293 29.209 29.161 29.17L29.4957 28.5825C29.5695 28.4681 29.6762 28.3772 29.8027 28.3211C29.8719 28.2784 29.9033 28.2784 29.9159 28.199L29.965 27.8887C29.9839 27.7666 30.2343 27.7446 30.2834 27.6249C30.3173 27.5419 30.3324 27.427 30.4192 27.4026C30.4406 27.4026 30.5036 27.5101 30.5728 27.4954C30.603 27.4893 30.6747 27.4588 30.7049 27.4735C30.7351 27.4881 30.7842 27.5284 30.7993 27.5199C30.8672 27.4808 30.9339 27.4332 31.0044 27.3977C31.1408 27.335 31.2857 27.2914 31.4347 27.2683C31.478 27.2561 31.5231 27.2515 31.5681 27.2548C31.6012 27.2715 31.6369 27.2826 31.6738 27.2878C31.709 27.2878 31.743 27.2463 31.7782 27.2402C31.8105 27.2378 31.8428 27.2378 31.8751 27.2402C31.9564 27.2593 32.042 27.2498 32.1167 27.2133C32.1834 27.1742 32.2425 27.2267 32.3142 27.2548C32.2627 27.3623 32.2526 27.3672 32.3142 27.471C32.3407 27.5187 32.2375 27.5932 32.2035 27.6261C32.2576 27.675 32.3293 27.7629 32.3948 27.78L32.7509 27.8716C32.8427 27.8948 32.8163 27.9938 32.9082 28.0316C33 28.0695 33.0617 28.0524 33.1359 28.1025C33.2391 28.1733 33.2932 28.1904 33.3611 28.0634C33.3762 28.0329 33.3259 27.9877 33.341 27.9596C33.3561 27.9315 33.3825 27.8655 33.4052 27.8594C33.4965 27.8227 33.5976 27.8158 33.6933 27.8399C33.7185 27.8472 33.6933 27.8985 33.7286 27.9046L33.8896 27.9364C33.9324 27.9449 33.9349 27.9657 33.9563 28.0072C33.9689 28.0292 34.0104 27.9816 34.0293 27.9877L34.281 28.061C34.3124 28.0756 34.3472 28.0818 34.3819 28.079C34.4167 28.0762 34.45 28.0645 34.4785 28.0451C34.5767 27.9974 34.5867 27.984 34.6849 28.0292C34.7148 28.0457 34.748 28.0561 34.7823 28.0597C34.8166 28.0633 34.8512 28.06 34.8842 28.0501C34.9171 28.0401 34.9475 28.0237 34.9736 28.0018C34.9998 27.9799 35.021 27.9531 35.0359 27.9229C35.0674 27.8338 35.231 27.5565 35.1618 27.4661C35.1215 27.4075 35.2096 27.2841 35.1894 27.2622C35.1693 27.2402 35.1316 27.2768 35.1127 27.2927C35.0938 27.3086 35.0561 27.2622 35.0322 27.267C35.0083 27.2719 34.9718 27.3403 34.9403 27.355C34.901 27.3626 34.8607 27.3647 34.8208 27.3611C34.7465 27.3611 34.7151 27.2854 34.6471 27.2744C34.6018 27.267 34.5641 27.2402 34.5465 27.289C34.5288 27.3379 34.5276 27.344 34.4684 27.355C34.4093 27.366 34.3187 27.289 34.2721 27.2634C34.1878 27.2157 34.0406 26.9763 34.1325 26.8774L34.0419 26.8884C34.028 26.7895 34.1589 26.7663 34.2143 26.7663C34.3018 26.7715 34.3891 26.7524 34.4659 26.7113L34.3791 26.6686C34.3967 26.6197 34.5049 26.6405 34.5502 26.6466C34.6396 26.66 34.6433 26.6356 34.7138 26.5904C34.7605 26.5517 34.8178 26.527 34.8786 26.5195C34.9466 26.5322 35.0167 26.5301 35.0837 26.5134C35.0674 26.5415 35.0963 26.5672 35.1278 26.5818C35.1592 26.5965 35.158 26.5415 35.2071 26.6087C35.2247 26.6331 35.3593 26.6527 35.4021 26.671C35.4751 26.6991 35.5204 26.6563 35.5934 26.6649C35.6696 26.6707 35.7452 26.648 35.8047 26.6014C35.8639 26.5647 35.8312 26.4646 35.7947 26.4243C35.7582 26.384 35.6777 26.3571 35.621 26.3021C35.5644 26.2472 35.5116 26.18 35.4323 26.1666C35.404 26.1528 35.3767 26.1373 35.3505 26.1201C35.3178 26.0982 35.2876 26.0737 35.2561 26.0505C35.2639 26.0383 35.2723 26.0265 35.2813 26.0151L35.3719 26.0322C35.3442 25.9394 35.4059 25.9101 35.4763 25.9101C35.4424 25.8832 35.3971 25.8588 35.3794 25.8209H35.47C35.4487 25.7549 35.538 25.8038 35.5506 25.7623C35.5632 25.7207 35.494 25.7354 35.4726 25.7391C35.3983 25.7513 35.3178 25.7525 35.2649 25.8209V25.7965C35.1963 25.8071 35.1331 25.8393 35.085 25.8881L35.1001 25.8575C35.0145 25.8465 35.0535 25.9504 35.0888 25.9907C35.124 26.031 35.1995 26.0151 35.27 26.0151C35.2196 26.1018 35.1618 26.0371 35.1077 26.0652C35.0535 26.0933 34.939 26.1934 34.8761 26.1446C34.9139 26.042 34.8648 26.0554 34.778 26.0151C34.8208 25.9919 34.9869 25.9333 34.8749 25.893C34.8374 25.8862 34.7991 25.8862 34.7616 25.893C34.7352 25.893 34.7 25.8551 34.6773 25.8404C34.7239 25.8404 34.7818 25.8673 34.8031 25.816C34.7528 25.8404 34.627 25.7843 34.5968 25.816C34.5666 25.8478 34.471 25.9247 34.4596 25.9736C34.4591 26.0149 34.4527 26.056 34.4408 26.0957C34.4244 26.1189 34.359 26.1153 34.3539 26.1446C34.3351 26.2325 34.3388 26.2972 34.2659 26.3437C34.1929 26.3901 34.2105 26.4719 34.2445 26.5366C34.2671 26.5782 34.3829 26.6307 34.3766 26.6502C34.3577 26.7076 34.2508 26.6356 34.213 26.671L34.0482 26.831C34.0419 26.7712 34.0784 26.7589 34.1199 26.7345C34.0872 26.7211 34.0482 26.7199 34.0104 26.7064C33.9624 26.6954 33.9136 26.688 33.8645 26.6844C33.838 26.6771 33.8041 26.6979 33.7789 26.7076C33.7537 26.7174 33.7877 26.7589 33.7789 26.7687C33.7323 26.8066 33.6996 26.7687 33.6594 26.7443C33.6153 26.7919 33.6594 26.8371 33.6896 26.8811C33.7273 26.9483 33.7298 26.9409 33.6745 26.9947C33.7462 27.0435 33.8254 27.0606 33.8104 27.162C33.7663 27.1302 33.7374 27.0912 33.6921 27.1449C33.7474 27.1559 33.7525 27.1901 33.7135 27.2206C33.6745 27.2512 33.6921 27.2707 33.7135 27.3208C33.6656 27.3122 33.6292 27.3208 33.609 27.2732C33.5889 27.2255 33.5688 27.2438 33.5335 27.2732C33.4958 27.151 33.4694 27.1388 33.5675 27.0618C33.4769 27.0618 33.4769 27.0521 33.4215 26.9715C33.3913 26.9263 33.3687 26.8493 33.3284 26.8188C33.2567 26.7614 33.2819 26.7174 33.2919 26.6234C33.302 26.5293 33.2693 26.5354 33.2013 26.4829C33.1176 26.3999 33.0138 26.3386 32.8993 26.3046C32.8717 26.3046 32.8075 26.2179 32.7974 26.1824C32.7926 26.1506 32.7811 26.12 32.7636 26.0927C32.746 26.0654 32.7229 26.0419 32.6955 26.0237C32.6653 26.1128 32.6288 26.0688 32.6162 26.0041C32.6036 25.9394 32.6162 25.9565 32.547 25.9748C32.4778 25.9931 32.435 26.0004 32.4791 26.0786C32.4942 26.1055 32.4401 26.169 32.4891 26.2069C32.5405 26.2339 32.5876 26.2681 32.6288 26.3082C32.6603 26.351 32.6552 26.4182 32.6968 26.4536C32.7383 26.489 32.7723 26.5293 32.8352 26.533C32.8754 26.533 32.9472 26.533 32.883 26.5831C32.9409 26.6295 33.2341 26.7467 33.1598 26.8432C33.1296 26.8286 33.0453 26.7211 33.0113 26.7479C32.9969 26.758 32.9849 26.771 32.976 26.7859C32.9671 26.8009 32.9615 26.8175 32.9597 26.8347C32.9509 26.8762 32.9774 26.8738 33.0076 26.8957C33.0919 26.9605 32.9497 26.9776 32.9547 27.0179C32.9597 27.0582 32.8478 27.1706 32.8503 27.0802C32.8252 27.097 32.8072 27.1222 32.7998 27.151C32.7924 27.1797 32.796 27.2101 32.81 27.2365C32.8389 27.2915 32.7219 27.3098 32.7093 27.2658C32.6842 27.184 32.4048 27.1938 32.5143 27.0765C32.5791 27.0976 32.6477 27.1051 32.7156 27.0985C32.7652 27.0949 32.814 27.0842 32.8603 27.0667C32.8968 27.0435 32.8603 27.0179 32.9031 26.9983C32.9459 26.9788 32.8641 26.8163 32.8452 26.8139C32.8264 26.8115 32.766 26.8139 32.7723 26.7748C32.7785 26.7357 32.7358 26.715 32.7031 26.7308C32.7093 26.6942 32.6263 26.6344 32.5936 26.638C32.5332 26.6466 32.4992 26.5879 32.4564 26.5464C32.3797 26.4744 32.2752 26.4377 32.2513 26.3376C32.2274 26.2374 32.2287 26.2374 32.1481 26.1971C32.1054 26.1751 32.0525 26.158 32.0223 26.1971C31.9415 26.268 31.8504 26.3269 31.7518 26.3718L31.5316 26.3034C31.4938 26.2924 31.436 26.3693 31.4058 26.3937C31.3756 26.4182 31.4347 26.5159 31.4058 26.5537C31.3768 26.5916 31.2799 26.616 31.2384 26.6356C31.1201 26.6954 31.0836 26.7883 31.0132 26.9067C30.9918 26.9421 31.0836 26.9739 31.0396 27.0289C31.0132 27.0655 30.9402 27.1217 30.9628 27.1657C30.9364 27.1718 30.876 27.1742 30.8609 27.1974C30.8458 27.2206 30.8194 27.2841 30.7955 27.2866C30.7201 27.2915 30.6444 27.2915 30.569 27.2866C30.5023 27.2866 30.462 27.3635 30.4092 27.3806C30.3563 27.3977 30.2758 27.2915 30.3349 27.2512C30.2758 27.278 30.2481 27.1815 30.1739 27.2231C30.0996 27.2646 30.072 27.206 30.0191 27.2451C30.0298 27.2052 30.0353 27.1641 30.0355 27.1229C30.0355 27.0997 30.0355 27.0753 30.0292 27.0521C30.0229 27.0289 30.0028 27.0582 29.9927 27.0435C29.9474 26.9763 29.9801 26.9605 29.999 26.886C30.0179 26.8115 30.072 26.7015 30.0405 26.6319C30.0204 26.5649 30.0204 26.4937 30.0405 26.4267C29.999 26.4585 29.9726 26.3974 29.9889 26.3595C30.0053 26.3217 30.082 26.3241 30.1084 26.3192C30.1048 26.3113 30.1005 26.3035 30.0959 26.296C30.1663 26.2337 30.2003 26.3192 30.262 26.3034C30.3286 26.2795 30.4017 26.2795 30.4683 26.3034C30.535 26.3241 30.5942 26.2899 30.652 26.3119C30.7054 26.3296 30.7621 26.3354 30.8181 26.329C30.9351 26.3046 30.92 26.0847 30.92 25.9907C30.92 25.8966 30.9339 25.8759 30.8508 25.8502C30.8018 25.8356 30.7955 25.7513 30.8055 25.7281C30.7602 25.7378 30.7779 25.711 30.7602 25.7036C30.7426 25.6963 30.6873 25.6914 30.6797 25.6853C30.6432 25.6584 30.6294 25.6401 30.5853 25.6426C30.571 25.6457 30.556 25.644 30.5427 25.6378C30.5295 25.6316 30.5188 25.6212 30.5124 25.6084C30.5249 25.6084 30.5363 25.5974 30.5489 25.5962C30.5344 25.5912 30.522 25.5819 30.5134 25.5696C30.5048 25.5573 30.5004 25.5426 30.501 25.5278C30.552 25.5323 30.6033 25.5235 30.6495 25.5021C30.7389 25.441 30.6873 25.551 30.7464 25.5363C30.7665 25.5363 30.8785 25.5143 30.8722 25.4838C30.864 25.4367 30.8488 25.391 30.8269 25.3482C30.8508 25.3482 30.8949 25.3482 30.9037 25.369C30.9125 25.3897 30.9112 25.4068 30.944 25.4105C30.9977 25.4205 31.0534 25.4132 31.1025 25.3897C31.0861 25.3897 31.0723 25.3775 31.0572 25.3763C31.097 25.3373 31.1464 25.3087 31.2006 25.2932C31.2699 25.2603 31.2006 25.2163 31.2321 25.1626C31.2472 25.1394 31.3579 25.1149 31.3844 25.1015C31.4304 25.0812 31.4817 25.0748 31.5316 25.0832C31.5102 25.0832 31.4536 25.0697 31.4523 25.0465C31.451 25.0233 31.5052 25.0355 31.5102 25.0306C31.5152 25.0258 31.5102 24.9964 31.5215 24.983C31.5525 24.9433 31.5728 24.8967 31.5807 24.8474C31.5807 24.8193 31.6348 24.8254 31.6536 24.8035C31.7166 24.7314 31.7795 24.7729 31.8512 24.7509C31.8625 24.7509 31.8512 24.7131 31.8701 24.7094L31.9305 24.7009C31.9626 24.6999 31.9948 24.7032 32.0261 24.7106C32.0148 24.6545 32.0638 24.6691 32.1054 24.6642C32.0827 24.6557 32.0211 24.6056 32.0513 24.5824C32.1016 24.5445 32.0575 24.547 32.0412 24.4969C32.0248 24.4468 32.0575 24.4163 32.011 24.3748C31.9644 24.3332 31.9833 24.3259 31.9808 24.2758C31.9808 24.194 31.9934 24.1024 32.0827 24.0987C32.1507 24.0987 32.2085 24.0266 32.2702 23.9937C32.2249 24.0584 32.2023 24.1952 32.3004 24.2184C32.2425 24.3076 32.1343 24.3406 32.1544 24.4554C32.1683 24.5409 32.2526 24.6154 32.3344 24.5775C32.3243 24.6019 32.313 24.6251 32.3017 24.6483C32.3822 24.6948 32.4527 24.5824 32.5219 24.5738C32.5426 24.5771 32.5623 24.5845 32.5799 24.5957C32.5975 24.6068 32.6124 24.6215 32.6238 24.6386C32.6376 24.6838 32.6791 24.6948 32.7194 24.7155C32.7245 24.7018 32.7271 24.6873 32.727 24.6728L32.659 24.6667C32.7081 24.6361 32.8842 24.6325 32.9182 24.5885C32.954 24.5484 33.0026 24.5211 33.0562 24.5112C33.1099 24.5012 33.1654 24.5091 33.2139 24.5335C33.2064 24.5335 33.1787 24.5201 33.1648 24.5128C33.1648 24.5873 33.2705 24.597 33.3096 24.5519C33.3247 24.5348 33.3309 24.492 33.341 24.4822C33.3511 24.4725 33.3712 24.4822 33.3813 24.4725C33.3913 24.4627 33.4417 24.437 33.4605 24.4077C33.4496 24.4344 33.4324 24.4583 33.4102 24.4773C33.536 24.5384 33.4618 24.3088 33.458 24.2526C33.4555 24.2307 33.4577 24.2086 33.4644 24.1876C33.4711 24.1666 33.4822 24.1471 33.497 24.1305C33.5247 24.0987 33.497 24.0486 33.5474 24.0157C33.6619 23.9326 33.6896 24.1158 33.7751 24.1219C33.8217 24.1219 33.8557 24.0596 33.8481 24.0193C33.8406 23.979 33.8657 23.8886 33.8594 23.8837C33.8531 23.8789 33.8217 23.9033 33.8129 23.896C33.7948 23.8796 33.778 23.8621 33.7625 23.8434C33.75 23.8288 33.726 23.736 33.7386 23.7311C33.8197 23.685 33.9115 23.6597 34.0054 23.6578L34.2029 23.6822C34.2935 23.6932 34.2168 23.6602 34.2709 23.6272C34.3049 23.6065 34.3552 23.6187 34.3967 23.5943C34.4382 23.5698 34.4886 23.6028 34.5225 23.6065C34.5037 23.5479 34.3816 23.5271 34.33 23.5051C34.3388 23.4917 34.3388 23.4685 34.3489 23.4563C34.1652 23.4904 33.9714 23.5344 33.789 23.5698C33.7688 23.5698 33.6921 23.6004 33.6795 23.5808C33.6694 23.5592 33.6547 23.5399 33.6362 23.5243C33.6177 23.5087 33.596 23.4971 33.5725 23.4904C33.4996 23.4611 33.5058 23.4672 33.5184 23.3854C33.531 23.3402 33.531 23.2926 33.5184 23.2474C33.4961 23.1952 33.4821 23.14 33.4769 23.0837C33.4769 23.0483 33.5587 22.9933 33.5826 22.9616C33.6417 22.8944 33.7223 22.8529 33.7802 22.7833C33.8091 22.7491 33.8544 22.6611 33.8934 22.6465C33.9324 22.6318 33.9878 22.6648 33.9664 22.5927C33.9564 22.5524 33.9322 22.5167 33.8979 22.4919C33.8637 22.4672 33.8216 22.4549 33.7789 22.4571C33.6531 22.4571 33.6405 22.4486 33.5511 22.5451C33.4945 22.6062 33.4656 22.6562 33.5109 22.7344C33.5562 22.8126 33.2064 22.9787 33.1762 23.0153C33.0894 23.1204 32.9434 23.2901 33.0365 23.4477C33.0768 23.5149 33.1925 23.5124 33.229 23.5894C33.2542 23.6443 33.1586 23.692 33.117 23.7274C33.0453 23.7873 32.9912 23.8117 32.9748 23.907C32.9718 23.9949 32.9583 24.0822 32.9346 24.1671C32.8918 24.2636 32.8176 24.2636 32.732 24.2819C32.698 24.2819 32.7005 24.3283 32.6905 24.3613C32.6804 24.3943 32.654 24.3906 32.615 24.3931C32.5546 24.3931 32.5483 24.4114 32.5382 24.3467C32.526 24.3071 32.5226 24.2655 32.5282 24.2245C32.5533 24.1573 32.4527 24.0755 32.4124 24.023C32.3948 24.001 32.4048 23.9583 32.3923 23.9326C32.3711 23.8985 32.3534 23.8625 32.3394 23.8251C32.3306 23.7897 32.3633 23.7298 32.323 23.7213C32.2828 23.7127 32.2828 23.6553 32.2715 23.6211C32.2476 23.714 32.2287 23.7225 32.1544 23.775C32.1016 23.8117 32.0601 23.8666 32.006 23.8972C31.9242 23.9473 31.7115 23.9216 31.7077 23.7958C31.7077 23.6419 31.6411 23.4929 31.6486 23.3402C31.6549 23.2083 31.665 23.2071 31.7631 23.1265C31.8176 23.0862 31.8767 23.0522 31.9393 23.0251C32.0145 22.9985 32.0831 22.9569 32.1406 22.903C32.1934 22.8455 32.2463 22.7918 32.3042 22.7393C32.4108 22.6196 32.5008 22.487 32.5722 22.3448C32.6647 22.2164 32.7687 22.0962 32.883 21.9857C32.9757 21.8617 33.0934 21.7574 33.229 21.6791C33.3848 21.6122 33.5449 21.5555 33.7084 21.5093C33.7713 21.491 33.8041 21.3872 33.8607 21.3591C33.9221 21.3292 33.9912 21.3173 34.0595 21.3249C33.9899 21.387 33.9409 21.4678 33.9186 21.557C33.9903 21.5435 34.0532 21.4275 34.0985 21.3713C34.1061 21.4067 34.1136 21.4421 34.1199 21.4763L34.2168 21.3542C34.2306 21.3371 34.3137 21.3542 34.3363 21.3542L34.2772 21.4507C34.3627 21.5142 34.3124 21.3603 34.3829 21.3872L34.6031 21.4715C34.6647 21.4947 34.5502 21.5521 34.5263 21.557C34.4658 21.5591 34.4053 21.5533 34.3464 21.5399C34.3741 21.5887 34.4307 21.5716 34.4559 21.6278C34.4621 21.6425 34.5351 21.6193 34.5616 21.6278C34.6257 21.6278 34.6874 21.6596 34.7264 21.6058C34.7453 21.5802 34.8233 21.6364 34.8522 21.6498C34.8371 21.706 34.7818 21.6693 34.7402 21.6596C34.7226 21.7817 34.9315 21.7316 34.9919 21.7341C35.0922 21.7374 35.1894 21.7693 35.2712 21.8257C35.363 21.8809 35.461 21.926 35.5632 21.96C35.6095 21.97 35.653 21.99 35.6902 22.0185C35.7275 22.0471 35.7576 22.0835 35.7783 22.1249C35.8085 22.2141 35.8047 22.2116 35.7532 22.2886C35.7204 22.3362 35.7104 22.3655 35.66 22.3826C35.5751 22.4188 35.4796 22.4245 35.3908 22.3985C35.1869 22.3578 34.9891 22.2926 34.8019 22.2043C34.8598 22.2605 35.0259 22.368 35.0259 22.4486C35.0259 22.5292 35.0108 22.7075 35.0913 22.7405C35.1718 22.7735 35.2989 22.8797 35.387 22.8443C35.4398 22.8223 35.4122 22.7405 35.3606 22.7405C35.309 22.7405 35.2863 22.6941 35.2498 22.6501C35.3329 22.5768 35.3379 22.5939 35.4398 22.6281L35.6915 22.7112C35.6653 22.6522 35.6438 22.5914 35.6273 22.5292L35.8136 22.4071C35.8463 22.3863 35.9079 22.324 35.9469 22.3362L36.1445 22.3936C36.152 22.357 36.1835 22.2898 36.1697 22.2544C36.1697 22.2446 36.1017 22.1432 36.0979 22.1567C36.113 22.098 36.1281 22.0345 36.142 21.9808C36.142 21.96 36.0765 21.8977 36.0627 21.8806L36.3018 21.9112C36.3609 21.9185 36.4012 22.0064 36.4377 22.0541C36.3987 22.0541 36.2816 22.0467 36.2603 22.0822C36.2263 22.1408 36.2905 22.1787 36.3282 22.2275C36.3659 22.2764 36.4314 22.2458 36.4918 22.2373C36.5522 22.2287 36.5132 22.1726 36.5534 22.1151C36.5723 22.0919 36.6403 22.0773 36.6667 22.0663L36.8818 21.971L37.2103 21.8257C37.2417 21.9258 37.2417 21.9246 37.3361 21.9478C37.3978 21.9625 37.4305 21.8489 37.4858 21.855C37.5531 21.8724 37.6245 21.8672 37.6884 21.8403C37.7184 21.8234 37.752 21.8131 37.7866 21.8104C37.8212 21.8076 37.856 21.8124 37.8885 21.8244L37.847 21.8953C37.9464 21.9234 37.9438 21.9283 38.0068 21.8464C37.8296 21.5926 37.639 21.348 37.4355 21.1136C37.4481 21.2626 37.5462 21.3298 37.662 21.408C37.584 21.4715 37.399 21.4165 37.3109 21.408C37.2109 21.3979 37.1186 21.3512 37.053 21.2773C36.9913 21.2113 36.9813 21.2089 36.9875 21.116C36.9875 21.0489 37.0693 21.0721 37.0945 21.022C37.1197 20.9719 37.0618 20.9511 37.136 20.8998C37.1448 20.8925 37.1763 20.8754 37.2052 20.8559C36.1207 19.7042 34.7366 18.8574 33.1984 18.4046C31.6602 17.9517 30.0247 17.9095 28.4639 18.2824L28.5897 18.3386L28.2286 18.4607C28.3028 18.5193 28.3884 18.5022 28.4802 18.5047C28.5721 18.5071 28.4387 18.727 28.4274 18.7489C28.5016 18.7184 28.6539 18.6158 28.7306 18.6268L28.9319 18.6598C28.9873 18.6696 29.0125 18.606 29.0477 18.5633C29.1031 18.4961 29.2704 18.5132 29.351 18.5266C29.4661 18.5575 29.5781 18.5984 29.6857 18.6488L29.395 18.8125C29.3122 18.847 29.2243 18.8684 29.1345 18.876L29.2063 18.9358C29.1434 19.0079 29.0706 19.0712 28.9898 19.1239C28.9156 19.174 28.8225 19.207 28.7734 19.2864C28.7243 19.3658 28.6161 19.4671 28.6476 19.5526C28.6954 19.6626 28.7596 19.6882 28.8564 19.7529L28.5784 20.0168L28.7696 20.1389C28.82 20.1731 28.8137 20.261 28.8237 20.3258C28.8237 20.3527 28.8728 20.509 28.8552 20.5273L28.6652 20.7313C28.5696 20.8327 28.5394 21 28.4941 21.1331C28.4764 21.1844 28.5305 21.3066 28.5444 21.3579C28.5696 21.4654 28.5645 21.4617 28.4928 21.546L28.0423 21.8135C27.9101 21.8731 27.7699 21.9142 27.6258 21.9356L27.349 22.0077C27.2886 22.0235 27.2723 22.0565 27.2232 22.109C27.1761 22.1819 27.1203 22.2491 27.0571 22.3093C26.9909 22.3393 26.9211 22.3615 26.8495 22.3753L26.5538 22.4694C26.4795 22.4926 26.4833 22.495 26.4531 22.5732C26.3977 22.7185 26.3449 22.8626 26.2958 23.0117C26.2354 23.1961 26.17 23.3781 26.1134 23.565C26.1134 23.5808 25.9737 23.5772 25.9485 23.565C25.8504 23.5308 25.7535 23.4966 25.6553 23.4599C25.6075 23.444 25.5207 23.4355 25.4905 23.3879L25.3055 23.1082C25.1912 22.9565 25.0954 22.7926 25.0199 22.6196L24.8941 22.2861C24.8847 22.1892 24.8941 22.0915 24.9218 21.9979C24.9218 21.9857 24.9218 21.9075 24.9369 21.9026L25.103 21.833C25.1193 21.833 25.1948 21.8098 25.1973 21.7902L25.22 21.6144L24.9784 21.6828C24.8677 21.7145 24.8739 21.7157 24.7909 21.6278C24.7255 21.5582 24.7657 21.5057 24.7909 21.4116C24.8161 21.3176 24.7343 21.2785 24.6651 21.2113C24.5959 21.1441 24.6512 21.0953 24.6802 21.011C24.7091 20.9267 24.699 20.9133 24.6588 20.8266C24.6004 20.6738 24.5254 20.5276 24.4348 20.3905C24.0137 20.7783 23.6319 21.2045 23.2948 21.6632C23.3439 21.6559 23.3426 21.6632 23.3678 21.7304L23.2633 21.7096L23.2294 21.7561V21.7964H23.1916C23.1842 21.8048 23.1775 21.8138 23.1715 21.8232C23.2797 21.8684 23.3879 21.9099 23.4986 21.9454C23.5492 21.9622 23.5931 21.9938 23.6245 22.0358C23.6786 22.0932 23.7138 22.0895 23.7906 22.1005L23.7402 22.175C23.8031 22.1647 23.8673 22.1647 23.9302 22.175C24.0082 22.208 23.978 22.2556 23.968 22.3362C23.9302 22.3362 23.8698 22.3045 23.8421 22.3362L23.9302 22.3777C23.8421 22.4229 23.8044 22.4681 23.7226 22.4107C23.7364 22.4748 23.7364 22.5409 23.7226 22.6049C23.6334 22.5674 23.5561 22.5075 23.4986 22.4315C23.5427 22.4107 23.6106 22.4046 23.5905 22.3362C23.5615 22.346 23.4999 22.3839 23.4647 22.3777C23.4294 22.3716 23.3892 22.2984 23.3527 22.2788C23.3162 22.2593 23.2797 22.2507 23.2533 22.2886C23.2155 22.3448 23.2835 22.3411 23.286 22.4022L23.1903 22.39C23.2004 22.4217 23.2105 22.4535 23.2218 22.4852C23.2696 22.4669 23.2809 22.4437 23.2998 22.4987C23.3187 22.5536 23.33 22.5878 23.3451 22.6342C23.359 22.5634 23.3954 22.5952 23.4395 22.6147C23.4835 22.6342 23.4886 22.6538 23.5011 22.7173C23.5137 22.7808 23.5603 22.7515 23.5842 22.7906C23.5982 22.8395 23.6049 22.8901 23.6043 22.9408L23.5452 22.8663C23.5112 22.9249 23.5993 22.9408 23.5729 23.0019C23.5603 22.9958 23.5427 23.0019 23.5301 22.9897L23.5578 23.0605C23.5326 23.0678 23.4672 22.9848 23.4319 22.9616L23.2193 22.8321C23.2294 22.8504 23.2294 22.8736 23.2394 22.8907L23.1136 22.837L23.1841 22.9591C23.2004 22.9872 23.2646 22.9823 23.2923 23.0007L23.4181 23.0898C23.4596 23.1179 23.4433 23.1387 23.437 23.1924L23.0897 23.1057C23.0469 23.0959 23.0494 23.0446 23.0243 23.0373L22.8481 22.9933C22.8555 22.984 22.8622 22.9743 22.8682 22.964C22.8146 22.9622 22.7631 22.9438 22.721 22.9115L22.8141 22.8651C22.7613 22.837 22.6996 22.8419 22.6669 22.793C22.6342 22.7442 22.6304 22.7307 22.6166 22.7112C22.5454 22.8436 22.4783 22.978 22.4152 23.1143C22.4396 23.1146 22.4636 23.1095 22.4857 23.0996C22.5587 23.0666 22.5776 23.0996 22.643 23.1497C22.6744 23.1717 22.7688 23.2095 22.7688 23.2511C22.7852 23.3121 22.8217 23.3598 22.8946 23.35C22.9474 23.3481 22.9993 23.3636 23.0419 23.394C23.0117 23.4428 22.9941 23.4575 23.0041 23.5161C23.0198 23.5667 23.0198 23.6206 23.0041 23.6712H23.0507C23.023 23.7054 22.9437 23.7604 22.9865 23.7934C23.0607 23.5796 23.3262 24.0462 23.3803 23.7579C23.3929 23.7714 23.4156 23.7726 23.4282 23.7848C23.4571 23.7237 23.5049 23.6627 23.4923 23.5955C23.4835 23.5479 23.5552 23.4526 23.6056 23.4624C23.6056 23.488 23.593 23.5137 23.588 23.5405C23.7025 23.5405 23.7792 23.7738 23.8396 23.8654C23.8698 23.9167 23.9655 24.0193 23.9655 24.0779C23.9655 24.1097 23.9088 24.1549 23.9151 24.1854C23.9214 24.216 23.9768 24.2331 23.9868 24.2416C24.0218 24.2615 24.0535 24.2862 24.0812 24.3149C24.1013 24.3491 24.0674 24.3857 24.1139 24.3882C24.1849 24.3839 24.2554 24.4028 24.314 24.4419C24.3643 24.4761 24.4637 24.5225 24.3543 24.5384C24.2923 24.5514 24.2313 24.5685 24.1718 24.5897C24.2083 24.6032 24.2574 24.5775 24.2976 24.5653C24.2712 24.6129 24.1844 24.6178 24.1353 24.6325C24.0863 24.6471 24.1039 24.7375 24.129 24.7058C24.1467 24.6837 24.1715 24.6682 24.1995 24.6618C24.2284 24.6508 24.2171 24.6349 24.2347 24.6264C24.2783 24.6038 24.3264 24.5905 24.3757 24.5873C24.3656 24.5864 24.3559 24.5836 24.347 24.579C24.3382 24.5744 24.3303 24.568 24.3241 24.5604C24.3593 24.5604 24.4272 24.5604 24.4423 24.6032C24.4574 24.6459 24.4021 24.652 24.4348 24.6923C24.4738 24.6203 24.5216 24.6581 24.5845 24.6777C24.6474 24.6972 24.5946 24.7864 24.5845 24.8132C24.5644 24.867 24.6273 24.8853 24.5845 24.9464C24.5454 24.9829 24.4986 25.0108 24.4474 25.0282C24.3996 25.0404 24.353 25.0282 24.2976 25.0477C24.2502 25.067 24.2095 25.0992 24.1806 25.1406C24.1481 25.1789 24.1051 25.2075 24.0566 25.2233C24.0081 25.2391 23.9561 25.2413 23.9063 25.2297C23.7864 25.2175 23.6656 25.2151 23.5452 25.2224C23.4357 25.2285 23.3237 25.1919 23.2935 25.3336C23.2847 25.3702 23.179 25.3812 23.1501 25.402C23.1041 25.4425 23.062 25.4871 23.0243 25.5351C22.9656 25.6168 22.8995 25.6933 22.8267 25.7635C22.9727 25.6939 23.0519 25.5436 23.2042 25.474C23.3049 25.4276 23.5817 25.2774 23.6496 25.4533C23.6383 25.4471 23.6245 25.4447 23.6131 25.4386C23.6861 25.4875 23.5854 25.5241 23.549 25.5546C23.5125 25.5852 23.4621 25.5253 23.408 25.562C23.4307 25.5681 23.4835 25.6242 23.486 25.6242C23.4926 25.6146 23.5018 25.607 23.5126 25.6021C23.5233 25.5972 23.5353 25.5954 23.5471 25.5967C23.5589 25.5981 23.5701 25.6026 23.5794 25.6098C23.5887 25.6169 23.5958 25.6265 23.5999 25.6373C23.604 25.6482 23.6048 25.6599 23.6024 25.6712C23.6 25.6825 23.5944 25.6929 23.5863 25.7013C23.5781 25.7097 23.5677 25.7157 23.5563 25.7187C23.5448 25.7217 23.5327 25.7216 23.5213 25.7183C23.5376 25.7122 23.559 25.7183 23.5766 25.7183C23.549 25.7928 23.6307 25.8527 23.6886 25.8673L23.6698 25.8807C23.7541 25.9211 23.8371 25.9553 23.9113 25.9027L23.9189 25.9418C23.9366 25.9407 23.9538 25.9357 23.9692 25.9272C23.9189 25.8636 24.0208 25.7733 24.0548 25.7207C24.1227 25.7439 24.0837 25.8014 24.0686 25.8527C24.1177 25.8148 24.1869 25.8881 24.1454 25.9052C24.0957 25.9365 24.0373 25.9523 23.978 25.9504C23.9919 25.9614 23.9982 25.9809 24.0108 25.9919L23.8031 26.0737C23.7756 26.0816 23.7496 26.094 23.7264 26.1104C23.6962 26.136 23.6886 26.0774 23.6635 26.0969C23.6156 26.1336 23.5741 26.2044 23.5225 26.2521C23.4709 26.2997 23.4546 26.2386 23.4345 26.2313C23.3615 26.1299 23.5376 26.042 23.5968 26.0004C23.6559 25.9589 23.6182 26.0004 23.6383 26.0224C23.6773 26.0554 23.7012 26.0102 23.7377 25.9785C23.6911 25.9785 23.632 25.9601 23.5917 25.9882C23.5976 25.961 23.6106 25.9358 23.6295 25.9149C23.5754 25.9027 23.5037 25.9711 23.4621 25.9992C23.4206 26.0273 23.4332 25.976 23.3992 26.0151C23.3829 26.0346 23.3426 26.0224 23.3187 26.0224C23.3539 26.1324 23.1639 26.0921 23.1375 26.1446L23.1148 26.1214C23.0859 26.18 23.0582 26.1861 23.0016 26.2069C22.9639 26.2215 22.9613 26.2472 22.9462 26.2875C22.9311 26.3278 22.8204 26.5391 22.9639 26.5232C22.9591 26.5145 22.9549 26.5055 22.9513 26.4963C22.9637 26.5064 22.9743 26.5184 22.9827 26.5318C22.9387 26.5611 22.8858 26.5318 22.8393 26.5244C22.8166 26.5244 22.8242 26.5855 22.7902 26.5879C22.7003 26.5859 22.612 26.612 22.5385 26.6624C22.6052 26.6539 22.6644 26.6221 22.7248 26.6124L22.7034 26.6295H22.7587C22.7217 26.6557 22.6784 26.6725 22.6329 26.6783C22.5914 26.6783 22.5184 26.6673 22.4932 26.7101C22.5952 26.7211 22.4492 26.908 22.4115 26.9397C22.4354 26.8982 22.3624 26.8713 22.346 26.8237C22.346 26.8811 22.424 26.9592 22.3976 27.0118C22.3623 27.0667 22.3316 27.1243 22.3058 27.184H22.2957C22.2995 27.1455 22.311 27.1082 22.3297 27.0741C22.3032 27.0582 22.3158 27.0057 22.263 27.0203C22.2672 26.9812 22.276 26.9427 22.2894 26.9055C22.2894 26.9055 22.3272 26.8249 22.2894 26.8505C22.2026 26.9104 22.229 26.9507 22.2529 27.0545C22.2281 27.0349 22.1994 27.0203 22.1686 27.0118C22.1913 27.0435 22.2441 27.0533 22.2617 27.0838C22.2793 27.1144 22.2428 27.1754 22.2504 27.1986C22.2617 27.2402 22.3209 27.2182 22.3058 27.2866C22.2907 27.355 22.2579 27.3367 22.2076 27.3525C22.2504 27.3525 22.3259 27.3391 22.3146 27.4014C22.3146 27.427 22.2215 27.4283 22.1976 27.4319C22.2101 27.4393 22.2215 27.4515 22.234 27.4588C22.2139 27.4649 22.2051 27.4783 22.1799 27.4771C22.2013 27.5284 22.2315 27.4771 22.2668 27.5028L22.1938 27.5419C22.1749 27.5504 22.1485 27.5211 22.1334 27.5296C22.1183 27.5382 22.0742 27.6127 22.0541 27.642C22.034 27.6713 21.9862 27.6542 21.9585 27.6884C21.9375 27.7227 21.9102 27.7529 21.8779 27.7776C21.8103 27.8086 21.7544 27.8595 21.7181 27.9229C21.7818 28.3553 21.8789 28.7824 22.0088 29.2005C22.0491 29.2225 22.0881 29.2469 22.1258 29.2714L22.1346 29.2543C22.1568 29.2823 22.1854 29.3049 22.2182 29.3204C22.251 29.3359 22.287 29.3438 22.3234 29.3434C22.3385 29.3434 22.3561 29.3911 22.3901 29.396C22.432 29.4082 22.47 29.4305 22.5008 29.4607L22.3599 29.501C22.2756 29.4937 22.1913 29.512 22.1082 29.501C22.1309 29.5645 22.1535 29.6231 22.1774 29.6891L22.2403 29.7123C22.2501 29.7251 22.259 29.7386 22.2668 29.7526C22.2565 29.7497 22.2458 29.7489 22.2352 29.7502C22.2246 29.7514 22.2143 29.7548 22.2051 29.7599C22.3101 30.0298 22.4289 30.2943 22.5612 30.5526L22.8053 30.4671C22.8808 30.4403 23.018 30.5038 23.0922 30.5209L23.6773 30.654C23.7833 30.6593 23.8855 30.6941 23.9717 30.7542L24.4285 31.1804C24.5254 31.2696 24.7355 31.272 24.8576 31.3026C24.9796 31.3331 25.0627 31.5151 25.1344 31.6067L25.3546 31.8864C25.3722 31.9084 25.4112 31.9829 25.4389 31.9927L25.9095 32.1576L26.3801 32.3225C26.5161 32.3964 26.6427 32.4853 26.7576 32.5875C26.779 32.5875 26.9237 32.5875 26.9275 32.6083L27.0017 32.8501C27.037 32.9967 27.0395 32.9942 26.9564 33.1115L26.6507 33.5402C26.5942 33.597 26.5554 33.6681 26.5387 33.7454C26.5223 33.9555 26.5072 34.1668 26.4921 34.3781C26.4902 34.3976 26.486 34.4169 26.4795 34.4355C28.4075 35.4025 30.6316 35.6568 32.7383 35.1512C32.7307 35.0841 32.7207 35.0169 32.7106 34.9497ZM34.7553 27.4991C34.7742 27.4649 34.8623 27.4832 34.8812 27.4857C34.9 27.4881 34.9768 27.449 35.007 27.4332C34.973 27.4625 34.9189 27.4869 34.9491 27.5406C34.9378 27.5467 34.6974 27.6127 34.7553 27.4991ZM33.7776 27.4283C33.8003 27.4474 33.8271 27.4613 33.8561 27.4689C33.8851 27.4765 33.9155 27.4777 33.945 27.4722C33.984 27.4722 34.0708 27.482 34.0708 27.5235C33.9637 27.5304 33.8562 27.518 33.7537 27.4869C33.7579 27.4661 33.766 27.4462 33.7776 27.4283ZM32.0273 26.4988C32.055 26.4815 32.0804 26.461 32.1028 26.4377C32.1217 26.4133 32.0928 26.3864 32.1255 26.3803C32.1375 26.4558 32.1284 26.533 32.0991 26.6038C32.0626 26.6026 31.9858 26.5305 32.0273 26.4988ZM31.9833 26.6869L32.0185 26.6991C32.05 26.6783 32.1872 26.6075 32.1721 26.7247C32.1645 26.7809 32.157 26.8383 32.1507 26.8957C32.1444 26.9531 32.0966 26.9214 32.094 26.9519C32.094 27.0057 32.0538 27.0008 32.0198 26.9702C31.9858 26.9397 32.0198 26.925 32.0299 26.8725C32.0299 26.864 32.0009 26.8481 32.0022 26.8396C32.0034 26.831 32.0374 26.7895 32.0336 26.7736C32.0248 26.7284 31.9607 26.7431 31.9833 26.6844V26.6869ZM31.4573 26.8774L31.3957 26.9263L31.3252 26.8725C31.3881 26.8359 31.4146 26.7968 31.4573 26.875V26.8774ZM32.2538 24.4737C32.2236 24.481 32.1758 24.4175 32.1708 24.3894C32.206 24.3699 32.2413 24.3589 32.2513 24.4004C32.2866 24.4053 32.2979 24.4627 32.2538 24.4712V24.4737ZM33.7336 23.863C33.6795 23.896 33.6078 23.9118 33.5738 23.9692C33.5812 23.9517 33.5825 23.9323 33.5775 23.914C33.5725 23.8957 33.5615 23.8795 33.5461 23.8679C33.6053 23.8421 33.6725 23.8394 33.7336 23.8605V23.863ZM33.375 23.5527H33.3561C33.3561 23.565 33.3561 23.5772 33.3624 23.5894C33.2655 23.5308 33.3662 23.4758 33.375 23.5503V23.5527ZM33.2492 23.9668C33.2227 24.001 33.1875 24.0254 33.2252 24.0657C33.1869 24.0816 33.1538 24.1073 33.1296 24.1402C33.1183 24.056 33.1296 23.9338 33.2441 23.9644L33.2492 23.9668ZM32.3306 24.3674C32.3422 24.363 32.3516 24.3545 32.357 24.3436C32.3623 24.3328 32.3633 24.3203 32.3595 24.3088C32.372 24.3064 32.3848 24.3064 32.3973 24.3088C32.3809 24.3406 32.3973 24.3564 32.4262 24.3589C32.3507 24.2135 32.6074 24.3515 32.4489 24.3833C32.464 24.3918 32.4715 24.4114 32.4854 24.4199C32.4212 24.4199 32.4275 24.481 32.4187 24.5348C32.4086 24.4883 32.4187 24.448 32.3696 24.4517C32.3205 24.4554 32.3155 24.3955 32.3256 24.365L32.3306 24.3674ZM36.6742 21.6974C36.7292 21.7049 36.7801 21.7298 36.8189 21.7683C36.7913 21.789 36.678 21.8904 36.6415 21.8489C36.5648 21.7744 36.5849 21.728 36.6692 21.695L36.6742 21.6974ZM32.7521 22.1213C32.7618 22.1089 32.7699 22.0953 32.776 22.0809C32.7559 22.0724 32.7622 22.0663 32.7446 22.0553C32.7874 22.0553 32.8176 22.0382 32.8163 21.9845C32.8213 22.0553 32.7899 22.0724 32.7471 22.1188L32.7521 22.1213ZM32.8339 22.0199C32.828 22.0009 32.8258 21.981 32.8276 21.9612C32.841 21.96 32.8545 21.96 32.8679 21.9612C32.883 21.9258 32.9069 21.9014 32.9421 21.9051C32.9006 21.9441 32.8654 21.9796 32.8289 22.0174L32.8339 22.0199ZM33.6656 21.4324C33.7122 21.4458 33.7047 21.4238 33.7424 21.4031C33.7424 21.4397 33.7135 21.4519 33.687 21.4763C33.6355 21.4763 33.5864 21.4983 33.5713 21.4275C33.6009 21.4217 33.6314 21.4225 33.6606 21.4299L33.6656 21.4324ZM33.5625 21.4996C33.6048 21.5017 33.6472 21.4976 33.6883 21.4873C33.7286 21.4666 33.7298 21.4238 33.7814 21.4226C33.7498 21.4605 33.7107 21.492 33.6664 21.515C33.6221 21.5381 33.5735 21.5524 33.5235 21.557C33.5574 21.5472 33.5788 21.5289 33.5574 21.4971L33.5625 21.4996ZM33.4366 21.5386C33.4366 21.5802 33.4266 21.596 33.3964 21.5741C33.3914 21.5634 33.3872 21.5523 33.3838 21.5411C33.4014 21.5363 33.4197 21.5346 33.4379 21.5362L33.4366 21.5386ZM33.3913 21.6022L33.2919 21.6473L33.2215 21.6693C33.258 21.6241 33.3435 21.5692 33.3926 21.5997L33.3913 21.6022ZM33.307 21.5838C33.3033 21.5952 33.2959 21.6051 33.2859 21.6122C33.276 21.6192 33.264 21.623 33.2517 21.6229C33.2383 21.618 33.2253 21.6122 33.2127 21.6058C33.2278 21.557 33.2731 21.5606 33.3083 21.5814L33.307 21.5838ZM33.1976 21.6083C33.2554 21.6278 33.2227 21.6449 33.1976 21.6803H33.1183C33.1475 21.6581 33.1745 21.6331 33.1988 21.6058L33.1976 21.6083ZM33.0441 21.6864C33.0818 21.6742 33.107 21.6596 33.1296 21.706C33.1032 21.7267 32.9811 21.8452 32.9874 21.7573C32.9925 21.695 32.9912 21.7011 33.0415 21.684L33.0441 21.6864ZM33.0088 21.8086L33.1007 21.7341L32.9686 21.8709C32.9572 21.8354 32.9723 21.811 33.0101 21.8122L33.0088 21.8086ZM32.9144 21.8183C32.9522 21.7951 32.9597 21.855 32.9497 21.8855C32.9354 21.8801 32.9196 21.88 32.9053 21.8855C32.8911 21.8909 32.8795 21.9014 32.8729 21.9148C32.8415 21.9539 32.8251 21.9393 32.7786 21.9307C32.8062 21.9014 32.7999 21.9148 32.805 21.877H32.8364C32.8238 21.8391 32.8364 21.8086 32.8792 21.8086C32.8729 21.8354 32.8691 21.8623 32.8641 21.8904C32.9056 21.8745 32.8905 21.8367 32.9157 21.822L32.9144 21.8183ZM32.9056 21.7402L32.8943 21.767C32.8729 21.7854 32.8503 21.8025 32.8276 21.8196C32.8138 21.7646 32.8679 21.7609 32.9069 21.7438L32.9056 21.7402ZM32.7723 21.7927C32.8125 21.8257 32.8226 21.8574 32.7723 21.888L32.6993 21.8733L32.7723 21.7927ZM32.7861 21.9087L32.6917 21.9674C32.6905 21.899 32.7383 21.9136 32.7899 21.9124L32.7861 21.9087ZM32.6099 21.9576C32.6326 21.938 32.6527 21.9344 32.6716 21.9576C32.6673 21.9703 32.6581 21.981 32.6459 21.9873C32.6337 21.9937 32.6195 21.9953 32.6062 21.9918L32.6099 21.9576ZM30.7024 23.7567L30.6835 23.7677C30.7049 23.7677 30.7162 23.7677 30.7351 23.7738C30.7099 23.7885 30.7049 23.7934 30.6772 23.7848C30.6772 23.7921 30.6772 23.7995 30.6709 23.8068L30.6545 23.7836C30.6571 23.7714 30.6646 23.7311 30.7036 23.7604L30.7024 23.7567ZM30.3727 24.0218L30.4054 24.0291C30.3941 24.0108 30.3928 23.9863 30.3815 23.968C30.3946 23.9623 30.4089 23.9599 30.4232 23.9609C30.4375 23.962 30.4513 23.9665 30.4633 23.9741C30.4478 23.9603 30.4334 23.9451 30.4205 23.9289L30.4306 23.9008H30.4645C30.4469 23.8593 30.491 23.8166 30.501 23.8679C30.5375 23.8508 30.5111 23.8544 30.535 23.8679C30.5845 23.8404 30.6422 23.83 30.6986 23.8386C30.6847 23.9131 30.5891 23.9253 30.5791 23.9741H30.54C30.5589 23.9781 30.5774 23.9834 30.5954 23.99C30.5778 24.001 30.569 24.0254 30.5539 24.0389L30.5652 24.0474C30.5891 24.001 30.798 23.9778 30.8295 24.023C30.8773 24.0938 30.6961 24.1891 30.7338 24.2673C30.7182 24.264 30.7019 24.2654 30.687 24.2713C30.6722 24.2771 30.6596 24.2872 30.6508 24.3002C30.7766 24.3173 30.8383 24.3296 30.8823 24.4664C30.9163 24.5738 31.0295 24.5885 31.0509 24.7106C31.0474 24.7037 31.0426 24.6976 31.0366 24.6926C31.0307 24.6875 31.0237 24.6837 31.0162 24.6813C31.0087 24.6789 31.0008 24.678 30.9929 24.6786C30.985 24.6793 30.9774 24.6814 30.9704 24.685C31.0232 24.685 31.1264 24.7717 31.0572 24.8193C31.0748 24.8389 31.2535 24.7693 31.2422 24.8719C31.2308 24.9745 31.178 25.0001 31.1025 25.0551C31.1327 25.0551 31.2862 25.0905 31.1868 25.1308C31.1203 25.1519 31.0521 25.1678 30.983 25.1784C30.9389 25.1882 30.9301 25.1467 30.8911 25.1442C30.8521 25.1418 30.8055 25.1858 30.7791 25.1992C30.6885 25.2419 30.6684 25.143 30.6193 25.2639C30.53 25.2016 30.4608 25.3274 30.3979 25.2847C30.4318 25.2456 30.5136 25.2077 30.5237 25.1626C30.5476 25.0734 30.6231 25.1039 30.6948 25.1137C30.703 25.0823 30.721 25.0541 30.7464 25.0331L30.6332 25.071C30.6256 25.071 30.5715 25.0416 30.5501 25.0416L30.5702 25.027C30.5187 24.9989 30.4746 25.0734 30.4444 25.0172C30.4455 25.0079 30.4455 24.9985 30.4444 24.9891C30.4734 24.9769 30.5501 24.9622 30.5702 24.9378C30.6055 24.889 30.5702 24.8767 30.5828 24.8254L30.5048 24.8401C30.5451 24.8132 30.5677 24.7803 30.5224 24.7448C30.5284 24.7419 30.5349 24.7403 30.5416 24.7401C30.5482 24.74 30.5549 24.7413 30.5609 24.744C30.567 24.7467 30.5723 24.7508 30.5766 24.7558C30.5808 24.7608 30.5838 24.7666 30.5853 24.7729C30.6206 24.7461 30.6533 24.7619 30.6936 24.7729L30.686 24.7448C30.7061 24.7558 30.7011 24.7448 30.7187 24.7656H30.7313C30.7135 24.7455 30.7029 24.7204 30.701 24.6939C30.6992 24.6675 30.7063 24.6412 30.7212 24.619C30.6558 24.6667 30.5954 24.5067 30.7061 24.4822C30.6432 24.4737 30.5891 24.5299 30.5451 24.5006C30.5614 24.5494 30.5174 24.514 30.4885 24.5006V24.5372C30.4281 24.492 30.4796 24.4847 30.496 24.4346C30.5124 24.3845 30.5061 24.3992 30.496 24.3564C30.4859 24.3137 30.4822 24.3137 30.5149 24.3112C30.5118 24.2974 30.5071 24.2838 30.501 24.2709C30.4645 24.3491 30.418 24.3039 30.4734 24.2599C30.4255 24.2783 30.4268 24.3198 30.4218 24.3589C30.4167 24.398 30.4218 24.4615 30.3878 24.4285C30.3702 24.4114 30.3878 24.4004 30.3966 24.3796C30.413 24.3369 30.3966 24.3369 30.3966 24.3039C30.3966 24.2709 30.4167 24.2025 30.4633 24.1818L30.452 24.1659C30.4205 24.194 30.4004 24.2306 30.3588 24.2062C30.4255 24.2453 30.3475 24.2758 30.3173 24.2477C30.3664 24.238 30.3651 24.2172 30.3173 24.2074C30.3324 24.1879 30.3689 24.1744 30.3727 24.161C30.3778 24.1316 30.3918 24.1044 30.413 24.0828L30.3865 24.0755L30.4054 24.067C30.384 24.056 30.3689 24.056 30.374 24.0254L30.3727 24.0218ZM30.4306 24.3454C30.4363 24.3459 30.4418 24.3479 30.4465 24.3512C30.4511 24.3545 30.4547 24.359 30.4569 24.3642C30.4592 24.3693 30.4599 24.375 30.459 24.3805C30.4581 24.386 30.4557 24.3912 30.452 24.3955C30.4395 24.383 30.4323 24.3665 30.4318 24.3491L30.4306 24.3454ZM30.4985 24.6264C30.4994 24.6134 30.504 24.6009 30.5117 24.5903C30.5195 24.5798 30.5302 24.5715 30.5426 24.5665C30.5478 24.5775 30.5483 24.5901 30.5441 24.6015C30.5398 24.6129 30.5312 24.6223 30.5199 24.6276L30.4985 24.6264ZM30.3588 24.3308C30.34 24.2917 30.3589 24.2734 30.3878 24.2795C30.3815 24.3002 30.3689 24.3173 30.3601 24.3344L30.3588 24.3308ZM30.301 24.3308C30.3117 24.319 30.325 24.3099 30.34 24.3039C30.3563 24.3332 30.3513 24.3564 30.3224 24.365C30.3136 24.3576 30.3324 24.3442 30.3022 24.3381L30.301 24.3308ZM30.301 24.117L30.3161 24.1073C30.3249 24.1195 30.3161 24.1231 30.3161 24.1305L30.301 24.117ZM30.3916 24.0731C30.3576 24.1427 30.2922 24.0645 30.2657 24.0303C30.2657 24.023 30.2733 24.0157 30.2796 24.0071L30.3085 24.0291C30.3079 24.0189 30.3079 24.0087 30.3085 23.9986C30.3261 23.9986 30.3299 24.0083 30.3387 24.0242C30.3337 24.0694 30.3576 24.0865 30.3991 24.0804L30.3916 24.0731ZM30.3136 23.8569C30.3349 23.8459 30.3412 23.9118 30.2934 23.9167L30.3098 23.9375C30.2771 23.9448 30.2645 23.9607 30.2368 23.9863L30.2242 23.9631L30.2456 23.9546C30.1827 23.9118 30.2834 23.8813 30.3186 23.8642L30.3136 23.8569ZM30.1802 24.0034C30.196 24.001 30.2121 24.001 30.228 24.0034C30.2183 24.0172 30.2116 24.0328 30.2084 24.0492C30.2051 24.0656 30.2054 24.0824 30.2091 24.0987C30.1726 24.0718 30.1965 24.0328 30.1928 24.0169C30.189 24.001 30.1827 24.0254 30.1852 24.0108L30.1802 24.0034ZM29.8467 24.9354C29.8623 24.9328 29.8772 24.9271 29.8904 24.9187C29.9036 24.9103 29.9149 24.8994 29.9235 24.8865C29.9424 24.8596 30.0065 24.8609 30.038 24.8548C29.9915 24.8465 29.9435 24.8512 29.8996 24.8682C29.9318 24.8278 29.9681 24.7906 30.0078 24.7571C29.9611 24.7527 29.9158 24.7394 29.8744 24.718C29.8895 24.7021 29.9298 24.6764 29.9235 24.652C29.9084 24.6019 29.8958 24.597 29.9398 24.5738C29.9637 24.5592 30.0015 24.5738 30.0267 24.5873C30.0518 24.6007 30.0833 24.5702 30.116 24.5457L30.038 24.5189C30.077 24.4554 30.1638 24.3674 30.2381 24.4138C30.2381 24.4236 30.2267 24.4334 30.2204 24.4419C30.2456 24.4419 30.311 24.4077 30.3274 24.4273C30.3438 24.4468 30.3664 24.525 30.4029 24.5128C30.3953 24.6019 30.3727 24.6032 30.301 24.6508C30.3195 24.67 30.3333 24.6931 30.3412 24.7183C30.349 24.7435 30.3508 24.7702 30.3463 24.7961C30.3337 24.834 30.3224 24.8719 30.311 24.9085C30.2997 24.9451 30.272 24.9195 30.2381 24.9293C30.1361 24.9561 29.9927 25.1161 29.8882 25.0294C29.9008 25.0233 29.9096 25.005 29.9222 24.9989L29.8455 24.9806C29.8654 24.972 29.8847 24.9622 29.9033 24.9513C29.8958 24.9561 29.8719 24.9451 29.8518 24.9427L29.8467 24.9354ZM23.7918 25.9125C23.7226 25.8807 23.6257 25.8649 23.6811 25.7635C23.6924 25.7879 23.7025 25.8123 23.7125 25.8356L23.929 25.8527C23.8862 25.9052 23.8673 25.9443 23.7968 25.9137L23.7918 25.9125ZM23.6383 25.3201C23.6983 25.3162 23.7585 25.3251 23.8146 25.3462C23.8707 25.3673 23.9213 25.4001 23.9629 25.4423C23.8774 25.5107 23.7138 25.3775 23.6433 25.3213L23.6383 25.3201ZM23.1853 29.7099C23.1501 29.7673 23.1601 29.7233 23.1086 29.7233C23.0381 29.7233 22.9953 29.7428 22.9337 29.7453C22.9223 29.7453 22.9135 29.7123 22.8783 29.7355C22.8431 29.7587 22.8594 29.8222 22.838 29.8296C22.7902 29.8454 22.7965 29.766 22.7789 29.7575C22.7613 29.7489 22.7135 29.7575 22.6858 29.7575C22.5964 29.7441 22.5675 29.7819 22.4945 29.7318C22.4693 29.6573 22.682 29.7416 22.7336 29.705C22.6807 29.6292 22.6895 29.6036 22.6078 29.5645C22.6895 29.5279 22.7122 29.5535 22.7965 29.5547C22.8225 29.5518 22.8479 29.5453 22.872 29.5352C22.8997 29.5205 22.9462 29.5499 22.9739 29.5584C23.0016 29.567 23.0142 29.5437 23.0356 29.5841C23.057 29.6244 23.0683 29.639 23.1249 29.65C23.1513 29.6561 23.2042 29.6867 23.1903 29.7111L23.1853 29.7099ZM23.3325 29.766C23.2948 29.6732 23.4319 29.716 23.4835 29.7196L23.5024 29.7392C23.4785 29.7807 23.3652 29.8332 23.3376 29.7673L23.3325 29.766ZM24.9683 25.7806C24.9356 25.827 24.9268 25.8258 24.8739 25.8062C24.8211 25.7867 24.8186 25.7806 24.8324 25.7085C24.7318 25.7159 24.7066 25.7794 24.6173 25.7989C24.615 25.7818 24.6194 25.7646 24.6297 25.7505C24.6399 25.7365 24.6553 25.7267 24.6726 25.7232C24.573 25.6764 24.4607 25.6615 24.3518 25.6804C24.3178 25.6804 24.2347 25.6951 24.2121 25.6584C24.2037 25.6118 24.2112 25.5638 24.2335 25.5217C24.3273 25.4361 24.4004 25.3314 24.4474 25.2151C24.4826 25.1332 24.5858 25.0074 24.6802 25.0453C24.6663 25.0771 24.65 25.1088 24.6349 25.1418C24.582 25.1882 24.5594 25.1955 24.5606 25.2639C24.5606 25.2859 24.6009 25.292 24.6185 25.3006C24.6361 25.3091 24.6349 25.3616 24.6374 25.3861C24.6764 25.3751 24.8123 25.3274 24.8437 25.3641C24.8752 25.4007 24.8941 25.4129 24.8853 25.4752C24.8853 25.496 24.9482 25.5119 24.957 25.5497C24.9658 25.5876 25.0136 25.7293 24.9784 25.7818L24.9683 25.7806ZM28.9559 22.9176C28.9043 22.9415 28.8452 22.945 28.791 22.9274C28.7582 22.9254 28.7259 22.9184 28.6954 22.9066C28.679 22.8968 28.6627 22.8468 28.6438 22.8492L28.4299 22.8761C28.4022 22.804 28.5117 22.8236 28.5343 22.7613H28.5054V22.7344C28.4689 22.7344 28.4538 22.7161 28.4802 22.688C28.4299 22.688 28.2827 22.7197 28.2701 22.655C28.3506 22.655 28.4412 22.6196 28.5305 22.622V22.5976C28.5163 22.6039 28.5005 22.6065 28.4849 22.6052C28.4693 22.604 28.4542 22.5988 28.4412 22.5903L28.5343 22.5463C28.4966 22.5378 28.4223 22.5036 28.3858 22.517C28.3103 22.5463 28.289 22.561 28.2147 22.5304C28.2411 22.517 28.2348 22.5072 28.2676 22.5121C28.2669 22.5003 28.2669 22.4885 28.2676 22.4767C28.289 22.4889 28.3254 22.5084 28.3393 22.484C28.3531 22.4596 28.2739 22.4596 28.3166 22.4083C28.3594 22.357 28.4676 22.4877 28.4551 22.3777C28.4173 22.3716 28.3871 22.3777 28.3758 22.3387C28.4613 22.3387 28.4576 22.3509 28.5243 22.4058C28.5368 22.4168 28.5872 22.4266 28.5897 22.4498C28.59 22.4559 28.5889 22.4619 28.5865 22.4674C28.584 22.473 28.5803 22.4779 28.5755 22.4818C28.5707 22.4857 28.5651 22.4885 28.5591 22.49C28.553 22.4914 28.5467 22.4914 28.5406 22.4901C28.561 22.5268 28.5837 22.5623 28.6086 22.5964C28.6216 22.5614 28.6367 22.5271 28.6539 22.4938C28.679 22.4547 28.7281 22.4938 28.6904 22.4095C28.7382 22.3997 28.7671 22.4547 28.7998 22.4889C28.7847 22.4474 28.7998 22.3973 28.8489 22.3985C28.898 22.3997 28.9168 22.4388 28.9508 22.4877L28.9357 22.3924C29.0238 22.4303 29.0477 22.3863 29.1383 22.3924C29.0842 22.2593 29.39 22.379 29.3258 22.4816C29.3761 22.4632 29.4101 22.4938 29.4516 22.5182C29.4743 22.5316 29.4416 22.5891 29.4843 22.6171C29.4478 22.6513 29.4202 22.7014 29.3698 22.6733C29.3698 22.7417 29.3321 22.7955 29.2692 22.7735C29.2264 22.7625 29.1433 22.8407 29.1031 22.8639L29.0049 22.8773C28.9861 22.8822 28.9936 22.9054 28.9659 22.9188L28.9559 22.9176Z" fill="url(#paint3_linear_357_168)"/>
<path d="M30.9484 35.4053C36.0461 35.4053 40.1786 31.5159 40.1786 26.718C40.1786 21.9202 36.0461 18.0308 30.9484 18.0308C25.8507 18.0308 21.7181 21.9202 21.7181 26.718C21.7181 31.5159 25.8507 35.4053 30.9484 35.4053Z" stroke="#6D7BBC" stroke-width="0.141876" stroke-miterlimit="10"/>
<path opacity="0.8" d="M32.9763 28.9214C33.2661 28.9214 33.501 28.6871 33.501 28.398C33.501 28.1089 33.2661 27.8745 32.9763 27.8745C32.6866 27.8745 32.4517 28.1089 32.4517 28.398C32.4517 28.6871 32.6866 28.9214 32.9763 28.9214Z" fill="#2C386B"/>
<path d="M32.9763 28.7888C33.1926 28.7888 33.368 28.6138 33.368 28.398C33.368 28.1823 33.1926 28.0073 32.9763 28.0073C32.76 28.0073 32.5847 28.1823 32.5847 28.398C32.5847 28.6138 32.76 28.7888 32.9763 28.7888Z" fill="white"/>
<path d="M48.8039 37.6234V37.4039C48.9189 37.3847 49.0312 37.3518 49.1384 37.3059C49.2074 37.2741 49.2647 37.2216 49.3025 37.1558C49.3419 37.0757 49.3602 36.9869 49.3559 36.8978C49.3548 36.7873 49.3427 36.6772 49.3199 36.5691C49.2963 36.4512 49.2615 36.321 49.2167 36.1721L49.0501 35.5941H46.9588L46.8059 36.0332C46.7451 36.1975 46.694 36.3653 46.653 36.5356C46.6304 36.637 46.6184 36.7405 46.6169 36.8444C46.6108 36.9162 46.6199 36.9884 46.6437 37.0564C46.6674 37.1244 46.7054 37.1866 46.7549 37.2389C46.8752 37.3339 47.021 37.3913 47.1739 37.4039V37.6234H45.2617V37.4039C45.3505 37.3869 45.4349 37.3524 45.5101 37.3023C45.5853 37.2523 45.6496 37.1877 45.6993 37.1124C45.8517 36.8912 45.9734 36.6504 46.0611 36.3967L47.9336 31.4351H48.6423L50.1691 36.4289C50.2224 36.6097 50.2859 36.7874 50.3593 36.961C50.4048 37.0697 50.473 37.1674 50.5595 37.2476C50.6514 37.3238 50.7607 37.3762 50.8778 37.4001V37.6234H48.8039ZM47.0794 35.2046H48.9568L48.1039 32.3157L47.0794 35.2046ZM57.9125 31.7228C57.8138 31.744 57.7182 31.7774 57.6278 31.8221C57.5723 31.8521 57.5247 31.8945 57.4885 31.9461C57.4474 32.0139 57.4211 32.0895 57.4114 32.1681C57.3924 32.3195 57.3845 32.4721 57.3878 32.6246V36.4984C57.3848 36.645 57.3914 36.7917 57.4077 36.9375C57.4162 37.0142 57.439 37.0886 57.4748 37.157C57.5082 37.2135 57.5563 37.2598 57.6141 37.291C57.7085 37.3395 57.8088 37.3758 57.9125 37.3989V37.6234H56.04V37.4039C56.167 37.3807 56.2879 37.3321 56.3956 37.2612C56.4662 37.1993 56.5135 37.1153 56.5299 37.0231C56.5591 36.8514 56.5711 36.6773 56.566 36.5033V34.7817C56.566 34.3318 56.5726 33.877 56.5859 33.4172C56.5991 32.9574 56.6149 32.642 56.6331 32.4708H56.5573L54.7793 36.9089H54.2633L52.611 32.3989H52.5339C52.5488 32.5816 52.5633 32.9124 52.5774 33.3912C52.5915 33.87 52.5981 34.3612 52.5973 34.8648V36.5033C52.5943 36.65 52.6009 36.7967 52.6172 36.9424C52.6257 37.0192 52.6484 37.0936 52.6843 37.162C52.7181 37.2181 52.7661 37.2643 52.8236 37.296C52.9182 37.344 53.0184 37.3803 53.122 37.4039V37.6234H51.4783V37.4039C51.6131 37.3799 51.7407 37.3256 51.8513 37.2451C51.9188 37.1782 51.9625 37.091 51.9756 36.997C51.9982 36.8326 52.0078 36.6667 52.0042 36.5009V32.6234C52.0073 32.4729 51.9999 32.3225 51.9818 32.1731C51.9728 32.0955 51.9474 32.0207 51.9072 31.9535C51.8728 31.9014 51.8258 31.8587 51.7705 31.8295C51.6767 31.7851 51.5789 31.7498 51.4783 31.7241V31.5045H53.0822L54.6575 35.8633L56.3907 31.5045H57.9075L57.9125 31.7228ZM62.0291 37.6234V37.4039C62.1441 37.3847 62.2564 37.3518 62.3636 37.3059C62.4326 37.2741 62.49 37.2216 62.5277 37.1558C62.5671 37.0757 62.5854 36.9869 62.5811 36.8978C62.5806 36.7873 62.5685 36.6771 62.5451 36.5691C62.5215 36.4512 62.4867 36.321 62.4419 36.1721L62.2765 35.5941H60.1815L60.0286 36.0332C59.9681 36.1975 59.9174 36.3653 59.8769 36.5356C59.8538 36.6369 59.8417 36.7405 59.8409 36.8444C59.8346 36.9161 59.8435 36.9883 59.867 37.0562C59.8906 37.1242 59.9283 37.1864 59.9776 37.2389C60.0979 37.3339 60.2437 37.3913 60.3966 37.4039V37.6234H58.4832V37.4039C58.5718 37.3867 58.6562 37.352 58.7313 37.302C58.8065 37.2519 58.8709 37.1875 58.9208 37.1124C59.0723 36.8908 59.1936 36.6501 59.2814 36.3967L61.1538 31.4351H61.8625L63.3893 36.4289C63.4424 36.61 63.5063 36.7876 63.5808 36.961C63.6259 37.0696 63.6937 37.1673 63.7797 37.2476C63.8719 37.3241 63.9817 37.3765 64.0992 37.4001V37.6234H62.0291ZM60.3059 35.1984H62.182L61.3291 32.3095L60.3059 35.1984ZM68.3328 35.1947C68.4397 35.3733 68.5304 35.5296 68.6038 35.6648C68.6772 35.8 68.753 35.9501 68.8301 36.1163H68.8848C68.8699 35.9352 68.8566 35.5735 68.845 35.031C68.8334 34.4885 68.8272 33.9994 68.8264 33.5636V32.6234C68.8285 32.4722 68.8227 32.3211 68.8089 32.1706C68.8025 32.0938 68.7805 32.0191 68.7443 31.9511C68.7133 31.9004 68.6707 31.8579 68.62 31.827C68.5272 31.7823 68.4301 31.7469 68.3303 31.7216V31.502H69.9466V31.7216C69.8484 31.7444 69.7529 31.7777 69.6619 31.8208C69.6082 31.8486 69.5618 31.8885 69.5263 31.9374C69.4853 32.0026 69.4586 32.0758 69.448 32.152C69.4262 32.3077 69.4171 32.4649 69.4207 32.6221V37.6433H68.8599L66.3596 33.4594C66.2046 33.2006 66.0939 33.0112 66.0276 32.8913C65.9617 32.7672 65.9033 32.6531 65.8436 32.5365H65.7665C65.7881 32.7672 65.803 33.1832 65.8113 33.7844C65.8196 34.3856 65.8241 34.9851 65.825 35.583V36.4959C65.8226 36.6425 65.8293 36.7892 65.8449 36.935C65.8531 37.0119 65.8764 37.0865 65.9132 37.1545C65.9463 37.2112 65.9945 37.2576 66.0525 37.2885C66.1469 37.3371 66.2472 37.3733 66.3509 37.3964V37.6234H64.7097V37.4039C64.8445 37.3799 64.9721 37.3256 65.0827 37.2451C65.1502 37.1782 65.1939 37.091 65.207 36.997C65.2297 36.8326 65.2392 36.6667 65.2356 36.5009V32.6234C65.2388 32.4729 65.2313 32.3225 65.2133 32.1731C65.204 32.0957 65.179 32.021 65.1399 31.9535C65.1048 31.9016 65.0574 31.859 65.0019 31.8295C64.9086 31.785 64.8111 31.7497 64.711 31.7241V31.5045H66.1159L68.3328 35.1947ZM73.0101 37.6234V37.4039C73.1448 37.3794 73.2722 37.3251 73.3831 37.2451C73.4503 37.1779 73.4939 37.0909 73.5075 36.997C73.5307 36.8327 73.5403 36.6667 73.536 36.5009V32.6234C73.5392 32.4729 73.5317 32.3225 73.5137 32.1731C73.5044 32.0957 73.4794 32.021 73.4403 31.9535C73.4053 31.9019 73.3584 31.8593 73.3035 31.8295C73.2098 31.7851 73.1119 31.7498 73.0114 31.7241V31.5045H75.4669C75.8553 31.4921 76.243 31.5437 76.6145 31.6571C76.8712 31.7361 77.0965 31.8936 77.2586 32.1074C77.4072 32.3351 77.4807 32.6036 77.4687 32.8752C77.4758 33.0961 77.4304 33.3156 77.3362 33.5156C77.2419 33.7157 77.1016 33.8907 76.9266 34.0263C76.735 34.1686 76.5261 34.2861 76.3049 34.376V34.4157C76.6629 34.5078 76.9849 34.7054 77.2287 34.9826C77.4391 35.2394 77.5507 35.5627 77.5433 35.8943C77.5583 36.2451 77.4636 36.5919 77.2722 36.8866C77.0845 37.1486 76.818 37.3441 76.5113 37.4448C76.1285 37.5685 75.7275 37.6268 75.3252 37.6172L73.0101 37.6234ZM75.1598 34.2508C75.6149 34.2508 75.963 34.1412 76.2042 33.9221C76.4454 33.7029 76.566 33.3841 76.566 32.9657C76.5723 32.789 76.5374 32.6132 76.4641 32.4522C76.4015 32.322 76.3059 32.2104 76.1868 32.1284C76.0595 32.0439 75.9167 31.9853 75.7666 31.956C75.5936 31.9202 75.4173 31.9027 75.2406 31.9039C75.1275 31.9039 74.9783 31.9039 74.7918 31.9126C74.6053 31.9213 74.4673 31.925 74.3753 31.9312V34.2508H75.1598ZM74.3753 37.198C74.5933 37.2186 74.837 37.229 75.1064 37.229C75.4179 37.2434 75.7291 37.1932 76.0202 37.0814C76.2237 36.9954 76.3904 36.8408 76.4914 36.6447C76.5956 36.4182 76.6454 36.1706 76.6369 35.9216C76.6467 35.6729 76.5918 35.4259 76.4777 35.2046C76.3652 35.0117 76.1896 34.8633 75.9804 34.7841C75.6868 34.6795 75.3757 34.6323 75.0641 34.6452H74.3691L74.3753 37.198ZM81.5443 37.6234V37.4039C81.6593 37.3847 81.7716 37.3518 81.8787 37.3059C81.9478 37.2741 82.0051 37.2216 82.0429 37.1558C82.0822 37.0757 82.1006 36.9869 82.0963 36.8978C82.0951 36.7873 82.0831 36.6772 82.0603 36.5691C82.0366 36.4512 82.0018 36.321 81.9571 36.1721L81.7917 35.5941H79.7017L79.5488 36.0332C79.4885 36.1977 79.4375 36.3654 79.3958 36.5356C79.3737 36.6371 79.362 36.7406 79.361 36.8444C79.3547 36.9161 79.3636 36.9883 79.3872 37.0562C79.4108 37.1242 79.4484 37.1864 79.4978 37.2389C79.6181 37.3339 79.7639 37.3913 79.9168 37.4039V37.6234H77.9971V37.4039C78.086 37.3868 78.1706 37.3522 78.2459 37.3022C78.3213 37.2521 78.3859 37.1876 78.436 37.1124C78.5875 36.8908 78.7087 36.6501 78.7965 36.3967L80.669 31.4351H81.3777L82.9045 36.4289C82.9578 36.6097 83.0213 36.7874 83.0947 36.961C83.1402 37.0708 83.2084 37.1697 83.2949 37.2513C83.3868 37.3275 83.4961 37.3799 83.6132 37.4039V37.6234H81.5443ZM79.826 35.1984H81.7034L80.8505 32.3095L79.826 35.1984ZM87.8467 35.1947C87.9548 35.3733 88.0456 35.5296 88.119 35.6648C88.1923 35.8 88.2682 35.9501 88.3452 36.1163H88.4049C88.39 35.9352 88.3767 35.5735 88.3651 35.031C88.3535 34.4885 88.3473 33.9994 88.3465 33.5636V32.6234C88.3487 32.4722 88.3429 32.3211 88.3291 32.1706C88.3229 32.0936 88.3004 32.0188 88.2632 31.9511C88.2326 31.9001 88.1899 31.8575 88.1389 31.827C88.0461 31.7823 87.949 31.7469 87.8492 31.7216V31.502H89.4655V31.7216C89.367 31.7447 89.2711 31.7779 89.1795 31.8208C89.1264 31.849 89.0805 31.8888 89.0452 31.9374C89.0037 32.0024 88.977 32.0756 88.9669 32.152C88.9451 32.3077 88.9359 32.4649 88.9396 32.6221V37.6433H88.3788L85.8785 33.4594C85.7218 33.2006 85.6112 33.0112 85.5465 32.8913C85.4806 32.7672 85.4222 32.6531 85.3613 32.5365H85.2854C85.3062 32.7672 85.3211 33.1832 85.3302 33.7844C85.3393 34.3856 85.3439 34.9851 85.3439 35.583V36.4959C85.3409 36.6425 85.3475 36.7892 85.3638 36.935C85.372 37.0119 85.3953 37.0865 85.4321 37.1545C85.4651 37.2109 85.5128 37.2572 85.5702 37.2885C85.6648 37.3366 85.765 37.3729 85.8685 37.3964V37.6234H84.2249V37.4039C84.3597 37.3799 84.4872 37.3256 84.5979 37.2451C84.6654 37.1782 84.7091 37.091 84.7222 36.997C84.7448 36.8326 84.7544 36.6667 84.7508 36.5009V32.6234C84.7539 32.4729 84.7464 32.3225 84.7284 32.1731C84.7194 32.0955 84.694 32.0207 84.6538 31.9535C84.6194 31.9014 84.5724 31.8587 84.5171 31.8295C84.4238 31.785 84.3263 31.7497 84.2261 31.7241V31.5045H85.6311L87.8467 35.1947ZM91.8601 34.2669H91.9956C92.1021 34.2683 92.2078 34.2502 92.3077 34.2136C92.4235 34.1641 92.5302 34.0958 92.6235 34.0114C92.8131 33.8392 92.9917 33.6552 93.1581 33.4606C93.4453 33.1419 93.6418 32.9099 93.7462 32.7672C93.8539 32.6366 93.943 32.4917 94.0111 32.3368C94.045 32.2584 94.0632 32.1741 94.0645 32.0888C94.069 32.0401 94.062 31.9911 94.0441 31.9457C94.0262 31.9002 93.9978 31.8596 93.9613 31.827C93.8792 31.7664 93.7811 31.731 93.6791 31.7253V31.5058H95.6361V31.7253C95.537 31.7478 95.4419 31.785 95.3539 31.8357C95.2505 31.8959 95.1545 31.9679 95.0679 32.0503C94.9709 32.1421 94.8283 32.2922 94.6402 32.5006L93.1295 34.1912L94.7645 36.5604C94.8864 36.7461 95.0227 36.922 95.1723 37.0863C95.2548 37.1738 95.3504 37.2479 95.4558 37.3059C95.5458 37.3521 95.6428 37.3831 95.743 37.3977V37.6234H93.7636V37.4039C93.8482 37.4023 93.9312 37.3811 94.0061 37.3418C94.0309 37.326 94.0511 37.3039 94.0646 37.2777C94.0782 37.2516 94.0846 37.2224 94.0832 37.193C94.0793 37.1252 94.0615 37.0589 94.031 36.9983C93.985 36.9015 93.93 36.8094 93.8668 36.7229L92.8212 35.1687C92.7404 35.0386 92.6507 34.9142 92.5526 34.7965C92.5003 34.7408 92.4373 34.6961 92.3674 34.6651C92.2833 34.6331 92.1937 34.6183 92.1038 34.6216H91.8651V36.4984C91.8621 36.645 91.8687 36.7917 91.885 36.9375C91.8933 37.0144 91.9165 37.089 91.9534 37.157C91.9863 37.2134 92.034 37.2597 92.0914 37.291C92.1864 37.3393 92.287 37.3755 92.391 37.3989V37.6234H90.4999V37.4039C90.6347 37.3799 90.7623 37.3256 90.8729 37.2451C90.941 37.1786 90.9847 37.0912 90.9972 36.997C91.021 36.8327 91.031 36.6668 91.0271 36.5009V32.6234C91.0302 32.4729 91.0227 32.3225 91.0047 32.1731C90.9957 32.0955 90.9702 32.0207 90.9301 31.9535C90.8957 31.9014 90.8486 31.8587 90.7934 31.8295C90.6996 31.7851 90.6017 31.7498 90.5012 31.7241V31.5045H92.3923V31.7241C92.2932 31.7453 92.1972 31.7787 92.1063 31.8233C92.0509 31.8533 92.0032 31.8958 91.967 31.9473C91.9251 32.0137 91.8976 32.0881 91.8862 32.1657C91.8666 32.317 91.8583 32.4696 91.8614 32.6221L91.8601 34.2669Z" fill="#102440"/>
<path d="M96.5213 24.0661C96.479 24.1703 96.4454 24.2633 96.4044 24.3527C96.3073 24.5902 96.1413 24.7934 95.9278 24.9363C95.7143 25.0793 95.463 25.1555 95.2059 25.1552C94.1707 25.2105 93.1327 25.1296 92.1187 24.9146C92.0063 24.8912 91.89 24.8946 91.7793 24.9245C90.7846 25.1912 89.7899 25.2619 88.7791 25.0212C88.756 25.0168 88.7332 25.011 88.7107 25.0039C88.3949 24.9084 88.3912 24.9059 88.2134 25.1812C88.0356 25.4566 87.874 25.7394 87.7037 26.021C87.5358 25.9937 87.5035 25.9044 87.5545 25.7506C87.6664 25.4132 87.7695 25.0733 87.8678 24.731C87.8759 24.7015 87.8772 24.6705 87.8716 24.6404C87.866 24.6104 87.8536 24.5819 87.8354 24.5573C87.4407 24.2515 87.183 23.8026 87.1181 23.3082C86.4591 23.5675 85.8175 23.818 85.1797 24.0748C85.1562 24.0899 85.137 24.1106 85.1237 24.1352C85.1104 24.1597 85.1036 24.1871 85.1039 24.215C85.2195 24.6838 85.1511 25.1552 85.1461 25.6278C85.1312 26.7876 84.5083 27.5814 83.5982 28.2004C83.3519 28.3764 83.0671 28.4913 82.7674 28.5356C82.4677 28.5798 82.1618 28.5521 81.875 28.4547C81.378 28.2891 80.9095 28.0481 80.4862 27.7402C80.5086 27.6918 80.526 27.6509 80.5459 27.6162C80.5657 27.5814 80.5869 27.5454 80.6018 27.5206C80.8505 27.5789 81.0991 27.6447 81.3391 27.6893C81.7643 27.7529 82.1989 27.698 82.5948 27.5306C83.4085 27.2115 84.0885 26.6246 84.522 25.8672C84.7794 25.433 84.7769 25.0299 84.4325 24.6454C84.4238 24.6367 84.42 24.6255 84.4101 24.6181C84.103 24.3799 84.1229 24.0847 84.2248 23.7498C84.3753 23.2537 84.3579 23.2437 84.8465 23.0651C85.6348 22.7711 86.4255 22.4859 87.2163 22.1968C87.2859 22.1708 87.358 22.1534 87.4426 22.1274C87.5271 22.8344 87.823 23.3777 88.4646 23.6729C88.8027 23.2264 89.1198 22.7773 89.4679 22.3531C89.8571 21.8674 90.3233 21.4484 90.848 21.1127C91.1006 20.943 91.3854 20.8267 91.6847 20.7711C91.9841 20.7154 92.2917 20.7215 92.5887 20.789C92.8219 20.8422 93.0424 20.9408 93.2374 21.0792C93.4324 21.2175 93.5981 21.3928 93.7252 21.5951C93.8522 21.7975 93.938 22.0228 93.9777 22.2582C94.0173 22.4936 94.0101 22.7345 93.9563 22.9671C93.8792 23.3392 93.7375 23.689 93.6219 24.0599C93.6467 24.0599 93.6952 24.0686 93.7462 24.0686C94.1727 24.0686 94.5991 24.0624 95.0243 24.0686C95.2365 24.082 95.4482 24.0355 95.6352 23.9343C95.8221 23.8332 95.9767 23.6815 96.0812 23.4968C96.241 23.2214 96.3722 22.9305 96.4728 22.6285C96.6335 22.1179 96.9543 21.6722 97.3879 21.3571C98.0095 20.9155 98.6784 21.0085 99.1584 21.6052C99.5898 22.1398 99.7552 22.7811 99.8944 23.4372C99.9901 23.8254 99.9364 24.2352 99.744 24.5859C99.5674 24.9059 99.3212 25.082 98.9371 25.0572C98.3576 25.0143 97.7958 24.8395 97.2946 24.5462C97.0398 24.401 96.7923 24.2348 96.5213 24.0661ZM88.9482 23.8974C89.0328 23.9222 89.0912 23.9458 89.1521 23.957C90.3006 24.1784 91.4873 24.0954 92.5936 23.7163C92.7945 23.6382 92.984 23.5335 93.1569 23.405C93.1998 23.3812 93.2376 23.3492 93.2681 23.3108C93.2986 23.2724 93.3212 23.2283 93.3346 23.1812C93.348 23.1341 93.3519 23.0848 93.3462 23.0361C93.3404 22.9874 93.3251 22.9404 93.3011 22.8977C93.217 22.7004 93.1056 22.5159 92.9704 22.3494C92.4594 21.7949 91.6537 21.6796 90.9027 22.048C90.0685 22.4586 89.5102 23.1619 88.9482 23.8974ZM98.9731 23.9793C99.0487 23.9818 99.1243 23.9747 99.1982 23.9582C99.2367 23.9446 99.2902 23.8726 99.2827 23.8342C99.172 23.307 99.0179 22.7935 98.6349 22.3879C98.4856 22.2097 98.2737 22.0952 98.0425 22.068C97.8113 22.0408 97.5784 22.1028 97.3916 22.2415C97.2263 22.3769 97.0781 22.5319 96.9502 22.7029C96.8383 22.827 96.8682 22.9436 96.9888 23.0614C97.5433 23.6072 98.2271 23.8627 98.9731 23.9793ZM72.141 20.531L72.4668 20.6736C72.3996 20.9862 72.3176 21.2839 72.2753 21.5878C72.1422 22.5454 72.5525 23.3541 73.3943 23.8329C73.9283 24.1159 74.5185 24.2773 75.1225 24.3055C76.6799 24.4297 78.2462 24.2308 79.7228 23.7213C79.9313 23.6448 80.1359 23.5578 80.3357 23.4608C80.4063 23.4357 80.4692 23.393 80.5185 23.3368C80.5565 23.2698 80.5722 23.1924 80.5633 23.116C80.5633 23.0936 80.4601 23.0626 80.4066 23.0651C79.8396 23.0999 79.2714 23.1209 78.7132 22.9845C78.1549 22.848 77.7086 22.5727 77.5407 21.9773C77.2772 21.0445 77.869 19.8078 78.7642 19.4332C78.9549 19.3472 79.1662 19.3171 79.3734 19.3466C79.5806 19.376 79.7751 19.4637 79.9341 19.5994C80.1987 19.8144 80.4112 20.0862 80.5558 20.3945C81.0656 21.3624 81.269 22.4619 81.1389 23.5476C81.124 23.7378 81.0585 23.9206 80.9493 24.0771C80.84 24.2337 80.6909 24.3583 80.5173 24.4382C79.8434 24.7818 79.1222 24.9729 78.3949 25.1453C77.2983 25.4045 76.1905 25.572 75.0578 25.4789C74.4198 25.4462 73.7931 25.297 73.209 25.0386C72.0614 24.4903 71.4982 23.4186 71.6586 22.1137C71.7169 21.5603 71.8806 21.0231 72.141 20.531ZM80.4103 22.0691C80.2636 21.5035 80.0485 21.0135 79.5984 20.6649C79.4875 20.581 79.3608 20.5203 79.2258 20.4864C79.0909 20.4524 78.9504 20.4459 78.8129 20.4674C78.6754 20.4888 78.5436 20.5376 78.4254 20.611C78.3072 20.6844 78.2051 20.7808 78.1251 20.8944C78.0419 20.9947 78.0015 21.1236 78.0127 21.2533C78.0238 21.383 78.0856 21.5031 78.1848 21.5878C78.3158 21.7024 78.4672 21.7916 78.6311 21.8508C79.1956 22.0492 79.7862 22.0604 80.4103 22.0691ZM50.7161 16.4761C50.726 16.589 50.7434 16.7019 50.7459 16.8147C50.7849 18.8639 50.8214 20.9122 50.8553 22.9597C50.8665 23.6456 51.1662 23.9967 51.8562 24.0612C52.1346 24.0847 52.4146 24.0847 52.693 24.0612C52.8667 24.0488 53.0346 23.9931 53.1812 23.8993C53.3278 23.8054 53.4485 23.6764 53.5322 23.5241C53.6959 23.2357 53.8328 22.933 53.9413 22.6198C54.1041 22.1103 54.426 21.666 54.8601 21.3521C55.4817 20.918 56.1419 21.0098 56.6181 21.6002C57.0521 22.1336 57.2187 22.7749 57.3641 23.4298C57.4652 23.8292 57.4082 24.2521 57.205 24.6107C57.0309 24.9146 56.791 25.082 56.4205 25.0622C55.8349 25.0213 55.2669 24.8446 54.7619 24.5462C54.5033 24.401 54.2558 24.2361 53.991 24.0711C53.9574 24.1542 53.9251 24.2336 53.8915 24.3117C53.7974 24.5639 53.6274 24.7808 53.4047 24.9327C53.1821 25.0846 52.9179 25.164 52.6482 25.1602C52.3168 25.1797 51.9843 25.1751 51.6536 25.1465C50.7323 25.0473 50.179 24.4631 50.1218 23.534C50.0895 22.987 50.1031 22.4362 50.0795 21.8892C50.0186 20.4491 49.9552 19.009 49.8781 17.5689C49.862 17.47 49.8711 17.3686 49.9046 17.2741C49.938 17.1796 49.9948 17.095 50.0696 17.0281C50.2735 16.8482 50.46 16.6485 50.6527 16.4575L50.7161 16.4761ZM56.4354 23.9756C56.511 23.9781 56.5866 23.9711 56.6604 23.9545C56.7002 23.9421 56.7549 23.8701 56.7487 23.8304C56.6343 23.2909 56.4789 22.7662 56.0773 22.3593C55.9423 22.2109 55.762 22.1112 55.5643 22.0758C55.3666 22.0403 55.1627 22.0711 54.9844 22.1633C54.7367 22.2856 54.5327 22.4809 54.4001 22.7228C54.382 22.7448 54.3685 22.7703 54.3604 22.7977C54.3524 22.825 54.3499 22.8537 54.3531 22.8821C54.3564 22.9104 54.3653 22.9378 54.3793 22.9626C54.3934 22.9875 54.4122 23.0092 54.4349 23.0267C54.9782 23.6072 55.672 23.8553 56.4316 23.9793L56.4354 23.9756ZM62.8733 16.4984C62.8173 17.2427 63.1978 17.8406 63.5559 18.4645C63.4216 18.5774 63.2811 18.6815 63.1593 18.8031C63.1009 18.8596 63.0655 18.9356 63.0598 19.0165C63.0735 19.9802 63.1021 20.9428 63.112 21.9053C63.104 22.5488 62.9776 23.1854 62.739 23.7833C62.4033 24.6913 61.7033 25.175 60.8293 25.4727C59.99 25.7568 59.157 25.6687 58.3227 25.4566C58.1424 25.4107 57.9634 25.3561 57.7856 25.2991C57.7408 25.2778 57.699 25.2507 57.6613 25.2185L57.6737 25.1701C57.9124 25.1304 58.1524 25.0944 58.3899 25.0522C59.3845 24.8786 60.358 24.6454 61.2644 24.184C61.4385 24.0959 61.4621 23.9967 61.3788 23.8478C61.196 23.5216 61.0282 23.1867 60.8218 22.8766C60.0124 21.6684 59.1881 20.4714 58.3774 19.2645C58.2021 19.004 58.0579 18.7225 57.9087 18.4459C57.8558 18.3506 57.829 18.2431 57.831 18.1343C57.833 18.0254 57.8636 17.919 57.9199 17.8257L58.2146 17.2973C58.2568 17.3159 58.2767 17.3196 58.2867 17.3307C58.7069 17.7785 59.1222 18.2288 59.5462 18.6729C59.6257 18.756 59.6469 18.8217 59.5723 18.9085C59.3609 19.1492 59.4193 19.3563 59.5922 19.6106C60.0895 20.3437 60.5532 21.0991 61.0357 21.8433C61.4348 22.4635 61.7605 23.0986 61.7319 23.9036C61.7987 23.8638 61.8627 23.8195 61.9234 23.7709C62.33 23.3988 62.4742 22.9188 62.4617 22.3965C62.4456 21.6672 62.4033 20.9378 62.3498 20.211C62.2914 19.4134 62.2069 18.6183 62.1348 17.8219C62.1133 17.6564 62.1286 17.4881 62.1795 17.3291C62.2304 17.17 62.3157 17.0241 62.4294 16.9016C62.5538 16.7626 62.6868 16.625 62.8161 16.486L62.8733 16.4984ZM47.2895 20.2395C47.4511 20.6116 47.6128 20.9267 47.7383 21.2616C48.1884 22.4573 48.3463 23.6779 48.0417 24.9369C47.9292 25.4608 47.6324 25.9272 47.205 26.2517C46.4204 26.8446 45.5613 27.2006 44.5592 27.156C43.9451 27.1452 43.3587 26.8998 42.9207 26.4702C42.4828 26.0407 42.2268 25.4599 42.2056 24.8476C42.1468 23.8977 42.3976 22.9544 42.9205 22.1584C42.9802 22.1882 43.0361 22.2142 43.0908 22.244C43.1455 22.2737 43.1903 22.3023 43.2151 22.3159C43.0833 22.724 42.9279 23.1098 42.8421 23.5104C42.5674 24.7074 43.2748 25.7233 44.5007 25.8846C45.6334 26.0334 46.5733 25.6166 47.3703 24.8327C47.4424 24.7601 47.4959 24.6712 47.5262 24.5736C47.5565 24.476 47.5627 24.3726 47.5444 24.272C47.4341 23.3012 47.1329 22.3616 46.6579 21.5072C46.6265 21.4636 46.6101 21.411 46.6113 21.3573C46.6124 21.3036 46.6309 21.2517 46.6641 21.2095C46.832 20.9502 46.9874 20.6823 47.1502 20.4193C47.1934 20.357 47.2399 20.2969 47.2895 20.2395ZM65.3438 25.4169C65.309 25.3177 65.2679 25.2581 65.2741 25.2048C65.3769 24.1765 65.3964 23.1415 65.3326 22.11C65.2642 20.6302 65.1486 19.1529 65.0566 17.6743C65.0527 17.6125 65.0722 17.5514 65.1113 17.5032C65.3313 17.2551 65.5576 17.007 65.7851 16.7664C65.8229 16.7359 65.8648 16.7109 65.9095 16.6919C65.9373 16.7396 65.9582 16.791 65.9716 16.8445C66.0114 17.3556 66.0686 17.8678 66.0798 18.3801C66.1171 20.0311 66.1395 21.6821 66.1619 23.333C66.16 23.5839 66.1438 23.8345 66.1134 24.0835C66.0624 24.6169 65.7217 24.989 65.3438 25.4169ZM60.0497 15.8137C59.9353 16.006 59.8359 16.1859 59.7264 16.3508C59.694 16.3854 59.6495 16.4063 59.6021 16.4091C58.8692 16.5287 58.1544 16.7405 57.4748 17.0393C57.5153 16.8912 57.5875 16.7536 57.6865 16.636C57.7854 16.5185 57.9088 16.4237 58.048 16.3583C57.9381 16.3059 57.8311 16.2479 57.7272 16.1846C57.5963 16.1044 57.4972 15.9817 57.4465 15.8371C57.3957 15.6925 57.3965 15.5349 57.4487 15.3908C57.6153 14.8946 58.2494 14.417 58.7654 14.3885C58.8414 14.3839 58.9178 14.3881 58.9929 14.4009C59.0605 14.4075 59.1256 14.4303 59.1824 14.4675C59.2393 14.5048 59.2862 14.5552 59.3191 14.6146C59.352 14.6739 59.3699 14.7403 59.3714 14.8081C59.3728 14.8759 59.3577 14.9431 59.3273 15.0038C59.2632 15.1283 59.1896 15.2477 59.1073 15.361C59.086 15.3466 59.066 15.3304 59.0476 15.3126C58.9971 15.2305 58.9293 15.1604 58.8488 15.1072C58.7684 15.0539 58.6772 15.0189 58.5818 15.0045C58.4863 14.9901 58.3889 14.9966 58.2963 15.0237C58.2036 15.0508 58.118 15.0978 58.0455 15.1613C58.0195 15.1788 57.998 15.2022 57.9828 15.2295C57.9677 15.2569 57.9593 15.2875 57.9583 15.3188C57.9573 15.35 57.9638 15.3811 57.9773 15.4093C57.9907 15.4376 58.0107 15.4623 58.0355 15.4813C58.1263 15.5794 58.2418 15.6514 58.37 15.6897C58.6661 15.7509 58.966 15.7924 59.2677 15.8137C59.5163 15.8274 59.7625 15.8137 60.0497 15.8137ZM78.8413 18.4124L77.8068 17.5131L78.5081 16.6287L79.5587 17.5627L78.8413 18.4124ZM46.0536 18.4794C45.805 18.7783 45.5725 19.0475 45.3362 19.3253L44.3018 18.431L45.003 17.5453L46.0536 18.4794Z" fill="#102440"/>
<defs>
<linearGradient id="paint0_linear_357_168" x1="48.2705" y1="38.366" x2="49.5132" y2="6.75816" gradientUnits="userSpaceOnUse">
<stop stop-color="#0E243E"/>
<stop offset="0.6" stop-color="#264369"/>
<stop offset="1" stop-color="#3884C6"/>
</linearGradient>
<linearGradient id="paint1_linear_357_168" x1="21.7181" y1="25.0884" x2="22.8067" y2="25.0884" gradientUnits="userSpaceOnUse">
<stop stop-color="#0E243E"/>
<stop offset="0.6" stop-color="#264369"/>
<stop offset="1" stop-color="#4E73A2"/>
</linearGradient>
<linearGradient id="paint2_linear_357_168" x1="34.7429" y1="31.6036" x2="39.0927" y2="31.6036" gradientUnits="userSpaceOnUse">
<stop stop-color="#0E243E"/>
<stop offset="0.6" stop-color="#264369"/>
<stop offset="1" stop-color="#4E73A2"/>
</linearGradient>
<linearGradient id="paint3_linear_357_168" x1="45.2526" y1="31.596" x2="69.4427" y2="28.715" gradientUnits="userSpaceOnUse">
<stop stop-color="#0E243E"/>
<stop offset="0.6" stop-color="#264369"/>
<stop offset="1" stop-color="#3884C6"/>
</linearGradient>
</defs>
</svg>
