<svg width="170" height="50" viewBox="0 0 170 50" fill="none" xmlns="http://www.w3.org/2000/svg">
<path d="M99.4797 22.4414C99.3749 22.3087 99.1831 22.0683 98.8984 21.7168C98.7877 21.8226 98.6197 22.0605 98.3967 22.4414H99.4797ZM100.148 16.9107C100.074 16.9939 100.015 17.0997 99.9654 17.2321H97.2856L97.4475 16.715L97.6945 16.8901H98.0666C98.0408 16.7935 97.9593 16.6244 97.8194 16.3836C97.7336 16.2326 97.7067 16.0768 97.7282 15.9209C97.7486 15.8012 98.0464 15.4866 98.6296 14.9787C99.1514 14.5366 99.4723 14.3159 99.5942 14.3159C99.61 14.3159 99.6216 14.3195 99.6273 14.3273C99.6416 14.3481 99.4555 14.5328 99.0706 14.8846C98.685 15.2361 98.511 15.4864 98.5456 15.6405C98.6042 15.88 98.707 16.1284 98.8644 16.3834C99.0838 16.7338 99.3079 16.9102 99.5361 16.9102H100.148V16.9107ZM102.305 15.4405C102.305 16.9617 102.01 18.2373 101.415 19.2698C101.124 19.775 100.466 20.5613 99.4425 21.6264L101.768 24.0075L101.653 24.2387H96.3326C96.4792 23.8983 96.9003 23.4101 97.598 22.7732C98.2029 22.2202 98.507 21.8528 98.507 21.6756C98.4219 21.5819 98.1295 21.2143 97.6332 20.5785C95.9625 18.4415 95.1254 16.7269 95.1254 15.4405C95.1254 14.5661 95.3385 13.6705 95.7717 12.7518C96.1294 12.0093 96.5821 11.3483 97.1338 10.7697C97.6296 10.2487 98.0028 9.98791 98.2519 9.98791C98.209 10.0485 98.0502 10.2393 97.7808 10.5559C96.6398 11.904 96.0701 13.407 96.0701 15.0733C96.1548 15.687 96.3151 16.319 96.5545 16.9711C97.1174 18.5264 97.9658 19.9736 99.1081 21.3116C100.719 19.7063 101.524 17.905 101.524 15.9077C101.524 15.0353 101.329 14.215 100.932 13.4497C100.642 12.894 100.268 12.4052 99.8152 11.9865C99.6773 11.862 99.4631 11.6777 99.1793 11.4326V9.80811C99.4101 9.80811 99.7584 10.0181 100.225 10.4376C101.611 11.69 102.305 13.3569 102.305 15.4405ZM65.8194 24.2387H59.4652C59.3507 24.2387 58.3287 25.0458 56.3985 26.6586C54.4691 28.273 53.2714 29.0806 52.8041 29.0806C52.2629 29.0806 50.9805 28.6747 48.9505 27.8676C47.0409 27.1146 45.8492 26.5815 45.3792 26.2738C45.3246 26.238 45.2822 26.2085 45.251 26.1836C45.2683 26.1586 45.3302 26.1664 45.4324 26.2006C46.1539 26.4851 47.2345 26.9064 48.6772 27.4599C50.5199 28.1653 51.8219 28.519 52.5858 28.519C53.1849 28.519 53.9212 28.1843 54.7958 27.5138C55.4841 26.9887 56.1528 26.3491 56.8027 25.5959C57.3912 24.9147 57.6865 24.4983 57.6865 24.3456C57.6865 24.0287 57.4476 23.6311 56.9756 23.1603C56.9397 23.1138 56.9219 23.0637 56.9219 23.0163C56.9219 22.8061 57.3605 22.37 58.2394 21.7132C58.58 22.2739 58.8389 22.6507 59.0201 22.8448C59.2501 23.0908 59.4991 23.216 59.7657 23.216H60.2666C59.9691 22.824 59.5485 22.2202 59.0035 21.4075C58.9795 21.369 58.9658 21.3261 58.9658 21.2689C58.9658 21.0884 59.4378 20.6268 60.3843 19.8843C60.6877 20.4018 61.15 21.1769 61.7738 22.2007C62.2131 22.8797 62.6415 23.2163 63.0652 23.2163H63.4733C62.8863 22.317 62.1176 21.1054 61.1649 19.5847C61.1534 19.5598 61.1473 19.5373 61.1473 19.5142C61.1473 19.2295 61.6991 18.6781 62.8018 17.8573C62.7899 17.9298 62.7846 17.9998 62.7846 18.0649C62.7846 18.2395 62.8203 18.4068 62.893 18.5624L65.7022 23.2165H65.8196H66.2097H70.5211V15.7292C70.5211 15.5123 70.4328 15.3068 70.2561 15.1145C70.2148 15.0668 70.043 14.9123 69.741 14.6529L71.9304 12.6154V24.2394H66.2097H65.8194V24.2387ZM92.3901 15.4481L91.3269 16.5267L90.2259 15.4481L91.3269 14.3161L92.3901 15.4481ZM94.1704 24.2387H83.1004H82.8073H72.8654C73.1859 23.7427 73.7154 23.1507 74.447 22.4546C74.9605 22.8714 75.5832 23.1442 76.3078 23.2775C76.7219 23.3504 77.3974 23.3869 78.3382 23.3869C79.4152 23.3869 79.6469 23.3949 79.0265 23.4041C79.1493 23.4041 79.4698 23.341 79.9905 23.216C79.8764 22.7079 79.6844 22.2723 79.4186 21.9026C79.0063 21.3339 78.4851 21.0513 77.8557 21.0513H73.2928C73.363 20.9072 73.655 20.4734 74.1638 19.7479C74.7092 18.9699 75.0771 18.4799 75.2646 18.2722C75.2646 18.2836 75.188 18.5065 75.0371 18.9332C74.952 19.1884 74.9089 19.3923 74.9089 19.5478C74.9089 19.9362 75.0946 20.1728 75.4637 20.258L76.0628 20.3269H79.1013C79.6508 20.3269 80.0559 20.3752 80.3089 20.4736C80.4405 20.5264 80.6963 20.7017 81.0738 20.9998C81.3592 21.2205 81.808 21.9594 82.4278 23.2163H82.8066H90.3359H91.3084C91.3084 22.9799 91.1165 22.4928 90.7392 21.753C90.3617 21.0135 90.1718 20.5152 90.1718 20.2558C90.1718 19.9548 90.4453 19.5836 90.9905 19.1412C91.4126 18.8049 91.8676 18.5144 92.3519 18.2726C92.129 18.6895 92.0183 19.0509 92.0183 19.3604C92.0183 19.4677 92.0338 19.5679 92.071 19.658C92.3937 20.419 93.0921 21.9456 94.1704 24.2387ZM167.838 23.2362C167.516 22.5937 167.095 21.7327 166.573 20.6465C166.138 20.8388 165.919 21.0984 165.919 21.4247C165.919 21.8595 166.174 22.2781 166.685 22.6822C167.139 23.0376 167.522 23.2225 167.838 23.2362ZM126.196 21.66C126.196 21.4712 126.133 21.3156 126.005 21.1888C125.878 21.0633 125.72 20.998 125.532 20.998C125.074 20.998 124.84 21.2192 124.84 21.66C124.84 22.1055 125.074 22.3289 125.532 22.3289C125.72 22.3289 125.878 22.2631 126.005 22.1343C126.133 22.0055 126.196 21.8478 126.196 21.66ZM125.341 15.4508L124.261 16.5269L123.189 15.4508L124.261 14.3186L125.341 15.4508ZM129.142 24.2387H112.478C113.318 22.9553 113.78 22.311 113.859 22.311C113.598 22.311 113.726 22.4631 114.249 22.7647C114.77 23.0644 115.11 23.2165 115.268 23.2165H125.06C124.715 23.0823 124.43 22.9649 124.207 22.8647C123.813 22.6878 123.502 22.474 123.277 22.2206C122.982 21.8767 122.834 21.45 122.834 20.9363C122.834 20.7075 123.069 20.3119 123.542 19.7511C124.22 18.9411 125.238 18.0128 126.587 16.9711C126.574 17.0505 126.519 17.1976 126.414 17.413C126.336 17.5881 126.297 17.7475 126.297 17.886L129.142 24.2387ZM170 23.6861C169.674 24.151 169.473 24.4239 169.4 24.5024C169.133 24.7844 168.819 24.9268 168.456 24.9268C167.896 24.9268 167.277 24.7676 166.591 24.448C166.464 24.3874 165.992 24.1197 165.173 23.6432C165.029 24.041 164.832 24.2387 164.585 24.2387H156.018H155.708H148.112C147.452 24.2387 147.024 24.1392 146.831 23.941C146.903 23.8677 147.106 23.7027 147.439 23.4435C147.493 23.3871 147.577 23.3146 147.683 23.2163C147.794 23.1185 147.875 23.0492 147.929 22.9989C148.074 23.1454 148.361 23.2163 148.784 23.2163H153.21C153.114 22.7571 152.87 22.2835 152.484 21.7957C151.969 21.1362 151.392 20.8097 150.757 20.8097C150.379 20.8097 149.183 21.5864 147.166 23.1451C146.555 23.6141 146.193 23.8795 146.086 23.9408C145.735 24.139 145.343 24.2385 144.912 24.2385H134.169H133.778H133.195C132.864 24.7578 132.096 25.4499 130.896 26.3129C130.191 26.8183 129.122 27.591 127.687 28.6291C127.687 28.4736 127.776 28.3064 127.95 28.131C128.424 27.775 129.129 27.2367 130.068 26.52C131.122 25.699 131.652 25.0552 131.652 24.5923C131.652 24.3094 131.093 23.2006 129.978 21.2704C129.919 21.1687 129.887 21.0649 129.887 20.9611C129.887 20.7382 130.065 20.4752 130.423 20.1746C130.642 20.0002 131.11 19.6748 131.822 19.1969C131.685 19.7041 131.615 19.9456 131.615 19.9206C131.615 20.0172 131.654 20.1578 131.733 20.3461C131.937 20.8647 132.519 21.8223 133.477 23.2158H133.778H134.169H145.623C145.208 22.5521 145.003 22.12 145.003 21.9223C145.003 21.5665 145.529 21.0047 146.587 20.2379C146.507 20.4917 146.492 20.7281 146.539 20.9526C146.562 21.0492 146.596 21.1416 146.639 21.2335C146.834 21.626 147.033 21.9239 147.241 22.1298C148.124 21.3451 149.363 20.5208 150.956 19.6576C151.367 19.4346 151.778 19.3232 152.192 19.3232C153.582 19.3232 154.758 20.621 155.729 23.2156H156.018H164.846C164.411 22.7524 164.192 22.3371 164.192 21.976C164.192 21.4567 164.733 20.7263 165.811 19.7846C166.647 19.0618 167.428 18.492 168.154 18.083C168.022 18.6369 167.993 19.0097 168.063 19.1967C168.463 20.218 169.111 21.7132 170 23.6861ZM108.204 24.2919C108.204 24.4476 107.964 24.6551 107.488 24.9056C106.94 25.1916 106.393 25.3323 105.843 25.3323C105.138 25.3323 104.599 25.0726 104.223 24.5458C103.901 24.0808 103.742 23.4846 103.742 22.7544V14.4527C103.742 13.9393 103.702 13.5683 103.615 13.3393C103.482 12.9951 103.208 12.7241 102.788 12.5244L105.178 10.5423V22.7542C105.178 23.3435 105.219 23.7595 105.305 23.994C105.493 24.4992 105.909 24.7533 106.55 24.7533C106.798 24.7533 107.127 24.6685 107.532 24.5048C107.937 24.34 108.151 24.2553 108.168 24.2553C108.192 24.2631 108.204 24.2747 108.204 24.2919Z" fill="white"/>
<path d="M62.9899 36.6311C63.0584 36.6311 63.0707 36.5904 63.0584 36.5504L61.8301 33.2091C61.817 33.155 61.804 33.0879 61.7625 33.0879C61.7205 33.0879 61.694 33.155 61.6801 33.2091L60.4264 36.5365C60.4125 36.5907 60.4264 36.6314 60.4805 36.6314H62.9899V36.6311ZM80.9483 36.6577C80.9483 37.881 80.9629 38.7635 80.9753 38.9931C80.989 39.2787 81.017 39.6866 81.1129 39.8081C81.2627 40.0266 81.7396 40.271 82.6803 40.271C83.7692 40.271 84.576 40.0802 85.2984 39.4827C86.0755 38.8444 86.321 37.8135 86.321 36.6179C86.321 35.1511 85.7342 34.2005 85.2023 33.7389C84.0983 32.7618 82.7888 32.6402 81.849 32.6402C81.6036 32.6402 81.2074 32.6661 81.1129 32.72C81.0033 32.7618 80.9631 32.8157 80.9631 32.9524C80.9485 33.3451 80.9485 34.296 80.9485 35.2053V36.6577H80.9483ZM79.3389 35.3826C79.3389 33.6309 79.3389 33.3055 79.3259 32.9378C79.2985 32.5447 79.1894 32.4221 78.8081 32.3146C78.7122 32.2866 78.5074 32.273 78.3302 32.273C78.2083 32.273 78.1268 32.232 78.1268 32.1504C78.1268 32.0708 78.222 32.0426 78.399 32.0426C79.0264 32.0426 79.7892 32.0708 80.1314 32.0708C80.4985 32.0708 81.3579 32.0426 82.0798 32.0426C83.5805 32.0426 85.5984 32.0426 86.9066 33.3594C87.5062 33.9565 88.0384 34.9199 88.0384 36.2923C88.0384 37.7446 87.4112 38.8442 86.7285 39.5102C86.1842 40.0523 84.916 40.8674 82.7077 40.8674C82.2712 40.8674 81.7524 40.8256 81.2755 40.7997C80.7983 40.7587 80.3616 40.7314 80.0622 40.7314C79.9257 40.7314 79.6675 40.7451 79.3821 40.7451C79.0939 40.759 78.7951 40.7715 78.5494 40.7715C78.3992 40.7715 78.3165 40.7314 78.3165 40.6514C78.3165 40.5959 78.357 40.5279 78.5074 40.5279C78.6855 40.5279 78.8207 40.5141 78.9307 40.4875C79.1768 40.4333 79.2444 40.216 79.2857 39.8763C79.3389 39.387 79.3389 38.4779 79.3389 37.4174V35.3826ZM93.2202 37.2155C93.2743 37.2155 93.2889 37.1882 93.2743 37.1466L92.1437 34.2553C92.1304 34.2134 92.1151 34.1468 92.09 34.1468C92.0475 34.1468 92.035 34.2137 92.0204 34.2553L90.8608 37.1339C90.8332 37.188 90.8608 37.2153 90.9021 37.2153H93.2202V37.2155ZM99.8342 37.4181C99.8342 38.8986 99.8342 39.633 100.093 39.849C100.298 40.0257 100.76 40.0934 101.688 40.0934C102.329 40.0934 102.794 40.0798 103.093 39.7676C103.243 39.618 103.365 39.2924 103.392 39.0748C103.405 38.9668 103.434 38.8986 103.529 38.8986C103.61 38.8986 103.638 39.0209 103.638 39.1577C103.638 39.2924 103.556 40.1487 103.46 40.4868C103.379 40.7464 103.325 40.7988 102.697 40.7988C101.839 40.7988 101.143 40.7865 100.544 40.7583C99.9424 40.7464 99.4389 40.7323 98.9476 40.7323C98.8106 40.7323 98.5531 40.7464 98.2661 40.7464C97.98 40.7583 97.6807 40.7724 97.4355 40.7724C97.3823 40.7724 97.3373 40.7675 97.3016 40.7572C97.2237 40.7679 97.1063 40.7724 96.9298 40.7724C96.5067 40.7724 95.6339 40.7724 94.6247 40.7451C94.4069 40.7321 94.2702 40.7321 94.2702 40.6507C94.2702 40.5821 94.2973 40.5423 94.4199 40.5279C94.5021 40.5141 94.5843 40.4065 94.5291 40.2703L93.6014 37.9349C93.5736 37.8674 93.5339 37.8535 93.4795 37.8535H90.6582C90.5882 37.8535 90.5747 37.8676 90.5489 37.9349L89.908 39.4963C89.7843 39.7812 89.7301 40.067 89.7301 40.2023C89.7301 40.4065 89.8384 40.5279 90.2078 40.5279H90.3854C90.5347 40.5279 90.5621 40.5821 90.5621 40.6507C90.5621 40.7451 90.4936 40.7724 90.3706 40.7724C89.9767 40.7724 89.4156 40.7321 89.0352 40.7321C88.9132 40.7321 88.2708 40.7724 87.6438 40.7724C87.4947 40.7724 87.4251 40.7451 87.4251 40.6507C87.4251 40.5821 87.4671 40.5279 87.5634 40.5279C87.6703 40.5279 87.8086 40.5141 87.9167 40.5141C88.4621 40.4338 88.6671 40.0802 88.9132 39.4961L92.0473 32.2868C92.1847 31.9597 92.2795 31.8255 92.4032 31.8255C92.5784 31.8255 92.6339 31.9333 92.7567 32.1916C93.0421 32.8305 95.0462 37.5011 95.8113 39.2521C96.2745 40.2972 96.615 40.4465 96.8334 40.4879C97.0104 40.5141 97.1471 40.5279 97.2848 40.5279C97.3034 40.5279 97.3207 40.5293 97.3362 40.5317C97.3533 40.5293 97.3724 40.5279 97.3935 40.5279C97.5718 40.5279 97.7074 40.5147 97.8165 40.4866C98.0618 40.4325 98.1305 40.2166 98.1718 39.8754C98.2257 39.3861 98.2257 38.4786 98.2257 37.4179V35.3824C98.2257 33.6302 98.2257 33.3044 98.212 32.9374C98.1844 32.5451 98.0755 32.4219 97.6939 32.3132C97.5981 32.2868 97.4474 32.2727 97.2976 32.2727C97.1624 32.2727 97.0939 32.2309 97.0939 32.1513C97.0939 32.0695 97.1759 32.0429 97.3528 32.0429C97.9124 32.0429 98.6743 32.0695 99.0026 32.0695C99.2878 32.0695 100.27 32.0429 100.734 32.0429C100.911 32.0429 100.993 32.0695 100.993 32.1513C100.993 32.2309 100.924 32.2727 100.774 32.2727C100.638 32.2727 100.447 32.2868 100.312 32.3132C99.983 32.3678 99.8883 32.5295 99.8609 32.9374C99.8339 33.3044 99.8339 33.6302 99.8339 35.3824V37.4181H99.8342ZM104.43 35.3817C104.43 33.6304 104.444 33.3064 104.415 32.9378C104.389 32.5297 104.281 32.4212 103.898 32.3146C103.803 32.2871 103.599 32.2725 103.435 32.2725C103.298 32.2725 103.23 32.2314 103.23 32.1518C103.23 32.0699 103.312 32.0433 103.49 32.0433C104.13 32.0433 104.934 32.0699 105.289 32.0699C105.589 32.0699 106.393 32.0433 106.829 32.0433C107.007 32.0433 107.088 32.0699 107.088 32.1518C107.088 32.2314 107.021 32.2725 106.897 32.2725C106.762 32.2725 106.692 32.2871 106.543 32.3146C106.23 32.3685 106.134 32.5297 106.106 32.9378C106.08 33.3062 106.08 33.6304 106.08 35.3817V36.9986C106.08 38.6816 106.405 39.3335 106.994 39.7949C107.525 40.2162 108.097 40.2571 108.508 40.2571C109.024 40.2571 109.639 40.1062 110.114 39.6466C110.783 39.0213 110.811 38.0165 110.811 36.8344V35.3817C110.811 33.6304 110.798 33.3064 110.783 32.9378C110.756 32.5454 110.662 32.4212 110.279 32.3146C110.184 32.2871 109.98 32.2725 109.841 32.2725C109.707 32.2725 109.639 32.2314 109.639 32.1518C109.639 32.0699 109.719 32.0433 109.883 32.0433C110.498 32.0433 111.301 32.0699 111.314 32.0699C111.453 32.0699 112.255 32.0433 112.719 32.0433C112.883 32.0433 112.965 32.0699 112.965 32.1518C112.965 32.2314 112.897 32.2725 112.761 32.2725C112.624 32.2725 112.556 32.2871 112.406 32.3146C112.079 32.3685 111.997 32.5297 111.971 32.9378C111.956 33.3062 111.943 33.6304 111.943 35.3817V36.617C111.943 37.9076 111.806 39.2651 110.798 40.0932C109.952 40.7997 109.037 40.9218 108.261 40.9218C107.633 40.9218 106.393 40.8951 105.521 40.133C104.907 39.6039 104.43 38.7496 104.43 37.0797V35.3817H104.43ZM114.125 40.6243C113.934 40.5425 113.893 40.489 113.893 40.2301C113.893 39.6039 113.947 38.8845 113.96 38.6959C113.96 38.519 114.017 38.3963 114.111 38.3963C114.22 38.3963 114.234 38.5047 114.234 38.5864C114.234 38.7362 114.275 38.9802 114.343 39.1841C114.603 40.0398 115.502 40.3244 116.253 40.3244C117.288 40.3244 117.914 39.6737 117.914 38.8587C117.914 38.3549 117.793 37.8537 116.73 37.2298L116.035 36.8223C114.616 35.9933 114.151 35.2191 114.151 34.2014C114.151 32.7902 115.517 31.8794 117.179 31.8794C117.955 31.8794 118.57 31.9878 118.884 32.0695C118.992 32.0976 119.046 32.1381 119.046 32.218C119.046 32.3689 119.006 32.6932 119.006 33.6036C119.006 33.8478 118.952 33.9703 118.855 33.9703C118.775 33.9703 118.733 33.9019 118.733 33.7684C118.733 33.6584 118.678 33.3059 118.419 33.0058C118.243 32.7905 117.861 32.4637 117.084 32.4637C116.224 32.4637 115.447 32.911 115.447 33.6982C115.447 34.2143 115.638 34.6229 116.716 35.2193L117.205 35.4908C118.787 36.3599 119.279 37.2437 119.279 38.2892C119.279 39.1432 118.952 39.8353 118.079 40.4472C117.507 40.8544 116.716 40.9224 116.075 40.9224C115.379 40.922 114.643 40.854 114.125 40.6243ZM127.219 35.9784C126.933 35.7751 126.62 35.6789 126.089 35.6512C125.843 35.6378 125.706 35.6378 125.503 35.6378C125.448 35.6378 125.42 35.6653 125.42 35.7339V38.9511C125.42 39.8483 125.46 40.0782 125.897 40.2531C126.267 40.4054 126.579 40.4177 126.893 40.4177C127.507 40.4177 128.543 40.0923 128.543 38.6796C128.543 37.8385 128.256 36.6978 127.219 35.9784ZM125.42 34.8919C125.42 35.0015 125.46 35.0275 125.516 35.0413C125.638 35.0686 125.843 35.0816 126.156 35.0816C126.607 35.0816 126.906 35.0277 127.139 34.8237C127.493 34.539 127.697 34.0511 127.697 33.3833C127.697 32.4749 127.165 31.2809 125.993 31.2809C125.802 31.2809 125.678 31.2809 125.544 31.308C125.448 31.3357 125.42 31.3894 125.42 31.5379V34.8919ZM123.783 34.6605C123.783 32.5981 123.783 32.2166 123.756 31.783C123.729 31.3216 123.62 31.1038 123.17 31.0081C123.062 30.9806 122.83 30.9681 122.639 30.9681C122.489 30.9681 122.406 30.9408 122.406 30.8462C122.406 30.7509 122.503 30.723 122.707 30.723C123.43 30.723 124.289 30.7641 124.562 30.7641C125.229 30.7641 125.762 30.723 126.225 30.723C128.692 30.723 129.129 32.0411 129.129 32.7603C129.129 33.8726 128.488 34.5386 127.739 35.1355C128.856 35.517 130.22 36.48 130.22 38.0682C130.22 39.5211 129.087 41.0289 126.579 41.0289C126.415 41.0289 126.021 41.0014 125.625 40.9875C125.216 40.9602 124.807 40.947 124.603 40.947C124.452 40.947 124.152 40.947 123.825 40.9602C123.51 40.9602 123.157 40.9875 122.884 40.9875C122.708 40.9875 122.613 40.947 122.613 40.8536C122.613 40.7833 122.667 40.7431 122.83 40.7431C123.035 40.7431 123.198 40.7162 123.321 40.6892C123.594 40.6348 123.663 40.3358 123.716 39.942C123.784 39.3727 123.784 38.2994 123.784 37.0507V34.6605H123.783ZM135.292 37.4317C135.346 37.4317 135.361 37.4031 135.346 37.3622L134.214 34.4711C134.203 34.4292 134.188 34.3626 134.161 34.3626C134.119 34.3626 134.106 34.4295 134.092 34.4711L132.934 37.3488C132.905 37.4029 132.934 37.4315 132.974 37.4315L135.292 37.4317ZM141.046 39.4136C141.073 40.309 141.225 40.5816 141.455 40.6628C141.66 40.7303 141.893 40.7442 142.083 40.7442C142.22 40.7442 142.286 40.7983 142.286 40.8652C142.286 40.9604 142.177 40.9886 142.014 40.9886C141.237 40.9886 140.679 40.9481 140.46 40.9481C140.35 40.9481 139.778 40.9886 139.166 40.9886L139.097 40.9875L139 40.988C138.578 40.988 137.705 40.988 136.695 40.9613C136.477 40.9473 136.341 40.9473 136.341 40.8663C136.341 40.7974 136.369 40.7574 136.491 40.7442C136.573 40.7301 136.656 40.6214 136.6 40.4861L135.674 38.1512C135.647 38.0825 135.605 38.0684 135.55 38.0684H132.73C132.66 38.0684 132.646 38.0825 132.621 38.1512L131.98 39.7112C131.856 39.9975 131.802 40.2822 131.802 40.4179C131.802 40.6216 131.909 40.7444 132.279 40.7444H132.457C132.606 40.7444 132.633 40.7976 132.633 40.8665C132.633 40.9616 132.565 40.9882 132.442 40.9882C132.047 40.9882 131.488 40.9475 131.107 40.9475C130.985 40.9475 130.343 40.9882 129.715 40.9882C129.566 40.9882 129.497 40.9616 129.497 40.8665C129.497 40.7976 129.539 40.7444 129.634 40.7444C129.741 40.7444 129.88 40.7303 129.989 40.7303C130.534 40.6492 130.74 40.2954 130.985 39.711L134.119 32.5029C134.256 32.1764 134.351 32.0411 134.475 32.0411C134.651 32.0411 134.706 32.1491 134.828 32.4074C135.114 33.0458 137.117 37.7169 137.883 39.467C138.347 40.5123 138.686 40.6619 138.905 40.7035C139.03 40.7223 139.134 40.7348 139.232 40.7406C139.366 40.7344 139.511 40.7187 139.629 40.6896C139.943 40.6087 139.983 40.2949 139.997 39.2899L140.107 32.4472C140.107 32.2162 140.188 32.0534 140.309 32.0534C140.46 32.0534 140.624 32.23 140.827 32.4338C140.978 32.5832 142.778 34.4149 144.523 36.1134C145.341 36.9143 146.936 38.5443 147.114 38.7067H147.168L147.046 33.5745C147.032 32.8683 146.922 32.6652 146.636 32.5579C146.458 32.4874 146.173 32.4874 146.009 32.4874C145.86 32.4874 145.818 32.434 145.818 32.3658C145.818 32.2703 145.941 32.2584 146.119 32.2584C146.747 32.2584 147.387 32.2851 147.646 32.2851C147.782 32.2851 148.232 32.2584 148.818 32.2584C148.983 32.2584 149.09 32.2705 149.09 32.3658C149.09 32.434 149.022 32.4874 148.886 32.4874C148.763 32.4874 148.667 32.4874 148.518 32.5288C148.19 32.625 148.095 32.8278 148.081 33.479L147.945 40.7565C147.945 41.0137 147.851 41.1241 147.754 41.1241C147.549 41.1241 147.387 41.0025 147.265 40.8797C146.514 40.1871 145.014 38.7603 143.759 37.5532C142.449 36.3037 141.182 34.9047 140.952 34.701H140.911L141.046 39.4136ZM152.8 36.1139H152.856C153.264 35.6791 155.009 33.9683 155.364 33.5747C155.706 33.195 155.964 32.9231 155.964 32.7198C155.964 32.5975 155.91 32.517 155.801 32.4877C155.691 32.4615 155.636 32.4342 155.636 32.3676C155.636 32.2853 155.706 32.2587 155.828 32.2587C156.088 32.2587 156.74 32.2853 157.068 32.2853C157.437 32.2853 158.104 32.2587 158.472 32.2587C158.596 32.2587 158.676 32.2853 158.676 32.3676C158.676 32.4474 158.609 32.4877 158.501 32.4877C158.323 32.4877 158.024 32.5429 157.805 32.625C157.422 32.7612 157.041 33.0054 156.537 33.479C156.154 33.8333 154.369 35.5159 154 35.9372C154.424 36.4809 156.782 38.9238 157.247 39.3581C157.777 39.8336 158.242 40.3356 158.881 40.5944C159.235 40.7442 159.482 40.7442 159.617 40.7442C159.714 40.7442 159.781 40.7983 159.781 40.8652C159.781 40.9481 159.714 40.9886 159.496 40.9886H158.445C158.09 40.9886 157.873 40.9886 157.614 40.9605C156.973 40.9072 156.578 40.6628 156.059 40.2144C155.541 39.7651 153.237 37.1046 152.978 36.7521L152.855 36.5891H152.8V37.6339C152.8 38.6942 152.8 39.6023 152.828 40.1064C152.855 40.432 152.965 40.6487 153.264 40.7024C153.428 40.7303 153.7 40.7444 153.85 40.7444C153.945 40.7444 154.013 40.8113 154.013 40.8654C154.013 40.9484 153.919 40.9889 153.781 40.9889C153.115 40.9889 152.254 40.9484 151.955 40.9484C151.683 40.9484 150.919 40.9889 150.442 40.9889C150.291 40.9889 150.21 40.9484 150.21 40.8654C150.21 40.8113 150.251 40.7444 150.402 40.7444C150.578 40.7444 150.715 40.7303 150.824 40.7024C151.068 40.6487 151.138 40.432 151.179 40.0914C151.233 39.6023 151.233 38.6944 151.233 37.6341V35.598C151.233 33.8462 151.233 33.5206 151.218 33.1534C151.192 32.7614 151.084 32.6373 150.702 32.529C150.607 32.5031 150.402 32.4877 150.224 32.4877C150.101 32.4877 150.019 32.4474 150.019 32.3676C150.019 32.2853 150.113 32.2587 150.291 32.2587C150.919 32.2587 151.683 32.2853 151.969 32.2853C152.254 32.2853 153.115 32.2587 153.509 32.2587C153.687 32.2587 153.769 32.2853 153.769 32.3676C153.769 32.4474 153.7 32.4877 153.605 32.4877C153.481 32.4877 153.413 32.5029 153.264 32.529C152.936 32.5836 152.841 32.746 152.814 33.1534C152.8 33.5206 152.8 33.8462 152.8 35.598V36.1139H152.8ZM60.2074 37.3101C60.1403 37.3101 60.1129 37.3383 60.0848 37.4179L59.3492 39.2778C59.2124 39.6166 59.1446 39.9445 59.1446 40.1068C59.1446 40.3513 59.2693 40.5279 59.691 40.5279H59.8951C60.0588 40.5279 60.0994 40.5548 60.0994 40.6377C60.0994 40.7449 60.0179 40.7724 59.8677 40.7724C59.4314 40.7724 58.846 40.7321 58.4229 40.7321C58.2725 40.7321 57.5224 40.7724 56.8138 40.7724C56.6364 40.7724 56.5553 40.7449 56.5553 40.6377C56.5553 40.5548 56.609 40.5279 56.7174 40.5279C56.8414 40.5279 57.0305 40.5147 57.1407 40.5007C57.7668 40.4199 58.0268 39.9584 58.3005 39.2778L61.7209 30.8607C61.8851 30.4671 61.9661 30.3164 62.1033 30.3164C62.2268 30.3164 62.309 30.4394 62.4433 30.7507C62.7718 31.4985 64.9536 36.929 65.8255 38.9936C66.3429 40.2157 66.7397 40.4061 67.0256 40.4736C67.1515 40.4986 67.2784 40.5136 67.3952 40.521C67.5124 40.5136 67.6343 40.4986 67.7354 40.4736C68.0497 40.3922 68.0893 40.0791 68.1036 39.0741L68.213 32.2316C68.213 32.0006 68.2945 31.8376 68.4176 31.8376C68.5671 31.8376 68.7304 32.0136 68.9352 32.2175C69.0838 32.3673 70.8859 34.1998 72.6309 35.8969C73.4476 36.698 75.0439 38.3281 75.2211 38.4902H75.2754L75.1524 33.3583C75.1384 32.6525 75.03 32.449 74.7437 32.3412C74.5663 32.2716 74.2811 32.2716 74.1167 32.2716C73.9669 32.2716 73.9256 32.2175 73.9256 32.1491C73.9256 32.0536 74.0482 32.0422 74.2259 32.0422C74.8533 32.0422 75.495 32.0688 75.7526 32.0688C75.8885 32.0688 76.3385 32.0422 76.9241 32.0422C77.0889 32.0422 77.1972 32.0536 77.1972 32.1491C77.1972 32.2175 77.1284 32.2716 76.9939 32.2716C76.8698 32.2716 76.775 32.2716 76.6243 32.3128C76.2978 32.4087 76.2015 32.6127 76.1887 33.2621L76.0526 40.5402C76.0526 40.7979 75.9565 40.9072 75.8617 40.9072C75.6565 40.9072 75.4948 40.7858 75.3709 40.6637C74.6208 39.9702 73.1213 38.5448 71.8665 37.3376C70.5569 36.0873 69.2895 34.6882 69.0584 34.4854H69.0176L69.1541 39.1973C69.1801 40.093 69.3306 40.366 69.5612 40.4459C69.7667 40.5143 69.9989 40.5273 70.1897 40.5273C70.3258 40.5273 70.3939 40.5814 70.3939 40.65C70.3939 40.7442 70.2854 40.7724 70.1221 40.7724C69.3452 40.7724 68.7845 40.7314 68.5671 40.7314C68.4578 40.7314 67.886 40.7724 67.2726 40.7724L67.2135 40.7717L67.2063 40.7715L67.1488 40.7717C66.6568 40.7717 65.6623 40.7717 64.5712 40.7442C64.3271 40.7314 64.1618 40.7315 64.1618 40.6371C64.1618 40.5541 64.2175 40.5273 64.3527 40.5141C64.4486 40.4852 64.5429 40.3651 64.4766 40.2017L63.384 37.4042C63.3577 37.3374 63.3177 37.3092 63.2483 37.3092H60.2074V37.3101Z" fill="white"/>
<mask id="mask0_462_1171" style="mask-type:luminance" maskUnits="userSpaceOnUse" x="0" y="3" width="42" height="47">
<path d="M31.448 17.2726V3.59739L34.808 6.94361V20.6188L31.448 17.2726ZM0 34.8184V12.6051L3.27601 9.46195V33.015L15.7751 45.4622L18.2515 43.008L3.29442 28.1134L6.20755 25.2095V6.94339L9.56777 3.59717V22.7339H13.4427L8.04305 28.1112L20.5004 40.5177L32.9507 28.1212L27.6048 22.7976L29.9815 20.4305L37.7009 28.1192L22.6983 43.0597L25.2153 45.4566L37.7382 32.9897V9.46195L41.0147 12.5984L41.014 34.7879L25.3819 49.965L20.5017 45.2508L15.7295 49.965L0 34.8184Z" fill="white"/>
</mask>
<g mask="url(#mask0_462_1171)">
<path d="M41.0149 3.59717H0V49.965H41.0149V3.59717Z" fill="url(#paint0_linear_462_1171)"/>
</g>
<path d="M17.3314 14.0232L20.5019 17.1807L23.6638 14.0295L20.499 10.8657L17.3314 14.0232Z" fill="white"/>
<path d="M17.3325 28.3294L20.5029 31.4869L23.6646 28.3357L20.4998 25.1719L17.3325 28.3294ZM12.6198 17.3564V3.59717L15.7752 6.94339V15.7816L20.509 20.496L25.2432 15.7796V6.94339L28.3987 3.59717V17.3222L22.8607 22.8354L28.3987 28.35L20.509 36.206L12.6218 28.35L18.1417 22.8533L12.6198 17.3564Z" fill="white"/>
<path d="M17.3527 7.89112L18.9316 9.46192L20.5091 7.89112L22.0868 9.46192L23.647 7.90521L22.0868 6.31965L25.2422 3.17716L22.0868 0.034668L20.5091 1.60547L22.0868 3.17716L20.5091 4.74796L18.9316 3.17716L20.5091 1.60547L18.9316 0.034668L15.775 3.17716L18.9316 6.31965L17.3527 7.89112Z" fill="white"/>
<defs>
<linearGradient id="paint0_linear_462_1171" x1="20.5074" y1="49.8478" x2="20.5074" y2="11.7586" gradientUnits="userSpaceOnUse">
<stop stop-color="#8C7032"/>
<stop offset="0.1575" stop-color="#917536"/>
<stop offset="0.389" stop-color="#A18544"/>
<stop offset="0.666" stop-color="#BEA460"/>
<stop offset="0.9761" stop-color="#EED78C"/>
<stop offset="1" stop-color="#F4DD91"/>
</linearGradient>
</defs>
</svg>
