<svg width="140" height="51" viewBox="0 0 140 51" fill="none" xmlns="http://www.w3.org/2000/svg">
<path fill-rule="evenodd" clip-rule="evenodd" d="M4.05544 8.04255C0.916528 11.643 -1.98674 16.9807 1.78659 21.059C-0.113663 25.0447 0.225697 28.1542 1.76645 30.1521C3.83791 32.8462 6.7593 32.4951 9.45714 31.3905C11.4007 30.5988 13.307 29.5707 14.9434 28.2438C16.317 27.1321 18.8487 24.6363 17.7812 22.6756C17.1679 21.5519 15.7672 22.0247 14.0854 21.9533C10.5065 21.8074 11.5346 20.0902 12.9485 18.3851C14.0159 17.6889 15.1982 16.9737 15.9082 18.5249L16.8155 15.8822C14.6746 14.5674 13.4147 15.8631 12.302 17.1719C9.6817 20.2623 9.06137 25.5357 15.2173 24.3617C16.0552 24.2007 16.8417 24.5528 16.1126 25.4652C15.601 26.097 14.5849 26.5255 13.9515 26.8696C12.1741 27.8595 10.0644 28.7407 8.63841 29.2256C6.65659 29.8966 4.69489 30.1079 2.98696 28.5878C1.03735 26.8444 1.38276 24.7761 2.32332 21.059C2.52674 20.8306 2.71908 20.6325 2.89834 20.4534C4.06851 19.2724 4.6556 19.0038 4.95671 16.7192C5.12891 15.3973 4.86709 14.7716 4.3112 16.5653C3.77344 18.2956 2.43107 19.3046 1.54287 16.5592C0.673803 13.8461 2.6355 10.8764 4.18331 8.55963C4.5408 8.00332 4.98896 6.97017 4.05544 8.04255Z" fill="#211E1F"/>
<path fill-rule="evenodd" clip-rule="evenodd" d="M9.57856 14.7139C9.44361 14.5157 9.354 15.3969 9.26538 15.6394C8.8112 16.8778 7.96731 16.7691 7.65413 15.4231C7.37921 14.2219 8.45976 12.7341 8.81825 11.5541C9.22107 10.2 9.46274 8.60351 9.73868 7.8621C9.84039 7.58244 10.0519 7.36616 10.2492 7.23134C10.4738 7.08447 10.6208 7.13577 10.6974 7.51804L10.793 7.88121C10.9471 8.49486 10.8454 8.44456 11.356 8.06732C11.6883 7.83193 11.6309 7.90838 11.5282 7.4929C11.4325 7.0714 11.3429 6.77764 11.1264 6.2988L10.9209 5.8461C10.4406 4.79887 9.96224 4.7546 9.66819 5.94771C9.47686 6.72031 9.32883 7.46675 9.17576 8.27858C8.71554 7.41644 8.25533 6.57945 7.78202 5.73745C7.54537 5.32299 7.43762 5.09262 7.05999 5.48194C6.69545 5.86521 6.3883 6.1972 6.52223 6.7706C6.66321 7.34604 7.15564 7.39733 7.73771 8.2977C8.67727 9.75337 8.65713 10.6467 7.66722 12.6586C7.2201 13.5711 6.85555 14.5288 7.00157 15.5247C7.4497 18.6473 9.52116 18.3153 9.74472 15.9271C9.78903 15.4925 9.81521 15.071 9.57856 14.7139Z" fill="#211E1F"/>
<path fill-rule="evenodd" clip-rule="evenodd" d="M3.36448 33.2275L2.09863 35.2707L4.87401 37.3772L6.15897 35.7183L8.14585 36.8279L9.63625 34.6319L6.88202 32.8442L5.55074 34.6188L3.36448 33.2275Z" fill="#211E1F"/>
<path fill-rule="evenodd" clip-rule="evenodd" d="M18.8105 17.4213C18.6192 17.3579 18.6574 17.4153 18.4661 17.6899C18.3 17.9444 18.1449 18.213 18.1721 18.5188C18.1972 18.8066 18.3634 18.9283 18.6695 19.2411C19.0794 19.6496 19.6675 20.2431 19.8337 20.568C19.8971 20.7099 19.9485 20.8819 20.0441 21.2139C20.1408 21.5519 20.3513 21.4433 20.3704 20.9071C20.3956 20.3709 20.4087 19.1778 20.7611 18.8126C20.9847 18.5772 21.2656 18.5772 21.5788 18.9534C21.745 19.1516 21.7571 19.1828 21.751 18.8126L21.7319 17.702C21.7269 17.4093 21.745 17.4344 21.5144 17.2232C20.2808 16.1377 20.7984 19.1647 19.8145 19.0621C19.7249 19.0561 19.7309 18.9977 19.6483 18.7623C19.4761 18.2633 19.1821 17.5491 18.8105 17.4213Z" fill="#211E1F"/>
<path fill-rule="evenodd" clip-rule="evenodd" d="M21.6998 12.863L20.7412 15.3397L17.8057 13.3428L18.6244 11.0884L21.6998 12.863Z" fill="#211E1F"/>
<path fill-rule="evenodd" clip-rule="evenodd" d="M16.1447 35.2141L9.94336 36.1144L18.913 30.496L19.923 29.8632C21.214 28.8613 22.064 28.2034 22.9914 27.2849C25.0689 25.2226 24.3721 24.3605 23.3046 21.8707L22.9079 20.9703L23.8092 18.7169L24.2573 19.3296C25.3247 21.7681 28.3619 22.266 30.2028 20.1082C31.1937 18.9463 29.3397 17.7522 28.4254 17.1778C24.5584 14.7262 24.0337 13.4426 21.2714 10.5765L21.8414 7.33922C25.51 5.14316 30.2793 2.27709 34.3386 0.999495C37.4776 0.00959914 38.9992 -0.692576 38.9488 1.1333C38.8844 3.59193 36.3023 7.90762 35.1443 10.2123C37.2933 4.35146 40.8279 0.77618 33.2077 3.55975C29.385 4.95104 26.3609 6.64311 23.0811 8.69231L25.1646 10.4357C24.0528 10.7163 23.497 10.6409 23.9954 11.0745C24.7809 11.7576 25.7406 12.4336 26.5714 13.0865L28.7073 14.854C29.659 15.6457 30.1071 15.9837 30.4586 16.4314C31.6861 17.9826 31.7818 18.895 31.4183 20.1143C30.369 23.5819 28.6238 23.5306 25.5614 23.6141C25.7084 26.5254 23.7135 28.4147 24.1365 30.4709C24.3469 31.5041 25.0116 32.5 25.9703 33.1197C28.1575 34.5311 30.9379 33.5734 33.4243 32.0533C35.7455 30.643 37.4836 29.302 39.0385 27.1059L38.5269 25.6432L37.2288 23.2177L37.9065 20.913C39.6205 23.5618 40.0737 23.4471 43.0978 22.7138L41.6275 6.4389L41.0072 5.20054L41.9085 2.89583L45.0142 8.86233L44.7282 8.97399L42.982 8.18832L44.2801 21.9221C44.8178 21.6082 46.1149 20.8879 46.703 20.9573C49.1964 21.244 48.7241 24.5014 47.2649 26.7669C45.84 28.9831 45.0545 28.2859 43.6023 24.7952C41.9216 25.3374 41.5893 25.3686 39.825 25.4138C39.9076 29.8895 38.3668 31.0383 34.5955 33.5996C31.373 35.7946 27.2562 37.6336 24.5775 34.7927C23.4648 33.6177 23.3178 32.3481 23.1506 29.6269L16.1447 35.2141ZM46.7352 23.4028C46.1914 23.102 45.7312 23.1151 45.3989 23.4028C44.7342 23.9581 45.1239 24.8394 45.7705 25.2538C46.9587 26.0143 48.0453 24.1502 46.7352 23.4028Z" fill="#211E1F"/>
<path fill-rule="evenodd" clip-rule="evenodd" d="M32.0887 23.9712C31.0787 25.5868 30.1069 26.9268 30.3436 28.639C30.5853 30.3945 31.2962 30.5343 31.9608 29.9669C32.8933 29.1692 32.8621 28.3251 33.0333 27.2015C32.7856 27.6682 32.702 28.0133 32.4402 28.2749C30.8098 29.9156 30.8289 27.7507 31.3335 26.1492C31.552 25.4782 31.9478 24.8917 32.2992 24.259C32.6255 23.6835 32.8299 22.7902 32.0887 23.9712Z" fill="#211E1F"/>
<path fill-rule="evenodd" clip-rule="evenodd" d="M45.2452 11.1509C44.5292 12.5623 44.2734 13.8902 44.7779 15.2372C45.3731 16.8327 46.8625 16.2643 46.7155 14.1316C45.5705 16.6728 43.781 13.8641 46.0891 10.3532C46.8242 9.23551 46.3962 8.89747 45.2452 11.1509Z" fill="#211E1F"/>
<path fill-rule="evenodd" clip-rule="evenodd" d="M31.8142 11.0879L31.782 10.7046C32.498 11.2217 33.5785 11.7065 33.6873 12.6773C33.7447 13.1944 33.5403 13.6853 33.214 14.2869C32.9401 14.7839 32.5624 15.1098 31.8917 14.7326C31.501 14.5163 31.361 14.0817 31.4053 13.3544C31.4496 12.4791 31.8917 12.0768 31.8142 11.0879ZM32.2492 12.3645C32.217 12.5234 32.1858 12.6451 32.1536 12.7658C32.0579 13.1431 32.0639 13.5073 32.3066 13.6219C32.7668 13.8392 32.8565 13.5193 32.8565 13.1884C32.8565 12.6713 32.7155 12.5496 32.2492 12.3645Z" fill="#211E1F"/>
<path fill-rule="evenodd" clip-rule="evenodd" d="M47.2661 30.048C47.1523 29.5561 46.8251 29.5692 46.0204 29.9012C45.4766 30.1305 45.2662 30.4363 44.6519 31.1717C44.2612 31.6375 43.9037 31.9765 43.2521 32.4996C42.523 33.0871 41.9158 33.4634 40.6691 33.9674C40.1001 34.2048 39.5181 34.409 38.8212 34.6192L35.1768 35.6987L36.5131 35.6343C37.5362 35.583 38.4697 35.3848 39.3831 35.1112C42.2421 34.2621 43.091 33.6424 44.9721 31.4906C45.4374 32.052 46.0899 33.2078 46.7808 32.2129C46.9469 31.9695 47.0809 31.6506 47.1826 31.3689C47.3306 30.9675 47.388 30.5389 47.2661 30.048ZM46.4424 31.4403C46.2752 31.4785 46.1091 31.2482 45.9691 31.0309C45.7767 30.7432 45.8281 30.6426 46.1413 30.6355C46.4736 30.6224 46.6458 30.5782 46.666 30.9222C46.672 31.1465 46.6529 31.3951 46.4424 31.4403Z" fill="#211E1F"/>
<path fill-rule="evenodd" clip-rule="evenodd" d="M125.695 33.683C127.825 33.3701 131.686 32.8792 133.342 31.5181C133.648 31.2635 133.853 30.9185 134.122 30.5925C134.775 29.8018 136.346 29.2838 136.563 30.5614C136.659 31.0845 136.596 31.3651 136.435 31.6398C135.808 32.7313 135.38 33.0763 134.48 31.9084C134.199 31.5442 134.211 31.5321 133.797 31.8249C131.417 33.529 129.666 34.0471 125.695 33.683ZM135.191 31.0845C135.332 31.3018 135.503 31.5321 135.669 31.4929C135.873 31.4476 135.892 31.1931 135.887 30.9698C135.873 30.6238 135.694 30.6761 135.362 30.6821C135.056 30.6881 135.004 30.7907 135.191 31.0845Z" fill="#211E1F"/>
<path fill-rule="evenodd" clip-rule="evenodd" d="M49.855 29.2067C49.8298 26.6132 49.8298 24.4111 49.4783 21.9726C49.0373 18.9335 48.5962 15.9327 48.1933 12.8936C47.9305 10.8896 47.8419 8.92294 47.714 6.90494L46.8701 5.44222L47.995 3.52783L51.2728 9.8223L51.0382 9.88669L49.4582 9.04367C49.9516 13.3604 50.4239 17.663 50.9748 21.9726C51.3514 24.9664 51.2366 25.7652 49.855 29.2067Z" fill="#211E1F"/>
<path fill-rule="evenodd" clip-rule="evenodd" d="M57.3225 37.1249L54.7012 34.948L56.0304 32.5849L58.5682 34.4691L59.9498 32.4702L62.6799 34.6924L60.9921 36.9781L58.4796 35.0626L57.3225 37.1249Z" fill="#211E1F"/>
<path fill-rule="evenodd" clip-rule="evenodd" d="M68.2352 36.5485L65.5303 34.3836L66.9945 32.1875L69.9803 34.3836L68.2352 36.5485Z" fill="#211E1F"/>
<path fill-rule="evenodd" clip-rule="evenodd" d="M75.9321 37.47L72.915 35.0888L74.1305 32.5286L76.776 34.3283L77.9331 32.4702L81.3993 34.6673L80.216 36.8885L77.0187 35.0053L75.9321 37.47Z" fill="#211E1F"/>
<path fill-rule="evenodd" clip-rule="evenodd" d="M77.5376 1.72656L60.1996 11.3549L59.3809 14.1384L76.6101 4.42763L77.5376 1.72656Z" fill="#211E1F"/>
<path fill-rule="evenodd" clip-rule="evenodd" d="M54.6442 3.24529L53.4609 5.88903L54.6442 20.338L54.9383 22.4124C55.2897 24.9917 55.3914 26.1848 56.5233 27.4755C57.8335 28.9684 58.6391 29.3839 59.8798 29.1293C61.7146 28.7511 62.354 27.7572 63.0257 27.0993C63.4547 26.6848 63.8052 26.1848 64.0227 26.8307C64.1556 27.232 64.2714 27.4886 64.4124 27.7109C64.7125 28.2028 64.9945 28.5479 65.3006 28.7843C66.65 29.8436 67.4425 29.4543 68.0437 28.5479C68.4012 28.0046 68.6057 27.6224 68.9178 27.1616C69.5845 26.2039 69.8091 26.2744 70.1786 26.887C70.7607 27.8578 71.4505 28.4583 72.23 28.8155C74.8261 30.0096 77.0828 29.0136 79.1291 27.5509C79.7686 27.0922 80.2228 26.5108 80.9065 26.383C81.3667 26.3066 81.4251 26.3196 81.5833 26.6838C82.0505 27.8075 82.4151 28.3879 83.2459 28.5479C84.844 28.8547 85.5097 27.5962 86.3596 26.4725C87.7664 23.5683 87.7664 21.2243 87.3566 18.6711C86.7302 14.7447 85.7705 10.8113 85.5157 6.84676L86.6738 7.72198L87.6305 8.34065L84.6708 1.75244L83.4 3.86501L84.4483 5.58324C84.4483 5.58324 84.2509 5.90616 84.2177 6.56507C84.1845 7.22601 84.9468 14.9168 85.7474 19.0544C86.2579 21.6901 86.7302 25.0682 85.2922 25.9042C82.7021 27.4051 82.9589 23.695 83.118 22.5593L80.4132 24.4736C76.5401 26.6073 74.091 27.9031 71.4637 25.0813C69.8142 23.3057 68.9511 19.7878 68.1777 17.5213L67.6148 20.4205L69.0538 23.9123L69.2512 24.6718C68.1525 26.4987 66.931 27.054 65.4346 25.8981C64.6169 25.2664 64.777 24.2574 64.6551 23.2041C63.2302 24.2453 61.4971 25.7835 59.7207 26.0319C58.8627 26.1537 58.044 25.9303 57.3924 25.0038C56.9 24.3026 56.7278 23.2806 56.5113 21.9597C56.1266 19.6158 55.9987 16.8895 55.7822 14.8725L54.6442 3.24529Z" fill="#211E1F"/>
<path fill-rule="evenodd" clip-rule="evenodd" d="M59.1822 4.03908C58.6324 5.31667 58.428 5.75629 58.3061 6.70092C58.2487 7.17977 58.2366 7.46749 58.2608 7.79342C58.3323 8.53383 58.5488 9.01871 58.9969 9.17867C60.441 9.70178 60.7613 7.57009 60.9405 6.61843C60.6394 7.05805 59.9113 8.55193 59.2265 8.18878C59.0866 8.11233 58.9647 7.93929 58.869 7.64051C58.7925 7.41618 58.8117 7.1858 58.8117 6.75222C58.8117 5.83979 58.9718 5.12455 59.1822 4.03908Z" fill="#211E1F"/>
<path fill-rule="evenodd" clip-rule="evenodd" d="M64.3681 13.0547C63.8817 13.9862 62.488 17.5675 63.92 18.2124C65.3198 18.8452 65.4225 17.0384 65.6783 16.1069C65.346 16.5284 64.8153 17.466 64.1637 17.0575C63.3581 16.5465 64.1697 13.7951 64.3681 13.0547Z" fill="#211E1F"/>
<path fill-rule="evenodd" clip-rule="evenodd" d="M80.0183 16.5903C78.2782 20.07 79.6467 24.1312 81.0415 21.3537C81.27 20.8819 81.3285 20.2682 81.4362 19.8789C81.1049 20.2944 80.83 21.2128 80.1774 20.7984C79.3657 20.2873 79.8139 17.3247 80.0183 16.5903Z" fill="#211E1F"/>
<path fill-rule="evenodd" clip-rule="evenodd" d="M87.9703 28.1724C85.5343 31.5756 86.5645 35.9808 88.1807 34.9145C89.1656 34.2636 89.1847 33.2224 89.4718 32.2526C89.0639 32.7496 88.8464 33.4779 87.931 33.3311C86.5755 33.1148 87.5544 29.2196 87.9703 28.1724Z" fill="#211E1F"/>
<path fill-rule="evenodd" clip-rule="evenodd" d="M100.813 11.273C98.3723 14.6692 99.4005 19.0814 101.025 18.0151C102.01 17.3632 102.029 16.324 102.31 15.3462C101.901 15.8442 101.689 16.5725 100.775 16.4256C99.4196 16.2144 100.392 12.3202 100.813 11.273Z" fill="#211E1F"/>
<path fill-rule="evenodd" clip-rule="evenodd" d="M108.127 28.1099C104.381 31.2385 107.295 38.6446 109.188 32.0745C108.778 32.5724 108.461 33.6388 107.583 33.3511C105.903 32.7968 107.712 29.1571 108.127 28.1099Z" fill="#211E1F"/>
<path fill-rule="evenodd" clip-rule="evenodd" d="M123.208 11.0298C120.187 14.4009 123.42 21.1561 124.737 14.7841C124.328 15.2821 124.13 16.2267 123.274 15.8635C122.103 15.3646 122.793 12.077 123.208 11.0298Z" fill="#211E1F"/>
<path fill-rule="evenodd" clip-rule="evenodd" d="M60.0075 22.9444C59.9048 20.1991 59.3751 18.2324 58.1787 17.4789L58.8242 15.5957C60.6792 17.6067 61.1585 20.0271 60.0075 22.9444Z" fill="#211E1F"/>
<path fill-rule="evenodd" clip-rule="evenodd" d="M72.7227 18.7173C77.0317 16.4508 78.5221 15.2567 79.6863 10.9531C79.9854 9.82335 80.4969 9.11512 80.9189 10.6784C81.085 11.2921 80.9884 11.3363 81.3539 10.8323L81.6661 10.3978C82.0568 9.85452 81.8907 9.89979 81.6097 9.24891C81.3217 8.59099 81.1042 8.10609 80.798 7.56388C80.1334 6.37581 79.6208 7.05888 79.5896 8.09302L79.5393 9.61911C79.4939 11.0044 79.1032 11.3303 78.4829 9.8545C78.3308 9.47222 78.1566 9.09597 77.9592 8.763C77.5574 8.07389 77.0519 7.66546 76.8142 9.05674C76.7447 9.45309 76.7125 9.83538 76.7578 10.3535C77.8767 10.8826 78.215 11.115 78.4205 11.8786C78.6249 12.6441 77.6642 14.1008 76.4769 15.3713C75.4225 16.496 74.4104 17.3703 72.7227 18.7173Z" fill="#211E1F"/>
<path fill-rule="evenodd" clip-rule="evenodd" d="M128.502 17.7907C134.134 15.7988 135.413 14.7516 136.25 10.3393C136.469 9.19047 137.01 8.10502 137.433 9.67033C137.599 10.283 137.504 10.3333 137.868 9.82324L138.182 9.38866C138.572 8.84643 138.406 8.89069 138.118 8.23883C137.837 7.58191 137.614 7.09703 137.311 6.5538C136.646 5.36572 136.136 6.04979 136.103 7.08395L136.052 8.61003C135.97 10.3786 135.291 11.3554 134.716 9.43997C134.602 9.04361 134.391 8.67944 134.193 8.34145C133.783 7.65837 133.285 7.24994 133.048 8.64122C132.978 9.03658 132.945 9.41985 132.983 9.93794C134.244 10.5244 135.151 11.4701 134.48 12.9126C133.669 14.643 130.926 16.4376 128.502 17.7907Z" fill="#211E1F"/>
<path fill-rule="evenodd" clip-rule="evenodd" d="M92.7934 3.37238C90.016 6.81285 89.0281 11.4545 90.6816 13.1767C90.4198 14.0489 89.1449 19.4209 91.7803 21.7749C92.7772 22.7256 94.0129 23.1088 95.3291 23.3322C94.2868 25.1188 93.4812 26.3964 92.8346 28.0442C92.4389 29.0522 92.2214 29.7996 92.1448 30.539C92.0099 31.8941 92.175 32.9665 92.6634 33.7843C93.7299 35.577 95.3542 35.8265 96.9081 35.2269C98.0208 34.7924 100.097 32.6466 101.882 30.7372C103.391 29.1296 104.004 28.51 105.064 27.8199C106.704 26.7646 107.768 26.3632 108.255 26.2304C111.51 25.3431 112.34 27.0986 114.4 29.2443C113.765 30.8851 112.794 32.6144 112.831 34.3517C113.719 32.7049 114.506 31.0048 115.408 29.6588C120.024 30.7 125.535 31.2422 129.831 28.7775C131.104 28.0502 131.737 27.3672 132.875 26.0071C133.885 24.7999 133.712 25.2093 134.332 26.1348C135.822 28.3631 138.604 29.5511 139.701 26.1922C140.187 24.7053 140.124 22.9167 139.184 21.7226C138.047 20.2679 136.135 20.6944 134.619 22.4509L132.944 24.3985C131.596 26.1026 129.435 27.508 127.223 27.7565C126.067 27.8842 125.62 27.68 126.999 26.3139C128.027 25.2918 128.956 24.2385 129.127 22.6933C129.295 21.2507 128.725 19.8715 127.191 18.9903C125.72 18.1473 123.784 18.6271 121.636 20.1844C119.257 21.9086 117.399 24.6077 115.774 26.9698C114.706 26.503 114.775 26.3139 113.989 25.4648C112.366 23.7083 111.151 22.6933 108.114 23.6953C106.644 24.1751 105.461 24.9407 104.111 26.2112C103.038 27.2202 102.156 28.2282 100.897 29.4998C99.2978 31.1013 97.5717 32.6144 96.1921 33.062C95.2656 33.3618 94.3684 33.2662 93.6786 32.385C93.3795 32.0027 93.2314 31.4092 93.2314 30.4957C93.2314 29.8831 93.3976 29.3459 93.8195 28.2604C94.459 26.5814 95.3593 25.1187 96.3955 23.485C102.54 23.6007 108.045 22.9297 113.735 20.3061C117.199 18.7166 117.718 15.6635 115.743 12.063C115.058 10.8176 114.022 9.8408 112.539 9.06217C111.54 8.53906 110.544 8.41734 109.552 9.77743C109.036 10.4867 108.919 11.4826 108.779 12.9443C108.607 14.8084 109.118 15.422 112.097 15.0961C112.922 15.0076 113.69 14.9241 114.246 14.9422C114.975 14.9683 115.281 15.1977 115.695 16.4944C116.049 17.605 114.322 18.2177 112.23 18.7669C107.028 20.1401 102.776 21.2638 97.3421 21.0073C95.9232 20.9439 94.5708 20.797 93.1438 19.8906C91.2144 18.6583 91.0955 17.0558 91.6021 13.4875C92.8286 12.4524 93.4238 12.2803 93.9031 10.7029C94.0824 10.1356 94.1206 9.71305 94.1579 8.69198C93.7813 9.29858 93.1589 10.4806 92.598 10.876C91.9535 11.3226 91.4359 10.5279 91.2758 9.12959C91.0613 7.14175 92.1771 5.47786 93.0421 3.5363C93.1781 3.22846 92.9948 3.12189 92.7934 3.37238ZM112.96 13.0077C113.517 12.2612 111.45 9.89314 110.217 11.3297C109.331 12.3638 110.62 13.1807 111.74 13.3135C112.263 13.3719 112.75 13.2894 112.96 13.0077ZM116.872 27.3873C120.395 28.1216 123.028 27.508 126.008 25.7073C127.357 24.8904 128.175 23.8613 126.609 22.132C126.174 21.6461 125.58 21.296 124.788 21.123C123.291 20.784 119.565 22.6853 116.872 27.3873ZM138.661 25.5091C138.922 25.4256 138.89 25.3109 138.712 24.7234C138.539 24.1359 138.406 23.8301 137.732 23.2235C136.895 22.476 136.308 22.4569 135.574 23.319C134.089 25.0564 137.44 25.8984 138.661 25.5091Z" fill="#211E1F"/>
<path fill-rule="evenodd" clip-rule="evenodd" d="M106.453 11.6812L103.856 9.40163L104.848 7.20557L107.584 9.37649L106.453 11.6812Z" fill="#211E1F"/>
<path fill-rule="evenodd" clip-rule="evenodd" d="M122.436 8.27744L138.054 1.01221L136.282 3.71227L120.887 10.896L122.436 8.27744Z" fill="#211E1F"/>
<path fill-rule="evenodd" clip-rule="evenodd" d="M98.7158 7.04083L102.476 4.74215C103.87 3.89311 104.105 3.67581 102.214 3.45247C101.129 3.33075 100.117 3.36295 98.8961 3.33678L100.264 1.35197L103.313 1.26948C105.423 1.21112 105.89 1.02602 105.436 2.32877C104.835 4.05908 103.729 4.95239 102.394 5.70588C100.909 6.54889 100.353 6.67768 98.7158 7.04083Z" fill="#211E1F"/>
<path fill-rule="evenodd" clip-rule="evenodd" d="M117.397 1.7668C116.939 2.4881 117.193 2.8583 117.756 3.32407C118.063 3.57355 118.229 3.68823 118.356 3.80996C118.778 4.2194 118.837 4.78073 118.849 5.34811C118.861 6.05028 118.811 5.98691 119.443 5.50202C120.236 4.8944 120.397 4.47994 120.525 3.4327C120.67 2.19434 121.311 2.45588 121.502 3.47093L121.604 4.03932L122.436 2.64703C122.211 1.8684 122.089 1.53039 121.631 0.835236C121.152 0.126012 120.703 -0.155655 120.376 1.36438C120.275 1.82412 120.205 2.25166 120.121 2.80094C120.039 3.29889 119.872 3.73952 119.38 4.0725C118.99 3.4327 119.061 3.40151 118.888 2.68625C118.652 1.69636 118.196 0.515354 117.397 1.7668Z" fill="#211E1F"/>
<path d="M34.4729 14.1064L34.4336 15.556L40.6701 10.2273L40.6309 8.81689L34.4729 14.1064Z" fill="#211E1F"/>
<path fill-rule="evenodd" clip-rule="evenodd" d="M20.3326 36.0604C20.7555 37.3723 21.8894 37.3008 22.4332 36.7375C23.2076 35.9478 22.9357 35.319 22.7998 34.4378C22.6638 34.8331 22.6628 35.2677 22.4503 35.5061C21.3819 36.7012 20.8471 34.986 20.97 34.2879C21.1553 33.2336 22.5611 30.8504 21.6548 32.0154C21.6548 32.0154 19.7142 34.1451 20.3326 36.0604Z" fill="#211E1F"/>
<path d="M5.00144 49.6081C4.84324 49.7279 4.67258 49.8327 4.48949 49.9206C4.30817 50.0094 4.10907 50.076 3.89045 50.1222C3.67359 50.1674 3.43361 50.1905 3.1723 50.1905C2.75813 50.1905 2.37771 50.1151 2.0293 49.965C1.68089 49.815 1.3787 49.6108 1.1245 49.3506C0.870293 49.0913 0.671211 48.7841 0.525453 48.4308C0.381463 48.0774 0.308594 47.6974 0.308594 47.2898C0.308594 46.8885 0.379696 46.5103 0.521902 46.1569C0.664107 45.8035 0.863205 45.4945 1.12094 45.2291C1.3787 44.9645 1.68445 44.7549 2.03819 44.6022C2.39194 44.4504 2.78301 44.374 3.21141 44.374C3.46917 44.374 3.70381 44.3953 3.91535 44.438C4.12689 44.4806 4.32065 44.5409 4.4984 44.6191C4.67616 44.6963 4.8397 44.7887 4.98901 44.8961C5.13832 45.0027 5.28054 45.1207 5.41564 45.2495L4.77926 45.9802C4.55527 45.7716 4.3153 45.6029 4.06466 45.4741C3.81224 45.3454 3.52604 45.2815 3.20431 45.2815C2.93589 45.2815 2.68702 45.3339 2.45949 45.4386C2.23195 45.5425 2.03464 45.6846 1.86932 45.8639C1.70223 46.0433 1.57423 46.2537 1.48179 46.4943C1.39114 46.7358 1.34669 46.9951 1.34669 47.2739C1.34669 47.5527 1.39113 47.8137 1.48179 48.057C1.57423 48.3012 1.70223 48.5143 1.86932 48.6963C2.03464 48.8783 2.23195 49.0212 2.45949 49.126C2.68702 49.2299 2.93589 49.2823 3.20431 49.2823C3.54738 49.2823 3.84246 49.2166 4.08778 49.0852C4.33486 48.9547 4.57839 48.7762 4.82015 48.5516L5.45476 49.1944C5.31077 49.3498 5.15964 49.4873 5.00144 49.6081Z" fill="#231F20"/>
<path d="M12.2682 45.3611H9.08279V46.8066H11.9056V47.6989H9.08279V49.2012H12.3074V50.0926H8.10156V44.4688H12.2683L12.2682 45.3611Z" fill="#231F20"/>
<path d="M19.0138 44.4688H19.9951V50.0926H19.1685L16.0701 46.0918V50.0926H15.0889V44.4688H16.0043L19.0138 48.3577V44.4688Z" fill="#231F20"/>
<path d="M25.4314 50.0926H24.4341V45.385H22.6494V44.4688H27.2178V45.385H25.4314V50.0926Z" fill="#231F20"/>
<path d="M33.4744 50.0926L32.0861 48.1322H30.8436V50.0926H29.8623V44.4688H32.3723C32.694 44.4688 32.9838 44.5105 33.2451 44.5931C33.5046 44.6765 33.7232 44.7946 33.9046 44.9473C34.0841 45.0991 34.221 45.2874 34.3187 45.5093C34.4147 45.7313 34.4627 45.979 34.4627 46.2525C34.4627 46.4878 34.429 46.6982 34.3614 46.8829C34.2956 47.0676 34.2032 47.2309 34.0841 47.373C33.9668 47.5151 33.8263 47.6358 33.6628 47.7344C33.4993 47.8338 33.3179 47.9102 33.1188 47.9634L34.6405 50.0926L33.4744 50.0926ZM33.1509 45.599C32.9465 45.4401 32.6585 45.3611 32.287 45.3611H30.8436V47.2567H32.2958C32.6514 47.2567 32.9322 47.1706 33.142 46.9983C33.3517 46.8261 33.4566 46.5952 33.4566 46.3049C33.4566 45.9924 33.3553 45.7571 33.1509 45.599Z" fill="#231F20"/>
<path d="M42.6733 50.0935H41.6281L41.0575 48.7359H38.3964L37.8169 50.0935H36.8037L39.2799 44.4297H40.1972L42.6733 50.0935ZM39.7225 45.6106L38.7573 47.8605H40.6949L39.7225 45.6106Z" fill="#231F20"/>
<path d="M45.2393 44.4688H46.2205V49.2012H49.1802V50.0926H45.2393L45.2393 44.4688Z" fill="#231F20"/>
<path d="M59.7155 44.855C60.0461 45.1125 60.2133 45.4641 60.2133 45.9098C60.2133 46.0812 60.1901 46.2339 60.1457 46.3679C60.0995 46.5029 60.0408 46.6192 59.9697 46.7186C59.8968 46.8181 59.8133 46.9051 59.7137 46.9797C59.616 47.0552 59.5164 47.12 59.4151 47.1732C59.5804 47.2318 59.7315 47.3002 59.8666 47.3775C60.0035 47.4556 60.1208 47.5479 60.2186 47.6545C60.3163 47.761 60.3928 47.888 60.4461 48.0354C60.4995 48.1828 60.5261 48.3524 60.5261 48.545C60.5261 48.7963 60.4763 49.0183 60.3786 49.2101C60.279 49.4027 60.1386 49.5643 59.9573 49.6957C59.7742 49.8271 59.5555 49.9257 59.2978 49.9923C59.0418 50.0588 58.7574 50.0926 58.4463 50.0926H55.8457V44.4688H58.3663C58.9334 44.4688 59.3831 44.5975 59.7155 44.855ZM58.9423 46.6574C59.136 46.5304 59.232 46.3351 59.232 46.0714C59.232 45.8397 59.1467 45.6612 58.9796 45.5342C58.8107 45.4082 58.5672 45.3442 58.2454 45.3442H56.8269V46.8465H58.1743C58.4943 46.8465 58.7503 46.7835 58.9423 46.6574ZM59.2569 49.02C59.4489 48.8886 59.5449 48.6951 59.5449 48.4376C59.5449 48.197 59.4506 48.0096 59.2604 47.8756C59.0703 47.7415 58.7805 47.674 58.3912 47.674H56.8269V49.2172H58.4623C58.8001 49.2172 59.0649 49.1515 59.2569 49.02Z" fill="#231F20"/>
<path d="M68.6479 50.0935H67.6027L67.0321 48.7359H64.371L63.7915 50.0935H62.7783L65.2545 44.4297H66.1718L68.6479 50.0935ZM65.6971 45.6106L64.7319 47.8605H66.6695L65.6971 45.6106Z" fill="#231F20"/>
<path d="M75.1398 44.4688H76.121V50.0926H75.2944L72.1961 46.0918V50.0926H71.2148V44.4688H72.1303L75.1398 48.3577V44.4688Z" fill="#231F20"/>
<path d="M84.1558 50.0926H82.9577L81.0344 47.5621L80.158 48.4615V50.0926H79.1768V44.4688H80.158V47.2967L82.8369 44.4688H84.0509L81.7099 46.8873L84.1558 50.0926Z" fill="#231F20"/>
<path d="M96.0575 48.3988C95.9135 48.7522 95.709 49.0611 95.4477 49.3266C95.1847 49.5912 94.8736 49.8016 94.5145 49.957C94.1554 50.1124 93.759 50.1905 93.3235 50.1905C92.8898 50.1905 92.4933 50.1142 92.1343 49.9615C91.7752 49.8088 91.4659 49.601 91.2082 49.3382C90.9522 49.0762 90.7513 48.7682 90.6055 48.4148C90.4615 48.0614 90.3887 47.6867 90.3887 47.2898C90.3887 46.8938 90.4616 46.5192 90.6055 46.1649C90.7513 45.8115 90.9539 45.5025 91.217 45.2371C91.4801 44.9725 91.7912 44.762 92.1503 44.6067C92.5094 44.4513 92.9058 44.374 93.3395 44.374C93.775 44.374 94.1714 44.4504 94.5305 44.6022C94.8896 44.7549 95.1971 44.9627 95.4549 45.2255C95.7126 45.4874 95.9135 45.7955 96.0575 46.1489C96.2032 46.5023 96.2761 46.8779 96.2761 47.2739C96.2761 47.6707 96.2032 48.0454 96.0575 48.3988ZM95.0976 46.5147C95.0033 46.2714 94.8718 46.0584 94.7029 45.8763C94.534 45.6943 94.3314 45.5496 94.0968 45.4421C93.8603 45.3347 93.6026 45.2814 93.3235 45.2814C93.0444 45.2814 92.7884 45.3338 92.5556 45.4386C92.3227 45.5425 92.1236 45.6845 91.9565 45.8639C91.7912 46.0433 91.6597 46.2546 91.5673 46.4987C91.473 46.742 91.4268 47.0004 91.4268 47.2739C91.4268 47.5473 91.473 47.8057 91.5673 48.049C91.6597 48.2931 91.7912 48.5062 91.9601 48.6882C92.129 48.8703 92.3316 49.015 92.568 49.1215C92.8045 49.229 93.0604 49.2822 93.3395 49.2822C93.6186 49.2822 93.8746 49.2298 94.1074 49.126C94.3421 49.0212 94.5412 48.8791 94.7065 48.6998C94.8736 48.5204 95.0033 48.3091 95.0976 48.0649C95.1918 47.8217 95.238 47.5633 95.238 47.2898C95.238 47.0173 95.1918 46.7589 95.0976 46.5147Z" fill="#231F20"/>
<path d="M103.264 45.3611H100.062V46.9113H102.901V47.8027H100.062V50.0926H99.0811V44.4688H103.264V45.3611Z" fill="#231F20"/>
<path d="M109.984 44.4688H110.966V49.2012H113.925V50.0926H109.984L109.984 44.4688Z" fill="#231F20"/>
<path d="M117.61 44.4688V50.0926H116.629V44.4688H117.61Z" fill="#231F20"/>
<path d="M124.6 44.855C124.931 45.1125 125.098 45.4641 125.098 45.9098C125.098 46.0812 125.075 46.2339 125.03 46.3679C124.984 46.5029 124.926 46.6192 124.854 46.7186C124.782 46.8181 124.698 46.9051 124.599 46.9797C124.501 47.0552 124.401 47.12 124.3 47.1732C124.465 47.2318 124.616 47.3002 124.751 47.3775C124.888 47.4556 125.006 47.5479 125.103 47.6545C125.201 47.761 125.278 47.888 125.331 48.0354C125.384 48.1828 125.411 48.3524 125.411 48.545C125.411 48.7963 125.361 49.0183 125.263 49.2101C125.164 49.4027 125.023 49.5643 124.842 49.6957C124.659 49.8271 124.44 49.9257 124.183 49.9923C123.927 50.0588 123.642 50.0926 123.331 50.0926H120.73V44.4688H123.251C123.818 44.4688 124.268 44.5975 124.6 44.855ZM123.827 46.6574C124.021 46.5304 124.117 46.3351 124.117 46.0714C124.117 45.8397 124.031 45.6612 123.864 45.5342C123.695 45.4082 123.452 45.3442 123.13 45.3442H121.712V46.8465H123.059C123.379 46.8465 123.635 46.7835 123.827 46.6574ZM124.142 49.02C124.334 48.8886 124.43 48.6951 124.43 48.4376C124.43 48.197 124.335 48.0096 124.145 47.8756C123.955 47.7415 123.665 47.674 123.276 47.674H121.712V49.2172H123.347C123.685 49.2172 123.95 49.1515 124.142 49.02Z" fill="#231F20"/>
<path d="M130.557 50.0926H129.559V47.8756L127.323 44.4688H128.489L130.066 46.9593L131.659 44.4688H132.793L130.557 47.8516V50.0926Z" fill="#231F20"/>
<path d="M139.772 50.0935H138.727L138.156 48.7359H135.495L134.916 50.0935H133.902L136.379 44.4297H137.296L139.772 50.0935ZM136.821 45.6106L135.856 47.8605H137.794L136.821 45.6106Z" fill="#231F20"/>
</svg>
