<svg width="106" height="50" viewBox="0 0 106 50" fill="none" xmlns="http://www.w3.org/2000/svg">
<path d="M11.1913 12.8448C13.0735 12.8453 15.0254 12.8054 16.9007 12.8528L16.9173 17.2933L16.9012 18.1327L7.49454 18.1237C7.48842 19.5371 7.49043 20.9505 7.50063 22.3638C9.29022 22.3925 11.0802 22.3977 12.87 22.379C13.6223 22.3777 14.8088 22.427 15.5186 22.3899L15.5207 27.3607L7.49625 27.3622C7.47973 30.683 7.48526 34.0037 7.51258 37.3244L1.04066 37.3462L1.04432 12.8414L11.1913 12.8448Z" fill="#23387B"/>
<path d="M6.35149 41.1515C6.32217 41.4141 6.29345 41.7594 6.25081 42.035L6.23155 42.1483C5.85586 42.2987 4.0215 42.2364 3.50423 42.2289L3.30117 44.0266L5.40638 44.0392L5.1787 45.0757C4.45097 45.1101 3.76794 45.0894 3.04179 45.0718C2.86856 46.0231 2.70751 46.9765 2.55864 47.9322C2.13931 47.921 1.70502 47.9212 1.28444 47.9159C1.33959 47.0275 1.58495 45.9492 1.73956 45.0612C1.96577 43.7621 2.15639 42.4576 2.47843 41.1791C3.75403 41.1785 5.08103 41.1946 6.35149 41.1515Z" fill="#23387B"/>
<path d="M6.72779 41.1692C6.73786 41.0212 6.72818 40.9735 6.81618 40.852C7.12981 40.7049 7.86494 40.6144 8.12795 40.8268C8.0899 41.0751 8.03146 41.7045 7.89521 41.8664C7.50662 41.8647 7.1021 41.8825 6.71252 41.8941C6.73187 41.6421 6.7293 41.4213 6.72779 41.1692Z" fill="#23387B"/>
<path d="M21.4811 0.626071C21.7392 0.655274 22.167 0.646584 22.4403 0.648805C22.2849 1.75516 21.9687 4.01152 21.1096 4.76725C20.3488 5.43662 18.836 5.32844 17.8637 5.27977C17.4224 4.93842 17.4354 5.18654 16.9138 5.22861C16.147 5.29054 14.8717 5.44747 14.1889 5.12761C14.0898 5.08116 13.407 5.31779 13.1249 5.31419L7.87316 5.28199C7.96504 4.84617 8.40622 3.34999 7.83353 3.24625C6.28739 2.96625 6.0303 3.05692 5.49283 4.40644C6.0126 4.45798 6.74364 4.45981 7.2802 4.47595C6.6303 7.3677 6.41086 7.60674 3.43817 7.57663C0.0299528 7.54213 -0.418337 7.62268 0.281183 4.18184L1.27215 4.20744C0.733159 7.14388 1.17408 6.61275 3.90094 6.59975C5.18388 6.6168 5.64204 6.73342 6.03583 5.37071L4.38497 5.33647C4.95608 2.61693 5.23416 2.13199 8.41491 2.45674C9.43279 2.56061 9.03742 3.72903 8.84799 4.39115C9.63071 4.4001 10.4136 4.40141 11.1963 4.39514C11.3425 3.71473 11.5013 3.037 11.6727 2.36234L12.6434 2.38122C12.5372 3.07816 12.3933 3.71035 12.2395 4.39618C14.2483 4.45367 14.5622 4.40709 14.9364 2.37057C15.2514 2.38873 15.6154 2.38252 15.9345 2.38475C15.7996 3.06424 15.6698 3.71068 15.5035 4.38481C17.4208 4.43799 17.9716 4.47392 18.3395 2.43492C18.4369 1.89497 18.6199 1.19705 18.7424 0.648871L19.6363 0.648022C19.374 1.89301 19.1627 3.15237 18.9028 4.37606C20.0428 4.48301 20.6233 4.35692 20.9555 3.14825C21.1811 2.32706 21.2881 1.45752 21.4811 0.626071Z" fill="#23387B"/>
<path d="M2.79835 8.21466C3.05327 8.19911 3.30134 8.15534 3.50742 8.27091C3.46082 8.47859 3.42422 8.59998 3.42442 8.81563C3.65472 8.43933 3.73555 8.05663 4.26696 8.2259C4.43151 8.42496 4.38616 8.32886 4.4017 8.63369L4.29454 8.86541C4.06214 9.01436 2.94335 8.97307 2.46064 9.02135C2.49618 8.77728 2.51935 8.46252 2.63368 8.25719L2.79835 8.21466Z" fill="#23387B"/>
<path d="M15.2071 6.112L16.0951 6.10259C15.9699 6.42499 15.8805 6.60994 15.7178 6.91673C15.234 6.94358 14.9645 6.94776 14.962 6.40226C15.0462 6.22528 15.0464 6.21365 15.2071 6.112Z" fill="#23387B"/>
<path d="M11.4375 6.09977C11.6681 6.08063 11.831 6.05542 12.0613 6.10082C12.2544 6.24383 12.2046 6.16648 12.2573 6.38644C12.19 6.64887 12.1789 6.68559 12.0323 6.91908L11.2425 6.9145C11.2963 6.59805 11.3464 6.40898 11.4375 6.09977Z" fill="#23387B"/>
<path d="M14.0744 6.09862C14.3759 6.08705 14.5584 6.04256 14.7958 6.17904C14.8912 6.37757 14.8197 6.64301 14.7876 6.87735C14.4959 6.90812 14.2885 6.96626 14.0546 6.81411C13.958 6.59218 14.0331 6.35079 14.0744 6.09862Z" fill="#23387B"/>
<path d="M6.44636 42.9216L7.7678 42.9263C7.49485 44.4773 7.07934 46.3898 6.86859 47.9133C6.47815 47.9153 5.88039 47.9362 5.5095 47.8859C5.88296 46.6266 6.12695 44.3426 6.44636 42.9216Z" fill="#23387B"/>
<path d="M22.8837 0.639082C23.2542 0.665344 23.462 0.660639 23.8346 0.640322C23.7064 1.58976 23.1203 4.44767 22.7972 5.28774C22.5124 5.298 22.1539 5.3402 21.9034 5.22843C21.9803 5.01205 22.1678 3.99291 22.2262 3.70984C22.4341 2.68397 22.6534 1.66032 22.8837 0.639082Z" fill="#23387B"/>
<path fill-rule="evenodd" clip-rule="evenodd" d="M63.9498 12.8471C68.1668 12.7418 72.5293 12.8705 76.7496 12.8935C78.5964 12.9751 81.0482 14.2664 81.6465 16.0785C82.7403 19.3935 82.2493 22.8859 78.7431 24.3557C82.2967 25.0982 83.3071 27.9979 83.0616 31.2811C83.0023 32.0756 82.749 32.8123 82.4811 33.5601C81.8374 35.0872 80.8047 36.2381 79.1507 36.7068C76.3653 37.496 73.4441 37.3431 70.5777 37.3424L63.9374 37.3342L63.9498 12.8471ZM76.0841 27.8021C75.0027 26.8165 71.8862 27.1096 70.4639 27.1132C70.4369 28.6666 70.4119 30.5238 70.4593 32.0734C72.0988 32.0654 74.7896 32.3378 76.0112 31.399C76.8575 30.4957 76.9772 28.6165 76.0841 27.8021ZM74.463 17.967C73.3362 17.6792 71.6459 17.7917 70.4566 17.7975C70.4533 19.3283 70.4251 20.9342 70.4554 22.4588C71.8665 22.4178 74.3558 22.7123 75.322 21.8311C76.2573 20.5919 76.2473 18.4227 74.463 17.967Z" fill="#23387B"/>
<path d="M29.8274 12.4496C31.8069 12.245 34.9869 12.5423 36.7301 13.6163C39.2174 15.1485 39.7447 16.8061 40.4188 19.3822C39.5503 19.4771 35.0393 20.3616 34.3538 20.6859C33.4055 17.7827 30.3467 16.8689 27.9434 18.8231C25.9113 20.4756 26.0109 23.7478 26.0357 26.1156C26.065 28.9335 27.2008 32.1991 30.5476 32.3699C32.1353 32.4623 33.8848 31.7707 35.0586 30.7099L35.0715 28.4998L30.7773 28.5094C30.7624 26.8066 30.7616 25.1036 30.7747 23.4007L34.704 23.3941L40.6786 23.3986L40.6777 33.7934C39.814 34.7119 39.227 35.0099 38.1757 35.6354C36.1117 36.8635 34.2993 37.5869 31.8742 37.7179C28.839 37.9476 25.6968 37.5124 23.3539 35.3743C18.4119 30.8643 18.2868 20.6572 22.5608 15.6607C24.5162 13.3748 26.9442 12.6605 29.8274 12.4496Z" fill="#23387B"/>
<path d="M105.907 0L105.932 0.00496432C105.954 0.0269151 105.977 0.0488676 106 0.0708183C105.831 0.359118 105.481 0.936567 105.329 1.20729C104.668 2.41942 103.847 3.56857 103.18 4.77142C102.525 6.03333 101.948 7.33763 101.303 8.60483C100.915 9.36684 100.567 10.1234 100.245 10.9152C99.5215 12.6951 98.7363 14.4594 98.1518 16.2905C97.8003 17.3891 97.5259 18.5195 97.2349 19.6338C95.7922 24.9522 95.0346 30.4309 94.9813 35.9385C94.9504 37.9805 95.0603 40.1721 95.1281 42.2216C93.5011 39.2786 92.1676 36.185 91.1454 32.985C89.6158 28.2593 89.4848 23.1967 90.7702 18.3996C91.2639 16.4912 92.0267 14.3635 92.6586 12.4733C89.725 12.4608 87.1344 12.3307 84.2114 12.1524C84.4135 12.0051 84.6182 11.8819 84.838 11.7623C86.3933 10.915 87.8782 9.93789 89.4716 9.16223C90.0298 8.89059 90.6004 8.61169 91.1408 8.31176L105.907 0Z" fill="#E62C27"/>
<path d="M44.5657 12.8378L50.9104 12.8455L50.9294 31.3169C54.2059 31.2305 57.716 31.2918 61.0075 31.2962L61.0089 37.3382L44.5681 37.3423C44.5269 34.4135 44.5649 31.4026 44.5647 28.4678L44.5657 12.8378Z" fill="#23387B"/>
<path d="M60.7298 0.712971C61.0019 0.707152 61.3355 0.684627 61.6023 0.739113L61.6547 0.750973C61.4131 1.75402 61.1959 3.18181 60.957 4.0475C60.3219 5.51186 58.3228 5.34582 56.9847 5.30472C56.1993 5.28057 52.5171 5.41789 52.08 5.16651L52.0479 5.14787C49.9032 5.4789 47.2677 5.21629 45.0553 5.29867C44.5579 5.31723 43.5061 5.23505 43.0995 5.29359C42.7827 5.33651 42.4842 5.46648 42.238 5.66902C41.9706 5.89316 41.6952 6.3094 41.6973 6.65611C41.7072 8.30321 44.4324 7.12761 45.0709 7.76471C45.1481 7.96717 45.134 8.00018 45.074 8.21106C44.8587 8.29832 44.6109 8.33505 44.371 8.34322C42.4351 8.43129 39.9224 8.65571 40.9487 5.79028C41.569 4.05838 44.1648 4.47565 45.643 4.43503C45.7658 3.96668 45.7985 3.76719 45.8558 3.29132C44.9851 3.16563 44.2521 3.28218 43.4134 3.21992C43.2596 3.20855 43.0811 3.02159 43.0005 2.85684C43.0358 2.4092 43.6818 2.42538 44.0504 2.44995C44.8882 2.50577 46.1797 2.27059 46.8511 2.85611C47.1052 3.07773 46.7367 4.1372 46.642 4.44495C47.4299 4.44809 48.2424 4.46399 49.0265 4.41179C49.3276 3.72533 49.4347 3.10588 49.5112 2.37297C49.8377 2.38643 50.2076 2.38184 50.5382 2.38556C50.4356 3.10876 50.3115 3.73968 50.0631 4.42656C52.3597 4.5301 52.5317 4.13574 52.9081 1.93825C52.9733 1.5597 53.0745 1.11342 53.1522 0.734756L54.2094 0.710308C54.0106 1.88036 53.663 3.28689 53.4057 4.46577C54.701 4.40234 56.0706 4.47935 57.4021 4.42147C57.8148 2.07543 55.6988 3.64699 55.352 2.93454C55.3947 2.71894 55.3928 2.69149 55.5007 2.50465C55.8949 2.29122 57.6298 2.46114 58.0912 2.83626C58.8053 3.41695 58.1927 4.19595 58.6158 4.52628C60.2593 4.61323 60.4902 1.89505 60.7298 0.712971Z" fill="#23387B"/>
<path d="M62.0279 1.04458C62.1958 0.509804 62.6829 0.726904 63.187 0.739839C62.8856 2.14388 62.5063 3.92753 62.1213 5.29577L61.1091 5.29456L61.2137 4.436C61.3406 4.15185 61.6744 2.66052 61.879 1.72693L62.0279 1.04458Z" fill="#23387B"/>
<path fill-rule="evenodd" clip-rule="evenodd" d="M75.3018 2.03773C77.3842 2.03598 79.4343 1.45241 78.4221 4.38832C79.8731 4.42345 79.104 3.61149 79.824 2.83724C80.3295 2.29386 81.2432 2.33268 81.9441 2.32771L82.7437 2.34538C82.5502 3.37754 82.4358 4.26167 81.9685 5.20839C81.2775 5.34923 79.2798 5.30112 78.457 5.30013C76.3305 5.29014 74.2032 5.2923 72.0767 5.30667C71.9747 5.57889 71.8047 6.00538 71.6053 6.21533C71.2795 6.55805 70.6774 6.94136 70.2621 6.5392C70.1331 5.90447 70.8786 5.82771 71.2874 5.42164C71.5302 4.54619 71.7456 3.01446 71.9799 1.9978C72.224 2.0217 72.4676 2.04894 72.711 2.07937C72.8404 2.3899 72.4075 3.97016 72.2983 4.38589L73.3529 4.40913C73.447 3.91272 73.5411 3.58541 73.6859 3.10398L74.5876 3.09067C74.5297 3.32788 74.4744 3.56574 74.4211 3.804C74.3671 4.05131 74.3229 4.19917 74.4552 4.40308L74.6468 4.3796C74.937 4.146 75.213 2.4712 75.3018 2.03773ZM81.5838 3.15675C81.3733 3.04195 81.3107 3.08735 81.0402 3.09454C80.5808 3.21635 79.9865 3.90458 80.382 4.34959C80.59 4.40812 80.6771 4.40272 80.8884 4.4101C81.0647 4.39908 81.3003 4.42486 81.4134 4.2685C81.6892 3.88647 81.8254 3.60392 81.5838 3.15675ZM77.721 3.67305C77.9598 2.61562 76.6865 2.90831 76.0441 2.88734C75.846 3.42192 75.7696 3.85023 75.6551 4.40695C76.2533 4.39715 76.8517 4.39192 77.4499 4.39146C77.6796 4.23193 77.6618 3.93465 77.721 3.67305Z" fill="#23387B"/>
<path fill-rule="evenodd" clip-rule="evenodd" d="M64.6572 41.9329C65.6359 41.922 67.8054 41.6631 68.3353 42.5571C68.9057 43.5209 68.4095 44.2572 67.6144 44.7637C68.5002 45.6036 68.5854 46.4622 67.6956 47.3416C66.6412 48.1525 64.9982 47.9296 63.6641 47.9048C63.8188 46.2964 64.3689 43.6184 64.6572 41.9329ZM65.2628 45.3139C65.0936 45.9284 65.0153 46.3357 64.9863 46.9887C65.7254 47.0013 66.0125 47.0369 66.7181 46.7815C67.263 46.3043 67.4155 45.7159 66.6001 45.454C66.1328 45.3041 65.7458 45.3168 65.2628 45.3139ZM65.7703 42.729C65.6011 43.3387 65.4701 43.8731 65.4424 44.512C65.9203 44.4696 66.3915 44.4476 66.8358 44.2539C67.0603 44.0943 67.409 43.8167 67.4321 43.5396C67.5012 42.7181 66.2008 42.7458 65.7703 42.729Z" fill="#23387B"/>
<path fill-rule="evenodd" clip-rule="evenodd" d="M45.9521 41.1114C45.8521 41.9743 45.6611 42.8267 45.5796 43.6878L45.644 43.7563C47.8081 42.5246 49.5542 45.4409 47.2414 47.3624C46.0061 48.1164 45.1189 47.9981 43.7272 47.9726L44.8931 41.1167L45.9521 41.1114ZM46.2607 46.8977C47.4259 46.0506 47.6941 44.0905 45.9323 44.3718C45.0616 45.1097 45.115 46.0036 45.113 47.0695C45.5427 47.0548 45.853 47.0457 46.2607 46.8977Z" fill="#23387B"/>
<path fill-rule="evenodd" clip-rule="evenodd" d="M71.0431 43.5341C71.8105 43.4767 72.6597 43.5107 73.4357 43.5247C73.2034 44.882 72.9736 46.5905 72.6498 47.8976C72.2707 47.9277 71.9849 47.9857 71.6281 47.855C71.5663 47.7871 71.5249 47.7412 71.4558 47.6805L71.4063 47.6376C71.0653 47.9831 70.2861 48.1548 69.8905 47.8896C67.8457 46.5163 69.1021 44.1229 71.0431 43.5341ZM71.9889 44.3699C71.8606 44.2912 71.927 44.3059 71.7868 44.3113C71.2748 44.4268 71.0417 44.4801 70.6331 44.8199C70.0005 45.3464 69.5615 46.327 70.3764 46.9362C71.078 47.1696 71.5946 47.0479 71.7671 46.241C71.8421 45.8881 72.0626 44.6503 71.9889 44.3699Z" fill="#23387B"/>
<path fill-rule="evenodd" clip-rule="evenodd" d="M54.8951 43.5363C55.5809 43.4986 56.3667 43.5219 57.061 43.5273L56.2549 47.9203C55.4756 47.936 55.6848 47.8801 55.0167 47.6846L54.764 47.8518L54.0914 48.0348C51.4157 47.4523 52.134 44.0908 54.8951 43.5363ZM55.5487 44.3164C54.2185 44.4953 52.8481 45.6869 53.9176 46.933C55.5762 47.5774 55.6737 45.6572 55.6559 44.3798C55.646 44.3641 55.6353 44.3484 55.6254 44.3326L55.5487 44.3164Z" fill="#23387B"/>
<path d="M23.4126 41.8483C24.4707 41.8556 24.7471 41.9031 25.7073 42.3512C25.5956 42.7015 25.4567 43.0771 25.3352 43.4273C24.9373 43.0974 24.7219 42.9774 24.2551 42.7607C23.4611 42.7855 22.963 42.8946 22.3625 43.4539C21.5722 44.1901 21.0679 45.7056 21.9087 46.5804C22.4347 47.1276 23.252 47.0083 23.9475 46.9979C24.0058 46.5492 24.117 45.3965 24.3525 45.0371L24.5845 45.0096C24.7903 45.0052 25.1535 44.965 25.2864 45.1244C25.2701 45.7016 25.0112 47.0173 24.8633 47.5802C24.4233 47.8838 24.092 47.989 23.5549 48.0439C20.315 48.3764 19.442 45.141 21.3038 42.9549C21.9131 42.2394 22.4688 41.928 23.4126 41.8483Z" fill="#23387B"/>
<path d="M79.8733 41.198L80.7119 41.1734C80.4565 42.4334 80.3137 43.742 80.026 45.0079C80.5414 44.5171 81.0449 44.0139 81.5352 43.4985L82.849 43.5174C82.1665 44.2398 81.7709 44.8317 80.9903 45.5139C81.3641 46.0706 81.8564 47.1754 82.0605 47.8107L82.0032 47.8714C81.7485 47.9459 81.268 47.8988 80.983 47.8864C80.7987 47.3625 80.1517 46.2759 79.8529 45.748C79.8009 46.6133 79.7206 47.0573 79.4955 47.893C79.1368 47.9282 78.7248 47.923 78.3602 47.9269C78.5398 46.4613 79.1796 42.906 79.56 41.3011C79.5791 41.2206 79.7542 41.2189 79.8733 41.198Z" fill="#23387B"/>
<path d="M51.5692 43.3334C51.9002 43.3872 52.4228 43.3735 52.7723 43.3752C52.3853 44.5128 51.7758 45.6176 51.26 46.7054C50.6962 47.8937 50.4736 49.2147 49.3046 49.9719C48.8228 50.0143 48.2091 49.9967 47.7126 49.9947C47.9143 49.6498 48.0393 49.3937 48.2079 49.0337C48.5773 49.067 48.7114 49.0919 49.067 49.0063C49.1392 48.9279 49.2069 48.8462 49.2695 48.76C49.7294 48.123 48.8655 44.2932 48.7124 43.3739C49.1135 43.3636 49.4559 43.3749 49.8541 43.391C50.0559 44.1028 50.2581 45.6363 50.3115 46.3722C50.6509 45.4301 51.1755 44.2707 51.5692 43.3334Z" fill="#23387B"/>
<path fill-rule="evenodd" clip-rule="evenodd" d="M70.7647 2.01782C70.5817 3.11176 70.2032 4.26756 70.057 5.29643C68.6459 5.29912 66.3792 5.44972 64.9615 5.12772C64.7212 5.07317 64.5673 4.61351 64.4995 4.37663C64.4831 3.8856 64.7852 2.88534 64.9254 2.36468L65.7393 2.38889C65.6314 2.98854 65.4959 3.65565 65.4458 4.25609C66.3232 4.49323 67.0907 4.43625 67.9845 4.38099C67.4935 3.21839 68.0602 2.6339 69.0593 2.05195C69.5634 2.01314 70.2461 2.02331 70.7647 2.01782ZM69.2494 2.93205C68.5979 3.33885 68.5123 3.79343 69.2238 4.19122C69.468 4.00986 69.6488 3.21229 69.4829 2.95093L69.2494 2.93205Z" fill="#23387B"/>
<path d="M59.8901 43.409C60.697 43.3259 60.9103 43.3831 61.375 44.0396C61.5678 45.1507 61.1354 46.7357 61.0182 47.9368L59.9184 47.8989C60.0007 47.3544 60.1152 46.8593 60.2291 46.2878C60.3133 45.8655 60.7095 44.4097 59.9388 44.3302C59.5946 44.2948 59.2615 44.352 58.9805 44.5719C58.5415 45.3982 58.3651 46.9482 58.2176 47.9106C57.8484 47.9191 57.4278 47.9034 57.054 47.8982C57.2185 46.4993 57.5371 44.9173 57.8004 43.526C58.2611 43.5111 58.7284 43.4013 59.0285 43.7926C59.228 43.7802 59.6597 43.5181 59.8901 43.409Z" fill="#23387B"/>
<path d="M76.421 43.3936C78.9326 43.0671 77.5596 46.6268 77.4537 47.9282L76.4368 47.9113C76.4809 47.1196 76.6678 46.1131 76.7764 45.3098C76.9219 44.2378 76.0379 44.0253 75.4337 44.6185C74.9835 45.5666 74.8315 46.8994 74.6755 47.9492C74.3102 47.9243 73.9047 47.9211 73.5361 47.9106C73.6737 46.8489 74.0831 44.526 74.3326 43.5136L74.4806 43.5099C74.9164 43.5012 75.2185 43.4411 75.5482 43.7818C75.7332 43.7776 76.1781 43.5027 76.421 43.3936Z" fill="#23387B"/>
<path d="M29.2747 43.5116C29.6083 43.5246 29.9563 43.5112 30.2912 43.5039C30.2727 43.8909 30.1943 44.356 30.1394 44.7459C29.9482 45.8043 29.7645 46.8639 29.5883 47.9251C28.8891 47.9466 28.9517 47.8911 28.3125 47.7057C27.9695 47.7642 27.6251 48.0133 27.2687 47.995C25.6486 47.9107 25.9288 46.3882 26.1689 45.2816C26.2874 44.7348 26.4386 44.0551 26.4716 43.4943C26.8422 43.5179 27.2874 43.5162 27.6645 43.5249C27.54 44.198 27.0383 46.3556 27.2314 46.8626C27.4979 47.1013 28.1975 47.0572 28.4317 46.8222C29.0935 46.1582 29.1512 44.4077 29.2747 43.5116Z" fill="#23387B"/>
<path d="M12.8193 42.8791C13.7227 42.791 14.2616 42.8338 15.1031 43.1686L14.7491 44.1954C14.209 43.8646 13.6777 43.4688 12.9622 43.9352C12.8301 44.0214 12.815 44.1555 12.7975 44.297C12.9393 44.7082 13.7442 45.072 14.1237 45.3089C15.5898 46.2239 14.5891 47.7651 13.2019 48.0459C12.2357 48.0505 11.8456 47.978 10.9993 47.5785C11.0821 47.2202 11.2152 46.8638 11.3362 46.5152C11.945 47.0121 12.4984 47.1979 13.2995 47.0061C13.4182 46.9777 13.6355 46.7562 13.6539 46.64C13.7863 45.6852 11.8443 45.7881 11.5968 44.7898C11.3592 43.8313 11.9234 43.1685 12.8193 42.8791Z" fill="#23387B"/>
<path d="M17.6225 41.5192C17.7432 41.7132 17.5568 42.7131 17.5178 42.9945L18.48 42.9647C18.4374 43.2839 18.3817 43.5815 18.3224 43.8981L17.3179 43.8443C17.1345 44.7638 16.8406 46.0425 16.8263 46.9459C17.2313 46.9359 17.5914 46.8685 17.9892 46.8042C17.8221 47.3905 17.7634 47.7254 17.1435 47.9531C14.648 48.2014 15.6824 46.0105 15.8568 44.5126C15.8788 44.3242 15.9721 44.0668 15.9245 43.8848C15.7202 43.895 15.6564 43.8974 15.4551 43.866C15.278 43.5926 15.4203 43.1656 15.6636 42.9706C16.3876 42.8554 16.2833 42.385 16.3533 41.7447C16.7236 41.7007 17.2448 41.5886 17.6225 41.5192Z" fill="#23387B"/>
<path d="M30.8628 0.724598C31.1674 0.712838 31.4942 0.715908 31.8009 0.712968C31.595 2.19216 31.1364 3.78595 30.8808 5.28245C29.2938 5.29558 27.4375 5.37502 25.844 5.24123C24.9987 5.17028 24.8428 4.62236 24.8321 3.86611C24.8821 3.38678 25.0031 2.88002 25.1033 2.40586L26.0418 2.39233C25.9347 3.02766 25.8081 3.60969 25.8183 4.25449C26.8049 4.55756 28.912 4.45531 30.0432 4.4446C30.3602 3.25841 30.6111 1.93614 30.8628 0.724598Z" fill="#23387B"/>
<path d="M38.8916 41.2007L39.8248 41.1702C39.4597 42.9694 39.145 45.0769 38.8209 46.9096C39.5938 46.9133 40.3665 46.9214 41.1393 46.9342C41.1082 47.2059 41.0979 47.6692 40.9735 47.8741L40.8086 47.912C39.6917 47.9218 38.5747 47.9192 37.4578 47.9061C37.6347 47.0045 38.4749 41.6668 38.6844 41.2399L38.8916 41.2007Z" fill="#23387B"/>
<path d="M34.729 41.2448C35.0556 41.2467 35.5538 41.2998 35.8917 41.3254L35.8021 42.2512C35.6745 42.2292 35.5465 42.2097 35.4182 42.1927C34.6486 42.0982 34.7071 42.9997 34.6628 43.5288C34.8861 43.5199 35.2114 43.4817 35.3783 43.6049C35.4331 43.8249 35.4571 43.8747 35.3809 44.0843C35.1753 44.3123 34.9355 44.324 34.626 44.3952C34.3864 44.7659 34.0082 47.257 33.9014 47.8702C33.7043 47.9832 33.0765 47.9322 32.7943 47.9303C32.8987 46.7873 33.2833 45.418 33.3082 44.4142C33.1701 44.197 33.0586 44.4713 32.7784 44.2862C32.7435 44.0451 32.8055 43.7713 32.9885 43.602C33.0826 43.5867 33.3488 43.5477 33.3931 43.4715C33.9556 42.5051 33.6945 41.8788 34.729 41.2448Z" fill="#23387B"/>
<path d="M38.8366 0.624538C38.6771 0.617969 38.5012 0.629502 38.2703 0.673675C38.6361 0.730314 38.8826 0.731056 39.2552 0.736609C39.1616 1.33263 39.0515 1.92593 38.9253 2.51594L38.9097 2.56556C38.6997 3.25044 38.6941 3.88503 38.2384 4.47924C37.4228 5.54247 36.0657 5.23444 34.9182 5.30609C34.9247 5.11736 35.0077 4.69029 35.0423 4.48481C35.5903 4.45665 36.5015 4.43627 37.0015 4.32384C37.8253 3.97726 38.1233 1.53472 38.2701 0.673433C38.5011 0.629244 38.677 0.617958 38.8366 0.624538Z" fill="#23387B"/>
<path d="M10.9176 42.8215C11.1257 42.8374 11.1634 42.832 11.3521 42.9098C11.6729 43.3014 11.4156 43.9242 11.0714 44.2291C10.8022 44.1469 10.4264 44.0316 10.2007 44.2507C9.39359 45.034 9.25648 46.8009 9.09892 47.8446C8.88138 47.9674 8.65385 47.9243 8.39288 47.9132C8.14863 47.9008 8.12961 47.9426 7.9777 47.8061C7.99165 47.542 8.02239 47.3027 8.07366 47.0439C8.34668 45.6659 8.55315 44.3266 8.68439 42.9285C8.97735 42.926 9.74493 42.8502 9.96042 42.9375L10.0175 43.1664L10.1187 43.2141C10.4204 42.9565 10.4486 42.8621 10.8465 42.8271L10.9176 42.8215Z" fill="#23387B"/>
<path d="M31.6611 41.1878L32.9135 41.1955C32.4827 43.4111 32.0951 45.6635 31.684 47.8865C31.4601 47.961 30.8198 47.9127 30.5493 47.9035C30.8805 45.6596 31.3457 43.4438 31.6611 41.1878Z" fill="#23387B"/>
<path d="M42.6106 43.5199L43.73 43.5216C43.6625 44.1221 43.1313 47.4688 42.9355 47.9329L41.814 47.897C41.955 46.6096 42.3102 44.77 42.6106 43.5199Z" fill="#23387B"/>
<path d="M39.6847 0.737603C39.9534 0.730809 40.2205 0.718069 40.4884 0.738648L39.6965 5.29709L38.6847 5.28749C38.7968 4.79458 39.0994 3.60662 39.1453 3.15735C39.3319 2.35229 39.5117 1.54567 39.6847 0.737603Z" fill="#23387B"/>
<path d="M35.6292 1.84086C35.8628 1.71595 36.383 1.71661 36.6666 1.70563C36.5371 2.35259 36.2984 3.36866 36.2163 3.99289C36.0112 4.1129 35.3862 4.11897 35.2046 3.92782C35.3463 3.51467 35.5408 2.32189 35.6292 1.84086Z" fill="#23387B"/>
<path d="M35.4848 1.51318C35.3096 0.747264 36.2025 -0.215029 36.729 0.560944C36.5809 0.751975 36.3754 0.670755 36.0537 0.856734L36.0442 0.955491C36.2947 1.1473 36.3975 0.97528 36.759 1.1501C36.7858 1.33914 36.7861 1.26955 36.6834 1.46671C36.2207 1.45874 35.9517 1.45348 35.4848 1.51318Z" fill="#23387B"/>
<path d="M42.9584 41.5498C43.3096 41.5502 43.6651 41.5433 44.0167 41.5395C44.0003 41.869 43.9568 42.2252 43.9231 42.5557C43.5532 42.5484 43.1624 42.5563 42.7906 42.5577C42.8236 42.1553 42.8679 41.9466 42.9584 41.5498Z" fill="#23387B"/>
<path d="M42.7758 6.07971C43.1205 6.06665 43.4667 5.96865 43.6463 6.28864C43.6418 6.53447 43.5632 6.6684 43.4655 6.89372C43.1826 6.93507 42.9765 6.99361 42.7493 6.84028C42.6511 6.61822 42.7345 6.33613 42.7758 6.07971Z" fill="#23387B"/>
<path d="M48.6828 6.10755C48.8949 6.08723 49.0369 6.05509 49.2397 6.11761C49.4209 6.29641 49.3749 6.20743 49.4188 6.45098C49.3582 6.63907 49.3312 6.78645 49.1998 6.93142C48.8329 6.92279 48.5453 6.99511 48.4415 6.61313C48.52 6.36436 48.5378 6.32464 48.6828 6.10755Z" fill="#23387B"/>
<path d="M49.7036 6.10157C49.9289 6.08811 50.0706 6.06734 50.2925 6.12561C50.517 6.31187 50.4586 6.2155 50.5247 6.48316C50.4677 6.64786 50.4393 6.79321 50.3144 6.90787L49.4746 6.89069C49.5451 6.54908 49.5772 6.42567 49.7036 6.10157Z" fill="#23387B"/>
<path d="M56.3392 1.13017C56.742 1.09986 57.0046 1.04616 57.0882 1.52947C57.0079 1.74035 57.0092 1.76792 56.846 1.91302C56.5031 1.93588 56.2102 2.02891 56.0911 1.66692C56.1615 1.40247 56.199 1.35216 56.3392 1.13017Z" fill="#23387B"/>
<path d="M69.7024 0.619616C69.8683 0.61537 69.9117 0.618896 70.0763 0.643656C70.225 0.782678 70.2856 0.902036 70.2197 1.09796C70.1105 1.42317 69.9519 1.39005 69.6695 1.43291L69.3825 1.42441L69.2772 1.31028C69.2331 0.938098 69.3365 0.735642 69.7024 0.619616Z" fill="#23387B"/>
<path fill-rule="evenodd" clip-rule="evenodd" d="M31.3035 5.28648C32.0647 2.41768 31.8662 2.27957 35.0138 2.438C34.9028 2.884 34.8051 3.58569 34.7264 4.05613L34.5082 5.23517C33.8675 7.36931 32.6868 7.07199 30.7712 7.0375C30.801 6.74498 30.8606 6.41973 30.9079 6.12616C32.0553 6.05273 32.9688 6.45807 33.5233 5.29592L31.3035 5.28648ZM32.8808 3.00852C32.605 3.00852 32.3815 3.23046 32.3815 3.50424V3.99997C32.3815 4.27375 32.605 4.49569 32.8808 4.49569H33.6296C33.9054 4.49569 34.1289 4.27375 34.1289 3.99997V3.50424C34.1289 3.23046 33.9054 3.00852 33.6296 3.00852H32.8808Z" fill="#23387B"/>
</svg>
