<svg width="125" height="50" viewBox="0 0 125 50" fill="none" xmlns="http://www.w3.org/2000/svg">
<path d="M45.2949 37.6885H45.8031L47.2986 41.3099H46.8001L46.4629 40.4644H44.6546L44.3125 41.3099H43.8043L45.2998 37.6885H45.2949ZM45.5441 38.1625L44.7817 40.1077H46.3163L45.5441 38.1625Z" fill="#DE4148" stroke="#DE4148" stroke-width="0.177346" stroke-miterlimit="10"/>
<path d="M49.8547 38.9348L49.4931 39.1499C49.3416 39.0375 49.1852 38.9788 49.0141 38.9788C48.7649 38.9788 48.5401 39.0912 48.3495 39.316V41.3051H47.9096V38.71H48.2859L48.325 38.9837H48.3397C48.5987 38.754 48.8626 38.6416 49.1363 38.6416C49.4589 38.6416 49.6983 38.7393 49.8596 38.9348H49.8547Z" fill="#DE4148" stroke="#DE4148" stroke-width="0.177346" stroke-miterlimit="10"/>
<path d="M52.5476 41.3056H52.2201L52.1566 41.0271C51.8878 41.2616 51.5555 41.3741 51.1547 41.3741C50.8517 41.3741 50.6122 41.3007 50.4314 41.1541C50.2506 41.0075 50.1626 40.812 50.1626 40.5677C50.1626 39.9714 50.6611 39.6733 51.663 39.6733H52.1175V39.6391C52.1175 39.1846 51.8634 38.9598 51.3551 38.9598C51.0667 38.9598 50.7882 39.0428 50.5194 39.209L50.3727 38.9989C50.6758 38.7594 51.0423 38.6372 51.4773 38.6372C51.8243 38.6372 52.0882 38.7301 52.2739 38.9158C52.4596 39.1015 52.5525 39.3703 52.5525 39.7222V41.3007H52.5476V41.3056ZM52.1126 39.9568H51.7118C50.9934 39.9568 50.6318 40.1474 50.6318 40.5335C50.6318 40.6996 50.6855 40.8267 50.7979 40.9195C50.9103 41.0124 51.0667 41.0613 51.2671 41.0613C51.4431 41.0613 51.6092 41.0222 51.7754 40.9489C51.9367 40.8707 52.0491 40.7778 52.1126 40.6605V39.9568Z" fill="#DE4148" stroke="#DE4148" stroke-width="0.177346" stroke-miterlimit="10"/>
<path d="M53.8965 41.3051H53.5593V37.8205L53.9992 37.6152V38.9739C54.2044 38.7491 54.4928 38.6367 54.8593 38.6367C55.309 38.6367 55.6608 38.7784 55.9101 39.0618C56.1251 39.2964 56.2326 39.5946 56.2326 39.9562C56.2326 40.4303 56.0762 40.7968 55.7635 41.0558C55.5142 41.2709 55.2063 41.3784 54.8349 41.3784C54.4635 41.3784 54.1507 41.266 53.9454 41.0363L53.8868 41.31H53.8965V41.3051ZM54.0041 39.4088V40.6502C54.0627 40.7724 54.1653 40.8701 54.312 40.9483C54.4586 41.0265 54.6199 41.0607 54.7958 41.0607C55.0793 41.0607 55.3138 40.963 55.4947 40.7724C55.6755 40.5818 55.7684 40.3276 55.7684 40.0149C55.7684 39.663 55.6657 39.3942 55.4653 39.2036C55.2943 39.0374 55.0744 38.9592 54.8056 38.9592C54.6345 38.9592 54.4732 39.0032 54.3217 39.0863C54.1702 39.1743 54.0627 39.2818 54.0041 39.4088Z" fill="#DE4148" stroke="#DE4148" stroke-width="0.177346" stroke-miterlimit="10"/>
<path d="M59.2138 37.6885V41.3099H58.725V37.6885H59.2138Z" fill="#DE4148" stroke="#DE4148" stroke-width="0.177346" stroke-miterlimit="10"/>
<path d="M62.8353 41.3051H62.4003V39.7852C62.4003 39.2427 62.1266 38.9739 61.5842 38.9739C61.4278 38.9739 61.2714 39.0081 61.115 39.0717C60.9635 39.1352 60.8413 39.2183 60.7582 39.316V41.3051H60.3184V38.71H60.6849L60.724 38.9837H60.7435C61.0026 38.754 61.3251 38.6416 61.7161 38.6416C62.459 38.6416 62.8304 39.013 62.8304 39.7559V41.3051H62.8353Z" fill="#DE4148" stroke="#DE4148" stroke-width="0.177346" stroke-miterlimit="10"/>
<path d="M64.9855 41.3046H64.5359L63.4118 38.7095H63.8859L64.7656 40.855L65.6404 38.7095H66.1144L64.9806 41.3046H64.9855Z" fill="#DE4148" stroke="#DE4148" stroke-width="0.177346" stroke-miterlimit="10"/>
<path d="M69.0957 40.1371H66.9649C66.9844 40.4157 67.0919 40.6405 67.2972 40.8066C67.5025 40.9728 67.7664 41.0559 68.0889 41.0559C68.3626 41.0559 68.6265 40.9875 68.8855 40.8457L69.037 41.0754C68.7487 41.2758 68.3968 41.3736 67.9912 41.3736C67.5171 41.3736 67.1408 41.2367 66.8573 40.9679C66.5983 40.7236 66.4713 40.4059 66.4713 40.0198C66.4713 39.6337 66.6081 39.2769 66.8867 39.0081C67.1359 38.7638 67.4438 38.6416 67.8152 38.6416C68.26 38.6416 68.5972 38.798 68.8269 39.1108C69.0077 39.3551 69.0957 39.6581 69.0957 40.0149V40.142V40.1371ZM66.9551 39.8292H68.6412C68.6265 39.5506 68.5483 39.3356 68.4066 39.1792C68.2649 39.0228 68.0694 38.9446 67.8152 38.9446C67.5807 38.9446 67.3803 39.0277 67.219 39.189C67.0577 39.3551 66.9697 39.5653 66.9502 39.8292H66.9551Z" fill="#DE4148" stroke="#DE4148" stroke-width="0.177346" stroke-miterlimit="10"/>
<path d="M71.4905 39.101C71.2706 39.0033 71.0311 38.9544 70.7721 38.9544C70.5961 38.9544 70.4593 38.9886 70.3615 39.0521C70.2638 39.1206 70.2149 39.2085 70.2149 39.3258C70.2149 39.4431 70.2589 39.5409 70.3518 39.6093C70.4397 39.6777 70.6157 39.7412 70.8698 39.8048C71.2315 39.9025 71.4807 40.0051 71.6224 40.1273C71.7642 40.2446 71.8326 40.4108 71.8326 40.6258C71.8326 40.8409 71.7348 41.0315 71.5394 41.1732C71.3439 41.31 71.0946 41.3833 70.7867 41.3833C70.3811 41.3833 70.0341 41.2856 69.736 41.095C69.7506 41.0754 69.7702 41.0412 69.7995 40.9972C69.8288 40.9484 69.8581 40.9093 69.8777 40.8848C70.1318 41.007 70.4055 41.0657 70.6987 41.0657C71.1581 41.0657 71.3878 40.9142 71.3878 40.616C71.3878 40.4939 71.339 40.401 71.2412 40.3277C71.1435 40.2593 70.9578 40.1957 70.6939 40.1322C70.0732 39.9807 69.7604 39.7168 69.7604 39.3356C69.7604 39.1352 69.8533 38.9691 70.0341 38.8371C70.2149 38.7051 70.4495 38.6416 70.733 38.6416C71.0702 38.6416 71.3732 38.7247 71.642 38.886L71.4954 39.0961L71.4905 39.101Z" fill="#DE4148" stroke="#DE4148" stroke-width="0.177346" stroke-miterlimit="10"/>
<path d="M73.3134 39.023V40.6455C73.3085 40.9241 73.4355 41.0609 73.6946 41.0609C73.8412 41.0609 73.9829 41.0267 74.1247 40.9632L74.281 41.1733C74.066 41.3053 73.8412 41.3688 73.6017 41.3688C73.3622 41.3688 73.1912 41.3053 73.0641 41.1782C72.9371 41.0512 72.8735 40.8752 72.8735 40.6504V39.0132H72.419V38.7004H72.8784V38.1335L73.3134 37.938V38.7004H74.2273V39.0132H73.3134V39.023Z" fill="#DE4148" stroke="#DE4148" stroke-width="0.177346" stroke-miterlimit="10"/>
<path d="M79.5396 41.3051H79.0998V39.8194C79.0998 39.2574 78.8261 38.9739 78.2836 38.9739C77.9904 38.9739 77.7167 39.0863 77.4674 39.3063C77.5114 39.4382 77.531 39.5897 77.531 39.751V41.3051H77.096V39.795C77.096 39.2476 76.8321 38.9739 76.2994 38.9739C76.1577 38.9739 76.011 39.0081 75.8595 39.0717C75.708 39.1401 75.5907 39.2232 75.5077 39.3209V41.3051H75.0678V38.71H75.4344L75.4735 38.9788H75.493C75.7716 38.754 76.0892 38.6416 76.446 38.6416C76.8761 38.6416 77.1742 38.7784 77.3453 39.057C77.6336 38.7784 77.9953 38.6416 78.4302 38.6416C78.7919 38.6416 79.0656 38.7442 79.2611 38.9446C79.4419 39.1352 79.5299 39.404 79.5299 39.751V41.3051H79.5396Z" fill="#DE4148" stroke="#DE4148" stroke-width="0.177346" stroke-miterlimit="10"/>
<path d="M82.9607 40.1371H80.8299C80.8495 40.4157 80.957 40.6405 81.1622 40.8066C81.3675 40.9728 81.6314 41.0559 81.954 41.0559C82.2277 41.0559 82.4916 40.9875 82.7506 40.8457L82.9021 41.0754C82.6138 41.2758 82.2619 41.3736 81.8562 41.3736C81.3822 41.3736 81.0059 41.2367 80.7224 40.9679C80.4634 40.7236 80.3363 40.4059 80.3363 40.0198C80.3363 39.6337 80.4731 39.2769 80.7517 39.0081C81.001 38.7638 81.3089 38.6416 81.6803 38.6416C82.125 38.6416 82.4623 38.798 82.692 39.1108C82.8728 39.3551 82.9607 39.6581 82.9607 40.0149V40.142V40.1371ZM80.8201 39.8292H82.5062C82.4916 39.5506 82.4134 39.3356 82.2716 39.1792C82.1299 39.0228 81.9344 38.9446 81.6803 38.9446C81.4457 38.9446 81.2453 39.0277 81.084 39.189C80.9228 39.3551 80.8348 39.5653 80.8152 39.8292H80.8201Z" fill="#DE4148" stroke="#DE4148" stroke-width="0.177346" stroke-miterlimit="10"/>
<path d="M86.3037 41.3051H85.8687V39.7852C85.8687 39.2427 85.595 38.9739 85.0525 38.9739C84.8961 38.9739 84.7398 39.0081 84.5834 39.0717C84.4319 39.1352 84.3097 39.2183 84.2266 39.316V41.3051H83.7867V38.71H84.1533L84.1924 38.9837H84.2119C84.471 38.754 84.7935 38.6416 85.1845 38.6416C85.9273 38.6416 86.2988 39.013 86.2988 39.7559V41.3051H86.3037Z" fill="#DE4148" stroke="#DE4148" stroke-width="0.177346" stroke-miterlimit="10"/>
<path d="M87.892 39.023V40.6455C87.8872 40.9241 88.0142 41.0609 88.2732 41.0609C88.4199 41.0609 88.5616 41.0267 88.7033 40.9632L88.8597 41.1733C88.6447 41.3053 88.4199 41.3688 88.1804 41.3688C87.9409 41.3688 87.7699 41.3053 87.6428 41.1782C87.5157 41.0512 87.4522 40.8752 87.4522 40.6504V39.0132H86.9977V38.7004H87.4571V38.1335L87.892 37.938V38.7004H88.806V39.0132H87.892V39.023Z" fill="#DE4148" stroke="#DE4148" stroke-width="0.177346" stroke-miterlimit="10"/>
<path d="M91.7921 37.6885V41.3099H91.3033V37.6885H91.7921Z" fill="#DE4148" stroke="#DE4148" stroke-width="0.177346" stroke-miterlimit="10"/>
<path d="M94.4653 39.101C94.2453 39.0033 94.0059 38.9544 93.7468 38.9544C93.5709 38.9544 93.4341 38.9886 93.3363 39.0521C93.2386 39.1206 93.1897 39.2085 93.1897 39.3258C93.1897 39.4431 93.2337 39.5409 93.3265 39.6093C93.4145 39.6777 93.5905 39.7412 93.8446 39.8048C94.2062 39.9025 94.4555 40.0051 94.5972 40.1273C94.739 40.2446 94.8074 40.4108 94.8074 40.6258C94.8074 40.8409 94.7096 41.0315 94.5141 41.1732C94.3187 41.31 94.0694 41.3833 93.7615 41.3833C93.3559 41.3833 93.0089 41.2856 92.7108 41.095C92.7254 41.0754 92.745 41.0412 92.7743 40.9972C92.8036 40.9484 92.8329 40.9093 92.8525 40.8848C93.1066 41.007 93.3803 41.0657 93.6735 41.0657C94.1329 41.0657 94.3626 40.9142 94.3626 40.616C94.3626 40.4939 94.3138 40.401 94.216 40.3277C94.1183 40.2593 93.9326 40.1957 93.6686 40.1322C93.048 39.9807 92.7352 39.7168 92.7352 39.3356C92.7352 39.1352 92.828 38.9691 93.0089 38.8371C93.1897 38.7051 93.4243 38.6416 93.7077 38.6416C94.045 38.6416 94.348 38.7247 94.6168 38.886L94.4702 39.0961L94.4653 39.101Z" fill="#DE4148" stroke="#DE4148" stroke-width="0.177346" stroke-miterlimit="10"/>
<path d="M96.0684 37.6201V41.31H95.6286V37.8254L96.0684 37.6201Z" fill="#DE4148" stroke="#DE4148" stroke-width="0.177346" stroke-miterlimit="10"/>
<path d="M99.289 41.3056H98.9616L98.898 41.0271C98.6292 41.2616 98.2969 41.3741 97.8962 41.3741C97.5932 41.3741 97.3537 41.3007 97.1728 41.1541C96.992 41.0075 96.9041 40.812 96.9041 40.5677C96.9041 39.9714 97.4025 39.6733 98.4044 39.6733H98.8589V39.6391C98.8589 39.1846 98.6048 38.9598 98.0965 38.9598C97.8082 38.9598 97.5296 39.0428 97.2608 39.209L97.1142 38.9989C97.4172 38.7594 97.7837 38.6372 98.2187 38.6372C98.5657 38.6372 98.8296 38.7301 99.0153 38.9158C99.201 39.1015 99.2939 39.3703 99.2939 39.7222V41.3007L99.289 41.3056ZM98.8541 39.9568H98.4533C97.7349 39.9568 97.3732 40.1474 97.3732 40.5335C97.3732 40.6996 97.427 40.8267 97.5394 40.9195C97.6518 41.0124 97.8082 41.0613 98.0086 41.0613C98.1845 41.0613 98.3507 41.0222 98.5168 40.9489C98.6781 40.8707 98.7905 40.7778 98.8541 40.6605V39.9568Z" fill="#DE4148" stroke="#DE4148" stroke-width="0.177346" stroke-miterlimit="10"/>
<path d="M104.772 41.3051H104.332V39.8194C104.332 39.2574 104.059 38.9739 103.516 38.9739C103.223 38.9739 102.949 39.0863 102.7 39.3063C102.744 39.4382 102.764 39.5897 102.764 39.751V41.3051H102.329V39.795C102.329 39.2476 102.065 38.9739 101.532 38.9739C101.39 38.9739 101.244 39.0081 101.092 39.0717C100.941 39.1401 100.823 39.2232 100.74 39.3209V41.3051H100.301V38.71H100.667L100.706 38.9788H100.726C101.004 38.754 101.322 38.6416 101.679 38.6416C102.109 38.6416 102.407 38.7784 102.578 39.057C102.866 38.7784 103.228 38.6416 103.663 38.6416C104.025 38.6416 104.298 38.7442 104.494 38.9446C104.675 39.1352 104.763 39.404 104.763 39.751V41.3051H104.772Z" fill="#DE4148" stroke="#DE4148" stroke-width="0.177346" stroke-miterlimit="10"/>
<path d="M105.73 37.8645C105.73 37.8009 105.76 37.7423 105.818 37.6934C105.877 37.6446 105.945 37.6201 106.024 37.6201C106.102 37.6201 106.17 37.6446 106.229 37.6934C106.288 37.7423 106.317 37.8009 106.317 37.8645C106.317 37.9378 106.288 37.9964 106.229 38.0453C106.17 38.0942 106.102 38.1186 106.024 38.1186C105.941 38.1186 105.872 38.0942 105.818 38.0453C105.765 37.9964 105.735 37.9378 105.735 37.8645H105.73ZM106.234 38.71V41.3051H105.799V38.71H106.234Z" fill="#DE4148" stroke="#DE4148" stroke-width="0.177346" stroke-miterlimit="10"/>
<path d="M109.547 38.9153L109.401 39.1303C109.176 39.0081 108.932 38.9495 108.672 38.9495C108.311 38.9495 108.032 39.0619 107.832 39.2916C107.656 39.492 107.568 39.7363 107.568 40.0345C107.568 40.3521 107.68 40.6063 107.905 40.7969C108.11 40.9728 108.379 41.0608 108.716 41.0608C108.995 41.0608 109.244 40.9924 109.459 40.8506L109.606 41.0803C109.362 41.2807 109.029 41.3785 108.619 41.3785C108.135 41.3785 107.754 41.2367 107.465 40.9533C107.221 40.704 107.099 40.3961 107.099 40.0198C107.099 39.5995 107.26 39.2574 107.578 38.9886C107.856 38.754 108.189 38.6416 108.58 38.6416C108.971 38.6416 109.288 38.7345 109.552 38.9153H109.547Z" fill="#DE4148" stroke="#DE4148" stroke-width="0.177346" stroke-miterlimit="10"/>
<path d="M112.05 41.3002V37.6885C112.406 37.6446 112.763 37.6201 113.12 37.6201C113.623 37.6201 114 37.7227 114.239 37.9329C114.43 38.0991 114.523 38.3239 114.523 38.5976C114.523 38.7882 114.454 38.9543 114.322 39.0961C114.19 39.2378 114.009 39.3306 113.794 39.3746C114.063 39.4186 114.273 39.5261 114.425 39.6972C114.576 39.8731 114.655 40.0882 114.655 40.3521C114.655 40.6991 114.498 40.963 114.185 41.1389C113.917 41.2953 113.565 41.3735 113.12 41.3735C112.797 41.3735 112.436 41.3491 112.05 41.3002ZM112.538 37.9964V39.2134H113.223C113.457 39.2134 113.653 39.1596 113.799 39.057C113.946 38.9543 114.019 38.8126 114.019 38.6367C114.019 38.1821 113.716 37.9573 113.11 37.9573C112.876 37.9573 112.685 37.972 112.538 37.9964ZM112.538 39.5652V40.9972C112.724 41.0216 112.939 41.0314 113.183 41.0314C113.819 41.0314 114.136 40.8017 114.136 40.3472C114.136 40.1028 114.058 39.9122 113.897 39.7754C113.736 39.6385 113.511 39.5701 113.223 39.5701H112.538V39.5652Z" fill="#DE4148" stroke="#DE4148" stroke-width="0.177346" stroke-miterlimit="10"/>
<path d="M117.689 41.3056H117.362L117.298 41.0271C117.03 41.2616 116.697 41.3741 116.297 41.3741C115.994 41.3741 115.754 41.3007 115.573 41.1541C115.392 41.0075 115.304 40.812 115.304 40.5677C115.304 39.9714 115.803 39.6733 116.805 39.6733H117.259V39.6391C117.259 39.1846 117.005 38.9598 116.497 38.9598C116.209 38.9598 115.93 39.0428 115.661 39.209L115.515 38.9989C115.818 38.7594 116.184 38.6372 116.619 38.6372C116.966 38.6372 117.23 38.7301 117.416 38.9158C117.601 39.1015 117.694 39.3703 117.694 39.7222V41.3007L117.689 41.3056ZM117.254 39.9568H116.854C116.135 39.9568 115.774 40.1474 115.774 40.5335C115.774 40.6996 115.827 40.8267 115.94 40.9195C116.052 41.0124 116.209 41.0613 116.409 41.0613C116.585 41.0613 116.751 41.0222 116.917 40.9489C117.079 40.8707 117.191 40.7778 117.254 40.6605V39.9568Z" fill="#DE4148" stroke="#DE4148" stroke-width="0.177346" stroke-miterlimit="10"/>
<path d="M121.218 41.3051H120.783V39.7852C120.783 39.2427 120.509 38.9739 119.967 38.9739C119.81 38.9739 119.654 39.0081 119.498 39.0717C119.346 39.1352 119.224 39.2183 119.141 39.316V41.3051H118.701V38.71H119.068L119.107 38.9837H119.126C119.385 38.754 119.708 38.6416 120.099 38.6416C120.842 38.6416 121.213 39.013 121.213 39.7559V41.3051H121.218Z" fill="#DE4148" stroke="#DE4148" stroke-width="0.177346" stroke-miterlimit="10"/>
<path d="M124.341 38.71L123.016 39.7216L124.497 41.3051H123.965L122.65 39.8634V41.3051H122.21V37.8205L122.65 37.6152V39.575L123.73 38.7051H124.341V38.71Z" fill="#DE4148" stroke="#DE4148" stroke-width="0.177346" stroke-miterlimit="10"/>
<path d="M45.9839 13.702C45.8178 13.5456 45.7347 13.3403 45.7347 13.0911C45.7347 12.8614 45.8178 12.661 45.9839 12.4997C46.1501 12.3433 46.3554 12.2651 46.5948 12.2651C46.8343 12.2651 47.0347 12.3433 47.2008 12.4997C47.367 12.6659 47.4501 12.8614 47.4501 13.0911C47.4501 13.3403 47.367 13.5456 47.2008 13.702C47.0347 13.8584 46.8343 13.9366 46.5948 13.9366C46.3554 13.9366 46.1501 13.8584 45.9839 13.702ZM47.1275 13.0911C47.1275 12.964 47.0787 12.8418 46.976 12.7343C46.8685 12.6268 46.7415 12.573 46.5948 12.573C46.4482 12.573 46.326 12.6268 46.2185 12.7343C46.111 12.8418 46.0572 12.964 46.0572 13.0911C46.0572 13.2426 46.111 13.3697 46.2185 13.4772C46.3211 13.5749 46.4433 13.6238 46.5948 13.6238C46.9516 13.6238 47.1275 13.4478 47.1275 13.0911Z" fill="#DE4148" stroke="#DE4148" stroke-width="0.177346" stroke-miterlimit="10"/>
<path d="M47.4306 15.7307C47.5577 15.892 47.6163 16.107 47.6163 16.3807V19.7871C47.6163 20.5153 47.5235 21.1555 47.3378 21.698L47.2791 21.8544C47.2645 21.8935 47.2547 21.9179 47.2547 21.9277C47.0348 22.4506 46.7171 22.8758 46.2968 23.1935C46.0866 23.3547 45.8521 23.4916 45.593 23.5991C45.466 23.6529 45.3242 23.7017 45.1825 23.7457C44.9284 23.819 44.6791 23.8386 44.4397 23.8141C44.2051 23.7848 44.0389 23.7408 43.9412 23.6822C43.8092 23.5991 43.7457 23.4916 43.7457 23.3694C43.7457 23.2814 43.7848 23.2081 43.863 23.1446C43.9265 23.086 44.0047 23.0664 44.0975 23.0762C44.1806 23.086 44.2539 23.1251 44.3175 23.1984C44.3712 23.2619 44.3908 23.345 44.3761 23.4427C44.3663 23.5356 44.3126 23.6089 44.2246 23.6675C44.5032 23.7262 44.7818 23.7115 45.0652 23.6235C45.5344 23.4623 45.9009 23.2277 46.16 22.9198C46.6585 22.3382 46.9028 21.2923 46.9028 19.7773V15.501H46.9272C47.1276 15.501 47.2938 15.5792 47.4257 15.7307H47.4306Z" fill="#DE4148" stroke="#DE4148" stroke-width="0.177346" stroke-miterlimit="10"/>
<path d="M49.5518 13.0225V19.1266C49.5518 19.9232 49.674 20.5146 49.9135 20.9007C50.1822 21.3356 50.627 21.5556 51.2379 21.5556H51.4138V21.7071H51.2135C50.3777 21.6973 49.7717 21.4871 49.3905 21.0668C49.0191 20.6612 48.8334 20.0259 48.8334 19.1657V13.8826C48.8334 13.6138 48.892 13.4037 49.0142 13.2473C49.1413 13.1007 49.3025 13.0274 49.5127 13.0274H49.5518V13.0225Z" fill="#DE4148" stroke="#DE4148" stroke-width="0.177346" stroke-miterlimit="10"/>
<path d="M53.5347 21.5557V21.7072H51.355V21.5557H53.5347Z" fill="#DE4148" stroke="#DE4148" stroke-width="0.177346" stroke-miterlimit="10"/>
<path d="M59.199 13.604C59.2576 13.604 59.2821 13.6431 59.2821 13.7213C59.2821 13.8093 59.2283 13.9314 59.1257 14.0781L57.0535 14.4642L56.7407 14.3273L59.199 13.6089V13.604Z" fill="#DE4148" stroke="#DE4148" stroke-width="0.177346" stroke-miterlimit="10"/>
<path d="M55.7193 20.7538C55.6558 20.8662 55.5825 20.9688 55.4945 21.0617C55.1133 21.482 54.5073 21.697 53.6716 21.7019H53.4712V21.5504H53.6471C54.2629 21.5504 54.7028 21.3305 54.9716 20.8955C55.211 20.5143 55.3283 19.9425 55.3332 19.1703C55.3332 19.0823 55.3332 18.9944 55.3332 18.9015C55.3332 17.9045 55.5874 17.0981 56.0956 16.4775C56.6381 15.8226 57.3907 15.4951 58.3535 15.4951C59.3163 15.4951 60.0836 15.8226 60.6261 16.4775C61.1246 17.0786 61.3787 17.8605 61.3885 18.8282V19.1166C61.3885 19.9132 61.5107 20.5045 61.7502 20.8906C62.0189 21.3256 62.4637 21.5455 63.0746 21.5455H63.1919V21.697H63.055C62.2193 21.6872 61.6133 21.4771 61.2321 21.0568C61.149 20.9639 61.0708 20.8613 61.0073 20.744C60.8802 20.9981 60.7141 21.2229 60.5186 21.4233L60.3426 21.5797C59.8246 22.0098 59.1648 22.2199 58.3584 22.2199C57.552 22.2199 56.902 22.0049 56.384 21.5797L56.2227 21.4331C56.0272 21.2376 55.861 21.0079 55.7242 20.7489L55.7193 20.7538ZM56.0419 19.1654V19.2876C56.1103 21.1594 56.8776 22.0978 58.3486 22.0978C59.893 22.0978 60.6652 21.047 60.6652 18.9504C60.6652 17.9387 60.4648 17.1372 60.0592 16.5508C59.6535 15.9545 59.0817 15.6564 58.3438 15.6564C57.6058 15.6564 57.0486 15.9643 56.6381 16.5752C56.2325 17.1666 56.0321 17.9778 56.0321 18.9993V19.1703H56.037L56.0419 19.1654Z" fill="#DE4148" stroke="#DE4148" stroke-width="0.177346" stroke-miterlimit="10"/>
<path d="M64.4628 12.1287C64.2966 11.9723 64.2135 11.7671 64.2135 11.5178C64.2135 11.2881 64.2966 11.0878 64.4628 10.9265C64.6289 10.7701 64.8342 10.6919 65.0737 10.6919C65.3131 10.6919 65.5135 10.7701 65.6797 10.9265C65.8458 11.0927 65.9289 11.2881 65.9289 11.5178C65.9289 11.7671 65.8458 11.9723 65.6797 12.1287C65.5135 12.2851 65.3131 12.3633 65.0737 12.3633C64.8342 12.3633 64.6289 12.2851 64.4628 12.1287ZM65.6064 11.5178C65.6064 11.3908 65.5575 11.2686 65.4549 11.1611C65.3473 11.0536 65.2203 10.9998 65.0737 10.9998C64.927 10.9998 64.8049 11.0536 64.6973 11.1611C64.5898 11.2686 64.5361 11.3908 64.5361 11.5178C64.5361 11.6693 64.5898 11.7964 64.6973 11.9039C64.8 12.0017 64.9222 12.0506 65.0737 12.0506C65.4304 12.0506 65.6064 11.8746 65.6064 11.5178Z" fill="#DE4148" stroke="#DE4148" stroke-width="0.177346" stroke-miterlimit="10"/>
<path d="M65.3522 20.7931C65.2936 20.8958 65.2252 20.9837 65.1519 21.0668C64.7706 21.4871 64.1646 21.7021 63.3289 21.707H63.1285V21.5555H63.3045C63.9203 21.5555 64.3601 21.3356 64.6289 20.9006C64.8733 20.5146 64.9906 19.9232 64.9906 19.1266V16.3604C64.9906 16.0916 65.0492 15.8815 65.1714 15.7251C65.2985 15.5784 65.4597 15.5051 65.6699 15.5051H65.7041V19.1266C65.7041 19.9232 65.8263 20.5146 66.0658 20.9006C66.3346 21.3356 66.7793 21.5555 67.3902 21.5555H67.5075V21.707H67.3707C66.5349 21.6973 65.9289 21.4871 65.5477 21.0668C65.4744 20.9837 65.4109 20.8958 65.3473 20.7931H65.3522ZM65.015 14.3127C65.0981 14.4006 65.1372 14.4984 65.1372 14.6108C65.1372 14.7378 65.0981 14.8405 65.015 14.9236C64.9319 15.0066 64.8342 15.0457 64.7169 15.0457C64.5996 15.0457 64.4921 15.0066 64.409 14.9236C64.3259 14.8405 64.2868 14.7378 64.2868 14.6108C64.2868 14.4984 64.3259 14.3957 64.409 14.3127C64.4921 14.2247 64.5947 14.1807 64.7169 14.1807C64.8391 14.1807 64.9319 14.2247 65.015 14.3127ZM65.6259 13.1886C65.709 13.2766 65.7481 13.3792 65.7481 13.4965C65.7481 13.6236 65.709 13.7262 65.6259 13.8093C65.5428 13.8924 65.4402 13.9315 65.318 13.9315C65.1958 13.9315 65.103 13.8924 65.0199 13.8093C64.9368 13.7262 64.8977 13.6236 64.8977 13.4965C64.8977 13.3792 64.9368 13.2766 65.0199 13.1886C65.103 13.1006 65.2007 13.0566 65.318 13.0566C65.4451 13.0566 65.5477 13.1006 65.6259 13.1886ZM66.2319 14.3127C66.315 14.4006 66.3541 14.4984 66.3541 14.6108C66.3541 14.7378 66.315 14.8405 66.2319 14.9236C66.1488 15.0066 66.0462 15.0457 65.9191 15.0457C65.8019 15.0457 65.7041 15.0066 65.621 14.9236C65.5379 14.8405 65.4988 14.7378 65.4988 14.6108C65.4988 14.4984 65.5379 14.3957 65.621 14.3127C65.7041 14.2247 65.8019 14.1807 65.9191 14.1807C66.0462 14.1807 66.1488 14.2247 66.2319 14.3127Z" fill="#DE4148" stroke="#DE4148" stroke-width="0.177346" stroke-miterlimit="10"/>
<path d="M70.7279 22.0986C70.7768 22.0986 70.8012 22.1328 70.8012 22.1964C70.8012 22.2892 70.7475 22.4065 70.6448 22.5531L68.5873 22.9539L68.2745 22.8171L70.7328 22.1035H70.7279V22.0986Z" fill="#DE4148" stroke="#DE4148" stroke-width="0.177346" stroke-miterlimit="10"/>
<path d="M69.6724 20.7931C69.6138 20.8957 69.5454 20.9837 69.472 21.0668C69.0908 21.4871 68.4848 21.7021 67.6491 21.707H67.4487V21.5555H67.6247C68.2405 21.5555 68.6803 21.3356 68.9491 20.9006C69.1935 20.5145 69.3108 19.9232 69.3108 19.1265V16.3604C69.3108 16.0916 69.3694 15.8814 69.4916 15.725C69.6187 15.5784 69.7799 15.5051 69.9901 15.5051H70.0243V19.1265C70.0243 19.9232 70.1465 20.5145 70.386 20.9006C70.6547 21.3356 71.0995 21.5555 71.7104 21.5555H71.8277V21.707H71.6908C70.8551 21.6972 70.2491 21.4871 69.8679 21.0668C69.7946 20.9837 69.7311 20.8957 69.6675 20.7931H69.6724ZM69.3401 14.3126C69.4232 14.4006 69.4623 14.4983 69.4623 14.6107C69.4623 14.7378 69.4232 14.8404 69.3401 14.9235C69.257 15.0066 69.1593 15.0457 69.042 15.0457C68.9247 15.0457 68.8172 15.0066 68.7341 14.9235C68.651 14.8404 68.6119 14.7378 68.6119 14.6107C68.6119 14.4983 68.651 14.3957 68.7341 14.3126C68.8172 14.2246 68.9198 14.1807 69.042 14.1807C69.1641 14.1807 69.257 14.2246 69.3401 14.3126ZM70.557 14.3126C70.6401 14.4006 70.6792 14.4983 70.6792 14.6107C70.6792 14.7378 70.6401 14.8404 70.557 14.9235C70.4739 15.0066 70.3713 15.0457 70.2442 15.0457C70.1269 15.0457 70.0292 15.0066 69.9461 14.9235C69.863 14.8404 69.8239 14.7378 69.8239 14.6107C69.8239 14.4983 69.863 14.3957 69.9461 14.3126C70.0292 14.2246 70.1269 14.1807 70.2442 14.1807C70.3713 14.1807 70.4739 14.2246 70.557 14.3126Z" fill="#DE4148" stroke="#DE4148" stroke-width="0.177346" stroke-miterlimit="10"/>
<path d="M74.6525 14.3084C74.4863 14.152 74.4033 13.9468 74.4033 13.6975C74.4033 13.4678 74.4863 13.2674 74.6525 13.1062C74.8187 12.9498 75.0239 12.8716 75.2634 12.8716C75.5029 12.8716 75.7033 12.9498 75.8694 13.1062C76.0356 13.2723 76.1187 13.4678 76.1187 13.6975C76.1187 13.9468 76.0356 14.152 75.8694 14.3084C75.7033 14.4648 75.5029 14.543 75.2634 14.543C75.0239 14.543 74.8187 14.4648 74.6525 14.3084ZM75.7961 13.6975C75.7961 13.5705 75.7473 13.4483 75.6446 13.3408C75.5371 13.2332 75.41 13.1795 75.2634 13.1795C75.1168 13.1795 74.9946 13.2332 74.8871 13.3408C74.7796 13.4483 74.7258 13.5705 74.7258 13.6975C74.7258 13.849 74.7796 13.9761 74.8871 14.0836C74.9897 14.1814 75.1119 14.2302 75.2634 14.2302C75.6202 14.2302 75.7961 14.0543 75.7961 13.6975Z" fill="#DE4148" stroke="#DE4148" stroke-width="0.177346" stroke-miterlimit="10"/>
<path d="M78.4011 15.5054C78.6063 15.5054 78.7725 15.5836 78.8996 15.74C79.0217 15.8963 79.0804 16.1065 79.0804 16.3655V19.684C79.0804 20.29 78.9435 20.7689 78.665 21.1257C78.3669 21.5118 77.927 21.7073 77.3503 21.7073C76.8958 21.7073 76.539 21.5411 76.2849 21.2088C75.9868 21.5411 75.5762 21.7073 75.0582 21.7073C74.5401 21.7073 74.1541 21.5069 73.8999 21.1012C73.5187 21.4971 72.9225 21.6975 72.1014 21.7073H71.7789V21.5558H72.077C72.6928 21.5558 73.1326 21.3358 73.4014 20.9009C73.6458 20.5148 73.7631 19.9234 73.7631 19.1268V16.1065H73.7973C74.0026 16.1065 74.1687 16.1798 74.2958 16.3313C74.4229 16.4877 74.4815 16.6979 74.4815 16.9618V19.1659C74.4815 19.9772 74.3153 20.5881 73.983 20.9986C74.1785 21.3896 74.4913 21.5851 74.9116 21.5851C75.6838 21.5851 76.0699 20.984 76.0699 19.7866L76.0601 15.8279H76.0943C76.2996 15.8279 76.4657 15.9061 76.5928 16.0625C76.715 16.2189 76.7736 16.4339 76.7736 16.6979V19.684C76.7736 20.29 76.6368 20.7689 76.368 21.1257C76.5732 21.4336 76.8567 21.5851 77.2232 21.5851C77.9856 21.5851 78.3668 20.984 78.3668 19.7866V15.5054H78.4011Z" fill="#DE4148" stroke="#DE4148" stroke-width="0.177346" stroke-miterlimit="10"/>
<path d="M82.8044 24.0972C82.8533 24.0972 82.8777 24.1314 82.8777 24.1949C82.8777 24.2878 82.824 24.4051 82.7213 24.5517L80.6638 24.9524L80.351 24.8156L82.8093 24.1021H82.8044V24.0972Z" fill="#DE4148" stroke="#DE4148" stroke-width="0.177346" stroke-miterlimit="10"/>
<path d="M82.9902 13.0225C83.2101 13.0225 83.3811 13.1007 83.5131 13.257C83.6402 13.4183 83.6988 13.6334 83.6988 13.8973V19.0631C83.6988 19.9623 83.5082 20.6221 83.1319 21.0424C82.7263 21.4823 82.086 21.7022 81.2063 21.7022H80.2924V21.5507H81.2063C81.3774 21.5507 81.5484 21.5311 81.7146 21.492C81.1917 21.2281 80.9326 20.6661 80.9326 19.7962V16.1454C80.9326 15.9499 80.9766 15.7886 81.0695 15.6713C81.1575 15.554 81.2796 15.4954 81.4409 15.4954H81.4654V19.7717C81.4654 20.6025 81.6706 21.1304 82.0763 21.3601C82.6627 21.0375 82.956 20.2604 82.956 19.0289V13.0225H82.9902ZM80.4879 23.7695V23.7108H80.786V23.4029C80.7958 22.6014 81.1232 22.1958 81.7781 22.1958C82.042 22.1958 82.2473 22.2642 82.3939 22.3962C82.521 22.5281 82.5796 22.6894 82.5796 22.88C82.5796 23.0022 82.5601 23.1048 82.521 23.1879C82.4672 23.2856 82.3988 23.3345 82.3108 23.3345C82.2717 23.3345 82.2278 23.3198 82.1838 23.2856C82.1496 23.2465 82.1349 23.2026 82.1349 23.1635C82.1349 23.1146 82.1496 23.0706 82.1838 23.0364C82.2278 23.0022 82.2717 22.9875 82.3108 22.9875C82.3842 22.9875 82.4379 23.0315 82.4819 23.1146C82.5014 23.0999 82.5112 23.0217 82.5112 22.88C82.5112 22.6992 82.4575 22.5574 82.3499 22.4548C82.218 22.3229 82.0274 22.2544 81.783 22.2544C81.5387 22.2544 81.3578 22.3717 81.2405 22.6063C81.1379 22.8018 81.089 23.0706 81.089 23.398V23.7059H82.5894V23.7646H80.4879V23.7695Z" fill="#DE4148" stroke="#DE4148" stroke-width="0.177346" stroke-miterlimit="10"/>
<path d="M84.1191 12.1287C83.9529 11.9723 83.8698 11.7671 83.8698 11.5178C83.8698 11.2881 83.9529 11.0878 84.1191 10.9265C84.2852 10.7701 84.4905 10.6919 84.73 10.6919C84.9694 10.6919 85.1698 10.7701 85.336 10.9265C85.5021 11.0927 85.5852 11.2881 85.5852 11.5178C85.5852 11.7671 85.5021 11.9723 85.336 12.1287C85.1698 12.2851 84.9694 12.3633 84.73 12.3633C84.4905 12.3633 84.2852 12.2851 84.1191 12.1287ZM85.2627 11.5178C85.2627 11.3908 85.2138 11.2686 85.1112 11.1611C85.0037 11.0536 84.8766 10.9998 84.73 10.9998C84.5834 10.9998 84.4612 11.0536 84.3537 11.1611C84.2461 11.2686 84.1924 11.3908 84.1924 11.5178C84.1924 11.6693 84.2461 11.7964 84.3537 11.9039C84.4563 12.0017 84.5785 12.0506 84.73 12.0506C85.0867 12.0506 85.2627 11.8746 85.2627 11.5178Z" fill="#DE4148" stroke="#DE4148" stroke-width="0.177346" stroke-miterlimit="10"/>
<path d="M84.5491 21.7075V13.0278H84.5833C85.0231 13.0278 85.2431 13.3015 85.2431 13.844V21.7075H84.5491Z" fill="#DE4148" stroke="#DE4148" stroke-width="0.177346" stroke-miterlimit="10"/>
<path d="M92.5398 13.3007C92.3247 13.198 92.2172 12.9928 92.2172 12.6849C92.2172 12.4405 92.2954 12.2401 92.4518 12.074C92.6082 11.9078 92.8037 11.8247 93.0334 11.8247C93.2631 11.8247 93.4488 11.898 93.6101 12.0495C93.7616 12.2059 93.8398 12.4209 93.8398 12.6849C93.8398 13.1589 93.5759 13.4424 93.048 13.5255L91.6112 13.7356L91.3619 13.6085L92.5349 13.3007H92.5398ZM93.0138 13.1394C93.2728 13.0563 93.3999 12.8852 93.3999 12.6164C93.3852 12.245 93.2337 12.0593 92.9503 12.0593C92.6033 12.0935 92.4274 12.2939 92.4274 12.6702C92.4371 12.9879 92.5984 13.1491 92.9259 13.1491L93.0089 13.1394H93.0138Z" fill="#DE4148" stroke="#DE4148" stroke-width="0.177346" stroke-miterlimit="10"/>
<path d="M92.7549 16.2094H92.7646L92.6913 16.1263C92.6425 16.0579 92.574 15.9944 92.4861 15.9406C92.2466 15.7549 91.9534 15.662 91.6015 15.662C91.1958 15.662 90.8391 15.7696 90.5361 15.9895C89.7052 16.6346 89.2898 17.4556 89.2898 18.4526C89.2898 19.259 89.5195 19.9579 89.9838 20.5493C90.5263 21.2335 91.2887 21.5707 92.271 21.5609H97.041C97.6568 21.5609 98.1064 21.341 98.385 20.8963C98.6293 20.5053 98.7466 19.9139 98.7466 19.1173V16.1068C98.4192 15.7696 97.9842 15.6034 97.4368 15.6034C96.8601 15.6034 96.4056 15.8575 96.0831 16.3707C95.8094 16.8105 95.6725 17.353 95.6725 17.9981C95.6725 18.7899 95.8192 19.4105 96.1124 19.8651C96.3959 20.3098 96.7819 20.5297 97.2707 20.5297C97.7252 20.5297 98.0868 20.3245 98.3507 19.9188C98.4778 19.7087 98.5609 19.5034 98.6 19.303H98.6733C98.6391 19.5229 98.556 19.738 98.4241 19.9579C98.1357 20.4026 97.7252 20.6226 97.1827 20.6226C96.5034 20.6226 95.9853 20.3733 95.6286 19.8797C95.2865 19.4203 95.1154 18.8045 95.1154 18.0372C95.1154 17.2699 95.3353 16.6884 95.7801 16.2143C96.2199 15.7451 96.7722 15.5105 97.4319 15.5105C97.9842 15.5105 98.4241 15.6669 98.7515 15.9748V15.5105H98.7857C98.9959 15.5105 99.162 15.5887 99.2891 15.7451C99.4162 15.9064 99.4748 16.1214 99.4748 16.3951V19.1124C99.4748 19.909 99.3526 20.4662 99.1132 20.7887C98.7466 21.3948 98.0624 21.7027 97.0654 21.7075H92.271C91.3082 21.7075 90.541 21.385 89.9594 20.7399C89.4022 20.1387 89.1237 19.3812 89.1237 18.4624C89.1237 18.1838 89.1579 17.915 89.2263 17.6511C89.324 17.2455 89.4951 16.8838 89.7395 16.5711C89.9643 16.2632 90.2282 16.0139 90.5214 15.8184C90.8098 15.6083 91.1714 15.5056 91.5966 15.5056C91.7921 15.5056 91.9876 15.5399 92.1733 15.6083C92.5154 15.7256 92.7646 15.9113 92.9113 16.1703C92.9797 16.2974 93.0139 16.4098 93.0139 16.4978C93.0139 16.532 93.0139 16.5613 92.9943 16.5955C92.9699 16.6737 92.921 16.7323 92.8477 16.7812C92.7891 16.8154 92.7304 16.835 92.6718 16.835C92.6571 16.835 92.6376 16.835 92.6131 16.8252C92.4616 16.7714 92.3834 16.6688 92.3834 16.5124C92.3834 16.4293 92.4177 16.356 92.4812 16.2876C92.5447 16.229 92.618 16.1947 92.7011 16.1947L92.75 16.2045L92.7549 16.2094ZM97.735 14.2496C97.818 14.3376 97.8571 14.4353 97.8571 14.5478C97.8571 14.6748 97.818 14.7775 97.735 14.8605C97.6519 14.9436 97.5492 14.9827 97.4271 14.9827C97.3049 14.9827 97.212 14.9436 97.1289 14.8605C97.0459 14.7775 97.0068 14.6748 97.0068 14.5478C97.0068 14.4353 97.0459 14.3327 97.1289 14.2496C97.212 14.1617 97.3098 14.1177 97.4271 14.1177C97.5444 14.1177 97.6519 14.1617 97.735 14.2496Z" fill="#DE4148" stroke="#DE4148" stroke-width="0.177346" stroke-miterlimit="10"/>
<path d="M103.028 23.3687C103.077 23.3687 103.101 23.4029 103.101 23.4664C103.101 23.5593 103.047 23.6766 102.945 23.8232L100.887 24.2239L100.574 24.0871L103.033 23.3735L103.028 23.3687Z" fill="#DE4148" stroke="#DE4148" stroke-width="0.177346" stroke-miterlimit="10"/>
<path d="M101.679 18.1792V15.501H101.703C101.904 15.501 102.07 15.5792 102.202 15.7307C102.329 15.892 102.388 16.107 102.388 16.3807V19.1273C102.388 19.9239 102.51 20.5153 102.749 20.9014C103.018 21.3363 103.463 21.5563 104.074 21.5563H104.191V21.7078H104.054C103.248 21.698 102.651 21.4976 102.27 21.1066C102.231 21.3168 102.177 21.5123 102.114 21.698L102.055 21.8544C102.041 21.8935 102.031 21.9179 102.031 21.9277C101.811 22.4506 101.493 22.8758 101.073 23.1935C100.863 23.3547 100.628 23.4916 100.369 23.5991C100.242 23.6529 100.1 23.7017 99.9586 23.7457C99.7045 23.819 99.4552 23.8386 99.2158 23.8141C98.9812 23.7848 98.815 23.7408 98.7173 23.6822C98.5853 23.5991 98.5218 23.4916 98.5218 23.3694C98.5218 23.2814 98.5609 23.2081 98.6391 23.1446C98.7026 23.086 98.7808 23.0664 98.8737 23.0762C98.9568 23.086 99.0301 23.1251 99.0936 23.1984C99.1474 23.2619 99.1669 23.345 99.1522 23.4427C99.1425 23.5356 99.0887 23.6089 99.0007 23.6675C99.2793 23.7262 99.5579 23.7115 99.8413 23.6235C100.311 23.4623 100.677 23.2277 100.936 22.9198C101.435 22.3382 101.679 21.2923 101.679 19.7773V19.4254C101.679 19.3423 101.679 19.2544 101.679 19.1664V18.1792Z" fill="#DE4148" stroke="#DE4148" stroke-width="0.177346" stroke-miterlimit="10"/>
<path d="M106.356 13.5799C106.19 13.4235 106.107 13.2183 106.107 12.969C106.107 12.7393 106.19 12.5389 106.356 12.3777C106.522 12.2213 106.727 12.1431 106.967 12.1431C107.206 12.1431 107.407 12.2213 107.573 12.3777C107.739 12.5438 107.822 12.7393 107.822 12.969C107.822 13.2183 107.739 13.4235 107.573 13.5799C107.407 13.7363 107.206 13.8145 106.967 13.8145C106.727 13.8145 106.522 13.7363 106.356 13.5799ZM107.499 12.969C107.499 12.8419 107.451 12.7198 107.348 12.6122C107.24 12.5047 107.113 12.451 106.967 12.451C106.82 12.451 106.698 12.5047 106.59 12.6122C106.483 12.7198 106.429 12.8419 106.429 12.969C106.429 13.1205 106.483 13.2476 106.59 13.3551C106.693 13.4528 106.815 13.5017 106.967 13.5017C107.324 13.5017 107.499 13.3258 107.499 12.969Z" fill="#DE4148" stroke="#DE4148" stroke-width="0.177346" stroke-miterlimit="10"/>
<path d="M103.961 21.8688V21.7173H105.071V16.0677C105.071 15.7989 105.134 15.5887 105.256 15.4323C105.383 15.2808 105.554 15.2075 105.76 15.2075H105.784V16.356C105.784 15.9211 106.072 15.6914 106.654 15.6669H110.403C111.551 15.6669 112.445 15.9455 113.086 16.5075C113.711 17.0598 114.024 17.8466 114.024 18.8632C114.024 19.8015 113.755 20.5102 113.222 20.9891C112.841 21.3312 112.323 21.5756 111.659 21.7173H114.782V21.8688H103.956H103.961ZM105.784 21.7173H110.026C111.385 21.7075 112.377 21.4632 113.003 20.9891C113.604 20.5297 113.907 19.8211 113.907 18.8632C113.907 18.0617 113.569 17.4459 112.89 17.0158C112.216 16.5906 111.268 16.3805 110.041 16.3805H109.64L105.784 16.3902V21.7124V21.7173Z" fill="#DE4148" stroke="#DE4148" stroke-width="0.177346" stroke-miterlimit="10"/>
<path d="M120.607 13.604C120.666 13.604 120.69 13.6431 120.69 13.7213C120.69 13.8093 120.636 13.9314 120.534 14.0781L118.462 14.4642L118.149 14.3273L120.607 13.6089V13.604Z" fill="#DE4148" stroke="#DE4148" stroke-width="0.177346" stroke-miterlimit="10"/>
<path d="M116.746 19.1762C116.746 19.0882 116.746 19.0002 116.746 18.9074C116.746 17.9104 117 17.104 117.509 16.4833C118.051 15.8284 118.804 15.501 119.766 15.501C120.729 15.501 121.497 15.8284 122.039 16.4833C122.547 17.0991 122.801 17.9104 122.801 18.9074C122.801 20.007 122.513 20.8427 121.931 21.4243L121.756 21.5807C121.237 22.0108 120.578 22.2209 119.771 22.2209C118.965 22.2209 118.315 22.0059 117.797 21.5807L117.636 21.4341C117.44 21.2386 117.274 21.0089 117.137 20.7499C117.074 20.8623 117 20.9649 116.912 21.0578C116.531 21.4781 115.925 21.6931 115.089 21.698H114.889V21.5465H115.065C115.681 21.5465 116.121 21.3266 116.389 20.8916C116.629 20.5104 116.746 19.9386 116.751 19.1664V19.1762H116.746ZM117.45 19.1664V19.2886C117.518 21.1604 118.286 22.0987 119.757 22.0987C121.301 22.0987 122.073 21.048 122.073 18.9514C122.073 17.9397 121.873 17.1382 121.467 16.5517C121.062 15.9555 120.49 15.6574 119.752 15.6574C119.014 15.6574 118.457 15.9653 118.046 16.5762C117.64 17.1675 117.44 17.9788 117.44 19.0002V19.1713H117.445L117.45 19.1664Z" fill="#DE4148" stroke="#DE4148" stroke-width="0.177346" stroke-miterlimit="10"/>
<path d="M56.2082 29.7465C56.2082 28.857 56.0616 28.2266 55.7732 27.8502C55.4946 27.4788 55.045 27.2931 54.4243 27.2931C53.9258 27.2931 53.5691 27.5032 53.354 27.9236C53.1732 28.2999 53.0803 28.901 53.0803 29.7318V33.3533H47.8999C46.9371 33.3533 46.1649 33.0356 45.5833 32.3954C45.0262 31.7845 44.7476 31.0269 44.7476 30.113C44.7476 29.0867 45.1484 28.251 45.945 27.6059C46.0378 27.5326 46.1307 27.469 46.2285 27.4055C46.2676 27.3713 46.3115 27.342 46.3506 27.3273C46.6194 27.21 46.9078 27.1514 47.2303 27.1514C47.4258 27.1514 47.6213 27.1807 47.807 27.2442C48.1491 27.3615 48.3984 27.5472 48.5499 27.8063C48.6134 27.9235 48.6476 28.0262 48.6476 28.119C48.6476 28.1777 48.6379 28.2314 48.6134 28.2901C48.545 28.4025 48.4619 28.4611 48.3593 28.4611C48.3251 28.4611 48.2957 28.4611 48.2615 28.4514C48.1003 28.4123 48.0172 28.3096 48.0172 28.1484C48.0172 28.0702 48.0514 27.9969 48.1198 27.9382C48.1785 27.8747 48.2566 27.8405 48.3446 27.8405L48.3788 27.8502L48.3691 27.8258C48.3691 27.8258 48.3348 27.7818 48.3202 27.7574C48.2713 27.689 48.2029 27.6254 48.1198 27.5717C47.8754 27.386 47.5822 27.2931 47.2303 27.2931C46.8198 27.2931 46.463 27.4055 46.16 27.6303C45.3292 28.2705 44.9138 29.0867 44.9138 30.0837C44.9138 30.9048 45.1435 31.6036 45.6078 32.1803C46.1503 32.8694 46.9176 33.2115 47.8999 33.2018H52.3521V29.4923C52.3521 28.7495 52.533 28.1777 52.8946 27.772C53.2563 27.3615 53.7694 27.1563 54.4243 27.1563C55.0303 27.1563 55.4897 27.3273 55.8123 27.6694C56.1788 28.0946 56.3646 28.7837 56.3646 29.7465V33.2018H57.3029V33.3533H56.2131V29.7465H56.2082ZM50.1724 33.8664C50.2555 33.9495 50.2946 34.0521 50.2946 34.1792C50.2946 34.2916 50.2555 34.3893 50.1724 34.4724C50.0894 34.5555 49.9916 34.5946 49.8743 34.5946C49.757 34.5946 49.6495 34.5555 49.5664 34.4724C49.4833 34.3893 49.4442 34.2916 49.4442 34.1792C49.4442 34.0521 49.4833 33.9495 49.5664 33.8664C49.6495 33.7833 49.7521 33.7442 49.8743 33.7442C49.9965 33.7442 50.0894 33.7833 50.1724 33.8664ZM51.3894 33.8615C51.4724 33.9495 51.5115 34.0521 51.5115 34.1694C51.5115 34.2867 51.4724 34.3942 51.3894 34.4773C51.3063 34.5604 51.2036 34.5995 51.0766 34.5995C50.9593 34.5995 50.8615 34.5604 50.7785 34.4773C50.6954 34.3942 50.6563 34.2916 50.6563 34.1694C50.6563 34.0472 50.6954 33.9495 50.7785 33.8615C50.8615 33.7736 50.9593 33.7296 51.0766 33.7296C51.2036 33.7296 51.3063 33.7736 51.3894 33.8615Z" fill="#E6DAC8" stroke="#E6DAC8" stroke-width="0.177346" stroke-miterlimit="10"/>
<path d="M59.4141 33.2017V33.3532H57.2344V33.2017H59.4141Z" fill="#E6DAC8" stroke="#E6DAC8" stroke-width="0.177346" stroke-miterlimit="10"/>
<path d="M65.357 34.7461C65.4058 34.7461 65.4303 34.7803 65.4303 34.8438C65.4303 34.9367 65.3765 35.054 65.2739 35.2006L63.2163 35.6014L62.9036 35.4645L65.3618 34.751H65.357V34.7461Z" fill="#E6DAC8" stroke="#E6DAC8" stroke-width="0.177346" stroke-miterlimit="10"/>
<path d="M61.2174 30.8222C61.2174 30.7342 61.2126 30.6462 61.2126 30.5534C61.2126 29.5564 61.4667 28.75 61.975 28.1293C62.5174 27.4744 63.2701 27.147 64.2329 27.147C65.1956 27.147 65.9629 27.4744 66.5054 28.1293C67.0137 28.7451 67.2678 29.5564 67.2678 30.5534C67.2678 31.653 66.9795 32.4887 66.3979 33.0703L66.222 33.2267C65.7039 33.6568 65.0441 33.8669 64.2378 33.8669C63.4314 33.8669 62.7814 33.6519 62.2633 33.2267L62.102 33.0801C61.9065 32.8846 61.7404 32.6549 61.6035 32.3959C61.54 32.5083 61.4667 32.6109 61.3787 32.7037C60.9975 33.124 60.3915 33.3391 59.5558 33.344H59.3554V33.1925H59.5313C60.1471 33.1925 60.587 32.9725 60.8558 32.5376C61.0953 32.1564 61.2126 31.5846 61.2174 30.8124V30.8222ZM61.9212 30.8124H61.9261V30.9346C61.9945 32.8064 62.7618 33.7447 64.2329 33.7447C65.7772 33.7447 66.5494 32.694 66.5494 30.5974C66.5494 29.5857 66.349 28.7842 65.9434 28.1977C65.5378 27.6015 64.9659 27.3034 64.228 27.3034C63.49 27.3034 62.9329 27.6113 62.5223 28.2222C62.1167 28.8135 61.9163 29.6248 61.9163 30.6462V30.8173L61.9212 30.8124Z" fill="#E6DAC8" stroke="#E6DAC8" stroke-width="0.177346" stroke-miterlimit="10"/>
<path d="M70.3616 25.5293C70.4202 25.5293 70.4447 25.5684 70.4447 25.6466C70.4447 25.7346 70.3909 25.8567 70.2883 26.0034L68.2161 26.3895L67.9033 26.2526L70.3616 25.5342V25.5293Z" fill="#E6DAC8" stroke="#E6DAC8" stroke-width="0.177346" stroke-miterlimit="10"/>
<path d="M71.5198 32.425C71.4612 32.5276 71.3928 32.6156 71.3195 32.6987C70.9138 33.1385 70.2736 33.3584 69.3939 33.3584H68.48V33.2069H69.3939C69.5649 33.2069 69.736 33.1874 69.9022 33.1483C69.3792 32.8844 69.1202 32.3223 69.1202 31.4524V27.8016C69.1202 27.6062 69.1642 27.4449 69.257 27.3276C69.345 27.2103 69.4672 27.1516 69.6285 27.1516H69.6529V31.428C69.6529 32.2588 69.8582 32.7866 70.2638 33.0163C70.8503 32.6938 71.1435 31.9167 71.1435 30.6851V24.6787H71.1777C71.3977 24.6787 71.5687 24.7569 71.7007 24.9133C71.8277 25.0746 71.8864 25.2896 71.8864 25.5535V30.778C71.8864 31.5746 72.0086 32.1659 72.248 32.552C72.5168 32.987 72.9616 33.2069 73.5725 33.2069H73.6898V33.3584H73.5529C72.7172 33.3486 72.1112 33.1385 71.73 32.7182C71.6469 32.6351 71.5785 32.5374 71.5198 32.4299V32.425Z" fill="#E6DAC8" stroke="#E6DAC8" stroke-width="0.177346" stroke-miterlimit="10"/>
<path d="M76.5047 25.9598C76.3385 25.8034 76.2554 25.5981 76.2554 25.3489C76.2554 25.1192 76.3385 24.9188 76.5047 24.7575C76.6708 24.6012 76.8761 24.5229 77.1156 24.5229C77.3551 24.5229 77.5554 24.6012 77.7216 24.7575C77.8878 24.9237 77.9708 25.1192 77.9708 25.3489C77.9708 25.5981 77.8878 25.8034 77.7216 25.9598C77.5554 26.1162 77.3551 26.1944 77.1156 26.1944C76.8761 26.1944 76.6708 26.1162 76.5047 25.9598ZM77.6532 25.344C77.6532 25.2169 77.6043 25.0948 77.5017 24.9872C77.3942 24.8797 77.2671 24.826 77.1205 24.826C76.9738 24.826 76.8517 24.8797 76.7442 24.9872C76.6366 25.0948 76.5829 25.2169 76.5829 25.344C76.5829 25.4955 76.6366 25.6226 76.7442 25.7301C76.8468 25.8278 76.969 25.8767 77.1205 25.8767C77.4772 25.8767 77.6532 25.7008 77.6532 25.344Z" fill="#E6DAC8" stroke="#E6DAC8" stroke-width="0.177346" stroke-miterlimit="10"/>
<path d="M80.2532 27.1562C80.4585 27.1562 80.6247 27.2345 80.7517 27.3908C80.8739 27.5472 80.9326 27.7574 80.9326 28.0164V31.3348C80.9326 31.9408 80.7957 32.4198 80.5172 32.7766C80.219 33.1627 79.7792 33.3581 79.2025 33.3581C78.748 33.3581 78.3912 33.192 78.1371 32.8596C77.8389 33.192 77.4284 33.3581 76.9104 33.3581C76.3923 33.3581 76.0062 33.1578 75.7521 32.7521C75.3709 33.148 74.7747 33.3484 73.9536 33.3581H73.631V33.2066H73.9292C74.545 33.2066 74.9848 32.9867 75.2536 32.5518C75.498 32.1657 75.6153 31.5743 75.6153 30.7777V27.7574H75.6495C75.8547 27.7574 76.0209 27.8307 76.148 27.9822C76.275 28.1386 76.3337 28.3487 76.3337 28.6126V30.8168C76.3337 31.6281 76.1675 32.239 75.8352 32.6495C76.0307 33.0405 76.3435 33.236 76.7638 33.236C77.5359 33.236 77.922 32.6348 77.922 31.4375L77.9123 27.4788H77.9465C78.1517 27.4788 78.3179 27.557 78.445 27.7134C78.5671 27.8698 78.6258 28.0848 78.6258 28.3487V31.3348C78.6258 31.9408 78.4889 32.4198 78.2201 32.7766C78.4254 33.0845 78.7089 33.236 79.0754 33.236C79.8378 33.236 80.219 32.6348 80.219 31.4375V27.1562H80.2532Z" fill="#E6DAC8" stroke="#E6DAC8" stroke-width="0.177346" stroke-miterlimit="10"/>
<path d="M84.6615 35.748C84.7104 35.748 84.7348 35.7823 84.7348 35.8458C84.7348 35.9386 84.6811 36.0559 84.5784 36.2026L82.5209 36.6033L82.2081 36.4665L84.6664 35.7529H84.6615V35.748Z" fill="#E6DAC8" stroke="#E6DAC8" stroke-width="0.177346" stroke-miterlimit="10"/>
<path d="M84.8423 24.6743C85.0623 24.6743 85.2333 24.7525 85.3653 24.9089C85.4923 25.0702 85.551 25.2852 85.551 25.5491V30.7149C85.551 31.6142 85.3604 32.274 84.9841 32.6943C84.5784 33.1341 83.9382 33.354 83.0585 33.354H82.1446V33.2025H83.0585C83.2296 33.2025 83.4006 33.183 83.5668 33.1439C83.0438 32.88 82.7848 32.3179 82.7848 31.448V27.7973C82.7848 27.6018 82.8288 27.4405 82.9217 27.3232C83.0096 27.2059 83.1318 27.1473 83.2931 27.1473H83.3175V31.4236C83.3175 32.2544 83.5228 32.7822 83.9284 33.0119C84.5149 32.6894 84.8081 31.9123 84.8081 30.6807V24.6743H84.8423ZM82.345 35.4213V35.3627H82.6431V35.0548C82.6529 34.2533 82.9803 33.8476 83.6352 33.8476C83.8991 33.8476 84.1044 33.9161 84.251 34.048C84.3781 34.18 84.4367 34.3413 84.4367 34.5319C84.4367 34.654 84.4172 34.7567 84.3781 34.8398C84.3243 34.9375 84.2559 34.9864 84.1679 34.9864C84.1288 34.9864 84.0848 34.9717 84.0408 34.9375C84.0066 34.8984 83.992 34.8544 83.992 34.8153C83.992 34.7664 84.0066 34.7225 84.0408 34.6882C84.0848 34.654 84.1288 34.6394 84.1679 34.6394C84.2412 34.6394 84.295 34.6834 84.339 34.7664C84.3585 34.7518 84.3683 34.6736 84.3683 34.5319C84.3683 34.351 84.3145 34.2093 84.207 34.1067C84.075 33.9747 83.8845 33.9063 83.6401 33.9063C83.3957 33.9063 83.2149 34.0236 83.0976 34.2582C82.995 34.4537 82.9461 34.7225 82.9461 35.0499V35.3578H84.4465V35.4164H82.345V35.4213Z" fill="#E6DAC8" stroke="#E6DAC8" stroke-width="0.177346" stroke-miterlimit="10"/>
<path d="M85.9762 23.7796C85.8101 23.6232 85.727 23.418 85.727 23.1687C85.727 22.939 85.8101 22.7386 85.9762 22.5774C86.1424 22.421 86.3477 22.3428 86.5871 22.3428C86.8266 22.3428 87.027 22.421 87.1932 22.5774C87.3593 22.7435 87.4424 22.939 87.4424 23.1687C87.4424 23.418 87.3593 23.6232 87.1932 23.7796C87.027 23.936 86.8266 24.0142 86.5871 24.0142C86.3477 24.0142 86.1424 23.936 85.9762 23.7796ZM87.1199 23.1638C87.1199 23.0368 87.071 22.9146 86.9683 22.8071C86.8608 22.6995 86.7338 22.6458 86.5871 22.6458C86.4405 22.6458 86.3183 22.6995 86.2108 22.8071C86.1033 22.9146 86.0495 23.0368 86.0495 23.1638C86.0495 23.3153 86.1033 23.4424 86.2108 23.5499C86.3135 23.6477 86.4356 23.6965 86.5871 23.6965C86.9439 23.6965 87.1199 23.5206 87.1199 23.1638Z" fill="#E6DAC8" stroke="#E6DAC8" stroke-width="0.177346" stroke-miterlimit="10"/>
<path d="M86.4063 33.354V24.6743H86.4405C86.8804 24.6743 87.1003 24.948 87.1003 25.4905V33.354H86.4063Z" fill="#E6DAC8" stroke="#E6DAC8" stroke-width="0.177346" stroke-miterlimit="10"/>
<path d="M102.451 29.7465C102.451 28.857 102.304 28.2266 102.016 27.8502C101.737 27.4788 101.288 27.2931 100.667 27.2931C100.169 27.2931 99.8119 27.5032 99.5969 27.9236C99.4161 28.2999 99.3232 28.901 99.3232 29.7318V33.3533H94.1427C93.18 33.3533 92.4078 33.0356 91.8262 32.3954C91.2691 31.7845 90.9905 31.0269 90.9905 30.113C90.9905 29.0867 91.3912 28.251 92.1878 27.6059C92.2807 27.5326 92.3736 27.469 92.4713 27.4055C92.5104 27.3713 92.5544 27.342 92.5935 27.3273C92.8623 27.21 93.1506 27.1514 93.4732 27.1514C93.6687 27.1514 93.8642 27.1807 94.0499 27.2442C94.392 27.3615 94.6412 27.5472 94.7927 27.8063C94.8563 27.9235 94.8905 28.0262 94.8905 28.119C94.8905 28.1777 94.8807 28.2314 94.8563 28.2901C94.7879 28.4025 94.7048 28.4611 94.6021 28.4611C94.5679 28.4611 94.5386 28.4611 94.5044 28.4514C94.3431 28.4123 94.26 28.3096 94.26 28.1484C94.26 28.0702 94.2942 27.9969 94.3627 27.9382C94.4213 27.8747 94.4995 27.8405 94.5875 27.8405L94.6217 27.8502L94.6119 27.8258C94.6119 27.8258 94.5777 27.7818 94.563 27.7574C94.5142 27.689 94.4457 27.6254 94.3627 27.5717C94.1183 27.386 93.8251 27.2931 93.4732 27.2931C93.0627 27.2931 92.7059 27.4055 92.4029 27.6303C91.5721 28.2705 91.1566 29.0867 91.1566 30.0837C91.1566 30.9048 91.3863 31.6036 91.8506 32.1803C92.3931 32.8694 93.1604 33.2115 94.1427 33.2018H98.595V29.4923C98.595 28.7495 98.7758 28.1777 99.1375 27.772C99.4991 27.3615 100.012 27.1563 100.667 27.1563C101.273 27.1563 101.733 27.3273 102.055 27.6694C102.422 28.0946 102.607 28.7837 102.607 29.7465V33.2018H103.546V33.3533H102.456V29.7465H102.451ZM96.4153 33.8664C96.4984 33.9495 96.5375 34.0521 96.5375 34.1792C96.5375 34.2916 96.4984 34.3893 96.4153 34.4724C96.3322 34.5555 96.2345 34.5946 96.1172 34.5946C95.9999 34.5946 95.8924 34.5555 95.8093 34.4724C95.7262 34.3893 95.6871 34.2916 95.6871 34.1792C95.6871 34.0521 95.7262 33.9495 95.8093 33.8664C95.8924 33.7833 95.995 33.7442 96.1172 33.7442C96.2394 33.7442 96.3322 33.7833 96.4153 33.8664ZM97.6322 33.8615C97.7153 33.9495 97.7544 34.0521 97.7544 34.1694C97.7544 34.2867 97.7153 34.3942 97.6322 34.4773C97.5491 34.5604 97.4465 34.5995 97.3194 34.5995C97.2021 34.5995 97.1044 34.5604 97.0213 34.4773C96.9382 34.3942 96.8991 34.2916 96.8991 34.1694C96.8991 34.0472 96.9382 33.9495 97.0213 33.8615C97.1044 33.7736 97.2021 33.7296 97.3194 33.7296C97.4465 33.7296 97.5491 33.7736 97.6322 33.8615Z" fill="#E6DAC8" stroke="#E6DAC8" stroke-width="0.177346" stroke-miterlimit="10"/>
<path d="M105.848 35.8364C105.897 35.8364 105.921 35.8706 105.921 35.9342C105.921 36.027 105.867 36.1443 105.765 36.2909L103.707 36.6917L103.394 36.5548L105.853 35.8413L105.848 35.8364Z" fill="#E6DAC8" stroke="#E6DAC8" stroke-width="0.177346" stroke-miterlimit="10"/>
<path d="M105.657 33.2017V33.3532H103.477V33.2017H105.657Z" fill="#E6DAC8" stroke="#E6DAC8" stroke-width="0.177346" stroke-miterlimit="10"/>
<path d="M107.5 27.1562C107.705 27.1562 107.871 27.2296 107.998 27.3762C108.12 27.5326 108.179 27.7476 108.179 28.0115V30.8168C108.179 31.6769 107.993 32.3123 107.622 32.7179C107.241 33.1382 106.635 33.3533 105.799 33.3581H105.599V33.2066H105.774C106.39 33.2066 106.83 32.9867 107.099 32.5518C107.343 32.1657 107.461 31.5743 107.461 30.7777V27.1562H107.5ZM107.001 33.8615C107.084 33.9495 107.123 34.0521 107.123 34.1694C107.123 34.2867 107.084 34.3942 107.001 34.4773C106.918 34.5604 106.815 34.5995 106.688 34.5995C106.576 34.5995 106.478 34.5604 106.395 34.4773C106.312 34.3942 106.273 34.2916 106.273 34.1694C106.273 34.0472 106.312 33.9495 106.395 33.8615C106.478 33.7736 106.576 33.7296 106.688 33.7296C106.815 33.7296 106.918 33.7736 107.001 33.8615Z" fill="#E6DAC8" stroke="#E6DAC8" stroke-width="0.177346" stroke-miterlimit="10"/>
<path d="M111.18 25.1621C111.238 25.1621 111.263 25.2012 111.263 25.2794C111.263 25.3674 111.209 25.4896 111.106 25.6362L109.034 26.0223L108.721 25.8854L111.18 25.167V25.1621Z" fill="#E6DAC8" stroke="#E6DAC8" stroke-width="0.177346" stroke-miterlimit="10"/>
<path d="M110.373 29.8252V27.147H110.398C110.598 27.147 110.764 27.2252 110.896 27.3767C111.023 27.538 111.082 27.753 111.082 28.0267V30.7733C111.082 31.5699 111.204 32.1613 111.444 32.5474C111.712 32.9823 112.157 33.2022 112.768 33.2022H112.885V33.3537H112.748C111.942 33.344 111.346 33.1436 110.965 32.7526C110.925 32.9628 110.872 33.1583 110.808 33.344L110.75 33.5004C110.735 33.5395 110.725 33.5639 110.725 33.5737C110.505 34.0966 110.187 34.5218 109.767 34.8395C109.557 35.0007 109.322 35.1376 109.063 35.2451C108.936 35.2989 108.795 35.3477 108.653 35.3917C108.399 35.465 108.15 35.4846 107.91 35.4601C107.675 35.4308 107.509 35.3868 107.412 35.3282C107.28 35.2451 107.216 35.1376 107.216 35.0154C107.216 34.9274 107.255 34.8541 107.333 34.7906C107.397 34.7319 107.475 34.7124 107.568 34.7222C107.651 34.7319 107.724 34.771 107.788 34.8444C107.842 34.9079 107.861 34.991 107.847 35.0887C107.837 35.1816 107.783 35.2549 107.695 35.3135C107.974 35.3722 108.252 35.3575 108.536 35.2695C109.005 35.1083 109.371 34.8737 109.63 34.5658C110.129 33.9842 110.373 32.9383 110.373 31.4233V31.0714C110.373 30.9883 110.373 30.9004 110.373 30.8124V29.8252Z" fill="#E6DAC8" stroke="#E6DAC8" stroke-width="0.177346" stroke-miterlimit="10"/>
<path d="M117.328 24.9814C117.386 24.9814 117.411 25.0205 117.411 25.0987C117.411 25.1867 117.357 25.3089 117.254 25.4555L115.182 25.8416L114.87 25.7048L117.328 24.9863V24.9814Z" fill="#E6DAC8" stroke="#E6DAC8" stroke-width="0.177346" stroke-miterlimit="10"/>
<path d="M115.651 33.2017C115.104 32.9281 114.63 32.542 114.239 32.0435C113.726 31.3935 113.472 30.6751 113.472 29.8882V29.6292C113.472 28.075 114.229 27.2589 115.749 27.1856C116.023 27.1709 116.292 27.1611 116.561 27.1611C116.829 27.1611 117.108 27.1709 117.382 27.1856C118.902 27.2638 119.664 28.0799 119.664 29.6292V29.8882C119.664 30.6604 119.415 31.3641 118.911 32.0093C118.53 32.5078 118.056 32.9036 117.499 33.1969H120.26V33.3532H112.807V33.2017H115.651ZM117.171 33.2017C117.699 32.9623 118.188 32.6006 118.633 32.107C119.214 31.4423 119.503 30.7044 119.503 29.8931C119.503 29.1844 119.253 28.6811 118.75 28.3732C118.32 28.0995 117.65 27.9626 116.741 27.9626H116.37C115.476 27.9626 114.806 28.0995 114.361 28.3732C113.873 28.6811 113.628 29.1844 113.628 29.8931C113.628 30.7141 113.931 31.4619 114.532 32.1314C114.977 32.6299 115.466 32.9867 115.998 33.2017H117.171Z" fill="#E6DAC8" stroke="#E6DAC8" stroke-width="0.177346" stroke-miterlimit="10"/>
<path d="M121.267 23.6864C121.101 23.53 121.018 23.3247 121.018 23.0755C121.018 22.8458 121.101 22.6454 121.267 22.4841C121.433 22.3277 121.638 22.2495 121.878 22.2495C122.117 22.2495 122.318 22.3277 122.484 22.4841C122.65 22.6503 122.733 22.8458 122.733 23.0755C122.733 23.3247 122.65 23.53 122.484 23.6864C122.318 23.8427 122.117 23.9209 121.878 23.9209C121.638 23.9209 121.433 23.8427 121.267 23.6864ZM122.41 23.0755C122.41 22.9484 122.362 22.8262 122.259 22.7187C122.151 22.6112 122.024 22.5574 121.878 22.5574C121.731 22.5574 121.609 22.6112 121.501 22.7187C121.394 22.8262 121.34 22.9484 121.34 23.0755C121.34 23.227 121.394 23.354 121.501 23.4615C121.604 23.5593 121.726 23.6082 121.878 23.6082C122.235 23.6082 122.41 23.4322 122.41 23.0755Z" fill="#E6DAC8" stroke="#E6DAC8" stroke-width="0.177346" stroke-miterlimit="10"/>
<path d="M122.107 24.6733C122.313 24.6733 122.479 24.7467 122.606 24.8933C122.728 25.0497 122.787 25.2647 122.787 25.5286V30.8117C122.787 31.6719 122.601 32.3072 122.23 32.7128C121.848 33.1331 121.242 33.3482 120.407 33.3531H120.206V33.2016H120.382C120.998 33.2016 121.438 32.9816 121.707 32.5467C121.951 32.1606 122.068 31.5692 122.068 30.7726V24.6685H122.107V24.6733Z" fill="#E6DAC8" stroke="#E6DAC8" stroke-width="0.177346" stroke-miterlimit="10"/>
<path d="M123.637 33.354V24.6743H123.671C124.111 24.6743 124.331 24.948 124.331 25.4905V33.354H123.637Z" fill="#E6DAC8" stroke="#E6DAC8" stroke-width="0.177346" stroke-miterlimit="10"/>
<path d="M35.3934 19.1901C35.3152 19.1119 35.237 19.0289 35.1588 18.9409C34.6554 18.2274 34.1422 17.5089 33.634 16.7954C33.502 16.5706 33.3701 16.3604 33.2479 16.1356C33.1452 15.9353 32.9937 15.8815 32.7738 15.8815C31.8501 15.8962 30.9362 15.8913 30.0125 15.8913H29.5531C29.5287 15.5883 29.514 15.3195 29.4896 15.0556C29.4896 14.2247 29.4749 13.4037 29.4798 12.5728C29.4798 12.3773 29.3625 12.2992 29.2306 12.2161C28.3949 11.6638 27.5543 11.1067 26.7185 10.5495C26.611 10.4811 26.5084 10.3931 26.4106 10.3149C26.9385 10.398 27.4565 10.4762 27.9746 10.5642C28.7956 10.7059 29.6264 10.8574 30.4475 10.9992C31.2637 11.1458 32.0749 11.2875 32.8911 11.4243C33.1306 11.4634 33.3701 11.5074 33.6095 11.5465C33.9419 11.5954 33.9956 11.6394 34.0592 11.9668C34.2009 12.6804 34.3231 13.3939 34.4599 14.0977C34.7092 15.3928 34.9633 16.6781 35.2028 17.9732C35.281 18.374 35.325 18.7894 35.3787 19.1901H35.3934Z" fill="#E6DAC8"/>
<path d="M13.3569 10.2959C13.2787 10.3643 13.1956 10.4425 13.1174 10.5109C12.5749 10.8775 12.0226 11.2391 11.4802 11.5959C11.1625 11.7963 10.8595 12.0064 10.5369 12.1873C10.3414 12.2948 10.2632 12.4365 10.2632 12.6467V13.9564C10.2486 14.4452 10.2388 14.9388 10.2339 15.4275C10.229 15.7354 10.0775 15.8869 9.7843 15.8869C8.85572 15.8869 7.92226 15.8967 6.99369 15.8771C6.73955 15.8771 6.5685 15.9406 6.4903 16.1948C5.92339 17.0012 5.36624 17.7978 4.79932 18.6042C4.64293 18.8192 4.48165 19.0391 4.32037 19.2542C4.40346 18.7557 4.47677 18.2621 4.56963 17.7685C4.79444 16.5809 5.03391 15.3884 5.25872 14.2008C5.40045 13.4628 5.52264 12.7297 5.66925 11.9918C5.73767 11.5959 5.75234 11.6057 6.15798 11.5324C6.96437 11.4102 7.76099 11.2587 8.56249 11.1218C9.56926 10.9508 10.5711 10.7797 11.5681 10.6038C12.0862 10.5109 12.6091 10.4034 13.1272 10.3106C13.2054 10.2959 13.2835 10.3008 13.3617 10.2959H13.3569Z" fill="#E6DAC8"/>
<path d="M35.408 31.8677C35.3445 32.2635 35.3005 32.6643 35.2321 33.0553C34.9535 34.5117 34.675 35.9681 34.3964 37.4245C34.2791 38.006 34.1813 38.5876 34.0689 39.1692C34.0445 39.2718 34.0005 39.3647 33.9614 39.4771C33.0231 39.6384 32.0798 39.8045 31.1415 39.9658C29.861 40.1906 28.5855 40.4252 27.305 40.6549C27.134 40.6794 26.9727 40.7184 26.8114 40.7331C26.743 40.7331 26.6697 40.6842 26.6013 40.6647C26.7039 40.5865 26.7968 40.4936 26.9043 40.4252C27.3783 40.0978 27.8573 39.7752 28.3362 39.4478C28.6148 39.2718 28.8934 39.0763 29.1817 38.9151C29.4163 38.7831 29.4994 38.6218 29.4896 38.3579C29.4798 37.7128 29.4994 37.0628 29.514 36.4226C29.5238 36.0267 29.5531 35.6308 29.5678 35.235C29.69 35.2203 29.7828 35.2105 29.8757 35.2057C30.8678 35.2057 31.8697 35.2154 32.8618 35.2203C33.0573 35.2203 33.1404 35.1177 33.2283 34.9857C33.7708 34.194 34.3133 33.4023 34.8656 32.6203C35.0415 32.3662 35.2321 32.1169 35.4178 31.8677H35.408Z" fill="#E6DAC8"/>
<path d="M13.2885 40.7434C12.8535 40.6798 12.4186 40.6359 11.9885 40.5674C11.1284 40.4208 10.2584 40.2742 9.39827 40.1178C8.60654 39.9859 7.82459 39.8392 7.04263 39.6926C6.69564 39.6291 6.35353 39.5607 6.01143 39.5167C5.82571 39.4923 5.74751 39.4141 5.71819 39.2283C5.6009 38.5783 5.46406 37.9332 5.33699 37.293C5.13661 36.252 4.94112 35.2159 4.74075 34.1749C4.59902 33.4712 4.46218 32.7577 4.33022 32.049C4.32045 31.9855 4.33022 31.917 4.34 31.8535C4.38887 31.9073 4.44262 31.961 4.48661 32.0246C4.74074 32.3911 5.00466 32.7528 5.26368 33.1193C5.70353 33.7644 6.14827 34.4144 6.58323 35.0644C6.66632 35.1866 6.76895 35.2208 6.91068 35.2208C7.26744 35.211 7.6291 35.2062 7.98586 35.2062C8.72384 35.2159 9.45692 35.2208 10.2193 35.2306C10.2291 35.3919 10.234 35.5189 10.2438 35.6411C10.2535 36.4475 10.2584 37.2539 10.2682 38.0603C10.2731 38.5441 10.5028 38.9009 10.9524 39.1306C11.6122 39.5704 12.2769 40.0201 12.9366 40.4697C13.0588 40.5528 13.1761 40.6554 13.3032 40.7483H13.2885V40.7434Z" fill="#E6DAC8"/>
<path d="M16.2501 34.986C16.1866 34.9469 16.1328 34.8834 16.079 34.8296C16.2208 34.8443 16.3576 34.854 16.4993 34.8785C17.3448 35.0397 18.1903 35.2646 19.0407 35.3525C19.8471 35.4356 20.6681 35.4307 21.4648 35.2597C22.193 35.0984 22.9212 34.9273 23.6494 34.7612C23.6982 34.7514 23.752 34.7612 23.8057 34.7612C23.5125 34.9616 23.2144 35.1815 22.9212 35.3819C22.2565 35.8461 21.8509 36.6085 21.1764 37.0631C20.8441 37.2781 20.3993 37.6153 20.0572 37.8352C19.979 37.7961 18.6155 37.2194 18.5471 37.1755" fill="#E6DAC8"/>
<path d="M7.94189 25.612C7.95656 25.5435 7.95656 25.4556 8.00543 25.4018C8.85581 24.1702 9.71107 22.9387 10.5712 21.7071C10.5859 21.6826 10.6103 21.6778 10.6348 21.6582C10.625 21.7217 10.6348 21.7902 10.6103 21.8537C10.3024 22.7676 10.1363 23.7206 10.0385 24.6834C9.97009 25.3041 10.0092 25.9492 10.0874 26.565C10.1949 27.3811 10.3904 28.1827 10.5468 28.989C10.5712 29.0917 10.5566 29.1992 10.5614 29.2969C10.4686 29.1894 10.3757 29.0868 10.2975 28.9695" fill="#E6DAC8"/>
<path d="M31.8257 25.4804C31.7866 25.5733 31.7573 25.6759 31.7035 25.759C30.9216 26.8831 30.1445 27.9973 29.3625 29.1214C29.3137 29.1898 29.2453 29.2534 29.1866 29.3218C29.2501 29.0334 29.3088 28.7402 29.3625 28.4519C29.4847 27.7383 29.6118 27.0346 29.7193 26.321C29.9148 24.9624 29.5776 23.6624 29.2843 22.3526L29.1671 21.7466C29.299 21.9176 29.4456 22.074 29.5678 22.25C29.9246 22.7387 30.2716 23.2323 30.6235 23.7308C31.0242 24.3124 31.4298 24.894 31.8257 25.4755V25.4804Z" fill="#E6DAC8"/>
<path d="M23.7129 16.2973C23.5125 16.2582 23.3121 16.2289 23.1069 16.18C22.2712 15.9698 21.4257 15.8232 20.5704 15.7304C19.4708 15.5984 18.4151 15.8086 17.3595 16.0089C16.9001 16.092 16.4505 16.1947 16.0009 16.2973C16.3087 16.0627 16.6215 15.833 16.9392 15.5984C17.4572 15.2514 17.9851 14.8995 18.5031 14.5525C18.943 14.2642 19.3779 13.971 19.8129 13.6826C19.9204 13.7315 20.0279 13.7657 20.1208 13.8292C21.2448 14.5721 22.3689 15.3345 23.493 16.0871C23.5712 16.1409 23.6347 16.2289 23.7031 16.2973H23.7129Z" fill="#E6DAC8"/>
<path d="M25.5163 41.3155C25.4381 41.379 25.3599 41.4474 25.2768 41.5012C23.5809 42.6252 21.8802 43.7493 20.1941 44.8783C19.9448 45.0493 19.7836 45.0346 19.5441 44.8685C17.5892 43.5587 15.6245 42.2587 13.655 40.9538C13.5377 40.8756 13.4155 40.8072 13.2884 40.7388C13.1663 40.6459 13.049 40.5433 12.9219 40.4602C12.2621 40.0106 11.5975 39.561 10.9377 39.1211C10.4881 38.8914 10.2584 38.5346 10.2535 38.0508C10.2437 37.2444 10.2388 36.438 10.229 35.6316C10.2193 35.5094 10.2144 35.3824 10.2046 35.2211C9.44708 35.2113 8.70911 35.2064 7.97114 35.1967C7.61437 35.1967 7.25271 35.2064 6.89595 35.2113C6.75422 35.2113 6.65647 35.182 6.5685 35.0549C6.13354 34.4049 5.69369 33.7549 5.24895 33.1098C4.99482 32.7433 4.7309 32.3816 4.47188 32.0151C4.42301 31.9515 4.36925 31.8978 4.32527 31.844C4.20797 31.6485 4.09068 31.4628 3.97827 31.2722C4.23241 30.8715 4.48165 30.4658 4.75534 30.07C5.32714 29.2342 5.9185 28.4034 6.50008 27.5677C6.92038 26.9617 7.3358 26.3605 7.76587 25.7594C7.80497 25.6959 7.88317 25.6568 7.93693 25.603C8.23994 26.0429 8.54295 26.4876 8.84595 26.9275C9.3249 27.6117 9.80874 28.291 10.2877 28.9654C10.3659 29.0827 10.4587 29.1805 10.5516 29.2929C10.5663 29.3222 10.5907 29.3564 10.6151 29.3955C10.7324 29.591 10.8497 29.7816 10.9621 29.9869C11.3287 30.5 11.7001 31.0083 12.0617 31.5312C12.1693 31.6876 12.2963 31.8391 12.3892 32.0102C12.7606 32.6748 13.3324 33.1342 13.9775 33.5057C14.0997 33.5692 14.2317 33.6279 14.349 33.7012C14.8915 34.0579 15.4339 34.4147 15.9764 34.7617C16.0057 34.7861 16.0448 34.8106 16.079 34.8252C16.1328 34.879 16.1866 34.9425 16.2501 34.9816C17.3888 35.7489 18.5276 36.5162 19.6663 37.2835C19.7347 37.3324 19.8227 37.3666 19.9009 37.4057C19.9839 37.4839 20.0621 37.567 20.155 37.6403C20.4336 37.8358 20.7121 38.0117 20.9907 38.2072C22.0317 38.9061 23.0678 39.6 24.099 40.3087C24.5779 40.6361 25.0422 40.9831 25.5163 41.3155Z" fill="url(#paint0_linear_357_1307)"/>
<path d="M39.7333 25.5339C39.6551 25.6561 39.5769 25.7881 39.4938 25.9151C38.1987 27.7918 36.9036 29.6685 35.6084 31.5403C35.54 31.6479 35.4667 31.7554 35.4081 31.8678C35.2223 32.117 35.0366 32.3614 34.8558 32.6204C34.3035 33.4024 33.7611 34.1941 33.2186 34.9858C33.1355 35.1178 33.0475 35.2204 32.852 35.2204C31.8599 35.2106 30.8581 35.2058 29.8659 35.2058C29.7731 35.2155 29.6802 35.2204 29.558 35.2351C29.5434 35.6309 29.5092 36.0268 29.5043 36.4227C29.4896 37.0678 29.475 37.7178 29.4798 38.358C29.4896 38.6219 29.4017 38.7832 29.172 38.9152C28.8836 39.0764 28.605 39.2719 28.3265 39.4479C27.8475 39.7753 27.3637 40.0979 26.8945 40.4253C26.787 40.4937 26.6941 40.5866 26.5915 40.6648C26.3569 40.8114 26.1174 40.958 25.878 41.1046C25.7607 41.1828 25.6385 41.2464 25.5114 41.3148C25.0374 40.9825 24.5731 40.6306 24.0941 40.308C23.0629 39.6043 22.0268 38.9054 20.9859 38.2065C20.7073 38.011 20.4287 37.8351 20.1501 37.6396C20.0573 37.5712 19.9791 37.4832 19.896 37.405C20.2381 37.19 20.5704 36.97 20.9028 36.755C21.5772 36.2956 22.2516 35.8411 22.9163 35.3768C23.2095 35.1764 23.5077 34.9565 23.8009 34.7561C24.2945 34.4287 24.7832 34.1061 25.2817 33.7885C25.399 33.7103 25.5212 33.6418 25.6483 33.5734C25.9024 33.3877 26.1614 33.1922 26.4302 33.0212C26.7186 32.8354 26.9483 32.6106 27.1438 32.3223C27.6325 31.5941 28.1456 30.8806 28.6393 30.1621C28.825 29.8885 29.0058 29.605 29.1817 29.3264C29.2453 29.258 29.3137 29.1945 29.3577 29.126C30.1396 28.002 30.9167 26.8877 31.6987 25.7636C31.7524 25.6806 31.7817 25.5779 31.8208 25.4851C31.9137 25.402 32.0163 25.3287 32.0945 25.2309C32.2802 24.9768 32.466 24.7031 32.6468 24.4392C33.7024 22.9144 34.7483 21.3944 35.799 19.8647C36.1558 20.3681 36.5175 20.8715 36.8693 21.3847C37.7539 22.6651 38.6385 23.9407 39.5182 25.2212C39.5818 25.314 39.6404 25.4166 39.7284 25.5388L39.7333 25.5339Z" fill="url(#paint1_linear_357_1307)"/>
<path d="M35.7991 19.8651C34.7434 21.3899 33.6976 22.9098 32.6468 24.4395C32.4709 24.7034 32.2803 24.9722 32.0945 25.2312C32.0163 25.3339 31.9186 25.4023 31.8209 25.4854C31.425 24.9038 31.0242 24.3222 30.6186 23.7406C30.2716 23.247 29.9197 22.7485 29.563 22.2598C29.4408 22.0839 29.2893 21.9275 29.1622 21.7564C29.1475 21.7466 29.1378 21.732 29.1378 21.7173C28.8103 21.2286 28.4878 20.735 28.1603 20.2365C27.7645 19.6549 27.3686 19.0733 26.9727 18.4869C26.8408 18.3842 26.7186 18.2718 26.5866 18.179C25.8682 17.6902 25.1547 17.2113 24.4314 16.7275C24.1919 16.5711 23.9426 16.4391 23.7032 16.3023C23.6348 16.2339 23.5712 16.1459 23.493 16.0921C22.369 15.3395 21.2449 14.582 20.1208 13.8342C20.028 13.7707 19.9205 13.7316 19.8129 13.6876C19.7494 13.6241 19.6957 13.5459 19.6272 13.5019C17.9167 12.3338 16.1915 11.1511 14.4712 9.98309C14.3637 9.91467 14.2366 9.88046 14.1242 9.8267C15.1798 9.12294 16.2306 8.41429 17.2862 7.71053C18.1366 7.14361 18.9919 6.57669 19.8667 6C19.984 6.0782 20.1013 6.15639 20.2137 6.23458C22.1686 7.5297 24.1186 8.82482 26.0833 10.1199C26.1859 10.1981 26.2983 10.2617 26.4107 10.3203C26.5133 10.3985 26.6111 10.4816 26.7186 10.5549C27.5543 11.112 28.3949 11.6692 29.2306 12.2214C29.3626 12.3045 29.4799 12.3827 29.4799 12.5782C29.4701 13.409 29.4897 14.2301 29.4897 15.0609C29.5141 15.3248 29.5288 15.5936 29.5532 15.8966H30.0126C30.9363 15.8966 31.8502 15.9064 32.7739 15.8869C32.9889 15.8869 33.1453 15.9406 33.2479 16.141C33.3701 16.3658 33.5021 16.576 33.634 16.8008C34.1472 17.5143 34.6555 18.2327 35.1588 18.9463C35.237 19.0293 35.3152 19.1173 35.3934 19.1955C35.5352 19.4203 35.6671 19.6451 35.8039 19.87H35.7991V19.8651Z" fill="url(#paint2_linear_357_1307)"/>
<path d="M19.8227 13.6876C19.3878 13.9759 18.9528 14.2691 18.5129 14.5575C17.9949 14.9045 17.4671 15.2564 16.949 15.6034C16.6314 15.8379 16.3235 16.0676 16.0107 16.3022C15.9716 16.3169 15.9423 16.3413 15.908 16.3658C15.5611 16.5808 15.2043 16.791 14.8524 17.0109C14.3881 17.3383 13.9385 17.6853 13.4595 17.9737C12.8926 18.306 12.5456 18.8191 12.1938 19.3323C12.0862 19.4936 11.9689 19.65 11.8614 19.8113C11.7783 19.953 11.6904 20.0898 11.5975 20.2316C11.2701 20.7105 10.9475 21.1943 10.6298 21.6733C10.6054 21.688 10.581 21.6977 10.5663 21.7222C9.70615 22.9537 8.85577 24.1853 8.00051 25.4169C7.95164 25.4707 7.95164 25.5586 7.93698 25.6271C7.88322 25.6808 7.80502 25.7199 7.76593 25.7834C7.34074 26.3797 6.92044 26.9857 6.50014 27.5917C5.91856 28.4274 5.33208 29.2583 4.75539 30.094C4.48171 30.4899 4.23735 30.8906 3.97832 31.2962C3.2599 30.265 2.53659 29.2338 1.82306 28.2026C1.29524 27.4451 0.777192 26.6827 0.249372 25.9301C0.171176 25.8079 0.0929794 25.6906 0.00012207 25.5489C0.102754 25.4071 0.195609 25.2703 0.288467 25.1286C1.58358 23.2519 2.8787 21.3752 4.17381 19.5034C4.22757 19.4252 4.26667 19.347 4.31554 19.2688C4.47682 19.0537 4.64299 18.8338 4.79449 18.6188C5.36141 17.8124 5.91856 17.0158 6.48547 16.2094C6.56367 15.9552 6.73472 15.8917 6.98886 15.8917C7.91743 15.9064 8.85089 15.9015 9.77946 15.9015C10.0727 15.9015 10.2242 15.75 10.2291 15.4421C10.2389 14.9534 10.2438 14.4597 10.2584 13.971V12.6612C10.2584 12.4511 10.3366 12.3143 10.5321 12.2018C10.8595 12.0259 11.1577 11.8158 11.4753 11.6105C12.0178 11.2537 12.5701 10.8921 13.1126 10.5255C13.1907 10.4571 13.2738 10.3789 13.352 10.3105C13.6062 10.1541 13.8701 9.99282 14.1291 9.83643C14.2464 9.89019 14.3686 9.91951 14.4761 9.99282C16.1964 11.1609 17.9167 12.3436 19.6321 13.5116C19.7005 13.5605 19.7543 13.6338 19.8178 13.6973V13.6876H19.8227Z" fill="url(#paint3_linear_357_1307)"/>
<path d="M24.9054 25.5341C24.4705 26.0717 23.9671 26.4627 23.4881 26.8879V28.9503C23.3268 28.965 23.2193 28.9796 23.1118 28.9796C22.6475 28.9796 22.1832 28.9796 21.7141 28.9894C21.5723 28.9894 21.4453 29.0383 21.3035 29.0578C20.8539 29.483 20.4043 29.9033 19.9693 30.304C19.549 29.9082 19.1043 29.483 18.6547 29.0676C18.508 29.0383 18.3614 28.9894 18.205 28.9894C17.6577 28.9747 17.1054 28.9796 16.514 28.9796C16.4456 28.618 16.4847 28.2759 16.4749 27.9337C16.4749 27.5868 16.4749 27.2349 16.4749 26.8879C16.4456 26.8879 16.4114 26.8879 16.3968 26.8732C15.9471 26.4431 15.5024 26.018 15.0186 25.5537C15.5024 25.0894 15.9471 24.6544 16.387 24.2292C16.4212 24.0826 16.4652 23.9262 16.4749 23.7796C16.4749 23.2518 16.4749 22.724 16.4749 22.1424C17.1885 22.1131 17.8776 22.1424 18.5667 22.1277C19.0505 21.6781 19.5295 21.2285 20.0377 20.7397C20.4727 21.1796 20.9272 21.6537 21.3866 22.1277H23.449C23.4637 22.2646 23.4783 22.3672 23.4783 22.4649C23.4832 22.9146 23.4783 23.3642 23.4832 23.8138C23.4832 23.9555 23.5321 24.0973 23.5614 24.2243C24.0013 24.6495 24.446 25.0845 24.9005 25.5243V25.5341H24.9054Z" fill="#E6DAC8"/>
<defs>
<linearGradient id="paint0_linear_357_1307" x1="6.5685" y1="29.2489" x2="20.4287" y2="42.3418" gradientUnits="userSpaceOnUse">
<stop stop-color="#B04344"/>
<stop offset="1" stop-color="#DE4148"/>
</linearGradient>
<linearGradient id="paint1_linear_357_1307" x1="22.5253" y1="39.2621" x2="36.9573" y2="25.0208" gradientUnits="userSpaceOnUse">
<stop stop-color="#B04344"/>
<stop offset="1" stop-color="#DE4148"/>
</linearGradient>
<linearGradient id="paint2_linear_357_1307" x1="35.1197" y1="22.6166" x2="19.5393" y2="9.80714" gradientUnits="userSpaceOnUse">
<stop stop-color="#B04344"/>
<stop offset="1" stop-color="#DE4148"/>
</linearGradient>
<linearGradient id="paint3_linear_357_1307" x1="15.8934" y1="11.6936" x2="3.27945" y2="26.5068" gradientUnits="userSpaceOnUse">
<stop stop-color="#B04344"/>
<stop offset="1" stop-color="#DE4148"/>
</linearGradient>
</defs>
</svg>
