<svg width="229" height="50" viewBox="0 0 229 50" fill="none" xmlns="http://www.w3.org/2000/svg">
<path d="M83.4324 49.9922L81.8457 49.4275L80.7593 48.8057C84.0614 49.4847 86.4558 47.3333 87.292 44.2814L84.0685 36.2405C83.8827 35.8474 83.3538 35.9118 82.9821 35.9046C82.6962 34.4894 84.4188 35.1399 85.3336 35.0326L88.3212 42.13C88.5357 41.0293 91.2088 35.8474 90.9229 35.1684C90.8371 34.954 90.4512 34.8325 90.4011 34.5752H93.2172C93.2458 34.7825 93.2029 34.9755 93.1458 35.1756C92.4953 37.4056 90.7228 41.0651 89.7221 43.3236C88.7215 45.5822 87.5922 48.7342 85.2622 49.6848L84.3115 49.9993H83.4181L83.4324 49.9922Z" fill="#897852"/>
<path d="M89.0714 7.3011V16.121C89.0714 16.3783 89.4717 17.5076 89.6361 17.7792C90.4652 19.1872 92.7095 19.4874 92.931 17.6005C93.2598 14.813 92.6737 11.4037 92.931 8.54474C92.931 8.38035 92.9025 8.22311 92.7952 8.08731C92.5951 7.8443 92.1949 8.00869 92.1877 7.73709L94.7108 7.29395V17.8936C94.7108 18.1652 93.8602 19.1158 93.5743 19.2802C91.9161 20.2379 90.2508 19.5732 89.0714 18.2652C88.9928 18.6726 88.4925 19.1444 88.1351 19.3302C87.5919 19.609 85.6335 19.8305 85.026 19.709C84.1469 19.5375 83.4965 18.8013 82.846 18.2652C82.6316 18.9657 81.8454 19.4874 81.1235 19.5875C80.4016 19.6876 78.7434 19.7519 78.1002 19.5232C77.3711 19.2659 77.0638 18.6869 76.4705 18.2652C75.8273 19.8948 72.661 20.0449 71.3744 19.2802C69.9664 18.4439 68.8943 14.2698 67.8936 12.6831C67.2504 11.661 66.2069 11.0535 66.4499 12.7903L69.2016 19.6018H60.8177C60.4032 19.6018 59.4811 18.7513 59.3025 18.2938C58.7664 16.8929 59.4597 14.5915 59.0809 13.4693C58.8307 12.7331 57.4084 13.5622 57.7658 12.4186L60.882 12.1828V17.8936C60.882 18.058 61.4681 18.8585 61.6968 18.8585H67.1146C66.6071 16.9501 65.3063 15.1132 64.8203 13.2263C64.2628 11.0821 65.0704 10.689 67.1861 11.0106C69.7091 11.3966 70.3166 18.1795 72.3036 18.7941C73.9689 19.3088 74.6908 18.5726 74.8338 17.0073C74.8981 16.2711 74.9267 12.3901 74.6694 11.9827C74.5193 11.7539 74.1691 11.7182 74.0905 11.4537L76.4634 11.0106V16.1282C76.4634 16.993 77.3711 18.7084 78.3289 18.8656C79.9871 19.1301 81.0306 18.9657 81.2093 17.1645C81.3093 16.1282 81.3522 13.405 81.2164 12.4186C81.1307 11.7682 80.7804 11.9183 80.466 11.4609C80.8376 11.4966 82.989 10.739 82.989 11.2393V16.8715C82.989 17.3432 83.961 18.6512 84.4614 18.8084C84.8473 18.9299 85.9051 18.9299 86.3125 18.8656C87.2131 18.7227 87.3704 17.8007 87.4418 17.0287C87.6205 14.9202 87.6205 10.9749 87.4418 8.86639C87.4204 8.65196 87.4204 8.44468 87.3346 8.23741C87.2203 7.95866 86.7628 8.00869 86.8414 7.60843L89.0643 7.30824L89.0714 7.3011Z" fill="#735D46"/>
<path d="M223.171 7.3011V17.3075C223.171 17.3575 222.957 18.1151 222.907 18.2295C222.121 20.1664 218.683 20.095 217.453 18.5726H217.239C216.424 20.2808 214.201 20.8883 212.45 20.3094C211.807 20.095 210.728 19.0514 210.613 19.03C210.335 18.9728 209.913 19.4874 209.563 19.5732C209.105 19.6804 208.462 19.6018 207.969 19.759L191.365 19.7447C190.722 22.4036 188.563 23.4829 185.933 23.1612C185.855 22.7395 186.048 22.9254 186.255 22.8253C187.999 22.0248 188.971 21.6174 189.564 19.6018C190.05 17.9579 190.122 14.1412 189.936 12.4115C189.914 12.2185 189.886 11.9112 189.75 11.7825C189.586 11.6181 189.178 11.7182 189.192 11.4537C189.936 11.4037 190.772 11.0463 191.494 11.0035C191.801 10.9892 191.687 11.0035 191.715 11.225L191.565 18.8656H193.717C194.203 18.8656 194.503 17.8721 194.539 17.4647C194.589 16.9644 194.582 13.405 194.46 13.2263C194.331 13.0333 193.845 13.1262 193.788 12.7903L196.311 12.4901V15.7493C197.912 13.6837 199.763 10.4888 202.844 11.9612C205.138 13.0619 205.953 16.5284 205.953 18.8585C206.818 18.7584 207.99 19.0086 208.812 18.8299C210.692 18.4082 209.863 13.6194 212.657 12.5902C215.023 11.7182 217.332 13.1477 217.754 15.5921C217.854 16.1782 217.754 16.7428 217.854 17.2717C218.204 19.03 221.134 19.9663 221.384 17.0144C221.62 14.2698 221.199 11.1964 221.384 8.40895C221.356 7.98725 220.898 8.01584 220.641 7.81571C220.777 7.51552 222.735 7.32968 223.164 7.29395L223.171 7.3011ZM204.181 18.8585C204.223 17.1788 203.487 12.3329 201.279 12.1899C199.227 12.0613 196.433 17.0287 196.168 18.8585H204.181ZM213.336 13.1119C212.943 13.2263 212.586 13.9125 212.422 14.2698C212.221 14.6987 211.292 17.7363 211.307 18.0365C211.349 18.7155 212.607 19.5518 213.222 19.6876C217.11 20.5167 216.839 12.0827 213.336 13.1119Z" fill="#735D46"/>
<path d="M138.174 7.30078V16.4209C138.174 16.4924 138.517 17.493 138.589 17.6359C139.368 19.2155 141.755 19.4657 142.019 17.5931C142.084 17.1356 142.127 13.4404 142.012 13.2546C141.948 13.1545 141.326 13.1188 141.297 12.79L143.821 12.4898V16.7139C143.821 16.814 144.106 17.5216 144.185 17.686C145.086 19.6015 147.151 19.4442 147.38 17.1571C147.444 16.5352 147.459 12.9186 147.244 12.5899C147.101 12.3683 146.772 12.4469 146.637 12.2682C146.772 11.968 148.731 11.7822 149.16 11.7465V16.864C149.16 16.9498 149.674 18.029 149.781 18.172C150.589 19.3084 152.397 19.2727 152.576 17.7574C152.648 17.1356 152.655 12.1467 152.497 11.8966C152.397 11.7322 152.011 11.7036 151.976 11.4534L154.349 11.0103V17.9004C154.349 17.9433 153.984 18.5294 153.906 18.6437C152.719 20.2233 149.774 19.916 148.938 18.122C147.895 20.0804 144.871 20.1804 143.599 18.4222C142.148 20.2162 139.611 20.159 138.26 18.2721C138.038 18.7652 136.98 19.6015 136.48 19.6015H130.769C130.634 18.5794 132.106 18.9511 132.106 18.8582V10.0382C132.106 9.81667 131.37 9.77379 131.363 9.52363L133.886 9.08048V18.8653C135.015 18.8653 136.144 19.1583 136.394 17.7432L136.409 8.14417C136.344 7.87257 135.651 8.07985 135.808 7.60097L138.181 7.30078H138.174Z" fill="#735D46"/>
<path d="M112.364 18.8586C111.871 17.1719 110.892 15.6494 110.327 14.0055C109.541 11.7255 109.541 10.5676 112.429 11.0108C115.002 11.411 115.531 18.487 117.789 18.8515C122.557 19.6234 120.134 12.9978 124.494 12.3759C130.09 11.5754 130.547 21.2244 124.172 20.474C122.85 20.3167 121.928 19.0945 121.613 19.0302C121.385 18.9873 120.748 19.4733 120.412 19.5662C115.123 21.0029 115.159 16.257 113.279 12.9835C113.036 12.5546 111.828 10.9107 111.621 12.1258C111.428 13.2265 114.737 19.4733 114.444 19.7521C112.15 19.6234 109.677 19.9236 107.404 19.7521C105.789 19.6306 104.545 19.2803 104.367 17.4506C104.266 16.4643 104.581 14.1985 104.338 13.4766C104.159 12.9406 103.08 13.1336 103.03 13.0835C102.987 13.0478 103.059 12.5046 103.03 12.3402L106.146 12.1901V17.9009C106.146 18.0653 106.732 18.8658 106.961 18.8658H112.379L112.364 18.8586ZM124.479 13.1121C123.958 13.2336 123.665 13.7268 123.457 14.1628C123.279 14.5345 122.285 17.7937 122.299 18.0367C122.342 18.7514 123.686 19.6091 124.336 19.7163C128.067 20.3382 127.839 12.3473 124.479 13.1121Z" fill="#735D46"/>
<path d="M185.49 30.3516C185.405 30.08 184.783 30.1158 184.747 29.837L187.27 29.3867C187.292 29.4868 187.242 29.98 187.27 29.98H191.201C192.202 29.98 193.596 31.7954 193.76 32.7603C194.089 34.6901 192.988 35.5835 191.487 36.3412C191.38 36.3983 190.987 36.4126 191.273 36.6485C191.308 36.6771 191.93 36.7128 192.209 36.8272C195.661 38.2924 194.868 44.1032 191.466 45.2111L185.49 45.3898V30.3445V30.3516ZM187.42 35.9123H189.865C189.922 35.9123 190.729 35.4549 190.815 35.3834C191.923 34.4328 191.866 31.8454 190.486 31.1378C190.401 31.0949 189.757 30.8734 189.715 30.8734H187.413V35.9123H187.42ZM187.42 44.0604H189.572C190.008 44.0604 190.858 43.6244 191.187 43.3027C192.581 41.9662 192.759 38.9714 191.208 37.6849C191.094 37.592 190.229 37.0916 190.165 37.0916H187.42V44.0604Z" fill="#897852"/>
<path d="M151.969 35.4617C152.054 35.5474 151.847 36.2121 152.04 36.348C153.455 34.2681 156.729 34.6111 158.044 36.6481C158.859 34.5825 162.44 34.4253 163.605 36.2121C163.683 36.3265 163.983 36.9626 163.983 37.0198V44.6532H161.31C161.653 44.1744 161.982 44.0386 162.054 43.3953C162.211 42.0945 162.197 38.6208 162.054 37.3128C161.804 35.14 159.416 35.3187 158.559 37.0841C158.416 37.37 158.051 38.3993 158.051 38.6494V44.6532H155.378C155.407 44.253 155.757 44.253 155.928 43.7956C156.25 42.9307 156.243 38.4064 156.121 37.3128C155.893 35.2329 153.698 35.3116 152.733 36.8912C152.583 37.127 152.119 38.4279 152.119 38.6494V44.6532C151.683 44.5675 150.218 44.8748 150.06 44.4102L150.039 36.8769C149.839 35.8047 148.08 37.0127 148.409 35.4617C148.888 35.5546 151.84 35.333 151.969 35.4617Z" fill="#897852"/>
<path d="M221.392 29.3875V38.2789L225.845 33.6116L227.767 33.533C227.924 34.7195 227.353 34.4336 226.724 34.9411C225.494 35.9274 224.565 37.4998 223.307 38.5005L223.193 38.7721L227.353 44.0254C228.053 44.1898 228.696 43.6824 228.511 44.6473H225.916C225.623 44.6473 222.65 40.6233 222.135 40.1229C221.978 39.8942 221.535 40.3802 221.535 40.4231V44.9474H218.268C217.897 43.6037 219.512 44.6115 219.612 43.5465V30.7813C219.655 30.2095 219.083 30.1809 218.862 29.8235L221.385 29.3804L221.392 29.3875Z" fill="#897852"/>
<path d="M185.64 9.96777V17.7513C185.64 17.98 185.118 18.8735 184.889 19.0736C184.396 19.5096 183.517 19.6668 182.874 19.7311C181.344 19.8741 175.591 19.9384 174.411 19.338C172.324 18.2802 173.911 14.9781 173.232 13.4128C173.046 12.984 171.903 13.1412 171.845 13.084C171.802 13.0412 171.874 12.5051 171.845 12.3407L174.962 12.1906V17.4511C174.962 18.0015 175.469 18.7519 176.084 18.852C177.242 19.0307 181.552 19.0164 182.759 18.8663C184.032 18.7091 183.896 17.3225 183.867 16.3433C183.56 16.5934 183.403 16.9651 183.053 17.2296C181.337 18.5161 178.721 17.1724 178.521 15.0853C178.342 13.2413 178.993 11.4473 180.751 10.6325C181.237 10.4109 182.867 9.96777 183.346 9.96777H185.647H185.64ZM183.86 10.7111C180.708 10.0321 178.821 15.3569 181.194 16.8579C182.388 17.6155 183.86 16.0145 183.86 14.9352V10.7111Z" fill="#735D46"/>
<path d="M75.2768 30.2734V43.6891C75.2768 44.0322 76.7277 44.0822 76.9921 44.068C79.9083 43.8678 80.8089 39.9725 79.8082 37.6853C79.0935 36.0485 77.614 36.0057 76.0272 36.0557C75.7485 35.2194 76.5847 35.1122 77.3066 35.0336C79.9798 34.7477 81.7666 36.2844 81.9667 38.9432C82.3741 44.3253 77.9928 45.9263 73.4184 44.5182L73.3613 31.5314C73.3613 31.367 73.3327 31.2097 73.2255 31.0739C73.0253 30.8309 72.6251 30.9953 72.6179 30.7237L75.2839 30.2806L75.2768 30.2734Z" fill="#897852"/>
<path d="M201.658 43.4679C201.929 44.4256 200.836 44.5829 200.1 44.6544C194.575 45.169 193.996 36.9423 198.506 35.0554C200.407 34.2549 202.237 34.6623 204.174 35.0268L204.188 43.2463C204.381 44.2756 206.054 43.1391 205.668 44.8045H202.48C202.48 44.8045 202.258 44.5972 202.258 44.5829V35.9846C202.258 35.4485 200.171 35.6129 199.778 35.7272C197.126 36.5063 196.519 41.6167 198.706 43.0891C198.806 43.1606 199.328 43.4679 199.364 43.4679H201.665H201.658Z" fill="#897852"/>
<path d="M143.513 43.4679C143.785 44.4256 142.691 44.5829 141.955 44.6544C136.352 45.1761 135.837 36.5778 140.697 34.9482C142.556 34.3263 144.171 34.6837 146.029 35.0268L146.044 43.2463C146.237 44.247 147.973 43.2749 147.523 44.8045H144.335C144.335 44.8045 144.114 44.5972 144.114 44.5829V35.763C140.397 34.6337 138.475 38.3432 139.468 41.5166C139.654 42.117 140.576 43.475 141.219 43.475H143.521L143.513 43.4679Z" fill="#897852"/>
<path d="M163.683 7.3011V17.6077C163.683 18.2509 162.654 19.609 161.975 19.609H156.114C156.371 18.8227 156.843 18.7941 157.601 18.8656V10.1958C157.458 9.50251 156.822 9.93134 156.857 9.37385L159.38 9.07366V18.8585C160.488 18.8942 161.618 19.08 161.868 17.7149C162.347 15.0918 161.582 11.3037 161.911 8.5519C162.003 7.93007 161.232 8.08016 161.31 7.59414L163.683 7.29395V7.3011Z" fill="#735D46"/>
<path d="M99.3071 43.467C99.5572 44.389 98.6066 44.5534 97.8847 44.6392C92.3526 45.261 91.6593 36.9986 96.1979 35.0974C98.1349 34.2826 99.8431 34.6542 101.823 35.0259L101.837 43.2454C102.03 44.2461 103.767 43.274 103.317 44.8036H100.05V35.9836C96.4267 34.3112 94.5469 37.9992 95.2187 41.2584C95.376 42.0161 96.3051 43.4741 97.1557 43.4741H99.3071V43.467Z" fill="#897852"/>
<path d="M107.319 35.0185V37.0913C108.712 35.7761 109.799 34.5897 111.929 35.0828C112.786 35.283 113.451 36.1621 113.551 37.0198C113.708 38.3349 113.251 43.4382 113.708 44.1315C113.88 44.3888 114.252 44.2601 114.137 44.6604L111.914 44.9606V37.177C111.914 36.3051 110.707 35.9405 109.949 36.0978C109.492 36.1907 107.319 38.1848 107.319 38.3635V44.9606H105.539C105.325 42.3303 105.367 39.6715 105.382 37.0269C105.382 36.3694 105.846 35.7333 104.796 35.626C104.824 35.4045 105.003 35.3902 105.182 35.3473C105.825 35.19 106.647 35.1043 107.319 35.04V35.0185Z" fill="#897852"/>
<path d="M209.52 35.0181V37.0908C210.907 35.7543 212.136 34.5321 214.273 35.0824C214.988 35.2683 215.638 36.1617 215.738 36.8764C215.974 38.5775 215.931 40.9076 215.91 42.6515C215.91 43.1519 215.588 43.595 215.895 44.1025C216.017 44.3026 216.453 44.2811 216.346 44.6457L214.123 44.9459V37.1623C214.123 36.2903 212.915 35.9258 212.157 36.0831C211.657 36.1831 209.527 38.1344 209.527 38.4917V44.9387H207.747V36.1188C207.747 35.84 207.283 35.5756 207.004 35.597C206.968 35.5542 207.09 35.4041 207.147 35.3755C207.612 35.1539 208.948 35.1182 209.52 35.0038V35.0181Z" fill="#897852"/>
<path d="M131.348 35.4621V37.6849C131.348 37.6849 130.87 37.8421 130.755 37.7707C130.548 37.642 130.262 36.6771 129.948 36.3412C128.783 35.1047 125.659 35.6836 126.224 37.835C126.703 39.629 131.491 39.7577 131.792 42.2021C132.256 45.9831 126.774 46.1189 124.308 45.1111C124.187 45.0253 124.172 42.7167 124.244 42.5952C124.28 42.5451 124.751 42.3879 124.809 42.4237C124.873 42.4665 125.216 43.4243 125.48 43.7602C125.838 44.2176 126.452 44.7537 127.031 44.8752C128.704 45.2254 130.326 44.8109 129.998 42.8025C129.669 40.794 124.194 40.8226 124.53 37.6206C124.823 34.8188 129.354 34.8402 131.341 35.4549L131.348 35.4621Z" fill="#897852"/>
<path d="M61.3326 29.3875V43.2464C61.3326 43.2892 61.6971 43.9111 61.7829 43.9825C62.7264 44.8116 65.6854 44.0612 66.8647 44.3542C66.9719 44.3828 67.3007 44.9188 67.265 45.0975H61.7043C61.0467 45.0975 59.5743 44.2327 59.4314 43.5037C59.3528 43.0891 59.5529 42.7603 59.5601 42.3601C59.6172 38.5005 59.4957 34.6409 59.5601 30.7813C59.5886 30.2595 59.1169 30.1952 58.8096 29.895L61.3326 29.3804V29.3875Z" fill="#897852"/>
<path d="M122.15 30.2734V45.2473H120.22V31.2383C120.22 31.0168 119.484 30.9739 119.477 30.7237L122.143 30.2806L122.15 30.2734Z" fill="#897852"/>
<path d="M178.935 43.3528C178.935 43.3528 179.235 43.8388 179.243 43.8746C179.335 44.4678 176.605 45.1039 176.069 45.1039C168.822 45.1039 169.772 33.7753 177.37 35.0618C178.957 35.3262 179.507 36.091 177.977 37.0917C176.734 36.2554 176.191 35.2691 174.611 36.234C171.595 38.0852 172.881 44.2963 176.812 43.9174C177.356 43.8674 178.642 43.1813 178.935 43.3528Z" fill="#897852"/>
<path d="M135.651 29.5361V45.2533H134.021V30.6511C134.021 30.3581 133.385 30.0936 133.278 29.8363L135.651 29.5361Z" fill="#897852"/>
<path d="M227.324 7.30078V19.6086H225.694V8.41578C225.694 7.97264 225.051 8.04411 224.951 7.75106L227.324 7.30792V7.30078Z" fill="#735D46"/>
<path d="M167.836 7.30078V19.6086H166.207V8.26568C166.207 8.04411 165.463 8.00122 165.463 7.75106L167.836 7.30792V7.30078Z" fill="#735D46"/>
<path d="M98.8627 7.30078V19.6086H97.2331V8.26568C97.2331 8.04411 96.4897 8.00122 96.4897 7.75106L98.8627 7.30792V7.30078Z" fill="#735D46"/>
<path d="M70.231 35.0181V43.838C70.231 43.9523 70.6741 44.1096 70.8171 44.1453C71.5246 44.3312 71.6604 43.9166 71.5675 44.953H68.4513V35.983C68.4513 35.79 67.5364 35.5613 68.001 35.3897C68.5728 35.1825 69.5948 35.1682 70.231 35.0252V35.0181Z" fill="#897852"/>
<path d="M169.172 35.0181V43.838C169.172 44.1882 170.459 44.1596 170.509 44.2096C170.752 44.4598 170.38 44.9458 169.987 44.9458H167.392V35.9758C167.392 35.6828 166.663 35.7042 166.649 35.4612L169.172 35.0181Z" fill="#897852"/>
<path d="M156.739 23.2985C156.603 22.4551 156.932 22.7339 157.633 22.7053C155.824 21.4116 157.99 18.8957 159.405 20.1179C160.82 21.3401 157.761 22.1407 158.819 20.4825C157.44 20.2823 157.911 22.3551 158.812 22.641C159.527 22.8625 160.199 22.3265 160.006 23.2985H156.739Z" fill="#735D46"/>
<path d="M167.793 30.7523C169.458 30.252 169.894 32.4677 168.586 32.8823C167.042 33.3683 166.642 31.0954 167.793 30.7523Z" fill="#897852"/>
<path d="M68.4941 31.0593C69.509 30.0372 71.0886 31.5525 70.1523 32.646C69.2159 33.7396 67.4077 32.1457 68.4941 31.0593Z" fill="#897852"/>
<path d="M183.961 6.30015C185.211 7.85114 182.074 8.95899 182.217 6.92913C182.288 5.94278 183.417 5.62829 183.961 6.30015Z" fill="#735D46"/>
<path d="M81.9093 21.4098C83.3602 21.1096 83.5461 23.3682 82.1595 23.4539C80.9587 23.5326 80.6299 21.6742 81.9093 21.4098Z" fill="#735D46"/>
<path d="M108.019 21.4104C109.405 20.9887 109.92 23.1687 108.512 23.3974C107.24 23.5975 106.882 21.7607 108.019 21.4104Z" fill="#735D46"/>
<path d="M62.776 21.4101C64.134 21.0027 64.7415 23.154 63.2692 23.397C61.954 23.6115 61.7182 21.7317 62.776 21.4101Z" fill="#735D46"/>
<path d="M79.0934 21.4092C80.6016 21.1018 80.7231 23.2318 79.4723 23.4319C78.2215 23.632 77.907 21.6522 79.0934 21.4092Z" fill="#735D46"/>
<path d="M111.879 23.1191C111.071 23.8839 109.42 22.776 110.364 21.6825C111.307 20.5889 112.829 22.2185 111.879 23.1191Z" fill="#735D46"/>
<path d="M66.6355 23.1194C65.6992 24.0057 64.1625 22.4904 65.1917 21.6041C66.2209 20.7179 67.5503 22.2474 66.6355 23.1194Z" fill="#735D46"/>
<path d="M74.6405 21.2677C76.5131 20.7173 76.5131 23.6835 74.6405 23.1331C73.8757 22.9116 73.8757 21.4964 74.6405 21.2677Z" fill="#735D46"/>
<path d="M6.20396 0.0357393L43.2419 0C46.6726 0.393108 49.3886 3.14486 49.7031 6.58992V42.9202C49.4172 47.0229 46.2295 49.7031 42.2055 49.8032C30.8697 49.3529 19.0622 50.4107 7.78354 49.8103C3.55941 49.5888 0.628973 47.5518 0 43.2133V6.44697C0.393108 3.13771 2.909 0.521764 6.20396 0.0357393ZM24.3084 3.7381C13.623 3.94538 6.54704 14.6808 10.278 24.6443C10.4138 25.0017 11.0356 26.7528 11.4787 26.6742C12.0505 26.5669 14.0947 24.0296 14.8166 23.6294C11.4216 17.6112 15.5957 9.82055 22.1284 8.40536C29.9477 6.71143 36.8449 13.3371 35.3869 21.2135C34.422 26.4597 29.6546 28.9828 26.424 32.728L26.5455 33.1497L29.4259 35.8729C32.8138 32.1848 37.2809 29.2973 39.0177 24.3941C42.62 14.2377 35.1153 3.53797 24.3012 3.74524L24.3084 3.7381ZM28.8899 11.879L8.90568 31.7917C2.5159 40.1184 12.8511 50.3393 21.2922 44.0209C21.6352 43.7636 23.565 42.0411 23.6722 41.8052C23.8081 41.5051 21.2278 38.9892 20.849 38.5675C20.0699 38.9963 19.5839 39.7754 18.9121 40.3186C14.1019 44.2282 8.88424 38.6747 12.6867 34.0932L31.8274 14.9667C31.9704 14.7594 31.8989 14.595 31.8274 14.3877C31.6059 13.7802 29.5474 11.7146 28.897 11.879H28.8899ZM29.4831 20.6203C29.2901 20.6703 26.7027 23.2934 26.7027 23.4936C27.4961 24.6157 28.6611 25.5091 29.5975 26.5312C29.9119 26.038 32.6708 23.7652 32.628 23.515C32.5922 23.322 30.1478 20.9062 29.9048 20.7418C29.7547 20.6417 29.6904 20.5631 29.4831 20.6203ZM38.3745 29.3616C37.9671 29.8262 35.4583 32.0347 35.4583 32.3921C35.4583 32.6708 36.7663 33.6429 37.0879 34.0289C41.0262 38.689 34.9151 44.0138 30.641 40.0255L20.22 29.6689L19.7983 29.7904C19.4481 30.3765 17.0537 32.0347 17.0537 32.5422L17.2753 32.921C23.0647 37.5239 29.7404 49.8461 38.5532 44.5427C44.4498 40.9904 43.8422 32.9639 38.3602 29.3687L38.3745 29.3616Z" fill="#735D46"/>
</svg>
