<svg width="168" height="51" viewBox="0 0 168 51" fill="none" xmlns="http://www.w3.org/2000/svg">
<path d="M112.949 22.3962H117.695C117.555 21.5002 117.516 20.7396 117.989 19.9338C119.101 18.0387 121.848 18.0194 122.972 19.9145C124.403 22.3253 121.956 25.1873 119.356 24.1044C119.139 24.0142 118.404 23.4662 118.34 23.4662H96.9655V24.4267C96.9655 24.5878 96.8058 25.1422 96.7419 25.3227C96.448 26.1413 95.7134 26.9535 94.7871 26.8891C95.1896 26.4636 95.4834 25.9351 95.624 25.3614C95.6623 25.2131 95.7581 24.8199 95.7581 24.691V18.9798H94.9149V18.5351H97.8471V18.9412H97.0038V22.3898H103.175V18.9863H102.555V18.5415H104.555V22.3253L104.619 22.3898H111.518C111.518 22.0223 111.518 21.6549 111.518 21.2875C111.518 20.9587 111.595 20.8621 111.467 20.4946C110.79 18.5479 107.8 19.4633 106.26 19.2506C105.986 19.2764 105.564 19.4697 105.334 19.618C105.225 19.6889 105.168 19.8243 105.04 19.8371V18.9605C105.353 18.6898 105.711 18.5286 106.126 18.4899C107.257 18.3932 108.924 18.4384 110.081 18.4899C111.045 18.5286 111.888 18.6704 112.47 19.5277C112.674 19.8243 112.936 20.4882 112.936 20.8492V22.3962H112.949ZM120.397 19.676C119.062 19.7276 118.283 21.3777 119.12 22.4671C120.263 23.9561 122.55 22.8216 122.173 21.049C122.007 20.2819 121.183 19.6502 120.404 19.6824L120.397 19.676Z" fill="#002244"/>
<path d="M40.2231 18.4447V18.846H39.6135L40.0157 19.3461C40.0849 19.4566 40.2294 19.7649 40.2294 19.8753V21.934L40.2923 21.9922H46.0365C45.3138 19.8753 47.3123 17.9621 49.6251 18.6076C50.5678 18.8693 51.3471 19.7183 51.5231 20.6081C51.6236 21.0966 51.5419 21.5095 51.4477 21.9922H60.7491L60.881 22.9633H50.8129C50.7626 22.9633 50.1404 23.4111 49.977 23.4809C49.1852 23.8357 48.1796 23.824 47.4003 23.4518C47.2557 23.3821 46.6713 22.9575 46.621 22.9575H40.2671C40.286 23.5856 40.4871 24.1846 40.7008 24.7778C39.4941 24.5742 38.8593 23.2483 38.7776 22.2132C38.6771 20.9047 39.3244 19.6078 37.5521 19.224C36.8419 19.067 34.9377 19.0437 34.2338 19.1833C33.7373 19.2822 33.3288 19.5148 32.9454 19.8114L32.2729 20.4569C32.2792 19.5439 33.0962 18.7181 34.0264 18.5029C34.0892 18.4913 34.3155 18.4331 34.3469 18.4331H40.2231V18.4447ZM48.6887 19.5497C46.6335 19.5962 46.445 22.469 48.5567 22.6784C50.9072 22.9168 51.0077 19.4915 48.6887 19.5497Z" fill="#002244"/>
<path d="M24.4976 18.9133H23.828V22.3477H34.5224C34.5159 22.1166 34.4129 21.879 34.3936 21.6479C34.297 20.3384 35.6362 19.369 36.808 20.088C37.6515 20.6016 37.6322 21.481 37.4261 22.3477H38.4756C38.5207 22.3733 38.5336 22.4119 38.54 22.4568C38.5915 22.7521 38.6044 23.118 38.6302 23.4133H23.8215C23.9503 25.2108 22.9717 26.7257 21.0916 26.8927C21.0337 26.8413 21.4393 26.4882 21.4908 26.424C22.9008 24.6972 22.0703 21.7699 22.302 19.69C22.0252 18.4318 20.7504 18.8362 20.2353 19.7285C19.4369 21.1087 20.1387 22.8741 21.8513 22.8356V23.3298C20.8534 23.3042 19.791 23.6251 19.0828 22.72C17.9045 21.2114 18.5548 18.6244 20.6152 18.4639C21.8256 18.3676 23.1519 18.5345 24.3753 18.4639L24.4783 18.5345V18.9068L24.4976 18.9133ZM35.8938 20.7492C35.134 20.8519 35.0825 22.2321 35.8423 22.3413C37.0076 22.5146 36.8596 20.6144 35.8938 20.7492Z" fill="#002244"/>
<path d="M92.6678 17.375V17.779H92.0095V22.6622H78.2668C77.2856 22.6622 76.1652 21.9362 75.8487 21.0755C75.1777 19.2428 77.159 18.1069 78.9061 18.1889L78.1212 18.6631C76.9375 19.3365 76.9311 20.9759 78.2162 21.5322C78.3681 21.5966 78.7795 21.7312 78.9251 21.7312H90.4902L90.5535 21.6727V18.4172C90.5535 18.4172 90.4269 18.1537 90.3953 18.1127C90.0661 17.6736 89.2052 17.7732 88.7811 18.0366C87.9898 18.5226 87.9708 19.6351 88.7115 20.1621C89.1166 20.449 89.6293 20.4665 90.1104 20.5544V20.9994H88.5975C86.0465 20.9994 86.2997 17.3809 88.6862 17.3809H92.6678V17.375Z" fill="#002244"/>
<path d="M16.9561 37.0419C16.9968 37.0419 17.1832 36.9755 17.2007 36.9489C17.6434 34.4257 17.9638 31.8626 18.3191 29.3194L18.4706 29.0272C18.5346 28.9808 18.7327 29.2198 18.7618 29.2995L21.5694 35.3752L24.2955 29.346L24.5693 29.0073L24.744 29.3194C25.0411 31.2915 25.2741 33.2769 25.5712 35.2557C25.6236 35.601 25.7284 36.7365 25.9265 36.929C26.1653 37.1614 26.6721 36.8759 26.975 37.0485V37.4138H24.3479V37.0751L24.5052 36.9954C24.5227 36.9689 24.5169 36.8029 24.5052 36.7497C24.412 35.4549 24.1674 33.8546 23.9751 32.5598C23.9577 32.4403 23.9169 32.0153 23.8412 31.9755L21.2898 37.4204L21.086 37.2345L18.657 32.1149L18.5987 32.2743C18.5288 33.6621 18.1036 35.2491 18.0686 36.6103C18.0686 36.8361 18.1444 37.0485 18.3774 37.0485H18.9657L18.9249 37.4469L16.4726 37.4669L16.3794 37.3938V37.0552C16.56 37.0353 16.7813 37.0817 16.9619 37.0552L16.9561 37.0419Z" fill="#002244"/>
<path d="M32.5949 30.0645V30.4708H31.6177V33.1737H36.012V30.4708H34.9007V30.0645H38.3625V30.4708H37.43V37.0602H38.6308V37.4312H35.0348V37.0602H36.012V33.8097C36.012 33.8097 35.8715 33.7096 35.8587 33.7096H31.6879L31.624 33.7684V37.0602H32.8248V37.4666H29.2736V37.0602H29.9634C29.9634 37.0602 30.04 37.0072 30.072 37.0014C30.1039 36.9837 30.1039 36.9484 30.1167 36.9189C30.1742 36.7599 30.1997 36.224 30.2061 36.0238C30.2891 34.2749 30.1614 32.5024 30.2061 30.7475C30.1358 30.3177 29.4652 30.5473 29.1394 30.459L29.0947 30.0703H32.6013L32.5949 30.0645Z" fill="#002244"/>
<path d="M67.2381 16.3179V16.6803L66.9285 16.7505V22.4331L67.2318 22.5032V22.9066H62.3216C62.3343 23.5556 62.5554 24.1694 62.7577 24.7774C61.5633 24.4793 60.9124 23.2749 60.8239 22.1992C60.6849 20.4687 61.4685 19.1884 58.9155 19.0481C58.3277 19.013 57.4304 19.0072 56.849 19.0481C55.8758 19.1182 55.0732 19.6853 54.5234 20.3927C54.5234 19.3404 55.503 18.4401 56.6341 18.3641H62.2016L62.2647 18.4284V18.7675C62.1763 18.7792 61.6518 18.7265 61.6581 18.8259C61.8729 19.0072 62.0625 19.2469 62.1636 19.4982C62.1826 19.545 62.2774 19.8256 62.2774 19.8432V21.9361H65.5256V16.733L65.2222 16.6862V16.3237H67.2381V16.3179Z" fill="#002244"/>
<path d="M6.57967 22.6622C5.78874 22.6041 5.00414 22.2609 4.59918 21.6096C4.02972 20.6848 4.37773 19.6031 4.26383 18.6028C4.19423 18.0038 3.83357 17.7653 3.18817 17.806C1.65693 17.9165 1.39118 19.8881 2.8022 20.3824C3.13122 20.4987 3.44126 20.4929 3.77662 20.5569V21.0338C3.1502 20.9466 2.46051 21.0512 1.84043 20.9407C0.492685 20.7081 0.151005 19.1669 0.815384 18.1957C1.24565 17.5734 1.9037 17.428 2.66299 17.3931C3.87786 17.3349 5.156 17.4396 6.37719 17.3931V17.8002C6.18737 17.8293 5.76976 17.7013 5.71914 17.9398C5.75078 18.6842 5.67485 19.4635 5.71914 20.2021C5.75078 20.7314 5.80772 21.3537 6.41516 21.5863C6.54803 21.6386 6.89604 21.7143 7.02259 21.7143H10.3635L10.4267 21.6561V18.6028H10.1167V18.2015H12.1415V18.6086H11.8314V22.5924L11.7682 22.6506H6.57967V22.6622Z" fill="#002244"/>
<path d="M43.9048 29.0291C46.999 28.8072 49.485 30.2821 49.2043 33.5713C49.0172 35.8425 46.999 37.3239 44.7736 37.4544C38.2311 37.833 38.0707 29.4467 43.9048 29.0291ZM43.7645 29.525C40.1156 29.8905 40.53 36.6191 44.5397 36.9062C47.2463 37.102 47.948 34.3936 47.4668 32.2791C47.0792 30.5627 45.6089 29.3423 43.7645 29.525Z" fill="#002244"/>
<path d="M118.561 29.0409V29.5036H117.579V32.7628C118.205 32.2665 118.81 31.6898 119.355 31.1064C119.483 30.9655 120.728 29.6042 120.613 29.4969L120.337 29.4432V29.0274H123.325V29.4902H122.228C122.073 29.4902 121.259 30.201 121.084 30.3486L118.656 32.6287C118.804 32.7494 118.904 32.9103 119.026 33.0511C119.981 34.1174 121.468 35.6129 122.558 36.5182C123.19 37.048 123.506 37.0614 124.267 37.2425C124.307 37.2492 124.455 37.3028 124.455 37.3565C124.327 37.3967 124.246 37.4437 124.105 37.4504C123.614 37.4906 122.591 37.4504 122.093 37.4034C121.905 37.3833 121.656 37.2961 121.495 37.209C120.97 36.9407 119.597 35.4586 119.126 34.9557C118.602 34.3991 118.151 33.7687 117.586 33.2523V36.934H118.709V37.3967H115.11V36.9742H116.092V29.4701H114.996C114.868 29.356 114.942 29.1549 114.928 29.0073H118.575L118.561 29.0409Z" fill="#002244"/>
<path d="M59.8218 29.5277V29.0603C60.8128 29.0937 61.7969 28.9802 62.7879 29.0135C64.0839 29.0536 66.059 29.1538 66.4471 30.6362C66.7798 31.9116 65.8511 32.8264 64.9363 33.5809C65.463 34.2019 65.9828 34.8229 66.5372 35.4172C67.0223 35.9314 67.8609 36.8996 68.5262 37.12C68.8242 37.2201 69.1291 37.1734 69.3578 37.3403C69.1222 37.574 68.7479 37.4138 68.4707 37.4071C67.9718 37.4004 67.4312 37.4538 66.9461 37.3403C65.8858 37.0999 64.6868 34.9364 63.9176 34.1819C63.8552 34.1285 63.7235 34.0483 63.6403 34.035C63.4671 34.0016 62.8087 33.9549 62.6632 34.0016C62.3097 34.1084 62.5176 34.7962 62.5246 35.07C62.5315 35.4372 62.4483 36.6859 62.6147 36.9196C62.6355 36.9464 62.7186 36.9998 62.7394 36.9998H63.8205C63.7997 37.1534 63.8829 37.3537 63.7512 37.4605H59.9742V36.9998H60.7712C60.7712 36.9998 60.8752 36.9464 60.889 36.9263C61.0692 36.5991 60.9306 36.2118 61.0346 35.8646V29.5277H59.8287H59.8218ZM62.5315 29.7214C62.386 29.8616 62.5176 32.8264 62.483 33.2537C62.5384 33.4273 62.9542 33.454 63.1275 33.4741C63.8552 33.5542 64.4651 33.4741 64.8254 32.7863C65.3244 31.8248 65.1234 30.2622 64.0076 29.7948C63.7096 29.6679 62.781 29.501 62.5384 29.7214H62.5315Z" fill="#002244"/>
<path d="M105.238 36.9278L105.319 29.2641L105.4 29.0073L105.684 29.1653L111.213 35.2753L111.155 29.5077H110.067V29.0929H112.8V29.5077H111.914V37.1254C111.914 37.1254 111.833 37.3492 111.815 37.3756C111.694 37.5533 111.549 37.4348 111.416 37.3295C109.743 35.4991 108.006 33.728 106.367 31.8648C106.246 31.7265 106.153 31.4697 105.968 31.4302V36.9213H107.097V37.3361H104.323V36.9213H105.25L105.238 36.9278Z" fill="#002244"/>
<path d="M87.3701 29.5236V29.0555C88.1575 29.0823 88.9448 28.9954 89.7321 29.0087C90.6846 29.0221 92.0942 29.0087 92.6275 29.9983C93.0529 30.7806 92.799 31.5295 92.291 32.1713C92.2212 32.2583 91.7767 32.6528 91.8275 32.7263C93.1418 33.2345 94.2149 34.5784 93.4974 36.0895C93.1672 36.7916 92.1005 37.4669 91.364 37.4669H87.3701V37.0055H88.4305V29.5236H87.3701ZM89.9607 29.5771C89.8528 29.6105 89.8083 29.7643 89.7956 29.8713C89.7385 30.4129 89.7512 31.6364 89.7956 32.1981C89.802 32.3118 89.8337 32.5658 89.929 32.6126C90.0115 32.6594 90.6147 32.6461 90.7417 32.6327C91.9862 32.4589 91.9227 30.3594 90.9132 29.7643C90.6782 29.6239 90.2211 29.4968 89.9607 29.5771ZM89.8401 33.1475V36.4238C89.8401 36.6913 90.2845 36.8919 90.4941 36.9453C91.5481 37.2061 92.4053 36.6378 92.3608 35.4476C92.31 34.0368 91.237 32.8533 89.8464 33.1475H89.8401Z" fill="#002244"/>
<path d="M9.52181 30.0645C9.50132 30.1977 9.58327 30.3714 9.45352 30.4641H8.53159C8.44964 30.6379 8.53159 30.7711 8.53159 30.9275C8.55891 32.1959 8.42916 33.586 8.53159 34.837C8.65452 36.3719 9.90424 37.3218 11.7344 36.8642C13.4007 36.4472 13.189 35.283 13.23 34.1072C13.2642 33.0821 13.4212 31.5993 13.2846 30.6031C13.2778 30.5452 13.2846 30.4989 13.2095 30.4641H12.1647C12.0349 30.3656 12.11 30.1919 12.0964 30.0645H15.3197V30.4641H14.3227C14.268 31.7036 14.3978 32.9894 14.3227 34.2289C14.1997 36.2734 13.2505 37.4666 10.6896 37.4666C5.92287 37.4666 7.15894 33.9914 7.02236 31.1707C7.0087 30.9448 6.93358 30.7074 6.97456 30.4699H5.86141C5.73166 30.3714 5.80678 30.1977 5.79312 30.0702H9.5423L9.52181 30.0645Z" fill="#002244"/>
<path d="M53.6163 30.0703C53.5981 30.204 53.6709 30.3785 53.5556 30.4716H52.694C52.7243 31.6057 52.6515 32.7515 52.694 33.8915C52.7365 35.0314 52.7547 36.4855 54.1381 36.9101C54.9512 37.1602 56.1465 36.9217 56.6076 36.183C57.0688 35.4444 56.8382 34.6941 56.9535 33.9264C56.8564 32.8795 57.0809 31.629 56.9535 30.6112C56.9474 30.553 56.9535 30.5065 56.8867 30.4716H55.9584C55.8431 30.3727 55.9098 30.1982 55.8977 30.0703H58.7616V30.4716H57.8758C57.8333 31.6813 57.9304 32.926 57.8758 34.1299C57.7908 36.1191 57.1173 37.3986 54.8601 37.4626C52.4028 37.5324 51.4501 36.689 51.3409 34.3277C51.2802 33.0539 51.3834 31.7453 51.3409 30.4658H50.2852V30.0645H53.6163V30.0703Z" fill="#002244"/>
<path d="M103.25 37.0051V37.4669H100.089V36.9984C100.089 36.9984 100.366 37.0519 100.36 36.8913C100.083 36.2689 99.8781 35.5394 99.5811 34.937C99.5019 34.7831 99.4822 34.6626 99.2842 34.6292C98.5582 34.6827 97.7069 34.5489 96.9942 34.6292C96.8952 34.6426 96.816 34.676 96.7302 34.7229C96.4927 35.2917 96.1693 35.9075 95.9911 36.4964C95.9515 36.6303 95.8459 36.9114 95.9449 37.0051H96.75L96.7038 37.4468L93.8331 37.4669L93.7275 37.3933V37.0051H94.6185C94.856 37.0051 95.0474 36.5098 95.1398 36.3224C96.1825 34.1674 96.9348 31.7647 97.9841 29.623C98.0897 29.4022 98.1953 29.1613 98.3867 29.0073C98.6242 29.1144 98.7166 29.362 98.8222 29.5762C99.9111 31.8249 100.716 34.2879 101.818 36.5366C101.937 36.7374 102.003 36.8712 102.241 36.9448C102.267 36.9515 102.538 37.0051 102.551 37.0051H103.264H103.25ZM96.9678 34.0737H99.2116L98.1359 31.236L98.0171 31.3498L96.9678 34.0737Z" fill="#002244"/>
<path d="M74.4932 36.9862C74.645 36.9595 74.8166 36.7793 74.876 36.6324C75.9913 34.3626 76.77 31.779 77.8985 29.5292C77.9908 29.3422 78.0964 29.1486 78.2548 29.0084C78.3802 28.9817 78.6244 29.4424 78.6772 29.5492C79.7991 31.779 80.5712 34.3158 81.6997 36.5589C81.8053 36.7258 81.8911 36.846 82.0824 36.9128C82.122 36.9261 82.3992 36.9929 82.419 36.9929H83.1317V37.4135H79.9706V36.9996L80.2478 36.9528L79.3701 34.7564C79.3041 34.663 79.1853 34.6496 79.0797 34.6363C78.5518 34.5829 77.4629 34.5895 76.9218 34.6363C76.8294 34.6429 76.704 34.6563 76.6248 34.7097C76.539 34.7698 75.9517 36.2585 75.8857 36.4722C75.8329 36.6524 75.7669 36.806 75.7933 37.0062H76.6182C76.5984 37.1598 76.6776 37.3601 76.5522 37.4669H73.5957V37.0062C73.8663 36.9729 74.2358 37.053 74.4866 37.0062L74.4932 36.9862ZM76.8558 34.0621H79.0995L78.0238 31.2315L77.9051 31.345L76.8558 34.0621Z" fill="#002244"/>
<path d="M4.71068 30.0645V30.4994H3.68627C3.69297 31.0605 3.67288 31.6279 3.68627 32.189C3.71306 33.7083 3.81349 35.2655 3.73984 36.7911C3.6461 38.6004 3.2042 39.2813 1.59729 40.2017C1.35625 40.3404 0.579576 40.9014 0.48584 40.4917C1.09513 40.3656 1.71111 39.7604 1.95215 39.2182C2.21327 38.6256 2.23336 37.7808 2.26014 37.1378C2.34049 34.9313 2.19988 32.7059 2.26014 30.4994H1.04826V30.0645H4.72407H4.71068Z" fill="#002244"/>
<path d="M73.2314 30.0703V30.4767H72.1466V37.0014L72.2209 37.0602H73.5881C73.5658 37.1957 73.6549 37.3723 73.5138 37.4666H69.4643V37.0602H70.4971V30.4708H69.442C69.3008 30.3707 69.3825 30.194 69.3677 30.0645H73.2388L73.2314 30.0703Z" fill="#002244"/>
<path d="M16.374 18.4331V18.8431H15.7242C15.6774 20.4048 15.7886 22.0121 15.7242 23.5674C15.6891 24.4849 15.5779 25.2463 15.0276 25.9621C14.5534 26.5738 13.9212 26.8666 13.2012 26.8927C13.4822 26.5543 13.7807 26.2484 13.968 25.8255C14.1027 25.5196 14.3427 24.7062 14.3427 24.3873V18.8951H13.6929V18.4461H16.3798L16.374 18.4331Z" fill="#002244"/>
<path d="M71.4765 16.3179L71.47 16.6694L71.158 16.7318V22.243L71.47 22.311L71.4765 22.6625H69.3574V22.311L69.7149 22.243V16.7091L69.3639 16.6637L69.3574 16.3179H71.4765Z" fill="#002244"/>
<path d="M123.395 25.835H99.0254V26.8924H123.395V25.835Z" fill="#002244"/>
<path d="M92.6678 25.835H75.7148V26.8924H92.6678V25.835Z" fill="#002244"/>
<path d="M55.5833 25.835H41.8091V26.8924H55.5833V25.835Z" fill="#002244"/>
<path d="M37.5707 25.835H24.856V26.8924H37.5707V25.835Z" fill="#002244"/>
<path d="M36.4476 16.4967C35.6542 16.3753 35.1769 15.5185 35.6232 14.7292C36.1811 13.7443 37.6191 14.2435 37.5695 15.3904C37.5385 16.092 36.553 16.8138 36.1873 17.367C36.1129 17.4277 35.8773 17.1444 35.8897 17.0904L36.4476 16.4967ZM36.3918 14.5403C35.3009 14.7292 35.772 16.6182 36.8443 16.065C37.6005 15.6737 37.21 14.3987 36.3918 14.5403Z" fill="#002244"/>
<path d="M83.4408 16.1536C82.4282 15.0487 84.1527 13.3478 85.0487 14.7072C85.5397 15.4505 85.0365 16.0197 84.6007 16.5487C84.4964 16.6759 83.9379 17.3188 83.852 17.3656C83.7477 17.4259 83.6372 17.1915 83.5574 17.1313L84.1527 16.5755C83.9195 16.4147 83.6495 16.388 83.4408 16.1603V16.1536ZM84.0975 14.5531C83.1954 14.6603 83.2935 16.1938 84.208 16.167C85.196 16.1402 85.1163 14.4326 84.0975 14.5531Z" fill="#002244"/>
<path d="M59.7815 16.4548C58.6536 16.4018 58.3637 14.7326 59.4097 14.2888C60.1596 13.9708 60.9346 14.5802 60.8779 15.4214C60.8338 16.1037 59.8319 16.8323 59.4538 17.3755L59.2144 17.084C59.2333 16.9714 59.8697 16.5475 59.7815 16.4548ZM59.7311 14.5339C58.5654 14.6796 59.1262 16.6468 60.21 16.0043C60.9157 15.5804 60.525 14.4345 59.7311 14.5339Z" fill="#002244"/>
<path d="M107.403 14.2075C108.843 14.0957 108.957 16.1465 107.652 16.3081C106.219 16.4821 105.964 14.3194 107.403 14.2075ZM107.403 14.5058C106.2 14.6923 106.843 16.4883 107.888 15.8855C108.614 15.4691 108.187 14.3815 107.403 14.5058Z" fill="#002244"/>
<path d="M48.0753 14.2075C49.501 14.0958 49.6225 16.139 48.3246 16.3067C46.8988 16.493 46.6111 14.3193 48.0753 14.2075ZM48.0305 14.5119C47.7812 14.5491 47.4615 14.8472 47.4231 15.0894C47.3144 15.754 47.9858 16.2508 48.5931 15.8782C49.3028 15.4434 48.8361 14.3877 48.0369 14.5119H48.0305Z" fill="#002244"/>
<path d="M71.4765 25.835H65.1191V26.8924H71.4765V25.835Z" fill="#002244"/>
<path d="M8.22877 15.2994C8.41889 16.2807 9.67508 16.2434 9.91274 15.2932C10.2794 15.231 10.1911 15.4609 10.3134 15.6534C10.6665 16.2062 11.4609 16.113 11.7665 15.5664C11.8276 15.4546 11.8412 15.1627 12.0992 15.2932C12.2418 15.3677 11.9838 15.877 11.8683 15.9888C11.3319 16.5105 10.5239 16.3677 10.0485 15.8522C9.32878 16.672 7.99111 16.3614 7.90283 15.2932H8.22877V15.2994Z" fill="#002244"/>
<path d="M89.9749 15.2624C90.7863 15.2012 90.7135 16.4664 89.9073 16.3031C89.3092 16.1807 89.3716 15.3083 89.9749 15.2624Z" fill="#002244"/>
<path d="M2.01831 15.2662C2.74263 15.1698 2.82024 16.2812 2.11661 16.3168C1.41298 16.3523 1.33537 15.3575 2.01831 15.2662Z" fill="#002244"/>
<path d="M4.13196 15.2636C4.87927 15.1924 4.92663 16.2812 4.23195 16.3168C3.53726 16.3524 3.45306 15.3247 4.13196 15.2636Z" fill="#002244"/>
<path d="M7.75351 24.9454C8.23814 25.4658 7.43042 26.1581 6.98113 25.668C6.53184 25.1778 7.28907 24.4451 7.75351 24.9454Z" fill="#002244"/>
<path d="M59.1542 24.7932C59.9094 24.6381 60.0396 25.7032 59.4615 25.817C58.6229 25.9876 58.5604 24.9122 59.1542 24.7932Z" fill="#002244"/>
<path d="M9.36083 24.7908C10.1906 24.6351 10.2846 25.9378 9.38692 25.8288C8.81285 25.7613 8.83894 24.8894 9.36083 24.7908Z" fill="#002244"/>
<path d="M100.959 14.2038C101.009 14.1864 101.199 14.5009 101.129 14.6232L100.115 16.318L99.0254 14.4746L99.1803 14.265L100.045 15.7764L100.959 14.2038Z" fill="#002244"/>
<path d="M26.0384 15.2603C26.1073 15.2514 26.835 15.9817 26.9579 16.0668L27.8281 15.2738H27.897L28.0346 15.3992L26.9579 16.3177L25.9155 15.3679L26.0384 15.2603Z" fill="#002244"/>
<path d="M97.9658 24.8972L97.074 26.8927L96.9062 26.7904L97.798 24.7778L97.9658 24.8972Z" fill="#002244"/>
<path d="M17.439 24.8541L16.5333 26.8927L16.3794 26.7775V26.6969L17.2059 24.8138C17.2763 24.7159 17.351 24.8483 17.4346 24.8541H17.439Z" fill="#002244"/>
<path d="M3.66453 24.8915L1.88977 26.8927L1.54541 26.7904L3.329 24.7778L3.66453 24.8915Z" fill="#002244"/>
<path d="M161.112 12.2994C161.062 12.3438 159.949 12.2051 159.763 12.1995C153.322 11.9776 146.718 12.3826 140.637 14.5745C136.197 16.1782 131.504 18.9471 131.234 24.1355C130.807 32.3425 137.54 40.0667 143.526 44.9665C144.133 45.4659 144.954 46.1817 145.589 46.5979C145.684 46.6589 145.763 46.7477 145.887 46.7311V31.832C145.887 31.7876 145.757 31.549 145.712 31.5046C145.521 31.327 145.016 31.1272 144.746 30.8997C143.425 29.8066 143.189 27.759 144.088 26.3329C144.437 25.7835 144.853 25.5005 145.386 25.1509C145.623 25.0011 145.842 25.0289 145.887 24.6904L145.836 17.0327C143.875 17.3934 141.947 17.8873 140.047 18.4755C139.867 18.531 138.951 18.8916 138.889 18.8916C138.861 18.8916 138.777 18.8029 138.867 18.7696C141.16 16.9717 143.678 15.4401 146.432 14.4302C152.985 12.0441 162.793 11.8832 166.047 19.2579C170.954 30.3781 158.903 41.9367 150.686 47.8242C149.81 48.4513 148.714 49.2725 147.786 49.7831C147.331 50.0328 147.157 50.0827 146.668 49.8496C145.499 49.2947 143.869 48.074 142.79 47.2971C135.5 42.0644 125.681 32.5644 127.379 22.7427C128.683 15.2182 136.124 12.6212 142.919 11.8055C145.533 11.4892 148.219 11.5225 150.849 11.4948C153.648 11.467 156.453 11.517 159.252 11.4948L159.325 11.3949L146.977 4.81377L146.735 4.82486L132.521 12.1496C132.471 11.0564 132.499 9.95216 132.499 8.85901C132.499 8.49832 132.353 8.36514 132.735 8.08769L146.511 0.13039C146.82 -0.0194336 146.904 -0.0527264 147.224 0.0970973C147.859 0.402294 148.686 1.00714 149.332 1.38447C153.137 3.62073 156.948 5.85698 160.741 8.10989L161.101 8.40954V12.3049L161.112 12.2994ZM148.495 46.8754C149.422 46.2428 150.304 45.5325 151.164 44.8111C156.425 40.4218 163.546 33.1138 163.866 25.9444C164.102 20.6507 161.601 16.611 155.947 16.267C153.991 16.1449 151.749 16.2281 149.787 16.4168C149.203 16.4723 148.607 16.55 148.034 16.6665L148.489 16.7164L148.5 24.7736C148.556 25.0122 149.36 25.4173 149.607 25.6393C151.125 26.9766 151.097 29.5125 149.585 30.8442C149.326 31.0717 148.781 31.3159 148.618 31.4935C148.584 31.5323 148.495 31.6877 148.495 31.721V46.8698V46.8754Z" fill="#002244"/>
</svg>
