<svg width="210" height="50" viewBox="0 0 210 50" fill="none" xmlns="http://www.w3.org/2000/svg">
<path d="M164.981 43.0147C164.049 43.0147 163.369 42.7946 163.164 42.4432C162.959 42.0918 163.015 41.539 163.532 40.6161C164.753 38.4518 179.278 13.2058 184.598 3.97218L182.702 0.692871C178.435 8.1088 162.009 36.6341 160.686 38.9952C159.629 40.8691 159.507 42.6774 160.332 44.1016C160.798 44.9261 162.056 46.3081 164.99 46.3081H208.901L207.01 43.0288L164.981 43.0147Z" fill="#051C2C"/>
<path d="M179.833 26.9378H183.62C184.45 25.4668 185.67 23.2977 187.203 20.604L185.339 17.3247C183.378 20.7586 181.394 24.2487 179.833 26.9378Z" fill="#051C2C"/>
<path d="M176.609 32.6523L171.545 41.5533H206.064L204.69 39.0985C204.545 38.8502 201.233 32.91 200.362 31.4764C199.663 30.3193 198.368 28.1596 195.238 28.1596H176.795C178.635 24.9693 182.972 17.4222 185.674 12.7281C186.059 13.4027 186.449 14.0773 186.843 14.7519L188.707 18.0312C189.638 16.4244 190.342 15.1548 190.593 14.7238C189.969 13.6417 189.34 12.5595 188.73 11.4773C188.343 10.8027 187.952 10.1234 187.565 9.45819L187.598 9.41603L185.706 6.13672C185.697 6.15135 185.689 6.16707 185.683 6.18357C185.217 7.00808 184.561 8.13241 183.787 9.46288L165.316 41.5439H169.071C170.11 39.7403 172.369 35.8285 174.894 31.4436H189.764H195.228C196.342 31.4436 196.77 31.8606 197.558 33.177C198.047 33.9828 199.398 36.3767 200.455 38.2505H177.195L180.382 32.6289L176.609 32.6523Z" fill="#051C2C"/>
<path d="M2.96541 36.8267C2.93091 36.5494 2.99528 36.2689 3.14709 36.0349C3.21975 35.9465 3.31078 35.8751 3.41378 35.8257C3.51678 35.7763 3.62927 35.7502 3.74337 35.7492V35.5009L0.0166016 34.3438V34.5967C0.678103 34.8029 0.799223 35.6836 0.80854 36.316V46.3367H7.82884V44.7017H2.96541V36.8267Z" fill="#051C2C"/>
<path d="M18.8073 38.4194C18.2843 38.3849 17.7609 38.4797 17.2827 38.6952C16.8045 38.9108 16.3859 39.2407 16.0634 39.6561H16.0308V36.2972C16.0244 36.0833 16.0829 35.8725 16.1985 35.6928C16.2734 35.6043 16.3672 35.534 16.4728 35.4869C16.5785 35.4399 16.6933 35.4174 16.8088 35.4211V35.1682L13.082 34.0063V34.2546C13.7715 34.4701 13.8833 35.4118 13.8833 36.0489V44.1816C13.8833 44.978 13.8507 45.8353 13.8181 46.36H15.6815L15.7839 45.2029H15.8212C16.1154 45.6344 16.515 45.9826 16.9816 46.214C17.4483 46.4454 17.9663 46.5521 18.4858 46.5239C20.4191 46.5239 22.3757 45.1185 22.3757 42.3452C22.3757 39.9934 20.8896 38.4194 18.8073 38.4194ZM17.9967 44.978C17.5729 44.988 17.1573 44.8597 16.8122 44.6122C16.467 44.3648 16.2108 44.0115 16.0821 43.6054C16.0448 43.4521 16.0276 43.2946 16.0308 43.1369V41.8861C16.0321 41.712 16.0556 41.5388 16.1007 41.3707C16.2255 40.9605 16.4789 40.6019 16.8232 40.3485C17.1675 40.0952 17.5841 39.9607 18.0107 39.9653C19.4501 39.9653 20.1722 41.0803 20.1722 42.4482C20.1722 43.9848 19.3477 44.9733 17.9967 44.9733V44.978Z" fill="#051C2C"/>
<path d="M27.8841 42.7289C27.7257 43.2349 27.5627 43.8111 27.4183 44.2561H27.367C27.2459 43.7877 27.0735 43.2208 26.9012 42.743L25.3546 38.5923H22.9834L26.1046 45.699C26.1763 45.8149 26.2179 45.9469 26.2257 46.0832C26.2108 46.2106 26.1626 46.3319 26.0859 46.4345C25.7966 46.9328 25.3924 47.3537 24.9073 47.6619C24.521 47.9142 24.0937 48.0965 23.6449 48.2007L24.134 49.8544C24.9678 49.7414 25.7544 49.3993 26.4074 48.8659C27.4229 48.0695 28.2149 46.7812 29.3934 43.886L31.5317 38.6063H29.2024L27.8841 42.7289Z" fill="#051C2C"/>
<path d="M39.311 41.6801C39.311 39.9936 38.5237 38.4008 35.7799 38.4008C34.7126 38.3755 33.655 38.6084 32.696 39.0801L33.1152 40.3543C33.8276 39.984 34.6192 39.7942 35.4212 39.8015C36.9259 39.8015 37.1588 40.6448 37.1588 41.1507V41.2819C33.9957 41.2819 32.0811 42.2516 32.0811 44.2052C32.0811 45.3857 33.0454 46.5147 34.769 46.5147C35.2371 46.53 35.7032 46.4457 36.1367 46.2673C36.5702 46.0889 36.9614 45.8204 37.2846 45.4794H37.3358L37.4756 46.3367H39.4274C39.3328 45.7168 39.2907 45.0899 39.3017 44.4628L39.311 41.6801ZM37.2054 43.6196C37.2064 43.7666 37.1811 43.9126 37.1308 44.0506C36.9932 44.3795 36.7587 44.6582 36.4589 44.8492C36.1591 45.0401 35.8083 45.1342 35.4538 45.1187C34.7643 45.1187 34.2193 44.7673 34.2193 44.0037C34.2193 42.8279 35.6774 42.528 37.2054 42.5561V43.6196Z" fill="#051C2C"/>
<path d="M46.3035 38.4193C45.7743 38.3942 45.2474 38.5033 44.7712 38.7366C44.2949 38.9699 43.8847 39.3199 43.5783 39.7544H43.555C43.524 39.5001 43.5834 39.2429 43.7227 39.0283C43.7898 38.9477 43.874 38.8832 43.9691 38.8394C44.0642 38.7956 44.1678 38.7738 44.2724 38.7753V38.5598L40.9043 37.5151V37.7353C41.077 37.8101 41.2267 37.9298 41.3381 38.0822C41.4494 38.2345 41.5184 38.4139 41.5378 38.602C41.5891 39.2672 41.6077 40.0074 41.6077 40.9069V46.3365H43.7879V41.7876C43.7785 41.5719 43.8069 41.3563 43.8717 41.1505C44.0061 40.8107 44.2395 40.5197 44.5413 40.3157C44.8431 40.1117 45.1991 40.0042 45.5628 40.0074C46.7367 40.0074 47.1932 40.8507 47.1932 41.9656V46.3365H49.3501V41.7408C49.3361 39.2907 47.7942 38.4193 46.3035 38.4193Z" fill="#051C2C"/>
<path d="M67.5964 38.4194C65.0156 38.4194 63.1709 39.9748 63.1709 42.5233C63.1709 45.0718 65.0343 46.5147 67.4613 46.5147C69.6322 46.5147 71.8496 45.2404 71.8496 42.3921C71.8496 40.0404 70.1446 38.4194 67.5964 38.4194ZM67.5266 45.1186C66.2129 45.1186 65.4023 43.9943 65.4023 42.4952C65.4023 41.2069 66.0219 39.8717 67.5452 39.8717C69.0685 39.8717 69.6182 41.2771 69.6182 42.467C69.6182 43.9989 68.7564 45.1186 67.5266 45.1186Z" fill="#051C2C"/>
<path d="M75.5674 40.0728H75.5115V39.862C75.4757 39.6095 75.5337 39.3526 75.6746 39.1405C75.7389 39.0635 75.8196 39.0021 75.9107 38.9607C76.0018 38.9194 76.101 38.8992 76.201 38.9016V38.6861L72.9727 37.6836V37.8944C73.1199 37.952 73.2501 38.0462 73.3512 38.1683C73.4522 38.2904 73.5208 38.4364 73.5503 38.5924C73.6062 39.2905 73.6202 40.04 73.6202 41.0894V46.3363H75.7817V42.3308C75.7845 42.1278 75.8063 41.9254 75.8469 41.7265C75.9398 41.288 76.1859 40.8975 76.5406 40.6258C76.8953 40.3542 77.3351 40.2195 77.7802 40.2461C77.9928 40.2456 78.205 40.266 78.4137 40.307V38.4613C78.2464 38.4296 78.0762 38.4154 77.906 38.4191C77.3956 38.4248 76.899 38.5858 76.4815 38.8811C76.0641 39.1763 75.7453 39.5918 75.5674 40.0728Z" fill="#051C2C"/>
<path d="M83.3509 38.4193C82.7972 38.3909 82.2437 38.4788 81.7257 38.6773C81.2076 38.8759 80.7364 39.1808 80.342 39.5726C79.9476 39.9644 79.6386 40.4345 79.4348 40.9529C79.231 41.4714 79.1368 42.0269 79.1583 42.584C79.1583 44.9545 80.7934 46.5145 83.5652 46.5145C84.5783 46.5311 85.5868 46.3726 86.5466 46.046L86.2438 44.65C85.4787 44.9006 84.677 45.0194 83.8726 45.0013C82.503 45.0013 81.2918 44.397 81.2406 42.9916H86.9612C87.012 42.7198 87.0354 42.4436 87.0311 42.1671C87.0311 40.4852 86.1413 38.4193 83.3509 38.4193ZM81.2406 41.6471C81.2736 41.1399 81.4969 40.6644 81.8653 40.3165C82.2337 39.9687 82.7197 39.7744 83.2251 39.7732C83.4682 39.7635 83.7105 39.8061 83.9359 39.8981C84.1614 39.9902 84.3646 40.1296 84.5322 40.3069C84.6998 40.4843 84.8277 40.6956 84.9076 40.9267C84.9875 41.1578 85.0174 41.4034 84.9953 41.6471H81.2406Z" fill="#051C2C"/>
<path d="M101.105 38.5923H101.04L98.4779 37.7959V38.0114C99.0136 38.18 99.1394 38.8453 99.158 39.3747V39.6229H99.1207C98.8498 39.2216 98.4785 38.8991 98.0443 38.6877C97.6101 38.4764 97.1282 38.3837 96.6471 38.419C94.5927 38.419 92.7666 39.9602 92.7666 42.5041C92.7666 44.7012 94.2759 46.2893 96.4002 46.2893C96.8773 46.3124 97.3529 46.2203 97.7874 46.0206C98.2218 45.8209 98.6023 45.5195 98.8971 45.1416H98.9297V45.8115C98.9297 47.4839 97.8769 48.1538 96.4701 48.1538C95.6042 48.1533 94.75 47.9529 93.9731 47.5682L93.5073 49.0486C94.4397 49.4854 95.4606 49.6971 96.4887 49.667C97.6625 49.7312 98.8242 49.4017 99.7916 48.7301C100.686 47.9992 101.059 46.8562 101.059 45.2118V40.8175C101.059 40.2929 101.059 39.8806 101.059 39.5152C101.077 39.418 101.12 39.3274 101.184 39.2528C101.248 39.1762 101.328 39.115 101.418 39.0736C101.509 39.0322 101.607 39.0118 101.706 39.0139V38.7984L101.101 38.611C101.104 38.6055 101.106 38.5989 101.105 38.5923ZM98.8785 42.9491C98.8762 43.1863 98.8449 43.4223 98.7853 43.6518C98.6482 44.0052 98.4059 44.3074 98.0916 44.517C97.7772 44.7266 97.4061 44.8335 97.0291 44.823C95.6781 44.823 94.9421 43.7642 94.9421 42.4432C94.9421 40.8644 95.8365 39.9087 97.0477 39.9087C97.4323 39.9007 97.8091 40.0189 98.1209 40.2455C98.4327 40.472 98.6627 40.7945 98.776 41.1642C98.8265 41.3361 98.8516 41.5144 98.8506 41.6936L98.8785 42.9491Z" fill="#051C2C"/>
<path d="M107.963 38.4196C107.434 38.3944 106.908 38.5035 106.432 38.7369C105.957 38.9702 105.547 39.3203 105.242 39.7547H105.191L105.158 39.4081C105.174 39.3089 105.218 39.2162 105.284 39.141C105.348 39.0644 105.427 39.0031 105.518 38.9618C105.608 38.9204 105.706 38.9 105.806 38.9021V38.6866L102.582 37.6841V37.8949C102.751 37.9697 102.896 38.0888 103.004 38.2396C103.111 38.3904 103.176 38.5674 103.192 38.7522C103.239 39.38 103.258 40.0733 103.258 40.8978V46.3368H105.438V41.7879C105.428 41.5722 105.457 41.3566 105.522 41.1508C105.656 40.8117 105.888 40.5212 106.189 40.3173C106.49 40.1134 106.845 40.0055 107.208 40.0077C108.386 40.0077 108.838 40.851 108.838 41.9659V46.3368H111V41.7411C111 39.2909 109.458 38.4196 107.963 38.4196Z" fill="#051C2C"/>
<path d="M122.818 40.5795V40.5467C124.099 40.1204 124.784 39.2115 124.784 38.2043C124.783 37.7909 124.668 37.386 124.45 37.035C124.233 36.6841 123.923 36.4011 123.554 36.218C122.748 35.7074 121.765 35.534 120.168 35.534C119.739 35.534 119.315 35.534 118.905 35.5715L116.366 34.7798V34.9953C116.564 35.089 116.731 35.2376 116.847 35.4236C116.963 35.6095 117.024 35.825 117.023 36.0447V46.3042C117.903 46.4001 118.788 46.4471 119.674 46.4448C121.835 46.4448 123.223 46.1121 124.067 45.4422C124.417 45.1944 124.704 44.8655 124.901 44.4831C125.099 44.1007 125.203 43.6761 125.203 43.2451C125.203 41.7553 124.067 40.8652 122.818 40.5795ZM119.166 37.0659C119.573 37.0007 119.984 36.9741 120.396 36.9863C121.765 36.9863 122.604 37.4548 122.604 38.4479C122.604 39.3521 121.765 39.9939 120.275 39.9939H119.171L119.166 37.0659ZM120.307 44.9738C119.926 44.9878 119.544 44.9705 119.166 44.9222V41.4227H120.233C121.733 41.4227 122.921 41.9334 122.921 43.1748C122.921 44.4912 121.695 44.9738 120.307 44.9738Z" fill="#051C2C"/>
<path d="M133.737 41.6796C133.737 39.9931 132.949 38.4003 130.205 38.4003C129.137 38.3751 128.078 38.608 127.117 39.0796L127.536 40.3538C128.247 39.9777 129.039 39.7815 129.842 39.7823C131.347 39.7823 131.58 40.6255 131.58 41.1315V41.2626C128.417 41.2626 126.502 42.2324 126.502 44.1859C126.502 45.3665 127.466 46.4955 129.19 46.4955C129.66 46.5127 130.128 46.4293 130.563 46.2508C130.998 46.0723 131.391 45.8028 131.715 45.4602H131.771L131.91 46.3175H133.858C133.767 45.6971 133.727 45.0705 133.737 44.4436V41.6796ZM131.631 43.6191C131.631 43.7656 131.608 43.9112 131.561 44.0501C131.422 44.379 131.187 44.6575 130.886 44.8483C130.586 45.0392 130.234 45.1333 129.879 45.1182C129.19 45.1182 128.645 44.7668 128.645 44.0032C128.645 42.8274 130.103 42.5275 131.631 42.5556V43.6191Z" fill="#051C2C"/>
<path d="M150.452 41.7551L153.615 38.5929H151.015L148.942 41.0899C148.714 41.3616 148.476 41.6942 148.257 41.9941H148.22V36.2412C148.199 35.9943 148.26 35.7474 148.393 35.5385C148.464 35.4544 148.554 35.3873 148.655 35.3419C148.755 35.2966 148.865 35.2741 148.975 35.2762V35.0419L145.411 33.9316V34.1706C145.589 34.243 145.744 34.362 145.86 34.5153C145.977 34.6686 146.05 34.8504 146.073 35.0419V46.3368H148.23V43.7134L148.97 42.931L151.416 46.3368H154.067L150.452 41.7551Z" fill="#051C2C"/>
<path d="M8.60547 37.8899C9.12256 38.0539 9.3089 38.6301 9.37411 39.1782V46.3365H11.5496V40.1198C11.5177 39.8421 11.5836 39.562 11.736 39.3281C11.811 39.241 11.9041 39.1715 12.0087 39.1246C12.1134 39.0776 12.227 39.0543 12.3416 39.0564V38.8081L8.61478 37.6416L8.60547 37.8899Z" fill="#051C2C"/>
<path d="M54.6318 34.7749V34.9998C55.2561 35.1965 55.3539 36.0445 55.3539 36.616V37.6232V46.3368H57.5154V41.7879H61.8664V40.1811H57.5154V37.225H62.1739V35.6182H57.3151L54.6318 34.7749Z" fill="#051C2C"/>
<path d="M120.406 25.2879H138.974C139.249 25.6285 139.596 25.9031 139.99 26.0918C140.383 26.2804 140.814 26.3783 141.25 26.3783C141.686 26.3783 142.117 26.2804 142.51 26.0918C142.904 25.9031 143.251 25.6285 143.526 25.2879H146.596C146.944 25.3059 147.291 25.2416 147.61 25.1C147.929 24.9584 148.21 24.7436 148.431 24.4728C148.827 23.9737 149.033 23.3494 149.013 22.7113V15.5015C148.984 15.2517 149.044 14.9995 149.181 14.7894C149.248 14.7083 149.332 14.6434 149.427 14.5996C149.522 14.5558 149.626 14.5342 149.731 14.5365V14.3116L146.433 13.2622V13.4918C147.033 13.6791 147.145 14.4756 147.155 15.0471V22.3506C147.155 23.2173 146.833 23.6576 146.223 23.6576H144.206C144.222 23.563 144.232 23.4676 144.238 23.3719C144.208 22.599 143.881 21.868 143.327 21.332C142.772 20.7961 142.033 20.4967 141.264 20.4967C140.495 20.4967 139.756 20.7961 139.201 21.332C138.647 21.868 138.32 22.599 138.29 23.3719C138.294 23.4613 138.303 23.5505 138.318 23.6389H135.015V23.6108H134.758C134.758 22.6364 133.887 18.9542 131.358 19.165C128.934 19.4489 126.647 20.4426 124.78 22.0227V20.6735L123.415 22.2428V23.6248H120.62C120.62 23.4374 120.62 23.2501 120.62 23.0627V20.5563C120.581 20.2906 120.643 20.0199 120.792 19.7974C120.86 19.7162 120.945 19.6513 121.041 19.6075C121.137 19.5637 121.241 19.5422 121.347 19.5444V19.3196L118.044 18.2608V18.4904C118.668 18.6871 118.766 19.5444 118.766 20.116V20.5095V24.1167C118.654 26.7917 117.634 27.7989 115.589 28.3564C116.111 28.3986 116.753 28.4126 116.944 28.4126C119.157 28.422 120.061 27.0072 120.406 25.2879ZM141.252 21.9711C141.529 21.9711 141.799 22.0535 142.029 22.208C142.259 22.3624 142.438 22.5819 142.543 22.8387C142.649 23.0955 142.677 23.3781 142.623 23.6507C142.569 23.9233 142.436 24.1738 142.241 24.3703C142.045 24.5669 141.796 24.7007 141.525 24.755C141.254 24.8092 140.973 24.7814 140.718 24.675C140.462 24.5686 140.244 24.3885 140.09 24.1573C139.937 23.9262 139.855 23.6545 139.855 23.3765C139.855 23.0038 140.002 22.6463 140.264 22.3828C140.526 22.1192 140.882 21.9711 141.252 21.9711ZM130.678 20.9639C132.126 20.8374 132.793 22.6036 133.007 23.6248H125.376C126.392 22.3459 128.954 21.1091 130.678 20.9639Z" fill="#051C2C"/>
<path d="M83.7513 26.2992L82.5879 27.3452L83.715 28.6129L84.8784 27.5669L83.7513 26.2992Z" fill="#051C2C"/>
<path d="M81.3529 26.295L80.1885 27.3398L81.3112 28.6053L82.4756 27.5604L81.3529 26.295Z" fill="#051C2C"/>
<path d="M76.1533 27.3401L77.2807 28.6097L78.4406 27.565L77.3179 26.2954L76.1533 27.3401Z" fill="#051C2C"/>
<path d="M114.1 15.235L112.938 16.2827L114.067 17.5489L115.229 16.5012L114.1 15.235Z" fill="#051C2C"/>
<path d="M56.3095 25.2879V15.553C56.2737 15.2859 56.3349 15.0148 56.4819 14.7894C56.5491 14.7088 56.6333 14.6443 56.7283 14.6005C56.8234 14.5568 56.927 14.5349 57.0316 14.5365V14.3116L53.7334 13.2622V13.4918C54.3576 13.6885 54.4555 14.5458 54.4555 15.1174V16.148V25.2879H56.3095Z" fill="#051C2C"/>
<path d="M5.42862 28.4455C6.67656 28.4602 7.87939 27.9767 8.77339 27.1009L8.88986 26.9838C9.6061 26.174 9.98916 25.1205 9.9613 24.0371V21.2263C9.98038 21.1144 10.037 21.0124 10.1218 20.9374C10.2066 20.8624 10.3143 20.8188 10.4271 20.814C10.4819 20.8075 10.5374 20.8119 10.5905 20.827C10.6436 20.842 10.6932 20.8675 10.7364 20.9019C10.7797 20.9363 10.8158 20.9789 10.8427 21.0273C10.8695 21.0757 10.8866 21.129 10.893 21.1841V22.7113C10.871 23.3497 11.0776 23.9748 11.4753 24.4728C11.6953 24.7438 11.9757 24.9589 12.2938 25.1005C12.6119 25.2421 12.9587 25.3064 13.3061 25.2879H27.9663V24.0793C27.9663 22.2616 27.5982 21.1888 26.7178 20.3034C25.9724 19.5585 24.9522 18.8558 22.7721 18.8558H19.0453C18.4723 18.8558 17.6198 18.7715 17.4242 18.2749H17.2006L18.2487 20.9218H18.4723C18.4745 20.8522 18.4909 20.7839 18.5206 20.721C18.5503 20.6581 18.5925 20.6021 18.6447 20.5564H23.1867C24.3746 20.5564 25.9165 22.2335 25.9165 23.6577H13.4319C13.2505 23.6707 13.07 23.6231 12.9184 23.5223C12.7667 23.4215 12.6524 23.2731 12.5933 23.1002L12.4676 21.6432V21.2075V20.8562C12.4419 20.3026 12.2051 19.7803 11.8065 19.3977C11.4079 19.0151 10.878 18.8017 10.327 18.8017C9.77595 18.8017 9.24609 19.0151 8.84747 19.3977C8.44885 19.7803 8.21211 20.3026 8.18643 20.8562V23.7654C8.12121 25.4379 6.96125 26.3889 5.28887 26.4591C2.56832 26.5669 0.630404 25.2317 0.751524 22.0367H0.565186C0.318287 24.8101 0.933204 26.1078 1.96272 27.1197C2.90022 28.0019 4.14507 28.4781 5.42862 28.4455Z" fill="#051C2C"/>
<path d="M6.60808 29.36L5.44727 30.4019L6.57329 31.6706L7.7341 30.6287L6.60808 29.36Z" fill="#051C2C"/>
<path d="M4.21232 29.3507L3.04785 30.3955L4.17055 31.6609L5.33502 30.6161L4.21232 29.3507Z" fill="#051C2C"/>
<path d="M22.4145 26.2974L21.251 27.3433L22.3748 28.6077L23.5383 27.5618L22.4145 26.2974Z" fill="#051C2C"/>
<path d="M41.1416 15.4318L39.9775 16.4771L41.1038 17.7456L42.2679 16.7003L41.1416 15.4318Z" fill="#051C2C"/>
<path d="M98.2082 15.108V16.1386V25.2879H100.044V15.553C100.005 15.2858 100.067 15.0138 100.216 14.7894C100.283 14.7083 100.367 14.6434 100.462 14.5996C100.557 14.5558 100.661 14.5342 100.766 14.5365V14.3116L97.4814 13.2622V13.4918C98.1057 13.6791 98.2082 14.5365 98.2082 15.108Z" fill="#051C2C"/>
<path d="M83.9988 25.2879H93.8654C94.2129 25.3067 94.5598 25.2427 94.878 25.101C95.1961 24.9593 95.4765 24.7441 95.6962 24.4728C96.0956 23.9754 96.3039 23.3502 96.2832 22.7113V15.553C96.2447 15.2858 96.3062 15.0138 96.4556 14.7894C96.522 14.708 96.6061 14.643 96.7014 14.5991C96.7966 14.5553 96.9005 14.5339 97.0052 14.5365V14.3116L93.7071 13.2622V13.4918C94.3033 13.6791 94.4198 14.4756 94.4245 15.0471V22.3506C94.4245 23.2173 94.1077 23.6576 93.4928 23.6576H91.103C91.2019 23.3553 91.2522 23.039 91.252 22.7207V15.553C91.2136 15.2858 91.275 15.0138 91.4244 14.7894C91.4909 14.708 91.575 14.643 91.6702 14.5991C91.7655 14.5553 91.8694 14.5339 91.9741 14.5365V14.3116L88.6666 13.2622V13.4918C89.2908 13.6885 89.3887 14.5458 89.3887 15.1174V22.3506C89.3887 23.2173 89.0672 23.6576 88.457 23.6576H86.2861C86.381 23.3544 86.4297 23.0385 86.4305 22.7207V20.7578C86.4013 20.508 86.4607 20.2558 86.5982 20.0457C86.6656 19.9722 86.7479 19.914 86.8395 19.8752C86.9311 19.8364 87.0299 19.8179 87.1293 19.8208V19.596L83.8311 18.5372V18.7668C84.4554 18.9588 84.5532 19.8161 84.5532 20.3924V22.3506C84.5532 23.2173 84.2364 23.6576 83.6215 23.6576H80.6913C80.7902 23.3553 80.8405 23.039 80.8404 22.7207V20.8093C80.8027 20.5436 80.8641 20.2733 81.0127 20.0504C81.079 19.9764 81.1602 19.9175 81.2511 19.8779C81.3419 19.8383 81.4402 19.8188 81.5392 19.8208V19.596L78.2363 18.5372V18.7668C78.8372 18.9542 78.9491 19.7459 78.9584 20.3221V22.3506C78.9584 23.2173 78.6416 23.6576 78.0267 23.6576H72.5064C72.3291 23.6675 72.1535 23.6182 72.0069 23.5174C71.8604 23.4166 71.751 23.2699 71.6958 23.1001L71.5654 21.6432V21.2075V20.8562C71.5654 20.2859 71.3401 19.7389 70.9391 19.3357C70.5381 18.9324 69.9943 18.7059 69.4272 18.7059C68.8601 18.7059 68.3162 18.9324 67.9152 19.3357C67.5142 19.7389 67.2889 20.2859 67.2889 20.8562V23.7654C67.2284 25.4378 66.0731 26.3888 64.3914 26.4591C61.6755 26.5668 59.7329 25.2317 59.8587 22.0367H59.6444C59.3928 24.8101 60.0031 26.1077 61.0419 27.1196C61.9812 28.0071 63.2286 28.4897 64.5171 28.4642C65.7636 28.4781 66.9647 27.9947 67.8573 27.1196C67.8983 27.0829 67.9372 27.0438 67.9737 27.0025C68.6933 26.1892 69.0766 25.13 69.0452 24.0418C69.0452 23.9528 69.0452 23.8638 69.0452 23.7747V21.2262C69.0589 21.112 69.114 21.0068 69.1999 20.9308C69.2858 20.8547 69.3966 20.8132 69.511 20.814C69.5658 20.8075 69.6213 20.8119 69.6744 20.8269C69.7274 20.842 69.777 20.8675 69.8203 20.9018C69.8636 20.9362 69.8997 20.9788 69.9265 21.0273C69.9534 21.0757 69.9705 21.129 69.9769 21.1841V22.7113C69.9561 23.3502 70.1645 23.9754 70.5638 24.4728C70.784 24.7435 71.0645 24.9584 71.3825 25.1C71.7005 25.2416 72.0472 25.306 72.3946 25.2879H84.0035H83.9988Z" fill="#051C2C"/>
<path d="M49.955 13.4824C50.5746 13.6791 50.677 14.5365 50.677 15.108V22.3506C50.677 23.2173 50.3556 23.6576 49.7453 23.6576H49.2376C49.1817 22.107 48.8183 21.1091 48.0171 20.2987C47.2158 19.4882 46.2515 18.8511 44.076 18.8511H40.3073C39.7343 18.8511 38.9098 18.7668 38.6908 18.2702H38.4672L39.52 20.9171H39.739C39.7412 20.8475 39.7576 20.7792 39.7873 20.7163C39.8169 20.6534 39.8592 20.5974 39.9113 20.5516H44.4533C45.6412 20.5516 47.1832 22.2288 47.1832 23.6529H36.2684C35.6395 23.6529 35.3367 23.2126 35.3367 22.3459V15.4078C35.3238 15.1894 35.381 14.9727 35.4998 14.7894C35.5672 14.7079 35.6521 14.6429 35.7481 14.599C35.8441 14.5552 35.9487 14.5338 36.0541 14.5365V14.3116L32.7373 13.2622V13.4918C33.3615 13.6885 33.464 14.5458 33.464 15.1174V22.7113C33.4412 23.3506 33.6498 23.9764 34.051 24.4728C34.2712 24.7447 34.5523 24.9604 34.8713 25.1021C35.1904 25.2438 35.5382 25.3075 35.8864 25.2879H36.9579L36.9905 25.316L49.2562 25.2879H50.118C50.4661 25.3063 50.8136 25.2421 51.1324 25.1005C51.4513 24.9589 51.7325 24.7439 51.9535 24.4728C52.3528 23.9754 52.5611 23.3502 52.5404 22.7113V15.5015C52.5087 15.2516 52.5683 14.9985 52.7081 14.7894C52.7746 14.708 52.8587 14.643 52.9539 14.5991C53.0492 14.5553 53.1531 14.5339 53.2578 14.5365V14.3116L49.955 13.2622V13.4824Z" fill="#051C2C"/>
<path d="M32.5223 19.3244L29.2241 18.2656V18.4952C29.8483 18.6919 29.9415 19.5446 29.9415 20.1208V21.1514V24.1262C29.8297 26.8012 28.8095 27.8084 26.7598 28.3659C27.2862 28.4081 27.9337 28.4221 28.1154 28.4221C31.2831 28.4221 31.7956 25.6113 31.7956 23.0628V20.4628C31.7827 20.2351 31.8449 20.0094 31.9726 19.821C32.04 19.7409 32.1243 19.6771 32.2194 19.6342C32.3146 19.5912 32.418 19.5702 32.5223 19.5727V19.3244Z" fill="#051C2C"/>
<path d="M150.951 15.108V16.1386V25.2879H152.781V15.553C152.746 15.2859 152.807 15.0148 152.954 14.7894C153.021 14.7082 153.106 14.6433 153.202 14.5995C153.298 14.5557 153.403 14.5342 153.508 14.5365V14.3116L150.21 13.2622V13.4918C150.834 13.6791 150.951 14.5365 150.951 15.108Z" fill="#051C2C"/>
<path d="M116.944 21.854C116.947 21.8229 116.947 21.7915 116.944 21.7603C116.944 20.9676 116.631 20.2074 116.074 19.6469C115.516 19.0864 114.76 18.7715 113.972 18.7715C113.184 18.7715 112.428 19.0864 111.87 19.6469C111.313 20.2074 111 20.9676 111 21.7603C111.006 22.4466 111.25 23.1092 111.689 23.6342H106.49C105.093 23.6342 104.129 22.9222 103.835 21.3902C103.788 22.1295 103.829 22.8718 103.956 23.6014C104.018 24.057 104.239 24.4754 104.581 24.7806C104.923 25.0857 105.363 25.2575 105.82 25.2645H113.879V25.2411C114.302 25.2243 114.718 25.123 115.102 24.9431C115.487 24.7632 115.831 24.5082 116.117 24.193C116.402 23.8777 116.622 23.5086 116.764 23.1071C116.906 22.7055 116.967 22.2796 116.944 21.854ZM113.907 23.1002C113.63 23.1002 113.36 23.0177 113.13 22.8633C112.9 22.7089 112.721 22.4894 112.616 22.2326C112.51 21.9758 112.482 21.6932 112.536 21.4206C112.59 21.1479 112.723 20.8975 112.919 20.701C113.114 20.5044 113.363 20.3706 113.634 20.3163C113.905 20.2621 114.186 20.2899 114.442 20.3963C114.697 20.5027 114.915 20.6828 115.069 20.9139C115.222 21.1451 115.304 21.4168 115.304 21.6948C115.304 22.0675 115.157 22.425 114.895 22.6885C114.633 22.9521 114.277 23.1002 113.907 23.1002Z" fill="#051C2C"/>
<path d="M65.6865 29.3596L64.5273 30.4033L65.6522 31.6668L66.8114 30.623L65.6865 29.3596Z" fill="#051C2C"/>
<path d="M64.415 30.6238L63.2877 29.3589L62.123 30.3989L63.2504 31.6638L64.415 30.6238Z" fill="#051C2C"/>
<path d="M140.628 38.4191C140.1 38.3926 139.573 38.5011 139.097 38.7346C138.622 38.968 138.212 39.3188 137.908 39.7542H137.852L137.819 39.4029C137.836 39.3053 137.88 39.2144 137.945 39.1405C138.009 39.0642 138.089 39.0031 138.179 38.9618C138.269 38.9204 138.368 38.8999 138.467 38.9016V38.6861L135.243 37.6836V37.8944C135.412 37.968 135.558 38.0861 135.665 38.2362C135.772 38.3863 135.838 38.5628 135.853 38.747C135.9 39.3795 135.919 40.0728 135.919 40.8973V46.3363H138.099V41.7874C138.092 41.5719 138.12 41.3566 138.183 41.1503C138.317 40.8112 138.549 40.5207 138.85 40.3168C139.151 40.1129 139.506 40.005 139.869 40.0072C141.043 40.0072 141.499 40.8505 141.499 41.9654V46.3363H143.666V41.7406C143.666 39.2905 142.1 38.4191 140.628 38.4191Z" fill="#051C2C"/>
<path d="M10.4795 34.8569L9.19238 36.0098L10.4348 37.4126L11.7219 36.2598L10.4795 34.8569Z" fill="#051C2C"/>
<path d="M87.9766 37.8899C88.4937 38.0539 88.6846 38.6348 88.7499 39.1876V46.3365H90.9254V40.0683C90.8995 39.8079 90.9637 39.5465 91.107 39.3281C91.1826 39.2404 91.2764 39.1705 91.3819 39.1236C91.4874 39.0766 91.602 39.0536 91.7173 39.0564V38.8081L87.9905 37.6416L87.9766 37.8899Z" fill="#051C2C"/>
<path d="M89.8457 34.8581L88.5605 36.0132L89.8054 37.4138L91.0905 36.2587L89.8457 34.8581Z" fill="#051C2C"/>
<path d="M164.739 42.4809C163.807 42.4809 163.127 42.2607 162.922 41.9094C162.717 41.558 162.773 41.0052 163.29 40.0823C164.51 37.918 179.04 12.6673 184.355 3.42433L182.464 0.14502C178.188 7.575 161.771 36.1003 160.443 38.4614C159.391 40.3353 159.27 42.1436 160.094 43.5725C160.56 44.3923 161.813 45.779 164.753 45.779H208.677L206.781 42.4997L164.739 42.4809Z" fill="url(#paint0_linear_451_1488)"/>
<path d="M179.609 26.4026H183.397C184.226 24.9316 185.446 22.7626 186.979 20.0689L185.116 16.7896C183.136 20.2235 181.151 23.7136 179.609 26.4026Z" fill="url(#paint1_linear_451_1488)"/>
<path d="M176.365 32.1186L171.302 41.0196H205.816L204.447 38.5601C204.307 38.3071 200.985 32.3763 200.123 30.9381C199.425 29.7809 198.13 27.626 194.999 27.626H176.57C178.434 24.431 182.757 16.8886 185.459 12.1898L186.623 14.2183C187.252 15.3051 187.876 16.3967 188.487 17.4976C189.395 15.8907 190.122 14.6211 190.35 14.2183L188.487 10.9671L187.322 8.94794C187.332 8.93492 187.339 8.92076 187.345 8.90578L185.459 5.62646C185.452 5.64363 185.443 5.65949 185.431 5.67331C184.965 6.49782 184.313 7.62216 183.539 8.95262L165.073 41.0102H168.828C169.867 39.2066 172.126 35.2949 174.651 30.91H189.521H194.99C196.103 30.91 196.527 31.3269 197.319 32.6433C197.785 33.4538 199.182 35.843 200.217 37.7169H176.952L180.143 32.0952L176.365 32.1186Z" fill="url(#paint2_linear_451_1488)"/>
<defs>
<linearGradient id="paint0_linear_451_1488" x1="178.532" y1="50.9181" x2="198.371" y2="18.7163" gradientUnits="userSpaceOnUse">
<stop stop-color="#00567D"/>
<stop offset="0.56" stop-color="#81AFC2"/>
<stop offset="1" stop-color="#00567D"/>
</linearGradient>
<linearGradient id="paint1_linear_451_1488" x1="169.705" y1="45.4788" x2="189.539" y2="13.277" gradientUnits="userSpaceOnUse">
<stop stop-color="#00567D"/>
<stop offset="0.56" stop-color="#81AFC2"/>
<stop offset="1" stop-color="#00567D"/>
</linearGradient>
<linearGradient id="paint2_linear_451_1488" x1="178.737" y1="51.0402" x2="198.57" y2="18.8431" gradientUnits="userSpaceOnUse">
<stop stop-color="#00567D"/>
<stop offset="0.56" stop-color="#81AFC2"/>
<stop offset="1" stop-color="#00567D"/>
</linearGradient>
</defs>
</svg>
