<svg width="103" height="50" viewBox="0 0 103 50" fill="none" xmlns="http://www.w3.org/2000/svg">
<path d="M53.5 0.764648C53.5 0.764648 54.7215 5.73148 55.3147 14.9448C67.5946 13.1272 73.4576 7.20847 76.4613 2.88319C61.658 2.75663 53.5 0.764648 53.5 0.764648Z" fill="#114075"/>
<path d="M79.3774 2.88672C78.8862 2.89682 78.3782 2.89682 77.8674 2.89682C77.3904 2.89682 76.929 2.89682 76.4729 2.88672C73.4705 7.21065 67.6049 13.1294 55.3223 14.9504C55.5175 17.8889 55.6398 21.2555 55.6398 25.0355C55.6398 28.6654 55.5236 31.9223 55.3479 34.78C59.0211 34.3079 62.6449 33.5117 66.1766 32.4009C72.7233 26.4768 78.0431 17.2379 79.3774 2.88672Z" fill="#0093B4"/>
<path d="M102.217 0.764648C100.052 1.2384 97.8649 1.60329 95.6634 1.85792C91.1125 17.4511 79.7298 31.5458 55.3477 34.7717C55.1389 38.1061 54.8471 40.8978 54.5498 43.1113C73.8277 41.2795 88.6763 35.7708 100.124 28.538C100.099 27.409 100.077 26.2491 100.077 25.0374C100.077 9.40039 102.217 0.764648 102.217 0.764648Z" fill="#006DAC"/>
<path d="M79.3699 2.87915H79.3732C78.0301 17.2444 72.7104 26.4733 66.1738 32.4007C83.2276 26.9553 91.8471 14.9347 95.6643 1.85791C90.2573 2.51329 84.8166 2.85428 79.3699 2.87915Z" fill="#81CCD6"/>
<path d="M55.3469 34.7755C55.2408 36.4417 55.1104 37.9759 54.9834 39.3674C59.0897 37.7067 62.8764 35.3501 66.1756 32.4019C62.6434 33.51 59.0197 34.3043 55.3469 34.7755Z" fill="#114075"/>
<path d="M54.554 43.1101C54.5629 43.0941 54.5692 43.0768 54.5729 43.0589C54.0222 47.1573 53.5 49.3102 53.5 49.3102C53.5 49.3102 62.1701 47.1802 77.8544 47.1802C93.557 47.1802 102.219 49.3102 102.219 49.3102C102.219 49.3102 100.405 41.9535 100.125 28.5381C88.677 35.7682 73.8285 41.2817 54.5546 43.1101" fill="#3DA3BE"/>
<path d="M31.1458 11.8197H33.3078V9.15653C33.26 8.64624 33.412 8.13731 33.7321 7.73609C34.0824 7.43183 34.5381 7.2758 35.0022 7.30121H36.7351C36.9641 7.2853 37.194 7.31549 37.4111 7.38998C37.6281 7.46446 37.8279 7.58171 37.9985 7.73474C38.1641 7.92998 38.2888 8.1562 38.3653 8.40013C38.4419 8.64405 38.4688 8.90076 38.4444 9.15518V11.642C38.4519 11.927 38.4142 12.2114 38.333 12.4848C38.2694 12.7021 38.1534 12.9007 37.9952 13.0631C37.8521 13.2174 37.6722 13.3332 37.4722 13.3997C37.2347 13.4729 36.9871 13.5085 36.7385 13.5054H31.1458V11.8197ZM36.7351 11.8197V8.97207H35.0022V11.8197H36.7351ZM28.7048 11.8197V10.1024H23.5492V11.8197H28.7048ZM31.1458 11.8197V13.5027H21.8224V11.8197H21.8278V7.64588C21.8274 7.59889 21.8368 7.55232 21.8556 7.50919C21.8743 7.46606 21.9019 7.42732 21.9366 7.39545C21.9718 7.35999 22.014 7.33208 22.0604 7.31344C22.1069 7.2948 22.1567 7.28583 22.2068 7.28707H23.1851C23.2318 7.28702 23.278 7.29663 23.3208 7.31529C23.3636 7.33395 23.402 7.36124 23.4337 7.39545C23.4707 7.42754 23.5004 7.46714 23.5208 7.51162C23.5412 7.55609 23.5518 7.60439 23.5519 7.65329V8.43285H28.7055C28.9327 8.41654 29.1608 8.44619 29.3762 8.52C29.5915 8.59381 29.7897 8.71026 29.9588 8.86234C30.2864 9.26113 30.4439 9.77217 30.3972 10.2855V11.8163L31.1458 11.8197ZM14.9825 11.8197H22.2669V13.5027H14.9825V11.8197ZM10.9592 15.2267C11.15 15.2204 11.3391 15.1884 11.5213 15.1318C11.6968 15.0879 11.8634 15.0144 12.0139 14.9144C12.1667 14.8087 12.2957 14.6725 12.3929 14.5145C12.526 14.3321 12.604 14.1156 12.6178 13.8904V7.64992C12.6166 7.60353 12.6245 7.55734 12.6412 7.51402C12.6579 7.47069 12.683 7.43109 12.7151 7.39747C12.7485 7.36195 12.7891 7.33391 12.8342 7.31522C12.8792 7.29653 12.9278 7.28762 12.9766 7.28909H13.9569C14.0041 7.28907 14.0508 7.29867 14.0942 7.31731C14.1375 7.33595 14.1766 7.36323 14.2089 7.39747C14.2427 7.4301 14.2693 7.46941 14.287 7.51288C14.3047 7.55636 14.3131 7.60303 14.3116 7.64992L14.2907 11.8237H14.9832V13.5067H14.2893C14.2457 13.9564 14.1355 14.3972 13.9623 14.8147C13.8189 15.1853 13.61 15.5273 13.3455 15.8245C13.097 16.1101 12.7961 16.3459 12.4591 16.5193C12.1105 16.7016 11.7341 16.8251 11.345 16.8848L11.3409 16.8902C11.2605 16.903 11.1923 16.9077 11.1234 16.9171C11.0545 16.9265 10.9842 16.9299 10.9126 16.9299H10.8356C10.8065 16.9299 10.7748 16.9198 10.7329 16.9151C10.6283 16.9058 10.5288 16.8658 10.4471 16.8C10.4105 16.7698 10.381 16.732 10.3607 16.6891C10.3404 16.6463 10.3297 16.5996 10.3296 16.5522V15.595C10.3285 15.5466 10.3372 15.4985 10.3554 15.4536C10.3735 15.4087 10.4006 15.3679 10.4349 15.3338C10.4685 15.299 10.509 15.2715 10.5537 15.253C10.5985 15.2346 10.6466 15.2257 10.6951 15.2267H10.9592ZM7.78655 5.28162C7.78917 5.39437 7.76607 5.50624 7.71899 5.60879C7.67691 5.70999 7.61462 5.80161 7.5359 5.87807C7.45743 5.95391 7.36589 6.01502 7.26566 6.05849C7.16087 6.1018 7.04872 6.12466 6.93528 6.12581C6.82374 6.12532 6.71345 6.10242 6.61099 6.05849C6.51282 6.01528 6.42367 5.95408 6.34818 5.87807C6.27005 5.80153 6.20844 5.7099 6.16711 5.60879C6.12069 5.50699 6.09667 5.39647 6.09667 5.28465C6.09667 5.17283 6.12069 5.06231 6.16711 4.96051C6.20835 4.85777 6.26993 4.76436 6.34818 4.68584C6.42265 4.60967 6.51308 4.55083 6.61302 4.51351C6.71416 4.46556 6.82536 4.44247 6.93731 4.44619C7.05116 4.44311 7.16419 4.46614 7.26768 4.51351C7.36862 4.55291 7.46054 4.61221 7.53793 4.68786C7.61678 4.7663 7.67903 4.85969 7.72102 4.96253C7.76636 5.06273 7.78874 5.17173 7.78655 5.28162ZM6.05631 11.8183H7.78655V8.97073H6.05631V11.8183ZM2.67826 11.8183H4.36391V9.15653C4.31548 8.64443 4.47183 8.13397 4.799 7.73609C4.9692 7.58421 5.168 7.46755 5.38385 7.39289C5.59969 7.31823 5.82827 7.28707 6.05631 7.30121H7.79061C8.0196 7.28666 8.24922 7.31748 8.46619 7.3919C8.68316 7.46631 8.88318 7.58284 9.05467 7.73474C9.38232 8.13242 9.53917 8.6429 9.49112 9.15518V11.642C9.4965 11.9267 9.46008 12.2106 9.38302 12.4848C9.32216 12.7009 9.21 12.8993 9.05602 13.0631C8.90788 13.2155 8.72569 13.3308 8.52432 13.3997C8.29196 13.4722 8.04961 13.5078 7.80614 13.5054H2.6715C2.42513 13.5081 2.17986 13.4724 1.94454 13.3997C1.74278 13.3312 1.56029 13.2158 1.41216 13.0631C1.25739 12.8997 1.14492 12.7012 1.08449 12.4848C1.00295 12.2096 0.964435 11.9235 0.97031 11.6366V11.0711C0.969206 11.0247 0.97776 10.9785 0.995433 10.9355C1.01311 10.8925 1.03952 10.8537 1.073 10.8213C1.14083 10.7537 1.23244 10.7151 1.32838 10.7136H2.30734C2.35731 10.7128 2.40694 10.7219 2.45334 10.7404C2.49974 10.7589 2.54198 10.7864 2.57759 10.8213C2.61129 10.8538 2.63802 10.8927 2.65614 10.9358C2.67426 10.9788 2.68339 11.0251 2.68298 11.0718L2.67826 11.8183Z" fill="#103F73"/>
<path d="M45.117 4.65383C45.1147 4.60222 45.1234 4.55072 45.1425 4.50269C45.1616 4.45466 45.1906 4.41119 45.2278 4.37513C45.2653 4.33662 45.3103 4.30604 45.36 4.28522C45.4096 4.2644 45.463 4.25377 45.5169 4.25395H46.5824C46.6348 4.25313 46.6867 4.26352 46.7347 4.28442C46.7828 4.30533 46.8257 4.33626 46.8607 4.37513C46.9346 4.44936 46.9768 4.54927 46.9783 4.65383V31.5143C46.9762 31.6182 46.9341 31.7172 46.8607 31.791C46.8238 31.8264 46.7802 31.8542 46.7324 31.8727C46.6846 31.8911 46.6336 31.9 46.5824 31.8987H45.5176C45.4111 31.9001 45.3079 31.8617 45.2284 31.791C45.192 31.7548 45.1634 31.7116 45.1444 31.664C45.1253 31.6164 45.1162 31.5655 45.1176 31.5143L45.117 4.65383ZM41.4153 30.0131V4.65383C41.4131 4.60155 41.4225 4.54943 41.443 4.50123C41.4634 4.45304 41.4943 4.40996 41.5335 4.37513C41.5693 4.33622 41.613 4.30531 41.6617 4.28443C41.7104 4.26354 41.7629 4.25316 41.8159 4.25395H42.8807C42.933 4.25364 42.9848 4.26427 43.0328 4.28514C43.0807 4.30601 43.1237 4.33667 43.159 4.37513C43.2288 4.45116 43.2667 4.55085 43.2651 4.65383V29.8098C43.2732 30.1232 43.2322 30.4359 43.1435 30.7368C43.0733 30.9734 42.9489 31.1905 42.78 31.3709C42.6209 31.5383 42.4227 31.6639 42.203 31.7364C41.9472 31.8143 41.6808 31.8527 41.4133 31.8502H40.5937V30.0131H41.4153ZM38.3588 22.8536C38.3624 22.977 38.3355 23.0993 38.2804 23.2098C38.2355 23.3203 38.1687 23.4206 38.0838 23.5046C37.9943 23.5857 37.8921 23.6517 37.7812 23.6999C37.6699 23.7481 37.5499 23.7733 37.4285 23.7739C37.3031 23.774 37.179 23.7488 37.0637 23.6999C36.9535 23.6547 36.8534 23.5884 36.7691 23.5046C36.6845 23.4181 36.6144 23.3185 36.5617 23.2098C36.5179 23.0959 36.4935 22.9755 36.4894 22.8536C36.4935 22.7309 36.5179 22.6097 36.5617 22.4948C36.6168 22.3877 36.6866 22.2887 36.7691 22.2006C36.8538 22.117 36.9538 22.0503 37.0637 22.0041C37.1792 21.9558 37.3032 21.9308 37.4285 21.9307C37.5498 21.9316 37.6697 21.9566 37.7812 22.0041C37.8918 22.0534 37.9939 22.1197 38.0838 22.2006C38.1679 22.2851 38.2347 22.385 38.2804 22.4948C38.3355 22.6063 38.3624 22.7295 38.3588 22.8536ZM38.3419 30.005H40.7167V31.8495H26.7174V30.005H36.4799V25.4576C36.4811 25.3547 36.5208 25.256 36.5914 25.1809C36.6278 25.1431 36.6716 25.1131 36.72 25.0928C36.7685 25.0726 36.8206 25.0624 36.8732 25.0631H37.9312C37.9863 25.0618 38.0412 25.0716 38.0925 25.0918C38.1438 25.112 38.1905 25.1423 38.2298 25.1809C38.3014 25.2553 38.3414 25.3545 38.3413 25.4576L38.3419 30.005ZM20.872 35.5838C20.7583 35.5801 20.6494 35.5372 20.5639 35.4626C20.5217 35.4314 20.4875 35.3908 20.464 35.344C20.4405 35.2973 20.4285 35.2456 20.4288 35.1933V34.1438C20.4278 34.0901 20.4387 34.0368 20.4608 33.9878C20.4828 33.9388 20.5155 33.8953 20.5565 33.8604C20.5934 33.822 20.6377 33.7915 20.6869 33.7707C20.736 33.75 20.7889 33.7395 20.8422 33.7399H21.0247C21.0922 33.7399 21.1598 33.7554 21.2314 33.7581C21.3152 33.7581 21.405 33.7581 21.4895 33.7581H21.7536C22.0046 33.7562 22.255 33.7337 22.5022 33.6907C22.7449 33.6495 22.977 33.561 23.1853 33.4302C23.4086 33.2781 23.5974 33.0808 23.7393 32.8513C23.9168 32.5403 24.0352 32.1993 24.0886 31.8455H22.1009C21.8307 31.8481 21.5617 31.8098 21.303 31.7317C21.0832 31.6575 20.8843 31.5322 20.7227 31.3662C20.5542 31.1854 20.4296 30.9684 20.3585 30.732C20.2745 30.4321 20.234 30.1218 20.2383 29.8104V27.0921C20.2111 26.8141 20.24 26.5335 20.3231 26.2668C20.4063 26.0001 20.5422 25.7527 20.7227 25.539C20.9095 25.373 21.1275 25.2455 21.3641 25.1638C21.6006 25.0821 21.851 25.0479 22.1009 25.0631H24.0021C24.2521 25.0465 24.5029 25.0801 24.7396 25.1618C24.9764 25.2436 25.1942 25.3719 25.3803 25.539C25.7343 25.9739 25.9024 26.53 25.8485 27.0874V30.0016H26.7187V31.8462H25.8472C25.7874 32.4061 25.6342 32.9522 25.3938 33.4618C25.1799 33.9104 24.8794 34.3126 24.5095 34.6453C24.137 34.9673 23.7041 35.2126 23.2359 35.367C22.721 35.5348 22.1819 35.6176 21.6401 35.612C21.5246 35.612 21.4023 35.612 21.2834 35.6073C21.1645 35.6026 21.0172 35.577 20.8781 35.577L20.872 35.5838ZM22.1009 30.005H23.9852V26.8908H22.1009V30.005ZM14.8766 33.7365C15.086 33.7281 15.2936 33.6942 15.4948 33.6355C15.6851 33.5866 15.8651 33.5043 16.0265 33.3925C16.1943 33.2788 16.3359 33.1307 16.442 32.9583C16.5853 32.758 16.6697 32.5218 16.6859 32.2764V25.3889C16.6835 25.3422 16.6914 25.2955 16.7092 25.2522C16.7269 25.209 16.754 25.1701 16.7886 25.1385C16.8614 25.0765 16.955 25.044 17.0507 25.0476H18.2594C18.3003 25.0447 18.3412 25.0514 18.379 25.0672C18.4168 25.083 18.4504 25.1074 18.4769 25.1385C18.5325 25.2099 18.561 25.2986 18.5573 25.3889L18.535 31.5715C18.5414 32.0897 18.4627 32.6054 18.3019 33.0983C18.1664 33.5292 17.949 33.9301 17.6615 34.2791C17.3794 34.6158 17.0355 34.8957 16.6481 35.1038C16.2338 35.3266 15.7847 35.4782 15.3198 35.5521H15.313C15.3073 35.5509 15.3013 35.5509 15.2955 35.5521C15.2191 35.5622 15.1408 35.579 15.0624 35.5844C14.987 35.5949 14.9109 35.5996 14.8347 35.5986H14.7327C14.696 35.5958 14.6596 35.5899 14.6239 35.5811C14.5121 35.57 14.4056 35.528 14.3165 35.4599C14.2756 35.4267 14.2423 35.3851 14.219 35.338C14.1956 35.2908 14.1828 35.2391 14.1814 35.1866V34.1391C14.1822 34.0864 14.1935 34.0345 14.2147 33.9863C14.236 33.938 14.2667 33.8946 14.305 33.8584C14.3415 33.819 14.386 33.7879 14.4355 33.767C14.485 33.7461 14.5384 33.7359 14.5922 33.7372L14.8766 33.7365ZM10.9371 21.5705C10.9392 21.4648 10.9829 21.3641 11.0587 21.2901C11.1345 21.2161 11.2364 21.1747 11.3425 21.1747H12.4126C12.5174 21.1759 12.6174 21.2181 12.6912 21.2922C12.765 21.3662 12.8067 21.4662 12.8072 21.5705V31.5109C12.8076 31.5627 12.7973 31.6139 12.7769 31.6615C12.7566 31.7091 12.7266 31.752 12.689 31.7876C12.6134 31.8564 12.515 31.8948 12.4126 31.8953H11.3418C11.2366 31.8971 11.1348 31.8585 11.0574 31.7876C11.0196 31.752 10.9894 31.7091 10.9688 31.6616C10.9481 31.614 10.9373 31.5628 10.9371 31.5109V21.5705ZM5.58019 24.0317C5.57986 24.1557 5.55267 24.2781 5.50047 24.3905C5.4521 24.4999 5.38332 24.599 5.29778 24.6827C5.21535 24.7664 5.11706 24.833 5.00862 24.8786C4.89474 24.9277 4.77193 24.9529 4.64785 24.9527C4.52614 24.9531 4.40571 24.9279 4.2945 24.8786C4.18376 24.8336 4.08315 24.767 3.99858 24.6827C3.91437 24.5986 3.84677 24.4995 3.79928 24.3905C3.75048 24.2772 3.7252 24.1551 3.72496 24.0317C3.72613 23.9087 3.75137 23.787 3.79928 23.6736C3.84745 23.5642 3.91496 23.4643 3.99858 23.3787C4.08398 23.2956 4.18438 23.2294 4.2945 23.1835C4.40592 23.1348 4.52618 23.1094 4.64785 23.1088C4.77189 23.1096 4.89453 23.135 5.00862 23.1835C5.11658 23.2297 5.21472 23.296 5.29778 23.3787C5.38347 23.4633 5.45225 23.5634 5.50047 23.6736C5.55171 23.7862 5.57886 23.9081 5.58019 24.0317ZM9.13323 31.5284V31.5183C9.12956 31.8893 9.07315 32.2578 8.96568 32.6129C8.63611 33.6555 7.92647 34.5373 6.97668 35.0842C6.65743 35.2645 6.31704 35.4047 5.96326 35.5016C5.59719 35.6049 5.21813 35.6552 4.83769 35.6511C4.19375 35.6497 3.55949 35.4948 2.98787 35.1994C2.49331 34.9406 2.065 34.5721 1.73596 34.1222C1.40629 33.6571 1.16726 33.1344 1.0313 32.5813C0.889667 31.9788 0.821612 31.3615 0.828615 30.7428V29.1945C0.828291 29.0898 0.869303 28.9892 0.942793 28.9144C0.978883 28.8763 1.02262 28.8462 1.07115 28.826C1.11969 28.8058 1.17195 28.796 1.22452 28.7973H2.3055C2.35793 28.7962 2.40994 28.8067 2.45783 28.828C2.50571 28.8493 2.54828 28.8809 2.5825 28.9205C2.65411 28.9973 2.69581 29.0971 2.70006 29.2019V30.7246C2.70006 30.9441 2.70006 31.177 2.71695 31.4153C2.73624 31.6504 2.77396 31.8836 2.82978 32.1128C2.8842 32.338 2.96398 32.5564 3.06759 32.7637C3.17214 32.9657 3.31376 33.1463 3.48512 33.2962C3.67653 33.4579 3.89809 33.5803 4.13708 33.6564C4.43388 33.7492 4.74353 33.7946 5.05456 33.791C5.45385 33.8058 5.85064 33.7223 6.20986 33.548C6.48186 33.4112 6.71438 33.2075 6.88547 32.9563C7.04741 32.7149 7.15632 32.4421 7.20503 32.1558C7.25593 31.8741 7.28148 31.5885 7.28138 31.3022V25.4677C7.28169 25.416 7.29264 25.365 7.31356 25.3177C7.33448 25.2705 7.36492 25.228 7.40299 25.193C7.43882 25.1552 7.48196 25.1251 7.5298 25.1044C7.57763 25.0837 7.62918 25.0728 7.68134 25.0725H8.74678C8.79916 25.0719 8.85114 25.0816 8.89969 25.1012C8.94824 25.1208 8.99239 25.1499 9.02956 25.1867C9.06673 25.2235 9.09617 25.2672 9.11617 25.3155C9.13618 25.3637 9.14634 25.4155 9.14607 25.4677L9.13323 31.5284Z" fill="#103F73"/>
<path d="M4.59566 47.0139V42.5432C4.59585 42.5269 4.59273 42.5107 4.5865 42.4955C4.58027 42.4804 4.57105 42.4667 4.55938 42.4552C4.54772 42.4437 4.53386 42.4347 4.51862 42.4286C4.50338 42.4226 4.48708 42.4196 4.47068 42.42H3.90114C3.88447 42.4194 3.86786 42.4221 3.85227 42.428C3.83668 42.4339 3.82244 42.4429 3.8104 42.4544C3.79836 42.4658 3.78877 42.4796 3.78219 42.4949C3.77561 42.5102 3.77217 42.5266 3.77209 42.5432V45.9819C3.77209 46.0236 3.75656 46.0425 3.73967 46.0425C3.72277 46.0425 3.70116 46.0236 3.68697 45.9886L2.14387 42.6294C2.0655 42.457 1.99186 42.42 1.85471 42.42H1.13721C1.10267 42.4197 1.06842 42.4263 1.03643 42.4393C1.00443 42.4522 0.975327 42.4714 0.95078 42.4956C0.926232 42.5198 0.906727 42.5486 0.893387 42.5803C0.880047 42.6121 0.873135 42.6461 0.873047 42.6805V47.1452C0.873126 47.1626 0.876715 47.1798 0.883602 47.1958C0.890489 47.2118 0.900533 47.2262 0.913137 47.2383C0.925741 47.2504 0.940649 47.2598 0.956974 47.266C0.973299 47.2722 0.990709 47.2751 1.00817 47.2744H1.56555C1.58265 47.2749 1.59967 47.2719 1.61555 47.2655C1.63142 47.2592 1.64583 47.2496 1.65786 47.2375C1.66989 47.2254 1.6793 47.211 1.6855 47.1951C1.69171 47.1792 1.69457 47.1622 1.69391 47.1452V43.8559C1.69391 43.8169 1.70743 43.8048 1.72837 43.8048C1.74931 43.8048 1.76823 43.8176 1.7858 43.8559L3.25863 47.0402C3.28598 47.1208 3.34164 47.1889 3.41537 47.232C3.4891 47.275 3.57595 47.2901 3.65994 47.2744H4.3315C4.40071 47.2739 4.46699 47.2466 4.51631 47.1982C4.56562 47.1498 4.59409 47.0842 4.59566 47.0152" fill="#103F73"/>
<path d="M9.80658 45.4781V42.543C9.80626 42.5259 9.80245 42.5091 9.7954 42.4935C9.78835 42.478 9.77819 42.464 9.76555 42.4525C9.75291 42.441 9.73806 42.4321 9.72188 42.4265C9.7057 42.4209 9.68855 42.4186 9.67146 42.4198H9.01815C9.00103 42.4185 8.98384 42.4207 8.96762 42.4263C8.9514 42.4319 8.93651 42.4407 8.92385 42.4523C8.91119 42.4638 8.90103 42.4778 8.89401 42.4934C8.88699 42.509 8.88325 42.5259 8.88302 42.543V45.4781C8.88302 46.224 8.69723 46.5747 7.98243 46.5747C7.26764 46.5747 7.07982 46.224 7.07982 45.4781V42.543C7.0794 42.526 7.07553 42.5092 7.06844 42.4937C7.06136 42.4782 7.0512 42.4642 7.03858 42.4527C7.02596 42.4412 7.01114 42.4324 6.99501 42.4267C6.97888 42.4211 6.96176 42.4187 6.94469 42.4198H6.30016C6.28316 42.419 6.26616 42.4215 6.25015 42.4273C6.23413 42.433 6.21942 42.4419 6.20686 42.4534C6.1943 42.4648 6.18414 42.4786 6.17696 42.494C6.16979 42.5094 6.16573 42.526 6.16504 42.543V45.4781C6.16504 46.8703 6.92105 47.3287 7.98919 47.3287C9.05733 47.3287 9.80793 46.8703 9.80793 45.4781" fill="#103F73"/>
<path d="M13.8861 43.9003C13.8861 44.4746 13.5726 44.6577 12.8875 44.6577C12.7734 44.6577 12.4038 44.6436 12.2957 44.6388V43.1639C12.4173 43.1511 12.7477 43.1369 12.8875 43.1369C13.551 43.1369 13.8861 43.3483 13.8861 43.8384V43.9003ZM14.9556 47.199C14.9567 47.181 14.9517 47.1633 14.9414 47.1485L13.9016 45.2366C14.177 45.1429 14.4139 44.9618 14.5761 44.721C14.7383 44.4803 14.8168 44.1932 14.7995 43.9037V43.8418C14.7995 42.7202 13.9111 42.3641 12.8882 42.3641C12.4541 42.3603 12.0203 42.3884 11.5904 42.4483C11.4553 42.4671 11.3789 42.5156 11.3789 42.6442V47.1478C11.3803 47.1826 11.3952 47.2155 11.4203 47.2396C11.4455 47.2637 11.4791 47.2771 11.514 47.2771H12.1727C12.1896 47.2775 12.2063 47.2744 12.2219 47.268C12.2375 47.2615 12.2515 47.2519 12.2631 47.2397C12.2747 47.2275 12.2836 47.2131 12.2892 47.1972C12.2948 47.1814 12.297 47.1646 12.2957 47.1478V45.3706C12.4538 45.378 12.7119 45.3975 12.8875 45.3975H12.9808L13.9347 47.1478C13.9658 47.2152 13.9962 47.2771 14.0699 47.2771H14.8806C14.8914 47.2785 14.9024 47.2774 14.9126 47.2737C14.9229 47.27 14.9321 47.2639 14.9395 47.2559C14.9468 47.2479 14.9521 47.2382 14.9549 47.2277C14.9578 47.2172 14.958 47.2062 14.9556 47.1956V47.199Z" fill="#103F73"/>
<path d="M18.5376 45.1741H17.3776L17.8505 43.2306C17.8762 43.1518 17.8931 43.1276 17.9559 43.1276C18.0188 43.1276 18.0438 43.1518 18.0647 43.2306L18.5376 45.1741ZM19.9706 47.1647C19.9706 47.1573 19.9666 47.1452 19.9666 47.1324L18.8795 43.0293C18.8169 42.8349 18.6939 42.6653 18.5284 42.545C18.3628 42.4247 18.1632 42.3599 17.9583 42.3599C17.7534 42.3599 17.5538 42.4247 17.3882 42.545C17.2227 42.6653 17.0997 42.8349 17.0371 43.0293L15.9507 47.1324C15.9507 47.1452 15.9453 47.1573 15.9453 47.1647C15.9452 47.1799 15.9482 47.195 15.9542 47.209C15.9603 47.2229 15.9692 47.2355 15.9804 47.2458C15.9916 47.2562 16.0048 47.264 16.0193 47.269C16.0337 47.2739 16.049 47.2758 16.0642 47.2745H16.7628C16.7937 47.2736 16.8233 47.2622 16.8468 47.2423C16.8702 47.2223 16.8862 47.195 16.8918 47.1647L17.1993 45.9207H18.7173L19.0254 47.1647C19.0311 47.1947 19.0468 47.2219 19.07 47.2419C19.0932 47.2618 19.1225 47.2733 19.1531 47.2745H19.8591C19.8737 47.2747 19.8882 47.2721 19.9018 47.2667C19.9154 47.2613 19.9277 47.2532 19.9381 47.243C19.9485 47.2328 19.9567 47.2206 19.9623 47.2071C19.9679 47.1937 19.9707 47.1793 19.9706 47.1647Z" fill="#103F73"/>
<path d="M24.9259 47.0139V42.5432C24.926 42.5267 24.9227 42.5104 24.9164 42.4951C24.91 42.4799 24.9006 42.4662 24.8887 42.4547C24.8768 42.4431 24.8628 42.4341 24.8473 42.4282C24.8319 42.4222 24.8154 42.4194 24.7989 42.42H24.2341C24.2005 42.4193 24.168 42.4318 24.1437 42.4549C24.1194 42.478 24.1052 42.5097 24.1043 42.5432V45.9819C24.1043 46.0236 24.0875 46.0425 24.0726 46.0425C24.0577 46.0425 24.0307 46.0236 24.0206 45.9886L22.4775 42.6294C22.3937 42.457 22.3194 42.42 22.1809 42.42H21.4695C21.3993 42.42 21.3318 42.4471 21.2814 42.4957C21.231 42.5444 21.2015 42.6106 21.1992 42.6805V47.1451C21.2006 47.1799 21.2155 47.2128 21.2407 47.2369C21.2658 47.261 21.2994 47.2744 21.3343 47.2744H21.8978C21.9149 47.2746 21.9319 47.2714 21.9478 47.2649C21.9636 47.2585 21.978 47.249 21.9902 47.237C22.0023 47.2249 22.0119 47.2106 22.0184 47.1949C22.025 47.1791 22.0283 47.1622 22.0282 47.1451V43.8559C22.0282 43.8169 22.0349 43.8048 22.062 43.8048C22.0735 43.8048 22.1012 43.8175 22.1214 43.8559L23.5929 47.0401C23.6198 47.1202 23.6748 47.188 23.7477 47.231C23.8207 47.274 23.9067 47.2894 23.9902 47.2744H24.6604C24.6949 47.2748 24.7293 47.2685 24.7614 47.2557C24.7935 47.2429 24.8227 47.2239 24.8474 47.1998C24.8722 47.1758 24.8919 47.1471 24.9055 47.1154C24.919 47.0837 24.9262 47.0497 24.9266 47.0152" fill="#103F73"/>
<path d="M30.7607 45.9001C30.7607 46.3592 30.4972 46.5733 29.6459 46.5733C29.5054 46.5733 29.2621 46.5612 29.1135 46.5612V45.1225H29.954C30.5749 45.1225 30.7613 45.4591 30.7613 45.8173L30.7607 45.9001ZM30.7323 43.8313C30.7323 44.1679 30.5613 44.4547 29.954 44.4547H29.1135V43.1272C29.2486 43.1191 29.4351 43.1124 29.5905 43.1124C30.4438 43.1124 30.7323 43.2814 30.7323 43.7432V43.8313ZM31.6653 45.9149V45.8018C31.6766 45.5897 31.6206 45.3795 31.5051 45.201C31.3897 45.0225 31.2206 44.8848 31.0221 44.8075C31.2124 44.7235 31.3727 44.5841 31.4818 44.4075C31.591 44.231 31.6439 44.0257 31.6335 43.8186V43.6893C31.6335 42.6997 30.7944 42.3604 29.5898 42.3604C29.2204 42.359 28.8513 42.3803 28.4845 42.4244C28.44 42.424 28.3959 42.4334 28.3553 42.4517C28.3147 42.47 28.2786 42.4969 28.2495 42.5306C28.2204 42.5642 28.1989 42.6037 28.1867 42.6464C28.1744 42.6891 28.1716 42.7339 28.1785 42.7778V46.9018C28.1785 47.1448 28.2832 47.2182 28.4987 47.2572C28.8789 47.3124 29.2631 47.3363 29.6472 47.3286C30.8829 47.3286 31.6653 46.957 31.6653 45.9149Z" fill="#103F73"/>
<path d="M35.3324 45.1744H34.1575L34.6392 43.2308C34.6602 43.1521 34.6744 43.1278 34.7453 43.1278C34.8162 43.1278 34.8331 43.1521 34.848 43.2308L35.3324 45.1744ZM36.7606 47.165C36.7575 47.1544 36.7551 47.1436 36.7532 47.1327L35.6594 43.0296C35.6173 42.8242 35.5002 42.6417 35.3309 42.5173C35.1615 42.393 34.9519 42.3356 34.7426 42.3564C34.5331 42.3339 34.3228 42.3907 34.1533 42.5153C33.9838 42.64 33.8674 42.8235 33.8271 43.0296L32.7387 47.1327C32.7387 47.1455 32.7266 47.1576 32.7266 47.165C32.7271 47.1803 32.7307 47.1953 32.7371 47.2092C32.7436 47.2231 32.7529 47.2355 32.7643 47.2458C32.7757 47.256 32.7891 47.2639 32.8036 47.2688C32.8181 47.2738 32.8335 47.2758 32.8488 47.2747H33.5515C33.5814 47.2722 33.6097 47.2602 33.6322 47.2404C33.6547 47.2207 33.6702 47.1942 33.6765 47.165L33.9731 45.9209H35.5074L35.8101 47.165C35.8152 47.1934 35.8295 47.2195 35.8506 47.2392C35.8718 47.259 35.8988 47.2714 35.9276 47.2747H36.6309C36.6467 47.2763 36.6627 47.2747 36.6778 47.27C36.693 47.2652 36.7071 47.2575 36.7192 47.2473C36.7313 47.2371 36.7412 47.2245 36.7483 47.2104C36.7554 47.1962 36.7596 47.1808 36.7606 47.165Z" fill="#103F73"/>
<path d="M41.718 47.0141V42.5434C41.7177 42.5269 41.7141 42.5105 41.7075 42.4953C41.7008 42.4801 41.6912 42.4664 41.6792 42.455C41.6672 42.4435 41.6531 42.4345 41.6376 42.4286C41.6221 42.4226 41.6055 42.4198 41.5889 42.4202H41.0255C41.0084 42.4193 40.9914 42.4218 40.9753 42.4275C40.9593 42.4332 40.9445 42.4421 40.932 42.4536C40.9194 42.465 40.9092 42.4789 40.9021 42.4943C40.8949 42.5097 40.8909 42.5264 40.8903 42.5434V45.9821C40.8903 46.0238 40.8734 46.0427 40.8545 46.0427C40.8356 46.0427 40.8214 46.0238 40.8086 45.9888L39.2614 42.6289C39.1777 42.4566 39.1094 42.4195 38.9716 42.4195H38.2595C38.2245 42.4186 38.1896 42.4246 38.157 42.4372C38.1243 42.4498 38.0945 42.4688 38.0693 42.4931C38.0441 42.5174 38.0241 42.5464 38.0103 42.5785C37.9966 42.6106 37.9894 42.6452 37.9893 42.6801V47.1447C37.9907 47.1795 38.0055 47.2123 38.0307 47.2364C38.0559 47.2605 38.0895 47.274 38.1244 47.2739H38.6932C38.7098 47.2736 38.7262 47.27 38.7414 47.2633C38.7565 47.2565 38.7702 47.2469 38.7816 47.2349C38.793 47.2228 38.8018 47.2087 38.8077 47.1932C38.8135 47.1777 38.8162 47.1612 38.8155 47.1447V43.8561C38.8155 43.8171 38.8304 43.805 38.8473 43.805C38.8608 43.8061 38.8735 43.8118 38.8834 43.8211C38.8932 43.8304 38.8995 43.8427 38.9013 43.8561L40.3701 47.0403C40.3998 47.1225 40.458 47.1912 40.5343 47.2342C40.6105 47.2772 40.6997 47.2915 40.7856 47.2746H41.4504C41.5204 47.2747 41.5876 47.2477 41.638 47.1994C41.6884 47.151 41.718 47.0851 41.7207 47.0154" fill="#103F73"/>
<path d="M46.8976 47.2156C46.8931 47.186 46.881 47.1582 46.8624 47.1348L45.1531 44.7665L46.8503 42.6015C46.8731 42.5701 46.8886 42.5339 46.8955 42.4958C46.8955 42.4514 46.8604 42.4197 46.7645 42.4197H46.0193C45.9429 42.4197 45.8889 42.4244 45.8605 42.4716L44.2431 44.6258V42.5429C44.2402 42.5084 44.224 42.4763 44.1979 42.4534C44.1719 42.4304 44.138 42.4184 44.1032 42.4197H43.4465C43.4298 42.4186 43.4131 42.4209 43.3974 42.4267C43.3817 42.4324 43.3674 42.4414 43.3554 42.453C43.3434 42.4646 43.334 42.4787 43.3278 42.4942C43.3217 42.5096 43.3188 42.5263 43.3195 42.5429V47.1449C43.3186 47.1619 43.3212 47.1789 43.3272 47.1948C43.3332 47.2107 43.3425 47.2252 43.3544 47.2374C43.3664 47.2496 43.3807 47.2591 43.3966 47.2654C43.4125 47.2718 43.4295 47.2747 43.4465 47.2741H44.1032C44.139 47.2754 44.1737 47.2625 44.2 47.2383C44.2262 47.2141 44.2417 47.1805 44.2431 47.1449V44.9705L45.7497 47.2041C45.7828 47.2573 45.8274 47.2714 45.9125 47.2714H46.7908C46.8584 47.2714 46.8962 47.2546 46.8962 47.2156" fill="#103F73"/>
<path d="M73.6602 35.2139H76.0694L78.8293 41.6429V35.2139H80.6318V44.0327H78.2185L75.4397 37.5896V44.0327H73.6608L73.6602 35.2139Z" fill="white"/>
<path d="M82.3805 35.2139H84.4844V40.8546C84.4429 41.3485 84.5404 41.8441 84.7661 42.2858C84.8775 42.4261 85.0225 42.5362 85.1878 42.606C85.3531 42.6759 85.5333 42.7033 85.712 42.6857C85.8939 42.7046 86.0777 42.6779 86.2466 42.6081C86.4156 42.5383 86.5644 42.4275 86.6794 42.2858C86.9025 41.8433 86.9988 41.3481 86.9578 40.8546V35.2139H88.9556V40.627C89.0379 41.5888 88.75 42.5457 88.1502 43.3036C87.4458 43.8652 86.5708 44.1716 85.6686 44.1726C84.7665 44.1735 83.8908 43.8691 83.1852 43.309C82.5887 42.5474 82.3016 41.5899 82.3812 40.627L82.3805 35.2139Z" fill="white"/>
<path d="M90.7275 35.214H93.5354C94.3303 35.1554 95.1238 35.3458 95.8048 35.7586C96.056 35.9593 96.2543 36.218 96.3823 36.5124C96.5104 36.8067 96.5645 37.1278 96.5398 37.4477C96.5622 37.9267 96.4112 38.3978 96.1142 38.7752C95.7951 39.1365 95.3582 39.3737 94.8805 39.445C95.4164 39.5081 95.9126 39.7577 96.2817 40.1499C96.6097 40.5718 96.7728 41.0981 96.7405 41.6309C96.7666 41.9763 96.7069 42.3228 96.5668 42.6397C96.4267 42.9567 96.2105 43.2345 95.9372 43.4485C95.1859 43.8938 94.3152 44.0979 93.4435 44.0329H90.7275V35.214ZM92.7301 36.6863V38.8365H93.203C93.5591 38.8642 93.9146 38.7763 94.2164 38.586C94.3281 38.485 94.4146 38.3594 94.4689 38.2191C94.5233 38.0788 94.5439 37.9278 94.5292 37.7782C94.5444 37.6239 94.5234 37.4682 94.4677 37.3234C94.412 37.1786 94.3232 37.0487 94.2083 36.9441C93.9011 36.7434 93.5352 36.6514 93.1692 36.6829L92.7301 36.6863ZM92.7301 40.1936V42.5451H93.2435C93.6362 42.5771 94.0288 42.4827 94.3637 42.2758C94.4868 42.1655 94.5824 42.0282 94.6429 41.8746C94.7035 41.721 94.7272 41.5555 94.7123 41.3912C94.7282 41.2223 94.7051 41.0521 94.6446 40.8935C94.5842 40.7349 94.4881 40.5922 94.3637 40.4764C94.0319 40.2614 93.6378 40.1627 93.2435 40.1956L92.7301 40.1936Z" fill="white"/>
</svg>
