<svg width="189" height="50" viewBox="0 0 189 50" fill="none" xmlns="http://www.w3.org/2000/svg">
<path d="M123.389 18.4076C123.389 15.7555 124.927 14.4183 127.024 14.4183C128.898 14.4183 130.817 15.7779 130.817 18.9006C130.817 22.4267 128.585 23.0468 127.562 23.0468C125.248 23.0468 123.396 21.4854 123.396 18.4076M122.067 18.7437C122.067 20.081 122.134 21.844 120.821 22.6658C120.417 22.9123 119.977 23.0468 119.529 23.0692V23.5623C120.955 23.4502 122.224 22.6957 122.694 21.2016C123.471 22.6284 125.009 23.5623 127.017 23.5623C129.846 23.5623 132.123 21.5078 132.123 18.5644C132.034 15.8676 130.227 13.9476 127.106 13.9476C123.986 13.9476 122.067 16.3307 122.067 18.7437ZM112.422 14.4631C114.609 14.4631 115.722 16.8686 115.722 18.9454C115.722 21.2837 114.341 23.0692 112.086 23.0692H104.262V17.9593C104.262 16.3531 105.218 14.4556 106.957 14.4556H112.414L112.422 14.4631ZM112.668 13.9924C112.265 13.97 112.176 13.97 112.086 13.97H106.957C105.89 13.97 104.971 14.7694 104.262 15.509C104.262 14.4407 104.329 14.1493 105.039 14.1493C105.106 14.1493 105.151 14.1269 105.151 14.0821C105.151 14.0149 105.061 13.9476 104.949 13.9476H102.232C102.12 13.9476 102.03 14.0373 102.03 14.0821C102.03 14.1269 102.052 14.1493 102.12 14.1493C102.68 14.1493 103.03 14.2166 103.075 14.8889C103.098 15.2699 103.098 17.3617 103.098 19.4385V23.0767H100.537V23.5697H112.191C113.975 23.5697 115.49 22.5238 116.311 21.097C116.759 22.6807 118.051 23.4577 119.522 23.5697V23.0767C116.849 22.9646 116.983 20.1781 116.983 18.5719C116.983 15.9423 115.065 14.2689 112.661 13.9999L112.668 13.9924ZM98.0211 17.4962V14.8665C98.0211 14.4631 98.0883 14.2838 98.4691 14.1942C98.7602 14.1269 98.8946 14.1941 98.8946 14.0373C98.8946 13.9924 98.8946 13.9476 98.693 13.9476C97.7822 13.9476 96.8192 13.97 95.8636 13.97C95.8188 13.9924 95.7964 13.9924 95.7964 14.0373C95.7964 14.1717 95.9308 14.1942 96.0204 14.1942C96.11 14.1942 96.1996 14.1717 96.2668 14.1717C96.8043 14.1717 96.8715 14.5976 96.8715 14.8889V21.0671C96.8715 24.9443 96.3787 24.8995 95.0424 26.1994C96.7147 25.5718 98.0062 24.3915 98.0062 22.606C98.0062 22.494 98.0062 22.4043 97.9838 22.3147C98.6109 23.0991 99.5441 23.4726 100.544 23.5623V23.0692C98.5363 22.9571 98.0958 21.2613 98.0286 19.8344V17.4962H98.0211ZM90.0406 10.6307C89.4807 10.6307 89.085 11.0789 89.085 11.5869C89.085 12.0949 89.4881 12.5431 90.0406 12.5431C90.5557 12.5431 90.9962 12.1173 90.9962 11.5869C90.9962 11.0565 90.5482 10.6307 90.0406 10.6307ZM86.3228 18.4076C86.3228 15.7779 87.7935 14.3958 89.9809 14.3958C92.1682 14.3958 93.7733 16.2486 93.7733 18.9006C93.7733 21.7992 92.1459 23.0468 90.3168 23.0468C88.3086 23.0468 86.3303 21.5751 86.3303 18.4076H86.3228ZM90.2422 23.5623V23.5399C93.2731 23.4054 95.035 21.0671 95.035 18.542C95.035 15.5986 92.7804 13.9476 90.0406 13.9476C85.7853 13.9476 84.979 17.3617 84.979 18.7437C84.979 20.3051 85.7405 22.1354 87.6069 23.0692H81.3658C78.8275 23.0692 77.7973 20.97 77.7973 18.9006C77.7973 18.2059 77.9316 17.5186 78.1556 16.9134H76.8193C76.6177 17.4289 76.5282 17.9817 76.5282 18.542C76.5282 21.5751 78.8424 23.5623 81.3658 23.5623H90.2347H90.2422ZM70.5633 22.4043C70.5409 23.0543 70.4513 23.3381 69.8018 23.3606C69.7122 23.3606 69.6898 23.383 69.6898 23.4278C69.6898 23.4726 69.7794 23.5623 69.8914 23.5623H72.6088C72.7208 23.5623 72.788 23.4726 72.788 23.4278C72.788 23.383 72.7656 23.3606 72.6984 23.3606C71.9593 23.3381 71.7428 23.2933 71.7428 22.0906C71.7204 11.8559 71.698 10.7129 71.7652 9.62215C71.7876 8.94979 72.1683 8.92739 72.6984 8.90498C72.7656 8.90498 72.788 8.88257 72.788 8.86015C72.788 8.79292 72.7208 8.72568 72.6088 8.72568H69.8914C69.7794 8.72568 69.6898 8.79292 69.6898 8.86015C69.6898 8.88257 69.7122 8.90498 69.8018 8.90498C70.3169 8.92739 70.5409 9.06185 70.5633 9.62215V22.4043ZM63.8966 23.5623C68.0848 23.2261 67.5995 19.6402 67.5995 16.5399V9.84627C67.5995 9.1515 67.7115 8.91244 68.3759 8.91244C68.4207 8.91244 68.4655 8.86762 68.4655 8.8228C68.4655 8.73315 68.4207 8.71075 68.2863 8.71075H65.5465C65.4345 8.71075 65.3449 8.71074 65.3449 8.8228C65.3449 8.93486 65.8601 8.93485 65.972 8.95726C66.4648 9.06932 66.42 9.42791 66.42 10.16C66.4647 10.2721 66.4647 15.6883 66.4647 15.8676V19.2592C66.4647 20.8654 66.196 22.9198 63.9041 23.0767V23.5697L63.8966 23.5623ZM56.7895 14.4631C58.9769 14.4631 60.0893 16.8686 60.0893 18.9454C60.0893 21.2837 58.7082 23.0692 56.4536 23.0692H48.6298V17.9593C48.6298 16.3531 49.5854 14.4556 51.3248 14.4556H56.7821L56.7895 14.4631ZM57.0359 13.9924C56.6328 13.97 56.5432 13.97 56.4536 13.97H51.3248C50.2573 13.97 49.339 14.7694 48.6298 15.509C48.6298 14.4407 48.697 14.1493 49.4062 14.1493C49.4734 14.1493 49.5182 14.1269 49.5182 14.0821C49.5182 14.0149 49.4286 13.9476 49.3166 13.9476H46.5992C46.4872 13.9476 46.3977 14.0373 46.3977 14.0821C46.3977 14.1269 46.4201 14.1493 46.4872 14.1493C47.0471 14.1493 47.398 14.2166 47.4428 14.8889C47.4652 15.2699 47.4652 17.3617 47.4652 19.4385V23.0767H44.9046V23.5697H56.5581C58.3424 23.5697 59.8578 22.5238 60.679 21.097C61.127 22.6807 62.4185 23.4577 63.8892 23.5697V23.0767C61.2165 22.9646 61.3509 20.1781 61.3509 18.5719C61.3509 15.9423 59.4323 14.2689 57.0284 13.9999L57.0359 13.9924ZM42.3738 19.7971C42.3514 17.653 40.5 15.8526 38.3649 15.8526C36.0655 15.8526 33.7512 15.9423 31.3249 15.763C29.9662 15.6733 28.5179 15.3372 27.7789 14.0672C28.1372 14.6499 28.7568 16.3905 30.5187 16.8313C32.8554 17.2123 35.3787 17.033 37.7378 17.033C38.3649 17.033 38.9621 17.033 39.5892 17.0554C40.7687 17.145 41.351 18.3478 41.351 19.4609C41.351 21.0895 40.5074 23.0767 38.8352 23.0767H27.4429V23.5697H39.1189C40.3432 23.5697 41.351 22.6359 41.9035 21.6274C42.4634 22.8526 43.6205 23.4577 44.912 23.5697V23.0767C42.9262 22.987 42.3962 21.2912 42.3738 19.7971ZM27.4355 23.0692C25.1212 22.9123 24.8972 20.8355 24.8972 19.2293C24.8972 17.2421 24.9196 12.2294 24.9196 9.61468C24.9196 9.09921 25.1212 8.89751 25.8752 8.89751C25.92 8.89751 25.9648 8.85268 25.9648 8.80786C25.9648 8.6958 25.8752 8.6958 25.7632 8.6958H23.0682C22.9338 8.6958 22.8666 8.71821 22.8666 8.80786C22.8666 8.91991 23.4489 8.94233 23.5385 9.03197C23.7625 9.23368 23.7401 9.56986 23.7401 10.1451V17.907C23.7401 20.6039 23.8297 23.256 27.4429 23.5473V23.0543L27.4355 23.0692ZM20.8883 17.4962V15.113C20.8883 14.5303 21.0226 14.1568 21.6273 14.1568C21.6945 14.1568 21.7617 14.1344 21.7617 14.0447C21.7617 13.9999 21.7393 13.9551 21.5602 13.9551C20.627 13.9551 19.6415 13.9775 18.7084 13.9775C18.6785 13.9924 18.6636 14.0149 18.6636 14.0447C18.6636 14.224 19.1339 14.1568 19.2011 14.2016C19.6714 14.2016 19.761 14.7843 19.761 15.1354C19.761 15.6733 19.7386 17.6082 19.7386 21.0447C19.7386 24.4811 19.2907 25.1012 17.932 26.1994C19.3355 25.7287 20.3582 24.7053 20.6942 23.3904C20.8285 22.875 20.8957 21.6274 20.8957 20.2005V17.5036L20.8883 17.4962ZM3.38929 23.2933C4.08358 23.5398 4.65842 23.5847 5.41989 23.5847H14.356C14.9831 23.5847 15.5803 23.5847 16.2074 23.4054C17.2526 23.114 17.9021 22.3371 17.9021 21.4406C17.9021 20.9251 17.6781 20.3723 17.1854 19.8569C16.0507 18.6765 14.2664 18.6989 12.6614 18.6989C11.6834 18.6989 10.7203 18.7213 9.74238 18.7213C8.89878 18.6093 7.06975 18.049 7.06975 16.8014C7.06975 15.9796 8.15971 15.1728 9.16754 15.128C9.68266 15.128 10.2351 15.1504 10.795 15.1504C11.8178 15.1504 12.8704 15.0607 13.6916 14.4556C14.7815 13.6339 15.4758 12.1771 15.4758 12.1323C14.6994 13.5591 12.9824 13.8505 11.3549 13.9177C10.1978 13.9626 8.86146 14.0074 7.85362 14.6797C7.09215 15.1728 6.5845 15.9497 6.5845 16.8014C6.5845 17.1376 6.65169 17.4513 6.83086 17.78C7.45795 19.0052 8.48072 19.6327 9.68265 19.6551H14.7218C16.0581 19.6551 17.3497 20.5666 17.3497 21.4182C17.3497 21.8216 17.0809 22.2624 16.4389 22.6658C15.8118 23.0468 15.1026 23.114 14.3859 23.114C11.2205 23.114 8.30155 23.0916 5.09141 23.0916C2.59796 23.0916 1.29897 21.1044 1.29897 18.9454C1.29897 18.2731 1.43335 17.5858 1.67971 16.9359H0.343398C0.141831 17.4513 0.0522461 18.0266 0.0522461 18.6093C0.0522461 20.97 1.54533 22.6658 3.39676 23.2933H3.38929Z" fill="#002C4B"/>
<path d="M121.089 40.7292C121.089 42.2905 121.089 43.5605 120.985 44.2329C120.933 44.7185 120.88 45.0173 120.552 45.0995C120.417 45.1518 120.201 45.1816 120.037 45.1816C119.955 45.1816 119.902 45.2638 119.902 45.3161C119.902 45.4207 120.007 45.4506 120.171 45.4506C120.686 45.4506 121.709 45.3983 121.843 45.3983C121.948 45.3983 122.978 45.4506 123.814 45.4506C124.001 45.4506 124.083 45.3983 124.083 45.3161C124.083 45.2638 124.031 45.1816 123.949 45.1816C123.784 45.1816 123.516 45.1518 123.277 45.0995C122.762 45.0173 122.709 44.7185 122.627 44.2329C122.545 43.5605 122.545 42.2905 122.545 40.7292V39.1379H122.627C123.433 40.0792 126.965 43.8295 127.719 44.4271C128.443 44.965 128.906 45.346 129.764 45.4282C130.145 45.4581 130.466 45.458 130.921 45.458H131.787C132.086 45.458 132.168 45.4058 132.168 45.3236C132.168 45.2414 132.064 45.1891 131.952 45.1891C131.84 45.1891 131.362 45.1368 130.899 44.9725C130.115 44.6512 129.928 44.4346 128.525 43.1646C127.823 42.5445 124.322 39.0408 123.889 38.5552C124.24 38.1518 127.121 35.425 127.525 35.0216C128.279 34.3194 128.6 33.9459 129.279 33.6471C129.63 33.5126 129.981 33.4304 130.22 33.4304C130.354 33.4304 130.384 33.3781 130.384 33.2959C130.384 33.2138 130.332 33.1615 130.137 33.1615C129.734 33.1615 128.629 33.2138 128.517 33.2138C128.114 33.2138 127.599 33.1615 127.278 33.1615C127.144 33.1615 127.062 33.2138 127.062 33.2959C127.062 33.3482 127.114 33.4304 127.226 33.4304C127.36 33.4603 127.442 33.5649 127.442 33.7516C127.442 34.0206 126.987 34.4539 126.524 34.9096C125.875 35.5819 122.889 38.5254 122.62 38.8466H122.538V37.8754C122.538 35.3429 122.538 34.8797 122.59 34.3717C122.62 33.8039 122.754 33.5649 123.18 33.4827C123.396 33.4304 123.478 33.4304 123.583 33.4304C123.665 33.4304 123.717 33.3781 123.717 33.2959C123.717 33.2138 123.635 33.1615 123.478 33.1615C122.963 33.1615 121.94 33.2138 121.806 33.2138C121.724 33.2138 120.671 33.1615 119.917 33.1615C119.731 33.1615 119.648 33.2138 119.648 33.2959C119.648 33.3781 119.731 33.4304 119.783 33.4304C119.947 33.4304 120.216 33.4603 120.35 33.4827C120.918 33.5649 121 33.8039 121.052 34.3717C121.082 34.8872 121.082 35.3429 121.082 37.8754V40.7366L121.089 40.7292ZM105.621 35.5745C106.136 36.1422 108.047 38.1369 109.988 40.1614C111.743 42.0216 114.169 44.4196 114.356 44.584C115.296 45.4207 115.46 45.5552 115.625 45.5552C115.729 45.5552 115.759 45.473 115.759 44.3972L115.811 34.9021C115.811 33.9309 115.841 33.6097 116.401 33.4752C116.565 33.4454 116.7 33.4453 116.782 33.4453C116.916 33.4453 116.998 33.3408 116.998 33.281C116.998 33.1764 116.834 33.1764 116.677 33.1764C115.976 33.1764 115.438 33.2063 115.251 33.2063C115.065 33.2063 114.251 33.1764 113.497 33.1764C113.31 33.1764 113.176 33.1764 113.176 33.281C113.176 33.3333 113.176 33.4453 113.31 33.4453C113.445 33.4453 113.825 33.4752 114.117 33.5275C114.632 33.6097 114.736 33.9832 114.766 35.0366L114.93 43.1571C114.415 42.6192 112.638 40.6769 110.966 38.9736C108.353 36.3066 105.927 33.7143 105.658 33.4453C105.472 33.2586 105.203 32.9598 105.009 32.9598C104.874 32.9598 104.792 33.1241 104.792 33.7666V43.0451C104.792 44.5317 104.71 44.9575 104.307 45.092C104.061 45.1742 103.74 45.1742 103.605 45.1742C103.523 45.1742 103.471 45.2265 103.471 45.3086C103.471 45.4132 103.575 45.4431 103.74 45.4431C104.494 45.4431 105.225 45.3908 105.382 45.3908C105.516 45.3908 106.188 45.4431 107.136 45.4431C107.323 45.4431 107.457 45.4132 107.457 45.3086C107.457 45.2265 107.375 45.1742 107.293 45.1742C107.159 45.1742 106.778 45.1742 106.457 45.092C106.002 44.9575 105.867 44.5765 105.808 43.2318L105.621 35.5745ZM94.1092 40.2436C94.057 40.2436 94.0271 40.2137 94.057 40.139L95.6173 35.6865C95.7218 35.44 95.8039 35.44 95.886 35.6865L97.5583 40.139C97.5881 40.2212 97.5881 40.2436 97.506 40.2436H94.1092ZM91.683 43.6651C91.362 44.4719 91.0335 45.0397 90.2795 45.1219C90.1451 45.1518 89.8988 45.1742 89.7644 45.1742C89.6823 45.1742 89.63 45.2265 89.63 45.3086C89.63 45.3908 89.7345 45.4431 89.951 45.4431C90.6229 45.4431 91.4889 45.3908 91.6457 45.3908C91.8323 45.3908 92.7505 45.4431 93.1537 45.4431C93.288 45.4431 93.3926 45.4132 93.3926 45.3086C93.3926 45.2265 93.3403 45.1742 93.2059 45.1742H93.0715C92.7729 45.1742 92.5042 45.0696 92.5042 44.7409C92.5042 44.4421 92.5863 44.0386 92.7431 43.6352L93.6837 41.0429C93.7136 40.9608 93.7882 40.9085 93.8704 40.9085H97.7225C97.827 40.9085 97.8569 40.9383 97.8868 41.0131L99.3948 44.7334C99.4993 45.0023 99.3425 45.1368 99.2305 45.1667C99.1484 45.1966 99.126 45.1966 99.126 45.2713C99.126 45.3759 99.3948 45.3759 99.7158 45.4058C100.873 45.4356 102.112 45.4356 102.359 45.4356C102.545 45.4356 102.739 45.4058 102.739 45.3012C102.739 45.1966 102.635 45.1667 102.523 45.1667C102.359 45.1667 102.12 45.1667 101.873 45.0845C101.493 44.95 101.037 44.7334 100.447 43.3065C99.4246 40.8263 96.7296 34.1401 96.4086 33.4603C96.2444 33.0793 96.1921 32.8701 96.0055 32.8701C95.901 32.8701 95.8412 32.9523 95.6247 33.4902L91.6606 43.6576L91.683 43.6651ZM82.1422 39.108C82.1422 39.0259 82.172 39.0035 82.2243 39.0035C82.493 39.0035 83.3292 39.0035 83.5457 39.0334C83.9488 39.1155 84.4863 39.1155 85.0537 39.4666C86.3751 40.3034 86.6737 41.7078 86.6737 42.4325C86.6737 44.5093 85.3299 44.9127 84.2175 44.9127C83.8965 44.9127 83.1948 44.8828 82.7319 44.6961C82.2168 44.4495 82.2168 44.2403 82.1422 43.4858V39.1155V39.108ZM82.1422 33.9309C82.1422 33.8488 82.1944 33.7965 82.3587 33.7666C82.5976 33.7143 83.0305 33.6844 83.1948 33.6844C84.8894 33.6844 85.5912 35.059 85.5912 36.2991C85.5912 37.0835 85.2926 37.6214 84.9417 38.0547C84.5908 38.4357 84.2176 38.4581 83.2694 38.4581C82.6498 38.4581 82.3512 38.4058 82.2467 38.3759C82.1646 38.3461 82.1422 38.3236 82.1422 38.2116V33.9235V33.9309ZM80.6939 40.7292C80.6939 42.2905 80.6939 43.5605 80.5893 44.2329C80.5371 44.7185 80.5072 45.0995 80.1564 45.1518C80.022 45.1816 79.8055 45.2339 79.6412 45.2339C79.5591 45.2339 79.5069 45.2638 79.5069 45.3161C79.5069 45.4207 79.6114 45.4506 79.7756 45.4506C80.0444 45.4506 80.4475 45.4506 80.7984 45.4207C81.1194 45.4207 81.4479 45.3908 81.4703 45.3908C81.5524 45.3908 82.0376 45.4207 82.5752 45.4207C83.0903 45.473 83.7099 45.473 84.0011 45.473C86.8827 45.473 88.234 43.695 88.234 41.8871C88.234 40.0792 86.5617 38.8914 85.2702 38.5179C86.1362 37.7335 86.9648 36.9565 86.9648 35.6566C86.9648 34.7901 86.2407 33.1764 83.4337 33.1764C82.6498 33.1764 81.8734 33.2063 81.4628 33.2063C81.3807 33.2063 80.2758 33.1764 79.5218 33.1764C79.3352 33.1764 79.253 33.2063 79.253 33.3109C79.253 33.3632 79.3352 33.3931 79.3874 33.3931C79.5517 33.3931 79.8204 33.4229 79.9548 33.4453C80.5222 33.5275 80.6043 33.8264 80.6565 34.3642C80.6864 34.9021 80.6864 35.3653 80.6864 37.8679V40.7292H80.6939ZM65.1956 40.2436C65.1434 40.2436 65.1135 40.2137 65.1434 40.139L66.7036 35.6865C66.8082 35.44 66.8903 35.44 66.9724 35.6865L68.6447 40.139C68.6745 40.2212 68.6745 40.2436 68.5924 40.2436H65.1956ZM62.7694 43.6651C62.4483 44.4719 62.1199 45.0397 61.3659 45.1219C61.2315 45.1518 60.9851 45.1742 60.8507 45.1742C60.7686 45.1742 60.7164 45.2265 60.7164 45.3086C60.7164 45.3908 60.8209 45.4431 61.0374 45.4431C61.7093 45.4431 62.5753 45.3908 62.732 45.3908C62.9187 45.3908 63.8369 45.4431 64.2401 45.4431C64.3744 45.4431 64.4864 45.4132 64.4864 45.3086C64.4864 45.2265 64.4342 45.1742 64.2998 45.1742H64.1654C63.8668 45.1742 63.598 45.0696 63.598 44.7409C63.598 44.4421 63.6801 44.0386 63.8369 43.6352L64.7776 41.0429C64.8074 40.9608 64.8821 40.9085 64.9642 40.9085H68.8164C68.9209 40.9085 68.9507 40.9383 68.9806 41.0131L70.4886 44.7334C70.5931 45.0023 70.4364 45.1368 70.3244 45.1667C70.2423 45.1966 70.2199 45.1966 70.2199 45.2713C70.2199 45.3759 70.4886 45.3759 70.8096 45.4058C71.9668 45.4356 73.206 45.4356 73.4524 45.4356C73.639 45.4356 73.8331 45.4058 73.8331 45.3012C73.8331 45.1966 73.7286 45.1667 73.6166 45.1667C73.4524 45.1667 73.2135 45.1667 72.9671 45.0845C72.5864 44.95 72.131 44.7334 71.5412 43.3065C70.5185 40.8263 67.8235 34.1401 67.495 33.4603C67.3307 33.0793 67.2785 32.8701 67.0919 32.8701C66.9873 32.8701 66.9276 32.9523 66.7111 33.4902L62.747 43.6576L62.7694 43.6651ZM52.8553 34.043C52.8553 33.9384 52.9075 33.8786 52.9897 33.8562C53.1539 33.8039 53.6914 33.7516 54.1767 33.7516C55.9833 33.7516 57.0882 34.9096 57.0882 36.964C57.0882 38.2041 56.6552 39.0408 56.0878 39.4143C55.6847 39.6833 55.2218 39.7132 54.8187 39.7132C54.0647 39.7132 53.1987 39.6086 52.9598 39.4666C52.8777 39.4144 52.8553 39.3621 52.8553 39.25V34.043ZM51.3995 40.7292C51.3995 42.2905 51.3995 43.5904 51.295 44.2329C51.2427 44.7185 51.2129 45.0173 50.862 45.0995C50.7276 45.1518 50.5111 45.1816 50.3469 45.1816C50.2648 45.1816 50.2125 45.2638 50.2125 45.3161C50.2125 45.4207 50.317 45.4506 50.4813 45.4506C50.9964 45.4506 52.1236 45.3983 52.1535 45.3983C52.2356 45.3983 53.2883 45.4506 54.199 45.4506C54.3857 45.4506 54.4678 45.3983 54.4678 45.3161C54.4678 45.2638 54.4379 45.1816 54.3334 45.1816C54.1692 45.1816 53.8183 45.1518 53.5794 45.0995C53.0643 45.0173 52.9896 44.7185 52.9299 44.2329C52.8478 43.5829 52.8478 42.3204 52.8478 40.7516V40.3781C52.8478 40.2735 52.8777 40.2436 52.9523 40.2436L55.08 40.2735C55.2143 40.2735 55.2442 40.3034 55.3189 40.3781C55.6697 40.8114 56.4237 41.8647 57.1255 42.7238C58.096 43.9639 58.6858 44.7483 59.4174 45.1219C59.8504 45.3385 60.2535 45.4431 61.1942 45.4431H62.2468C62.5678 45.4431 62.6798 45.4132 62.6798 45.3086C62.6798 45.2563 62.5977 45.1742 62.5155 45.1742C62.411 45.1742 62.2468 45.1742 61.9258 45.1219C61.4928 45.0696 60.9553 44.9052 60.037 43.9863C59.0665 42.9853 57.9094 41.5061 56.5357 39.8028C58.096 38.4506 58.6111 37.2927 58.6111 36.0825C58.6111 34.9469 57.8571 34.1924 57.4241 33.8712C56.5581 33.2511 55.3786 33.1689 54.326 33.1689C53.7884 33.1689 52.3849 33.1988 52.2207 33.1988C52.1162 33.1988 50.9814 33.1689 50.2274 33.1689C50.0408 33.1689 49.9587 33.1988 49.9587 33.3034C49.9587 33.3557 50.0408 33.4379 50.0931 33.4379C50.2573 33.4379 50.526 33.4678 50.6604 33.4678C51.2278 33.5499 51.3099 33.8189 51.3622 34.3568C51.392 34.8946 51.392 35.3578 51.392 37.8605V40.7217L51.3995 40.7292ZM40.4029 40.2436C40.3507 40.2436 40.3208 40.2137 40.3507 40.139L41.9109 35.6865C42.0155 35.44 42.0976 35.44 42.1797 35.6865L43.852 40.139C43.8818 40.2212 43.8818 40.2436 43.7997 40.2436H40.4029ZM37.9767 43.6651C37.6556 44.4719 37.3272 45.0397 36.5732 45.1219C36.4388 45.1518 36.1924 45.1742 36.058 45.1742C35.9759 45.1742 35.9237 45.2265 35.9237 45.3086C35.9237 45.3908 36.0282 45.4431 36.2447 45.4431C36.9166 45.4431 37.7826 45.3908 37.9393 45.3908C38.126 45.3908 39.0442 45.4431 39.4473 45.4431C39.5817 45.4431 39.6937 45.4132 39.6937 45.3086C39.6937 45.2265 39.6414 45.1742 39.5071 45.1742H39.3727C39.0741 45.1742 38.8053 45.0696 38.8053 44.7409C38.8053 44.4421 38.8874 44.0386 39.0517 43.6352L39.9923 41.0429C40.0222 40.9608 40.0968 40.9085 40.179 40.9085H44.0311C44.1356 40.9085 44.1655 40.9383 44.1954 41.0131L45.7034 44.7334C45.8079 45.0023 45.6511 45.1368 45.5391 45.1667C45.457 45.1966 45.4346 45.1966 45.4346 45.2713C45.4346 45.3759 45.7034 45.3759 46.0244 45.4058C47.1815 45.4356 48.4208 45.4356 48.6672 45.4356C48.8538 45.4356 49.0479 45.4058 49.0479 45.3012C49.0479 45.1966 48.9434 45.1667 48.8314 45.1667C48.6672 45.1667 48.4283 45.1667 48.1819 45.0845C47.8012 44.95 47.3458 44.7334 46.756 43.3065C45.7332 40.8263 43.0382 34.1401 42.7097 33.4603C42.5455 33.0793 42.4932 32.8701 42.3066 32.8701C42.2021 32.8701 42.1424 32.9523 41.9259 33.4902L37.9617 43.6576L37.9767 43.6651ZM33.2062 37.8679C33.2062 35.3354 33.2062 34.9021 33.2361 34.3642C33.2884 33.7965 33.3705 33.5574 33.8259 33.4752C34.0424 33.4454 34.1245 33.4453 34.2589 33.4453C34.3111 33.4453 34.3933 33.3632 34.3933 33.3109C34.3933 33.2063 34.3111 33.1764 34.1245 33.1764C33.6094 33.1764 32.5642 33.2063 32.4522 33.2063C32.3701 33.2063 31.2951 33.1764 30.5411 33.1764C30.3545 33.1764 30.2723 33.2063 30.2723 33.3109C30.2723 33.3632 30.3246 33.4453 30.4067 33.4453C30.5709 33.4453 30.8621 33.4752 30.9965 33.4752C31.534 33.5574 31.6161 33.8264 31.646 34.3642C31.6758 34.9021 31.6758 35.3877 31.6758 37.8978V38.2489C31.6758 38.3311 31.646 38.3311 31.5937 38.3311H24.5837C24.5314 38.3311 24.5016 38.3311 24.5016 38.2489V34.3642C24.5538 33.7965 24.6359 33.5574 25.0913 33.4752C25.3078 33.4454 25.4123 33.4453 25.5243 33.4453C25.5766 33.4453 25.6587 33.3632 25.6587 33.3109C25.6587 33.2063 25.5766 33.1764 25.3899 33.1764C24.8748 33.1764 23.7998 33.2063 23.7475 33.2063C23.643 33.2063 22.5605 33.1764 21.8065 33.1764C21.6199 33.1764 21.5378 33.2063 21.5378 33.3109C21.5378 33.3632 21.6199 33.4453 21.6722 33.4453C21.8364 33.4453 22.1051 33.4752 22.2395 33.4752C22.8069 33.5574 22.889 33.8264 22.9413 34.3642C22.9711 34.9021 22.9711 35.3354 22.9711 37.8679V40.7292C22.9711 42.2905 22.9711 43.5605 22.8666 44.2329C22.8144 44.7185 22.7845 45.0173 22.4336 45.0995C22.2992 45.1518 22.0827 45.1816 21.9185 45.1816C21.8364 45.1816 21.7841 45.2638 21.7841 45.3161C21.7841 45.4207 21.8886 45.4506 22.0529 45.4506C22.568 45.4506 23.643 45.3983 23.7475 45.3983C23.7998 45.3983 24.8823 45.4506 25.8229 45.4506C26.0096 45.4506 26.0917 45.3983 26.0917 45.3161C26.0917 45.2638 26.0394 45.1816 25.9573 45.1816C25.7931 45.1816 25.4422 45.1518 25.1734 45.0995C24.6882 45.0173 24.6359 44.7185 24.5837 44.2329C24.5016 43.5605 24.5016 42.3204 24.5016 40.7516V39.1305C24.5016 39.0483 24.5314 39.0483 24.5837 39.0483H31.5937C31.646 39.0483 31.6758 39.0483 31.6758 39.1305V40.7516C31.6758 42.3129 31.6758 43.553 31.6236 44.2329C31.5713 44.6886 31.5191 45.0173 31.1682 45.0995C31.0039 45.1518 30.8173 45.1816 30.6531 45.1816C30.5709 45.1816 30.5187 45.2638 30.5187 45.3161C30.5187 45.4207 30.6008 45.4506 30.7874 45.4506C31.3026 45.4506 32.3776 45.3983 32.4597 45.3983C32.5642 45.3983 33.6168 45.4506 34.5351 45.4506C34.7217 45.4506 34.8337 45.3983 34.8337 45.3161C34.8337 45.2638 34.7815 45.1816 34.6695 45.1816C34.5351 45.1816 34.1544 45.1518 33.9155 45.0995C33.4003 45.0173 33.378 44.7185 33.3257 44.2329C33.2436 43.5605 33.2212 42.2905 33.2212 40.7292V37.8679H33.2062ZM11.9671 40.2436C11.9148 40.2436 11.885 40.2137 11.9148 40.139L13.4751 35.6865C13.5796 35.44 13.6617 35.44 13.7439 35.6865L15.4161 40.139C15.446 40.2212 15.446 40.2436 15.3639 40.2436H11.9671ZM9.54828 43.6651C9.22727 44.4719 8.89879 45.0397 8.14478 45.1219C8.01041 45.1518 7.76405 45.1742 7.62967 45.1742C7.54755 45.1742 7.49529 45.2265 7.49529 45.3086C7.49529 45.3908 7.59981 45.4431 7.8163 45.4431C8.48819 45.4431 9.35419 45.3908 9.51096 45.3908C9.6976 45.3908 10.6158 45.4431 11.019 45.4431C11.1534 45.4431 11.2579 45.4132 11.2579 45.3086C11.2579 45.2265 11.2056 45.1742 11.0712 45.1742H10.9369C10.6382 45.1742 10.3695 45.0696 10.3695 44.7409C10.3695 44.4421 10.4516 44.0386 10.6158 43.6352L11.5565 41.0429C11.5863 40.9608 11.661 40.9085 11.7431 40.9085H15.5953C15.6998 40.9085 15.7297 40.9383 15.7595 41.0131L17.2675 44.7334C17.3721 45.0023 17.2153 45.1368 17.1033 45.1667C17.0212 45.1966 16.9988 45.1966 16.9988 45.2713C16.9988 45.3759 17.2675 45.3759 17.5886 45.4058C18.7457 45.4356 19.985 45.4356 20.2313 45.4356C20.418 45.4356 20.6121 45.4058 20.6121 45.3012C20.6121 45.1966 20.5075 45.1667 20.3956 45.1667C20.2313 45.1667 19.9924 45.1667 19.7461 45.0845C19.3653 44.95 18.9099 44.7334 18.3202 43.3065C17.2974 40.8263 14.6024 34.1401 14.2814 33.4603C14.1171 33.0793 14.0649 32.8701 13.8782 32.8701C13.7737 32.8701 13.714 32.9523 13.4975 33.4902L9.53336 43.6576L9.54828 43.6651ZM2.67262 45.6373C3.59087 45.6373 4.6435 45.5552 5.33778 45.0696C6.52478 44.2852 6.89806 43.2617 6.89806 42.3204C6.89806 40.9159 6.19631 39.7879 4.15078 38.4133L3.69539 38.092C2.02313 36.9565 1.51548 36.3663 1.51548 35.3429C1.51548 34.2074 2.51585 33.5873 3.75511 33.5873C5.26313 33.5873 5.80064 34.2073 5.93502 34.3717C6.01714 34.5585 6.15152 34.9918 6.15152 35.1785C6.18138 35.313 6.20377 35.3952 6.31576 35.3952C6.45013 35.3952 6.45013 35.2906 6.45013 35.0441C6.45013 33.9384 6.53225 33.4005 6.53225 33.3183C6.53225 33.2138 6.48 33.1839 6.36801 33.1839C6.23364 33.1839 6.09926 33.1839 5.77824 33.1316C5.37511 33.027 4.70322 32.9448 4.02387 32.9448C1.8141 32.9448 0.328475 34.0803 0.328475 35.9928C0.328475 37.1283 0.895847 38.0995 2.72488 39.4741L3.47889 40.0419C4.96451 41.1475 5.58414 41.6854 5.58414 42.8433C5.58414 44.0835 4.74801 45.0023 3.07575 45.0023C1.94101 45.0023 0.701746 44.5989 0.432991 43.4111C0.380733 43.1721 0.380733 42.9554 0.380733 42.8209C0.380733 42.6865 0.328474 42.6342 0.216493 42.6342C0.134373 42.6342 0.0821145 42.7163 0.0821145 42.9031C0.0522528 43.1422 0 43.822 0 44.6288C0 45.0621 -2.22487e-07 45.1144 0.238894 45.219C0.910783 45.5701 1.88129 45.6523 2.66516 45.6523L2.67262 45.6373Z" fill="#A77B18"/>
<path fill-rule="evenodd" clip-rule="evenodd" d="M145.952 48.8859H181.926C185.205 48.8859 187.88 46.2024 187.88 42.928V6.92935C187.88 3.6481 185.198 0.971468 181.926 0.971468H145.952C142.673 0.971468 139.999 3.65489 139.999 6.92935V42.928C139.999 46.2092 142.68 48.8859 145.952 48.8859ZM145.233 49.8438H182.646C186.054 49.8438 188.844 47.0516 188.844 43.6413V6.20245C188.844 2.79212 186.054 0 182.646 0H145.233C141.825 0 139.035 2.79212 139.035 6.20245V43.6413C139.035 47.0516 141.825 49.8438 145.233 49.8438Z" fill="#002C4B"/>
<path fill-rule="evenodd" clip-rule="evenodd" d="M167.038 28.2404L165.897 29.3817C162.13 25.6249 155.796 25.8627 151.736 29.9252C147.676 33.9877 147.439 40.326 151.193 44.0964L150.052 45.2377C143.209 27.0651 148.634 21.1616 167.031 28.2472" fill="#002C4B"/>
<path fill-rule="evenodd" clip-rule="evenodd" d="M167.249 21.8271L168.389 22.9685C164.635 26.7388 164.873 33.0771 168.932 37.1397C172.992 41.2022 179.326 41.4467 183.094 37.6831L184.234 38.8244C166.074 45.6723 160.175 40.2443 167.255 21.8339" fill="#002C4B"/>
<path fill-rule="evenodd" clip-rule="evenodd" d="M160.623 21.8271L159.482 22.9685C163.236 26.7388 162.999 33.0771 158.939 37.1397C154.879 41.2022 148.546 41.4467 144.778 37.6831L143.637 38.8244C161.797 45.6723 167.697 40.2443 160.616 21.8339" fill="#002C4B"/>
<path fill-rule="evenodd" clip-rule="evenodd" d="M160.84 28.2404L161.981 29.3817C165.749 25.6249 172.083 25.8627 176.142 29.9252C180.202 33.9877 180.44 40.326 176.685 44.0964L177.826 45.2377C184.669 27.0651 179.245 21.1616 160.847 28.2472" fill="#002C4B"/>
<path fill-rule="evenodd" clip-rule="evenodd" d="M184.234 11.0324L183.094 12.1737C179.326 8.4169 172.992 8.65466 168.932 12.7172C164.873 16.7797 164.635 23.118 168.389 26.8884L167.249 28.0297C160.406 9.85711 165.83 3.95358 184.227 11.0392" fill="#A77B18"/>
<path fill-rule="evenodd" clip-rule="evenodd" d="M150.052 4.61963L151.193 5.75414C147.439 9.52452 147.676 15.8628 151.736 19.9253C155.796 23.9878 162.13 24.2256 165.897 20.4688L167.038 21.6101C148.878 28.4579 142.978 23.03 150.059 4.61963" fill="#002C4B"/>
<path fill-rule="evenodd" clip-rule="evenodd" d="M177.826 4.61963L176.685 5.75414C180.44 9.52452 180.202 15.8628 176.142 19.9253C172.083 23.9878 165.749 24.2256 161.981 20.4688L160.84 21.6101C179 28.4579 184.9 23.03 177.819 4.61963" fill="#A77B18"/>
<path fill-rule="evenodd" clip-rule="evenodd" d="M143.644 11.0324L144.785 12.1737C148.552 8.4169 154.886 8.65466 158.946 12.7172C163.006 16.7797 163.243 23.118 159.489 26.8884L160.63 28.0297C167.473 9.85711 162.048 3.95358 143.651 11.0392" fill="#002C4B"/>
</svg>
