<svg width="148" height="50" viewBox="0 0 148 50" fill="none" xmlns="http://www.w3.org/2000/svg">
<path d="M4.48915 15.9756C4.7781 15.9756 5.02172 15.8735 5.22568 15.675C5.42964 15.4709 5.53163 15.2213 5.53163 14.9378C5.53163 14.6542 5.42964 14.4103 5.22568 14.2005C5.02739 14.002 4.7781 13.8999 4.48915 13.8999C4.2002 13.8999 3.96225 14.002 3.76395 14.2005C3.55999 14.4047 3.45801 14.6542 3.45801 14.9378C3.45801 15.2213 3.55999 15.4822 3.76395 15.6807C3.96225 15.8792 4.20587 15.9756 4.48915 15.9756Z" fill="#155957"/>
<path d="M4.55667 24.636C7.03254 24.636 8.42062 23.479 8.7209 21.1708H18.2278V17.3597C18.2278 15.0515 17.0947 13.8945 14.8228 13.8945C13.5763 13.8945 12.5962 14.2632 11.8823 15.0061C11.2364 15.681 10.9135 16.5317 10.9135 17.5525C10.9135 18.5733 11.1911 19.2993 11.752 19.7076C11.5424 19.6396 11.2648 19.6055 10.9135 19.6055H8.78889V14.0874H6.80592V20.2237C6.80592 22.1293 6.10338 23.0877 4.69831 23.0877C3.29323 23.0877 2.56237 22.1179 2.56237 20.184C2.56237 19.2596 2.70401 18.2955 2.98729 17.2916L0.93633 17.6659C0.698374 18.5393 0.57373 19.4354 0.57373 20.3598C0.57373 23.2125 1.89949 24.6416 4.551 24.6416L4.55667 24.636ZM13.361 16.0383C13.6897 15.6583 14.1316 15.4655 14.6811 15.4655C15.7519 15.4655 16.2902 16.1801 16.2902 17.6036V19.6055H15.1457C13.6443 19.6055 12.8908 18.9023 12.8908 17.4958C12.8908 16.9003 13.0494 16.4126 13.361 16.0383Z" fill="#155957"/>
<path d="M31.0886 12.8223C31.3775 12.8223 31.6211 12.7202 31.8251 12.5217C32.0291 12.3232 32.131 12.068 32.131 11.7844C32.131 11.5009 32.0291 11.257 31.8251 11.0472C31.6268 10.8487 31.3775 10.7466 31.0886 10.7466C30.7996 10.7466 30.5617 10.8487 30.352 11.0472C30.1537 11.2513 30.0518 11.5009 30.0518 11.7844C30.0518 12.068 30.1537 12.3289 30.352 12.5274C30.556 12.7259 30.8053 12.8223 31.0886 12.8223Z" fill="#155957"/>
<path d="M36.7423 12.9477C37.0255 12.9477 37.2692 12.8456 37.4618 12.6472C37.6544 12.4487 37.7507 12.2048 37.7507 11.9269C37.7507 11.649 37.6544 11.3938 37.4618 11.201C37.2635 11.0025 37.0255 10.9004 36.7423 10.9004C36.459 10.9004 36.2324 11.0025 36.0341 11.201C35.8414 11.3995 35.7451 11.6433 35.7451 11.9269C35.7451 12.2105 35.8414 12.4543 36.0341 12.6472C36.2267 12.8456 36.459 12.9477 36.7423 12.9477Z" fill="#155957"/>
<path d="M39.2418 12.9477C39.5137 12.9477 39.7517 12.8456 39.95 12.6472C40.1426 12.4487 40.2389 12.2048 40.2389 11.9269C40.2389 11.649 40.1426 11.3938 39.95 11.201C39.7573 11.0025 39.5251 10.9004 39.2418 10.9004C38.9585 10.9004 38.7319 11.0025 38.5336 11.201C38.3409 11.3995 38.2446 11.6433 38.2446 11.9269C38.2446 12.2105 38.3409 12.4543 38.5336 12.6472C38.7262 12.8456 38.9585 12.9477 39.2418 12.9477Z" fill="#155957"/>
<path d="M44.2331 10.5542H42.2501V19.6113H39.2757V14.0931H37.2927V19.6113H34.001C34.4372 19.0101 34.6525 18.2445 34.6525 17.3257C34.6525 16.2482 34.3806 15.4088 33.8423 14.819C33.2928 14.2122 32.4996 13.9059 31.4684 13.9059C30.6526 13.9059 29.9047 14.1441 29.2249 14.6205C28.5053 15.1253 27.9841 15.8228 27.6611 16.7076H27.6328C27.7575 16.0667 27.8141 15.3238 27.8141 14.4787V14.0988H25.8255V19.6169H22.5337V10.5599H20.5508V21.1822H44.2331V10.5599V10.5542ZM30.2163 19.6056H27.7858C27.9501 18.4997 28.3297 17.5412 28.9302 16.7416C29.5648 15.8966 30.2787 15.4769 31.0605 15.4769C32.086 15.4769 32.5959 16.1291 32.5959 17.4335C32.5959 18.8797 31.8027 19.6056 30.2163 19.6056Z" fill="#155957"/>
<path d="M48.7715 10.5542H46.7886V21.1765H48.7715V10.5542Z" fill="#155957"/>
<path d="M62.663 12.8223C62.9519 12.8223 63.1956 12.7202 63.3995 12.5217C63.6035 12.3175 63.7055 12.068 63.7055 11.7844C63.7055 11.5009 63.6035 11.257 63.3995 11.0472C63.2012 10.8487 62.9519 10.7466 62.663 10.7466C62.374 10.7466 62.1361 10.8487 61.9378 11.0472C61.7338 11.2513 61.6318 11.5009 61.6318 11.7844C61.6318 12.068 61.7338 12.3289 61.9378 12.5274C62.1361 12.7259 62.3797 12.8223 62.663 12.8223Z" fill="#155957"/>
<path d="M65.2232 20.1163C65.9427 19.4131 66.3053 18.5057 66.3053 17.4111C66.3053 16.2428 65.988 15.3581 65.3592 14.7569C64.7586 14.1898 63.9031 13.9062 62.804 13.9062C61.7048 13.9062 60.753 14.2579 60.0391 14.9668C59.3309 15.67 58.9797 16.5661 58.9797 17.6606C58.9797 18.551 59.2006 19.2032 59.6425 19.6172H59.144C57.9485 19.6172 57.0817 19.362 56.5378 18.8516C56.0109 18.3582 55.7446 17.5699 55.7446 16.498C55.7446 15.5906 55.9146 14.7626 56.2602 14.014L54.1356 14.36C53.8749 15.0745 53.7446 15.8628 53.7446 16.7306C53.7446 18.1824 54.1526 19.2656 54.9741 19.9915C55.8749 20.7912 57.3083 21.1882 59.2743 21.1882H62.481C63.6028 21.1882 64.5206 20.8366 65.2345 20.1277L65.2232 20.1163ZM60.9626 17.4792C60.9626 16.8156 61.1383 16.3052 61.4895 15.9422C61.7955 15.6247 62.1864 15.4659 62.6567 15.4659C63.7558 15.4659 64.3054 16.1464 64.3054 17.5132C64.3054 18.1881 64.141 18.7155 63.8181 19.0898C63.5178 19.4358 63.1212 19.6116 62.6283 19.6116C61.5179 19.6116 60.9626 18.9027 60.9626 17.4848V17.4792Z" fill="#155957"/>
<path d="M90.9065 17.3651C90.9065 15.0568 89.7733 13.8999 87.5014 13.8999C86.255 13.8999 85.2748 14.2685 84.561 15.0115C83.9151 15.6864 83.5922 16.5371 83.5922 17.5579C83.5922 18.5787 83.8698 19.3046 84.4307 19.713C84.221 19.6449 83.9434 19.6109 83.5922 19.6109H81.5129C81.9491 19.0097 82.1644 18.2441 82.1644 17.3254C82.1644 16.2478 81.8925 15.4085 81.3542 14.8187C80.8047 14.2118 80.0115 13.9056 78.9803 13.9056C78.1645 13.9056 77.4166 14.1438 76.7367 14.6202C76.0172 15.1249 75.496 15.8225 75.173 16.7072H75.1447C75.2693 16.0663 75.326 15.3234 75.326 14.4784V14.0984H73.3317V19.6166H70.3063V14.0984H68.3233V21.352C68.3233 22.129 68.176 22.6791 67.887 23.0137C67.6321 23.3086 67.2355 23.456 66.6916 23.456C66.295 23.456 65.8871 23.3993 65.4735 23.2802L65.3262 24.8625C65.7284 24.9589 66.1477 25.01 66.5896 25.01C69.0711 25.01 70.3063 23.7566 70.3063 21.2442V21.1875H90.8951V17.3764L90.9065 17.3651ZM77.7396 19.6052H75.309C75.4733 18.4993 75.8529 17.5409 76.4535 16.7412C77.088 15.8962 77.8019 15.4765 78.5837 15.4765C79.6092 15.4765 80.1191 16.1287 80.1191 17.4331C80.1191 18.8793 79.3259 19.6052 77.7396 19.6052ZM88.9688 19.6052H87.8244C86.323 19.6052 85.5694 18.902 85.5694 17.4955C85.5694 16.9 85.7281 16.4123 86.0397 16.038C86.3683 15.658 86.8102 15.4652 87.3598 15.4652C88.4306 15.4652 88.9688 16.1798 88.9688 17.6033V19.6052Z" fill="#155957"/>
<path d="M8.73201 28.0562H1.00977V29.2868H4.14286V37.8618H5.59892V29.2868H8.73201V28.0562Z" fill="#155957"/>
<path d="M13.5761 32.8812C13.5761 31.2308 12.5902 30.5106 10.8056 30.5049C8.72061 30.4992 8.07473 31.6221 7.97275 32.6657H9.30417C9.42882 32.1156 9.62711 31.5654 10.7546 31.5654C12.018 31.5654 12.2163 32.2857 12.2163 32.8982V33.4767H11.0322C8.90191 33.4767 7.63281 34.2139 7.63281 35.8246C7.63281 36.9191 8.35801 38.0307 10.0577 38.0307C11.4288 38.0307 11.984 37.4296 12.2333 36.9645C12.2503 37.3558 12.29 37.7018 12.3466 37.8606H13.6724C13.6327 37.6621 13.5761 36.8965 13.5761 36.2386V32.8868V32.8812ZM12.2276 34.6223C12.2276 35.8586 12.0123 36.9702 10.3693 36.9702C9.51946 36.9702 9.04355 36.4484 9.04355 35.7452C9.04355 34.7924 9.74609 34.4067 11.1342 34.4067H12.2276V34.6279V34.6223Z" fill="#155957"/>
<path d="M21.4515 27.5112H20.0691V31.3791C19.8821 30.9934 19.3212 30.5057 18.0975 30.5057C16.1032 30.5057 14.8794 32.1277 14.8794 34.3395C14.8794 36.5513 16.0182 38.0315 17.8595 38.0315C19.0153 38.0315 19.7235 37.6061 20.0748 36.8972C20.0804 37.1524 20.1088 37.6685 20.1428 37.867H21.4742C21.4628 37.1808 21.4629 36.5173 21.4629 35.848V27.5169L21.4515 27.5112ZM18.1768 36.8745C17.0777 36.8745 16.3071 35.9728 16.3071 34.2998C16.3071 32.6267 17.038 31.6626 18.2618 31.6626C19.8142 31.6626 20.1201 32.6551 20.1201 34.1807C20.1201 35.7063 19.7915 36.8689 18.1768 36.8689V36.8745Z" fill="#155957"/>
<path d="M28.5785 32.8812C28.5785 31.2308 27.5927 30.5106 25.808 30.5049C23.7231 30.4992 23.0772 31.6221 22.9752 32.6657H24.3066C24.4313 32.1156 24.6296 31.5654 25.757 31.5654C27.0204 31.5654 27.2187 32.2857 27.2187 32.8982V33.4767H26.0346C23.9044 33.4767 22.6353 34.2139 22.6353 35.8246C22.6353 36.9191 23.3605 38.0307 25.0601 38.0307C26.4312 38.0307 26.9865 37.4296 27.2357 36.9645C27.2527 37.3558 27.2924 37.7018 27.3491 37.8606H28.6748C28.6351 37.6621 28.5785 36.8965 28.5785 36.2386V32.8868V32.8812ZM27.2301 34.6223C27.2301 35.8586 27.0148 36.9702 25.3718 36.9702C24.5219 36.9702 24.046 36.4484 24.046 35.7452C24.046 34.7924 24.7485 34.4067 26.1366 34.4067H27.2301V34.6279V34.6223Z" fill="#155957"/>
<path d="M38.0398 30.5049C36.8274 30.5049 36.1588 31.089 35.7679 31.7526C35.4959 31.021 34.8274 30.5049 33.8076 30.5049C32.6858 30.5049 32.0739 31.1117 31.7396 31.7299C31.7396 31.3839 31.7056 30.8792 31.683 30.675H30.3516C30.3629 31.2648 30.3629 31.9057 30.3629 32.5295V37.8605H31.734V33.8736C31.734 32.5295 32.2552 31.6845 33.343 31.6845C34.4308 31.6845 34.6631 32.4671 34.6631 33.3519V37.8605H36.0228V33.7375C36.0228 32.4955 36.4931 31.6788 37.6036 31.6788C38.714 31.6788 38.952 32.5125 38.952 33.3065V37.8605H40.3117V33.142C40.3117 31.2138 39.2296 30.5106 38.0455 30.5106L38.0398 30.5049Z" fill="#155957"/>
<path d="M47.8478 30.6748H46.4654V34.4349C46.4654 36.159 45.9838 36.8395 44.7431 36.8395C43.6156 36.8395 43.3323 36.0115 43.3323 35.0984V30.6748H41.9556V35.3933C41.9556 37.3726 43.0717 38.0305 44.3295 38.0305C45.4173 38.0305 46.0971 37.6108 46.4654 36.8338C46.4711 37.2478 46.4881 37.6732 46.5164 37.8603H47.8648C47.8591 37.3953 47.8535 36.4652 47.8535 35.7676V30.6748H47.8478Z" fill="#155957"/>
<path d="M53.2407 30.5049C51.8753 30.5049 51.2918 31.2195 51.0142 31.8036C51.0142 31.5881 50.9972 30.8792 50.9575 30.675H49.6147C49.6317 31.2251 49.6317 31.866 49.6317 32.4842V37.8605H51.0142V34.0154C51.0142 32.6033 51.5467 31.6845 52.8045 31.6845C53.8583 31.6845 54.2492 32.3878 54.2492 33.4199V37.8605H55.6316V33.2498C55.6316 31.3612 54.6005 30.5049 53.2351 30.5049H53.2407Z" fill="#155957"/>
<path d="M66.4481 32.6499C67.1846 32.3834 67.8249 31.6518 67.8249 30.5175C67.8249 29.1734 66.873 28.0562 64.7484 28.0562H60.8901V37.8618H64.8504C66.7484 37.8618 68.1421 36.7956 68.1421 34.9808C68.1421 33.5687 67.1337 32.8768 66.4538 32.6556L66.4481 32.6499ZM62.3122 29.2358H64.6691C65.7569 29.2358 66.3631 29.8086 66.3631 30.6479C66.3631 31.5553 65.8362 32.0941 64.4935 32.0941H62.3122V29.2358ZM64.6351 36.6822H62.3122V33.2737H64.4312C65.9892 33.2737 66.6408 33.9486 66.6408 34.9638C66.6408 36.1207 65.8476 36.6822 64.6351 36.6822Z" fill="#155957"/>
<path d="M75.0258 32.8812C75.0258 31.2308 74.0399 30.5106 72.2553 30.5049C70.1703 30.4992 69.5244 31.6221 69.4225 32.6657H70.7539C70.8785 32.1156 71.0768 31.5654 72.2043 31.5654C73.4677 31.5654 73.666 32.2857 73.666 32.8982V33.4767H72.4819C70.3516 33.4767 69.0825 34.2139 69.0825 35.8246C69.0825 36.9191 69.8077 38.0307 71.5074 38.0307C72.8785 38.0307 73.4337 37.4296 73.683 36.9645C73.7 37.3558 73.7397 37.7018 73.7963 37.8606H75.1221C75.0824 37.6621 75.0258 36.8965 75.0258 36.2386V32.8868V32.8812ZM73.6717 34.6223C73.6717 35.8586 73.4564 36.9702 71.8133 36.9702C70.9635 36.9702 70.4876 36.4484 70.4876 35.7452C70.4876 34.7924 71.1901 34.4067 72.5782 34.4067H73.6717V34.6279V34.6223Z" fill="#155957"/>
<path d="M80.4253 30.5049C79.0599 30.5049 78.4763 31.2195 78.1987 31.8036C78.1987 31.5881 78.1817 30.8792 78.1421 30.675H76.7993C76.8163 31.2251 76.8163 31.866 76.8163 32.4842V37.8605H78.1987V34.0154C78.1987 32.6033 78.7313 31.6845 79.9891 31.6845C81.0429 31.6845 81.4338 32.3878 81.4338 33.4199V37.8605H82.8162V33.2498C82.8162 31.3612 81.7851 30.5049 80.4197 30.5049H80.4253Z" fill="#155957"/>
<path d="M87.9492 33.4604L90.612 30.6758H88.9803C88.0058 31.7647 86.5498 33.3186 85.9605 34.0276V27.5112H84.5781V37.8613H85.9605V35.3603L87.0087 34.3451L89.3033 37.8613H90.9066L87.9492 33.4604Z" fill="#155957"/>
<path d="M124.447 34.039L130.322 39.9031C130.781 40.3625 131.529 40.3625 131.988 39.9031C132.453 39.4381 132.447 38.6895 131.982 38.2301L126.141 32.4454C125.886 32.1958 125.546 32.054 125.189 32.054H123.676C123.32 32.054 122.974 32.1958 122.719 32.451L121.75 33.4208C120.974 34.2035 119.711 34.2035 118.929 33.4208C118.152 32.6439 118.152 31.3791 118.929 30.5965L120.169 29.3545C120.356 29.1673 120.464 28.9178 120.47 28.6513L120.594 23.1388C120.6 22.8609 120.492 22.5886 120.294 22.3901L118.141 20.2351C117.694 19.787 116.968 19.7927 116.526 20.2407C116.09 20.6831 116.096 21.3977 116.532 21.84L117.79 23.1047C117.983 23.2976 118.09 23.5584 118.09 23.8307V26.275C118.09 26.5472 117.983 26.8081 117.79 27.0009L112.793 32.003H112.787L111.937 32.848C111.796 32.9898 111.796 33.228 111.937 33.3698L120.186 41.6499L120.113 41.5535L122.538 43.9808C122.991 44.4345 123.722 44.4345 124.175 43.9808C124.628 43.5271 124.628 42.7898 124.175 42.3418L120.135 38.3151L120.373 38.0543L124.804 42.4722C126.725 44.3891 127.512 44.3891 127.999 43.9014C128.487 43.4136 128.487 42.6197 127.999 42.1263L122.181 36.3189L122.436 36.0807L128.889 42.5232C129.824 43.459 130.623 43.459 131.115 42.9656C131.608 42.4722 131.608 41.6726 130.674 40.7368L124.22 34.2999L124.453 34.0503L124.447 34.039Z" fill="#21B5E9"/>
<path d="M115.308 25.1061L109.45 30.9872C108.991 31.4466 108.991 32.1952 109.45 32.6546C109.914 33.1196 110.662 33.114 111.121 32.6489L116.9 26.8018C117.149 26.5466 117.291 26.2063 117.291 25.849V24.3348C117.291 23.9775 117.149 23.6316 116.894 23.3764L115.925 22.4066C115.144 21.6296 115.144 20.3649 115.925 19.5823C116.702 18.8053 117.965 18.8053 118.747 19.5823L119.988 20.8243C120.175 21.0114 120.424 21.1192 120.69 21.1248L126.197 21.2496C126.475 21.2553 126.747 21.1475 126.945 20.949L129.098 18.7939C129.546 18.3459 129.54 17.62 129.092 17.1776C128.65 16.7409 127.937 16.7466 127.495 17.1833L126.231 18.4423C126.039 18.6351 125.778 18.7429 125.506 18.7429H123.064C122.792 18.7429 122.532 18.6351 122.339 18.4423L117.342 13.4402H117.348L116.498 12.5839C116.356 12.4421 116.118 12.4421 115.976 12.5839L107.705 20.8413L107.801 20.7676L105.376 23.1949C104.923 23.6486 104.923 24.3802 105.376 24.8339C105.829 25.2876 106.566 25.2876 107.013 24.8339L111.036 20.7902L111.297 21.0284L106.883 25.4634C104.968 27.386 104.968 28.1743 105.455 28.662C105.943 29.1497 106.736 29.1497 107.229 28.662L113.03 22.8376L113.268 23.0928L106.832 29.5524C105.897 30.4882 105.897 31.2878 106.39 31.7812C106.883 32.2746 107.682 32.2746 108.617 31.3388L115.047 24.8792L115.297 25.1118L115.308 25.1061Z" fill="#B5D339"/>
<path d="M133.325 24.8632L139.183 18.9821C139.642 18.5227 139.642 17.7741 139.183 17.3147C138.719 16.8497 137.971 16.8553 137.512 17.3204L131.733 23.1675C131.484 23.4227 131.342 23.763 131.342 24.1203V25.6345C131.342 25.9918 131.484 26.3377 131.739 26.5929L132.708 27.5627C133.489 28.3397 133.489 29.6044 132.708 30.387C131.931 31.164 130.668 31.164 129.886 30.387L128.645 29.145C128.458 28.9579 128.209 28.8501 127.943 28.8445L122.436 28.7197C122.158 28.714 121.886 28.8218 121.688 29.0203L119.535 31.1754C119.087 31.6234 119.093 32.3493 119.541 32.7917C119.983 33.2284 120.696 33.2227 121.138 32.786L122.402 31.527C122.594 31.3342 122.855 31.2264 123.127 31.2264H125.569C125.841 31.2264 126.101 31.3342 126.294 31.527L131.291 36.5291H131.286L132.135 37.3854C132.277 37.5272 132.515 37.5272 132.657 37.3854L140.928 29.128L140.832 29.2017L143.257 26.7744C143.71 26.3207 143.71 25.5891 143.257 25.1354C142.804 24.6817 142.067 24.6817 141.62 25.1354L137.597 29.1791L137.336 28.9409L141.75 24.5059C143.665 22.5833 143.665 21.795 143.178 21.3073C142.69 20.8196 141.897 20.8196 141.404 21.3073L135.603 27.1317L135.365 26.8765L141.801 20.4169C142.736 19.4811 142.736 18.6815 142.243 18.1881C141.75 17.6947 140.951 17.6947 140.016 18.6305L133.586 25.0901L133.336 24.8575L133.325 24.8632Z" fill="#B5D339"/>
<path d="M124.18 15.9588L118.305 10.0947C117.846 9.63532 117.098 9.63532 116.639 10.0947C116.174 10.5597 116.18 11.3084 116.645 11.7677L122.486 17.5525C122.741 17.802 123.081 17.9438 123.438 17.9438H124.951C125.307 17.9438 125.653 17.802 125.908 17.5468L126.877 16.577C127.653 15.7943 128.916 15.7943 129.698 16.577C130.475 17.354 130.475 18.6187 129.698 19.4013L128.458 20.6433C128.271 20.8305 128.163 21.08 128.157 21.3465L128.033 26.859C128.027 27.1369 128.135 27.4092 128.333 27.6077L130.486 29.7628C130.933 30.2108 131.659 30.2051 132.101 29.7571C132.537 29.3147 132.531 28.6001 132.095 28.1578L130.837 26.8931C130.644 26.7003 130.537 26.4394 130.537 26.1672V23.7228C130.537 23.4506 130.644 23.1897 130.837 22.9969L135.834 17.9948H135.84L136.69 17.1498C136.831 17.008 136.831 16.7698 136.69 16.628L128.441 8.34794L128.514 8.44435L126.089 6.01704C125.636 5.56333 124.905 5.56333 124.452 6.01704C123.999 6.47074 123.999 7.20801 124.452 7.65604L128.492 11.6827L128.254 11.9435L123.823 7.5256C121.902 5.6087 121.115 5.6087 120.628 6.09643C120.14 6.58416 120.14 7.37815 120.628 7.87155L126.446 13.679L126.191 13.9172L119.738 7.47456C118.803 6.5388 118.004 6.5388 117.512 7.0322C117.019 7.52561 117.019 8.32525 117.953 9.26102L124.407 15.6979L124.174 15.9475L124.18 15.9588Z" fill="#21B5E9"/>
<path d="M124.316 47.2424C121.342 47.2424 118.367 46.1082 116.107 43.8453L105.489 33.2173C103.297 31.0225 102.09 28.1018 102.09 24.9996C102.09 21.8974 103.297 18.9767 105.489 16.7819L116.107 6.1539C120.633 1.62253 127.999 1.62253 132.526 6.1539L143.143 16.7819C145.336 18.9767 146.542 21.8974 146.542 24.9996C146.542 28.1018 145.336 31.0225 143.143 33.2173L132.526 43.8453C130.265 46.1082 127.291 47.2424 124.316 47.2424ZM124.316 3.48839C121.529 3.48839 118.741 4.54892 116.622 6.67566L106.005 17.3037C103.948 19.3623 102.815 22.0959 102.815 25.0053C102.815 27.9147 103.948 30.6482 106.005 32.7069L116.622 43.3349C120.866 47.5827 127.766 47.5827 132.01 43.3349L142.627 32.7069C144.684 30.6482 145.811 27.9147 145.811 25.0053C145.811 22.0959 144.678 19.3623 142.627 17.3037L132.01 6.67566C129.891 4.55459 127.104 3.48839 124.316 3.48839Z" fill="#B5D339"/>
<path d="M124.317 48.5915C120.861 48.5915 117.405 47.2757 114.776 44.6386L104.697 34.5493C99.4332 29.2807 99.4332 20.7114 104.697 15.4484L114.776 5.35919C120.039 0.0905561 128.6 0.0905561 133.858 5.35919L143.937 15.4484C149.2 20.7171 149.2 29.2864 143.937 34.5493L133.858 44.6386C131.229 47.2701 127.773 48.5915 124.317 48.5915ZM124.317 2.13789C121.048 2.13789 117.778 3.38558 115.291 5.87528L105.212 15.9645C100.238 20.9439 100.238 29.0539 105.212 34.0333L115.291 44.1225C120.266 49.1019 128.368 49.1019 133.342 44.1225L143.421 34.0333C148.396 29.0539 148.396 20.9439 143.421 15.9645L133.342 5.87528C130.855 3.38558 127.586 2.13789 124.317 2.13789Z" fill="#B5D339"/>
</svg>
