<svg width="143" height="50" viewBox="0 0 143 50" fill="none" xmlns="http://www.w3.org/2000/svg">
<path fill-rule="evenodd" clip-rule="evenodd" d="M117.263 0C131.069 0 142.263 11.1938 142.263 25C142.263 38.8063 131.069 50 117.263 50C103.456 50 92.2627 38.8063 92.2627 25C92.2627 11.1938 103.456 0 117.263 0Z" fill="#304365"/>
<path d="M117.475 44.6809C117.456 44.5996 117.438 44.5059 117.413 44.3996C117.388 44.2934 117.363 44.1809 117.344 44.0746C117.319 43.9621 117.3 43.8559 117.281 43.7559C117.263 43.6559 117.244 43.5684 117.238 43.5059C117.131 42.9309 117.019 42.3621 116.9 41.7996C116.775 41.2309 116.656 40.6621 116.538 40.0934C116.419 39.5246 116.313 38.9559 116.213 38.3871C116.113 37.8121 116.031 37.2434 115.975 36.6684C115.95 36.4871 115.925 36.3184 115.906 36.1684C115.881 36.0184 115.888 35.8434 115.913 35.6434C115.938 35.4434 116.025 35.2371 116.169 35.0309C116.313 34.8246 116.488 34.6184 116.7 34.4184C116.913 34.2184 117.15 34.0184 117.406 33.8246C117.663 33.6309 117.925 33.4559 118.181 33.2871C118.444 33.1246 118.688 32.9746 118.925 32.8434C119.156 32.7121 119.356 32.6059 119.525 32.5309C119.55 32.5184 119.575 32.4996 119.6 32.4746C119.625 32.4496 119.644 32.4309 119.656 32.4059C119.669 32.3809 119.669 32.3621 119.656 32.3434C119.644 32.3246 119.606 32.3184 119.544 32.3246C119.431 32.3371 119.275 32.3684 119.081 32.4184C118.888 32.4621 118.681 32.5184 118.469 32.5746C118.256 32.6309 118.056 32.6934 117.875 32.7559C117.688 32.8184 117.55 32.8746 117.463 32.9184C117.106 33.1059 116.794 33.3559 116.538 33.6746C116.281 33.9934 116.075 34.3434 115.919 34.7309C115.763 35.1184 115.65 35.5184 115.588 35.9371C115.525 36.3559 115.513 36.7559 115.55 37.1371C115.606 37.7121 115.688 38.2871 115.788 38.8559C115.894 39.4309 116 39.9996 116.119 40.5684C116.238 41.1371 116.356 41.7059 116.481 42.2746C116.606 42.8434 116.719 43.4121 116.819 43.9871C116.819 44.0184 116.813 44.0246 116.788 44.0059C116.769 43.9871 116.738 43.9559 116.7 43.9184C116.663 43.8809 116.625 43.8371 116.581 43.7934C116.538 43.7496 116.5 43.7121 116.463 43.6871C116.413 43.6434 116.369 43.6371 116.338 43.6746C116.3 43.7121 116.3 43.7684 116.338 43.8496C116.356 43.9121 116.406 44.0246 116.481 44.1871C116.556 44.3496 116.65 44.5371 116.756 44.7371C116.863 44.9371 116.963 45.1371 117.075 45.3371C117.181 45.5371 117.275 45.7059 117.35 45.8371C117.375 45.8746 117.4 45.8934 117.431 45.8809C117.463 45.8684 117.481 45.8496 117.494 45.8184C117.494 45.7996 117.513 45.7434 117.531 45.6621C117.55 45.5809 117.575 45.4871 117.594 45.3934C117.613 45.2996 117.631 45.2059 117.65 45.1309C117.663 45.0496 117.675 45.0059 117.669 44.9934C117.656 44.9621 117.625 44.9121 117.581 44.8559C117.538 44.7996 117.513 44.7434 117.494 44.6871L117.475 44.6809Z" fill="white"/>
<path d="M123.706 43.769C123.694 43.7378 123.656 43.694 123.569 43.644C123.488 43.594 123.438 43.5503 123.413 43.5128C123.344 43.4065 123.275 43.3065 123.206 43.2065C123.138 43.1065 123.069 43.0003 123 42.9003C122.775 42.5628 122.506 42.2315 122.181 41.9065C121.863 41.5815 121.513 41.2565 121.144 40.9315C120.775 40.6065 120.394 40.2753 120 39.9503C119.606 39.619 119.219 39.2878 118.85 38.944C118.475 38.6003 118.125 38.2565 117.794 37.9003C117.463 37.544 117.175 37.1753 116.931 36.8003C116.625 36.3253 116.431 35.7878 116.356 35.194C116.344 35.1315 116.319 35.119 116.281 35.1503C116.244 35.1815 116.213 35.2503 116.194 35.369C116.156 35.7378 116.163 36.094 116.219 36.4315C116.275 36.7752 116.4 37.1003 116.594 37.4128C116.838 37.794 117.131 38.1565 117.456 38.519C117.788 38.8753 118.138 39.2253 118.506 39.5628C118.881 39.9003 119.263 40.2378 119.656 40.569C120.05 40.9003 120.431 41.2253 120.794 41.5503C121.156 41.8753 121.5 42.2002 121.825 42.5252C122.144 42.8502 122.419 43.1878 122.644 43.5253C122.65 43.5253 122.65 43.5378 122.644 43.544C122.631 43.5503 122.625 43.5503 122.606 43.544C122.525 43.5128 122.45 43.4878 122.381 43.469C122.313 43.4503 122.25 43.4378 122.188 43.4253C122.131 43.4128 122.094 43.4253 122.075 43.4565C122.05 43.4878 122.05 43.519 122.069 43.5565C122.094 43.594 122.169 43.6628 122.306 43.7565C122.444 43.8503 122.588 43.9503 122.756 44.0565C122.925 44.1628 123.088 44.269 123.256 44.3753C123.425 44.4815 123.556 44.5627 123.656 44.6252C123.688 44.644 123.713 44.6253 123.713 44.5815C123.725 44.544 123.731 44.494 123.731 44.419C123.731 44.344 123.731 44.269 123.731 44.1815C123.731 44.1003 123.731 44.019 123.725 43.9503C123.725 43.8753 123.713 43.819 123.706 43.7752V43.769Z" fill="white"/>
<path d="M114.531 33.0437C114.531 33.0437 114.475 33.0312 114.456 33.0625C114.356 33.1875 114.263 33.3375 114.175 33.5125C114.088 33.6875 114.006 33.875 113.931 34.075C113.863 34.2687 113.8 34.4688 113.744 34.6625C113.688 34.8563 113.644 35.0312 113.619 35.1875C113.494 35.875 113.388 36.5687 113.3 37.2625C113.219 37.9562 113.144 38.6562 113.081 39.3562C113.019 40.0562 112.963 40.7562 112.9 41.4562C112.838 42.1562 112.769 42.8562 112.688 43.5562C112.681 43.5875 112.669 43.5938 112.65 43.5688C112.638 43.5438 112.619 43.5062 112.594 43.4625C112.569 43.4125 112.544 43.3625 112.519 43.3C112.494 43.2375 112.463 43.1937 112.438 43.1625C112.4 43.1125 112.363 43.1 112.325 43.1187C112.288 43.1437 112.263 43.2 112.263 43.2875C112.263 43.35 112.275 43.4687 112.3 43.65C112.325 43.8312 112.363 44.0312 112.4 44.25C112.444 44.4687 112.488 44.6937 112.531 44.9125C112.575 45.1375 112.613 45.325 112.65 45.4687C112.656 45.5187 112.681 45.5437 112.713 45.5437C112.744 45.5437 112.769 45.5312 112.788 45.5C112.8 45.4812 112.825 45.4375 112.875 45.3625C112.919 45.2875 112.969 45.2125 113.019 45.125C113.069 45.0375 113.113 44.9625 113.15 44.8875C113.188 44.8188 113.206 44.775 113.2 44.7562C113.2 44.725 113.188 44.6687 113.163 44.6C113.138 44.5312 113.125 44.4687 113.125 44.4125C113.125 44.3312 113.138 44.2312 113.144 44.125C113.15 44.0125 113.163 43.9063 113.169 43.7938C113.175 43.6813 113.188 43.5687 113.2 43.4687C113.213 43.3625 113.225 43.275 113.231 43.2062C113.313 42.5125 113.381 41.8187 113.444 41.1125C113.506 40.4125 113.569 39.7125 113.631 39.0125C113.694 38.3125 113.769 37.6188 113.856 36.9188C113.944 36.2188 114.044 35.525 114.175 34.8375C114.225 34.55 114.288 34.2625 114.344 33.9812C114.406 33.7 114.475 33.4187 114.55 33.1375C114.569 33.0875 114.563 33.05 114.531 33.0312V33.0437Z" fill="white"/>
<path d="M115.806 34.1309C115.888 33.9434 115.95 33.7496 116 33.5559C116.05 33.3621 116.069 33.1684 116.069 32.9809C116.069 32.7934 116.031 32.6184 115.956 32.4621C115.881 32.3059 115.769 32.1746 115.613 32.0684C115.456 31.9621 115.25 31.8871 114.988 31.8496C114.738 31.8184 114.438 31.8184 114.094 31.8496C113.75 31.8871 113.394 31.9496 113.038 32.0371C112.681 32.1309 112.338 32.2371 112.006 32.3621C111.681 32.4871 111.413 32.6246 111.2 32.7684C111 32.9059 110.85 33.0684 110.763 33.2496C110.675 33.4371 110.6 33.6371 110.538 33.8559C110.494 34.0121 110.469 34.2121 110.45 34.4559C110.431 34.6996 110.45 34.9434 110.494 35.1934C110.538 35.4371 110.625 35.6621 110.744 35.8621C110.863 36.0684 111.038 36.1996 111.263 36.2746C111.425 36.3246 111.594 36.3059 111.763 36.2121C111.931 36.1184 112.088 35.9934 112.219 35.8309C112.35 35.6684 112.45 35.4934 112.513 35.2996C112.575 35.1059 112.575 34.9371 112.513 34.7871C112.475 34.6871 112.406 34.6059 112.306 34.5496C112.206 34.4871 112.094 34.4371 111.975 34.3934C111.85 34.3496 111.725 34.3059 111.588 34.2621C111.45 34.2184 111.331 34.1684 111.225 34.1059C111.119 34.0434 111.038 33.9684 110.975 33.8809C110.913 33.7934 110.888 33.6809 110.906 33.5434C111.05 33.4496 111.213 33.3559 111.406 33.2684C111.6 33.1809 111.813 33.0934 112.038 33.0184C112.263 32.9434 112.5 32.8746 112.744 32.8121C112.988 32.7496 113.225 32.6996 113.456 32.6621C113.688 32.6246 113.913 32.6059 114.125 32.5934C114.338 32.5809 114.525 32.5934 114.694 32.6121C114.981 32.6496 115.194 32.7434 115.338 32.8809C115.481 33.0246 115.575 33.1871 115.606 33.3809C115.638 33.5746 115.625 33.7809 115.569 33.9996C115.513 34.2246 115.419 34.4309 115.3 34.6309C115.2 34.7871 115.1 34.9371 115 35.0746C114.9 35.2121 114.806 35.3309 114.725 35.4309C114.65 35.5121 114.625 35.5809 114.65 35.6246C114.675 35.6684 114.719 35.6559 114.788 35.5934C115.069 35.3121 115.313 34.9934 115.525 34.6434C115.625 34.4871 115.713 34.3121 115.794 34.1246L115.806 34.1309ZM111.575 35.1184C111.706 35.1434 111.831 35.1996 111.95 35.2746C112 35.2996 112.019 35.3309 112.019 35.3684C112.019 35.4059 112 35.4309 111.963 35.4559C111.925 35.4809 111.881 35.4996 111.819 35.5121C111.756 35.5246 111.694 35.5246 111.625 35.5121C111.519 35.4871 111.425 35.4184 111.338 35.3121C111.25 35.2059 111.2 35.0996 111.188 34.9934C111.313 35.0496 111.438 35.0934 111.575 35.1184Z" fill="white"/>
<path d="M111.487 32.2567C111.656 32.1192 111.812 31.9754 111.95 31.8254C112.094 31.6692 112.206 31.5067 112.3 31.3317C112.394 31.1567 112.444 30.9817 112.456 30.8004C112.469 30.6192 112.431 30.4379 112.344 30.2629C112.256 30.0817 112.1 29.9129 111.881 29.7442C111.669 29.5879 111.394 29.4379 111.062 29.2879C110.725 29.1442 110.369 29.0192 109.994 28.9192C109.619 28.8192 109.244 28.7379 108.881 28.6879C108.519 28.6379 108.206 28.6254 107.944 28.6567C107.8 28.6692 107.662 28.7067 107.525 28.7567C107.387 28.8067 107.256 28.8692 107.137 28.9504C107.012 29.0317 106.906 29.1254 106.8 29.2317C106.7 29.3379 106.612 29.4567 106.55 29.5817C106.494 29.6879 106.444 29.8192 106.4 29.9817C106.356 30.1442 106.319 30.3004 106.281 30.4629C106.25 30.6254 106.219 30.7629 106.187 30.8942C106.156 31.0192 106.125 31.1067 106.094 31.1504C106.081 31.1629 106.069 31.1567 106.056 31.1379C106.044 31.1192 106.031 31.0942 106.012 31.0629C105.994 31.0317 105.981 31.0004 105.969 30.9692C105.956 30.9379 105.944 30.9129 105.931 30.9004C105.894 30.8629 105.862 30.8504 105.831 30.8629C105.8 30.8754 105.781 30.9004 105.775 30.9379C105.769 31.0629 105.762 31.2379 105.75 31.4567C105.737 31.6754 105.744 31.9254 105.762 32.2067C105.775 32.2942 105.819 32.3192 105.887 32.2817C105.925 32.2629 105.975 32.2379 106.031 32.1942C106.094 32.1504 106.156 32.1067 106.219 32.0629C106.294 32.0129 106.369 31.9629 106.45 31.9004C106.462 31.8629 106.462 31.8129 106.45 31.7567C106.431 31.7004 106.431 31.6567 106.45 31.6317C106.606 31.3754 106.719 31.1192 106.794 30.8629C106.869 30.6067 106.937 30.3692 106.981 30.1504C107.031 29.9317 107.075 29.7442 107.112 29.5754C107.15 29.4129 107.212 29.2942 107.294 29.2254C107.469 29.2129 107.669 29.2129 107.894 29.2254C108.119 29.2442 108.35 29.2754 108.6 29.3192C108.85 29.3629 109.1 29.4192 109.35 29.4879C109.606 29.5567 109.85 29.6317 110.081 29.7192C110.312 29.8067 110.531 29.9004 110.725 30.0004C110.925 30.1004 111.094 30.2004 111.237 30.3067C111.481 30.4879 111.631 30.6817 111.694 30.8817C111.756 31.0817 111.75 31.2817 111.694 31.4754C111.631 31.6692 111.519 31.8567 111.35 32.0317C111.181 32.2067 110.994 32.3504 110.781 32.4754C110.775 32.4754 110.762 32.4817 110.756 32.4879C110.787 32.4504 110.819 32.4192 110.85 32.3817C110.969 32.2254 111.025 32.0817 111.019 31.9379C111.012 31.7942 110.956 31.6629 110.856 31.5504C110.756 31.4379 110.619 31.3442 110.437 31.2692C110.262 31.2004 110.062 31.1629 109.85 31.1567C109.631 31.1567 109.406 31.1942 109.169 31.2692C108.931 31.3504 108.706 31.4754 108.481 31.6567C108.369 31.7442 108.281 31.8504 108.219 31.9692C108.156 32.0879 108.106 32.2129 108.069 32.3442C108.031 32.4754 108.006 32.6129 108 32.7504C107.994 32.8879 107.987 33.0254 107.987 33.1629C107.656 33.2067 107.337 33.2442 107.031 33.2567C106.731 33.2754 106.5 33.2879 106.344 33.3004C106.294 33.3004 106.219 33.3317 106.112 33.3817C106.006 33.4317 105.906 33.4879 105.812 33.5442C105.725 33.6004 105.65 33.6567 105.6 33.7004C105.55 33.7442 105.55 33.7692 105.606 33.7629C105.975 33.7317 106.369 33.7067 106.781 33.6817C107.194 33.6567 107.6 33.6317 107.994 33.6004C108.012 33.8567 108.031 34.1067 108.031 34.3442C108.031 34.5817 108.031 34.8004 108.006 34.9942C107.937 34.9317 107.894 34.8879 107.875 34.8629C107.856 34.8379 107.825 34.8067 107.775 34.7754C107.694 34.7192 107.65 34.7192 107.631 34.7629C107.612 34.8067 107.612 34.8629 107.631 34.9254C107.644 34.9629 107.669 35.0442 107.7 35.1629C107.737 35.2817 107.775 35.4067 107.812 35.5379C107.856 35.6692 107.894 35.7942 107.937 35.8942C107.975 36.0004 108.006 36.0567 108.031 36.0692C108.062 36.0879 108.112 36.0754 108.162 36.0379C108.219 36.0004 108.275 35.9504 108.331 35.8942C108.387 35.8379 108.444 35.7817 108.487 35.7192C108.531 35.6567 108.562 35.6067 108.581 35.5754C108.606 35.5567 108.612 35.5192 108.6 35.4629C108.587 35.4067 108.569 35.3192 108.537 35.1942C108.575 34.9629 108.6 34.7129 108.612 34.4379C108.625 34.1629 108.612 33.8567 108.587 33.5192C109.037 33.4754 109.45 33.3567 109.837 33.1754C109.975 33.1067 110.106 33.0254 110.231 32.9379C110.481 32.8379 110.725 32.7254 110.969 32.5879C111.137 32.4942 111.306 32.3817 111.475 32.2442L111.487 32.2567ZM108.981 33.0754C108.819 33.1067 108.687 33.1192 108.587 33.1192C108.575 32.9129 108.575 32.6879 108.587 32.4442C108.606 32.1942 108.65 31.9817 108.725 31.7942C108.881 31.7504 109.056 31.7379 109.256 31.7692C109.456 31.8004 109.637 31.8504 109.806 31.9317C109.969 32.0067 110.094 32.1004 110.187 32.2067C110.275 32.3129 110.287 32.4254 110.219 32.5442C110.169 32.6379 110.075 32.7192 109.937 32.7879C109.8 32.8567 109.644 32.9192 109.475 32.9629C109.306 33.0067 109.144 33.0442 108.981 33.0754Z" fill="white"/>
<path d="M106.15 12.525C106.15 12.525 106.187 12.55 106.212 12.5375C106.337 12.4625 106.469 12.3937 106.606 12.3312C106.744 12.2687 106.887 12.2125 107.025 12.1625C107.05 12.15 107.062 12.1437 107.069 12.1437C107.075 12.1437 107.069 12.125 107.062 12.0875C107.037 12.0313 107 11.9562 106.95 11.8625C106.906 11.7687 106.862 11.6813 106.819 11.6C106.937 11.5313 107.069 11.4687 107.2 11.4125C107.331 11.3562 107.462 11.3063 107.594 11.2625C107.619 11.25 107.631 11.2438 107.637 11.2438C107.644 11.2438 107.637 11.2187 107.631 11.1875C107.587 11.1125 107.537 11.0063 107.469 10.8625C107.4 10.7188 107.35 10.6188 107.312 10.55C107.3 10.5438 107.287 10.5312 107.281 10.525C107.269 10.5125 107.262 10.5125 107.25 10.525C107.206 10.5375 107.15 10.5625 107.075 10.5938C107 10.625 106.925 10.6563 106.837 10.6938C106.756 10.7313 106.675 10.7687 106.594 10.8062C106.512 10.85 106.444 10.8813 106.387 10.9125C106.362 10.9313 106.356 10.9437 106.369 10.9625C106.412 11.0375 106.456 11.1125 106.5 11.1938C106.544 11.275 106.594 11.3625 106.637 11.4563C106.587 11.475 106.525 11.4938 106.45 11.525C106.375 11.5563 106.3 11.5875 106.225 11.6187C106.15 11.65 106.075 11.6875 106.006 11.725C105.931 11.7625 105.875 11.7938 105.825 11.8188C105.806 11.8313 105.794 11.8437 105.8 11.8625C105.856 11.9625 105.919 12.075 105.981 12.1875C106.044 12.3063 106.106 12.4188 106.156 12.5313L106.15 12.525Z" fill="white"/>
<path d="M111.913 5.16243C111.969 5.21243 112.006 5.26244 112.031 5.31244C112.063 5.38744 112.1 5.47493 112.144 5.57493C112.188 5.67493 112.231 5.78119 112.275 5.88119C112.319 5.98744 112.363 6.08743 112.4 6.18743C112.438 6.28743 112.469 6.36868 112.494 6.43118C112.706 6.97493 112.919 7.51243 113.144 8.04368C113.369 8.58118 113.594 9.11244 113.813 9.64994C114.038 10.1874 114.25 10.7249 114.45 11.2624C114.656 11.7999 114.844 12.3499 115.013 12.8999C115.1 13.1812 115.181 13.4624 115.256 13.7437C115.331 14.0249 115.4 14.3062 115.456 14.5874C115.469 14.6374 115.494 14.6687 115.531 14.6687C115.569 14.6687 115.588 14.6562 115.594 14.6187C115.625 14.4624 115.638 14.2874 115.638 14.0937C115.638 13.8999 115.619 13.6937 115.594 13.4874C115.563 13.2812 115.531 13.0749 115.488 12.8749C115.444 12.6749 115.4 12.4999 115.356 12.3499C115.188 11.7999 115 11.2499 114.794 10.7062C114.588 10.1624 114.375 9.62493 114.15 9.08743C113.925 8.55618 113.7 8.01869 113.475 7.48119C113.25 6.94369 113.031 6.40619 112.825 5.86869C112.819 5.83744 112.825 5.82494 112.85 5.84369C112.875 5.85619 112.906 5.88119 112.95 5.91244C112.994 5.94369 113.038 5.98119 113.094 6.01869C113.144 6.05619 113.194 6.08744 113.231 6.10619C113.288 6.13119 113.325 6.13119 113.35 6.08744C113.375 6.04994 113.369 5.98743 113.325 5.90618C113.294 5.84993 113.231 5.74994 113.119 5.59994C113.013 5.44994 112.888 5.29369 112.75 5.11869C112.613 4.94369 112.469 4.76868 112.325 4.59368C112.181 4.41868 112.063 4.26869 111.963 4.15619C111.931 4.11869 111.9 4.09993 111.875 4.11868C111.85 4.13118 111.831 4.15618 111.825 4.19368C111.825 4.21243 111.825 4.26869 111.813 4.35619C111.806 4.44369 111.8 4.53743 111.794 4.63743C111.794 4.73743 111.788 4.82493 111.788 4.90618C111.788 4.98743 111.788 5.03119 111.8 5.04369C111.813 5.07494 111.85 5.11243 111.906 5.16243H111.913Z" fill="white"/>
<path d="M138.144 22.7185C138.144 22.7185 138.113 22.6685 138.081 22.656C138.063 22.656 138.006 22.6372 137.925 22.6185C137.844 22.5997 137.756 22.5747 137.656 22.5497C137.563 22.5247 137.475 22.506 137.394 22.4935C137.313 22.481 137.269 22.4747 137.256 22.481C137.225 22.4872 137.175 22.5185 137.119 22.5622C137.063 22.606 137.006 22.6372 136.95 22.656C136.869 22.6747 136.775 22.6997 136.669 22.7247C136.563 22.7497 136.456 22.7747 136.344 22.7997C136.231 22.8247 136.125 22.8435 136.025 22.8685C135.919 22.8872 135.838 22.906 135.769 22.9185C135.088 23.0435 134.406 23.1872 133.725 23.3372C133.044 23.4872 132.363 23.631 131.688 23.781C131.006 23.9247 130.869 23.9685 130.181 24.0935C129.494 24.2185 128.806 24.3247 128.113 24.406C127.825 24.4372 127.538 24.4685 127.256 24.4935C126.969 24.5185 126.681 24.5372 126.394 24.5435C126.338 24.5435 126.306 24.556 126.3 24.5935C126.294 24.6247 126.3 24.6497 126.338 24.6622C126.481 24.7185 126.656 24.7685 126.85 24.7997C127.044 24.831 127.244 24.856 127.45 24.8685C127.656 24.881 127.863 24.881 128.063 24.8747C128.263 24.8747 128.444 24.8622 128.6 24.8435C129.288 24.7622 129.975 24.656 130.663 24.531C131.344 24.406 131.481 24.3622 132.169 24.2122C132.85 24.0622 133.531 23.9122 134.213 23.7622C134.894 23.6122 135.575 23.4747 136.263 23.3435C136.294 23.3435 136.306 23.3497 136.288 23.3685C136.269 23.3935 136.238 23.4185 136.2 23.456C136.163 23.4935 136.119 23.531 136.069 23.581C136.025 23.6247 135.988 23.6622 135.963 23.6997C135.925 23.7497 135.925 23.7935 135.956 23.8247C135.988 23.856 136.05 23.8622 136.131 23.831C136.194 23.8122 136.3 23.7622 136.469 23.6872C136.631 23.606 136.813 23.5185 137.006 23.4122C137.2 23.306 137.4 23.1997 137.6 23.0935C137.8 22.9872 137.963 22.8935 138.094 22.8122C138.138 22.7872 138.156 22.7622 138.15 22.731L138.144 22.7185Z" fill="white"/>
<path d="M117.144 6.36898C117.738 6.29398 119.25 6.29397 119.231 6.51272C119.219 6.65647 117.125 7.65023 117.031 7.72523C116.963 7.78148 116.988 7.91273 117.131 7.88148C117.638 7.75023 118.725 7.46898 119.05 7.23773C119.419 7.01273 120.25 5.92522 120.263 5.63147C120.275 5.23147 118.906 5.21898 118.613 5.20648C117.613 5.19398 117.613 5.17523 117.1 5.98773C116.875 6.33148 116.831 6.40022 117.144 6.37522V6.36898Z" fill="white"/>
<path d="M134.413 32.4686C134.275 33.0561 133.756 34.4874 133.563 34.3999C133.431 34.3374 133.225 32.0124 133.194 31.8936C133.163 31.8061 133.038 31.7874 133.013 31.9374C132.956 32.4624 132.85 33.5874 132.95 33.9749C133.038 34.3999 133.756 35.5624 134.031 35.6811C134.4 35.8311 134.881 34.5374 135 34.2624C135.356 33.3186 135.369 33.3249 134.788 32.5624C134.55 32.2311 134.494 32.1686 134.413 32.4686Z" fill="white"/>
<path d="M124.594 38.5808C124.206 39.0433 123.1 40.0808 122.969 39.912C122.881 39.7995 123.738 37.6308 123.763 37.512C123.775 37.4245 123.669 37.3495 123.581 37.462C123.294 37.9058 122.694 38.862 122.606 39.2495C122.494 39.6683 122.606 41.0308 122.806 41.262C123.063 41.562 124.075 40.6308 124.306 40.4433C125.05 39.762 125.063 39.7745 124.888 38.8308C124.819 38.4245 124.806 38.3433 124.6 38.5745L124.594 38.5808Z" fill="white"/>
<path d="M130.156 14.7748C130.075 14.7748 130.025 14.8748 130.138 14.9373C130.556 15.1435 131.469 15.5748 131.819 15.606C132.2 15.6623 133.381 15.3998 133.563 15.1998C133.8 14.9373 132.869 14.1373 132.669 13.956C131.987 13.3685 132 13.356 131.188 13.6248C130.838 13.731 130.769 13.756 131 13.9123C131.45 14.206 132.487 15.0748 132.356 15.2123C132.269 15.2998 130.269 14.781 130.156 14.7748Z" fill="white"/>
<path d="M113.231 18.1126C113.406 18.4063 113.85 18.1563 114.05 18.0126C114.35 17.8063 114.744 17.2688 114.831 16.9313C114.856 16.8376 114.869 16.7563 114.8 16.8313C114.544 17.1126 113.494 18.2001 113.3 17.8188C113.112 17.4626 113.525 16.3063 113.119 16.1626C112.931 16.1063 112.762 16.2751 112.631 16.3813C112.381 16.5938 112.375 16.5876 112.431 16.8938C112.437 17.0188 112.45 17.0501 112.519 16.9751C112.575 16.9188 112.937 16.5563 113.112 16.5688C113.194 16.7938 112.881 17.5126 113.237 18.1126H113.231Z" fill="white"/>
<path d="M120.15 33.8128C120.144 33.9003 120.206 33.8753 120.225 33.8253C120.463 32.7878 120.706 33.2253 121.125 33.0878C121.838 32.8503 122.119 31.544 122.669 30.7628C122.694 30.7315 122.925 30.469 122.8 30.519C121.944 30.894 122 32.3628 121.094 32.6628C120.694 32.794 120.5 32.4815 120.206 33.1315C120.069 33.1315 119.856 33.119 119.75 33.2253C119.594 33.3815 119.631 33.7565 119.688 33.9378C119.7 33.969 119.781 34.2253 119.825 34.1503C119.863 34.0815 119.881 33.969 119.894 33.9065C119.894 33.8815 119.769 33.7003 119.8 33.619C119.819 33.5753 120.069 33.5503 120.156 33.569C120.144 33.644 120.138 33.8065 120.144 33.819L120.15 33.8128Z" fill="white"/>
<path d="M125.088 20.1874C125.238 20.5562 125.288 20.9374 125.506 21.2062C125.75 21.5124 126.263 21.6999 126.594 21.4999C127.269 21.0749 126.025 20.5812 125.619 20.4937C125.613 20.3874 125.556 20.2562 125.5 20.1187C125.213 19.4187 123.894 19.2437 123.081 18.7499C123.05 18.7312 122.769 18.5187 122.831 18.6374C123.269 19.4687 124.719 19.2999 125.081 20.1812L125.088 20.1874ZM126.344 21.4374C126.094 21.4374 125.688 20.8624 125.681 20.6374C125.869 20.6937 126.719 21.0937 126.344 21.4374Z" fill="white"/>
<path d="M123.95 6.25641C124.013 6.28766 124.138 6.23766 124.2 6.26891C124.45 6.40016 124.231 7.55641 124.044 8.09391C124.019 8.13766 123.981 8.32517 124.156 8.25642C124.631 8.07517 125.544 6.29392 126.006 6.54392C126.194 6.64392 126.181 7.00016 126.244 7.03766C126.35 7.09391 126.663 6.73767 126.713 6.64392C126.813 6.45642 126.65 6.08766 126.481 5.99391C125.813 5.63141 124.694 7.48142 124.594 7.40642C124.581 7.40017 125.144 5.63141 124.4 5.22516C124.275 5.15641 123.738 5.45016 123.688 5.54391C123.619 5.66891 123.825 6.18141 123.95 6.25016V6.25641Z" fill="white"/>
<path d="M133.475 26.6814C133.425 26.6751 133.244 26.7001 133.363 26.8438C133.7 27.2313 135.669 27.4813 135.594 28.0063C135.563 28.2188 135.231 28.3314 135.219 28.4001C135.2 28.5251 135.638 28.6938 135.744 28.7063C135.95 28.7376 136.238 28.4564 136.269 28.2626C136.375 27.5064 134.269 27.0813 134.306 26.9626C134.306 26.9438 136.15 26.8688 136.269 26.0251C136.288 25.8813 135.831 25.4814 135.725 25.4626C135.588 25.4439 135.181 25.8126 135.156 25.9563C135.144 26.0251 135.238 26.1313 135.225 26.2001C135.188 26.4813 134.038 26.6751 133.469 26.6814H133.475Z" fill="white"/>
<path d="M99.8314 15.4745C99.9502 15.5433 100.469 15.3495 100.538 15.2245C100.569 15.162 100.525 15.0308 100.556 14.9683C100.694 14.7245 101.831 14.9683 102.363 15.1683C102.406 15.1933 102.588 15.237 102.525 15.0558C102.356 14.5683 100.606 13.612 100.869 13.1495C100.975 12.962 101.325 12.9808 101.363 12.9183C101.425 12.812 101.075 12.4933 100.988 12.437C100.806 12.3308 100.431 12.487 100.338 12.6558C99.9627 13.3183 101.769 14.4933 101.694 14.5933C101.688 14.6058 99.9439 13.9995 99.5314 14.737C99.4627 14.862 99.7377 15.4058 99.8314 15.4621V15.4745Z" fill="white"/>
<path d="M98.7939 31.038C98.9251 30.9942 99.1376 30.488 99.1001 30.3505C99.0751 30.2817 98.9501 30.2317 98.9314 30.163C98.8501 29.8942 99.8064 29.2255 100.313 28.9692C100.363 28.9567 100.519 28.8505 100.344 28.7755C99.8751 28.5692 97.9876 29.1942 97.8314 28.688C97.7689 28.4817 98.0251 28.238 98.0064 28.1692C97.9689 28.0505 97.5001 28.088 97.4001 28.1192C97.2001 28.1817 97.0564 28.563 97.1126 28.7442C97.3376 29.4755 99.4189 28.9505 99.4439 29.0755C99.4439 29.0942 97.8189 29.9505 98.0626 30.7692C98.1064 30.9067 98.6876 31.0755 98.7939 31.0442V31.038Z" fill="white"/>
<path d="M130.031 39.9938C129.994 40.0313 130 40.1438 129.956 40.1813C129.738 40.3938 128.694 39.6813 128.556 39.5751C128.681 39.2813 128.356 38.7813 128.288 38.8313C128.238 38.8563 128.313 39.0751 128.181 39.2063C128.144 39.2438 128.013 39.2688 127.969 39.2438C128.281 38.6876 128.313 38.2313 127.769 37.6563C127.313 37.1688 127.088 37.1376 126.544 36.7501C126.238 36.5251 125.938 36.3126 125.656 36.0563C125.588 35.9876 125.556 36.0563 125.588 36.1063C125.838 36.4688 126.363 36.8626 126.838 37.2001C127.213 37.4751 127.45 37.5188 127.756 37.8438C128.256 38.3688 127.488 39.1126 127.175 39.3938C127.156 39.4126 127.331 39.8251 127.394 39.8063C127.788 39.7376 128.294 39.8688 128.506 39.6813C128.525 40.0876 129.619 41.2001 129.319 41.4876C129.2 41.6063 128.944 41.5188 128.906 41.5563C128.838 41.6251 129.025 41.9438 129.075 41.9938C129.188 42.1188 129.513 42.0938 129.625 41.9876C130.044 41.5813 128.956 40.2751 129.025 40.2063C129.038 40.1938 130.219 41.0626 130.7 40.6001C130.781 40.5251 130.681 40.0563 130.613 39.9876C130.544 39.9188 130.113 39.9251 130.038 40.0063L130.031 39.9938Z" fill="white"/>
<path d="M104.419 34.9188C104.469 34.9375 104.544 34.9375 104.644 34.9188C104.744 34.9 104.919 34.8625 105.156 34.8063C105.194 34.8063 105.194 34.7938 105.175 34.7688V34.7438C104.156 34.2625 104.981 34.65 103.994 34.1313C103.006 33.6125 102.025 33.0625 101.056 32.4875C101 32.4563 100.95 32.45 100.913 32.4563C100.875 32.4688 100.775 32.4813 100.619 32.5063C100.356 32.575 100.256 32.625 100.313 32.65C101.281 33.225 102.256 33.775 103.238 34.3C104.219 34.825 103.394 34.4375 104.413 34.9188H104.419Z" fill="white"/>
<path d="M123.481 10.2933C125.094 10.5871 126.694 10.9246 128.269 11.2996C129.844 11.6746 131.419 12.0933 133 12.5496C133.044 12.5621 133.088 12.5683 133.119 12.5746C133.15 12.5746 133.194 12.5746 133.231 12.5558C133.275 12.5433 133.325 12.5183 133.394 12.4808C133.463 12.4496 133.55 12.3996 133.663 12.3433C133.85 12.2496 133.994 12.1746 134.081 12.1121C134.175 12.0496 134.181 12.0121 134.1 11.9933C132.525 11.5371 130.95 11.1183 129.369 10.7371C127.794 10.3558 126.194 10.0183 124.581 9.72456C124.506 9.71831 124.394 9.74331 124.238 9.81206C124.088 9.88081 123.831 10.0058 123.481 10.1933C123.444 10.2058 123.438 10.2246 123.45 10.2558L123.475 10.2996L123.481 10.2933Z" fill="white"/>
<path d="M104.388 16.869C104.388 16.869 104.419 16.9065 104.444 16.8877L104.481 16.8627C104.606 15.3815 104.775 13.919 104.981 12.4627C105.188 11.0127 105.425 9.55648 105.7 8.09398C105.706 8.05648 105.713 8.01898 105.713 7.98773C105.713 7.95648 105.7 7.92523 105.681 7.88773C105.663 7.85023 105.638 7.80648 105.6 7.74398C105.563 7.68773 105.519 7.60648 105.456 7.51273C105.356 7.35023 105.281 7.23148 105.219 7.15023C105.156 7.07523 105.119 7.06898 105.113 7.13773C104.838 8.59398 104.594 10.0502 104.388 11.5065C104.181 12.9627 104.013 14.4252 103.881 15.9065C103.881 15.9752 103.919 16.0752 103.988 16.2065C104.063 16.3377 104.194 16.5565 104.388 16.8565V16.869Z" fill="white"/>
<path d="M112.069 40.7252C110.606 40.5627 109.156 40.3627 107.719 40.1252C106.281 39.8877 104.844 39.6127 103.406 39.3064C103.369 39.3002 103.331 39.2939 103.3 39.2939C103.269 39.2939 103.238 39.3002 103.2 39.319C103.163 39.3377 103.119 39.3627 103.056 39.3939C103 39.4314 102.919 39.4752 102.825 39.5314C102.663 39.6252 102.544 39.7064 102.463 39.7627C102.388 39.8252 102.381 39.8627 102.45 39.8689C103.888 40.1752 105.325 40.4564 106.763 40.6939C108.2 40.9377 109.65 41.1377 111.113 41.3002C111.181 41.3002 111.281 41.2689 111.413 41.2002C111.544 41.1314 111.763 41.0002 112.069 40.8127C112.1 40.8002 112.106 40.7815 112.088 40.7565L112.063 40.7189L112.069 40.7252Z" fill="white"/>
<path d="M136.469 30.5996C136.425 30.5746 136.369 30.5371 136.288 30.4871C136.213 30.4371 136.131 30.3871 136.05 30.3371L135.825 30.2121C135.756 30.1746 135.719 30.1558 135.713 30.1558C135.475 30.1746 135.231 30.1871 134.975 30.1933C134.719 30.1933 134.475 30.1933 134.244 30.1683C133.138 30.0246 132.063 29.7996 131.019 29.5371C129.975 29.2683 128.919 28.9683 127.856 28.6308C127.494 28.5183 127.163 28.4308 126.856 28.3683C126.55 28.3058 126.263 28.2808 126 28.2871C125.738 28.2933 125.488 28.3433 125.256 28.4246C125.025 28.5121 124.788 28.6433 124.55 28.8183L124.113 29.1433C123.963 29.2558 123.813 29.3746 123.663 29.5058C123.663 29.5183 123.65 29.5308 123.638 29.5496C123.625 29.5683 123.638 29.5871 123.65 29.6058C123.731 29.6871 123.813 29.7558 123.881 29.8183L124.156 30.0558C124.206 30.1058 124.263 30.1183 124.319 30.0871C124.388 30.0371 124.469 29.9871 124.556 29.9371C124.644 29.8871 124.738 29.8433 124.838 29.7996C124.938 29.7558 125.044 29.7246 125.15 29.6933C125.256 29.6683 125.363 29.6558 125.475 29.6558C125.625 29.6558 125.763 29.6808 125.888 29.7121C126.013 29.7496 126.144 29.8058 126.288 29.8871C126.363 29.9308 126.45 30.0121 126.544 30.1433C126.638 30.2746 126.719 30.4121 126.775 30.5621C126.838 30.7121 126.875 30.8621 126.881 30.9996C126.888 31.1371 126.85 31.2433 126.769 31.2996C126.681 31.3621 126.544 31.3871 126.375 31.3683C126.206 31.3496 126.025 31.3433 125.838 31.3308C125.65 31.3246 125.469 31.3308 125.288 31.3683C125.106 31.3996 124.969 31.5058 124.856 31.6808C124.769 31.8183 124.725 31.9621 124.713 32.1183C124.7 32.2746 124.713 32.4371 124.75 32.5996C124.788 32.7621 124.844 32.9308 124.919 33.0933C124.994 33.2558 125.088 33.4121 125.194 33.5496C125.056 33.4371 124.906 33.3371 124.738 33.2371C124.575 33.1433 124.406 33.0683 124.238 33.0121C124.069 32.9558 123.913 32.9433 123.756 32.9558C123.6 32.9746 123.463 33.0496 123.338 33.1746C123.194 33.3058 123.094 33.4558 123.025 33.6246C122.956 33.7996 122.906 33.9683 122.869 34.1433C122.831 34.3183 122.794 34.4933 122.763 34.6558C122.731 34.8183 122.681 34.9683 122.613 35.0871C122.469 34.7996 122.313 34.5996 122.156 34.4746C121.994 34.3496 121.838 34.2871 121.681 34.2683C121.525 34.2558 121.375 34.2933 121.225 34.3808C121.081 34.4683 120.95 34.5871 120.831 34.7308C120.713 34.8746 120.606 35.0558 120.519 35.2621C120.431 35.4683 120.375 35.6871 120.35 35.9121C120.163 35.5683 119.956 35.3683 119.738 35.2996C119.519 35.2308 119.319 35.2558 119.131 35.3808C118.944 35.4996 118.794 35.6996 118.669 35.9808C118.544 36.2621 118.506 36.5871 118.563 36.9683C118.569 37.0308 118.594 37.1121 118.638 37.2246C118.681 37.3371 118.731 37.4496 118.781 37.5558C118.831 37.6683 118.888 37.7558 118.938 37.8308C118.988 37.9058 119.025 37.9371 119.056 37.9308C119.069 37.9246 119.081 37.8808 119.094 37.7996C119.106 37.7246 119.119 37.6371 119.125 37.5371C119.131 37.4371 119.138 37.3433 119.138 37.2558C119.138 37.1683 119.138 37.1058 119.138 37.0808C119.138 37.0621 119.119 37.0371 119.081 36.9996L118.981 36.8933C118.944 36.8558 118.913 36.8121 118.875 36.7621C118.844 36.7183 118.819 36.6746 118.806 36.6308C118.863 36.5496 118.969 36.4683 119.113 36.3996C119.256 36.3308 119.375 36.2746 119.481 36.2496C119.631 36.2121 119.744 36.2121 119.838 36.2621C119.925 36.3058 119.994 36.3746 120.038 36.4683C120.081 36.5621 120.106 36.6746 120.106 36.7996C120.106 36.9246 120.094 37.0496 120.063 37.1683C120.05 37.2121 120.069 37.2433 120.113 37.2558C120.156 37.2683 120.194 37.2558 120.219 37.2121C120.288 37.1246 120.356 36.9933 120.413 36.8246C120.469 36.6558 120.55 36.4746 120.638 36.2871C120.731 36.0996 120.85 35.9183 121 35.7371C121.144 35.5558 121.344 35.4183 121.606 35.2996C121.756 35.2371 121.881 35.2058 122 35.2183C122.119 35.2246 122.219 35.2621 122.313 35.3308C122.4 35.3996 122.475 35.4933 122.531 35.6183C122.588 35.7433 122.619 35.8808 122.619 36.0433C122.619 36.0746 122.631 36.1058 122.65 36.1371C122.675 36.1683 122.7 36.1683 122.731 36.1496C122.794 36.1183 122.856 36.0121 122.919 35.8371L123.131 35.2308C123.213 35.0058 123.313 34.7746 123.431 34.5433C123.55 34.3121 123.713 34.1246 123.919 33.9683C124.081 33.8496 124.25 33.7996 124.425 33.8183C124.6 33.8433 124.775 33.8996 124.956 33.9871C125.138 34.0808 125.306 34.1933 125.469 34.3308C125.638 34.4683 125.781 34.5871 125.913 34.6933C126.238 34.9558 126.588 35.2058 126.969 35.4433C127.344 35.6808 127.713 35.8496 128.081 35.9558C128.119 35.9683 128.15 35.9558 128.175 35.9246C128.2 35.8871 128.206 35.8621 128.194 35.8371C128.169 35.7996 128.125 35.7308 128.081 35.6308C128.031 35.5371 127.981 35.4371 127.925 35.3371L127.769 35.0683C127.725 34.9871 127.688 34.9433 127.669 34.9371C127.538 34.8871 127.363 34.8121 127.131 34.6933C126.906 34.5808 126.681 34.4496 126.456 34.3058C126.231 34.1621 126.025 34.0121 125.838 33.8621C125.65 33.7058 125.525 33.5683 125.469 33.4496C125.419 33.3558 125.381 33.2621 125.369 33.1558C125.35 33.0496 125.35 32.9496 125.369 32.8496C125.381 32.7496 125.406 32.6496 125.45 32.5621C125.488 32.4683 125.538 32.3933 125.6 32.3246C125.688 32.2121 125.788 32.1433 125.906 32.1183C126.025 32.0933 126.144 32.0808 126.269 32.0808C126.394 32.0808 126.525 32.0996 126.656 32.1246C126.794 32.1496 126.913 32.1683 127.031 32.1746C127.144 32.1808 127.25 32.1746 127.338 32.1433C127.425 32.1121 127.488 32.0496 127.531 31.9558C127.606 31.7746 127.638 31.5746 127.613 31.3621C127.588 31.1496 127.525 30.9433 127.425 30.7433C127.325 30.5433 127.194 30.3496 127.031 30.1683C126.875 29.9871 126.7 29.8246 126.519 29.6808C126.331 29.5371 126.15 29.4183 125.956 29.3183C125.825 29.2496 125.694 29.1933 125.575 29.1558C125.9 28.9621 126.231 28.8558 126.6 28.8433C127.031 28.8308 127.513 28.9058 128.044 29.0871C129.094 29.4433 130.131 29.7808 131.169 30.0933C132.206 30.4058 133.275 30.6558 134.375 30.8308C134.65 30.8621 134.931 30.8871 135.231 30.8996C135.525 30.9121 135.788 30.9058 136.006 30.8808C136.231 30.8558 136.388 30.8183 136.488 30.7683C136.588 30.7183 136.575 30.6496 136.463 30.5683L136.469 30.5996Z" fill="white"/>
<path d="M128.531 33.1003C128.531 33.1003 128.487 33.1191 128.481 33.1253C128.475 33.1253 128.475 33.1503 128.481 33.1816C128.512 33.2628 128.556 33.3816 128.6 33.5441C128.644 33.7003 128.681 33.8191 128.706 33.8941C128.719 33.9003 128.725 33.9128 128.738 33.9253C128.744 33.9378 128.756 33.9378 128.769 33.9253C128.813 33.9128 128.881 33.8878 128.963 33.8566C129.044 33.8253 129.138 33.7878 129.225 33.7441C129.319 33.7003 129.412 33.6566 129.506 33.6066L129.744 33.4753C129.744 33.4753 129.781 33.4378 129.769 33.4191L129.662 33.1566C129.625 33.0691 129.588 32.9691 129.55 32.8691C129.606 32.8441 129.675 32.8191 129.75 32.7753C129.831 32.7378 129.912 32.6941 129.994 32.6503C130.075 32.6066 130.156 32.5566 130.238 32.5003L130.431 32.3628C130.431 32.3628 130.462 32.3316 130.462 32.3066L130.281 31.9566C130.213 31.8316 130.156 31.7066 130.1 31.5941C130.088 31.5753 130.063 31.5753 130.038 31.5878C129.906 31.6878 129.769 31.7816 129.625 31.8691C129.481 31.9566 129.331 32.0316 129.181 32.0941C129.156 32.1066 129.144 32.1128 129.138 32.1191C129.131 32.1191 129.138 32.1441 129.144 32.1753L129.244 32.4191L129.363 32.7066C129.225 32.7878 129.088 32.8628 128.944 32.9316C128.8 33.0003 128.656 33.0566 128.513 33.1003H128.531Z" fill="white"/>
<path d="M130 32.9566C130 32.9566 129.994 32.9816 130.006 33.0128C130.038 33.1003 130.081 33.2253 130.131 33.3878C130.181 33.5503 130.225 33.6691 130.269 33.7378C130.269 33.7691 130.288 33.7816 130.319 33.7753C130.369 33.7566 130.431 33.7253 130.519 33.6816C130.606 33.6378 130.694 33.5941 130.794 33.5378C130.894 33.4878 130.988 33.4316 131.081 33.3628C131.175 33.3003 131.25 33.2441 131.313 33.1941C131.338 33.1753 131.35 33.1566 131.344 33.1378L131.175 32.7628C131.119 32.6253 131.063 32.5003 131.013 32.3753C131 32.3566 130.975 32.3566 130.944 32.3691C130.806 32.4878 130.656 32.5878 130.506 32.6816C130.356 32.7753 130.2 32.8503 130.05 32.9253C130.025 32.9378 130.006 32.9503 130 32.9566Z" fill="white"/>
<path d="M131.181 35.35C131.181 35.35 131.15 35.325 131.113 35.3375C130.95 35.4437 130.781 35.5375 130.606 35.625C130.431 35.7125 130.256 35.7812 130.081 35.8437C130.056 35.8562 130.037 35.8625 130.025 35.8687C130.019 35.8687 130.013 35.8937 130.013 35.9375L130.056 36.2125L130.106 36.5375C129.944 36.6187 129.775 36.6937 129.606 36.7562C129.437 36.8187 129.269 36.8687 129.1 36.9125C129.069 36.925 129.05 36.9312 129.044 36.9375C129.038 36.9375 129.031 36.9625 129.031 37C129.044 37.0937 129.056 37.225 129.063 37.4062C129.063 37.5812 129.075 37.7125 129.087 37.7937C129.1 37.8062 129.106 37.8125 129.113 37.8312C129.119 37.8437 129.131 37.8437 129.15 37.8375C129.206 37.825 129.281 37.8062 129.375 37.775C129.475 37.7437 129.581 37.7125 129.694 37.675C129.806 37.6375 129.919 37.5937 130.031 37.55L130.319 37.425C130.356 37.4062 130.369 37.3875 130.363 37.3625L130.319 37.0687C130.3 36.9687 130.288 36.8562 130.275 36.7437C130.338 36.725 130.419 36.6937 130.512 36.6562C130.606 36.6187 130.706 36.5812 130.806 36.5375C130.906 36.4937 131.006 36.4437 131.1 36.3937L131.344 36.2562C131.344 36.2562 131.388 36.225 131.388 36.2L131.288 35.7937C131.25 35.65 131.219 35.5062 131.194 35.3687L131.181 35.35Z" fill="white"/>
<path d="M106.625 36.8748C106.625 36.8748 106.606 36.8311 106.606 36.8248C106.606 36.8186 106.581 36.8123 106.544 36.8186L106.275 36.8623L105.956 36.9123C105.881 36.7498 105.825 36.5873 105.769 36.4248C105.719 36.2561 105.675 36.0936 105.644 35.9311C105.637 35.9061 105.631 35.8873 105.625 35.8748C105.625 35.8685 105.6 35.8623 105.562 35.8623C105.475 35.8748 105.344 35.8873 105.169 35.8998C105 35.9061 104.869 35.9186 104.794 35.9311C104.781 35.9373 104.775 35.9498 104.756 35.9498C104.744 35.9498 104.737 35.9686 104.75 35.9873C104.762 36.0373 104.775 36.1123 104.8 36.2123C104.825 36.3061 104.85 36.4123 104.887 36.5185C104.919 36.6248 104.956 36.7373 105 36.8435L105.106 37.1248C105.125 37.1623 105.144 37.1748 105.162 37.1686L105.45 37.1186C105.55 37.0998 105.656 37.0873 105.769 37.0686C105.787 37.1311 105.812 37.206 105.844 37.2998C105.875 37.3935 105.912 37.4873 105.95 37.5873C105.987 37.6811 106.031 37.7811 106.075 37.8748L106.194 38.1123C106.194 38.1123 106.225 38.1561 106.25 38.1561L106.644 38.0498C106.781 38.0123 106.919 37.981 107.056 37.956C107.075 37.9435 107.081 37.9248 107.075 37.8936C106.981 37.7373 106.9 37.5686 106.825 37.3936C106.75 37.2186 106.687 37.0498 106.637 36.881L106.625 36.8748Z" fill="white"/>
<path d="M103.45 30.0496C104.425 29.5809 105.425 29.1309 106.444 28.6934C106.581 28.6371 106.737 28.5684 106.919 28.4871C107.1 28.4059 107.281 28.3184 107.469 28.2184C107.656 28.1184 107.838 28.0184 108.006 27.9059C108.175 27.7996 108.319 27.6809 108.444 27.5621C108.562 27.4434 108.65 27.3184 108.7 27.1934C108.75 27.0684 108.744 26.9371 108.681 26.7996C108.581 26.5746 108.463 26.3559 108.338 26.1559L107.95 25.5371C107.819 25.3246 107.694 25.1059 107.575 24.8746C107.456 24.6434 107.35 24.3934 107.269 24.1184C107.2 23.8871 107.156 23.6371 107.131 23.3684C107.144 23.3684 107.156 23.3809 107.169 23.3809C107.375 23.4559 107.625 23.5184 107.913 23.5871C108.2 23.6496 108.481 23.6809 108.763 23.6871C109.044 23.6871 109.288 23.6621 109.5 23.5996C109.713 23.5371 109.85 23.4246 109.919 23.2496C109.963 23.1496 109.969 23.0246 109.944 22.8809C109.919 22.7371 109.881 22.5809 109.819 22.4059C109.762 22.2309 109.688 22.0434 109.6 21.8434L109.338 21.2246C109.244 21.0121 109.156 20.8059 109.063 20.5996C108.969 20.3934 108.881 20.1996 108.794 20.0246C108.675 19.7934 108.519 19.5871 108.319 19.4059C108.119 19.2246 107.919 19.0434 107.706 18.8684L108.156 19.0559C108.325 19.1246 108.494 19.1996 108.669 19.2684C108.844 19.3371 109.025 19.3996 109.2 19.4559C109.375 19.5121 109.544 19.5434 109.694 19.5559C109.844 19.5684 109.981 19.5559 110.094 19.5121C110.212 19.4684 110.3 19.3871 110.369 19.2621C110.488 19.0371 110.581 18.8184 110.669 18.5934L110.919 17.9059C111 17.6746 111.1 17.4434 111.2 17.2059C111.306 16.9684 111.438 16.7309 111.6 16.4996C111.763 16.2684 111.969 16.0434 112.206 15.8371C112.45 15.6309 112.744 15.4434 113.1 15.2871C113.131 15.2746 113.144 15.2121 113.131 15.0996C113.125 14.9871 113.125 14.8746 113.131 14.7621C113.131 14.6496 113.119 14.5434 113.106 14.4496C113.094 14.3559 113.056 14.3184 113 14.3434C112.619 14.4996 112.238 14.6496 111.863 14.7871C111.488 14.9309 111.113 15.0809 110.731 15.2434C110.356 15.4059 109.981 15.5809 109.606 15.7684C109.231 15.9621 108.862 16.1809 108.5 16.4371C108.531 16.2871 108.538 16.1246 108.519 15.9496C108.5 15.7746 108.475 15.5996 108.438 15.4246C108.4 15.2496 108.363 15.0809 108.319 14.9184C108.275 14.7559 108.238 14.6121 108.206 14.4809C108.175 14.3496 108.156 14.2434 108.144 14.1621C108.138 14.0809 108.144 14.0309 108.187 14.0184C108.212 14.0184 108.263 14.0371 108.331 14.0809L108.587 14.2559C108.694 14.3246 108.806 14.3934 108.931 14.4559C109.056 14.5184 109.187 14.5621 109.331 14.5934C109.475 14.6184 109.619 14.6184 109.763 14.5809C109.913 14.5496 110.056 14.4621 110.2 14.3309C110.331 14.2121 110.462 14.0809 110.581 13.9246C110.7 13.7684 110.825 13.6121 110.944 13.4496L111.294 12.9559C111.406 12.7934 111.525 12.6371 111.644 12.4934C111.938 12.7309 112.225 12.8934 112.506 12.9871C112.775 13.0746 113.063 13.0746 113.388 12.9871C113.381 13.0371 113.369 13.0934 113.363 13.1496C113.344 13.3059 113.331 13.4434 113.331 13.5684C113.331 13.9496 113.413 14.2871 113.563 14.5684C113.713 14.8496 113.906 15.0871 114.15 15.2684C114.394 15.4496 114.681 15.5871 115 15.6809C115.325 15.7746 115.663 15.8121 116.013 15.8059C116.425 15.7996 116.888 15.7434 117.4 15.6434C117.688 15.5871 117.969 15.5184 118.256 15.4434C118.187 15.6059 118.125 15.7621 118.081 15.9246C118.019 16.1371 117.988 16.3434 117.981 16.5434C117.975 16.7496 118.006 16.9371 118.075 17.1121C118.144 17.2871 118.262 17.4371 118.431 17.5621C118.594 17.6871 118.819 17.7746 119.1 17.8309C119.281 17.8684 119.481 17.8871 119.712 17.8809C119.944 17.8809 120.187 17.8621 120.444 17.8309C120.7 17.7996 120.963 17.7621 121.231 17.7059C121.5 17.6496 121.756 17.5871 122.006 17.5121C122.256 17.4434 122.488 17.3621 122.706 17.2746C122.919 17.1871 123.106 17.0934 123.263 16.9996C123.425 16.8996 123.581 16.7559 123.725 16.5621C123.869 16.3684 123.969 16.1809 124.031 15.9934C124.081 15.8496 124.106 15.7184 124.094 15.6059C124.088 15.4934 124.069 15.3871 124.044 15.2871C124.019 15.1871 123.994 15.0809 123.969 14.9746C123.944 14.8684 123.944 14.7434 123.956 14.5996V14.5809L124.35 14.6496L124.906 14.7496C124.812 14.8559 124.744 14.9621 124.694 15.0559C124.644 15.1496 124.613 15.2434 124.6 15.3309C124.588 15.4184 124.588 15.5121 124.6 15.6121C124.613 15.7121 124.638 15.8246 124.675 15.9434L124.5 16.0434C124.431 16.0809 124.369 16.1184 124.312 16.1559C124.256 16.1934 124.206 16.2371 124.175 16.2746C124.137 16.3121 124.125 16.3434 124.131 16.3746C124.138 16.4121 124.169 16.4246 124.212 16.4246C124.256 16.4246 124.313 16.4121 124.375 16.3871C124.438 16.3621 124.513 16.3309 124.588 16.2996L124.806 16.1996C125.025 16.5434 125.275 16.8871 125.569 17.2371C125.863 17.5871 126.169 17.9371 126.494 18.2996C126.813 18.6559 127.138 19.0121 127.463 19.3621C127.794 19.7121 128.1 20.0434 128.406 20.3496C128.525 20.4684 128.656 20.5996 128.794 20.7496C128.938 20.8996 129.056 21.0309 129.15 21.1496C128.875 21.4059 128.669 21.6559 128.538 21.9121C128.419 22.1434 128.375 22.4059 128.4 22.6996C128.175 22.6371 127.944 22.5871 127.706 22.5559C127.5 22.5246 127.281 22.5059 127.044 22.5059C126.813 22.5059 126.581 22.5246 126.356 22.5621C126.131 22.5996 125.925 22.6621 125.731 22.7434C125.538 22.8309 125.375 22.9434 125.244 23.0934C125.113 23.2371 125.025 23.4184 124.988 23.6309C124.944 23.8434 124.962 24.0996 125.044 24.3871C125.119 24.6684 125.256 24.9809 125.444 25.3309C125.631 25.6809 125.856 26.0246 126.113 26.3684C126.369 26.7121 126.638 27.0246 126.913 27.3121C127.188 27.5996 127.45 27.8184 127.7 27.9684C127.831 28.0496 127.969 28.1184 128.119 28.1684C128.269 28.2184 128.425 28.2496 128.581 28.2621C128.738 28.2746 128.894 28.2684 129.05 28.2496C129.206 28.2246 129.356 28.1809 129.5 28.1184C129.619 28.0684 129.744 27.9871 129.894 27.8809C130.038 27.7746 130.175 27.6621 130.313 27.5496C130.444 27.4371 130.569 27.3309 130.675 27.2434C130.781 27.1559 130.869 27.0996 130.925 27.0871C130.944 27.0871 130.956 27.0934 130.95 27.1184C130.95 27.1434 130.944 27.1746 130.938 27.2121C130.931 27.2496 130.925 27.2871 130.912 27.3246C130.9 27.3621 130.9 27.3871 130.9 27.4059C130.9 27.4621 130.925 27.4934 130.963 27.5059C131 27.5184 131.031 27.5059 131.062 27.4809C131.156 27.3746 131.275 27.2309 131.431 27.0496C131.588 26.8684 131.75 26.6559 131.919 26.4059C131.963 26.3184 131.944 26.2684 131.863 26.2559C131.819 26.2496 131.756 26.2371 131.675 26.2371C131.594 26.2371 131.513 26.2246 131.431 26.2246C131.338 26.2121 131.231 26.2059 131.125 26.2059C131.088 26.2309 131.056 26.2746 131.031 26.3309C131.006 26.3934 130.981 26.4246 130.944 26.4371C130.644 26.5496 130.375 26.6934 130.138 26.8621C129.9 27.0309 129.694 27.1871 129.506 27.3434C129.325 27.4934 129.156 27.6309 129.013 27.7434C128.869 27.8559 128.738 27.9184 128.625 27.9246C128.463 27.8184 128.294 27.6809 128.113 27.5184C127.931 27.3559 127.756 27.1684 127.575 26.9621C127.394 26.7559 127.219 26.5371 127.044 26.3121C126.869 26.0871 126.712 25.8559 126.569 25.6246C126.425 25.3934 126.306 25.1684 126.2 24.9496C126.094 24.7309 126.019 24.5309 125.962 24.3434C125.875 24.0246 125.875 23.7559 125.956 23.5434C126.038 23.3309 126.169 23.1621 126.356 23.0371C126.544 22.9121 126.756 22.8309 127.019 22.7934C127.275 22.7559 127.538 22.7559 127.794 22.7934C128 22.8246 128.2 22.8621 128.388 22.9121C128.4 22.9121 128.419 22.9184 128.431 22.9246C128.462 23.0371 128.512 23.1246 128.587 23.1934C128.687 23.2871 128.806 23.3559 128.944 23.3996C129.081 23.4434 129.225 23.4684 129.381 23.4684C129.537 23.4684 129.681 23.4684 129.819 23.4496C130.137 23.4184 130.362 23.3246 130.512 23.1621C130.656 22.9996 130.738 22.7996 130.75 22.5684C130.763 22.3371 130.719 22.0809 130.613 21.8246C130.506 21.5684 130.369 21.3309 130.2 21.1246C130.181 21.1059 130.163 21.0871 130.144 21.0621C130.169 21.0246 130.181 20.9996 130.188 20.9934C130.194 20.9809 130.206 20.9684 130.231 20.9434C130.438 20.7371 130.719 20.5309 131.081 20.3184C131.444 20.1059 131.831 19.8996 132.237 19.6934C132.65 19.4934 133.056 19.3059 133.456 19.1309C133.856 18.9559 134.2 18.8059 134.481 18.6746C134.556 18.6434 134.612 18.6121 134.662 18.5934C134.712 18.5746 134.756 18.5559 134.8 18.5309C134.844 18.5121 134.894 18.4871 134.944 18.4684C134.994 18.4496 135.063 18.4184 135.144 18.3934C135.169 18.3871 135.175 18.3934 135.169 18.4246C135.162 18.4496 135.144 18.4871 135.112 18.5309C135.087 18.5746 135.05 18.6184 135.019 18.6746C134.981 18.7246 134.956 18.7746 134.944 18.8121C134.925 18.8684 134.931 18.9121 134.975 18.9371C135.012 18.9621 135.069 18.9496 135.138 18.9059C135.188 18.8746 135.287 18.7934 135.419 18.6746C135.556 18.5559 135.706 18.4121 135.869 18.2559C136.031 18.0996 136.194 17.9434 136.356 17.7809C136.519 17.6246 136.65 17.4871 136.756 17.3746C136.788 17.3434 136.794 17.3121 136.781 17.2871C136.763 17.2621 136.738 17.2434 136.7 17.2434C136.681 17.2434 136.625 17.2434 136.537 17.2434C136.45 17.2434 136.362 17.2434 136.262 17.2434C136.169 17.2434 136.081 17.2496 135.994 17.2559C135.913 17.2621 135.869 17.2746 135.856 17.2871C135.825 17.3059 135.794 17.3434 135.75 17.4059C135.706 17.4684 135.663 17.5121 135.613 17.5371C135.325 17.6746 135.037 17.8121 134.756 17.9434C134.469 18.0746 134.194 18.2059 133.925 18.3309C133.644 18.4621 133.3 18.6184 132.9 18.7934C132.5 18.9684 132.094 19.1559 131.681 19.3621C131.269 19.5621 130.888 19.7746 130.525 19.9871C130.181 20.1871 129.912 20.3871 129.713 20.5809L129.45 20.2809C129.362 20.1809 129.281 20.0934 129.206 20.0246C129.069 19.8684 128.925 19.7059 128.775 19.5496L128.381 19.1246C128.631 19.1871 128.881 19.2246 129.15 19.2434C129.413 19.2621 129.663 19.2309 129.9 19.1309C130.088 19.0559 130.244 18.9121 130.356 18.6996C130.462 18.4871 130.538 18.2371 130.569 17.9621C130.6 17.6871 130.588 17.4059 130.538 17.1246C130.481 16.8434 130.394 16.5996 130.275 16.4059C130.113 16.1496 129.9 15.9309 129.644 15.7621C129.388 15.5934 129.106 15.4621 128.8 15.3746C128.494 15.2871 128.181 15.2371 127.863 15.2184C127.544 15.2059 127.238 15.2184 126.944 15.2496C126.65 15.2809 126.375 15.3309 126.131 15.3996C125.881 15.4684 125.675 15.5246 125.5 15.5746C125.369 15.3059 125.313 15.0559 125.35 14.8246C125.388 14.5934 125.556 14.4059 125.875 14.2809C125.906 14.2621 125.919 14.2371 125.912 14.2059C125.906 14.1746 125.875 14.1496 125.838 14.1434L125.044 13.9871L124.244 13.8121H124.225C124.163 13.8246 124.1 13.8496 124.044 13.8809L123.919 13.9246L123.725 14.2246C123.669 14.3121 123.619 14.4059 123.575 14.4996C123.469 14.7184 123.419 14.8996 123.425 15.0434C123.431 15.1871 123.456 15.3184 123.494 15.4371C123.531 15.5559 123.562 15.6684 123.6 15.7809C123.631 15.8934 123.631 16.0246 123.587 16.1746C123.431 16.2684 123.244 16.3621 123.031 16.4496C122.819 16.5371 122.581 16.6184 122.331 16.6871C122.081 16.7559 121.819 16.8246 121.556 16.8809C121.287 16.9371 121.031 16.9809 120.775 17.0059C120.519 17.0309 120.275 17.0496 120.044 17.0496C119.812 17.0496 119.606 17.0371 119.425 17.0059C119.113 16.9496 118.875 16.8371 118.725 16.6746C118.575 16.5121 118.481 16.3246 118.456 16.1121C118.425 15.8996 118.456 15.6746 118.531 15.4371C118.544 15.4121 118.55 15.3809 118.563 15.3559C118.681 15.3184 118.806 15.2809 118.925 15.2434C119.444 15.0746 119.938 14.8871 120.419 14.6684C120.894 14.4496 121.306 14.2184 121.638 13.9746C121.863 13.8121 122.019 13.6059 122.119 13.3621C122.213 13.1184 122.263 12.8559 122.263 12.5871C122.263 12.3184 122.212 12.0434 122.125 11.7684C122.038 11.4934 121.919 11.2496 121.769 11.0309C121.619 10.8121 121.444 10.6371 121.238 10.5121C121.038 10.3809 120.819 10.3246 120.588 10.3371C120.4 10.3434 120.231 10.4309 120.088 10.5934C119.944 10.7559 119.831 10.9434 119.756 11.1621C119.675 11.3809 119.644 11.6059 119.65 11.8309C119.656 12.0559 119.719 12.2371 119.837 12.3746C119.912 12.4621 120.013 12.5184 120.138 12.5434C120.263 12.5684 120.4 12.5809 120.544 12.5809C120.688 12.5809 120.838 12.5809 120.994 12.5684C121.15 12.5621 121.294 12.5684 121.431 12.5934C121.562 12.6184 121.681 12.6621 121.775 12.7309C121.875 12.7996 121.938 12.9121 121.975 13.0559C121.631 13.2871 121.225 13.5184 120.744 13.7309C120.269 13.9496 119.769 14.1371 119.25 14.3059C118.731 14.4746 118.213 14.6121 117.706 14.7184C117.194 14.8246 116.738 14.8809 116.325 14.8871C116.069 14.8871 115.788 14.8684 115.475 14.8121C115.163 14.7559 114.875 14.6621 114.613 14.5309C114.35 14.3996 114.125 14.2184 113.938 13.9934C113.756 13.7684 113.662 13.4934 113.656 13.1621C113.656 13.0684 113.656 12.9621 113.669 12.8559C113.719 12.8184 113.769 12.7809 113.8 12.7309C113.888 12.6121 113.944 12.4871 113.969 12.3434C113.994 12.1996 114 12.0496 113.988 11.8934C113.975 11.7371 113.95 11.5934 113.919 11.4621C113.844 11.1496 113.713 10.9371 113.513 10.8184C113.312 10.6996 113.088 10.6559 112.844 10.6809C112.594 10.7059 112.344 10.7934 112.094 10.9434C111.844 11.0871 111.638 11.2621 111.463 11.4559C111.456 11.4621 111.45 11.4746 111.444 11.4809C111.431 11.4809 111.425 11.4746 111.419 11.4684C111.406 11.4684 111.387 11.4496 111.362 11.4371C111.169 11.2996 110.956 11.0996 110.731 10.8309C110.506 10.5621 110.281 10.2809 110.062 9.97461C109.844 9.66836 109.631 9.36211 109.431 9.05586C109.231 8.74961 109.056 8.49336 108.913 8.28086C108.869 8.21211 108.831 8.15586 108.8 8.11836C108.769 8.07461 108.744 8.03085 108.719 7.99335C108.688 7.9496 108.663 7.90586 108.631 7.86211C108.6 7.81836 108.563 7.75585 108.525 7.68085C108.506 7.6496 108.513 7.6371 108.544 7.64335C108.575 7.64335 108.612 7.6621 108.656 7.68085C108.7 7.6996 108.756 7.7246 108.812 7.7496C108.869 7.7746 108.919 7.79335 108.963 7.7996C109.025 7.8121 109.063 7.7996 109.081 7.7496C109.1 7.70585 109.081 7.64961 109.019 7.58086C108.975 7.53711 108.887 7.45586 108.744 7.34336C108.6 7.23086 108.444 7.11211 108.263 6.97461C108.081 6.84336 107.9 6.70586 107.713 6.57461C107.531 6.44336 107.375 6.33086 107.25 6.24961C107.206 6.21836 107.175 6.2121 107.156 6.2371C107.131 6.25585 107.125 6.28711 107.131 6.33086C107.131 6.34961 107.144 6.40586 107.162 6.48711C107.181 6.56836 107.2 6.66211 107.219 6.75586C107.238 6.84961 107.256 6.9371 107.275 7.01835C107.3 7.09335 107.313 7.13711 107.325 7.14961C107.35 7.17461 107.394 7.20586 107.463 7.23711C107.531 7.26836 107.581 7.30585 107.612 7.3496C107.8 7.6121 107.987 7.88086 108.169 8.13711C108.35 8.39961 108.525 8.64961 108.694 8.89961C108.838 9.11211 109.012 9.36835 109.212 9.6746C109.412 9.9746 109.625 10.2809 109.85 10.5871C110.069 10.8934 110.294 11.1809 110.519 11.4434C110.7 11.6559 110.875 11.8309 111.038 11.9621C111.025 11.9746 111.012 11.9871 111 11.9996L110.675 12.4184C110.563 12.5621 110.45 12.6996 110.337 12.8371C110.225 12.9746 110.106 13.0996 109.988 13.2184C109.869 13.3371 109.744 13.4371 109.619 13.5246C109.456 13.6434 109.306 13.7121 109.169 13.7246C109.031 13.7371 108.906 13.7246 108.781 13.6746C108.656 13.6309 108.544 13.5684 108.438 13.4871C108.331 13.4059 108.231 13.3309 108.144 13.2496C108.056 13.1746 107.975 13.1184 107.9 13.0746C107.825 13.0309 107.756 13.0309 107.7 13.0746C107.612 13.1309 107.556 13.2559 107.55 13.4434C107.544 13.6309 107.55 13.8434 107.581 14.0621C107.613 14.2871 107.656 14.5059 107.706 14.7184C107.763 14.9309 107.8 15.0934 107.813 15.2059C107.856 15.5684 107.844 15.9309 107.781 16.2871C107.719 16.6434 107.625 16.9746 107.5 17.2934C107.519 17.3371 107.531 17.3809 107.55 17.4246L107.619 17.5746C107.644 17.6309 107.681 17.6996 107.719 17.7684C107.762 17.8434 107.819 17.9371 107.894 18.0434C107.913 18.0746 107.938 18.0934 107.969 18.1059C108 18.1184 108.025 18.1059 108.05 18.0746C108.175 17.9246 108.337 17.7559 108.55 17.5684C108.762 17.3809 108.988 17.2059 109.231 17.0496C109.475 16.8871 109.719 16.7559 109.963 16.6434C110.206 16.5309 110.419 16.4559 110.6 16.4184C110.425 16.7746 110.256 17.1559 110.106 17.5496C109.956 17.9496 109.781 18.3059 109.563 18.6371C109.45 18.7871 109.294 18.8621 109.094 18.8621C108.888 18.8621 108.669 18.8246 108.438 18.7496C108.2 18.6746 107.969 18.5871 107.738 18.4746L107.144 18.1996C106.869 18.0809 106.594 17.9684 106.325 17.8621C106.056 17.7559 105.781 17.6621 105.5 17.5746C105.219 17.4871 104.925 17.4121 104.613 17.3496C104.306 17.2871 103.975 17.2371 103.625 17.2059C103.55 17.2059 103.456 17.2059 103.344 17.2059C103.231 17.2059 103.125 17.2246 103.025 17.2371C102.931 17.2559 102.856 17.2809 102.806 17.3184C102.756 17.3496 102.763 17.3871 102.819 17.4246L103.031 17.6059C103.112 17.6746 103.2 17.7496 103.281 17.8121C103.369 17.8809 103.444 17.9371 103.519 17.9871C103.594 18.0371 103.644 18.0621 103.675 18.0559C103.913 18.0621 104.213 18.0871 104.569 18.1371C104.925 18.1871 105.288 18.2559 105.656 18.3371C106.019 18.4246 106.363 18.5246 106.688 18.6371C107.006 18.7496 107.256 18.8559 107.431 18.9559C107.494 18.9934 107.569 19.0496 107.644 19.1309C107.719 19.2121 107.787 19.2996 107.837 19.4059C107.95 19.6434 108.069 19.9434 108.213 20.2934C108.35 20.6434 108.481 20.9871 108.606 21.3309C108.731 21.6746 108.831 21.9809 108.906 22.2684C108.981 22.5559 108.994 22.7809 108.919 22.9684C108.856 23.1246 108.763 23.2371 108.631 23.2934C108.5 23.3559 108.344 23.3871 108.175 23.3871C108 23.3871 107.819 23.3684 107.625 23.3121C107.431 23.2621 107.25 23.2059 107.081 23.1434C107.081 23.1434 107.081 23.1434 107.075 23.1434C107.069 22.8371 107.1 22.4996 107.194 22.1434C107.2 22.1121 107.163 22.0621 107.069 21.9996C106.975 21.9371 106.888 21.8684 106.806 21.7996C106.713 21.7309 106.625 21.6746 106.544 21.6246C106.463 21.5746 106.413 21.5809 106.394 21.6496C106.281 22.0559 106.169 22.4434 106.05 22.8309C105.931 23.2184 105.819 23.6121 105.713 24.0121C105.606 24.4121 105.519 24.8246 105.438 25.2371C105.356 25.6559 105.306 26.0871 105.281 26.5309C105.181 26.4121 105.056 26.3121 104.913 26.2184C104.769 26.1246 104.613 26.0371 104.45 25.9621C104.288 25.8809 104.138 25.8121 103.981 25.7496C103.831 25.6871 103.687 25.6246 103.569 25.5684C103.45 25.5121 103.35 25.4621 103.281 25.4184C103.213 25.3746 103.181 25.3371 103.194 25.2996C103.206 25.2746 103.25 25.2496 103.331 25.2246L103.625 25.1246C103.744 25.0871 103.863 25.0371 103.988 24.9746C104.113 24.9121 104.231 24.8371 104.338 24.7371C104.444 24.6371 104.531 24.5184 104.594 24.3809C104.656 24.2434 104.681 24.0746 104.669 23.8809C104.669 23.6371 104.619 23.4309 104.519 23.2746C104.419 23.1121 104.294 22.9746 104.138 22.8684C103.981 22.7559 103.806 22.6621 103.619 22.5996C103.425 22.5309 103.244 22.4746 103.056 22.4184C103.269 22.4184 103.481 22.4059 103.7 22.3746C103.919 22.3434 104.113 22.2934 104.294 22.2121C104.475 22.1371 104.625 22.0246 104.75 21.8871C104.875 21.7496 104.956 21.5621 104.988 21.3246C105.044 21.1121 105.05 20.9246 105 20.7434C104.95 20.5621 104.869 20.3934 104.75 20.2371C104.631 20.0809 104.488 19.9371 104.312 19.8059C104.137 19.6746 103.956 19.5559 103.763 19.4496C103.569 19.3434 103.375 19.2496 103.187 19.1746C103 19.0996 102.825 19.0371 102.669 18.9809C102.044 18.7746 101.413 18.6246 100.763 18.5371C100.113 18.4496 99.4688 18.3559 98.8188 18.2496C98.7875 18.2371 98.7875 18.2184 98.8125 18.1934C98.8375 18.1684 98.8813 18.1371 98.9375 18.1059C98.9938 18.0684 99.0562 18.0309 99.125 17.9871C99.1937 17.9434 99.25 17.9059 99.2938 17.8684C99.3625 17.8184 99.3938 17.7621 99.3813 17.6996C99.3688 17.6371 99.3188 17.6059 99.2313 17.6059C99.1688 17.6059 99.0375 17.6184 98.8438 17.6559C98.65 17.6934 98.4312 17.7496 98.1875 17.8184C97.9437 17.8871 97.7 17.9621 97.4562 18.0496C97.2125 18.1371 97.0063 18.2121 96.8438 18.2809C96.7938 18.2996 96.7688 18.3371 96.7563 18.3871C96.75 18.4371 96.7562 18.4809 96.7812 18.5121L96.9 18.6371C96.9625 18.7059 97.0375 18.7746 97.1063 18.8434C97.1813 18.9121 97.25 18.9746 97.325 19.0309C97.3938 19.0871 97.4313 19.1121 97.45 19.1184C97.4875 19.1059 97.5438 19.0809 97.6188 19.0371C97.6938 18.9934 97.7625 18.9746 97.8188 18.9684L98.1125 18.9809L98.45 18.9996C98.5625 19.0059 98.675 19.0184 98.775 19.0246C98.875 19.0371 98.9625 19.0434 99.0313 19.0559C99.6875 19.1434 100.344 19.2184 100.994 19.2871C101.644 19.3559 102.281 19.4934 102.906 19.6809C103.106 19.7371 103.306 19.7934 103.506 19.8559C103.7 19.9184 103.894 19.9934 104.087 20.0746C104.125 20.1246 104.15 20.1934 104.156 20.2746C104.162 20.3559 104.162 20.4434 104.156 20.5371C104.144 20.6309 104.131 20.7246 104.113 20.8121C104.094 20.8996 104.075 20.9809 104.056 21.0559C103.987 21.3309 103.85 21.5184 103.637 21.6434C103.425 21.7621 103.181 21.8434 102.913 21.8871C102.644 21.9246 102.375 21.9371 102.1 21.9246C101.825 21.9059 101.594 21.8934 101.413 21.8746C100.944 21.8309 100.475 21.7934 100.006 21.7434C99.5375 21.6934 99.0688 21.6809 98.5938 21.7121C98.1813 21.7309 97.8 21.7684 97.4438 21.8309C97.0875 21.8934 96.7688 21.9621 96.4875 22.0434C96.3875 22.0621 96.3438 22.1121 96.3438 22.1809C96.3438 22.2496 96.4063 22.3059 96.525 22.3371C96.6188 22.3684 96.7187 22.4121 96.8312 22.4559C96.9437 22.4996 97.05 22.5434 97.1563 22.5809C97.2625 22.6184 97.35 22.6496 97.425 22.6746C97.5 22.6996 97.5438 22.7121 97.5563 22.7121C97.7813 22.6934 98.0062 22.6621 98.2375 22.6371C98.4687 22.6059 98.7 22.5809 98.9312 22.5559C99.4062 22.5184 99.875 22.5184 100.35 22.5496C100.819 22.5809 101.294 22.5996 101.756 22.6121C102.031 22.6246 102.319 22.6496 102.619 22.6934C102.919 22.7371 103.194 22.7934 103.456 22.8559C103.506 22.8996 103.544 22.9621 103.575 23.0434C103.606 23.1246 103.631 23.2059 103.65 23.3059C103.669 23.3996 103.681 23.4934 103.688 23.5871C103.694 23.6809 103.694 23.7621 103.688 23.8371C103.681 24.0434 103.644 24.1996 103.569 24.3184C103.494 24.4371 103.406 24.5309 103.294 24.5996C103.188 24.6684 103.069 24.7246 102.938 24.7559C102.813 24.7934 102.688 24.8184 102.575 24.8434C102.463 24.8684 102.363 24.8934 102.288 24.9309C102.213 24.9621 102.169 25.0184 102.162 25.0934C102.15 25.1996 102.219 25.3184 102.363 25.4371C102.506 25.5621 102.675 25.6809 102.869 25.7934C103.063 25.9059 103.262 26.0059 103.462 26.0996C103.662 26.1871 103.813 26.2559 103.906 26.3121C104.219 26.4996 104.494 26.7309 104.731 26.9996C104.969 27.2684 105.175 27.5496 105.35 27.8434C105.394 27.8559 105.444 27.8746 105.488 27.8809L105.644 27.9184C105.706 27.9309 105.775 27.9434 105.856 27.9559C105.944 27.9684 106.044 27.9746 106.175 27.9871C106.213 27.9871 106.244 27.9871 106.269 27.9684C106.294 27.9559 106.306 27.9246 106.294 27.8871C106.25 27.6934 106.219 27.4559 106.2 27.1746C106.181 26.8934 106.187 26.6059 106.206 26.3121C106.231 26.0184 106.275 25.7434 106.331 25.4809C106.394 25.2184 106.463 24.9996 106.544 24.8309C106.713 25.1934 106.906 25.5621 107.125 25.9246C107.344 26.2871 107.513 26.6496 107.644 27.0246C107.694 27.2121 107.669 27.3746 107.556 27.5121C107.444 27.6559 107.3 27.7809 107.113 27.8996C106.925 28.0121 106.725 28.1184 106.5 28.1996C106.281 28.2871 106.088 28.3621 105.919 28.4309C104.888 28.8434 103.875 29.2621 102.881 29.6871C101.888 30.1184 100.906 30.6121 99.95 31.1934C99.7188 31.3434 99.4875 31.5121 99.25 31.6934C99.0188 31.8746 98.8188 32.0496 98.6625 32.2121C98.5063 32.3746 98.4063 32.5059 98.3625 32.6121C98.3188 32.7121 98.375 32.7559 98.5125 32.7434C98.5625 32.7371 98.6313 32.7246 98.7188 32.7184C98.8063 32.7059 98.9 32.6934 98.9938 32.6746L99.2437 32.6246C99.3187 32.6059 99.3563 32.5996 99.3625 32.5996C99.5313 32.4309 99.7125 32.2621 99.9062 32.0934C100.094 31.9246 100.294 31.7684 100.481 31.6371C101.419 31.0309 102.388 30.5059 103.363 30.0371L103.45 30.0496ZM129.356 22.2996C129.413 22.0809 129.506 21.8996 129.644 21.7496C129.688 21.7934 129.731 21.8809 129.763 22.0059C129.8 22.1309 129.813 22.2621 129.806 22.3934C129.8 22.5246 129.763 22.6434 129.7 22.7434C129.638 22.8434 129.537 22.8996 129.4 22.9121C129.319 22.7121 129.3 22.5121 129.356 22.2934V22.2996ZM126.688 15.7309C127.031 15.6934 127.375 15.6996 127.713 15.7559C128.05 15.8059 128.369 15.9121 128.656 16.0746C128.944 16.2309 129.181 16.4559 129.35 16.7246C129.519 16.9996 129.606 17.3246 129.606 17.6934C129.606 18.0621 129.488 18.4746 129.238 18.9059C128.919 18.7996 128.6 18.6246 128.269 18.3809C127.938 18.1434 127.625 17.8809 127.313 17.6059C127 17.3246 126.706 17.0434 126.425 16.7496C126.144 16.4559 125.913 16.1934 125.731 15.9434C126.025 15.8434 126.344 15.7746 126.688 15.7371V15.7309ZM120.775 11.6809C120.6 11.7059 120.437 11.6934 120.287 11.6559C120.225 11.6371 120.194 11.6121 120.181 11.5746C120.169 11.5371 120.181 11.4996 120.206 11.4621C120.231 11.4184 120.275 11.3809 120.331 11.3496C120.388 11.3184 120.456 11.2934 120.538 11.2871C120.581 11.2809 120.638 11.2871 120.694 11.2996C120.756 11.3184 120.813 11.3371 120.881 11.3684C120.944 11.3996 121.006 11.4371 121.056 11.4871C121.113 11.5371 121.156 11.5934 121.181 11.6621C121.081 11.6559 120.944 11.6621 120.775 11.6809ZM112.456 11.7746C112.581 11.7246 112.719 11.6871 112.856 11.6746C112.994 11.6621 113.125 11.6746 113.237 11.7246C113.35 11.7684 113.419 11.8621 113.45 11.9934C113.256 12.1059 113.044 12.1559 112.813 12.1371C112.581 12.1184 112.375 12.0559 112.206 11.9371C112.25 11.8809 112.331 11.8309 112.463 11.7746H112.456Z" fill="white"/>
<path d="M109.181 25.1064C109.244 25.0189 109.319 24.9377 109.4 24.8502C109.481 24.7689 109.575 24.6939 109.669 24.6252C109.681 24.6127 109.694 24.6064 109.694 24.6002C109.694 24.6002 109.688 24.5877 109.656 24.5752L109.519 24.5252C109.463 24.5002 109.406 24.4752 109.35 24.4502L109.181 24.3752C109.125 24.3502 109.081 24.3314 109.05 24.3252C109.044 24.3252 109.031 24.3252 109.019 24.3252C109.006 24.3252 108.994 24.3252 108.988 24.3314C108.956 24.3502 108.919 24.3814 108.875 24.4252L108.719 24.5627C108.663 24.6127 108.613 24.6627 108.563 24.7189C108.513 24.7752 108.481 24.8189 108.45 24.8627C108.438 24.8752 108.438 24.8877 108.45 24.9002L108.781 25.0189C108.9 25.0564 109.013 25.1002 109.113 25.1377C109.131 25.1377 109.156 25.1377 109.175 25.1189L109.181 25.1064Z" fill="white"/>
<path d="M100.619 25.0939C100.619 25.0939 100.638 25.0502 100.644 25.0377C100.644 25.0252 100.638 25.0127 100.606 24.9814C100.531 24.9314 100.431 24.844 100.294 24.7315C100.163 24.619 100.063 24.5314 100 24.4877C99.9877 24.4877 99.9752 24.4877 99.9627 24.4814C99.9502 24.4814 99.9377 24.4814 99.9315 24.5002C99.9065 24.5439 99.8689 24.6127 99.8189 24.7064C99.7752 24.7939 99.7252 24.8939 99.6752 25.0002C99.6252 25.1064 99.5815 25.2127 99.5377 25.3252L99.4252 25.6127C99.4127 25.6502 99.4189 25.6752 99.4377 25.6814L99.6814 25.8502C99.7689 25.9064 99.8565 25.9689 99.944 26.0377C99.9127 26.0939 99.8814 26.1752 99.8377 26.2627C99.8002 26.3564 99.7627 26.4502 99.7252 26.5502C99.6877 26.6502 99.6565 26.7564 99.6252 26.8564L99.5565 27.1189C99.5565 27.1189 99.5502 27.1752 99.569 27.1877L99.9315 27.3877C100.063 27.4565 100.181 27.5314 100.3 27.6064C100.325 27.6127 100.338 27.6064 100.356 27.5689C100.394 27.3814 100.444 27.2002 100.506 27.0127C100.569 26.8314 100.638 26.6564 100.713 26.4939C100.725 26.4627 100.731 26.4439 100.731 26.4377C100.731 26.4252 100.719 26.4127 100.688 26.3877L100.463 26.2314L100.194 26.0439C100.25 25.8689 100.313 25.7064 100.388 25.5377C100.463 25.3752 100.538 25.2189 100.625 25.0752L100.619 25.0939Z" fill="white"/>
<path d="M120.138 8.78736C120.288 8.88736 120.431 8.99361 120.575 9.11236C120.719 9.23111 120.844 9.35611 120.963 9.48111C120.981 9.49986 121 9.51236 121.006 9.51861C121.013 9.52486 121.031 9.51861 121.063 9.49361L121.194 9.38736C121.25 9.34361 121.306 9.29986 121.369 9.25611C121.431 9.21236 121.488 9.16861 121.544 9.12486C121.6 9.08111 121.644 9.04361 121.669 9.01861C121.669 9.01236 121.675 9.00611 121.681 8.98736C121.688 8.97486 121.681 8.96236 121.669 8.94986C121.631 8.91236 121.581 8.85611 121.513 8.78736L121.288 8.56861C121.206 8.49361 121.119 8.41861 121.025 8.34986C120.938 8.28111 120.856 8.22486 120.794 8.18111C120.769 8.16236 120.75 8.15611 120.725 8.16861L120.425 8.44361C120.319 8.54361 120.213 8.63736 120.106 8.71861C120.094 8.73736 120.1 8.75611 120.119 8.78111L120.138 8.78736Z" fill="white"/>
<path d="M111.95 37.9692C112.038 37.9567 112.088 37.8942 111.95 37.888C111.425 37.8692 110.863 37.888 110.313 37.9505C109.756 38.0067 109.206 38.1005 108.713 38.2442C108.619 38.0817 108.338 37.7442 108.131 37.7067C107.931 37.6755 107.663 37.7817 107.581 37.8942C107.45 38.0755 107.488 38.4255 107.638 38.7692C107.781 39.113 108.038 39.4505 108.288 39.6005C108.513 39.7317 108.675 39.5067 108.75 39.4067C108.931 39.3567 109.081 39.263 109.144 39.1567C109.244 38.9692 108.963 38.6317 108.863 38.438C109.444 38.3255 109.944 38.2505 110.431 38.188C110.925 38.1255 111.413 38.0692 111.95 37.9692ZM108.05 38.5942C107.95 38.4755 107.756 38.0692 107.844 37.9505C107.975 37.938 108.269 38.313 108.3 38.4005C108.213 38.463 108.113 38.5317 108.05 38.5942ZM108.319 38.9942C108.275 38.838 108.381 38.7005 108.488 38.613C108.6 38.788 108.719 38.9567 108.744 39.1505C108.7 39.2255 108.381 39.2067 108.319 38.9942Z" fill="white"/>
<path d="M0.275146 27.7129H2.31265V33.5816C2.31265 35.3129 2.8689 36.4504 4.42515 36.4504C5.9814 36.4504 6.53765 35.3129 6.53765 33.5816V27.7129H8.57515V34.2066C8.57515 36.9316 7.0314 38.0504 4.42515 38.0504C1.8189 38.0504 0.275146 36.9316 0.275146 34.2066V27.7129Z" fill="#304365"/>
<path d="M10.425 30.3752H12.2751V31.3939H12.3063C12.9188 30.5377 13.75 30.2002 14.7688 30.2002C16.5438 30.2002 17.3188 31.4502 17.3188 33.1439V37.8752H15.3688V33.8689C15.3688 32.9502 15.3563 31.7127 14.1 31.7127C12.6875 31.7127 12.3813 33.2439 12.3813 34.2002V37.8689H10.4313V30.3689L10.425 30.3752Z" fill="#304365"/>
<path d="M19.1001 27.1436H21.0501V29.0061H19.1001V27.1436ZM19.1001 30.3748H21.0501V37.8748H19.1001V30.3748Z" fill="#304365"/>
<path d="M23.4814 31.8H22.0376V30.375H23.4814V28.875L25.4313 28.25V30.375H27.1626V31.8H25.4313V35.2938C25.4313 35.9375 25.6063 36.5312 26.3501 36.5312C26.7001 36.5312 27.0376 36.4562 27.2376 36.325L27.2938 37.8687C26.8876 37.9875 26.4376 38.0437 25.8501 38.0437C24.3189 38.0437 23.4751 37.1 23.4751 35.6125V31.8H23.4814Z" fill="#304365"/>
<path d="M34.2625 37.4502C33.55 37.8439 32.7313 38.0502 31.6875 38.0502C29.2125 38.0502 27.7688 36.6252 27.7688 34.1627C27.7688 31.9939 28.9188 30.2002 31.25 30.2002C34.0313 30.2002 34.8188 32.1064 34.8188 34.7314H29.6375C29.725 35.9377 30.5688 36.6252 31.7813 36.6252C32.725 36.6252 33.5438 36.2752 34.2688 35.8689V37.4564L34.2625 37.4502ZM32.95 33.3877C32.8938 32.4439 32.4563 31.6252 31.3625 31.6252C30.2688 31.6252 29.7188 32.3814 29.6313 33.3877H32.95Z" fill="#304365"/>
<path d="M41.0751 37.0316H41.0438C40.4626 37.7566 39.6626 38.0504 38.7438 38.0504C36.4438 38.0504 35.6001 36.1566 35.6001 34.1066C35.6001 32.0566 36.4438 30.2066 38.7438 30.2066C39.7188 30.2066 40.4063 30.5441 40.9876 31.2566H41.0188V26.9629H42.9688V37.8816H41.0751V37.0379V37.0316ZM39.2813 36.5316C40.5751 36.5316 41.0001 35.1629 41.0001 34.1004C41.0001 33.0379 40.5063 31.7129 39.2501 31.7129C37.9938 31.7129 37.6313 33.0941 37.6313 34.1004C37.6313 35.1066 37.9938 36.5316 39.2751 36.5316H39.2813Z" fill="#304365"/>
<path d="M48.675 27.7129H52.2313C53.5438 27.7129 55.5063 28.0941 55.5063 30.3191C55.5063 31.5254 54.6938 32.3754 53.4813 32.5879V32.6191C54.8625 32.7504 55.8126 33.6816 55.8126 34.9316C55.8126 37.4941 53.5125 37.8754 52.2313 37.8754H48.675V27.7129ZM50.7126 31.8129H51.5438C52.4001 31.8129 53.4688 31.6254 53.4688 30.5754C53.4688 29.3941 52.4375 29.3066 51.5 29.3066H50.7126V31.8129ZM50.7126 36.2691H51.675C52.6188 36.2691 53.7688 36.0379 53.7688 34.8566C53.7688 33.5316 52.6938 33.3254 51.675 33.3254H50.7126V36.2691Z" fill="#304365"/>
<path d="M57.4688 30.7689C58.225 30.4189 59.2438 30.2002 60.075 30.2002C62.3625 30.2002 63.3062 31.1439 63.3062 33.3627V34.3252C63.3062 35.0814 63.3188 35.6502 63.3375 36.2064C63.35 36.7752 63.3813 37.3002 63.425 37.8814H61.7063C61.6313 37.4877 61.6313 36.9939 61.6188 36.7627H61.5875C61.1375 37.5939 60.1625 38.0564 59.275 38.0564C57.95 38.0564 56.6562 37.2564 56.6562 35.8314C56.6562 34.7127 57.1938 34.0564 57.9375 33.6877C58.6813 33.3252 59.6438 33.2502 60.4563 33.2502H61.5313C61.5313 32.0439 60.9938 31.6314 59.8438 31.6314C59.0125 31.6314 58.1813 31.9502 57.5313 32.4439L57.475 30.7689H57.4688ZM59.7563 36.6189C60.35 36.6189 60.8188 36.3564 61.125 35.9502C61.4438 35.5252 61.5313 34.9877 61.5313 34.4064H60.6875C59.8125 34.4064 58.5188 34.5502 58.5188 35.7002C58.5188 36.3377 59.0563 36.6189 59.7563 36.6189Z" fill="#304365"/>
<path d="M64.9688 30.3752H66.8188V31.3939H66.85C67.4625 30.5377 68.2937 30.2002 69.3125 30.2002C71.0875 30.2002 71.8625 31.4502 71.8625 33.1439V37.8752H69.9125V33.8689C69.9125 32.9502 69.9 31.7127 68.6438 31.7127C67.2313 31.7127 66.925 33.2439 66.925 34.2002V37.8689H64.975V30.3689L64.9688 30.3752Z" fill="#304365"/>
<path d="M73.6438 26.9502H75.6V33.3752H75.625L77.9563 30.3752H80.2563L77.4625 33.7252L80.6063 37.8752H78.1313L75.625 34.2315H75.6V37.8752H73.6438V26.9502Z" fill="#304365"/>
<path d="M0.337646 40.5566H2.78765V41.2504H1.22515V42.3316H2.71265V43.0254H1.22515V44.9566H0.337646V40.5566Z" fill="#304365"/>
<path d="M4.7875 41.6309C5.75 41.6309 6.4875 42.2809 6.4875 43.3496C6.4875 44.2809 5.8625 45.0246 4.7875 45.0246C3.7125 45.0246 3.09375 44.2809 3.09375 43.3496C3.09375 42.2746 3.83125 41.6309 4.7875 41.6309ZM4.7875 44.3746C5.4375 44.3746 5.60625 43.7934 5.60625 43.2496C5.60625 42.7496 5.34375 42.2871 4.7875 42.2871C4.23125 42.2871 3.975 42.7684 3.975 43.2496C3.975 43.7871 4.14375 44.3746 4.7875 44.3746Z" fill="#304365"/>
<path d="M7.0563 41.7059H7.8063V42.4434H7.8188C7.8563 42.1434 8.2063 41.6309 8.7063 41.6309C8.78755 41.6309 8.87505 41.6309 8.96255 41.6559V42.5059C8.88755 42.4621 8.73755 42.4371 8.5813 42.4371C7.8938 42.4371 7.8938 43.2934 7.8938 43.7621V44.9559H7.05005V41.7059H7.0563Z" fill="#304365"/>
<path d="M14.2937 44.8939C13.975 44.9689 13.625 45.0314 13.2875 45.0314C11.8625 45.0314 10.875 44.3189 10.875 42.8314C10.875 41.3439 11.7937 40.4814 13.2875 40.4814C13.575 40.4814 13.9625 40.5377 14.2813 40.6627L14.2188 41.4064C13.8813 41.2189 13.5812 41.1752 13.2687 41.1752C12.3625 41.1752 11.7937 41.8689 11.7937 42.7689C11.7937 43.6689 12.35 44.3377 13.2875 44.3377C13.6375 44.3377 14.0437 44.2627 14.25 44.1564L14.2875 44.8939H14.2937Z" fill="#304365"/>
<path d="M16.2438 41.6309C17.2063 41.6309 17.9438 42.2809 17.9438 43.3496C17.9438 44.2809 17.3188 45.0246 16.2438 45.0246C15.1688 45.0246 14.55 44.2809 14.55 43.3496C14.55 42.2746 15.2875 41.6309 16.2438 41.6309ZM16.2438 44.3746C16.8938 44.3746 17.0625 43.7934 17.0625 43.2496C17.0625 42.7496 16.8 42.2871 16.2438 42.2871C15.6875 42.2871 15.4313 42.7684 15.4313 43.2496C15.4313 43.7871 15.6 44.3746 16.2438 44.3746Z" fill="#304365"/>
<path d="M18.4813 41.7059H19.2687V42.1621H19.2813C19.5438 41.7621 19.9313 41.6309 20.2438 41.6309C20.7 41.6309 21.0188 41.7996 21.2 42.2059C21.3938 41.8121 21.8188 41.6309 22.2125 41.6309C23.0125 41.6309 23.2375 42.1809 23.2375 42.9059V44.9559H22.3937V43.0184C22.3937 42.7184 22.3937 42.2871 21.9062 42.2871C21.3438 42.2871 21.275 42.9559 21.275 43.3809V44.9559H20.4312V43.0184C20.4312 42.7184 20.4313 42.2871 19.9438 42.2871C19.3813 42.2871 19.3125 42.9559 19.3125 43.3809V44.9559H18.4688V41.7059H18.4813Z" fill="#304365"/>
<path d="M23.9688 41.7059H24.7563V42.1621H24.7688C25.0313 41.7621 25.4188 41.6309 25.7313 41.6309C26.1876 41.6309 26.5063 41.7996 26.6876 42.2059C26.8813 41.8121 27.3063 41.6309 27.7001 41.6309C28.5001 41.6309 28.7251 42.1809 28.7251 42.9059V44.9559H27.8813V43.0184C27.8813 42.7184 27.8813 42.2871 27.3938 42.2871C26.8313 42.2871 26.7626 42.9559 26.7626 43.3809V44.9559H25.9188V43.0184C25.9188 42.7184 25.9188 42.2871 25.4313 42.2871C24.8688 42.2871 24.8001 42.9559 24.8001 43.3809V44.9559H23.9563V41.7059H23.9688Z" fill="#304365"/>
<path d="M32.0752 44.7752C31.7689 44.9439 31.4127 45.0315 30.9564 45.0315C29.8814 45.0315 29.2627 44.4127 29.2627 43.3502C29.2627 42.4127 29.7627 41.6377 30.7689 41.6377C31.9752 41.6377 32.3127 42.4627 32.3127 43.6002H30.0689C30.1064 44.1252 30.4689 44.419 30.9939 44.419C31.4064 44.419 31.7564 44.2689 32.0689 44.0877V44.7752H32.0752ZM31.5064 43.0127C31.4814 42.6002 31.2939 42.2502 30.8189 42.2502C30.3439 42.2502 30.1064 42.5752 30.0689 43.0127H31.5064Z" fill="#304365"/>
<path d="M32.8813 41.7059H33.6312V42.4434H33.6437C33.6812 42.1434 34.0313 41.6309 34.5313 41.6309C34.6125 41.6309 34.7 41.6309 34.7875 41.6559V42.5059C34.7125 42.4621 34.5625 42.4371 34.4062 42.4371C33.7187 42.4371 33.7187 43.2934 33.7187 43.7621V44.9559H32.875V41.7059H32.8813Z" fill="#304365"/>
<path d="M37.1938 42.4123C37.0438 42.3436 36.8813 42.2936 36.6188 42.2936C36.0938 42.2936 35.7626 42.7123 35.7626 43.3186C35.7626 43.9248 36.0438 44.381 36.6376 44.381C36.8751 44.381 37.1438 44.2936 37.2876 44.2311L37.3251 44.9311C37.0813 45.0061 36.8251 45.0373 36.4813 45.0373C35.4188 45.0373 34.8813 44.3123 34.8813 43.3248C34.8813 42.3373 35.4376 41.6436 36.4501 41.6436C36.7876 41.6436 37.0376 41.6811 37.2688 41.7498L37.1938 42.4185V42.4123Z" fill="#304365"/>
<path d="M40.3751 44.7752C40.0688 44.9439 39.7126 45.0315 39.2626 45.0315C38.1876 45.0315 37.5688 44.4127 37.5688 43.3502C37.5688 42.4127 38.0688 41.6377 39.0751 41.6377C40.2813 41.6377 40.6188 42.4627 40.6188 43.6002H38.3751C38.4126 44.1252 38.7813 44.419 39.3001 44.419C39.7126 44.419 40.0626 44.2689 40.3813 44.0877V44.7752H40.3751ZM39.8063 43.0127C39.7813 42.6002 39.5938 42.2502 39.1188 42.2502C38.6438 42.2502 38.4063 42.5752 38.3688 43.0127H39.8063Z" fill="#304365"/>
<path d="M45.6189 43.5252C45.8314 43.2814 45.8814 42.9064 45.8939 42.5689H46.6626C46.6376 43.1314 46.4564 43.6564 46.1001 44.0752L46.8876 44.9564H45.8064L45.5126 44.5689C45.2064 44.8814 44.7501 45.0377 44.3126 45.0377C43.4439 45.0377 42.7439 44.5814 42.7439 43.7564C42.7439 43.2252 42.9689 42.8439 43.6689 42.5439C43.3314 42.2252 43.0564 41.9877 43.0564 41.4814C43.0564 40.8127 43.7751 40.4814 44.3939 40.4814C45.0126 40.4814 45.6626 40.7627 45.6626 41.4752C45.6626 42.0814 45.2939 42.3627 44.8126 42.6439L45.6189 43.5252ZM44.1251 43.0189C43.8376 43.1689 43.5876 43.3752 43.5876 43.7252C43.5876 44.1127 43.9189 44.3752 44.3314 44.3752C44.6251 44.3752 44.9064 44.3002 45.1001 44.1127L44.1251 43.0189ZM44.8939 41.5502C44.8939 41.2439 44.6626 41.0939 44.4064 41.0939C44.1501 41.0939 43.9001 41.2377 43.9001 41.5627C43.9001 41.8064 44.1439 42.0189 44.3189 42.1877C44.5376 42.0752 44.8939 41.8064 44.8939 41.5502Z" fill="#304365"/>
<path d="M48.8813 40.5566H49.7626V44.9566H48.8813V40.5566Z" fill="#304365"/>
<path d="M50.5188 41.7059H51.3188V42.1496H51.3313C51.5938 41.7746 51.9563 41.6309 52.3938 41.6309C53.1626 41.6309 53.5 42.1746 53.5 42.9059V44.9559H52.6563V43.2246C52.6563 42.8309 52.65 42.2934 52.1063 42.2934C51.4938 42.2934 51.3625 42.9559 51.3625 43.3746V44.9621H50.5188V41.7121V41.7059Z" fill="#304365"/>
<path d="M53.8938 41.7061H54.8L55.6125 44.0748H55.6251L56.4063 41.7061H57.25L56.05 44.9561H55.1001L53.8938 41.7061Z" fill="#304365"/>
<path d="M60.25 44.7752C59.9437 44.9439 59.5875 45.0315 59.1313 45.0315C58.0563 45.0315 57.4375 44.4127 57.4375 43.3502C57.4375 42.4127 57.9375 41.6377 58.9438 41.6377C60.15 41.6377 60.4875 42.4627 60.4875 43.6002H58.2438C58.2813 44.1252 58.65 44.419 59.1688 44.419C59.5813 44.419 59.9313 44.2689 60.25 44.0877V44.7752ZM59.6812 43.0127C59.6562 42.6002 59.4688 42.2502 58.9938 42.2502C58.5188 42.2502 58.2813 42.5752 58.2438 43.0127H59.6812Z" fill="#304365"/>
<path d="M62.9627 42.3939C62.7064 42.3064 62.5127 42.2564 62.2064 42.2564C61.9814 42.2564 61.7064 42.3377 61.7064 42.6189C61.7064 43.1377 63.1752 42.8064 63.1752 43.9814C63.1752 44.7377 62.5002 45.0377 61.8127 45.0377C61.4939 45.0377 61.1627 44.9814 60.8564 44.9002L60.9064 44.2064C61.1689 44.3377 61.4502 44.419 61.7377 44.419C61.9502 44.419 62.2939 44.3377 62.2939 44.0189C62.2939 43.3814 60.8252 43.8189 60.8252 42.6439C60.8252 41.9439 61.4377 41.6377 62.1002 41.6377C62.5002 41.6377 62.7565 41.7002 63.019 41.7564L62.9627 42.3939Z" fill="#304365"/>
<path d="M64 42.3246H63.375V41.7059H64V41.0559L64.8438 40.7871V41.7059H65.5938V42.3246H64.8438V43.8371C64.8438 44.1121 64.9188 44.3746 65.2438 44.3746C65.3938 44.3746 65.5375 44.3434 65.6313 44.2871L65.6563 44.9559C65.4813 45.0059 65.2813 45.0309 65.0313 45.0309C64.3688 45.0309 64.0063 44.6246 64.0063 43.9809V42.3309L64 42.3246Z" fill="#304365"/>
<path d="M66.0438 41.7059H66.8313V42.1621H66.8438C67.1063 41.7621 67.4938 41.6309 67.8063 41.6309C68.2626 41.6309 68.5813 41.7996 68.7626 42.2059C68.9563 41.8121 69.3813 41.6309 69.7813 41.6309C70.5813 41.6309 70.8063 42.1809 70.8063 42.9059V44.9559H69.9626V43.0184C69.9626 42.7184 69.9626 42.2871 69.4751 42.2871C68.9126 42.2871 68.8438 42.9559 68.8438 43.3809V44.9559H68.0001V43.0184C68.0001 42.7184 68.0001 42.2871 67.5126 42.2871C66.9501 42.2871 66.8813 42.9559 66.8813 43.3809V44.9559H66.0376V41.7059H66.0438Z" fill="#304365"/>
<path d="M74.1501 44.7752C73.8439 44.9439 73.4876 45.0315 73.0314 45.0315C71.9564 45.0315 71.3376 44.4127 71.3376 43.3502C71.3376 42.4127 71.8376 41.6377 72.8439 41.6377C74.0501 41.6377 74.3876 42.4627 74.3876 43.6002H72.1439C72.1814 44.1252 72.5501 44.419 73.0689 44.419C73.4814 44.419 73.8314 44.2689 74.1501 44.0877V44.7752ZM73.5876 43.0127C73.5626 42.6002 73.3751 42.2502 72.9001 42.2502C72.4251 42.2502 72.1876 42.5752 72.1501 43.0127H73.5876Z" fill="#304365"/>
<path d="M74.9376 41.7059H75.7376V42.1496H75.7501C76.0126 41.7746 76.3751 41.6309 76.8126 41.6309C77.5814 41.6309 77.9126 42.1746 77.9126 42.9059V44.9559H77.0689V43.2246C77.0689 42.8309 77.0689 42.2934 76.5189 42.2934C75.9064 42.2934 75.7751 42.9559 75.7751 43.3746V44.9621H74.9314V41.7121L74.9376 41.7059Z" fill="#304365"/>
<path d="M78.9563 42.3246H78.3313V41.7059H78.9563V41.0559L79.8 40.7871V41.7059H80.5501V42.3246H79.8V43.8371C79.8 44.1121 79.875 44.3746 80.2 44.3746C80.35 44.3746 80.4938 44.3434 80.5875 44.2871L80.6125 44.9559C80.4375 45.0059 80.2375 45.0309 79.9875 45.0309C79.325 45.0309 78.9625 44.6246 78.9625 43.9809V42.3309L78.9563 42.3246Z" fill="#304365"/>
<path d="M7.7439 12.5254H0.150146V10.9566H4.4064C4.4064 9.31289 3.51265 8.58789 1.4314 8.58789V7.21914C2.46265 7.21914 3.18765 7.28789 3.62515 7.44414C5.2439 8.01914 6.05015 9.18164 6.05015 10.9504H7.75015V12.5316L7.7439 12.5254ZM16.9376 12.5254H7.37515V10.9566H14.0314C13.9939 10.3379 13.7751 9.80664 13.3626 9.36289C12.9064 8.85664 12.2939 8.60039 11.5564 8.60039C10.8189 8.60039 10.0564 8.96289 9.60015 9.44414C9.43765 9.21914 9.1689 8.85664 8.7814 8.33164C9.5814 7.50039 10.5376 7.08789 11.6751 7.08789C12.3689 7.08789 12.9751 7.21914 13.5064 7.46289C14.7626 8.06289 15.5001 9.21914 15.7001 10.9566H16.9439V12.5254H16.9376ZM20.1001 6.32539H18.6439V4.97539H20.1001V6.32539ZM17.9001 6.32539H16.4439V4.97539H17.9001V6.32539ZM21.9501 12.5254H16.6626V10.9566H17.7439C18.2939 10.9566 18.5751 10.5816 18.5751 9.83164V7.21914H20.2251V9.77539C20.2251 10.2066 20.1564 10.5941 20.0251 10.9566H21.9501V12.5254ZM29.7251 12.5254H27.8501C27.3689 13.1941 26.6314 13.5316 25.6564 13.5316C24.6814 13.5316 23.9189 13.1941 23.4314 12.5254H21.6376V10.9566H22.9501C22.9501 9.26914 23.9126 8.21289 25.6126 8.21289C27.3126 8.21289 28.3564 9.23164 28.3564 10.9566H29.7251V12.5254ZM26.7251 10.9254C26.7251 10.0004 26.3751 9.53164 25.6814 9.53164H25.5626C24.9626 9.53164 24.5689 10.0941 24.5689 10.8566C24.5689 11.6191 24.9689 12.2066 25.6564 12.2066C26.3439 12.2066 26.7251 11.7129 26.7251 10.9316V10.9254ZM32.7939 10.2691C32.7939 10.8879 32.6189 11.4066 32.2751 11.8191C31.8876 12.3004 31.3501 12.5316 30.6564 12.5316H29.1064V10.9629H30.3126C30.8626 10.9629 31.1439 10.5754 31.1439 9.81289V4.98164H32.7876V10.2691H32.7939ZM35.6314 12.5254H33.9876V4.96289H35.6314V12.5254ZM47.8439 6.32539H46.3876V4.97539H47.8439V6.32539ZM49.7689 9.85664C49.7689 11.4754 48.6814 12.5316 47.0751 12.5316H42.8314C40.2439 12.5316 38.9501 11.4441 38.9501 9.25039V7.53789H40.5689V9.25039C40.5689 10.5191 41.1814 10.9629 42.8689 10.9629H44.5564C44.4251 10.6254 44.3689 10.2566 44.3689 9.87539C44.3689 8.24414 45.3876 7.21288 47.0189 7.21288C48.6501 7.21288 49.7751 8.24414 49.7751 9.86289L49.7689 9.85664ZM48.1376 9.90039C48.1376 8.97539 47.7876 8.51914 47.0939 8.51914H46.9876C46.3564 8.51914 45.9814 9.10664 45.9814 9.84414C45.9814 10.6754 46.4001 11.2066 47.0689 11.2066C47.7376 11.2066 48.1376 10.6441 48.1376 9.90664V9.90039ZM55.7439 12.5316H53.9251C53.6564 13.8191 52.6001 14.4629 50.7376 14.4629V13.1379C51.8189 13.1379 52.3564 12.6191 52.3564 11.5879V7.21288H54.0064V10.9504H55.7439V12.5191V12.5316ZM67.2564 12.5316H55.1251V10.9629H56.6001C57.1376 10.9629 57.4314 10.6816 57.4314 9.83789V7.78789H59.0751V9.30039C60.1064 7.98789 61.4689 7.20039 62.7814 7.20039C64.7064 7.20039 65.8314 8.56289 65.9814 10.9629H67.2564V12.5316ZM64.2689 10.9566L64.2814 10.7441C64.2814 9.53789 63.6814 8.62539 62.6501 8.62539C61.4439 8.62539 60.3626 9.41289 59.4626 10.9566H64.2689ZM75.0376 12.5316H73.1626C72.6814 13.2004 71.9439 13.5379 70.9689 13.5379C69.9939 13.5379 69.2314 13.2004 68.7439 12.5316H66.9501V10.9629H68.2626C68.2626 9.27538 69.2251 8.21914 70.9251 8.21914C72.6251 8.21914 73.6689 9.23788 73.6689 10.9629H75.0376V12.5316ZM72.0376 10.9254C72.0376 10.0004 71.6876 9.53164 70.9939 9.53164H70.8751C70.2751 9.53164 69.8814 10.0941 69.8814 10.8566C69.8814 11.6191 70.2814 12.2066 70.9689 12.2066C71.6564 12.2066 72.0376 11.7129 72.0376 10.9316V10.9254ZM78.1126 10.2691C78.1126 10.8879 77.9376 11.4066 77.5939 11.8191C77.2064 12.3004 76.6689 12.5316 75.9751 12.5316H74.4251V10.9629H75.6314C76.1814 10.9629 76.4626 10.5754 76.4626 9.81289V4.98164H78.1064V10.2691H78.1126ZM80.9439 12.5316H79.3001V4.96914H80.9439V12.5316Z" fill="#304365"/>
<path d="M1.80625 19.1998V22.3748C1.80625 23.7748 1.2625 24.4498 0 24.5186V23.9436C0.8 23.9436 1.20625 23.5061 1.20625 22.4873V19.1998H1.80625ZM4.85625 23.1061H4.175C3.8625 23.1061 3.60625 22.9936 3.39375 22.7811C3.14375 22.5373 3.025 22.1936 3.025 21.7373V17.5373H3.64375V21.3748C3.64375 21.7686 3.70625 22.0561 3.81875 22.2248C3.9125 22.3686 4.075 22.4561 4.30625 22.4936C4.36875 22.4998 4.4375 22.4998 4.85625 22.4998V23.0998V23.1061ZM6.55 23.1061H4.73125V22.5061H6.55V23.1061ZM8.25 23.1061H6.43125V22.5061H8.25V23.1061ZM9.95625 23.1061H8.1375V22.5061H9.95625V23.1061ZM11.6625 23.1061H9.84375V22.5061H11.6625V23.1061ZM13.3625 23.1061H11.5438V22.5061H13.3625V23.1061ZM15.0688 23.1061H13.25V22.5061H15.0688V23.1061ZM20.4312 23.1061H19.1125C18.7875 23.6061 18.3062 23.8561 17.6688 23.8561C17.0312 23.8561 16.5062 23.6061 16.1875 23.1061H14.9125V22.5061H15.925C15.8812 22.3248 15.8562 22.1248 15.8562 21.9123C15.8562 21.3436 16.0188 20.8811 16.3375 20.5123C16.6625 20.1436 17.1125 19.9623 17.6688 19.9623C18.225 19.9623 18.675 20.1498 18.9938 20.5186C19.2938 20.8686 19.45 21.3373 19.45 21.9061C19.45 22.1186 19.425 22.3186 19.375 22.5061H20.425V23.1061H20.4312ZM18.75 21.8436C18.75 21.4561 18.675 21.1436 18.5188 20.9123C18.3375 20.6311 18.0688 20.4936 17.7 20.4936C17.3313 20.4936 17.0125 20.6498 16.8125 20.9498C16.65 21.1998 16.5687 21.5248 16.5687 21.9498C16.5687 22.3373 16.6437 22.6561 16.8125 22.8936C17.0125 23.1748 17.2937 23.3123 17.6625 23.3123C18.3875 23.3123 18.7438 22.8248 18.7438 21.8436H18.75ZM21.6875 17.6248H21.075V16.8936H21.6875V17.6248ZM22.2437 18.5811H21.6313V17.8498H22.2437V18.5811ZM21.1188 18.5811H20.5063V17.8498H21.1188V18.5811ZM23.2187 23.1061H20.25V22.5123H20.8C21.1688 22.5123 21.4125 22.3936 21.5312 22.1623C21.6187 21.9998 21.6625 21.7248 21.6625 21.3248V19.1998H22.2625V21.5936C22.2625 21.9623 22.2125 22.2748 22.1 22.5061H23.2187V23.1061ZM25.075 18.5811H24.4625V17.8498H25.075V18.5811ZM23.95 18.5811H23.3375V17.8498H23.95V18.5811ZM26.0375 23.1061H23.0688V22.5123H23.6188C23.9875 22.5123 24.2313 22.3936 24.35 22.1623C24.4375 21.9998 24.4813 21.7248 24.4813 21.3248V19.1998H25.0813V21.5936C25.0813 21.9623 25.0312 22.2748 24.9187 22.5061H26.0375V23.1061ZM32.8125 19.1998V21.5936C32.8125 22.5998 32.3938 23.1061 31.5375 23.1061H25.8438V22.5061H26.6438C27.1938 22.5061 27.4937 22.1373 27.5562 21.4061V19.2061H28.1562V21.5998C28.1562 21.9498 28.1063 22.2436 28.0125 22.4748V22.5061H29.1375C29.6875 22.5061 29.8688 22.2373 29.8688 21.3248V19.1998H30.4688V21.5936C30.4688 21.9623 30.4188 22.2748 30.3063 22.5061H31.3375C31.9813 22.5061 32.2 22.2373 32.2 21.3248V19.1998H32.8125ZM37.5188 17.5373V21.5873C37.5188 22.5936 37.1 23.0998 36.2562 23.0998H33.7688V22.5061H35.1688L34.0563 18.1936H34.7125L35.7938 22.5061H36.05C36.4125 22.5061 36.65 22.3873 36.7812 22.1436C36.8688 21.9873 36.9125 21.7123 36.9125 21.3186V17.5311H37.5125L37.5188 17.5373ZM39.275 23.1061H38.675V17.5373H39.275V23.1061ZM43.5312 21.0936V22.3748C43.5312 23.7748 42.9813 24.4498 41.7125 24.5186V23.9436C42.5063 23.9436 42.9063 23.4623 42.925 22.4873C42.7375 22.8123 42.4 22.9811 41.9125 22.9811C40.9688 22.9811 40.2688 22.1873 40.2688 21.0686C40.2688 19.9498 40.9312 19.1748 41.9125 19.1748C42.8937 19.1748 43.5312 19.9748 43.5312 21.0936ZM42.95 21.0936C42.95 20.3186 42.5187 19.7061 41.8812 19.7061C41.2437 19.7061 40.8688 20.3061 40.8688 21.0561C40.8688 21.8061 41.3 22.4311 41.925 22.4311C42.55 22.4311 42.95 21.8373 42.95 21.0873V21.0936ZM48.4625 18.5811H47.85V17.8498H48.4625V18.5811ZM47.3375 18.5811H46.725V17.8498H47.3375V18.5811ZM49.3812 21.1123C49.3812 21.6811 49.2188 22.1561 48.9 22.5248C48.5625 22.9123 48.1063 23.1123 47.55 23.1123C46.9938 23.1123 46.525 22.9248 46.1875 22.5436C45.8687 22.1936 45.7063 21.7186 45.7063 21.1248C45.7063 20.5311 45.8688 20.0811 46.2063 19.7123C46.5438 19.3248 47 19.1373 47.5562 19.1373C48.1125 19.1373 48.5813 19.3248 48.9188 19.7061C49.2313 20.0686 49.3812 20.5436 49.3812 21.1186V21.1123ZM48.6938 21.0623C48.6938 20.6561 48.6188 20.3248 48.4625 20.0748C48.2625 19.7936 47.9812 19.6436 47.5937 19.6436C47.1812 19.6436 46.8688 19.7998 46.6625 20.1061C46.4875 20.3748 46.4062 20.7248 46.4062 21.1623C46.4062 21.5686 46.4938 21.8998 46.6625 22.1498C46.8688 22.4498 47.1625 22.5998 47.55 22.5998C48.3188 22.5998 48.6938 22.0811 48.6938 21.0623ZM51.8375 19.1998V22.3748C51.8375 23.7748 51.2938 24.4498 50.0312 24.5186V23.9436C50.8313 23.9436 51.2375 23.5061 51.2375 22.4873V19.1998H51.8375ZM54.8812 23.1061H54.2C53.8875 23.1061 53.6313 22.9936 53.4188 22.7811C53.1688 22.5373 53.05 22.1936 53.05 21.7373V17.5373H53.6687V21.3748C53.6687 21.7686 53.7312 22.0561 53.8437 22.2248C53.9375 22.3686 54.1 22.4561 54.3375 22.4936C54.4 22.4998 54.4687 22.4998 54.8875 22.4998V23.0998L54.8812 23.1061ZM56.575 23.1061H54.7562V22.5061H56.575V23.1061ZM58.2812 23.1061H56.4625V22.5061H58.2812V23.1061ZM59.9875 23.1061H58.1687V22.5061H59.9875V23.1061ZM61.6875 23.1061H59.8687V22.5061H61.6875V23.1061ZM63.3937 23.1061H61.575V22.5061H63.3937V23.1061ZM65.1 23.1061H63.2812V22.5061H65.1V23.1061ZM66.8 23.1061H64.9812V22.5061H66.8V23.1061ZM73.5125 23.1061H66.6V22.5061H71.8312C71.8375 22.3936 71.85 22.2936 71.85 22.1936C71.85 20.7373 71.0812 19.9061 69.7312 19.9061C69 19.9061 68.4562 20.1873 68.1125 20.7561C68.025 20.6623 67.8562 20.4873 67.5875 20.2248C68.0813 19.6123 68.7812 19.3123 69.7188 19.3123C71.4313 19.3123 72.5562 20.4498 72.5562 22.2373V22.5061H73.5V23.1061H73.5125ZM70.2 24.4186H69.5875V23.6873H70.2V24.4186ZM75.3313 18.5811H74.7188V17.8498H75.3313V18.5811ZM74.2 18.5811H73.5875V17.8498H74.2V18.5811ZM76.2937 23.1061H73.325V22.5123H73.875C74.2438 22.5123 74.4875 22.3936 74.6062 22.1623C74.6937 21.9998 74.7375 21.7248 74.7375 21.3248V19.1998H75.3375V21.5936C75.3375 21.9623 75.2875 22.2748 75.175 22.5061H76.2937V23.1061ZM79.1125 23.1061H76.1438V22.5123H76.6937C77.0625 22.5123 77.3063 22.3936 77.425 22.1623C77.5125 21.9998 77.5562 21.7248 77.5562 21.3248V17.5373H78.1562V21.5873C78.1562 21.9561 78.1062 22.2686 77.9937 22.4998H79.1125V23.0998V23.1061ZM80.9812 17.5373V21.5873C80.9812 22.5936 80.5625 23.0998 79.7188 23.0998H78.9687V22.5061H79.5187C79.8875 22.5061 80.1312 22.3873 80.25 22.1436C80.3375 21.9873 80.3812 21.7123 80.3812 21.3186V17.5311H80.9812V17.5373Z" fill="#304365"/>
</svg>
