<svg width="157" height="50" viewBox="0 0 157 50" fill="none" xmlns="http://www.w3.org/2000/svg">
<path d="M141.238 37.1782L137.816 43.8657C136.56 46.2757 134.276 47.8246 131.488 47.8246H124.095L125.66 44.7828C126.075 44.0112 126.883 43.5303 127.758 43.5303H131.488C132.655 43.5303 133.474 42.8705 134.013 41.836L135.623 38.4196C136.037 37.6535 136.846 37.1782 137.715 37.1782H141.232H141.238Z" fill="#F47D3F"/>
<path d="M84.0083 7.33008H81.6299V23.473H84.0083V7.33008Z" fill="#0B1338"/>
<path d="M75.2017 7.33008V19.4526C75.2017 20.3585 74.4612 21.0966 73.5413 21.0966H69.4799L69.5978 16.1089C69.6033 15.9802 69.6033 15.8573 69.6033 15.7286L67.2305 15.7007L67.2137 16.0585C67.0566 18.8655 64.7174 21.1022 61.8622 21.1022H44.1752C44.4221 20.5766 44.5566 20.0006 44.5566 19.3911L44.5847 13.0615H38.3245C36.0525 13.0615 34.207 14.9011 34.207 17.1657V21.1022H30.2803L30.3028 15.8125V15.7622H27.9243V15.8013C27.9019 18.7313 25.5066 21.1022 22.556 21.1022H16.3406V15.505H13.9621V24.1832C13.9621 26.6378 11.9652 28.6341 9.50252 28.6341H7.70747C5.24487 28.6341 3.24226 26.6378 3.24226 24.1832V19.3967H0.897461V24.1832C0.897461 27.9463 3.96028 31.0049 7.73551 31.0049H9.53058C13.3002 31.0049 16.3686 27.9463 16.3686 24.1832V23.473H22.584C24.654 23.473 26.5388 22.6566 27.9299 21.337V23.473H61.8846C63.8984 23.473 65.7271 22.7014 67.1071 21.4489L67.0566 23.473H73.5525C75.7795 23.473 77.5913 21.6725 77.5913 19.4583V7.33008H75.2129H75.2017ZM42.1894 19.38C42.1894 20.3305 41.4097 21.1022 40.4561 21.1022H36.5967V17.1657C36.5967 16.2095 37.3765 15.4323 38.3357 15.4323H42.2062L42.1838 19.38H42.1894Z" fill="#0B1338"/>
<path d="M60.1851 29.065V26.353H62.9056V27.3204C62.9056 28.2821 62.1259 29.0594 61.1611 29.0594H60.1906L60.1851 29.065Z" fill="#0B1338"/>
<path d="M64.2632 29.065V26.353H66.9838V27.3204C66.9838 28.2821 66.2041 29.0594 65.2392 29.0594H64.2687L64.2632 29.065Z" fill="#0B1338"/>
<path d="M19.7896 29.1768V26.4648H22.5102V27.4322C22.5102 28.3939 21.7304 29.1712 20.7656 29.1712H19.7951L19.7896 29.1768Z" fill="#0B1338"/>
<path d="M23.8691 29.1768V26.4648H26.5897V27.4322C26.5897 28.3939 25.81 29.1712 24.8451 29.1712H23.8747L23.8691 29.1768Z" fill="#0B1338"/>
<path d="M8.16699 17.5015V14.7896H10.8876V15.7569C10.8876 16.7187 10.1079 17.4959 9.14305 17.4959H8.1726L8.16699 17.5015Z" fill="#0B1338"/>
<path d="M37.9146 11.7754V9.06348H40.6352V10.0309C40.6352 10.9926 39.8555 11.7698 38.8906 11.7698H37.9202L37.9146 11.7754Z" fill="#0B1338"/>
<path d="M41.9932 11.7754V9.06348H44.7138V10.0309C44.7138 10.9926 43.934 11.7698 42.9693 11.7698H41.9988L41.9932 11.7754Z" fill="#0B1338"/>
<path d="M140.502 6.68745C137.72 6.68745 135.19 8.21955 133.906 10.6798L117.7 41.8586C117.155 42.8874 116.101 43.536 114.928 43.536H109.739L114.732 33.6222C115.276 32.5765 116.353 32.023 117.486 31.9614H118.72L120.925 27.6504H117.536C114.698 27.7342 112.084 29.1377 110.783 31.6204L102.402 47.8192H115.091C117.874 47.8192 120.397 46.2927 121.66 43.8827L129.74 28.2682L137.821 12.6537C138.354 11.6192 139.414 10.9874 140.58 10.9874H149.893L142.089 25.9729C141.534 27.0297 140.413 27.5832 139.207 27.6447H134.506L132.222 31.9503H139.156C141.966 31.9055 144.603 30.4853 145.916 27.9579L156.989 6.67627H140.497L140.502 6.68745Z" fill="#0B1338"/>
<path d="M109.622 20.605L102.48 6.6875H111.165C113.133 6.6875 114.934 7.77787 115.843 9.51683L122.984 23.4343H114.418C112.41 23.4791 110.553 22.3775 109.622 20.605Z" fill="#0B1338"/>
<path d="M40.0454 50.0001H38.4411C37.3247 50.0224 36.2926 49.4129 35.7821 48.4232L35.5577 47.9815L34.4414 45.7672L33.7852 44.4756H35.4512C35.8438 44.4756 36.2253 44.5483 36.5731 44.6992C37.2069 44.9564 37.7343 45.4261 38.0484 46.0524L38.3401 46.6284L39.9444 49.81L40.0398 50.0001H40.0454Z" fill="#0B1338"/>
<path d="M10.4557 33.7344L7.26387 40.5617L6.91607 39.8571C5.9344 37.8329 4.94712 35.7977 3.96545 33.7399H0.941895C2.46209 36.4183 4.06642 39.2141 5.74928 42.1329L5.79978 42.2168V47.8252H8.69431V42.2224L13.4793 33.7399H10.4613L10.4557 33.7344Z" fill="#0B1338"/>
<path d="M21.0978 33.729H18.708L13.4575 47.8142H16.2286C16.4026 47.1991 16.6887 46.2989 17.0813 45.1414L17.1654 44.8842H22.6011L22.6853 45.147C22.904 45.8292 23.1733 46.7183 23.4986 47.8142H26.3483L21.0978 33.729ZM18.1359 42.1723C18.6632 40.6346 19.1512 39.2535 19.6 38.0569L19.9702 37.056L20.3124 38.068C20.8902 39.8014 21.3501 41.1714 21.6755 42.1667L21.8438 42.6644H17.9789L18.1472 42.1667L18.1359 42.1723Z" fill="#0B1338"/>
<path d="M47.2486 45.7061V41.6299H52.6562V39.5219H47.2486V35.8426H53.7557V33.729H44.3765V47.8198H54.0642V45.7061H47.2486Z" fill="#0B1338"/>
<path d="M60.3697 45.7061V41.6299H65.7717V39.5219H60.3697V35.8426H66.8768V33.729H57.4976V47.8198H67.1853V45.7061H60.3697Z" fill="#0B1338"/>
<path d="M81.102 33.7344V43.9781L80.4232 43.0835C79.0601 41.2774 76.6031 38.1349 73.1084 33.7344H70.7075V47.8196H73.501V37.9169L74.1798 38.8115C76.4517 41.8086 78.903 44.8392 81.461 47.8196H83.9629V33.7344H81.102Z" fill="#0B1338"/>
<path d="M39.3344 35.7417C38.3695 34.4781 37.0681 33.7511 35.3741 33.5331C35.2618 33.5163 35.1497 33.5051 35.0375 33.4883C34.7682 33.466 34.4933 33.4492 34.2072 33.4492H34.2017C33.7361 33.4492 33.3827 33.4548 33.1246 33.4715L32.9339 33.4883L32.7768 33.5107C31.812 33.561 30.5611 34.2767 30.5611 34.2767L30.2525 34.5228C28.5528 35.8312 27.689 37.8106 27.689 40.4107C27.689 40.5002 27.689 40.584 27.6945 40.668C27.6945 40.668 27.689 40.6847 27.6945 40.6903C27.689 40.8413 27.689 40.9923 27.689 41.1432C27.689 43.0331 28.1546 44.6044 29.0689 45.8122C30.0337 47.0648 31.3184 47.7916 33.0012 48.0097C33.3827 48.0712 33.7866 48.0991 34.2072 48.0991C34.6841 48.0991 35.1328 48.06 35.5648 47.9762L34.4485 45.7619C34.3756 45.7787 34.2914 45.7787 34.2072 45.7787C33.1527 45.7787 32.3 45.3201 31.683 44.4199C31.0266 43.4917 30.6956 42.1385 30.6956 40.4107C30.7686 39.0799 31.0603 38.0175 31.5483 37.2347C32.1598 36.2673 33.0461 35.7697 34.2017 35.7697C35.2563 35.7697 36.1089 36.2282 36.726 37.1284C37.3822 38.0566 37.7132 39.4098 37.7132 41.1376C37.6347 42.4684 37.3486 43.5308 36.8605 44.3137C37.6179 44.8113 37.9993 45.0909 38.3302 45.7172L38.6332 46.3098C38.7229 46.226 38.7117 46.2763 38.7959 46.1813C39.9851 44.8505 40.6358 43.0667 40.7088 40.8637V40.8469C40.7143 40.7071 40.7143 40.5561 40.7143 40.4051C40.7143 38.5152 40.2488 36.944 39.3344 35.7362" fill="#0B1338"/>
<path d="M4.24617 6.57012C3.26449 6.57012 2.4511 6.20667 1.79479 5.46857C1.22261 4.84791 0.936523 4.11541 0.936523 3.27667C0.936523 2.31492 1.30675 1.49854 2.04161 0.833147C2.66988 0.279579 3.40473 0 4.24617 0C5.22784 0 6.04123 0.357862 6.69754 1.07918C7.26972 1.70544 7.55581 2.43794 7.55581 3.27667C7.55581 4.2552 7.18558 5.06598 6.45073 5.7202C5.82245 6.29054 5.0876 6.57571 4.24617 6.57571M4.24617 0.609483C3.51131 0.609483 2.88304 0.872288 2.35574 1.3923C1.83406 1.91232 1.5704 2.54417 1.5704 3.27108C1.5704 3.99799 1.82844 4.65221 2.34452 5.17222C2.8606 5.69224 3.49448 5.95504 4.24055 5.95504C4.98663 5.95504 5.62051 5.69224 6.13658 5.17222C6.65266 4.65221 6.91071 4.01476 6.91071 3.27108C6.91071 2.5274 6.64706 1.91232 6.12537 1.3923C5.60368 0.866696 4.96979 0.609483 4.23495 0.609483H4.24617ZM4.1452 3.56184H3.67399V4.78081H3.14108V1.58801H4.13958C4.94175 1.58801 5.34563 1.90673 5.34563 2.54417C5.34563 3.00269 5.13247 3.31581 4.71176 3.47797L5.44661 4.78081H4.79029L4.13958 3.56184H4.1452ZM4.16203 2.05771H3.67399V3.05301H4.16203C4.58274 3.05301 4.7959 2.89645 4.7959 2.58331C4.7959 2.23104 4.58274 2.05212 4.16203 2.05212V2.05771Z" fill="#F47D3F"/>
</svg>
