<svg width="95" height="50" viewBox="0 0 731.22 385.8" fill="none" xmlns="http://www.w3.org/2000/svg">
<path d="M64.16,128.36h64.2c35.43,0,64.16-28.73,64.16-64.16V0h0c-35.43,0-64.16,28.73-64.16,64.16v.04h-64.2C28.73,64.2,0,92.93,0,128.36v128.4h100.59v-64.2h-36.43v-64.2Z" fill="#00AEEF"/>
<path d="M194.12,129.04h62.6v64.2h-64.2v-62.6c-16.58,16.18-39.22,26.18-64.16,26.18h0v228.98h0c35.43,0,64.16-28.73,64.16-64.16v-64.2h64.2c35.46,0,64.2-28.74,64.2-64.2V64.88h-100.62c0,24.94-10,47.58-26.18,64.16Z" fill="#1C75BC"/>
<path d="M460.27,64.88h-127.48v.04c0,35.43,28.73,64.16,64.16,64.16h64.2v64.16h-64.2c-35.43,0-64.16,28.73-64.16,64.16v128.4h127.48c35.94,0,65.08-29.14,65.08-65.08v-190.77c0-35.94-29.14-65.08-65.08-65.08ZM461.15,321.6h-64.2v-64.16h64.2v64.16Z" fill="#1C75BC"/>
<path d="M731.05,117.34c-2.07-28.83-25.69-51.63-54.7-51.99-.08,26.04-.11,52.08-.12,78.11v74.87h-83.05v-89.25c-.04-21.25-.1-42.5-.1-63.75h-.03c-33.86,0-54.09,31.52-55.11,62.75-.25,7.72-.13,15.47-.09,23.2.07,14.9.37,29.81.37,44.71v47.34c0,20.66,9.16,30.99,27.49,30.99h110.53v55.97h-35.08c-8.33,0-16.65,0-24.98.02v.02h-38.81c-5.67,0-11.39,0-17.12,0h-.27c-7.65,0-15.29,0-22.77,0v.03c0,30.34,24.94,54.94,55.72,54.96h110.64c18.42,0,27.64-10.71,27.64-32.11V117.34h-.16Z" fill="#1C75BC"/>
</svg>
