<svg width="293" height="50" viewBox="0 0 293 50" fill="none" xmlns="http://www.w3.org/2000/svg">
<g clip-path="url(#clip0_170_2477)">
<path d="M234.81 23.7584V0.397311H238.619L238.885 2.67111C240.155 0.833811 242.361 0.0322266 244.23 0.0322266C249.31 0.0322266 252.687 3.81001 252.687 8.65525C252.687 13.5005 249.647 17.2783 244.365 17.2783C242.627 17.2783 240.056 16.7425 238.885 14.937V23.7584H234.81ZM248.611 8.65525C248.611 6.08382 246.873 3.97667 243.933 3.97667C240.992 3.97667 239.254 6.08382 239.254 8.65525C239.254 11.2267 241.159 13.3338 243.933 13.3338C246.706 13.3338 248.611 11.2267 248.611 8.65525Z" fill="#37B888"/>
<path d="M268.762 0.397085H272.671V16.8733H268.83L268.627 14.4685C267.691 16.405 265.119 17.3415 263.282 17.3772C258.401 17.409 254.794 14.401 254.794 8.62327C254.794 2.84549 258.572 -0.0314862 263.381 0.00025986C265.588 0.00025986 267.691 1.03597 268.627 2.67486L268.762 0.401045V0.397085ZM258.869 8.61931C258.869 11.7622 261.04 13.6312 263.75 13.6312C270.167 13.6312 270.167 3.63914 263.75 3.63914C261.044 3.63914 258.869 5.47645 258.869 8.61931Z" fill="#37B888"/>
<path d="M292.02 0.396973L281.96 23.7581H277.484L280.559 16.6073L273.976 0.400933H278.722L281.23 7.51998L282.801 12.1668L284.504 7.62316L287.512 0.404905H292.024L292.02 0.396973Z" fill="#37B888"/>
<path d="M10.3849 32.0834C11.0437 37.1152 15.4167 40.7421 22.5079 40.7421C26.2183 40.7421 31.0833 39.3413 33.3929 36.9485L39.8254 43.2977C35.5357 47.7501 28.5278 49.8929 22.3452 49.8929C8.3254 49.8929 0 41.2342 0 28.2064C0 15.1786 8.4127 6.93262 21.6032 6.93262C34.7937 6.93262 43.7024 15.3453 42.1349 32.0834H10.3849ZM32.4841 23.758C31.8254 18.4802 27.7024 15.8413 21.9286 15.8413C16.4881 15.8413 12.0317 18.4802 10.5476 23.758H32.4802H32.4841Z" fill="#37B888"/>
<path d="M84.0517 8.42486V13.2066L65.3334 39.1788H84.2143V49.0757H49.9961V44.8693L69.4564 17.5757H51.4802V8.4209H84.0517V8.42486Z" fill="#512B83"/>
<path d="M130.643 28.7935C130.643 40.5038 122.643 49.984 109.452 49.984C96.2619 49.984 88.3413 40.4998 88.3413 28.7935C88.3413 17.0872 96.4207 7.60303 109.369 7.60303C122.317 7.60303 130.643 17.1665 130.643 28.7935ZM98.4008 28.7935C98.4008 34.976 102.111 40.7499 109.448 40.7499C116.786 40.7499 120.496 34.976 120.496 28.7935C120.496 22.611 116.206 16.7538 109.448 16.7538C102.191 16.7538 98.4008 22.6903 98.4008 28.7935Z" fill="#512B83"/>
<path d="M167.5 49.0796V27.8058C167.5 21.6233 164.119 16.9209 157.686 16.9209C151.254 16.9209 147.297 22.1153 147.297 28.3018V49.0796H137.321V8.34547H146.309L146.968 13.8693C151.091 9.8296 155.214 7.76611 160.325 7.76611C169.889 7.76611 177.559 14.9407 177.559 27.7225V49.0796H167.5Z" fill="#512B83"/>
<path d="M194.794 32.3373C195.452 37.3691 199.825 40.9961 206.917 40.9961C210.627 40.9961 215.492 39.5953 217.802 37.2024L224.234 43.5516C219.944 48.004 212.936 50.1468 206.754 50.1468C192.734 50.1468 184.409 41.4881 184.409 28.4603C184.409 15.4326 192.821 7.18652 206.012 7.18652C219.202 7.18652 228.111 15.5992 226.544 32.3373H194.798H194.794ZM216.893 24.0119C216.234 18.7341 212.111 16.0953 206.337 16.0953C200.897 16.0953 196.44 18.7341 194.956 24.0119H216.889H216.893Z" fill="#512B83"/>
</g>
<defs>
<clipPath id="clip0_170_2477">
<rect width="292.063" height="50" fill="white"/>
</clipPath>
</defs>
</svg>
