<svg width="228" height="50" viewBox="0 0 228 50" fill="none" xmlns="http://www.w3.org/2000/svg">
<g clip-path="url(#clip0_170_2855)">
<path d="M98.616 0C96.4723 5.47052 90.6465 19.5705 83.6609 36.2124C81.0994 42.5888 79.2095 47.1456 77.9912 49.879H70.4629C70.8807 48.5592 72.8721 43.6158 76.4215 35.0566V35.1738L61.8179 0H69.4672C69.6039 0.374854 69.7327 0.769231 69.8616 1.18704C75.6796 14.9902 80.8885 27.0949 80.9666 27.4385H79.6156C84.231 16.1577 88.5418 5.80242 91.0486 0L98.616 0Z" fill="white"/>
<path d="M26.9529 3.42855C28.0345 4.15873 28.8154 4.93968 29.3074 5.76357C29.897 4.77177 30.9122 3.84635 32.3531 2.98731C32.6967 2.78036 33.0325 2.60074 33.3878 2.42113C34.4812 1.86666 35.7658 1.34733 37.2418 0.855333C38.9404 0.289148 41.2285 -0.0661824 42.9935 0.0353404C48.8193 0.367242 53.4386 3.33874 56.8357 8.93421C58.0188 11.3903 58.6085 13.7565 58.6085 16.0135V30.3751V37.0951V40.2618H55.063H54.7194H51.1739V30.3751H51.1856V16.3141C51.1856 12.0072 48.9677 9.05135 44.528 7.43479L42.7553 7.19661H41.4042C37.9486 7.19661 35.2816 9.2583 33.4035 13.3973C33.1575 14.3032 33.0247 15.0802 33.0208 15.705V15.7362V30.3751V36.7124V36.9506V40.2618H29.4753H29.3972H29.2137H29.1356H25.5901V36.9506V36.7124V30.3751V19.5473V15.7089C25.5862 15.0842 25.4534 14.3071 25.2074 13.4012C23.3293 9.26221 20.6623 7.20051 17.2067 7.20051H15.8556L14.0829 7.4387C9.64321 9.05525 7.42532 12.0111 7.42532 16.318V30.379H7.43704V40.2657H3.89155H3.55184H0.00634766V37.099V30.379V16.0174C0.00634766 13.7565 0.595961 11.3942 1.77909 8.93811C5.19963 3.29969 9.86187 0.328195 15.7463 0.0314357C17.6479 -0.0661824 20.3422 0.484384 22.111 1.11304C22.642 1.30438 23.1497 1.49571 23.6299 1.69485C24.8326 2.19465 25.8791 2.69836 26.9568 3.43245L26.9529 3.42855Z" fill="white"/>
<path d="M121.318 -1.52504e-06C126.664 -1.52504e-06 131.47 1.99531 135.754 6.00156C139.811 10.2304 141.834 14.998 141.834 20.2811C141.834 27.8485 138.222 33.7954 131.025 38.1296C127.835 39.7462 124.758 40.5584 121.779 40.5584H120.635C115.828 40.5584 111.744 39.0355 108.355 35.9742V49.9961H100.893V21.5502C100.893 11.3588 105.754 4.48653 115.473 0.913704C116.707 0.507613 118.651 0.203044 121.318 -0.00390625V-1.52504e-06ZM108.511 19.8594V20.5935C108.511 25.5174 110.873 29.3284 115.629 32.0227C117.269 32.8895 119.03 33.3229 120.936 33.3229H121.775C126.754 33.3229 130.576 30.7107 133.255 25.4822C133.888 23.7876 134.215 22.1593 134.215 20.5974V19.8633C134.215 15.7517 132.337 12.296 128.593 9.47286C126.414 7.98907 123.942 7.23936 121.213 7.23936C115.762 7.23936 111.767 10.1562 109.194 15.9742C108.733 17.3799 108.511 18.6841 108.511 19.8633V19.8594Z" fill="white"/>
<path d="M168.608 0C173.942 0 178.76 2.01093 183.067 6.04451C187.007 10.1484 189.03 14.7638 189.143 19.8946L189.147 20.3631V40.7224H181.49V36.0758C180.518 36.8567 179.456 37.5947 178.3 38.2897C175.121 39.9063 172.021 40.7185 169.026 40.7185H167.87C162.302 40.7185 157.14 38.1179 152.357 32.9442C149.479 28.8598 148.05 24.67 148.05 20.3592C148.05 13.7915 150.978 8.2624 156.824 3.76806C160.592 1.26123 164.52 0 168.604 0L168.608 0ZM155.711 19.9375V20.6209C155.711 25.5955 158.101 29.4338 162.868 32.1281C164.508 33.0066 166.281 33.4401 168.175 33.4401H169.03C174.008 33.4401 177.843 30.8122 180.537 25.5447C181.181 23.8501 181.498 22.2101 181.498 20.6209V19.9375V19.8907C181.482 15.7751 179.592 12.3077 175.797 9.50801C173.669 8.00859 171.224 7.2745 168.456 7.2745C162.993 7.2745 158.96 10.164 156.371 15.9703C155.937 17.4034 155.715 18.731 155.715 19.9375H155.711Z" fill="white"/>
<path d="M227.675 0C225.531 5.47052 219.706 19.5705 212.72 36.2124C210.158 42.5888 208.269 47.1456 207.05 49.879H199.522C199.94 48.5592 201.931 43.6158 205.481 35.0566V35.1738L190.877 0H198.526C198.663 0.374854 198.792 0.769231 198.921 1.18704C204.739 14.9902 209.948 27.0949 210.026 27.4385H208.675C213.29 16.1577 217.601 5.80242 220.108 0L227.675 0Z" fill="white"/>
</g>
<defs>
<clipPath id="clip0_170_2855">
<rect width="227.677" height="50" fill="white"/>
</clipPath>
</defs>
</svg>
