<svg width="187" height="50" viewBox="0 0 187 50" fill="none" xmlns="http://www.w3.org/2000/svg">
<path d="M154.829 49.0001C149.372 48.9542 144.156 46.7412 140.33 42.8479C136.503 38.9547 134.379 33.7001 134.425 28.2401V12.9621H146.373V28.2401C146.373 28.3735 146.377 28.5121 146.383 28.6561C146.498 30.9446 147.516 33.0939 149.215 34.6315C150.913 36.1691 153.152 36.9693 155.439 36.8561C157.68 36.7031 159.777 35.6981 161.301 34.0474C162.825 32.3966 163.66 30.2251 163.635 27.9781V12.9621H175.584V28.2401C175.584 28.3581 175.584 28.4741 175.584 28.5921C175.536 34.0205 173.348 39.2104 169.495 43.0324C165.641 46.8545 160.435 48.9993 155.009 49.0001H154.829ZM107.899 28.2001V4.31612H119.849C119.848 6.60358 120.751 8.79878 122.361 10.4224C123.972 12.0461 126.159 12.9663 128.445 12.9821V24.9321C125.473 24.9445 122.536 24.2912 119.849 23.0201V28.2001C119.848 30.4874 120.751 32.6823 122.362 34.3059C123.972 35.9294 126.159 36.8498 128.445 36.8661V48.8161C122.99 48.8013 117.764 46.6226 113.912 42.7578C110.06 38.8931 107.898 33.6578 107.899 28.2001ZM42.8304 36.8641V1.00013H54.775V48.8001C51.6097 48.7996 48.574 47.5423 46.3344 45.3044C44.0949 43.0665 42.8347 40.0309 42.8304 36.8641ZM0.999512 48.8001V24.9061H18.7494C20.2571 24.9238 21.7178 24.3815 22.8488 23.384C23.9799 22.3865 24.701 21.0048 24.8726 19.5061C24.8906 19.3161 24.9006 19.1281 24.9006 18.9401C24.9017 17.3534 24.2728 15.8312 23.1523 14.7083C22.0317 13.5854 20.5113 12.9537 18.9253 12.9521H0.999512V1.00013H18.5455C23.2603 0.961397 27.8055 2.75821 31.2204 6.01081C34.6353 9.2634 36.6523 13.7169 36.8452 18.4301C36.8452 18.5961 36.8452 18.7621 36.8452 18.9281C36.8449 21.2829 36.381 23.6146 35.48 25.7899C34.579 27.9653 33.2585 29.9419 31.5939 31.6067C29.9293 33.2715 27.9532 34.5919 25.7785 35.4926C23.6038 36.3933 21.273 36.8567 18.9193 36.8561H12.9481V48.8001H0.999512ZM60.7583 28.2381V12.9601H72.7068V28.2301C72.7068 28.3635 72.7101 28.5021 72.7168 28.6461C72.8317 30.9346 73.8501 33.0839 75.5482 34.6215C77.2463 36.1591 79.4851 36.9593 81.7727 36.8461C84.0125 36.6931 86.1091 35.689 87.633 34.0396C89.1568 32.3901 89.9925 30.2201 89.9689 27.9741V12.9521H101.917V28.2301C101.868 33.6278 99.7024 38.7902 95.886 42.6058C92.0696 46.4213 86.908 48.5847 81.5128 48.6301H81.3309C75.9089 48.6257 70.7074 46.4818 66.8557 42.6639C63.004 38.8461 60.813 33.6623 60.7583 28.2381ZM182.019 10.0701C181.546 10.0723 181.077 9.97701 180.642 9.79012C180.233 9.61006 179.861 9.35653 179.544 9.04212C179.215 8.72911 178.959 8.34647 178.796 7.92212C178.607 7.49343 178.512 7.02884 178.519 6.56012C178.517 6.08632 178.613 5.61727 178.8 5.18213C178.963 4.76404 179.219 4.38853 179.548 4.08413C179.859 3.76211 180.232 3.5075 180.646 3.33612C181.081 3.14989 181.55 3.05461 182.023 3.05612C182.491 3.05258 182.955 3.14799 183.384 3.33612C184.222 3.68602 184.892 4.34789 185.251 5.18213C185.438 5.61735 185.534 6.08643 185.531 6.56012C185.537 7.02894 185.441 7.49343 185.251 7.92212C185.072 8.3375 184.818 8.71694 184.504 9.04212C184.174 9.35208 183.795 9.60488 183.382 9.79012C182.961 9.97498 182.505 10.0703 182.045 10.0701H182.019ZM180.917 3.92613C180.583 4.06229 180.281 4.26663 180.03 4.52612C179.771 4.78503 179.567 5.09395 179.43 5.43412C179.124 6.18271 179.124 7.02154 179.43 7.77012C179.572 8.10147 179.776 8.40282 180.03 8.65812C180.279 8.92901 180.581 9.14553 180.917 9.29412C181.265 9.44285 181.637 9.52234 182.015 9.52812C182.392 9.51991 182.765 9.44052 183.112 9.29412C183.445 9.14245 183.747 8.93017 184.002 8.66813C184.244 8.40602 184.441 8.10604 184.586 7.78013C184.758 7.40095 184.838 6.98628 184.82 6.57013C184.825 6.18412 184.745 5.8017 184.586 5.45012C184.447 5.11486 184.25 4.80728 184.002 4.54212C183.747 4.28751 183.446 4.08387 183.114 3.94212C182.77 3.78397 182.396 3.70406 182.017 3.70812H181.977C181.612 3.70266 181.251 3.77706 180.917 3.92613ZM181.271 8.57812C181.03 8.45753 180.81 8.29958 180.618 8.11013C180.449 7.90726 180.314 7.67829 180.218 7.43213C180.014 6.86591 180.014 6.24634 180.218 5.68012C180.307 5.42489 180.452 5.19264 180.642 5.00012C180.809 4.79387 181.026 4.63296 181.271 4.53212C181.546 4.42325 181.839 4.3676 182.135 4.36812C182.546 4.36653 182.947 4.49769 183.278 4.74213C183.611 5.01642 183.82 5.41126 183.862 5.84013H183.232C183.212 5.72267 183.169 5.61044 183.105 5.51011C183.041 5.40978 182.957 5.3234 182.859 5.25612C182.652 5.09603 182.396 5.01325 182.135 5.02212C181.941 5.0098 181.747 5.04986 181.573 5.13812C181.409 5.21216 181.264 5.32384 181.151 5.46413C180.895 5.7614 180.761 6.14555 180.778 6.53813C180.776 6.92897 180.908 7.30867 181.151 7.61412C181.278 7.75524 181.428 7.87361 181.595 7.96413C181.767 8.05961 181.961 8.10792 182.157 8.10413C182.42 8.10476 182.676 8.01433 182.881 7.84812C183.067 7.68419 183.191 7.46099 183.232 7.21613H183.832C183.779 7.64134 183.571 8.03209 183.248 8.31413C182.939 8.58742 182.54 8.73695 182.127 8.73413H182.075C181.799 8.73524 181.526 8.68224 181.271 8.57812Z" fill="#247872"/>
</svg>
